<svg viewBox="0 0 100 100" fill="none" xmlns="http://www.w3.org/2000/svg" class="size-full">
    <path d="M76.1328 63.6914C76.1328 63.6914 76.2109 64.043 74.5117 63.4375C72.8125 62.832 71.3281 62.1484 71.3281 62.1484C71.3281 62.1484 70.1562 61.1914 70.0391 60.5859C69.9219 60 69.7461 59.1211 70.0391 58.9258C70.332 58.7305 71.1719 58.5742 71.875 58.7695C72.5781 58.9648 73.8281 59.5312 74.5117 60.3125C75.1953 61.0937 76.0938 62.5586 76.1328 62.9688C76.1719 63.3789 76.5039 63.6719 76.1328 63.6914Z" fill="#BAE8F7"></path>
    <path d="M47.7539 44.043C47.8516 44.0234 47.9688 44.0039 48.0664 43.9648C47.9492 44.0039 47.8516 44.0234 47.7539 44.043Z" fill="#F7FBFC"></path>
    <path d="M77.4219 64.8047C77.4023 64.8242 77.3633 64.8438 77.3438 64.8828C76.8555 64.5313 76.5039 64.043 75.957 63.7109C76.2305 63.6133 76.1719 63.457 76.1133 63.3008C75.6445 61.7578 74.668 60.6055 73.3398 59.7266C72.5781 59.2187 71.7383 59.0039 70.8594 58.9258C70.3516 58.8867 70.1172 59.1211 70.0976 59.6289C70.0781 60.3125 70.3711 60.8789 70.8203 61.3672C71.3867 61.9727 72.0312 62.4414 72.8711 62.6172C73.3008 62.7148 73.7305 62.793 74.1406 62.9297C74.6289 63.1055 75.0781 63.3398 75.5469 63.5352C75.5664 63.5352 75.5859 63.5547 75.6055 63.5742C75.6641 63.6719 75.7227 63.7695 75.7812 63.8477C75.6641 63.8867 75.5469 63.9648 75.4492 63.9648C75.2539 63.9258 75.0586 63.8281 74.8633 63.7695C74.1797 63.5742 73.4961 63.3789 72.8125 63.2031C71.7383 62.9297 70.8398 62.4023 70.2539 61.4258C69.9414 60.8789 69.7851 60.293 69.707 59.668C69.6289 58.9258 70.1758 58.4766 70.9766 58.5547C71.6992 58.6133 72.3828 58.8281 73.0469 59.1602C74.1602 59.707 74.9609 60.5273 75.5664 61.582C75.7227 61.8555 75.8594 62.1289 76.0156 62.4023C76.1914 62.7539 76.25 63.125 76.2695 63.5156C76.2695 63.6133 76.3281 63.7305 76.4063 63.8086C76.6797 64.082 76.9727 64.3359 77.2461 64.6094C77.3438 64.6289 77.3633 64.7266 77.4219 64.8047Z" fill="#1D2426"></path>
    <path d="M79.1797 55.4297C78.9062 55.5469 78.6523 55.7226 78.4375 55.918C77.9492 56.3867 77.5391 56.9336 77.2656 57.5586C77.0703 57.9883 76.9336 58.4375 76.8359 58.9062C76.6406 59.8242 76.9336 60.6641 77.2266 61.5039C77.5391 62.4414 77.8711 63.3984 77.8516 64.4141C77.8516 64.5312 77.8906 64.6484 77.9101 64.7656C77.9297 64.7656 77.9492 64.7656 77.9688 64.7656C77.9883 64.707 78.0469 64.6289 78.0469 64.5703C78.0469 64.2188 78.0469 63.8477 78.0469 63.4961C78.0469 63.3008 78.0469 63.1055 78.0664 62.9102C78.0859 62.7344 78.125 62.5391 78.1641 62.3633C78.2812 61.582 78.3008 60.7617 78.5352 60.0195C78.8477 58.9648 79.043 57.8711 79.5703 56.875C79.7266 56.582 79.8242 56.2305 79.8828 55.8984C79.9219 55.4883 79.5508 55.2539 79.1797 55.4297ZM79.4141 56.1328C78.7891 57.3047 78.457 58.5547 78.2812 59.8633C78.1641 60.7227 78.0273 61.582 77.9101 62.4805C77.8711 62.3242 77.8125 62.1875 77.7734 62.0508C77.5977 61.4844 77.4023 60.9375 77.2656 60.3711C77.0312 59.3164 77.168 58.3203 77.7539 57.4023C77.8516 57.2656 77.9297 57.1289 77.9883 56.9727C78.2226 56.5039 78.5742 56.1133 79.0039 55.8008C79.1211 55.7031 79.3164 55.7031 79.4922 55.6641C79.4726 55.8398 79.4922 56.0156 79.4141 56.1328Z" fill="#1D2426"></path>
    <path d="M94.0039 83.3594C94.043 83.3984 94.1016 83.457 94.1406 83.5156C94.1211 83.5352 94.1211 83.5547 94.1016 83.5742C93.3789 83.1445 92.7148 82.6367 92.0703 82.1094C92.0898 82.0898 92.0898 82.0703 92.1094 82.0508C92.3047 82.1875 92.5195 82.3242 92.7148 82.4805C92.8711 82.5976 93.0273 82.7539 93.2031 82.8711C93.2617 82.9101 93.3594 82.8906 93.418 82.9102C93.4961 82.9297 93.5937 82.9492 93.6523 82.9883C93.9648 83.1641 94.2773 83.3594 94.5898 83.5938C94.4141 83.4961 94.2187 83.3984 94.043 83.3203C94.0234 83.3398 94.0039 83.3398 94.0039 83.3594Z" fill="#1D2426"></path>
    <path d="M47.793 44.1406C47.7734 44.2383 47.7344 44.3164 47.6953 44.4141C47.6562 44.3555 47.5781 44.2969 47.5781 44.2578C47.5781 44.1602 47.5586 44.0039 47.7539 44.043C47.7539 44.043 47.7539 44.0625 47.7734 44.0625C47.7734 44.1016 47.793 44.1211 47.793 44.1406Z" fill="#1D2426"></path>
    <path d="M52.3633 69.2578L54.3359 70.6836L55.9375 71.3672L58.8867 69.2578L61.6211 67.1289L64.375 65.2734L64.4922 63.6914L64.2578 61.0352L64.3945 57.6562L64.2188 53.0273L63.6523 51.9922L59.6484 50L54.9609 47.3437L52.3633 45.8008L49.2383 43.7109H48.0664L47.5781 44.2578L47.5781 46.5625L50.0195 53.9453L48.8867 59.668L52.3633 69.2578Z" fill="#F7FBFC"></path>
    <path d="M47.8711 53.0273C47.6367 53.0664 47.4219 53.1055 47.1875 53.1641C47.4023 53.0859 47.6172 53.0078 47.8516 52.9492C47.8516 52.9688 47.8516 52.9883 47.8711 53.0273Z" fill="#1D2426"></path>
    <path d="M57.4609 65.0781C56.875 65.4492 56.3281 65.8203 55.7617 66.1719C54.9219 66.6797 54.082 67.1875 53.2422 67.6953C52.5 68.1445 51.7969 68.6328 51.0547 69.1016C50.3711 69.5312 49.668 69.9414 48.9844 70.3516C48.2422 70.8008 47.5 71.25 46.7578 71.6992C46.6016 71.7969 46.4648 71.8359 46.2891 71.7383C45.8008 71.4844 45.293 71.2695 44.8242 71.0352C44.4531 70.8594 44.1016 70.6445 43.75 70.4297C42.9297 69.9609 42.1289 69.4922 41.3086 69.0234C40.3711 68.4961 39.4336 67.9688 38.4961 67.4414C37.3437 66.8164 36.1719 66.2109 35.0195 65.5664C34.4141 65.2148 33.8281 64.8047 33.2812 64.3555C32.6172 63.8281 31.8555 63.457 31.1133 63.0859C30.1953 62.6367 29.2773 62.207 28.3594 61.7578C27.7148 61.4453 27.0898 61.1328 26.4453 60.8203C26.3477 60.7812 26.2695 60.7227 26.1719 60.6445C26.4258 60.4688 26.6211 60.293 26.8555 60.1562C27.9687 59.4141 29.1797 58.8477 30.3516 58.2227C31.2109 57.7734 32.0117 57.207 32.8516 56.7188C33.3789 56.4062 33.9258 56.1133 34.4531 55.8203C35.1172 55.4492 35.7617 55.0586 36.4062 54.668C36.9727 54.3359 37.5195 53.9844 38.0859 53.6523C38.2031 53.5938 38.2812 53.5742 38.3984 53.6719C39.1016 54.1797 39.8242 54.6875 40.5664 55.1562C40.9766 55.4102 41.4453 55.6055 41.8945 55.8008C42.4023 56.0156 42.8516 56.3086 43.3008 56.6406C43.6328 56.8945 43.9844 57.1289 44.3359 57.3633C45.1367 57.8711 45.957 58.3984 46.7773 58.8672C47.4805 59.2773 48.2226 59.6484 48.9648 59.9805C49.6484 60.293 50.2344 60.7422 50.8594 61.1719C51.2891 61.4648 51.7578 61.6992 52.207 61.9531C53.2617 62.5391 54.3359 63.1055 55.3906 63.7109C56.0547 64.1016 56.6992 64.5312 57.3438 64.9414C57.3438 64.9805 57.4023 65.0195 57.4609 65.0781Z" fill="#BAE8F7"></path>
    <path d="M77.3828 72.2461C77.2656 72.168 77.1875 72.0703 77.1289 71.9726C77.0703 71.9531 77.0117 71.9336 76.9727 71.8945C76.582 71.4062 76.0742 71.1719 75.4688 71.1133C74.1992 70.957 73.125 71.3476 72.2656 72.2656C71.0352 73.5742 70.6055 75.1562 70.6836 76.914C70.7031 77.2851 70.7617 77.3242 71.1133 77.2265C72.1094 76.9531 73.1055 76.6797 74.1016 76.3867C75.0781 76.0937 75.9766 75.6836 76.6992 74.9219C77.3633 74.2383 77.6953 73.457 77.4219 72.5C77.4023 72.4219 77.3633 72.3242 77.3828 72.2461Z" fill="#BAE8F7"></path>
    <path d="M78.7109 66.2305C78.7109 66.8164 78.4375 67.3242 78.0664 67.793C77.8516 68.0664 77.5781 68.3008 77.3047 68.5351C77.1094 68.6914 76.8555 68.75 76.6211 68.5742C75.7031 67.8711 75 66.9922 74.8242 65.8203C74.7461 65.3125 75.1953 64.9023 75.7031 65.0391C76.0938 65.1367 76.4453 65.3125 76.8164 65.4492C76.9531 65.4883 77.0312 65.5664 77.168 65.4101C77.2656 65.293 77.5 65.293 77.6758 65.2734C78.1055 65.2148 78.75 65.625 78.7109 66.2305Z" fill="#BAE8F7"></path>
    <path d="M79.4726 68.2226C79.5508 68.0859 79.6094 67.9883 79.6484 67.8906C79.6875 67.7734 79.7266 67.6562 79.7656 67.5391C79.7851 67.5 79.7852 67.4609 79.8047 67.4414C80.625 66.6406 81.4062 65.8008 82.3633 65.1562C82.5977 65 82.8906 64.9023 83.1836 64.8242C83.2812 64.7851 83.4766 64.8242 83.5352 64.9023C83.6133 64.9805 83.6133 65.1758 83.5742 65.293C83.3203 65.9961 82.8906 66.6211 82.3242 67.0703C81.9336 67.3633 81.4062 67.5 80.957 67.6953C80.5273 67.8711 80.0781 68.0469 79.6289 68.2226C79.6094 68.2031 79.5703 68.2031 79.4726 68.2226Z" fill="#BAE8F7"></path>
    <path d="M79.9219 75.4492C79.8438 76.0547 79.7656 76.582 79.6875 77.1289C79.668 77.207 79.668 77.2851 79.6484 77.3633C79.6094 77.5195 79.6289 77.7148 79.5508 77.793C79.3359 77.9492 79.1016 78.125 78.8477 78.1641C78.3594 78.2617 77.8516 78.2031 77.3828 77.9883C77.1094 77.8711 76.9336 77.6953 76.875 77.4023C76.7969 76.9726 76.7187 76.543 76.6406 76.1133C77.8516 76.582 78.9648 76.582 79.9219 75.4492Z" fill="#F7FBFC"></path>
    <path d="M75.6055 68.3984C75.9375 68.6328 76.1914 69.082 76.6992 69.1797C76.6992 69.1992 76.7187 69.2187 76.7187 69.2383C76.7187 69.4336 76.7773 69.707 76.6601 69.8437C76.5625 69.9609 76.2891 69.9609 76.1133 70C75.7812 70.0976 75.4688 70.2148 75.1172 70.2734C74.9219 70.3125 74.6875 70.2734 74.5117 70.1953C74.043 69.9805 73.5937 69.7266 73.1445 69.4922C72.8906 69.3555 72.8516 69.1992 73.0469 68.9844C73.125 68.8867 73.2226 68.8086 73.3398 68.7695C73.9258 68.5352 74.5508 68.3984 75.1953 68.4766C75.293 68.4766 75.4102 68.418 75.6055 68.3984Z" fill="#BAE8F7"></path>
    <path d="M73.0469 69.9219C73.5937 70.1562 74.1406 70.4102 74.6484 70.625C74.4336 70.7227 74.2969 70.7226 74.043 70.5664C73.7109 70.3711 73.3789 70.1367 73.0469 69.9219Z" fill="#F7FBFC"></path>
    <path d="M36.875 69.1992C37.207 69.3945 37.5391 69.5898 37.8906 69.7851C38.5156 70.1367 39.1211 70.4883 39.7461 70.8203C40.332 71.1328 40.918 71.4258 41.5234 71.7187C41.9922 71.9531 42.4609 72.207 42.9492 72.4023C43.418 72.5977 43.6328 72.9883 43.75 73.4375C43.7695 73.4766 43.7305 73.5547 43.6914 73.5937C43.5352 73.7109 43.3789 73.8086 43.2031 73.9062C42.6367 74.2383 42.0898 74.5898 41.5234 74.9219C40.8203 75.332 40.1172 75.7422 39.4141 76.1719C38.8086 76.5234 38.2031 76.8945 37.5977 77.2461C37.4219 77.3437 37.2461 77.4609 37.0312 77.5781C37.0508 77.3242 37.0898 77.0898 37.0898 76.8555C37.1484 76.1133 37.207 75.3711 37.2461 74.6289C37.3047 73.5937 37.3633 72.5586 37.3828 71.5234C37.4023 71.0742 37.3828 70.6055 37.3047 70.1562C37.2266 69.8047 37.0117 69.5117 36.875 69.1992Z" fill="#BAE8F7"></path>
    <path d="M34.9219 68.1641C35.332 68.3789 35.7422 68.5937 36.1328 68.8086C36.1133 68.8281 36.1133 68.8477 36.0937 68.8867C35.7031 68.6523 35.3125 68.3984 34.9219 68.1641Z" fill="#BAE8F7"></path>
    <path d="M43.418 78.3008C43.2422 78.3398 43.0469 78.3398 42.8906 78.418C42.5586 78.5938 42.2266 78.8086 41.8945 79.0234C41.1719 79.5312 40.4883 80.0586 39.7461 80.5469C38.8477 81.1328 37.9102 81.6602 36.9922 82.207C36.6797 82.3828 36.3867 82.5977 36.1328 82.7734C35.4883 82.4609 34.8437 82.168 34.2187 81.8164C33.7109 81.543 33.2617 81.2109 32.7734 80.918C32.0117 80.4492 31.2305 80 30.4492 79.5313C30.2539 79.4141 30.0391 79.2578 29.8828 79.082C29.5898 78.7695 29.2187 78.5938 28.8281 78.4766C28.2422 78.3008 27.7734 77.9297 27.2852 77.5977C26.543 77.0703 25.7422 76.6211 24.9023 76.25C24.3945 76.0352 23.9453 75.6836 23.457 75.3906C22.7344 74.9414 22.0117 74.4922 21.2891 74.0625C20.9961 73.8867 20.6836 73.7891 20.3125 73.6133C20.3125 72.793 20.3516 71.8945 20.3125 71.0156C20.2344 69.6094 20.1172 68.1836 20.0195 66.7773C19.9609 65.9375 19.9414 65.0781 19.9023 64.2383C19.8828 63.2031 19.8633 62.168 19.8437 61.1328C19.8437 60.957 19.8047 60.7617 19.7852 60.5664C19.9805 60.4883 20.1953 60.4102 20.3516 60.3516C20.7227 60.5273 21.0742 60.7031 21.4453 60.8398C22.4609 61.1914 23.2812 61.8555 24.1211 62.5C24.8242 63.0273 25.5273 63.5547 26.2695 64.0234C27.6758 64.9414 29.1211 65.8203 30.5469 66.6992C31.582 67.3242 32.6562 67.9102 33.7109 68.5156C34.2187 68.8086 34.707 69.082 35.1953 69.3945C35.5273 69.6094 35.6836 69.9609 35.6641 70.3711C35.6641 70.5469 35.6055 70.7227 35.8203 70.8399C35.8789 70.8789 35.8594 71.0352 35.8594 71.1523C35.8789 72.2656 35.918 73.3594 35.8984 74.4727C35.8789 75.5859 35.8203 76.6797 35.7617 77.793C35.7617 77.9297 35.7422 78.0664 35.7617 78.2227C35.7617 78.2813 35.8398 78.3398 35.8789 78.3789C35.9375 78.3203 35.9961 78.2813 36.0352 78.2227C36.0547 78.2031 36.0547 78.1445 36.0547 78.1055C36.0937 77.0898 36.1523 76.0547 36.1523 75.0391C36.1719 73.7695 36.1328 72.5195 36.1328 71.25C36.1328 70.8203 36.1914 70.3906 36.1523 69.9805C36.1328 69.6484 36.0742 69.3555 35.6641 69.1797C35.0977 68.9258 34.5898 68.5547 34.043 68.2422C33.125 67.7148 32.1875 67.1875 31.2695 66.6406C29.9219 65.8594 28.5937 65.0781 27.2656 64.2773C26.3281 63.6914 25.3906 63.0859 24.4922 62.4609C23.8867 62.0508 23.3203 61.5625 22.6758 61.0938C22.7539 61.1133 22.793 61.1133 22.8125 61.1328C23.457 61.4844 24.1211 61.7969 24.707 62.1875C25.332 62.6172 26.0742 62.793 26.7187 63.1836C27.5391 63.6719 28.3789 64.1406 29.1992 64.6289C29.2383 64.6484 29.2773 64.668 29.2969 64.707C29.9414 65.4883 30.8398 65.9375 31.6992 66.4258C32.0117 66.6211 32.3047 66.8555 32.5977 67.0898C33.5742 67.8516 34.6094 68.4961 35.7227 69.043C35.957 69.1602 36.2109 69.2773 36.4453 69.3945C36.7578 69.5508 36.8945 69.8438 36.9727 70.1563C37.1289 70.6836 37.0703 71.2305 37.0508 71.7773C37.0312 72.3242 36.9922 72.8516 36.9727 73.3984C36.9727 73.8867 37.0312 74.375 37.0117 74.8633C36.9922 75.625 36.9141 76.4062 36.8555 77.168C36.8359 77.3438 36.7773 77.5195 36.7187 77.6953C36.6992 77.7539 36.6211 77.8125 36.5625 77.8516C36.4453 77.9297 36.3281 77.9688 36.2305 78.0664C36.1719 78.125 36.1523 78.2227 36.1133 78.3008C36.1914 78.3008 36.2891 78.3008 36.3672 78.2617C36.5625 78.1445 36.7383 78.0273 36.9336 77.9102C38.3008 77.0898 39.6875 76.2891 41.0547 75.4687C41.875 74.9805 42.6953 74.4727 43.5156 73.9844C43.5547 73.9648 43.5742 73.9453 43.6328 73.9258C43.5742 75.3906 43.4961 76.875 43.418 78.3008Z" fill="#F7FBFC"></path>
    <path d="M34.9219 68.1641C34.6289 68.0078 34.3359 67.8516 34.043 67.6953C34.0625 67.6562 34.082 67.6367 34.1016 67.5977C34.375 67.793 34.6484 67.9883 34.9219 68.1641Z" fill="#BAE8F7"></path>
    <path d="M36.0352 76.1914L35.8594 78.2422L36.1328 78.2812L36.875 77.7734L37.207 75.1367V71.8359L37.0898 70.1758L36.6406 69.2773L34.1406 67.9883L32.9883 67.2656L31.0742 65.7812L28.8477 64.1211L26.1523 62.6953L24.5508 61.875L23.2422 61.1914L22.4609 60.8203V61.1133L23.6328 62.0898L25.0977 63.0664L26.0547 63.7891L27.5977 64.7656L28.7305 65.3516L31.4453 66.9726L34.8437 68.8867L35.6836 69.4531L35.8984 70.625L35.9766 72.2656L35.957 74.082L36.0352 76.1914Z" fill="#BAE8F7"></path>
    <path d="M77.9101 62.5C77.8711 62.3437 77.8125 62.207 77.7734 62.0703C77.5977 61.5039 77.4023 60.957 77.2656 60.3906C77.0312 59.3359 77.168 58.3398 77.7539 57.4219C77.8516 57.2852 77.9297 57.1484 77.9883 56.9922C78.2226 56.5234 78.5742 56.1328 79.0039 55.8203C79.1211 55.7227 79.3164 55.7227 79.4922 55.6836C79.4726 55.8398 79.4727 56.0156 79.4141 56.1328C78.7891 57.3047 78.457 58.5547 78.2812 59.8633C78.1836 60.7422 78.0469 61.6016 77.9101 62.5Z" fill="#BAE8F7"></path>
    <path d="M78.5547 70.5078C78.5547 70.5078 78.9258 69.6289 79.375 69.4336C79.8242 69.2383 81.3086 69.3164 81.8555 70.0391C82.4023 70.7617 82.8711 71.6602 82.8711 72.7734C82.8711 73.8867 82.7148 75.0586 82.5391 75.4297C82.3633 75.8203 81.8945 76.4844 80.8008 75.4297C79.707 74.375 78.3789 72.8125 78.2617 72.0898C78.1641 71.3867 78.1055 70.5078 78.5547 70.5078Z" fill="#BAE8F7"></path>
    <path d="M44.0234 73.3789C43.9062 72.7734 43.5547 72.3437 42.9883 72.0898C42.7148 71.9727 42.4414 71.875 42.168 71.7383C41.3281 71.3086 40.4688 70.8789 39.6484 70.4297C38.4961 69.8047 37.3438 69.1797 36.1914 68.5547C35.4297 68.125 34.6875 67.6562 33.9453 67.2266C33.6914 67.0898 33.3984 67.0117 33.1641 66.8555C32.7344 66.6211 32.3242 66.3672 31.9141 66.1133C31.3477 65.7617 30.7617 65.3906 30.2148 65.0195C29.8633 64.7656 29.5508 64.4531 29.1992 64.1992C28.125 63.457 26.9727 62.8711 25.7813 62.3242C25.1172 62.0117 24.4531 61.6992 23.7891 61.3672C23.3203 61.1328 22.8906 60.8594 22.4219 60.6445C22.1484 60.5273 21.8555 60.4297 21.5625 60.4101C21.3086 60.3906 21.0742 60.3711 20.8398 60.2734C20.4492 60.1172 20.0586 60.0977 19.6875 60.3711C19.5508 60.4687 19.5117 60.5664 19.5312 60.7226C19.5703 61.3086 19.5898 61.8945 19.6094 62.5C19.6289 63.3984 19.6094 64.2969 19.6289 65.2148C19.6484 66.1328 19.668 67.0312 19.7266 67.9492C19.7656 68.5742 19.9023 69.1992 19.9219 69.8242C19.9414 70.918 20.0781 72.0117 19.9805 73.1055C19.9609 73.3203 19.9219 73.457 19.7266 73.5742C18.8867 74.0234 18.0469 74.4922 17.207 74.9609C16.4648 75.3711 15.7227 75.7617 15 76.1914C14.5508 76.4453 14.1602 76.7773 13.7109 77.0312C12.832 77.5586 11.9336 78.0469 11.0352 78.5742C10.5078 78.8867 10 79.1992 9.47266 79.5117C8.98438 79.7851 8.47656 80.0586 7.96875 80.332C7.57812 80.5469 7.20703 80.7617 6.83594 80.9766C6.36719 81.25 5.89844 81.5039 5.44922 81.7773C5.68359 81.7187 5.91797 81.6601 6.13281 81.5625C6.66016 81.2891 7.1875 81.0156 7.71484 80.7226C8.35938 80.3516 8.98438 79.9609 9.62891 79.5898C10.0781 79.3359 10.5273 79.0234 11.0352 78.8867C12.1094 78.5937 13.0078 78.0469 13.9453 77.5C14.7266 77.0312 15.5273 76.582 16.3086 76.1328C16.9922 75.7422 17.6563 75.3516 18.3398 74.9805C18.9453 74.6289 19.5703 74.2969 20.1758 73.9648C20.332 74.043 20.4297 74.1211 20.5469 74.1797C21.1914 74.5703 21.8359 74.9609 22.5 75.332C23.2227 75.7617 23.9648 76.1719 24.6875 76.582C25.332 76.9531 26.0156 77.2656 26.6406 77.6562C27.4805 78.1836 28.3203 78.7109 29.2188 79.1601C29.3359 79.2187 29.4531 79.2773 29.5703 79.3555C30.1562 79.7656 30.7227 80.1758 31.3086 80.5859C31.6602 80.8203 32.0313 81.0156 32.3828 81.25C32.9102 81.582 33.418 81.9531 33.9648 82.2851C34.3555 82.5195 34.7656 82.7344 35.1758 82.9297C35.4102 83.0469 35.6836 83.125 35.9375 83.2031C35.9766 83.2226 36.0352 83.2031 36.0547 83.1836C36.1523 83.0664 36.2891 83.0664 36.4258 83.0078C36.8359 82.8516 37.2656 82.6758 37.6367 82.4609C38.9258 81.6601 40.1953 80.8398 41.4648 80.0195C41.6797 79.8828 41.875 79.707 42.0898 79.5898C42.3633 79.4141 42.6562 79.2578 42.9492 79.1211C43.1641 79.0039 43.3789 78.8672 43.6133 78.8281C43.7891 78.8086 43.8477 78.7305 43.8672 78.5937C43.8867 78.4766 43.8672 78.3398 43.8672 78.2226C43.8867 77.1875 43.8867 76.1523 43.9063 75.1172C43.9063 74.7266 43.9453 74.3359 43.9648 73.8867C44.0625 73.7305 44.0625 73.5547 44.0234 73.3789ZM36.1328 68.8281C36.1133 68.8476 36.1133 68.8672 36.0937 68.8867C35.7422 68.6719 35.3906 68.457 35.0195 68.2226C35.3906 68.418 35.7617 68.6328 36.1328 68.8281ZM34.1016 67.5977C34.3555 67.7734 34.6094 67.9492 34.8633 68.1445C34.5898 68.0078 34.3164 67.8516 34.043 67.7148C34.0625 67.6562 34.082 67.6367 34.1016 67.5977ZM43.418 78.3008C43.2422 78.3398 43.0469 78.3398 42.8906 78.418C42.5391 78.5938 42.2266 78.8086 41.8945 79.0234C41.1719 79.5312 40.4883 80.0781 39.7461 80.5469C38.8477 81.1328 37.9102 81.6602 36.9922 82.207C36.6797 82.3828 36.3867 82.5977 36.1328 82.7734C35.4883 82.4609 34.8437 82.168 34.2187 81.8164C33.7305 81.543 33.2422 81.2109 32.7734 80.918C31.9922 80.4492 31.2305 80 30.4492 79.5313C30.2539 79.3945 30.0391 79.2578 29.8828 79.082C29.5898 78.7695 29.2187 78.5938 28.8281 78.4766C28.2422 78.3008 27.7734 77.9297 27.3047 77.5976C26.5625 77.0703 25.7812 76.6211 24.9219 76.25C24.4141 76.0351 23.9453 75.6836 23.4766 75.3906C22.7539 74.9414 22.0312 74.4922 21.3086 74.0625C21.0156 73.8867 20.7031 73.7891 20.332 73.6133C20.332 72.793 20.3711 71.8945 20.332 71.0156C20.2539 69.6094 20.1367 68.1836 20.0391 66.7773C19.9805 65.9375 19.9609 65.0781 19.9219 64.2383C19.8828 63.2031 19.8828 62.168 19.8633 61.1328C19.8633 60.957 19.8242 60.7617 19.8047 60.5664C20 60.4883 20.2148 60.4101 20.3711 60.3516C20.7617 60.5273 21.0938 60.7031 21.4648 60.8398C22.4805 61.1914 23.3008 61.8555 24.1406 62.5C24.8438 63.0273 25.5469 63.5547 26.2891 64.0234C27.6953 64.9414 29.1406 65.8203 30.5664 66.6992C31.6016 67.3242 32.6758 67.9101 33.7305 68.5156C34.2188 68.8086 34.7461 69.082 35.2148 69.3945C35.5469 69.6094 35.7031 69.9609 35.6836 70.3711C35.6836 70.5469 35.625 70.7227 35.8398 70.8398C35.8984 70.8789 35.8789 71.0547 35.8789 71.1523C35.8984 72.2656 35.9375 73.3594 35.918 74.4726C35.8984 75.5859 35.8203 76.6797 35.7813 77.793C35.7813 77.9297 35.7617 78.0859 35.7813 78.2226C35.7813 78.2812 35.8594 78.3398 35.8984 78.3789C35.957 78.3398 35.9961 78.2812 36.0547 78.2226C36.0742 78.2031 36.0742 78.1445 36.0742 78.1055C36.1133 77.0898 36.1719 76.0547 36.1719 75.0391C36.1719 73.7695 36.1523 72.5 36.1328 71.25C36.1328 70.8203 36.1914 70.3906 36.1523 69.9805C36.1328 69.6484 36.0742 69.3555 35.6641 69.1797C35.0977 68.9258 34.5898 68.5547 34.043 68.2422C33.125 67.7148 32.1875 67.1875 31.2695 66.6406C29.9219 65.8594 28.5742 65.0781 27.2656 64.2773C26.3281 63.7109 25.4102 63.0859 24.4922 62.4609C23.8867 62.0508 23.3203 61.5625 22.6758 61.0938C22.7539 61.1133 22.793 61.1133 22.8125 61.1328C23.4375 61.4844 24.1211 61.7969 24.707 62.207C25.332 62.6367 26.0742 62.8125 26.7188 63.2031C27.5391 63.6914 28.3789 64.1601 29.2188 64.6484C29.2578 64.668 29.2773 64.6875 29.3164 64.7266C29.9609 65.5078 30.8594 65.957 31.7188 66.4453C32.0313 66.6406 32.3242 66.875 32.6172 67.1094C33.5938 67.8711 34.6289 68.5156 35.7422 69.0625C35.9766 69.1797 36.2305 69.2969 36.4648 69.4141C36.7773 69.5703 36.9141 69.8633 36.9922 70.1758C37.1484 70.7031 37.0898 71.25 37.0703 71.7969C37.0508 72.3437 36.9922 72.8711 36.9922 73.418C36.9922 73.9062 37.0508 74.3945 37.0313 74.8828C37.0117 75.6445 36.9336 76.4258 36.875 77.1875C36.8555 77.3633 36.7969 77.5391 36.7383 77.7148C36.7188 77.7734 36.6406 77.832 36.582 77.8711C36.4844 77.9492 36.3477 77.9883 36.25 78.0859C36.1914 78.1445 36.1719 78.2422 36.1328 78.3203C36.2109 78.3203 36.3086 78.3203 36.3867 78.2812C36.582 78.1641 36.7773 78.0469 36.9531 77.9297C38.3203 77.1094 39.707 76.3086 41.0742 75.4883C41.8945 75 42.7148 74.4922 43.5352 74.0039C43.5742 73.9844 43.5938 73.9648 43.6523 73.9453C43.5742 75.3906 43.4961 76.875 43.418 78.3008ZM43.6719 73.5742C43.5156 73.6914 43.3594 73.7891 43.1836 73.8867C42.6172 74.2187 42.0703 74.5703 41.5039 74.9023C40.8008 75.3125 40.0977 75.7226 39.3945 76.1328C38.7891 76.4844 38.1836 76.8555 37.5977 77.207C37.4219 77.3047 37.2461 77.4219 37.0313 77.5195C37.0508 77.2656 37.0703 77.0312 37.0898 76.7969C37.1484 76.0547 37.207 75.3125 37.2461 74.5703C37.3047 73.5351 37.3633 72.5 37.3828 71.4648C37.4023 71.0156 37.3828 70.5469 37.3047 70.0976C37.2461 69.7851 37.0313 69.4922 36.875 69.1797C37.207 69.375 37.5391 69.5703 37.8906 69.7656C38.5156 70.1172 39.1211 70.4687 39.7461 70.8008C40.332 71.1133 40.918 71.4062 41.5234 71.6992C41.9922 71.9336 42.4609 72.1875 42.9492 72.3828C43.418 72.5781 43.6328 72.9687 43.75 73.418C43.7305 73.4766 43.7109 73.5547 43.6719 73.5742Z" fill="#1D2426"></path>
    <path d="M57.9687 65.3711L63.125 62.5586C63.125 62.5586 63.6719 62.2266 63.6719 61.7578C63.6719 61.2891 63.4961 58.6523 63.4961 58.6523L63.6719 54.3164C63.6719 54.3164 63.6328 53.3594 63.2227 53.3008C62.832 53.2422 62.1094 52.832 62.1094 52.832L57.4219 50.293L53.3789 47.9883L50.957 46.6406L48.8672 44.8047L48.3789 44.6484L47.9297 44.4531L47.8125 44.5117L47.5977 44.9023L47.3438 45.8594L47.2266 47.6758L47.4023 49.1016L47.6172 50.7617L47.9883 51.875L48.3594 52.8516L47.4414 53.0859L46.4258 53.457L43.3984 54.9805L42.5 55.7422L44.7461 57.3438L47.6953 59.1406L50.3711 60.3516L52.6562 62.0117L55.4297 63.4766L57.4805 64.7852L57.9687 65.3711Z" fill="#BAE8F7"></path>
    <path d="M82.5391 76.1719C82.6758 75.8789 82.8906 75.625 82.9297 75.3516C83.1055 74.1406 83.1836 72.8906 82.9492 71.6797C82.7734 70.7227 82.2656 69.9805 81.3867 69.5312C80.957 69.2969 80.4883 69.1406 80.0195 69.2383C79.4922 69.3359 79.0234 69.6094 78.7695 70.1367C78.8672 70.0781 78.9258 69.9805 78.9844 69.9219C79.1992 69.6875 79.4531 69.5508 79.7656 69.5508C80.9766 69.5117 81.8555 70.1172 82.2461 71.25C82.4219 71.7383 82.4609 72.2266 82.4805 72.7344C82.5195 73.5742 82.5 74.4141 82.3633 75.2344C82.2852 75.7422 82.0898 75.8398 81.6406 75.5859C80.7422 75.0976 80.0391 74.4141 79.4922 73.5547C79.3164 73.2812 79.1406 72.9883 78.9258 72.7148C78.5547 72.207 78.3398 71.6602 78.4375 71.0156C78.457 70.8594 78.5352 70.7031 78.5352 70.5273C78.5352 70.4297 78.4766 70.332 78.457 70.2148C78.3594 70.293 78.2422 70.332 78.2031 70.4297C77.9492 71.0352 77.9492 71.6602 78.1641 72.2852C78.4961 73.1836 79.1406 73.9258 79.707 74.6875C79.7461 74.7461 79.8242 74.8437 79.8047 74.9023C79.6875 75.2344 79.5508 75.5469 79.2188 75.7227C78.3789 76.1914 77.5195 76.0937 76.6406 75.7422C76.9922 75.4297 77.207 74.9023 77.8125 75.0781C77.8516 75.0977 77.9101 75.0781 77.9492 75.0781C78.4375 75.0195 78.8672 74.8437 79.2773 74.5703C79.3359 74.5312 79.3359 74.4141 79.3555 74.3359C79.2773 74.3164 79.1797 74.2969 79.1016 74.2969C79.0625 74.2969 79.0234 74.3359 78.9844 74.3555C78.5937 74.5703 78.1836 74.707 77.7539 74.7656C77.6562 74.7656 77.5586 74.7461 77.4414 74.7461C77.5 74.6289 77.5195 74.5312 77.5586 74.4531C77.832 73.8086 77.9297 73.1445 77.7344 72.4414C77.6953 72.3047 77.6953 72.1289 77.7344 71.9726C77.793 71.6601 77.9297 71.3672 77.9688 71.0547C78.0469 70.5078 78.0664 69.9414 78.1055 69.4922C78.5937 69.082 78.75 68.4961 79.2383 68.2031C79.375 68.5156 79.4922 68.5742 79.8242 68.4961C79.9219 68.4766 80.0195 68.4375 80.1172 68.3984C80.5469 68.2227 80.9766 68.0469 81.4062 67.8906C81.9726 67.6758 82.5195 67.4414 82.9297 66.9531C83.1836 66.6406 83.4375 66.3086 83.6523 65.9766C83.7891 65.7617 83.8867 65.5273 83.9648 65.293C84.1211 64.8828 83.9648 64.6289 83.5742 64.4727C83.1836 64.3164 82.832 64.4531 82.5391 64.707C81.5234 65.5469 80.4687 66.3672 79.5703 67.3633C79.5312 67.4219 79.5117 67.5 79.4726 67.5586C79.4336 67.6562 79.4141 67.7539 79.3555 67.832C79.043 68.1836 78.7109 68.5156 78.3984 68.8672C78.3203 68.9453 78.2812 69.0625 78.2031 69.1992C78.2031 68.75 78.2422 68.3984 78.5352 68.0469C78.9453 67.5781 79.1797 67.0117 79.1797 66.3867C79.1797 65.8203 78.9062 65.3711 78.3789 65.1172C77.9101 64.9023 77.4414 64.8633 77.0508 65.2539C76.7187 65.1172 76.4062 64.9414 76.0547 64.8828C75.7422 64.8047 75.3711 64.7852 75.0781 64.8633C74.6289 64.9805 74.375 65.4883 74.4531 65.9961C74.5508 66.7187 74.8437 67.3828 75.2734 67.9883C75.3125 68.0469 75.3711 68.125 75.4492 68.2226C74.6484 68.0664 73.9453 68.2422 73.2812 68.5352C73.0273 68.6328 72.8125 68.7891 72.6953 69.043C72.5586 69.3359 72.6953 69.5508 72.8906 69.8047C72.7734 69.7461 72.7148 69.707 72.6367 69.6484C71.8359 69.1211 71.0156 68.5937 70.2148 68.0469C68.457 66.875 66.6016 65.8984 64.6875 65.0195C64.5312 64.9414 64.5312 64.8437 64.5312 64.7266C64.5508 64.3945 64.5703 64.082 64.5508 63.75C64.5312 63.3984 64.4531 63.0664 64.4531 62.7344C64.4531 62.0703 64.4727 61.4062 64.4727 60.7227C64.4727 60.293 64.4336 59.8438 64.5117 59.4141C64.6875 58.3203 64.8242 57.2461 64.8047 56.1328C64.7851 55.1172 64.7852 54.1016 64.7656 53.0859C64.7656 52.8125 64.7266 52.5195 64.3945 52.3633C63.8477 52.1289 63.3203 51.8555 62.8125 51.582C62.2461 51.2695 61.6797 50.918 61.1133 50.5859C60.5469 50.2344 59.9805 49.8828 59.375 49.5703C58.5742 49.1406 57.7344 48.7695 56.9531 48.3203C56.0938 47.8516 55.293 47.3242 54.4531 46.8359C53.6719 46.3867 52.8906 45.957 52.1094 45.5273C51.9141 45.4102 51.6797 45.332 51.4844 45.2148C50.7422 44.7461 50.0195 44.2383 49.2773 43.7695C49.082 43.6328 49.0234 43.4766 49.0234 43.2617C49.0234 42.3242 49.0039 41.3867 49.0039 40.4492C49.0039 39.3164 49.0039 38.1836 49.0234 37.0508C49.043 35.4297 49.0625 33.8281 49.0625 32.207C49.0625 31.1914 49.0039 30.1758 48.9844 29.1797C48.9844 28.7891 49.0039 28.3984 49.0039 28.0078C49.0039 27.2461 48.9844 26.4648 48.9648 25.7031C48.9648 24.4922 48.9648 23.2812 48.9453 22.0508C48.9258 20.6836 48.9062 19.3164 48.9062 17.9688C48.9062 17.5391 48.8867 17.1289 48.8867 16.6992C48.8867 16.6016 48.8477 16.5234 48.8281 16.4453C48.7891 16.4453 48.7695 16.4453 48.7305 16.4453C48.7109 16.543 48.6914 16.6406 48.6914 16.7578C48.6914 17.6758 48.7109 18.5938 48.6914 19.5117C48.6719 20.918 48.6133 22.3047 48.5937 23.6914C48.5742 25.3125 48.6133 26.9531 48.6133 28.5742C48.6133 29.3945 48.5547 30.2148 48.5352 31.0352C48.5156 32.2656 48.4961 33.4961 48.4766 34.7266C48.457 35.5273 48.418 36.3086 48.3984 37.1094C48.3789 37.8516 48.3984 38.5742 48.3789 39.2969C48.3789 40.0391 48.3594 40.7812 48.3594 41.5234C48.3594 41.9922 48.3789 42.4414 48.3984 42.9102C48.3984 43.1055 48.4766 43.3398 48.3984 43.4766C48.3203 43.6133 48.0664 43.6523 47.8906 43.7305H47.8711C47.6953 43.8086 47.6562 43.9258 47.793 44.0625C47.8906 44.043 48.0078 44.0039 48.1055 43.9844C48.2031 43.9648 48.3203 43.9258 48.418 43.9062C48.6719 43.8281 48.8672 43.8867 49.1016 44.043C49.707 44.4727 50.3516 44.9023 50.9961 45.293C51.6797 45.6836 52.4023 46.0352 53.1055 46.4062C53.3008 46.5039 53.4961 46.6016 53.6719 46.7187C54.1602 47.0312 54.668 47.3633 55.1562 47.6953C55.3125 47.793 55.4492 47.9102 55.5859 48.0078C56.0742 48.3008 56.5625 48.6328 57.0898 48.8867C57.6172 49.1406 58.1836 49.3555 58.6523 49.7266C58.8867 49.9219 59.1602 50.0586 59.4336 50.1953C59.8047 50.4102 60.1953 50.5664 60.5469 50.8008C61.0547 51.1133 61.543 51.5039 62.0703 51.7969C62.7148 52.168 63.418 52.4805 64.082 52.832C64.1602 52.8711 64.2578 52.9883 64.2578 53.0469C64.2578 53.8477 64.2578 54.6484 64.2578 55.4492C64.2578 56.2695 64.2578 57.0898 64.2578 57.9102C64.2578 58.6328 64.2578 59.3359 64.2383 60.0586C64.1992 60.9961 64.1211 61.9336 64.1016 62.8906C64.1016 63.457 64.1797 64.0039 64.2187 64.5703C64.2187 64.668 64.1406 64.7852 64.1406 64.8828C64.1406 65.0391 64.1992 65.2148 64.2383 65.3711C64.0625 65.4688 63.8867 65.5664 63.7109 65.6641C62.9688 66.1328 62.2266 66.6016 61.4844 67.0703C61.3867 67.1289 61.2891 67.1875 61.2109 67.2851C60.6641 67.8711 60.0195 68.3398 59.3555 68.7891C58.7695 69.1992 58.0859 69.4336 57.5391 69.9219C57.168 70.2539 56.6992 70.4688 56.2891 70.7227C56.1523 70.8008 56.0352 70.918 55.8789 71.0352C55.9375 69.6289 55.9961 68.2812 56.0742 66.9336C56.5625 66.6016 57.0703 66.25 57.5781 65.8984C57.7148 65.8008 57.8711 65.7227 58.0078 65.6445C58.2031 65.5469 58.418 65.4688 58.6133 65.3516C59.2578 64.9609 59.9023 64.5312 60.5664 64.1406C60.957 63.9062 61.3672 63.7305 61.7773 63.5156C62.1289 63.3203 62.4805 63.1055 62.832 62.9102C62.8906 62.8711 62.9883 62.8711 63.0469 62.8125C63.1055 62.7539 63.1445 62.6562 63.1836 62.5781C63.0859 62.5586 62.9883 62.5195 62.9102 62.5391C62.832 62.5586 62.7344 62.6172 62.6562 62.6562C61.9727 63.0273 61.2695 63.3984 60.5664 63.7695C59.8047 64.1602 58.9844 64.4727 58.3008 65.0391C58.2422 65.0781 58.1836 65.1172 58.1055 65.1562C58.1055 65.1367 58.1055 65.1172 58.125 65.0781C57.9102 64.9609 57.6758 64.8437 57.4414 64.7266C58.1055 63.9453 59.043 63.6328 59.8437 63.0859C60.6641 62.5195 61.6602 62.4219 62.5781 62.0898C62.4609 62.0508 62.3438 62.0312 62.2461 62.0508C61.6406 62.207 60.9961 62.3047 60.4492 62.5781C59.3359 63.1055 58.2422 63.6719 57.3047 64.4922C57.2656 64.5312 57.1484 64.5508 57.0898 64.5117C56.8359 64.3555 56.5625 64.1992 56.3281 64.0234C55.1953 63.2226 54.0234 62.4805 52.793 61.8359C52.0117 61.4453 51.2695 60.957 50.5469 60.4492C50.1562 60.1758 49.7266 59.9414 49.2969 59.7266C48.7695 59.4531 48.2227 59.2578 47.7148 58.9648C46.9727 58.5352 46.2695 58.0664 45.5469 57.5977C44.6289 57.0117 43.7305 56.4062 42.793 55.7812C42.9102 55.6836 42.9687 55.6445 43.0469 55.6055C43.3984 55.3711 43.7695 55.1562 44.1406 54.9414C44.9023 54.4922 45.6641 54.0625 46.4258 53.6133C46.5625 53.5352 46.6797 53.457 46.8164 53.3984C46.9531 53.3203 47.0703 53.2617 47.207 53.1836C47.0508 53.2227 46.9141 53.2617 46.7578 53.3203C46.1133 53.5937 45.4687 53.8867 44.8047 54.1602C44.1016 54.4531 43.4766 54.8438 42.8906 55.3125C42.6562 55.5078 42.4609 55.5664 42.1484 55.4297C41.6211 55.2148 41.1133 55 40.6445 54.6875C40.0586 54.2773 39.4531 53.8867 38.8477 53.4961C38.75 53.4375 38.6133 53.3789 38.5352 53.3008C38.3594 53.1055 38.2812 53.1055 38.0664 53.2422C37.6367 53.5547 37.2656 53.9453 36.7773 54.1406C36.6992 54.1797 36.6211 54.2383 36.543 54.2969C36.0547 54.6094 35.5859 54.9219 35.0977 55.1953C34.2187 55.6836 33.3008 56.1328 32.4219 56.6211C32.1094 56.7969 31.8359 57.0117 31.543 57.1875C30.7031 57.6758 29.8437 58.1641 29.0039 58.6523C28.418 59.0039 27.832 59.3945 27.2461 59.7656C26.8555 60 26.4648 60.2148 26.0742 60.4688C26.0156 60.5078 25.9375 60.5859 25.9375 60.6445C25.9375 60.8789 25.918 61.1328 25.957 61.3672C25.9766 61.4648 26.1328 61.5625 26.2305 61.6211C26.6602 61.8359 27.1094 62.0117 27.5391 62.2266C28.0469 62.4609 28.5156 62.7344 29.0234 62.9687C29.375 63.1445 29.7461 63.2422 30.0977 63.4375C30.4883 63.6523 30.8398 63.9258 31.2109 64.1602C31.5625 64.375 31.9336 64.5898 32.3047 64.7852C32.7148 65.0195 33.125 65.2148 33.5547 65.4492C33.6133 65.4883 33.6523 65.5273 33.7305 65.5859C33.418 65.7812 33.1445 65.9766 32.8516 66.1719C32.9492 66.25 33.0078 66.2891 33.0664 66.3477C33.2031 66.4844 33.3008 66.4844 33.457 66.3672C33.6523 66.2305 33.8672 66.1133 34.082 65.9961C34.2187 65.8984 34.3555 65.918 34.4922 66.0156C34.6875 66.1523 34.8633 66.2891 35.0781 66.4062C35.6641 66.7383 36.2305 67.0703 36.8164 67.4023C37.0703 67.5391 37.3047 67.7148 37.5586 67.8516C38.1055 68.1445 38.6328 68.4375 39.1797 68.7305C39.4727 68.8867 39.8047 68.9844 40.0781 69.1406C40.6836 69.5117 41.2695 69.9219 41.875 70.2734C42.4414 70.6055 43.0273 70.918 43.6133 71.2305C43.9258 71.3867 44.2383 71.5625 44.5703 71.6602C45.1953 71.8555 45.7617 72.1484 46.25 72.5977C46.2891 72.6172 46.3476 72.6562 46.3672 72.6367C46.582 72.5781 46.7969 72.5391 46.9922 72.4219C47.5195 72.1289 48.0273 71.7969 48.5547 71.5039C49.2773 71.0938 50.0195 70.6836 50.7617 70.2734C50.8203 70.2344 50.8984 70.2148 50.9961 70.1758C50.9961 70.5664 50.9961 70.8984 50.9961 71.25C50.9961 71.4258 51.0352 71.6016 51.0352 71.7773C51.0547 72.2266 51.0352 72.6758 51.0742 73.125C51.0938 73.3398 51.0547 73.457 50.8789 73.5742C50.332 73.9062 49.7852 74.2383 49.2383 74.5508C49.0625 74.6484 48.9648 74.7852 49.043 74.9805C49.1211 75.1953 49.2969 75.0976 49.4336 75.0391C49.6875 74.9219 49.9219 74.7852 50.1758 74.6875C50.3711 74.5898 50.6055 74.5508 50.8008 74.4336C51.4258 74.043 52.0703 73.6328 52.6758 73.2031C53.0664 72.9297 53.4766 72.6758 53.7695 72.2852C53.8086 72.2266 53.8477 72.1094 53.8281 72.0508C53.8086 71.9922 53.6914 71.9336 53.6328 71.9336C53.5352 71.9336 53.4375 71.9726 53.3594 72.0312C53.1055 72.168 52.8711 72.3438 52.6172 72.4805C52.4414 72.5781 52.2656 72.6367 52.0898 72.7344C51.9141 72.832 51.7383 72.9297 51.5625 73.0273C51.5234 72.6562 51.4648 72.3047 51.4453 71.9531C51.4258 71.3672 51.4453 70.7617 51.4258 70.1758C51.4258 69.9805 51.5039 69.8633 51.6602 69.7656C52.8516 68.9844 54.0234 68.2031 55.1953 67.4023C55.3711 67.2852 55.5469 67.1875 55.7812 67.0508C55.7617 68.3984 55.7227 69.6875 55.7031 70.9961C55.5078 70.8984 55.332 70.8594 55.1953 70.7617C54.5508 70.3516 53.9062 69.9023 53.2812 69.4922C53.0469 69.3359 52.9883 69.3555 52.8125 69.5898C53.418 70.0195 54.043 70.4102 54.6289 70.8789C54.9609 71.1328 55.332 71.2695 55.7227 71.3867C55.8008 71.4062 55.918 71.4062 55.9961 71.3672C56.2891 71.1914 56.5625 70.9961 56.8555 70.8008C57.2852 70.4883 57.7148 70.1758 58.1445 69.8633C58.6523 69.4922 59.1797 69.1211 59.707 68.75C60.2539 68.3594 60.8008 67.9883 61.3672 67.6367C61.9922 67.2461 62.6367 66.8945 63.2812 66.5039C63.6133 66.3086 63.9258 66.0742 64.2578 65.8594C64.4141 65.7617 64.5508 65.625 64.7461 65.4688C65.4883 65.8203 66.3086 66.1914 67.1094 66.582C67.6953 66.875 68.2617 67.1875 68.8086 67.5391C69.6094 68.0469 70.3711 68.5937 71.1719 69.1016C71.8945 69.5703 72.6172 70.0195 73.3398 70.4883C73.4961 70.5859 73.6133 70.7031 73.7695 70.8398C73.7109 70.8789 73.6719 70.8984 73.6328 70.918C72.5391 71.2891 71.7383 72.0312 71.1719 73.0273C70.7617 73.75 70.5078 74.5117 70.3711 75.332C70.2734 75.918 70.3125 76.4844 70.4883 77.0508C70.625 77.5586 70.7617 77.6367 71.2695 77.5195C71.9336 77.3828 72.5977 77.207 73.2617 77.0508C74.1797 76.8359 75.0976 76.6211 75.957 76.1914C76.0742 76.1328 76.2109 76.0742 76.3476 75.9961C76.4453 76.5039 76.543 76.9922 76.6406 77.4609C76.7578 78.0273 77.0898 78.3789 77.6758 78.4961C77.7148 78.4961 77.7539 78.5156 77.793 78.5352C78.2422 78.7695 79.3945 78.457 79.7461 78.0273C79.8828 77.8711 80.0195 77.7344 80.0391 77.5C80.1172 76.8164 80.2344 76.1523 80.332 75.4883C80.3516 75.4102 80.3711 75.332 80.3711 75.293C80.7812 75.5469 81.1914 75.8008 81.6016 76.0351C81.7969 76.1328 82.0117 76.1914 82.1875 76.3086C82.5976 76.582 82.9883 76.875 83.3984 77.1484C84.1016 77.6172 84.8047 78.0664 85.5078 78.5156C86.1133 78.9062 86.7187 79.3164 87.3242 79.6875C88.1055 80.1562 88.8867 80.6055 89.6875 81.0547C89.7852 81.1133 89.9219 81.1719 90.0391 81.1523C90.1758 81.1328 90.293 81.0352 90.4297 80.9766C87.5781 79.6094 84.9805 77.9297 82.5391 76.1719ZM79.6484 67.8906C79.6875 67.7734 79.7266 67.6562 79.7851 67.5391C79.8047 67.5 79.8047 67.4609 79.8242 67.4414C80.6445 66.6406 81.4258 65.7812 82.3828 65.1562C82.6172 65 82.9101 64.9023 83.2031 64.8242C83.3008 64.7852 83.4961 64.8242 83.5547 64.9023C83.6328 65 83.6328 65.1758 83.5937 65.293C83.3398 65.9961 82.9101 66.6211 82.3438 67.0703C81.9531 67.3633 81.4258 67.5 80.9766 67.6953C80.5469 67.8711 80.0976 68.0469 79.6484 68.2226C79.6289 68.2422 79.5898 68.2422 79.4922 68.2422C79.5508 68.0859 79.6094 67.9883 79.6484 67.8906ZM55.7812 66.1523C54.9414 66.6797 54.1016 67.168 53.2617 67.6758C52.5195 68.125 51.8164 68.6133 51.0742 69.082C50.3906 69.5117 49.6875 69.9219 48.9844 70.332C48.2422 70.7812 47.5 71.2305 46.7578 71.6992C46.6016 71.7969 46.4648 71.8359 46.2891 71.7383C45.8008 71.4844 45.3125 71.2695 44.8242 71.0352C44.4531 70.8398 44.1016 70.6445 43.7305 70.4297C42.9102 69.9609 42.1094 69.4922 41.2891 69.0234C40.3516 68.4961 39.4141 67.9687 38.4766 67.4414C37.3242 66.8164 36.1523 66.2109 35 65.5664C34.3945 65.2148 33.8086 64.8047 33.2617 64.3555C32.5977 63.8281 31.8555 63.457 31.0937 63.0859C30.1758 62.6367 29.2578 62.207 28.3398 61.7578C27.6953 61.4453 27.0703 61.1328 26.4258 60.8203C26.3281 60.7812 26.25 60.7031 26.1523 60.6445C26.3867 60.4688 26.6016 60.293 26.8359 60.1562C27.9492 59.4141 29.1602 58.8477 30.332 58.2227C31.1914 57.7734 31.9922 57.207 32.832 56.7187C33.3594 56.4062 33.9062 56.1133 34.4336 55.8203C35.0781 55.4492 35.7422 55.0586 36.3867 54.6875C36.9531 54.3555 37.5 54.0039 38.0664 53.6719C38.1836 53.6133 38.2617 53.6133 38.3789 53.6914C39.082 54.1992 39.8047 54.707 40.5469 55.1562C40.957 55.4102 41.4258 55.6055 41.875 55.8008C42.3828 56.0156 42.832 56.3086 43.2812 56.6406C43.6133 56.8945 43.9648 57.1289 44.3164 57.3633C45.1172 57.8711 45.9375 58.3984 46.7578 58.8672C47.4609 59.2773 48.2031 59.6484 48.9453 59.9805C49.6289 60.293 50.2148 60.7422 50.8398 61.1719C51.2695 61.4648 51.7383 61.6992 52.1875 61.9531C53.2422 62.5391 54.3164 63.1055 55.3711 63.7109C56.0352 64.1016 56.6797 64.5312 57.3242 64.9414C57.3633 64.9805 57.4219 65 57.4805 65.0586C56.8945 65.4492 56.3477 65.8203 55.7812 66.1523ZM74.8242 65.8203C74.7461 65.293 75.1953 64.9023 75.7031 65.0391C76.0938 65.1367 76.4453 65.3125 76.8164 65.4492C76.9531 65.4883 77.0312 65.5664 77.168 65.4101C77.2656 65.293 77.5 65.293 77.6758 65.2734C78.1055 65.2344 78.75 65.6445 78.7109 66.25C78.7109 66.8359 78.4375 67.3437 78.0664 67.8125C77.8516 68.0859 77.5781 68.3203 77.3047 68.5547C77.1094 68.7109 76.8555 68.7695 76.6211 68.5937C75.7031 67.8711 75 66.9922 74.8242 65.8203ZM73.0273 68.9648C73.1055 68.8672 73.2031 68.7891 73.3203 68.75C73.9062 68.5156 74.5312 68.3789 75.1758 68.457C75.293 68.4766 75.4102 68.418 75.6055 68.3984C75.9375 68.6328 76.1914 69.082 76.6992 69.1797C76.6992 69.1992 76.7187 69.2187 76.7187 69.2383C76.7187 69.4336 76.7773 69.707 76.6601 69.8437C76.5625 69.9609 76.2891 69.9609 76.0938 70C75.7617 70.0977 75.4492 70.2148 75.0976 70.2734C74.9023 70.3125 74.668 70.2734 74.4922 70.1953C74.0234 69.9805 73.5742 69.7266 73.125 69.4922C72.8906 69.3555 72.8516 69.1992 73.0273 68.9648ZM74.1016 76.3672C73.1055 76.6601 72.1094 76.9336 71.1133 77.207C70.7617 77.3047 70.7031 77.2656 70.6836 76.8945C70.6055 75.1367 71.0351 73.5547 72.2656 72.2461C73.125 71.3281 74.1992 70.957 75.4687 71.0937C76.0742 71.1719 76.6016 71.3867 76.9727 71.875C77.0312 71.9531 77.1484 71.9531 77.2461 72.0117C77.2461 71.9141 77.2852 71.7773 77.2461 71.6992C77.0312 71.1914 76.582 70.9766 76.0938 70.8398C75.8398 70.7617 75.5859 70.7031 75.3125 70.6055C75.7812 70.4297 76.25 70.2539 76.7187 70.0977C76.9141 70.0391 77.0703 69.8633 77.0508 69.6484C77.0508 69.5703 77.0312 69.4922 77.0117 69.4141C76.9922 69.3555 76.9726 69.2773 76.9141 69.1602C77.4023 69.1602 77.7148 68.8672 78.0859 68.5937C77.9492 69.6484 77.832 70.6836 77.6953 71.7383C77.5586 71.1133 77.4609 70.4687 77.2266 69.8633C77.1875 69.8633 77.168 69.8828 77.1289 69.8828C77.1289 69.9609 77.1289 70.0391 77.1484 70.1172C77.2461 70.6055 77.3633 71.1133 77.4609 71.6016C77.5 71.8164 77.5781 72.0117 77.4219 72.2266C77.3828 72.2851 77.4219 72.4219 77.4414 72.5C77.7148 73.457 77.3828 74.2383 76.7187 74.9219C75.9766 75.6641 75.0586 76.0937 74.1016 76.3672ZM79.668 77.1289C79.6484 77.207 79.6484 77.2852 79.6289 77.3633C79.5898 77.5195 79.6289 77.7148 79.5312 77.793C79.3164 77.9492 79.082 78.125 78.8281 78.1641C78.3398 78.2617 77.832 78.2031 77.3633 77.9883C77.0898 77.8711 76.9141 77.6953 76.8555 77.4023C76.7773 76.9726 76.6992 76.543 76.6211 76.1133C77.8516 76.582 78.9648 76.582 79.9219 75.4492C79.8242 76.0547 79.7461 76.6016 79.668 77.1289ZM47.168 53.1641C47.1484 53.1641 47.1484 53.1641 47.168 53.1641V53.1641Z" fill="#1D2426"></path>
    <path d="M63.6523 58.125C63.6133 58.8867 63.5938 59.668 63.6133 60.4297C63.6328 60.8789 63.6328 61.3281 63.6328 61.7773C63.6328 61.8359 63.6328 61.9141 63.6133 61.9531C63.5938 62.0117 63.5547 62.0508 63.5156 62.0898C63.4766 62.0508 63.418 61.9922 63.418 61.9336C63.418 61.4648 63.3984 61.0156 63.418 60.5469C63.418 60.332 63.457 60.1172 63.457 59.9219C63.457 59.5508 63.418 59.1602 63.3984 58.7891C63.3984 58.5156 63.418 58.2227 63.418 57.9492C63.418 56.9727 63.418 55.9961 63.418 55.0195C63.418 54.7852 63.457 54.5313 63.4766 54.2969C63.4961 53.8086 63.2617 53.4375 62.793 53.2422C62.0508 52.9297 61.3086 52.5781 60.5664 52.2266C60.332 52.1094 60.1172 51.9336 59.8828 51.7969C59.4336 51.543 58.9648 51.3086 58.4961 51.0742C57.9102 50.7617 57.3047 50.4492 56.7187 50.1172C55.7422 49.5703 54.7461 49.0234 53.7695 48.457C53.1445 48.0859 52.5586 47.6367 51.9531 47.2266C51.6992 47.0703 51.4453 46.9141 51.1719 46.7969C50.5078 46.5039 50.0195 45.9961 49.4531 45.5469C49.0234 45.2148 48.6133 44.8438 48.0664 44.707C47.9883 44.6875 47.9102 44.6094 47.793 44.5508C47.5391 44.9023 47.4609 45.293 47.4023 45.6836C47.2461 46.9531 47.2656 48.2227 47.4805 49.5117C47.5391 49.8828 47.5781 50.2539 47.5977 50.625C47.6367 51.1523 47.8906 51.6211 48.0469 52.1094C48.1836 52.5586 48.418 52.9102 48.7695 53.1641C48.9648 53.3203 49.2188 53.3984 49.4531 53.5156C49.9609 53.8086 50.4688 54.082 50.9766 54.375C51.582 54.7266 52.1875 55.0977 52.793 55.4688C53.1836 55.7227 53.5352 56.0547 53.9648 56.2305C54.8828 56.6211 55.7031 57.168 56.582 57.6367C57.0703 57.9102 57.5391 58.2422 58.0469 58.5156C58.75 58.9063 59.4531 59.2578 60.1562 59.6289C60.293 59.707 60.4297 59.7656 60.5664 59.8633C61.3281 60.3711 62.0703 60.8789 62.832 61.3867C62.8516 61.4063 62.8711 61.4063 62.8906 61.4258C62.9883 61.5234 63.1445 61.6016 63.0469 61.7578C62.9492 61.9141 62.8125 61.7969 62.6953 61.7578C62.0508 61.543 61.6016 61.0352 61.0156 60.7031C60.3711 60.332 59.707 59.9609 59.0625 59.5508C58.4766 59.1992 57.8906 58.8086 57.3047 58.4375C56.8945 58.1836 56.5039 57.9297 56.0938 57.6953C55.6445 57.4414 55.1758 57.207 54.7266 56.9727C54.4727 56.8555 54.2187 56.7383 53.9648 56.6211C53.3984 56.3867 52.9492 56.0156 52.4805 55.6641C52.207 55.4688 51.875 55.3516 51.582 55.1758C51.0938 54.8828 50.625 54.5508 50.1562 54.2383C49.8438 54.043 49.5312 53.8281 49.2188 53.6328C48.5742 53.2617 48.1055 52.7539 47.9492 52.0117C47.9102 51.8555 47.7539 51.7383 47.7148 51.582C47.5586 51.0547 47.3633 50.5469 47.3047 50C47.1875 48.9844 46.9727 47.9688 47.0898 46.9336C47.168 46.3086 47.168 45.6641 47.4219 45.0781C47.5195 44.8438 47.6758 44.6484 47.793 44.4336C47.8711 44.2969 47.9492 44.3164 48.0859 44.3555C48.7109 44.6094 49.2578 44.9609 49.7852 45.4102C50.332 45.8984 50.9375 46.3086 51.6211 46.6406C52.3047 46.9727 52.9102 47.4805 53.5742 47.8711C54.043 48.1641 54.5312 48.3984 55 48.6523C55.4102 48.8867 55.8203 49.1602 56.25 49.3945C56.543 49.5508 56.8359 49.6875 57.1289 49.8242C57.5 50.0195 57.8711 50.2344 58.2227 50.4297C58.9648 50.8398 59.707 51.2891 60.4688 51.6797C61.3281 52.1094 62.1875 52.5195 63.0469 52.9297C63.5937 53.1836 63.8476 53.6133 63.8281 54.1797C63.7695 55.5664 63.7305 56.8359 63.6523 58.125Z" fill="#1D2426"></path>
</svg>