<svg viewBox="0 0 100 100" fill="none" xmlns="http://www.w3.org/2000/svg" class="size-16 md:size-36">
    <path d="M14.9805 62.3242C15.3516 61.0156 16.0352 58.8281 17.5 57.2656C18.9453 55.7031 20 54.7461 20 54.7461C20 54.7461 17.6172 52.4414 17.2461 49.7656C16.875 47.0703 17.4414 41.3281 19.2578 39.1992C21.0742 37.0703 23.7695 34.9414 26.0547 34.2969C28.3398 33.6719 29.9219 32.6953 32.3047 32.8906C34.6875 33.0859 36.6211 33.4375 36.6211 33.4375C36.6211 33.4375 39.5703 27.3633 42.2852 24.9219C45 22.4805 48.7891 21.7383 50.8398 21.5039C52.8906 21.2695 58.8867 21.4844 60.8984 23.3984C62.9297 25.3125 63.8281 26.1133 63.8867 26.2109C63.9453 26.3086 64.5312 28.1836 64.5312 28.1836L65.4102 29.6875L67.9102 29.5508L72.3242 31.1719L75.4297 33.4961L77.4219 36.3477L79.4531 40.957L79.8242 44.375L79.9609 47.0508L79.6289 49.4922C79.6289 49.4922 82.3828 52.3047 82.8125 53.1641C83.2617 54.0039 84.7656 57.0117 85.1953 60.0391C85.6445 63.0664 84.2773 66.6406 83.3203 67.7539C82.3633 68.8672 81.25 70.2344 81.25 70.2344C81.25 70.2344 79.1211 72.9883 74.9805 74.1992C70.8398 75.4297 66.9727 76.9141 66.9727 76.9141C66.9727 76.9141 62.0117 78.2031 61.6797 78.3203C61.3477 78.4375 59.3555 79.5898 59.3555 79.5898L55.0195 81.543L49.2188 83.2422L41.0352 82.9687L38.4961 82.1484L35.0977 81.543L30.7617 80.8398L26.875 79.8047L21.4062 77.5L19.3359 76.0156L17.168 73.9062L15.7031 71.5625L14.9609 68.7109L14.5508 66.5234L14.9805 62.3242Z" fill="#F7FBFC"></path>
    <path d="M84.7656 57.3633C84.4141 55.918 83.9648 54.5312 83.1836 53.2617C82.793 52.6367 82.3633 52.0508 81.8359 51.5625C81.2305 50.9766 80.625 50.3906 80.0195 49.8047C79.9024 49.6875 79.8633 49.5703 79.9024 49.4141C80.0977 48.1445 80.1953 46.875 80.1562 45.6055C80.1172 44.375 80.0781 43.1445 79.8242 41.9141C79.707 41.3086 79.5703 40.7031 79.4336 40.0977C79.1016 38.6914 78.5156 37.3828 77.7539 36.1719C77.4219 35.6445 77.0312 35.1562 76.6211 34.6875C76.25 34.2578 75.8399 33.8672 75.4102 33.4766C75 33.0859 74.6094 32.6953 74.1602 32.3828C73.5742 31.9531 72.9297 31.582 72.3047 31.1719C71.4844 30.6445 70.5664 30.3125 69.6875 29.9609C69.1211 29.7461 68.4961 29.6484 67.8906 29.5508C67.1289 29.4336 66.3477 29.3555 65.5664 29.2773C65.3906 29.2578 65.3125 29.1992 65.2344 29.043C65.0195 28.5352 64.8047 28.0273 64.5703 27.5195C64.4727 27.3047 64.3555 27.1094 64.2383 26.8945C63.9258 26.3867 63.6523 25.8398 63.2813 25.3711C62.793 24.7852 62.207 24.2578 61.6211 23.75C61.1328 23.3398 60.6055 22.9297 60.0391 22.6367C59.2969 22.2656 58.5156 21.9531 57.7344 21.6797C56.8359 21.3672 55.918 21.1523 54.9609 21.0937C54.043 21.0547 53.1445 21.0156 52.2266 20.9961C51.875 20.9961 51.5234 21.0352 51.2109 21.0547C51.3477 21.25 51.4648 21.4258 51.6406 21.6602C51.9336 21.6406 52.3047 21.582 52.6758 21.582C53.3789 21.582 54.082 21.6016 54.7852 21.6406C55.2344 21.6602 55.7031 21.6797 56.1523 21.7969C56.9141 21.9922 57.6758 22.207 58.4375 22.4805C59.1602 22.7344 59.8438 23.0469 60.4883 23.4766C61.1133 23.8867 61.6992 24.3164 62.207 24.8828C62.6563 25.3711 63.1055 25.8594 63.4766 26.4062C63.8672 26.9531 64.1602 27.5781 64.4922 28.1641C64.668 28.4961 64.8438 28.8281 65.0391 29.1797C62.9883 29.2187 60.9766 29.3945 59.0625 29.7461C58.7695 29.3359 58.5352 28.9453 58.2422 28.5742C57.8906 28.1055 57.3633 27.8516 56.8555 27.6172C56.3672 27.3828 55.8594 27.2461 55.332 27.3047C54.9023 27.3437 54.4727 27.4805 54.0625 27.5977C53.8477 27.6758 53.6328 27.793 53.418 27.9297C52.793 28.3594 52.6172 29.0625 52.3828 29.707C52.1484 30.3906 52.1289 31.1328 52.2656 31.8359C52.3828 32.4805 52.5586 33.1055 52.6953 33.75C52.7148 33.8281 52.6953 33.9648 52.6367 34.0039C52.2266 34.3164 51.7969 34.6094 51.3672 34.9023C50.957 35.1758 50.5664 35.4297 50.1562 35.6836C49.8242 35.8984 49.4727 36.0742 49.1211 36.2695C49.0039 36.3281 48.9063 36.4062 48.8281 36.4648C48.7695 36.4453 48.6914 36.3672 48.6328 36.3867C48.4766 36.4453 48.3203 36.5234 48.1641 36.6211C48.0664 36.6797 48.0078 36.7773 47.9102 36.8164C47.2852 37.0312 46.6992 37.3047 46.1523 37.6758C45.8789 37.8516 45.6055 38.0273 45.3125 38.1641C44.707 38.418 44.082 38.6523 43.6328 39.1601C43.5938 39.1992 43.5352 39.2578 43.4766 39.2773C43.2617 39.3555 43.2422 39.5312 43.2617 39.707C43.3008 40.0977 43.3008 40.0977 42.9688 40.2539C42.8711 40.293 42.7734 40.3516 42.6758 40.4101C42.1484 40.7031 41.6211 41.0156 41.0938 41.3281C40.9961 41.3867 40.8789 41.4453 40.7617 41.5039C40.0586 41.8945 39.375 42.2851 38.6719 42.6758C38.0664 43.0078 37.4414 43.3008 36.8164 43.6328C35.9375 44.1016 35.0586 44.5703 34.1797 45.0586C33.6719 45.332 33.1445 45.6055 32.6563 45.918C32.168 46.2305 31.7188 46.582 31.2695 46.9336C31.1328 47.0312 31.0352 47.2266 30.9961 47.3828C30.8594 47.8906 31.0742 48.3789 31.1328 48.8672C31.1328 48.8867 31.1719 48.9062 31.1719 48.9453C31.2109 49.043 31.2695 49.1406 31.2891 49.2383C31.3086 50.0195 31.3281 50.8008 31.3281 51.6016C31.3477 52.3828 31.3477 53.1836 31.3672 53.9648C31.3867 54.707 31.4063 55.4687 31.4453 56.2109C31.4453 56.3672 31.3867 56.4258 31.2305 56.4453C31.0156 56.4844 30.8008 56.543 30.6055 56.6211C30.5273 56.6406 30.4883 56.7187 30.4297 56.7773C30.4492 56.7969 30.4492 56.8164 30.4688 56.8359C30.5273 56.8359 30.5859 56.8555 30.6445 56.8359C31.2695 56.6211 31.9141 56.6797 32.5586 56.8164C33.1641 56.9336 33.6914 57.207 34.2188 57.4805C34.5703 57.6562 34.9219 57.832 35.2734 58.0078L35.3516 57.9297C35.1953 57.6953 35.0781 57.4219 34.8633 57.2461C34.2383 56.6601 33.4961 56.3086 32.6563 56.25C32.5195 56.2305 32.4414 56.2109 32.4414 56.0351C32.4414 55.625 32.4219 55.2148 32.4023 54.8242C32.3242 53.75 32.2266 52.6758 32.1484 51.6016C32.1094 50.957 32.0898 50.3125 32.0703 49.668C32.0703 49.6289 32.0898 49.5703 32.1094 49.5117C33.1641 50 34.2383 50.4297 35.2539 50.9961C36.2695 51.543 37.2656 52.1484 38.1445 52.832C38.1055 53.0273 38.0664 53.1836 38.0664 53.3398C38.0469 55.2539 38.0469 57.168 38.0469 59.082C38.0469 59.1992 38.0664 59.3164 38.0273 59.3945C37.9688 59.5312 38.0273 59.5898 38.125 59.6484C38.418 59.8242 38.7109 59.9805 39.0039 60.1367C39.1406 60.2148 39.2773 60.2734 39.4336 60.3711C38.7891 60.8203 38.2227 61.25 37.8125 61.8945C37.4219 62.5391 37.1875 63.2031 37.2266 63.9648C37.2852 63.9062 37.3047 63.8476 37.3242 63.7695C37.4805 63.3203 37.5781 62.832 37.793 62.4023C38.3203 61.4062 39.1992 60.8008 40.2344 60.3906C41.1328 60.0391 42.0898 59.8437 43.0469 59.7461C43.8086 59.668 44.5703 59.5703 45.332 59.5898C45.9766 59.6094 46.6406 59.7851 47.2852 59.8828C47.3047 59.8828 47.3047 59.8828 47.3242 59.9023C47.7148 60.0391 48.125 60.1758 48.5156 60.332C49.1016 60.5859 49.668 60.8594 50.2344 61.1328C50.4492 61.2305 50.6641 61.3867 50.8594 61.5234C51.1523 61.7383 51.4844 61.9336 51.7188 62.207C52.1094 62.6953 52.4414 63.2226 52.7734 63.7305C52.8711 63.8672 52.9492 64.0234 52.9883 64.1797C53.1836 64.8633 53.3984 65.5273 53.5742 66.2109C53.7109 66.7383 53.8086 67.2656 53.9453 67.8125C53.9844 67.9883 54.043 68.1836 54.1211 68.3398C54.1992 68.4766 54.3164 68.5742 54.4531 68.7109C54.3945 68.3008 54.3359 67.9492 54.3164 67.5976C54.2969 67.3828 54.3359 67.168 54.2969 66.9726C54.1602 66.1914 54.043 65.4101 53.8477 64.6289C53.75 64.1992 53.5352 63.7891 53.3594 63.3789C53.2422 63.125 53.1445 62.8516 52.9688 62.6367C52.6367 62.2266 52.2656 61.8555 51.8945 61.4648C52.2656 61.1914 52.6367 60.8789 53.0273 60.6445C53.6328 60.2734 54.3359 60.0586 55.0391 60C55.5859 59.9609 56.1524 59.7851 56.6797 60.1367C56.7188 60.1562 56.7773 60.1562 56.8164 60.1562C57.3047 60.2344 57.7148 60.4687 57.9883 60.8594C58.2617 61.25 58.5352 61.6601 58.75 62.0703C58.9648 62.5 59.043 62.9492 58.9063 63.4375C58.8281 63.7305 58.7891 64.043 58.7109 64.3359C58.9648 64.1797 59.1211 63.9648 59.2188 63.6914C59.4336 63.125 59.375 62.5586 59.1797 62.0117C59.1211 61.8164 59.0625 61.6211 58.9844 61.4453C58.9258 61.3086 58.7891 61.2109 58.7305 61.0937C58.5156 60.5078 58.0273 60.1562 57.5195 59.9219C57.0508 59.6875 56.5039 59.5508 55.9766 59.4726C55.1367 59.3555 54.3164 59.4531 53.5156 59.7851C53.3984 59.8437 53.2813 59.8828 53.1055 59.9414C53.1055 59.5508 53.125 59.1797 53.1055 58.8281C53.0469 57.5586 52.9492 56.2891 52.8906 55.0195C52.8711 54.6484 52.8516 54.2773 52.6758 53.9453C52.6172 53.8281 52.5195 53.6914 52.4023 53.6133C52.0898 53.3984 51.7383 53.2226 51.4063 53.0273C51.6211 52.9101 51.8164 52.793 52.0313 52.6758C52.4805 52.4414 52.9102 52.2266 53.3594 51.9922C53.75 51.7969 54.1406 51.582 54.5313 51.4062C54.8047 51.2695 55.0586 51.1719 55.332 51.0547C55.7227 50.8789 55.918 50.4883 56.3672 50.3711C56.7578 50.2734 57.1289 50.0586 57.5 49.8828C57.793 49.7461 58.0664 49.5703 58.3594 49.4141C58.6719 49.2383 59.0039 49.043 59.3164 48.8476C59.7461 48.5742 60.1953 48.3008 60.625 48.0273C60.957 47.8125 61.25 47.5781 61.582 47.3633C61.9141 47.1484 62.2461 46.9531 62.5781 46.7383C63.0273 46.4258 63.457 46.0937 63.9063 45.8008C64.2773 45.5664 64.6875 45.3516 65.0781 45.1367C65.3125 45.0195 65.5469 44.8828 65.7617 44.7656C65.6445 44.9023 65.4883 45 65.3711 45.1172C64.9219 45.4687 64.4727 45.8398 64.0039 46.1914C63.5156 46.5625 63.2227 47.0508 63.0664 47.6562C62.9297 48.2031 62.9492 48.7695 63.0078 49.3359C63.0274 49.4531 62.9883 49.5312 62.8906 49.5898C62.5586 49.7851 62.2461 50.0195 61.9141 50.1953C61.3867 50.4883 60.8594 50.7617 60.3125 51.0351C60.2539 51.0547 60.1367 51.0547 60.0781 51.0156C59.8047 50.8789 59.5313 50.7422 59.2773 50.5859C58.6914 50.2148 58.0078 50.5273 57.6758 50.8594C57.4609 51.0742 57.5 51.3477 57.7539 51.5039C57.9297 51.6016 58.1055 51.6992 58.2813 51.7969C58.7109 52.0312 59.1211 52.2851 59.5508 52.5391C59.6289 52.5781 59.707 52.6367 59.7461 52.6953C59.8242 52.9101 59.9219 53.125 59.9414 53.3594C60.0195 53.8476 60.0586 54.3164 60.293 54.7656C60.4492 55.0976 60.6641 55.293 60.9961 55.2539C61.1914 55.2344 61.3867 55.2148 61.543 55.1367C61.9336 54.9414 62.2656 54.9805 62.6367 55.2734C62.9492 55.5273 63.3398 55.6836 63.6914 55.8594C63.8086 55.918 64.0039 55.8789 64.082 55.957C64.1602 56.0547 64.1211 56.2305 64.1406 56.3672C64.1406 56.4258 64.1406 56.4844 64.1602 56.5625C64.2578 56.875 64.2969 57.207 64.4336 57.5C64.6289 57.8906 64.6094 57.9492 64.2383 58.1641C63.8477 58.3984 63.457 58.6914 63.0859 58.9648C63.0273 59.0039 63.0274 59.1211 63.0078 59.1992C63.0664 59.1992 63.1641 59.2187 63.2031 59.1992C63.7695 58.7891 64.4531 58.6523 65.1172 58.5742C65.332 58.5547 65.5664 58.6133 65.8008 58.6719C65.9961 58.7109 66.1914 58.8281 66.3867 58.8476C66.6211 58.8867 66.6992 58.7305 66.6406 58.4961C66.543 58.125 66.2109 57.9883 65.8984 57.8711C65.625 57.7734 65.332 57.7734 65.0586 57.7344C65.1172 57.2656 65.1758 56.7773 65.2148 56.2891C65.2344 55.9961 65.3125 55.7812 65.625 55.7226C65.6641 55.7226 65.7031 55.6836 65.7227 55.6641C66.4063 55.0976 67.2852 54.8828 68.0469 54.4726C68.457 54.2578 68.8867 54.1016 69.2969 53.8867C69.7461 53.6328 70.1758 53.3594 70.6055 53.0859C70.7227 53.0078 70.8008 52.832 70.8399 52.6953C70.918 52.3047 70.918 51.9141 70.9961 51.5234C71.1914 50.4883 71.3867 49.4531 71.6016 48.418C71.7188 47.8125 71.875 47.207 71.9922 46.6211C72.1289 45.9961 72.2461 45.3711 72.4024 44.7461C72.5586 44.082 72.7539 43.4375 72.9492 42.793C73.0273 42.4805 72.9688 42.3633 72.6758 42.2266C72.6562 42.207 72.6172 42.207 72.5977 42.168C72.4805 41.9726 72.2852 41.9726 72.1094 41.9922C71.2891 42.0703 70.5078 42.3437 69.7656 42.6953C69.4922 42.8125 69.2383 42.9297 68.9844 43.0664C68.9648 43.0469 68.9453 43.0273 68.9258 43.0078C69.3164 42.8125 69.1602 42.4414 69.1797 42.1875C69.2188 41.8359 68.9844 41.4844 68.6133 41.2891C68.2617 41.0937 67.9102 40.8984 67.5391 40.7031C66.4844 40.1367 65.4297 39.5703 64.3945 38.9844C64.0234 38.7891 63.6719 38.5547 63.3203 38.3203C62.7148 37.8906 62.168 37.4023 61.543 36.9727C60.6641 36.3672 59.7656 35.8008 58.8867 35.2344C58.5742 35.0391 58.2617 34.8828 57.9492 34.6875C59.0234 33.3594 59.668 31.9336 59.1211 30.1758C59.2774 30.1367 59.4336 30.0977 59.5898 30.0781C60.4688 29.9805 61.3477 29.8633 62.2461 29.8047C63.3008 29.7461 64.3555 29.707 65.3906 29.707C66.0156 29.707 66.6406 29.7656 67.2461 29.8242C67.5195 29.8437 67.7734 29.8828 68.0273 29.9609C68.2422 30.0195 68.418 30.1562 68.6328 30.2344C69.2383 30.4297 69.8828 30.5664 70.4688 30.8203C71.2305 31.1523 71.9727 31.543 72.6562 31.9922C73.5938 32.6172 74.4922 33.3203 75.293 34.1406C75.8789 34.7266 76.4844 35.293 76.9336 35.9961C77.3242 36.6211 77.7149 37.2656 78.0469 37.9492C78.2813 38.3984 78.4375 38.8867 78.5938 39.3555C78.7695 39.9414 78.8867 40.5469 79.043 41.1328C79.1016 41.3476 79.1992 41.5625 79.2578 41.7969C79.2969 41.9336 79.2578 42.0898 79.2773 42.2266C79.3164 42.4609 79.3945 42.6758 79.4141 42.9102C79.4531 43.5937 79.4727 44.2578 79.5117 44.9414C79.5313 45.1367 79.5898 45.3516 79.5898 45.5469C79.5898 45.8594 79.5703 46.1719 79.5508 46.4844C79.5117 47.3047 79.4531 48.1445 79.4141 48.9648C79.4141 49.0039 79.3945 49.043 79.3945 49.082C79.0039 48.7109 78.4766 47.6758 78.418 47.1094C78.3984 46.9922 78.3398 46.875 78.3008 46.7578C78.2617 46.7578 78.2422 46.7773 78.2031 46.7773C78.2031 46.8359 78.1836 46.9141 78.1836 46.9726C78.2812 47.3437 78.3398 47.7344 78.4766 48.0664C79.0039 49.2969 79.8828 50.2734 80.8008 51.2109C81.2695 51.6797 81.7578 52.1484 82.1484 52.6953C82.832 53.6719 83.2617 54.7656 83.5938 55.8984C83.8477 56.8164 84.043 57.7539 84.2188 58.6914C84.4336 59.8437 84.5508 60.9961 84.4531 62.1875C84.4336 62.3828 84.4531 62.5781 84.4531 62.793C84.6875 62.8125 84.9609 62.8125 85 63.1641C85.0586 63.0859 85.0781 63.0273 85.0781 62.9687C85.1172 62.4805 85.1953 62.0117 85.2148 61.5234C85.293 60.1172 85.0977 58.7305 84.7656 57.3633ZM43.8672 39.5312C44.4531 39.1016 45.0977 38.7695 45.7617 38.4766C46.6602 38.0664 47.5391 37.6562 48.4375 37.2266C48.5938 37.1484 48.7109 37.1289 48.7695 37.3437C48.7891 37.4023 48.8477 37.5 48.9258 37.5195C49.1406 37.5586 49.1016 37.7148 49.1211 37.8516C49.2578 38.6328 49.3945 39.4336 49.5508 40.2148C49.5703 40.3516 49.6094 40.4883 49.6484 40.6445C47.8711 41.2891 46.4062 42.5 44.668 43.2227C44.6094 42.9687 44.5313 42.6758 44.4531 42.3828C44.2383 41.5234 44.0039 40.6641 43.7695 39.8047C43.6914 39.668 43.7695 39.6094 43.8672 39.5312ZM44.6875 58.75C44.6875 58.8867 44.6484 58.9453 44.5117 58.9453C43.5547 59.0039 42.6172 59.1406 41.6992 59.4336C41.0547 59.6289 40.4297 59.9219 39.8242 60.1758C39.668 60.2539 39.5508 60.2539 39.3945 60.1562C39.1016 59.9805 38.8086 59.8242 38.5156 59.668C38.3984 59.6094 38.3594 59.5312 38.3594 59.375C38.3984 58.5742 38.3984 57.7734 38.418 56.9726C38.418 56.6992 38.418 56.4258 38.418 56.1523C38.4375 56.1523 38.4375 56.1523 38.457 56.1523L38.3008 53.2617C38.3008 53.0664 38.3789 53.0078 38.5547 53.1055C39.1406 53.418 39.707 53.75 40.293 54.0625C40.5273 54.1992 40.7813 54.2773 41.0352 54.3945C42.0313 54.8828 43.0469 55.3711 44.0625 55.8594C44.1406 55.8984 44.2188 55.8984 44.3164 55.918C44.5898 55.957 44.707 56.0742 44.707 56.3476C44.707 56.875 44.707 57.4023 44.707 57.9297C44.6875 58.1836 44.668 58.4766 44.6875 58.75ZM46.4063 58.9648C46.4063 58.9844 46.3867 59.0234 46.3867 59.0625C46.1719 59.043 45.9766 59.0234 45.7813 58.9844C45.7227 58.9648 45.6641 58.8672 45.6641 58.8086C45.6641 58.5547 45.6836 58.3203 45.6836 58.0664C45.6836 57.5391 45.6836 57.0312 45.6836 56.5039V56.2695C45.7031 56.25 45.7227 56.2305 45.7422 56.2305C45.9766 56.4062 46.2109 56.582 46.4258 56.7578C46.4453 56.7773 46.4648 56.8359 46.4648 56.875C46.4453 57.5781 46.4258 58.2812 46.4063 58.9648ZM52.6758 58.4375C52.7148 58.9258 52.7344 59.4141 52.7539 59.8828C52.7734 60.0781 52.7148 60.1758 52.5586 60.3125C52.2852 60.5078 52.0508 60.7617 51.8359 60.9961C51.7578 61.0742 51.7383 61.1914 51.6797 61.3281C50.5859 60.5664 49.4336 59.9219 48.1641 59.4922C48.1641 59.4726 48.1641 59.4336 48.1641 59.4141C49.6484 58.7891 51.1133 58.1445 52.6367 57.5C52.6367 57.832 52.6758 58.125 52.6758 58.4375ZM51.4844 54.8242C51.7188 54.707 51.9531 54.5898 52.1875 54.4922C52.3828 54.4141 52.4805 54.4726 52.5 54.707C52.5195 54.9414 52.5195 55.1758 52.5195 55.4101C52.5391 55.8789 52.5586 56.3672 52.5781 56.8359C52.5781 56.9726 52.5391 57.0508 52.4023 57.0898C51.6797 57.3633 50.957 57.6367 50.2539 57.9492C49.5703 58.2422 48.8867 58.5937 48.2031 58.9062C47.9688 59.0234 47.7539 59.1601 47.5 59.2187C47.3242 59.2578 47.1094 59.1992 46.9531 59.1406C46.8945 59.1211 46.8945 58.9258 46.8945 58.8281C46.8945 58.7109 46.8945 58.5937 46.8945 58.4766H46.9141C46.9141 58.0273 46.9141 57.5586 46.9141 57.0898C46.9141 56.9531 46.9727 56.8945 47.0898 56.8359C47.6758 56.5625 48.2617 56.2695 48.8477 55.9961C49.2578 55.8008 49.6875 55.625 50.0977 55.4492C50.5469 55.2539 51.0156 55.0391 51.4844 54.8242ZM61.1523 54.8633C61.1133 54.8633 61.0156 54.8047 60.9961 54.7656C60.918 54.5508 60.8399 54.3359 60.7813 54.1016C60.8203 54.082 60.8399 54.082 60.8789 54.0625C61.1914 54.2578 61.5234 54.4726 61.8945 54.707C61.582 54.7656 61.3672 54.8242 61.1523 54.8633ZM63.0469 55.1758C62.3438 54.7461 61.6797 54.2773 61.0156 53.8086C60.957 53.7695 60.8984 53.6523 60.8789 53.5742C60.8594 53.4375 60.8789 53.3203 60.8789 53.1445C61.3281 53.3008 61.6797 53.0664 62.0313 52.9101C62.4805 52.7148 62.5195 52.3047 62.1094 52.0312C61.6797 51.7383 61.2109 51.5039 60.7422 51.2305C61.5039 50.8203 62.2852 50.3906 63.0664 49.9609C63.3984 51.7773 63.75 53.5937 64.1016 55.4492C63.7109 55.4687 63.3594 55.3711 63.0469 55.1758ZM70.0195 43.3008C70.5078 43.1055 70.9961 42.9101 71.4844 42.7539C71.8359 42.6367 72.207 42.5391 72.6367 42.4219C72.6172 42.5781 72.6367 42.7344 72.5977 42.8711C72.3047 43.8867 71.9922 44.8828 71.6992 45.8984C71.4844 46.6406 71.2891 47.3633 71.0938 48.1055C70.9961 48.4766 70.9375 48.8672 70.8594 49.2578C70.6836 50.0586 70.4883 50.8594 70.332 51.6797C70.2734 51.9336 70.2539 52.1875 70.2344 52.4414C70.2148 52.5781 70.1758 52.6758 70.0391 52.7344C69.4141 53.0664 68.8086 53.418 68.1836 53.7695C67.6953 54.043 67.207 54.3359 66.6992 54.6094C66.3477 54.8047 65.9766 55.0195 65.625 55.2344C65.4297 55.3516 65.2539 55.5078 65.0391 55.625C64.8047 55.7422 64.6875 55.6641 64.6484 55.3906C64.5898 54.8828 64.5313 54.375 64.4531 53.8867C64.2578 52.8711 64.1016 51.8555 63.8281 50.8789C63.5742 49.9609 63.5547 49.0039 63.3789 48.0664C63.3398 47.793 63.3789 47.5 63.4375 47.2266C63.457 47.1094 63.5742 46.9922 63.6719 46.9141C64.0039 46.6601 64.375 46.4648 64.707 46.1914C65.332 45.6641 66.0352 45.2344 66.7578 44.8437C67.8125 44.2578 68.8867 43.75 70.0195 43.3008ZM59.4531 36.4062C59.8047 36.6211 60.1172 36.875 60.4688 37.1094C61.3672 37.7344 62.2461 38.3789 63.1641 38.9648C63.8086 39.375 64.5117 39.707 65.1758 40.0977C66.0156 40.5859 66.8359 41.0742 67.6758 41.5625C67.8516 41.6602 68.0469 41.7773 68.2617 41.9141C68.0664 42.0312 67.8906 42.1484 67.7149 42.2461C67.3633 42.4414 66.9922 42.5976 66.6602 42.793C65.8594 43.2617 65.0781 43.75 64.2773 44.2187C63.5742 44.6289 62.8516 44.9805 62.168 45.4101C61.5039 45.8203 60.8594 46.3086 60.2148 46.7578C60.0391 46.875 59.8633 46.9726 59.6875 47.0703C58.6328 47.6758 57.5781 48.3008 56.5039 48.9062C56.1523 49.1016 55.7812 49.2578 55.4492 49.4531C55.1758 49.6094 54.9219 49.8437 54.6484 50C54.2578 50.2148 53.8477 50.4101 53.4375 50.6055C52.5781 51.0547 51.7188 51.4844 50.8594 51.9336C49.8438 52.4609 48.8477 53.0273 47.832 53.5351C47.1875 53.8672 46.5039 54.1211 45.8398 54.4141C45.625 54.5117 45.4102 54.6289 45.2148 54.7656C45.0977 54.8437 45.0195 54.8633 44.8828 54.8242C43.3789 54.2773 41.9922 53.4961 40.6055 52.7344C39.9219 52.3437 39.1602 52.0508 38.4766 51.6601C37.2656 50.957 36.0547 50.2148 34.8633 49.4531C34.4727 49.2187 34.1602 48.8867 33.7891 48.6328C33.418 48.3789 33.0273 48.1445 32.6367 47.9297C32.2461 47.7148 31.8359 47.5391 31.4453 47.3437C31.4063 47.3242 31.3672 47.2851 31.3086 47.2461C31.6992 46.9922 32.0703 46.7773 32.4219 46.5234C33.418 45.8594 34.5117 45.332 35.5859 44.8047C36.6602 44.2578 37.7344 43.7109 38.8086 43.1641C39.2383 42.9492 39.668 42.7344 40.0977 42.5C40.4688 42.3047 40.8008 42.0898 41.1719 41.875C41.875 41.4453 42.5977 41.0351 43.3008 40.625C43.3398 40.6055 43.3789 40.6055 43.457 40.5664C43.5352 40.8594 43.5938 41.1523 43.6719 41.4453C43.6719 41.4844 43.6523 41.582 43.6133 41.6016C43.2812 41.8164 42.9492 42.0117 42.6172 42.207C41.6797 42.7344 40.7227 43.2422 39.8047 43.7695C39.4922 43.9453 39.1797 44.1602 38.8867 44.375C38.8086 44.4336 38.7891 44.5703 38.75 44.668C38.8477 44.6875 38.9453 44.707 39.043 44.707C39.1406 44.6875 39.2383 44.6484 39.3359 44.6094C40.0781 44.2383 40.8203 43.8867 41.543 43.4766C42.2461 43.0859 42.9102 42.6172 43.5938 42.1875C43.6914 42.1289 43.7891 42.0898 43.9258 42.0117C43.9648 42.2656 44.0039 42.5 44.043 42.6953C44.1406 43.1445 44.2188 43.6328 44.5508 43.9844C44.707 44.1602 44.9414 44.2773 45.1562 44.3945C45.5078 44.5898 45.8789 44.7656 46.2305 44.9414C46.875 45.2344 47.5195 45.5273 48.1836 45.7617C48.3398 45.8203 48.5547 45.6836 48.75 45.6055C49.1211 45.4492 49.4922 45.2734 49.8438 45.0976C50.0391 45 50.2148 44.8828 50.4102 44.7852C51.0156 44.4727 51.6211 44.1797 52.207 43.8476C52.5586 43.6523 52.8906 43.418 53.2422 43.2031C53.418 43.0859 53.418 42.9101 53.2227 42.793C52.793 42.5195 52.3633 42.2461 51.9141 42.0117C51.4648 41.7578 50.9961 41.543 50.5469 41.2891C50.3906 41.1914 50.2344 41.0547 50.1172 40.957C50.0195 40.4883 49.9219 40 49.8242 39.5312C49.7656 39.2187 49.668 38.9258 49.5898 38.6328C49.5703 38.5742 49.6289 38.457 49.668 38.4375C49.9805 38.2422 50.293 38.0859 50.5859 37.8906C50.8984 37.6953 51.1914 37.4609 51.4844 37.2266C51.6797 37.0898 51.875 36.9727 52.0508 36.8164C52.1289 36.7578 52.1094 36.6016 52.1289 36.4844C52.0313 36.4844 51.9141 36.4453 51.8164 36.4844C51.6797 36.5234 51.5625 36.6211 51.4258 36.6992C50.8008 37.1484 50.0977 37.5 49.375 37.8125C49.3164 37.6953 49.2578 37.5781 49.1992 37.4609C49.082 37.1875 49.1211 37.1094 49.375 36.9336C50.1367 36.4453 50.8789 35.9375 51.6406 35.4492C52.0898 35.1758 52.5391 34.9414 53.0469 34.668C53.1445 34.9023 53.2422 35.1172 53.3203 35.332C53.5938 35.957 53.8672 36.6016 54.1406 37.2266C54.2773 37.5195 54.4922 37.5781 54.7461 37.4219C55.6641 36.875 56.5039 36.2305 57.207 35.4297C57.3438 35.2734 57.4414 35.2539 57.6172 35.3711C58.2227 35.7227 58.8477 36.0547 59.4531 36.4062ZM58.7695 31.5625C58.5742 32.4023 58.457 33.2812 57.8125 33.9453C57.5 34.2969 57.2461 34.707 56.9336 35.0586C56.7773 35.2539 56.6016 35.4297 56.4258 35.6055C56.1328 35.8984 55.8398 36.2109 55.5273 36.4844C55.2148 36.7578 54.8633 37.0117 54.5313 37.2851C54.3359 36.8555 54.1406 36.4258 53.9453 36.0156C53.75 35.5859 53.5938 35.1562 53.418 34.707C53.3789 34.6094 53.3984 34.4726 53.3984 34.3555C53.3398 34.2578 53.2227 34.1602 53.1836 34.043C52.9883 33.2812 52.7539 32.5195 52.6367 31.7383C52.5 30.8008 52.7148 29.8633 53.1445 29.0234C53.4375 28.4375 54.0039 28.2227 54.6094 28.0273C55.1172 27.8711 55.6055 27.9492 56.0938 28.0078C56.4648 28.0469 56.8164 28.2617 57.1484 28.457C57.6172 28.75 58.0469 29.1211 58.2813 29.668C58.3789 29.9023 58.4766 30.1562 58.5352 30.4102C58.6133 30.7617 58.6914 31.1133 58.75 31.4844C58.7695 31.5039 58.7695 31.543 58.7695 31.5625Z" fill="#1D2426"></path>
    <path d="M84.1016 65.918C84.0625 65.7422 84.0234 65.5859 83.9844 65.3906C83.9453 65.3906 83.8867 65.4101 83.8477 65.4101V65.2734C83.7695 65.3125 83.7109 65.3906 83.6719 65.4492C83.4375 65.9961 83.1641 66.5234 82.9297 67.0898C82.6758 67.7344 82.2266 68.2812 81.8359 68.8672C81.7188 69.043 81.543 69.1992 81.4062 69.3555C81.25 69.5312 81.0742 69.707 80.9375 69.9023C80.8008 70.0781 80.7227 70.293 80.5664 70.4297C80.0977 70.8789 79.707 71.4258 79.1406 71.7969C78.6719 72.1094 78.2422 72.5195 77.7734 72.8125C77.4414 73.0273 77.0703 73.1445 76.6992 73.2812C76.25 73.4375 75.7812 73.5742 75.3125 73.7109C74.3359 74.0234 73.3594 74.3359 72.3828 74.6484C72.2852 74.6875 72.1484 74.6484 72.0508 74.6484C72.0117 74.6875 71.9727 74.7461 71.9336 74.7656C71.6602 74.8437 71.3672 74.8828 71.1133 74.9805C70.7031 75.1367 70.332 75.332 69.9219 75.5078C69.1602 75.8203 68.3984 76.1719 67.5977 76.4453C65.8984 76.9922 64.1797 77.5 62.4805 78.0078C61.5039 78.3008 60.5469 78.6133 59.6484 79.0625C58.9062 79.4336 58.1836 79.7851 57.4414 80.1172C56.5039 80.5273 55.5859 80.9765 54.6094 81.3086C53.75 81.6015 52.8516 81.8164 51.9531 81.9726C50.9961 82.1289 50.0391 82.207 49.082 82.2851C48.1836 82.3633 47.2656 82.4219 46.3477 82.4609C45.5078 82.5 44.668 82.5195 43.8281 82.4805C42.793 82.4414 41.7773 82.3633 40.7617 82.2266C39.9219 82.1094 39.082 81.8945 38.2422 81.7383C37.3828 81.582 36.5039 81.4453 35.6445 81.3086C34.8828 81.1719 34.1016 81.0547 33.3398 80.918C32.4609 80.7617 31.6016 80.5859 30.7227 80.3906C30.1172 80.2539 29.5117 80.0976 28.9258 79.9414C28.4961 79.8242 28.0469 79.7266 27.6172 79.6094C27.3438 79.5312 27.0898 79.4336 26.8164 79.375C26.0547 79.1992 25.3125 78.9844 24.6289 78.5742C24.2773 78.3594 23.8867 78.2031 23.4961 78.0078C22.9297 77.7344 22.3438 77.4805 21.7773 77.168C21.1523 76.8164 20.5664 76.4453 19.9609 76.0742C19.6875 75.918 19.4336 75.7617 19.1797 75.5664C19.0234 75.4492 18.9062 75.2734 18.75 75.1367C18.3008 74.7266 17.8711 74.2969 17.5391 73.7695C17.2852 73.3789 16.9727 73.0469 16.7578 72.6367C16.5039 72.168 16.3281 71.6601 16.1133 71.1914C16.0352 71.0351 15.9375 70.8789 15.8398 70.7226C15.7813 70.625 15.7422 70.5273 15.6836 70.4297C15.4688 70.0586 15.3711 69.6484 15.3516 69.2187C15.3516 69.1406 15.293 69.0625 15.2734 68.9844C15.1367 68.6133 15 68.2617 15.0195 67.8516C15.0391 67.4414 14.9805 67.0312 14.9609 66.6211C14.9609 66.543 14.9023 66.4453 14.8828 66.3672C14.7656 66.4062 14.668 66.4258 14.5313 66.4453C14.5508 66.6016 14.5508 66.7578 14.5703 66.9336C14.6484 67.5586 14.8047 69.1406 14.8438 69.3164C15.0195 69.9219 15.3906 70.4687 15.4492 71.1133C15.4492 71.1523 15.4688 71.1719 15.4883 71.2109C15.6055 71.4062 15.8398 71.582 15.7617 71.875C15.7617 71.8945 15.8008 71.9141 15.8203 71.9531C15.8984 72.0898 15.9961 72.207 16.0742 72.3437C16.2695 72.7148 16.4258 73.125 16.6602 73.4766C17.0898 74.1211 17.5391 74.7656 18.0273 75.3515C18.418 75.8008 18.8672 76.2109 19.4531 76.4453C19.4922 76.4648 19.5312 76.4844 19.5703 76.5234C19.9219 76.9726 20.4688 77.1484 20.9375 77.4219C21.2695 77.6172 21.6602 77.7734 22.0117 77.9492C22.1094 77.9883 22.1875 78.0664 22.2852 78.125C22.7539 78.3398 23.2227 78.5351 23.6914 78.75C24.4727 79.1211 25.2344 79.4922 26.0352 79.8437C26.2891 79.9609 26.582 79.9414 26.8555 80.0195C27.207 80.1172 27.5391 80.2344 27.8711 80.332C28.75 80.5859 29.6094 80.918 30.4883 81.0937C31.7188 81.3281 32.9492 81.4258 34.1992 81.582C34.8828 81.6797 35.5664 81.7187 36.25 81.8359C36.7578 81.9141 37.2266 82.0898 37.7344 82.1875C38.7305 82.4023 42.0117 82.9687 42.3828 83.0078C44.4141 83.1836 46.4258 83.1641 48.457 82.9492C48.8867 82.9101 49.3164 82.8711 49.7461 82.832C50.2148 82.7734 50.7031 82.6562 51.1719 82.6172C52.2656 82.4805 53.3398 82.2461 54.3945 81.8945C55.2734 81.6015 56.1328 81.2305 56.9727 80.8398C57.6172 80.5469 58.2617 80.2148 58.9453 79.8633C59.0234 79.707 62.9102 78.2617 64.082 77.9492C65.2539 77.6562 66.4453 77.3633 67.5781 76.8945L69.7461 76.0156C70.4102 75.7422 71.0547 75.4492 71.7188 75.1953C72.0703 75.0586 72.4414 74.9414 72.8125 74.8437C73.418 74.6875 74.0234 74.5703 74.6289 74.3945C75.3125 74.1797 75.9961 73.9258 76.6797 73.6523C77.1484 73.457 77.5977 73.2226 78.0469 72.9883C78.5938 72.6953 79.1211 72.3828 79.6289 72.0508C80.2734 71.6211 80.7617 71.0156 81.2891 70.4492C81.5039 70.2148 81.6992 69.9805 81.8945 69.7461C82.0703 69.5117 82.2656 69.2969 82.4219 69.043C82.6563 68.6719 82.832 68.2617 83.1055 67.9297C83.5938 67.3047 83.8867 66.5625 84.2383 65.8594C84.2578 65.8398 84.2578 65.8008 84.2578 65.7617C84.1797 65.8984 84.1406 65.918 84.1016 65.918Z" fill="#1D2426"></path>
    <path d="M49.8438 21.8555C49.2188 22.0117 48.5742 22.168 47.9492 22.3242C46.9727 22.5781 46.0156 22.8711 45.1172 23.3594C44.4727 23.7109 43.8281 24.0625 43.2227 24.4727C42.5 24.9414 41.9336 25.5469 41.4062 26.2109C40.8398 26.9336 40.293 27.6758 39.7461 28.418C39.4336 28.8281 39.1211 29.2383 38.8477 29.6875C38.6328 30.0391 38.4766 30.4492 38.3008 30.8203C37.9102 31.6211 37.5195 32.4414 37.1289 33.2422C37.1094 33.2617 37.1094 33.3008 37.0898 33.3398C37.3828 33.457 37.6758 33.5547 37.9688 33.6914C38.5156 33.9453 39.082 34.1797 39.6094 34.4922C39.9219 34.668 40.1758 34.9609 40.4492 35.2148C40.8398 35.5859 41.2305 35.957 41.6406 36.3281C41.8945 36.5625 41.9727 36.875 42.0508 37.1875C42.0508 37.207 41.9336 37.2852 41.9141 37.2656C41.5625 37.0117 41.1719 36.7969 40.8984 36.4258C40.4102 35.8203 39.8828 35.1953 39.1211 34.8633C38.6328 34.6484 38.1445 34.4336 37.6563 34.2187C37.2461 34.043 36.8555 33.8477 36.4453 33.6914C36.1914 33.5938 35.8984 33.5352 35.625 33.4766C34.5508 33.2617 33.4766 33.1055 32.3828 33.1836C31.7383 33.2227 31.1133 33.3008 30.4688 33.3203C29.7461 33.3398 29.043 33.4766 28.3594 33.6133C26.7383 33.9453 25.1953 34.4531 23.7891 35.3906C22.8906 35.9961 22.0117 36.6602 21.1719 37.3633C20.4297 37.9883 19.8828 38.7305 19.3555 39.5312C18.5742 40.7227 18.1445 42.0703 17.7148 43.418C17.2461 44.9219 17.168 46.4648 17.3242 48.0273C17.4609 49.4531 17.793 50.8398 18.3203 52.168C18.6914 53.125 19.3359 53.8867 20 54.6875C21.4258 53.5156 22.9102 52.4609 24.7461 52.0898C24.7461 52.1094 24.7656 52.1289 24.7656 52.1484C24.6289 52.207 24.5117 52.2851 24.375 52.3242C22.8516 52.8516 21.5234 53.7109 20.3125 54.7852C20.2344 54.8633 20.2148 54.9805 20.1367 55.1172C19.9219 55.0195 19.7852 55.2539 19.6289 55.3906C18.2812 56.6211 17.1094 57.9687 16.2695 59.5898C15.8203 60.4883 15.4687 61.4258 15.2539 62.4023C15.1562 62.832 15.1172 63.2617 15.0586 63.6914C15.0391 63.7695 15.0391 63.8281 15.0195 63.8867H14.6875C15.0195 60.1562 16.9141 57.2852 19.7266 54.9023C19.5508 54.6875 19.3945 54.4726 19.2188 54.2773C18.5938 53.5352 18.125 52.7148 17.793 51.7969C17.3633 50.625 17.0508 49.4336 16.9922 48.1836C16.9531 47.2656 16.9727 46.3477 17.0312 45.4297C17.1094 44.3359 17.4023 43.2812 17.7734 42.2656C17.9492 41.7969 18.0469 41.2891 18.3008 40.8398C18.75 40.0195 19.082 39.1406 19.707 38.4375C20.5273 37.5195 21.3281 36.582 22.3437 35.8594C23.0273 35.3516 23.75 34.9023 24.5312 34.5117C25.4883 34.0234 26.4648 33.6523 27.4805 33.3398C28.0078 33.1836 28.5742 33.1055 29.1211 32.9883C29.6094 32.8906 30.0781 32.7539 30.5664 32.7148C31.3086 32.6367 32.0312 32.6172 32.7734 32.5977C33.2227 32.5781 33.6914 32.5391 34.1211 32.5977C34.8242 32.6953 35.5273 32.8516 36.2109 33.0273C36.4258 33.0859 36.5039 33.0469 36.582 32.8516C36.6797 32.5781 36.8555 32.3242 36.9727 32.0703C37.0117 31.9922 37.0117 31.9141 37.0508 31.8359C37.168 31.6016 37.3047 31.3672 37.4219 31.1328C37.4805 31.0352 37.5195 30.9375 37.5781 30.8398C37.6758 30.6445 37.7734 30.4688 37.8906 30.2734C38.1836 29.7461 38.4766 29.1992 38.7891 28.6914C38.9258 28.457 39.1016 28.2617 39.2578 28.0469C39.4336 27.793 39.5508 27.5 39.7461 27.2656C40.0977 26.875 40.2734 26.3477 40.7227 26.0156C40.9375 25.8594 41.0742 25.5859 41.2695 25.3711C41.543 25.0781 41.7969 24.7852 42.1094 24.5508C42.9297 23.9453 43.75 23.3594 44.6875 22.9492C45.3516 22.6562 45.9961 22.3242 46.6797 22.0703C47.5781 21.7383 48.4961 21.4453 49.4531 21.3281C49.4922 21.3281 49.5312 21.3281 49.5703 21.3281C49.6484 21.5234 49.5117 21.8164 49.8438 21.8555Z" fill="#1D2426"></path>
    <path d="M51.9141 34.3359C51.875 34.4141 51.7188 34.4922 51.6406 34.4922C51.4844 34.4531 51.2891 34.3945 51.2109 34.2578C50.957 33.8672 50.6445 33.8672 50.2148 34.0625C50.3125 33.6133 50.0586 33.6328 49.7852 33.5938C49.1211 33.4961 48.457 33.3984 47.793 33.6133C47.5586 33.6914 47.3047 33.7695 47.0703 33.8477C47.0508 33.8281 47.0312 33.8086 47.0117 33.7695C47.1289 33.6719 47.2461 33.5352 47.3633 33.457C48.1836 33.0078 49.0625 32.8906 49.9805 32.9688C50.0391 32.9688 50.0977 32.9687 50.1953 32.9883C50.1953 32.6367 50.1953 32.2852 50.1953 31.9336C50.1758 31.0937 50.1367 30.2734 50.1367 29.4336C50.1367 28.3008 50.1562 27.1484 50.1562 25.9961C50.1562 25.2344 50.1758 24.4727 50.1953 23.7109C50.2344 22.9492 50.3125 22.168 50.332 21.4062C50.3516 20.8008 50.3125 20.1953 50.3125 19.5898C50.3125 18.8867 50.3516 18.1836 50.3711 17.4805C50.3711 16.7187 50.3516 15.957 50.3711 15.1953C50.3711 13.3984 50.3906 11.6016 50.4102 9.78516C50.4297 8.51562 50.4492 7.24609 50.4492 5.97656C50.4492 5.83984 50.4688 5.70312 50.4883 5.54688C50.5273 5.54688 50.5469 5.54688 50.5859 5.54688C50.6055 5.625 50.6445 5.72266 50.6445 5.80078C50.6641 6.19141 50.6641 6.58203 50.6641 6.97266C50.6836 8.69141 50.7031 10.4102 50.7031 12.1484C50.7031 13.0469 50.6836 13.9453 50.7031 14.8437C50.7031 15.4492 50.7422 16.0547 50.7617 16.6602C50.7812 17.4219 50.7812 18.2031 50.7812 18.9648C50.8008 20.0195 50.8203 21.0937 50.8203 22.1484C50.8203 23.3008 50.7617 24.4336 50.7617 25.5859C50.7422 26.5625 50.7617 27.5391 50.7617 28.5156C50.7617 29.4141 50.7812 30.332 50.7812 31.2305C50.7812 31.8164 50.7812 32.4219 50.8008 33.0078C50.8008 33.125 50.8398 33.2031 50.957 33.2617C51.3477 33.418 51.6211 33.7305 51.875 34.043C51.9531 34.082 51.9531 34.2578 51.9141 34.3359Z" fill="#1D2426"></path>
    <path d="M90.4688 67.5977C90.3711 67.6367 90.2539 67.7148 90.1367 67.7344C90.0391 67.7539 89.9219 67.7344 89.8242 67.6758C89.1016 67.2656 88.3984 66.8555 87.6953 66.4258C86.7188 65.8203 85.7422 65.2148 84.7656 64.5898C83.9063 64.0234 83.0664 63.418 82.2266 62.832C81.3672 62.2461 80.5078 61.6406 79.6484 61.0742C78.4766 60.3125 77.2656 59.5898 76.0938 58.8477C75.8789 58.7109 75.6641 58.5547 75.4688 58.418C75.3711 58.3398 75.2734 58.3594 75.1758 58.457C74.7266 58.8867 74.1406 59.082 73.5547 59.2773C73.4961 59.2969 73.3984 59.2383 73.3203 59.2188C73.3789 59.1602 73.418 59.0625 73.4961 59.043C74.4922 58.6914 75.2344 58.0469 75.6836 57.0898C75.957 56.5039 76.25 55.918 76.5039 55.3125C76.6406 55 76.6602 54.6289 76.7578 54.2969C76.9336 53.7109 76.9336 53.1055 76.875 52.5195C76.8359 52.0898 76.7578 51.6797 76.6797 51.25C76.6602 51.0742 76.6602 50.8789 76.6016 50.7227C76.3281 49.8242 75.9961 48.9258 75.3516 48.2227C75 47.832 74.5898 47.4805 74.1992 47.1289C74.082 47.0117 73.9258 46.9141 73.7891 46.8164C73.8281 46.7773 73.8477 46.7383 73.8867 46.6992C73.9648 46.7188 74.0625 46.7383 74.1406 46.7773C74.8438 47.1484 75.3906 47.6953 75.957 48.2422C76.0938 48.3789 76.25 48.4766 76.3477 48.6328C76.9531 49.6289 77.4805 50.625 77.5977 51.8164C77.6562 52.5391 77.7344 53.2617 77.5586 53.9844C77.207 55.4102 76.7188 56.7773 75.7227 57.8906C75.6836 57.9492 75.6445 58.0078 75.5859 58.0664C75.625 58.1055 75.6641 58.1445 75.7227 58.1836C76.9922 58.9648 78.2617 59.7266 79.4922 60.5469C80.6641 61.3086 81.7969 62.1484 82.9492 62.9492C83.6328 63.418 84.3164 63.9063 85.0195 64.3555C85.7812 64.8633 86.543 65.3711 87.3242 65.8203C88.3203 66.4063 89.3164 66.9531 90.332 67.5391C90.3906 67.5391 90.4492 67.5781 90.4688 67.5977Z" fill="#1D2426"></path>
    <path d="M29.6875 59.6289C29.6094 59.6484 29.5312 59.707 29.4727 59.668C29.043 59.4922 28.5938 59.2969 28.1836 59.082C27.8711 58.9258 27.5781 58.7305 27.2656 58.5938C27.168 58.5547 27.0312 58.5547 26.9531 58.5938C25.8789 59.1992 24.8242 59.8242 23.7695 60.4297C23.0273 60.8398 22.2656 61.2305 21.5039 61.6602C20.6055 62.168 19.7266 62.6953 18.8477 63.2227C17.8516 63.8086 16.8555 64.4141 15.8398 64.9609C15.4297 65.1758 14.9805 65.332 14.5312 65.4492C14.0039 65.6055 13.5352 65.8594 13.0664 66.1523C12.4609 66.543 11.8164 66.9141 11.1914 67.2656C10.6836 67.5586 10.1758 67.8125 9.66797 68.0664C9.47266 68.1641 9.23828 68.2227 9.02344 68.3008C9.02344 68.2813 9.02344 68.2813 9.00391 68.2617C9.45312 68.0078 9.90234 67.7539 10.3711 67.4805C10.7422 67.2656 11.0938 67.0703 11.4648 66.8555C11.9531 66.582 12.4609 66.3086 12.9688 66.0352C13.5938 65.6836 14.2383 65.332 14.8633 64.9609C15.5859 64.5312 16.3086 64.1016 17.0312 63.6719C18.0273 63.0664 19.0234 62.4414 20.0195 61.8555C20.6641 61.4844 21.3477 61.1523 21.9922 60.7813C22.9883 60.2148 23.9844 59.6289 24.9805 59.0625C25.5273 58.75 26.0938 58.457 26.7188 58.125C25.957 57.5781 25.7422 56.7969 25.7227 55.957C25.7227 55.7813 25.7617 55.5859 25.7617 55.4102C25.8008 55.4102 25.8203 55.4102 25.8594 55.3906C25.918 55.5664 25.9961 55.7227 26.0547 55.8984C26.2891 56.543 26.543 57.1875 27.0703 57.6758C27.4414 58.0273 27.8516 58.3203 28.2812 58.5938C28.6719 58.8672 29.1016 59.082 29.5117 59.3359C29.5312 59.3555 29.5703 59.3555 29.5898 59.375C29.6094 59.4922 29.6484 59.5508 29.6875 59.6289Z" fill="#1D2426"></path>
    <path d="M79.5508 67.4219C79.5312 67.8125 79.2578 68.2227 79.0625 68.5938C78.9648 68.7695 78.7891 68.8867 78.6133 69.082C78.6914 68.6914 78.7891 68.3789 78.8477 68.0664C78.8672 67.9297 78.8477 67.7734 78.8281 67.6367C78.8086 67.3633 78.7891 67.1094 78.7695 66.8359C78.75 66.7383 78.7109 66.6601 78.6719 66.5625C78.6523 66.5039 78.5938 66.4453 78.6133 66.4062C78.6523 66.1133 78.5352 65.8789 78.3984 65.6445C78.2422 65.3516 78.125 65.0391 78.0078 64.7266C77.8125 64.1797 77.4023 63.7891 77.0117 63.3984C76.4062 62.8125 75.625 62.5977 74.8047 62.4609C73.9063 62.3242 73.125 62.6172 72.3242 62.9492C72.1289 63.0273 71.9727 63.1641 71.7969 63.2812C71.5039 62.3437 71.2305 61.5234 70.2539 61.1133C69.2969 60.7031 68.4961 60.8789 67.7149 61.4844C67.6953 61.4648 67.6758 61.4453 67.6563 61.4062C67.7148 61.3086 67.7344 61.1719 67.832 61.1133C68.2227 60.8594 68.6133 60.5664 69.043 60.3711C69.5117 60.1562 70 60.293 70.4492 60.4688C71.0547 60.7031 71.4844 61.1328 71.6992 61.7773C71.8164 62.1289 71.9922 62.4609 72.168 62.793C72.832 62.3828 73.5938 62.1875 74.3555 62.0703C75.2149 61.9336 76.0156 62.0898 76.7969 62.4805C77.6563 62.9102 78.2617 63.5937 78.7695 64.3555C79.043 64.7656 79.1602 65.2734 79.3555 65.7422C79.5117 66.2695 79.5898 66.8555 79.5508 67.4219Z" fill="#1D2426"></path>
    <path d="M26.6406 63.6133C26.2695 63.5938 25.8984 63.5547 25.5273 63.5937C24.2773 63.7109 23.2812 64.8242 23.1641 65.8398C23.0664 66.6016 23.2227 67.3047 23.7305 67.9492C23.5352 68.0078 23.4375 67.8906 23.3594 67.7734C23.0859 67.3242 22.9883 66.8164 22.9297 66.2891C22.832 65.3516 23.1445 64.5312 23.6523 63.7891C24.082 63.1836 24.7266 62.9883 25.4102 62.832C25.918 62.7148 26.3281 62.8711 26.7188 63.1836C26.7773 63.2227 26.8359 63.3008 26.8555 63.3594C26.9141 63.5547 26.8359 63.6328 26.6406 63.6133Z" fill="#1D2426"></path>
    <path d="M94.043 69.8047C94.043 69.8242 94.0234 69.8242 94.0234 69.8438C94.082 69.9023 94.1601 69.9609 94.2187 70.0195C93.4375 69.668 92.793 69.1406 92.1484 68.6133C92.168 68.5937 92.1875 68.5742 92.207 68.5547C92.5976 68.8672 93.0078 69.1602 93.457 69.5117C93.418 69.4141 93.3984 69.375 93.3789 69.3164C93.7891 69.5508 94.1797 69.7852 94.5898 70.0391C94.5898 70.0586 94.5703 70.0781 94.5703 70.0781C94.375 70 94.1992 69.9023 94.043 69.8047Z" fill="#1D2426"></path>
    <path d="M9.72656 68.1641C9.375 68.3008 9.00391 68.457 8.65234 68.5938C8.65234 68.5742 8.63281 68.5547 8.63281 68.5352C9.00391 68.3984 9.35547 68.2617 9.72656 68.125C9.72656 68.1445 9.72656 68.1641 9.72656 68.1641Z" fill="#1D2426"></path>
    <path d="M43.8867 42.0117C43.9258 42.2656 43.9648 42.5 44.0039 42.6953C44.1016 43.1445 44.1797 43.6328 44.5117 43.9844C44.6875 44.1602 44.9023 44.2773 45.1172 44.3945C45.4688 44.5898 45.8398 44.7656 46.1914 44.9414C46.8359 45.2344 47.4805 45.5273 48.1445 45.7617C48.3008 45.8203 48.5156 45.6836 48.7109 45.6055C49.082 45.4492 49.4336 45.2734 49.8047 45.0977C50 45 50.1758 44.8828 50.3711 44.7852C50.9766 44.4727 51.582 44.1797 52.168 43.8477C52.5195 43.6523 52.8516 43.418 53.2031 43.2031C53.3789 43.0859 53.3789 42.9102 53.1836 42.793C52.7539 42.5195 52.3242 42.2461 51.875 42.0117C51.4258 41.7578 50.957 41.543 50.5078 41.2891C50.3516 41.1914 50.2148 41.0547 50.0781 40.957C49.9805 40.4883 49.8828 40 49.7852 39.5312C49.707 39.2187 49.6289 38.9258 49.5508 38.6328C49.5312 38.5742 49.5898 38.457 49.6289 38.4375C49.9414 38.2422 50.2539 38.0859 50.5469 37.8906C50.8594 37.6953 51.1523 37.4609 51.4453 37.2266C51.6406 37.0898 51.8359 36.9727 52.0117 36.8164C52.0898 36.7578 52.0703 36.6016 52.0898 36.4844C51.9922 36.4844 51.875 36.4453 51.7773 36.4844C51.6406 36.5234 51.5234 36.6211 51.3867 36.6992C50.7422 37.1484 50.0586 37.5 49.3359 37.8125C49.2773 37.6758 49.2188 37.5781 49.1602 37.4609C49.043 37.1875 49.082 37.1094 49.3359 36.9336C50.0977 36.4453 50.8398 35.9375 51.6016 35.4492C52.0508 35.1758 52.5 34.9414 53.0078 34.668C53.1055 34.9023 53.2031 35.1172 53.2812 35.332C53.5547 35.957 53.8281 36.6016 54.1016 37.2266C54.2383 37.5195 54.4531 37.5781 54.707 37.4219C55.625 36.875 56.4648 36.2305 57.168 35.4297C57.3047 35.2734 57.4023 35.2539 57.5781 35.3711C58.1836 35.7227 58.8086 36.0352 59.4141 36.4062C59.7656 36.6211 60.0781 36.875 60.4297 37.1094C61.3281 37.7344 62.207 38.3789 63.125 38.9648C63.7695 39.375 64.4727 39.707 65.1367 40.0977C65.9766 40.5859 66.7969 41.0742 67.6367 41.5625C67.8125 41.6602 67.9883 41.7773 68.2227 41.9141C68.0273 42.0312 67.8516 42.1484 67.6758 42.2461C67.3242 42.4414 66.9531 42.5977 66.6211 42.793C65.8203 43.2617 65.0391 43.75 64.2383 44.2187C63.5352 44.6289 62.8125 44.9805 62.1289 45.4102C61.4648 45.8203 60.8203 46.3086 60.1758 46.7578C60 46.875 59.8242 46.9727 59.6484 47.0703C58.5937 47.6758 57.5391 48.3008 56.4648 48.9062C56.1133 49.1016 55.7617 49.2578 55.4102 49.4531C55.1367 49.6094 54.8828 49.8438 54.6094 50C54.2188 50.2148 53.8086 50.4102 53.3984 50.625C52.5391 51.0742 51.6797 51.5039 50.8203 51.9531C49.8047 52.4805 48.8086 53.0469 47.793 53.5547C47.1484 53.8867 46.4648 54.1406 45.8008 54.4336C45.5859 54.5312 45.3711 54.6484 45.1758 54.7852C45.0586 54.8633 44.9805 54.8828 44.8438 54.8437C43.3398 54.2969 41.9531 53.5156 40.5664 52.7539C39.8828 52.3633 39.1211 52.0703 38.4375 51.6797C37.2266 50.9766 36.0156 50.2344 34.8242 49.4727C34.4531 49.2383 34.1211 48.9062 33.75 48.6523C33.3789 48.3984 32.9883 48.1641 32.5977 47.9492C32.207 47.7344 31.7969 47.5586 31.4063 47.3633C31.3672 47.3438 31.3281 47.3047 31.2695 47.2656C31.6602 47.0117 32.0313 46.7969 32.3828 46.543C33.3789 45.8789 34.4727 45.3516 35.5469 44.8242C36.6211 44.2773 37.6953 43.7305 38.7695 43.1836C39.1992 42.9688 39.6289 42.7539 40.0586 42.5391C40.4297 42.3438 40.7617 42.1289 41.1328 41.9141C41.8359 41.5039 42.5586 41.0742 43.2617 40.6641C43.3008 40.6445 43.3398 40.6445 43.418 40.6055C43.4961 40.8984 43.5547 41.1914 43.6328 41.4844C43.6523 41.5234 43.6133 41.6211 43.5742 41.6406C43.2422 41.8555 42.9102 42.0508 42.5781 42.2461C41.6406 42.7734 40.7031 43.2812 39.7656 43.8086C39.4531 43.9844 39.1406 44.1992 38.8477 44.4141C38.7695 44.4727 38.75 44.6094 38.7109 44.707C38.8086 44.7266 38.9062 44.7461 39.0039 44.7461C39.1016 44.7266 39.1992 44.6875 39.2969 44.6484C40.0391 44.2773 40.7812 43.9258 41.5039 43.5156C42.207 43.1055 42.8711 42.6562 43.5547 42.2266C43.6523 42.1289 43.75 42.0898 43.8867 42.0117Z" fill="#DEB6F2"></path>
    <path d="M72.6172 42.4219C72.5977 42.5781 72.6172 42.7344 72.5781 42.8711C72.2852 43.8867 71.9727 44.8828 71.6797 45.8984C71.4648 46.6406 71.2695 47.3633 71.0742 48.1055C70.9766 48.4766 70.918 48.8672 70.8398 49.2383C70.6641 50.0391 70.4687 50.8398 70.3125 51.6602C70.2539 51.9141 70.2344 52.168 70.2148 52.4219C70.1953 52.5586 70.1562 52.6562 70.0195 52.7148C69.3945 53.0469 68.7891 53.3984 68.1641 53.75C67.6758 54.0234 67.1875 54.3164 66.6797 54.5898C66.3281 54.8047 65.957 55 65.6055 55.2148C65.4102 55.332 65.2344 55.4883 65.0195 55.6055C64.7852 55.7227 64.668 55.6445 64.6289 55.3711C64.5703 54.8633 64.5117 54.3555 64.4336 53.8672C64.2383 52.8516 64.082 51.8359 63.8086 50.8594C63.5547 49.9414 63.5352 48.9844 63.3594 48.0469C63.3008 47.7734 63.3594 47.4805 63.418 47.207C63.4375 47.0898 63.5547 46.9727 63.6523 46.8945C63.9844 46.6406 64.3555 46.4453 64.6875 46.1719C65.3125 45.6445 66.0156 45.2148 66.7383 44.8242C67.793 44.2383 68.8672 43.7305 70 43.3008C70.4883 43.1055 70.9766 42.9102 71.4648 42.7539C71.8359 42.6367 72.207 42.5391 72.6172 42.4219Z" fill="#DEB6F2"></path>
    <path d="M38.457 56.1523C38.3984 55.1953 38.3594 54.2187 38.3008 53.2617C38.2813 53.0664 38.3789 53.0078 38.5547 53.1055C39.1406 53.418 39.707 53.75 40.293 54.0625C40.5273 54.1992 40.7813 54.2773 41.0352 54.3945C42.0508 54.8828 43.0469 55.3711 44.0625 55.8594C44.1406 55.8984 44.2188 55.8984 44.3164 55.918C44.5898 55.957 44.707 56.0742 44.707 56.3476C44.707 56.875 44.707 57.4023 44.707 57.9297C44.707 58.2031 44.707 58.4961 44.707 58.7695C44.707 58.9062 44.668 58.9648 44.5312 58.9648C43.5742 59.0234 42.6367 59.1602 41.7188 59.4531C41.0742 59.6484 40.4492 59.9414 39.8242 60.1953C39.668 60.2734 39.5508 60.2734 39.3945 60.1758C39.1016 60 38.8086 59.8437 38.5156 59.6875C38.3984 59.6289 38.3594 59.5508 38.3594 59.3945C38.3984 58.5938 38.3984 57.793 38.418 56.9922C38.418 56.7187 38.418 56.4453 38.418 56.1719C38.4375 56.1523 38.4375 56.1523 38.457 56.1523Z" fill="#F7FBFC"></path>
    <path d="M58.75 31.4648C58.6719 31.1133 58.6133 30.7422 58.5352 30.3906C58.4766 30.1367 58.3984 29.8828 58.2812 29.6484C58.0469 29.1211 57.6172 28.75 57.1484 28.4375C56.8359 28.2422 56.4648 28.0273 56.0938 27.9883C55.6055 27.9297 55.1172 27.8516 54.6094 28.0078C54.0039 28.2031 53.457 28.418 53.1445 29.0039C52.7148 29.8437 52.5 30.7812 52.6367 31.7187C52.7539 32.5 52.9883 33.2422 53.1836 34.0234C53.2227 34.1406 53.3398 34.2383 53.3984 34.3359C53.3984 34.4531 53.3789 34.5898 53.418 34.6875C53.5742 35.1172 53.75 35.5664 53.9453 35.9961C54.1211 36.4258 54.3359 36.8359 54.5312 37.2656C54.8633 36.9922 55.2148 36.7578 55.5273 36.4648C55.8398 36.1914 56.1328 35.8789 56.4258 35.5859C56.6016 35.4102 56.7773 35.2344 56.9336 35.0391C57.2266 34.668 57.4805 34.2578 57.8125 33.9258C58.4375 33.2422 58.5742 32.3828 58.7695 31.543C58.7695 31.543 58.7695 31.5039 58.75 31.4648ZM56.0156 32.8516C55.6445 32.9297 55.2734 32.832 54.9414 32.5977C54.2773 32.1484 54.0625 31.5039 54.0234 30.7422C54.1211 30.1953 54.2383 29.668 54.7656 29.3359C55.1562 29.082 55.5273 29.2187 55.8789 29.3555C56.6602 29.6875 57.0898 30.3516 57.2266 31.1719C57.3828 32.0117 56.7383 32.7148 56.0156 32.8516Z" fill="#F7FBFC"></path>
    <path d="M49.6289 40.6445C47.8516 41.2891 46.3867 42.5 44.6484 43.2227C44.5898 42.9688 44.5117 42.6758 44.4336 42.3828C44.2188 41.5234 43.9844 40.6641 43.75 39.8047C43.7109 39.6484 43.7891 39.5898 43.8867 39.5117C44.4727 39.082 45.1172 38.75 45.7812 38.457C46.6797 38.0469 47.5586 37.6367 48.457 37.207C48.6133 37.1289 48.7305 37.1094 48.7891 37.3242C48.8086 37.3828 48.8672 37.4805 48.9453 37.5C49.1602 37.5391 49.1211 37.6953 49.1406 37.832C49.2773 38.6133 49.4141 39.4141 49.5703 40.1953C49.5508 40.3516 49.5898 40.4883 49.6289 40.6445Z" fill="#F7FBFC"></path>
    <path d="M46.8945 58.4766C46.8945 58.0078 46.8945 57.5586 46.8945 57.0898C46.8945 56.9531 46.9531 56.8945 47.0703 56.8359C47.6562 56.5625 48.2422 56.2695 48.8086 55.9961C49.2188 55.8008 49.6484 55.625 50.0586 55.4492C50.5273 55.2344 50.9961 55.0195 51.4453 54.8047C51.6797 54.6875 51.9141 54.5898 52.1484 54.4922C52.3438 54.4141 52.4414 54.4727 52.4609 54.707C52.4805 54.9414 52.4805 55.1758 52.4805 55.4102C52.5 55.8789 52.5195 56.3672 52.5391 56.8359C52.5391 56.9727 52.5 57.0508 52.3633 57.0898C51.6406 57.3633 50.918 57.6367 50.2148 57.9492C49.5312 58.2422 48.8477 58.5938 48.1641 58.9062C47.9297 59.0234 47.7148 59.1602 47.4609 59.2188C47.2852 59.2578 47.0703 59.1992 46.9141 59.1406C46.8555 59.1211 46.8555 58.9258 46.8555 58.8281C46.875 58.7109 46.8945 58.5937 46.8945 58.4766Z" fill="#F7FBFC"></path>
    <path d="M60.8594 53.125C61.3086 53.2812 61.6602 53.0469 62.0117 52.8906C62.4609 52.6953 62.5 52.2851 62.0898 52.0312C61.6406 51.7383 61.1914 51.5039 60.7227 51.2305C61.4844 50.8203 62.2656 50.3906 63.0469 49.9609C63.3789 51.7773 63.7305 53.6133 64.082 55.4492C63.7109 55.4883 63.3398 55.3711 63.0273 55.1758C62.3242 54.7461 61.6602 54.2773 60.9961 53.8086C60.9375 53.7695 60.8789 53.6523 60.8594 53.5742C60.8594 53.4375 60.8594 53.3008 60.8594 53.125Z" fill="#DEB6F2"></path>
    <path d="M52.5977 57.4805C52.6367 57.832 52.6563 58.125 52.6758 58.4375C52.7149 58.9258 52.7344 59.3945 52.7539 59.8828C52.7734 60.0586 52.7148 60.1953 52.5586 60.3125C52.2852 60.5078 52.0508 60.7617 51.8359 60.9961C51.7578 61.0742 51.7383 61.2109 51.6797 61.3281C50.5859 60.5664 49.4336 59.9219 48.1641 59.4922C48.1641 59.4726 48.1641 59.4336 48.1641 59.4141C49.6094 58.7695 51.0938 58.1445 52.5977 57.4805Z" fill="#F7FBFC"></path>
    <path d="M46.3867 59.082C46.1719 59.0625 45.9766 59.043 45.8008 59.0039C45.7422 58.9844 45.6836 58.8867 45.6836 58.8281C45.6836 58.5742 45.7031 58.3398 45.7031 58.0859C45.7031 57.5586 45.7031 57.0508 45.7031 56.5234C45.7031 56.4453 45.7031 56.3672 45.7031 56.2891C45.7227 56.2695 45.7422 56.2695 45.7617 56.25C45.9961 56.4258 46.2305 56.6016 46.4648 56.7773C46.4844 56.7969 46.5039 56.8555 46.5039 56.9141C46.4844 57.5977 46.4648 58.3008 46.4453 58.9844C46.4062 59.0039 46.3867 59.0234 46.3867 59.082Z" fill="#F7FBFC"></path>
    <path d="M60.8594 54.043C61.1719 54.2578 61.5039 54.4531 61.875 54.6875C61.6016 54.7461 61.3672 54.8047 61.1523 54.8437C61.1133 54.8437 61.0156 54.7852 60.9961 54.7461C60.918 54.5312 60.8398 54.3164 60.7812 54.082C60.8008 54.082 60.8203 54.0625 60.8594 54.043Z" fill="#F7FBFC"></path>
    <path d="M57.2266 31.1523C57.0898 30.332 56.6602 29.6875 55.8789 29.3359C55.5273 29.1797 55.1563 29.0625 54.7656 29.3164C54.2383 29.6484 54.1211 30.1953 54.0234 30.7227C54.0625 31.4844 54.2773 32.1289 54.9414 32.5781C55.2734 32.8125 55.6445 32.9102 56.0156 32.832C56.7383 32.7148 57.3828 32.0117 57.2266 31.1523ZM56.5234 32.0312C55.8594 32.5 55.332 32.5 54.7656 31.7969C54.5508 31.5234 54.3945 30.8789 54.4141 30.5273C54.4336 30.1562 54.6094 29.8437 54.8828 29.6094C55.0781 29.4336 55.3125 29.4336 55.5664 29.5508C55.9375 29.7266 56.1914 30.0391 56.3867 30.3711C56.5234 30.5859 56.6211 30.8203 56.7383 31.0547C56.8555 31.25 56.7188 31.9141 56.5234 32.0312Z" fill="#1D2426"></path>
    <path d="M54.4141 30.5273C54.4336 30.1562 54.6094 29.8437 54.8828 29.6094C55.0781 29.4336 55.332 29.4336 55.5664 29.5508C55.9375 29.7266 56.1914 30.0391 56.3867 30.3711C56.5234 30.5859 56.6211 30.8203 56.7383 31.0547C56.8359 31.25 56.6992 31.8945 56.5234 32.0312C55.8594 32.5 55.332 32.5 54.7656 31.7969C54.5703 31.5234 54.4141 30.8984 54.4141 30.5273Z" fill="#DEB6F2"></path>
</svg>