<svg viewBox="0 0 100 100" fill="none" xmlns="http://www.w3.org/2000/svg" class="size-full">
    <path d="M90.7812 75.2344C90.0195 74.8047 89.2578 74.3945 88.5156 73.9453C87.6758 73.4375 86.875 72.9102 86.0547 72.3633C85.3125 71.875 84.5703 71.3477 83.8281 70.8398C82.832 70.1367 81.875 69.4141 80.8789 68.75C79.8633 68.0664 78.7891 67.4609 77.7539 66.8164C76.5039 66.0156 75.2539 65.1953 74.0039 64.375C73.3398 63.9453 72.6758 63.4961 71.9922 63.0469C71.8164 62.9297 71.6602 62.8125 71.6797 62.5586C71.6797 62.5 71.6406 62.4219 71.582 62.3437C71.1914 61.7578 70.6055 61.5234 69.9219 61.5039C69.7461 61.5039 69.5312 61.4844 69.375 61.4062C67.9883 60.7227 66.6016 60.0195 65.2148 59.3359C64.6875 59.0625 64.1211 58.8672 63.6328 58.5156C62.6562 57.8125 61.6797 57.1289 60.6445 56.5039C60.0977 56.1719 59.5898 55.8008 59.043 55.4883C58.2812 55.0391 57.5 54.6094 56.7188 54.1992C56.1914 53.9062 55.6445 53.6328 55.0781 53.3984C54.5898 53.1836 54.082 53.0273 53.5938 52.832C53.3789 52.7539 53.1641 52.6562 52.9492 52.6172C52.5977 52.5781 52.2461 52.5781 51.8945 52.5586C51.8164 52.5586 51.7188 52.5391 51.6602 52.5C51.1719 52.1875 50.6445 51.9922 50.0391 51.9922C50.0391 51.7383 50.0391 51.4844 50.0391 51.2305C50.0195 50.2734 49.9805 49.3164 49.9805 48.3594C49.9805 47.5391 50 46.7187 50.0195 45.8984C50.0586 44.8633 50.1367 43.8477 50.1953 42.8125C50.2539 41.8945 50.332 40.9766 50.3516 40.0586C50.3711 39.3359 50.332 38.6133 50.332 37.8906C50.3125 36.9531 50.3125 36.0352 50.3125 35.1172C50.3125 33.9844 50.3125 32.8711 50.332 31.7578C50.3516 30.1367 50.3711 28.5156 50.3711 26.8945C50.3711 25.8984 50.3125 24.8828 50.293 23.8867C50.293 23.4961 50.3125 23.0859 50.3125 22.6953C50.3125 21.9336 50.293 21.1914 50.2734 20.4297C50.2734 19.1992 50.2734 17.9492 50.2539 16.7187C50.2539 15.3711 50.2148 14.0234 50.2148 12.6758C50.2148 12.2461 50.1953 11.8359 50.1953 11.4063C50.1953 11.3086 50.1563 11.2305 50.1367 11.1328C50.0977 11.1328 50.0781 11.1328 50.0391 11.1328C50.0195 11.2305 50 11.3281 50 11.4258C50 12.3437 50 13.2617 50 14.1797C49.9805 15.6055 49.9219 17.0117 49.9023 18.4375C49.8828 20.0391 49.9219 21.6406 49.9219 23.2617C49.9219 24.082 49.8633 24.9023 49.8633 25.7227C49.8438 26.543 49.8438 27.3633 49.8242 28.1641C49.8047 29.3164 49.7461 30.4883 49.7266 31.6406C49.707 32.7344 49.707 33.8281 49.707 34.9414C49.707 35.1953 49.7266 35.4297 49.7266 35.6836C49.7266 36.1914 49.6875 36.7188 49.6875 37.2266C49.707 38.0273 49.7266 38.8281 49.7656 39.6289C49.7656 39.7852 49.8047 39.9414 49.8047 40.0781C49.7656 40.8594 49.6875 41.6406 49.668 42.4023C49.6484 43.0859 49.6484 43.7695 49.6484 44.4336C49.6484 45.1172 49.668 45.8203 49.6484 46.5039C49.6484 47.4414 49.6094 48.3789 49.6094 49.2969C49.6094 50.0977 49.668 50.8984 49.707 51.6602C49.6094 51.6992 49.4922 51.7187 49.3945 51.7773C48.9453 52.0117 48.5156 52.2852 48.0664 52.5195C47.4414 52.832 46.7969 53.1055 46.3086 53.6328C46.2305 53.7305 46.0352 53.7695 45.918 53.75C45.7227 53.7109 45.5273 53.6133 45.332 53.5156C45.2539 53.4766 45.1758 53.3594 45.1562 53.2617C45.0977 52.9492 45.0781 52.6367 45.0391 52.3437C44.9023 51.4648 44.668 50.6055 44.3164 49.7852C44.082 49.2578 43.7891 48.8672 43.2031 48.6914C42.168 48.3398 41.25 48.5156 40.4297 49.1797C40.0586 49.4922 39.7852 49.9219 39.4727 50.293C39.3945 50.3906 39.3164 50.5469 39.3164 50.6641C39.2773 51.1133 39.2187 51.582 39.2383 52.0312C39.2773 52.4805 39.4141 52.9102 39.4922 53.3594C39.5898 53.7891 39.6484 54.2188 39.7656 54.6289C39.8242 54.8633 39.8047 54.9805 39.5703 55.0586C39.2773 55.1562 39.1406 55.3516 39.1211 55.6641C39.1016 55.9961 39.2578 56.1719 39.5312 56.2891C39.6289 56.3281 39.7461 56.3672 39.8242 56.4453C39.9219 56.5234 40.0195 56.6211 40.0586 56.7383C40.1953 57.2266 40.0977 57.3828 39.6289 57.5781C39.5703 57.5977 39.5117 57.6367 39.4531 57.6562C38.8867 57.9688 38.3398 58.2617 37.7734 58.5742C37.6953 58.6133 37.5781 58.6523 37.5 58.6133C37.1875 58.4961 36.875 58.3398 36.5625 58.1836C36.4844 58.1445 36.3867 58.0273 36.3672 57.9297C36.3086 57.6172 36.2891 57.3047 36.25 57.0117C36.1133 56.1328 35.8789 55.2734 35.5273 54.4531C35.293 53.9258 35 53.5352 34.4141 53.3594C33.3984 53.0273 32.4609 53.1836 31.6406 53.8477C31.2695 54.1406 30.9961 54.5703 30.7031 54.9414C30.6055 55.0586 30.5273 55.2148 30.5078 55.3711C30.4688 55.8203 30.4102 56.2695 30.4492 56.7187C30.4883 57.168 30.625 57.5977 30.7031 58.0469C30.7812 58.4766 30.8594 58.9062 30.9766 59.3164C31.0352 59.5508 31.0156 59.668 30.7813 59.7266C30.7422 59.7266 30.7227 59.7656 30.7031 59.7656C30.3711 59.9023 30.3516 60.1758 30.3516 60.4883C30.3516 60.7422 30.5078 60.8594 30.7031 60.9375C31.2109 61.1133 31.3867 61.4648 31.3086 61.9726C31.2891 62.0508 31.3086 62.1289 31.3086 62.207C31.3281 62.3828 31.2305 62.4609 31.0938 62.5391C30.7031 62.7344 30.2734 62.8906 29.9023 63.1445C29.4922 63.4375 29.1406 63.418 28.75 63.1641C28.7305 63.1445 28.7109 63.1445 28.6914 63.125C28.6133 63.0273 28.5156 62.9492 28.4961 62.832C28.418 62.4023 28.3594 61.9531 28.3008 61.5234C28.1836 60.7617 27.9297 60.0586 27.6367 59.3555C27.4219 58.8281 27.1289 58.4766 26.5625 58.2812C25.5273 57.9297 24.5898 58.0859 23.7695 58.7695C23.3984 59.0625 23.125 59.4922 22.832 59.8633C22.7148 60.0195 22.6367 60.2344 22.5977 60.4492C22.5586 60.8398 22.5 61.25 22.5586 61.6406C22.6953 62.4609 22.8711 63.2812 23.0469 64.082C23.1445 64.5117 23.1641 64.5117 22.793 64.707C22.5 64.8633 22.4805 65.1367 22.4805 65.4297C22.4805 65.6641 22.6367 65.7617 22.793 65.8398C22.9297 65.918 23.0664 65.9766 23.2031 66.0547C23.4375 66.1914 23.5156 66.7773 23.3203 66.9336C23.1641 67.0508 22.9883 67.168 22.8125 67.2656C22.3242 67.5391 21.8164 67.8125 21.3086 68.0859C20.3906 68.5937 19.4727 69.1211 18.5547 69.6289C17.7734 70.0586 16.9922 70.4687 16.2305 70.918C15.6641 71.25 15.1367 71.6406 14.5703 71.9726C13.7305 72.4805 12.8906 72.9492 12.0508 73.4375C11.5234 73.75 10.9961 74.0625 10.4492 74.375C9.57031 74.8633 8.69141 75.3516 7.8125 75.8398C7.46094 76.0351 7.08984 76.2305 6.73828 76.4453C6.97266 76.4062 7.20703 76.3476 7.42188 76.2305C7.94922 75.957 8.47656 75.6836 9.00391 75.3906C9.64844 75.0195 10.293 74.6484 10.918 74.2578C11.4063 73.9453 11.8945 73.6719 12.4609 73.5156C12.9688 73.3594 13.457 73.1641 13.9258 72.9492C14.3164 72.7539 14.6875 72.5 15.0781 72.2852C16.0547 71.7187 17.0508 71.1523 18.0273 70.5859C18.7695 70.1562 19.4727 69.707 20.2148 69.2969C21.1914 68.75 22.1875 68.2031 23.1836 67.6758C23.2227 67.6562 23.3008 67.6367 23.3398 67.6367C23.4375 68.0859 23.1836 68.6523 23.8281 68.9648C23.75 69.0625 23.6328 69.1016 23.5547 69.1797C23.2617 69.4727 23.2227 69.9609 23.4375 70.3125C23.7109 70.7422 24.1406 71.0156 24.5703 71.25C25.2344 71.6016 25.8984 71.9531 26.582 72.2852C26.6211 72.3047 26.6602 72.3438 26.7188 72.3828C26.6211 72.4219 26.543 72.4219 26.4453 72.4023C26.1328 72.3828 25.8398 72.3437 25.5469 72.3437C25.4688 72.3437 25.3516 72.4219 25.3125 72.5C25.2344 72.6562 25.3125 72.7734 25.4687 72.8125C25.7227 72.8516 25.9766 72.8711 26.2305 72.8906C26.3086 72.8906 26.4062 72.8906 26.5234 72.8906C26.1719 73.3203 25.8398 73.7109 25.5273 74.1016C25.4102 74.2383 25.3125 74.3945 25.2344 74.5508C25.1953 74.6289 25.2148 74.7461 25.2148 74.8437C25.3125 74.8242 25.4492 74.8437 25.5078 74.7656C25.7617 74.5117 25.9961 74.2188 26.2305 73.9453C26.4453 73.7109 26.6406 73.457 26.8945 73.1641C26.9922 73.3398 27.0508 73.457 27.1289 73.5742C27.3633 73.9648 27.5977 74.3555 27.8711 74.7266C27.9102 74.7852 28.0469 74.7852 28.1445 74.8242C28.1445 74.7266 28.2031 74.6289 28.1641 74.5508C27.9102 74.082 27.6562 73.6328 27.3828 73.1836C27.3828 73.1641 27.3828 73.1445 27.3828 73.1055C27.5977 73.2031 27.793 73.3008 28.0078 73.3789C28.2812 73.4766 28.5742 73.5156 28.8281 73.6328C29.6094 73.9844 30.3906 74.3555 31.1523 74.7266C31.25 74.7656 31.3477 74.9219 31.3477 75.0391C31.3672 75.5469 31.3672 76.0547 31.3672 76.543C31.3672 76.7383 31.3672 76.9336 31.3477 77.1289C31.3281 77.4805 31.25 77.832 31.2891 78.1641C31.3281 78.7695 31.2891 79.375 31.2109 79.9805C31.1719 80.332 31.2109 80.6836 31.2305 81.0351C31.2305 81.2891 31.25 81.543 31.2695 81.8164C31.1719 81.7773 31.1133 81.7578 31.0742 81.7187C30.0391 81.2109 29.0039 80.7031 27.9688 80.1953C27.6367 80.0195 27.3242 80.1758 27.0312 80.293C26.9727 80.3125 26.9141 80.4492 26.9141 80.5273C26.8945 80.9375 27.0703 81.25 27.4023 81.4648C28.0273 81.875 28.6523 82.2656 29.2773 82.6562C29.4531 82.7734 29.6289 82.8906 29.8242 82.9883C30.3906 83.3203 30.957 83.6328 31.543 83.9453C32.2461 84.3359 32.9492 84.7461 33.6523 85.1172C34.1211 85.3711 34.6094 85.5859 35.1172 85.8008C35.293 85.8789 35.4883 85.9766 35.6641 85.9375C35.9375 85.8984 36.1914 85.7617 36.4453 85.6445C36.4844 85.625 36.5039 85.5859 36.5234 85.5273C36.6406 85.1172 36.543 84.8242 36.1719 84.6094C35.8008 84.3945 35.4297 84.1992 35.0586 83.9844C34.2188 83.5156 33.3984 83.0664 32.5586 82.6172C32.3242 82.5 32.2852 82.3437 32.3242 82.1094C32.3633 81.6016 32.4023 81.0938 32.4219 80.5664C32.4414 80.1562 32.4023 79.7461 32.4219 79.3359C32.4414 78.3789 32.4609 77.4414 32.3438 76.4844C32.3047 76.0937 32.3438 75.7031 32.3438 75.2539C32.8125 75.4687 33.2812 75.625 33.6914 75.8594C34.4141 76.2695 35.1367 76.6406 35.918 76.9531C36.2305 77.0703 36.5039 77.3047 36.8164 77.4414C37.207 77.6172 37.5977 77.7734 37.9883 77.9492C38.125 78.0078 38.2422 78.1055 38.3789 78.1641C38.9648 78.457 39.6484 78.4766 40.2734 78.6133C40.3711 78.6328 40.5078 78.6133 40.6055 78.5742C40.8594 78.457 41.1328 78.3398 41.3672 78.1836C42.0312 77.7734 42.6758 77.3437 43.3398 76.9336C44.2578 76.3867 45.1953 75.8398 46.1133 75.3125C46.6797 74.9805 47.2656 74.668 47.8516 74.3359C47.8906 74.3164 47.9297 74.2969 47.9883 74.2773C47.8125 75.2344 47.6367 76.1523 47.4609 77.0898C47.4414 77.207 47.3828 77.2461 47.2656 77.207C46.875 77.0703 46.4648 76.9531 46.0742 76.7773C45.5859 76.5625 45.1172 76.582 44.6484 76.7969C44.2969 76.9531 44.2578 77.2461 44.5898 77.4414C44.8047 77.5781 45.0391 77.6758 45.2734 77.7734C45.4688 77.8516 45.6836 77.9101 45.9375 77.9883C45.7617 78.1055 45.625 78.1836 45.5078 78.2617C45.293 78.418 45.0781 78.5547 44.8828 78.7109C44.5117 79.043 44.6094 79.7852 45.0586 80.0195C45.7812 80.3906 46.5039 80.7812 47.2461 81.1133C47.6758 81.3086 48.1445 81.4844 48.6133 81.582C48.9844 81.6601 49.0039 81.6601 48.9844 82.0312C48.9648 82.4414 48.9648 82.8711 49.0039 83.2812C49.0625 84.082 49.1602 84.8633 49.2383 85.6641C49.2188 85.6836 49.1797 85.7031 49.1602 85.7226C48.8086 85.6055 48.457 85.4687 48.125 85.3516C47.9883 85.3125 47.793 85.1758 47.7148 85.3711C47.6562 85.5664 47.8906 85.5859 48.0273 85.6445C48.3203 85.7812 48.6328 85.918 48.9258 86.0351C48.9258 86.0742 48.9453 86.0938 48.9453 86.1328C48.3789 86.4648 47.793 86.8164 47.2266 87.1484C47.1094 87.2266 46.9727 87.2656 46.875 87.3633C46.8164 87.4219 46.7578 87.5586 46.7773 87.6172C46.7969 87.6953 46.9141 87.7539 47.0117 87.7734C47.0898 87.793 47.207 87.7734 47.2852 87.7344C47.6953 87.5195 48.1055 87.2852 48.4961 87.0508C48.7305 86.9141 48.9453 86.7383 49.1992 86.5625C49.1797 87.0312 49.1406 87.4805 49.1406 87.9101C49.1406 88.1445 49.1797 88.3984 49.2383 88.6133C49.2773 88.7695 49.4141 88.7695 49.4727 88.6133C49.5508 88.418 49.6094 88.1836 49.6289 87.9687C49.668 87.5391 49.668 87.0898 49.6875 86.6602C49.707 86.6602 49.7266 86.6406 49.7656 86.6406C49.8438 86.7187 49.9219 86.7969 50.0195 86.875C50.5273 87.2461 51.0352 87.6367 51.543 87.9883C51.6211 88.0469 51.7773 88.0078 51.9141 88.0078C51.875 87.8906 51.8555 87.7539 51.8164 87.6367C51.7969 87.5977 51.7383 87.5586 51.6797 87.5391C51.4063 87.3438 51.1328 87.168 50.8594 86.9531C50.5273 86.6992 50.2344 86.4062 49.8633 86.0937C50.0391 86.0351 50.1562 86.0156 50.2539 85.9766C50.5078 85.8984 50.7617 85.8398 50.9961 85.7422C51.0742 85.7226 51.0938 85.5859 51.1523 85.5078C51.0742 85.4687 50.9961 85.3906 50.918 85.3906C50.8398 85.3711 50.7422 85.4102 50.6445 85.4492C50.332 85.5273 50.0391 85.6055 49.6875 85.6836C49.668 85.4883 49.6484 85.332 49.6484 85.1758C49.6484 84.707 49.668 84.2578 49.668 83.7891C49.668 83.1445 49.6484 82.5 49.6289 81.8555C49.6289 81.6016 49.7266 81.4648 49.9609 81.4062C50.293 81.3086 50.625 81.2109 50.9375 81.0742C51.2695 80.918 51.6016 80.7227 51.9336 80.5469C52.0703 80.4687 52.1875 80.3516 52.3242 80.293C53.125 79.9805 53.4961 79.375 53.3789 78.6523C53.3203 78.2812 53.3203 77.9102 53.3594 77.5391C53.3984 76.8164 53.4961 76.0742 53.5352 75.3516C53.5742 74.4922 53.5742 73.6328 53.5938 72.7734C53.6133 72.3047 53.3789 72.0117 53.0273 71.7578C52.8906 71.6601 52.7344 71.582 52.5781 71.5039C52.5195 71.4844 52.4805 71.4453 52.3828 71.4062C52.4414 71.3672 52.4805 71.3281 52.5195 71.3086C53.0078 70.957 53.4766 70.6055 54.043 70.3711C54.3945 70.2344 54.7266 69.9805 55.0586 69.7851C55.8203 69.3359 56.582 68.8867 57.3438 68.4375C57.4219 68.3984 57.5195 68.3594 57.5977 68.3203C57.4609 68.8281 57.2852 69.2773 57.1875 69.7656C57.0117 70.5469 56.875 71.3477 56.7383 72.1484C56.7188 72.2656 56.6797 72.3242 56.543 72.2852C56.1523 72.1484 55.7422 72.0312 55.3516 71.8555C54.8633 71.6406 54.3945 71.6602 53.9258 71.875C53.5742 72.0312 53.5352 72.3242 53.8672 72.5195C54.082 72.6562 54.3164 72.7539 54.5508 72.8516C54.7461 72.9297 54.9609 72.9883 55.2148 73.0664C55.0391 73.1836 54.9023 73.2617 54.7852 73.3398C54.5703 73.4961 54.3555 73.6328 54.1602 73.8086C53.7891 74.1406 53.8867 74.8828 54.3359 75.1172C55.0586 75.4883 55.7812 75.8789 56.5234 76.2305C57.0117 76.4648 57.5 76.7187 58.0664 76.7187C58.125 76.7187 58.2227 76.8164 58.2422 76.8945C58.2813 76.9727 58.2422 77.0703 58.2422 77.168C58.2617 77.6172 58.2617 78.0664 58.2812 78.5156C58.3398 79.2773 58.418 80.0391 58.4766 80.8008C58.457 80.8203 58.418 80.8398 58.3984 80.8594C58.0469 80.7422 57.7148 80.6055 57.3633 80.4883C57.2266 80.4492 57.0312 80.3125 56.9531 80.5078C56.875 80.7031 57.1094 80.7227 57.2461 80.7812C57.5391 80.918 57.8516 81.0547 58.1836 81.1914C57.8711 81.4062 57.6172 81.6211 57.3438 81.7969C57.0508 81.9726 56.7383 82.1289 56.4453 82.2851C56.3281 82.3437 56.1914 82.4023 56.0742 82.5C56.0156 82.5586 55.957 82.6953 55.9961 82.7539C56.0156 82.832 56.1328 82.8906 56.2305 82.9101C56.3086 82.9297 56.4258 82.9101 56.5039 82.8711C56.9141 82.6562 57.3242 82.4219 57.7148 82.1875C57.9492 82.0508 58.1641 81.875 58.418 81.6992C58.3984 82.168 58.3594 82.6172 58.3594 83.0469C58.3594 83.2812 58.418 83.5156 58.457 83.7305C58.457 83.7695 58.5352 83.8672 58.5742 83.8476C58.6328 83.8476 58.7109 83.7891 58.7305 83.7305C58.7891 83.5156 58.8672 83.3008 58.8867 83.0859C58.9258 82.6562 58.9258 82.2266 58.9453 81.7969C58.9648 81.7969 58.9844 81.7773 59.0234 81.7773C59.1016 81.8359 59.1602 81.8945 59.2383 81.9531C59.7461 82.3437 60.2539 82.7344 60.7617 83.1055C60.8984 83.2031 61.0742 83.2812 61.1719 83.1055C61.2109 83.0273 61.0742 82.8516 61.0156 82.7148C60.9961 82.6758 60.957 82.6758 60.918 82.6367C60.6445 82.4414 60.3711 82.2852 60.1172 82.0703C59.7852 81.8164 59.4922 81.5234 59.1211 81.2109C59.2969 81.1523 59.4141 81.1328 59.5117 81.0938C59.7656 81.0156 60.0195 80.9375 60.2539 80.8398C60.332 80.8203 60.3516 80.6836 60.4102 80.6055C60.332 80.5664 60.2539 80.4883 60.1758 80.4883C60.0977 80.4688 60 80.5273 59.9023 80.5469C59.5898 80.625 59.2969 80.7031 58.9453 80.7812C58.9258 80.5859 58.9062 80.4297 58.9062 80.2734C58.9062 79.8047 58.9453 79.3555 58.9258 78.9062C58.9258 78.2617 58.9062 77.6367 58.8867 76.9922C58.8867 76.6797 58.9258 76.6016 59.2383 76.5039C59.5508 76.4062 59.8828 76.3086 60.1953 76.1719C60.5273 76.0156 60.8594 75.8398 61.1914 75.6445C61.3281 75.5664 61.4453 75.4492 61.582 75.3906C62.3828 75.0781 62.7539 74.4727 62.6367 73.75C62.5781 73.3789 62.5781 73.0078 62.5977 72.6367C62.6367 71.8945 62.7148 71.1719 62.7734 70.4297C62.793 70.2734 62.7734 70.1172 62.7734 69.9414C63.0469 70.0781 63.2617 70.1758 63.4766 70.2734C64.2578 70.6641 65.0391 71.0742 65.8398 71.4453C66.0547 71.543 66.3086 71.6016 66.5625 71.6211C66.9141 71.6602 66.9336 71.6992 66.9141 72.0703C66.8945 72.4805 66.875 72.9101 66.9336 73.3008C67.0313 73.9453 67.0898 74.5898 67.1094 75.2539C67.1094 75.4101 67.1094 75.5664 67.1094 75.7812C66.7188 75.6445 66.3672 75.5078 66.0156 75.3906C65.8789 75.3516 65.7031 75.2344 65.6445 75.4101C65.5664 75.6055 65.7812 75.625 65.918 75.6836C66.2305 75.8203 66.543 75.957 66.9141 76.1133C66.3086 76.5234 65.8008 76.9531 65.1758 77.207C65.0586 77.2656 64.9219 77.3047 64.8242 77.4023C64.7656 77.4609 64.6875 77.6172 64.707 77.6758C64.7461 77.7539 64.8828 77.8125 64.9805 77.8516C65.0391 77.8711 65.1367 77.8516 65.2148 77.8125C65.625 77.5977 66.0352 77.3633 66.4258 77.1289C66.6602 76.9922 66.875 76.8164 67.1289 76.6406C67.1094 77.1094 67.0703 77.5391 67.0703 77.9883C67.0703 78.2226 67.1094 78.457 67.168 78.6914C67.207 78.8477 67.3438 78.8672 67.4023 78.7109C67.4805 78.5156 67.5391 78.2812 67.5586 78.0664C67.5977 77.6172 67.5977 77.1875 67.6172 76.7383C67.7539 76.7773 67.8125 76.8359 67.8906 76.8945C68.3984 77.2852 68.9062 77.6758 69.4336 78.0469C69.5508 78.1445 69.7461 78.2422 69.8438 78.0664C69.9414 77.9102 69.8242 77.7539 69.6875 77.6562C69.668 77.6367 69.6289 77.6172 69.6094 77.5976C69.2383 77.3242 68.8477 77.0508 68.4766 76.7578C68.2617 76.582 68.0859 76.3476 67.8906 76.1328C68.2422 76.0156 68.5742 75.918 68.9062 75.8008C69.0234 75.7617 69.1602 75.6836 69.1016 75.5469C69.0625 75.4687 68.9062 75.4492 68.8086 75.4297C68.75 75.4102 68.6719 75.4492 68.6133 75.4687C68.3203 75.5469 68.0078 75.625 67.6562 75.7031C67.6367 75.5078 67.6172 75.3711 67.6172 75.2148C67.6172 74.7461 67.6562 74.2773 67.6367 73.8086C67.6367 73.1836 67.6172 72.5391 67.5977 71.9141C67.5977 71.5625 67.6367 71.5039 67.9688 71.3867C68.2812 71.2891 68.5938 71.2109 68.8867 71.0742C69.2383 70.918 69.5703 70.7227 69.9023 70.5469C70.0391 70.4687 70.1367 70.3711 70.2734 70.3125C71.1914 69.9414 71.4258 69.375 71.3477 68.6719C71.2891 68.2031 71.3281 67.7148 71.3477 67.2266C71.3867 66.3086 71.4453 65.3906 71.5039 64.4727C71.5234 64.082 71.5625 63.7109 71.582 63.2812C71.8359 63.457 72.0508 63.5937 72.2656 63.7305C73.5547 64.5703 74.8633 65.4102 76.1523 66.2305C76.6992 66.582 77.2461 66.9531 77.793 67.2851C78.8477 67.9492 79.9023 68.5937 80.957 69.2773C81.6211 69.707 82.2656 70.1953 82.9297 70.6641C83.8086 71.2891 84.6875 71.9141 85.6055 72.5195C86.6016 73.1836 87.6172 73.8086 88.6523 74.4336C89.3945 74.8828 90.1367 75.3125 90.8789 75.7617C90.957 75.8008 91.0742 75.8398 91.1719 75.8203C91.3086 75.8008 91.4258 75.7227 91.5234 75.6641C91.4062 75.5859 91.0938 75.4297 90.7812 75.2344ZM47.3047 79.7266C47.3047 79.8438 47.2852 79.9609 47.2852 80.1172C47.2461 80.1172 47.207 80.1172 47.1875 80.1172C46.5039 79.9023 45.8203 79.668 45.2539 79.2383C45.1953 79.1797 45.1367 79.0234 45.1758 78.9453C45.293 78.6719 46.0938 78.2812 46.4062 78.3594C46.6992 78.4375 46.9727 78.5742 47.2461 78.6914C47.2656 78.6914 47.2852 78.7305 47.3242 78.75C47.3438 78.7695 47.3633 78.8086 47.3633 78.8281C47.3633 78.9062 47.3633 78.9844 47.3633 79.043C47.3242 79.2773 47.3242 79.4922 47.3047 79.7266ZM56.6797 75.293C56.5039 75.2539 56.4062 75.2344 56.3281 75.1953C55.7422 74.9609 55.1172 74.7851 54.6094 74.3945C54.4141 74.2578 54.3945 74.1211 54.5898 73.9844C54.8047 73.8281 55.0195 73.6719 55.2539 73.5547C55.4883 73.418 55.7422 73.457 55.9766 73.5547C56.1719 73.6328 56.3672 73.6914 56.5234 73.7891C56.6016 73.8281 56.6797 73.9648 56.6797 74.0625C56.6797 74.4531 56.6797 74.8437 56.6797 75.293ZM68.0469 61.1328C68.3398 61.2695 68.6133 61.4062 68.9062 61.543C68.9062 61.5625 68.9062 61.582 68.9062 61.6016C68.6914 61.6602 68.4766 61.7383 68.2227 61.8164C68.1445 61.582 68.0664 61.3867 68.0078 61.1719C68.0078 61.1719 68.0273 61.1523 68.0469 61.1328ZM49.7852 51.9727C49.8047 52.207 49.8047 52.3828 49.8242 52.5977C49.9023 52.5391 49.9609 52.5 49.9805 52.5C50.3125 52.6172 50.625 52.7344 50.9961 52.8516C50.8203 52.9492 50.6641 53.0078 50.5469 53.0859C49.7852 53.5547 49.043 54.0234 48.2812 54.4922C48.125 54.5898 47.9883 54.6289 47.8125 54.5508C47.4023 54.3945 46.9922 54.2383 46.582 54.043C47.5586 53.2617 48.7305 52.7539 49.7852 51.9727ZM45.1953 55.7031C45.1953 55.6836 45.1953 55.6836 45.1953 55.6641C45.1953 55.625 45.1953 55.5859 45.1953 55.5664C45.1953 54.9805 45.1953 54.9805 45.7422 55.0977C45.8398 55.1172 45.957 55.1562 46.0352 55.2148C46.0547 55.2148 46.0547 55.2344 46.0742 55.2344C46.0938 55.2539 46.0938 55.2734 46.1133 55.2734C46.1133 55.293 46.1133 55.3125 46.1328 55.332C46.1328 55.3711 46.1328 55.4297 46.1328 55.4687C46.1328 55.4883 46.1328 55.5273 46.1133 55.5469C46.0938 55.6445 46.0156 55.7422 45.918 55.8008C45.7812 55.8984 45.625 55.957 45.4883 56.0352C45.3906 56.0742 45.332 56.0742 45.293 56.0352C45.2734 56.0156 45.2539 55.9766 45.2344 55.9375C45.2344 55.918 45.2148 55.8789 45.2148 55.8398C45.1953 55.8203 45.1953 55.7617 45.1953 55.7031ZM40.0586 52.168C40.0195 51.8555 40 51.543 39.9805 51.2305C39.9805 51.1328 39.9805 51.0547 39.9805 50.9766C40 50.7812 40.0391 50.6055 40.0977 50.4297C40.1367 50.332 40.1758 50.2344 40.2344 50.1367C40.293 50.0391 40.3711 49.9414 40.4492 49.8437C40.4883 49.8047 40.5078 49.7656 40.5469 49.7461C40.625 49.6875 40.6836 49.6094 40.7617 49.5703C40.8203 49.5312 40.8984 49.4727 40.9766 49.4336C41.0352 49.3945 41.0938 49.3555 41.1719 49.3359C41.7578 49.082 42.3438 48.9844 42.9688 49.1016C43.3594 49.1797 43.6719 49.3555 43.9062 49.6484C43.9453 49.707 44.0039 49.7656 44.043 49.8242C44.1211 49.9414 44.1797 50.0976 44.2383 50.2539C44.5898 51.25 44.7461 52.2852 44.7461 53.3203V54.2383H44.7852C44.7852 54.6484 44.7852 55.0586 44.7852 55.4687C44.7852 55.6055 44.7852 55.7422 44.7852 55.8789C44.7852 55.918 44.7656 55.9766 44.7266 56.0156C44.6875 56.0547 44.6484 56.1133 44.6094 56.1328C44.3555 56.25 44.082 56.3477 43.7891 56.4453C43.7109 56.4648 43.6133 56.4648 43.5547 56.4258C42.6172 55.8984 41.6016 55.4883 40.5859 55.0977C40.5664 55.0781 40.5469 55.0586 40.5078 55.0391L40.4883 55.0195C40.4883 55.0195 40.4883 55 40.4688 55C40.4688 54.9805 40.4492 54.9805 40.4492 54.9609C40.332 54.043 40.1562 53.1055 40.0586 52.168ZM44.5508 56.5234C44.375 56.582 44.2578 56.7773 44.0039 56.6602C44.1797 56.6016 44.3555 56.5234 44.5117 56.4648C44.5508 56.4844 44.5508 56.5039 44.5508 56.5234ZM41.6211 58.1445C41.7969 57.9883 41.9727 57.8125 42.168 57.6562C42.207 57.6367 42.2852 57.6758 42.3438 57.6953C42.3438 57.7148 42.3438 57.7539 42.3438 57.7734C42.1289 57.9297 41.8945 58.0664 41.6797 58.2227C41.6602 58.2031 41.6406 58.1641 41.6211 58.1445ZM41.1523 58.0273C41.0352 58.125 40.8789 58.0273 40.8594 57.8125C40.8594 57.7734 40.8398 57.7344 40.8398 57.6953C40.8398 57.6172 40.8203 57.5391 40.8203 57.4805C40.8008 57.2852 40.7812 57.0898 40.7422 56.875C41.1328 57.0703 41.4648 57.2266 41.8555 57.4219C41.6016 57.6562 41.3867 57.8516 41.1523 58.0273ZM40.0586 57.9687C40.0977 58.3398 40.1367 58.6719 40.1562 59.0039C40.1562 59.0234 40.1562 59.043 40.1562 59.0625C40.0586 59.2383 39.4727 59.4336 39.2773 59.3555C38.9648 59.2187 38.6719 59.1016 38.3008 58.9453C38.9063 58.5937 39.4727 58.2812 40.0586 57.9687ZM37.8906 60.1562C37.9492 60.1758 38.0273 60.1953 38.0859 60.2344C38.0469 60.3125 38.0273 60.3906 37.9883 60.4688C37.9492 60.4688 37.9102 60.4492 37.8906 60.4492V60.1562ZM37.1289 59.8242C37.2852 59.8633 37.3438 59.9219 37.3242 60.1562C37.2656 60.332 37.1875 60.5859 37.0898 60.8398C37.0703 60.8789 37.0117 60.918 36.9727 60.9375C36.7188 60.9766 36.4062 60.7227 36.4258 60.4492C36.4453 60.0586 36.7969 59.7656 37.1289 59.8242ZM36.6016 61.1719C36.6797 61.1914 36.7773 61.1719 36.8555 61.1328C36.9336 61.1133 37.0117 61.0547 37.1289 61.0547C36.582 61.3867 36.0156 61.7187 35.4688 62.0703C35.4883 61.9336 35.5664 61.7969 35.5273 61.6797C35.4883 61.5625 35.3711 61.4648 35.2734 61.3477C35.7031 61.1133 36.1328 61.0352 36.6016 61.1719ZM31.2109 56.1914C31.1914 55.957 31.1914 55.7227 31.25 55.5273C31.2695 55.4492 31.2695 55.3906 31.2891 55.3125C31.2891 55.2734 31.3086 55.2539 31.3281 55.2148C31.3867 55.0586 31.4453 54.9023 31.543 54.7656C31.582 54.707 31.6211 54.6484 31.6602 54.6094C31.6797 54.5898 31.6992 54.5508 31.7187 54.5312C31.7383 54.5117 31.7578 54.4922 31.7773 54.4531C31.8555 54.375 31.9531 54.2969 32.0312 54.2188C32.0703 54.1992 32.0898 54.1797 32.1289 54.1602C32.4609 53.9453 32.8711 53.8086 33.3398 53.7695C33.7305 53.7305 34.1211 53.75 34.5117 53.8867C34.7266 53.9648 34.8828 54.082 35.0195 54.2188C35.1953 54.3945 35.3125 54.6094 35.4102 54.8633C35.4883 55.0586 35.5469 55.2539 35.6055 55.4492C35.8398 56.2891 35.9375 57.1484 35.957 58.0273C35.957 58.457 35.957 58.8867 35.9766 59.2969C35.9766 59.6094 35.9961 59.9414 35.9961 60.2539C35.9961 60.3516 35.9961 60.4688 35.9961 60.5664C35.9961 60.6055 35.9766 60.6641 35.9375 60.7031C35.8984 60.7422 35.8594 60.7812 35.8203 60.8008C35.5469 60.918 35.2734 61.0547 34.9805 61.0937C34.7852 61.1133 34.5703 60.9766 34.3164 60.8984C34.4336 60.8008 34.4922 60.7422 34.5508 60.6836C34.5508 60.6836 34.5508 60.6836 34.5703 60.6641C34.5703 60.6641 34.5508 60.6641 34.5508 60.6836C34.2383 60.8789 34.0039 60.6836 33.7305 60.5469C33.1055 60.2734 32.4609 60.0195 31.8359 59.7461C31.7969 59.7266 31.7578 59.707 31.7187 59.668L31.6992 59.6484C31.6797 59.6289 31.6602 59.5898 31.6602 59.5703C31.582 59.0039 31.4844 58.4375 31.3867 57.8711C31.3281 57.3242 31.25 56.7578 31.2109 56.1914ZM33.1836 63.3203C33.0859 63.2617 32.9883 63.2031 32.9102 63.125C32.8906 63.1055 32.8516 63.0859 32.8516 63.0469C32.832 63.0273 32.8516 62.9883 32.8516 62.9492C32.8711 62.9102 32.8906 62.8516 32.9297 62.793C32.9492 62.7734 32.9492 62.7344 32.9688 62.7148C32.9688 62.6953 32.9883 62.6953 32.9883 62.6758C32.9883 62.6562 33.0078 62.6562 33.0273 62.6562C33.0469 62.6367 33.0664 62.6172 33.0859 62.5976C33.1055 62.5781 33.1445 62.5391 33.1641 62.5195C33.1836 62.5 33.1836 62.4805 33.2031 62.4805C33.2227 62.4609 33.2227 62.4609 33.2422 62.4414C33.3008 62.3828 33.3594 62.3437 33.418 62.3437C33.5352 62.3242 33.6523 62.4609 33.7891 62.5195C33.8867 62.5586 34.0039 62.5781 34.082 62.6367C34.082 62.6367 34.082 62.6367 34.1016 62.6562C34.1016 62.6758 34.1211 62.6758 34.1211 62.6953C34.1211 62.7148 34.1406 62.7344 34.1406 62.7539C34.1406 62.793 34.1602 62.8516 34.1406 62.8516C33.8477 63.0078 33.5547 63.1445 33.2617 63.2812C33.2422 63.2812 33.2227 63.2812 33.2227 63.2812C33.2031 63.2812 33.2031 63.3008 33.1836 63.3203ZM32.4219 62.6953C32.3242 62.7734 32.2461 62.7539 32.1875 62.6758C32.168 62.6562 32.1484 62.6367 32.1484 62.5976C32.1289 62.5586 32.1289 62.5391 32.1094 62.5C32.1094 62.4805 32.0898 62.4609 32.0898 62.4219C32.0508 62.1484 32.0312 61.875 31.9922 61.5625C32.3633 61.7383 32.7148 61.9141 33.1055 62.1094C32.8516 62.3242 32.6367 62.5195 32.4219 62.6953ZM31.2891 63.0859C31.4258 63.3594 31.2891 63.6914 31.6211 63.8867C31.9336 64.082 32.1875 63.9062 32.4414 63.8086C32.4414 63.8281 32.4609 63.8477 32.4609 63.8672C32.1875 64.0234 31.9141 64.1797 31.6211 64.3164C31.582 64.3359 31.5039 64.3164 31.4453 64.2969C31.0547 64.1406 30.6445 63.9844 30.2539 63.8281C30.1953 63.8086 30.1562 63.7695 30.0586 63.7109C30.4883 63.4961 30.8789 63.2812 31.2891 63.0859ZM28.5547 64.5312C28.8477 64.6094 29.082 64.668 29.2969 64.7461C29.3555 64.7656 29.4531 64.8633 29.4531 64.9023C29.4336 65.1758 29.3945 65.4492 29.1602 65.6641C29.0039 65.8008 28.8672 65.7812 28.6719 65.7031C28.4961 65.625 28.5547 65.4883 28.5547 65.3711C28.5547 65.0977 28.5547 64.8242 28.5547 64.5312ZM28.4375 65.9766C28.4375 66.0156 28.457 66.0352 28.4766 66.0742C28.3594 66.1328 28.2617 66.1914 28.1445 66.25C28.1055 66.2695 28.0664 66.2891 28.0273 66.3281C27.9102 66.3867 27.8125 66.4453 27.6953 66.4844C27.6758 66.4844 27.6758 66.4844 27.6563 66.4844C27.6172 66.4648 27.5977 66.4453 27.5586 66.4258C27.5 66.3867 27.4609 66.3477 27.4023 66.3086C27.4023 66.2695 27.4023 66.25 27.4023 66.2109C27.7344 66.1328 28.0859 66.0547 28.4375 65.9766ZM23.8672 64.6484C23.8477 64.6289 23.8281 64.5898 23.8281 64.5703C23.7891 64.2578 23.7305 63.9453 23.6914 63.6328C23.6133 63.0859 23.5156 62.5391 23.457 61.9922C23.418 61.6016 23.3594 61.2109 23.3398 60.8203C23.3203 60.4297 23.3984 60.0781 23.5742 59.7852C23.5938 59.7461 23.6133 59.707 23.6523 59.668C23.6914 59.5898 23.75 59.5117 23.8281 59.4531C23.8672 59.4141 23.8867 59.3945 23.9258 59.3555C24.1016 59.1992 24.2969 59.0625 24.5312 58.9453C25.1172 58.6719 25.7227 58.5937 26.3477 58.7109C26.9922 58.8281 27.3828 59.2383 27.5977 59.8633C27.7539 60.293 27.8516 60.7422 27.9492 61.1719C27.9688 61.2305 27.9688 61.2891 27.9883 61.3672C28.0078 61.5039 28.0273 61.6211 28.0469 61.7578C28.0664 62.0117 28.1055 62.2656 28.1055 62.5391C28.1055 62.6758 28.1055 62.793 28.1055 62.9297V63.8672C28.125 63.8672 28.125 63.8672 28.1445 63.8672C28.1445 64.4141 28.1445 64.9609 28.1445 65.5078C28.1445 65.5273 28.1445 65.5273 28.1445 65.5469C28.125 65.625 28.0469 65.7227 27.9883 65.7617C27.7148 65.8789 27.4414 65.9961 27.168 66.0742C27.0898 66.0937 26.9727 66.0742 26.9141 66.0352C25.9766 65.5078 25 65.0977 24.0039 64.7266C23.9258 64.6875 23.9062 64.668 23.8672 64.6484ZM24.9609 67.832C25.0586 67.7344 25.1367 67.6367 25.2344 67.5391C25.332 67.4414 25.4297 67.3437 25.5273 67.2656C25.5469 67.2461 25.625 67.2461 25.6445 67.2656C25.8008 67.3633 25.9375 67.4609 26.1328 67.5977C25.8203 67.793 25.5273 67.9687 25.2148 68.125C25.1758 68.1445 25.0586 68.0859 25 68.0273C24.9805 68.0078 24.9805 67.9883 24.9609 67.9687C24.9609 67.9102 24.9414 67.8516 24.9609 67.832ZM24.5312 67.6367C24.4336 67.7148 24.3555 67.6758 24.2773 67.5781C24.2578 67.5391 24.2383 67.5 24.2188 67.4414C24.2188 67.4219 24.1992 67.4023 24.1992 67.3828C24.1797 67.207 24.1602 67.0508 24.1406 66.8555C24.1211 66.7578 24.1211 66.6406 24.1016 66.5039C24.4922 66.6992 24.8242 66.8555 25.1953 67.0508C24.9805 67.2461 24.7656 67.4414 24.5312 67.6367ZM52.7344 72.4805C53.2617 72.6953 53.3203 73.1836 53.3203 73.6523C53.3203 73.75 53.3203 73.8281 53.3203 73.9258C53.3203 74.0039 53.3203 74.082 53.3008 74.1602C53.2812 74.3164 53.2813 74.4922 53.2617 74.668C53.2813 74.7461 53.3008 74.8437 53.2812 74.9219C53.2422 75.4883 53.2812 76.0742 53.0859 76.6211C53.0859 76.6211 53.0859 76.6211 53.0859 76.6406C53.0859 76.7578 53.0859 76.875 53.0859 77.0117C53.0859 77.2461 53.125 77.5 53.125 77.7344C53.125 78.125 53.1445 78.5156 53.1445 78.9258C53.1445 79.082 53.0469 79.1797 52.8906 79.2969C52.0703 79.8438 51.1914 80.2734 50.293 80.6641C49.8828 80.8398 49.4531 81.0742 48.9453 81.0156C48.5938 80.957 48.418 80.8594 48.3594 80.4883C48.3203 80.1758 48.3008 79.8633 48.2812 79.5508C48.2812 79.0234 48.2812 78.5156 48.3203 77.9883C48.3594 77.3242 48.418 76.6602 48.4961 76.0156C48.5547 75.4883 48.6328 74.9805 48.7695 74.4726C48.7891 74.375 48.8281 74.2969 48.8672 74.1992C48.8672 74.043 48.9062 73.9062 48.9844 73.7695C49.4727 72.8711 50.4297 72.3047 51.4063 72.207C51.4648 72.207 51.543 72.207 51.6016 72.207H51.6211C51.6406 72.207 51.6602 72.207 51.6797 72.207C52.0312 72.2266 52.3828 72.3438 52.7344 72.4805ZM57.1875 67.7148C56.582 68.0664 55.9961 68.4375 55.3906 68.8086C54.5703 69.2969 53.75 69.7851 52.9492 70.2734C52.2656 70.6836 51.582 71.1133 50.8789 71.4844C50.5273 71.6797 50.1172 71.7773 49.7656 71.9726C49.4531 72.1484 49.1602 72.3828 48.8867 72.6172C48.5742 72.8711 48.2812 73.1641 47.9297 73.3594C46.875 73.9844 45.7812 74.5508 44.707 75.1562C44.043 75.5273 43.3789 75.8594 42.7539 76.2891C42.1484 76.7188 41.4844 77.0703 40.8398 77.4414C40.8203 77.4414 40.8203 77.4609 40.8008 77.4609C40.3125 77.9102 39.7656 77.793 39.2188 77.6172C38.6328 77.4219 38.0859 77.1875 37.5586 76.8555C37.1875 76.6211 36.7578 76.4453 36.3672 76.25C35.6641 75.8984 34.9414 75.5859 34.2383 75.2148C32.8711 74.5117 31.5234 73.7695 30.1562 73.0664C28.9258 72.4414 27.6758 71.8359 26.4453 71.2305C25.7227 70.8594 25 70.4883 24.2773 70.1172C24.1016 70.0195 23.9062 69.9219 23.7305 69.8047C23.6914 69.7656 23.6523 69.6875 23.6523 69.6289C23.6328 69.375 23.7891 69.1797 23.9648 69.0625C24.6875 68.6133 25.4102 68.1836 26.1523 67.7734C27.2266 67.1875 28.3008 66.6406 29.3555 66.0547C29.9609 65.7227 30.5469 65.332 31.1523 65C31.7578 64.668 32.3828 64.3945 32.9883 64.082C33.8672 63.6133 34.7656 63.1445 35.625 62.6172C36.5625 62.0508 37.5 61.4648 38.3984 60.8398C39.4531 60.0977 40.5664 59.4531 41.6992 58.8477C42.4219 58.457 43.125 58.0273 43.8281 57.6367C44.9023 57.0312 45.9961 56.4648 47.0703 55.8594C47.6172 55.5469 48.1445 55.1758 48.6914 54.8437C49.3555 54.4336 50.0195 54.043 50.6836 53.6328C51.0156 53.4375 51.3477 53.2031 51.6992 53.0273C51.8164 52.9687 51.9531 52.9883 52.0312 52.9688C52.5391 52.9883 52.9883 52.9883 53.418 53.2617C53.8086 53.5156 54.2969 53.6328 54.7461 53.8477C55.4492 54.1797 56.1523 54.5312 56.8359 54.8828C56.9727 54.9414 57.0898 55.0391 57.207 55.1172C57.7539 55.4297 58.2813 55.7227 58.8281 56.0547C59.3164 56.3477 59.7852 56.6406 60.2539 56.9336C60.8594 57.3242 61.4453 57.6953 62.0312 58.1055C62.4609 58.3984 62.8711 58.7109 63.3008 59.0039C63.7109 59.2773 64.1211 59.5508 64.5508 59.8047C64.8438 59.9805 65.1562 60.1562 65.4688 60.3125C65.6055 60.3711 65.7422 60.4102 65.8789 60.4688C66.4258 60.7227 66.9727 60.9766 67.5195 61.25C67.5586 61.2695 67.5781 61.4648 67.5391 61.5234C67.4219 61.6797 67.2656 61.8164 67.1094 61.9141C66.4258 62.3437 65.7031 62.7734 65.0195 63.1836C64.2383 63.6523 63.457 64.1211 62.6758 64.5703C62.1875 64.8438 61.6602 65.0586 61.1523 65.3516C60.3711 65.8008 59.5898 66.2695 58.8086 66.7187C58.2812 67.0898 57.7344 67.4023 57.1875 67.7148ZM62.4609 74.0234V74.043C62.4609 74.082 62.4414 74.1406 62.4219 74.1797C62.4023 74.2578 62.2852 74.2969 62.207 74.3555C61.4062 74.9414 60.5273 75.3516 59.6289 75.7422C59.1992 75.9375 58.7695 76.1719 58.2422 76.0937C57.9102 76.0352 57.7539 75.9375 57.6758 75.6055C57.6172 75.3125 57.5977 75.0391 57.5977 74.7461C57.5977 74.2773 57.5977 73.8281 57.5977 73.3594C57.5977 73.0078 57.6172 72.6562 57.6563 72.3242C57.6758 72.0898 57.6953 71.8555 57.7344 71.6211C57.7734 71.3867 57.793 71.1523 57.8125 70.918C57.832 70.8008 57.8516 70.7031 57.8711 70.5859C57.8711 70.5664 57.8711 70.5469 57.8711 70.5469C57.8906 70.4297 57.9102 70.332 57.9297 70.2344C57.9688 70 58.0273 69.7656 58.0859 69.5508C58.125 69.3945 58.1836 69.2383 58.2422 69.082C58.3594 68.7695 58.4961 68.4766 58.6914 68.2226C58.7305 68.1836 58.75 68.1445 58.7891 68.1055C58.8281 68.0664 58.8672 68.0273 58.9062 67.9883C59.1016 67.793 59.3359 67.6367 59.6094 67.5391C59.9609 67.4023 60.332 67.3437 60.6836 67.2656C61.2695 67.2851 61.7773 67.4805 62.2656 67.7734C62.2852 67.793 62.3047 67.793 62.3242 67.8125C62.3438 67.832 62.3633 67.8516 62.3828 67.8711C62.4219 67.9102 62.4414 67.9492 62.4609 68.0078C62.5977 68.3008 62.6563 68.6133 62.6367 68.9648C62.5391 70.0781 62.4609 71.1914 62.4023 72.3047C62.4023 72.4805 62.4023 72.6758 62.4219 72.8516C62.4219 72.8906 62.4414 72.9492 62.4414 73.0078C62.4609 73.2031 62.4805 73.3984 62.5 73.5937C62.5 73.7109 62.5 73.8281 62.4805 73.9453C62.4805 73.9258 62.4609 73.9648 62.4609 74.0234ZM65.3906 70.2148C65.2148 70.1758 65.1172 70.1562 65.0391 70.1172C64.4531 69.8828 63.8281 69.707 63.3203 69.3164C63.1836 69.2187 63.1445 69.1211 63.1836 69.0234C63.2031 69.0039 63.2031 68.9844 63.2422 68.9453C63.2617 68.9258 63.2812 68.9062 63.3008 68.9062C63.5156 68.75 63.7305 68.5937 63.9648 68.4766C64.1992 68.3594 64.4531 68.3789 64.6875 68.4766C64.8828 68.5547 65.0781 68.6133 65.2344 68.7109C65.2344 68.7109 65.2539 68.7305 65.2734 68.7305C65.2734 68.7305 65.293 68.75 65.293 68.7695C65.3516 68.8281 65.3906 68.9258 65.3906 68.9844C65.3906 69.1602 65.4102 69.3555 65.4102 69.5508C65.3906 69.7656 65.3906 69.9805 65.3906 70.2148ZM63.0273 68.75V67.7734C63.3398 67.8711 63.6523 67.9687 64.0234 68.0664C63.6719 68.3203 63.3789 68.5156 63.0273 68.75ZM65.8398 65.5469C65.7422 66.0938 65.6445 66.6406 65.5469 67.168C65.5273 67.2851 65.4688 67.3242 65.3516 67.2851C64.9609 67.1484 64.5703 67.0508 64.1797 66.875C63.6719 66.6406 63.2031 66.6602 62.7148 66.8945C62.5781 66.9727 62.4609 66.9726 62.3242 66.875C62.0117 66.6406 61.6406 66.5625 61.25 66.5625C61.1719 66.5625 61.0742 66.5625 60.9961 66.5625C60.9961 66.543 60.9766 66.5234 60.9766 66.4844C62.832 65.5078 64.7461 64.6289 66.4453 63.2617C66.3281 63.6719 66.2109 64.0039 66.1133 64.3555C66.0156 64.7461 65.918 65.1562 65.8398 65.5469ZM71.3672 63.7305C71.3477 64.0234 71.3281 64.2969 71.3086 64.5898C71.25 65.4492 71.1719 66.2891 71.1328 67.1484C71.1328 67.1875 71.1328 67.207 71.1328 67.2461C71.1328 67.4219 71.1719 67.5977 71.1719 67.7539C71.1914 68.0859 71.25 68.3984 71.2305 68.7305C71.2109 68.9648 71.1523 69.1992 70.8789 69.3555C69.8047 70.0195 68.6914 70.6055 67.4805 71.0156C67.2656 71.0938 66.9922 71.0547 66.7383 71.0156C66.6602 70.9961 66.6016 70.9766 66.5625 70.918C66.5234 70.8789 66.4844 70.8203 66.4453 70.7617C66.4062 70.6836 66.3867 70.6055 66.3672 70.5273C66.3477 70.4102 66.3281 70.2734 66.3281 70.1367C66.3281 70.0586 66.3086 69.9609 66.3086 69.8633C66.3867 68.9062 66.2891 67.9102 66.3867 66.9141C66.4062 66.6602 66.4453 66.3867 66.4844 66.1328C66.5039 66.0547 66.5039 65.9961 66.5234 65.918C66.6016 65.4297 66.6211 64.9219 66.7969 64.4727C66.9727 63.9453 67.1875 63.418 67.5586 63.0078C67.5977 62.9688 67.6172 62.9297 67.6562 62.9102C67.7539 62.8125 67.8711 62.7148 67.9883 62.6367C68.5938 62.2461 69.2578 62.1094 69.9414 62.2656C70.293 62.3437 70.6055 62.6367 70.957 62.832C71.0352 62.8711 71.1133 62.9297 71.1523 62.9883L71.1719 63.0078C71.2109 63.0469 71.2305 63.0859 71.25 63.125C71.2695 63.1641 71.2891 63.1836 71.2891 63.2227C71.3672 63.3789 71.3867 63.5547 71.3672 63.7305Z" fill="#1D2426"></path>
    <path d="M82.0117 33.7891C82.0117 33.6523 82.0117 33.5547 81.8555 33.4766C81.1328 33.0859 80.4297 32.7148 79.7266 32.3047C78.5938 31.6211 77.5 30.8789 76.3867 30.1953C75.7227 29.7852 75.0195 29.4531 74.3359 29.0625C73.4766 28.5547 72.6562 27.9883 71.7969 27.4805C70.4297 26.6797 69.043 25.8789 67.6562 25.0977C66.6211 24.5117 65.5469 23.9844 64.5117 23.418C63.9258 23.0859 63.3789 22.6953 62.793 22.3633C62.3438 22.1094 61.8555 21.875 61.3672 21.6406C60.8398 21.3672 60.293 21.1133 59.7656 20.8398C59.5117 20.7031 59.2773 20.7227 59.0625 20.8984C58.7695 21.1523 58.5156 21.4453 58.6133 21.8359C58.7109 22.2656 58.8867 22.7148 59.3555 22.8906C59.5312 22.9687 59.5898 23.0859 59.5898 23.2812C59.5703 24.8242 59.5508 26.3477 59.5508 27.8906C59.5508 29.3555 59.5508 30.8398 59.5508 32.3047C59.5508 32.6367 59.5508 32.9883 59.5508 33.3203C59.5508 33.8477 59.5703 34.3555 59.5508 34.8828C59.5508 35.332 59.5117 35.7812 59.4922 36.2305C59.4727 36.9531 59.4922 37.6562 59.4727 38.3789C59.4531 38.9648 59.4141 39.5703 59.3945 40.1758C59.3945 40.2344 59.4141 40.293 59.4336 40.3516C59.4922 40.6445 59.7461 40.625 59.9609 40.7031C59.9023 40.6055 59.8438 40.5273 59.7852 40.4492C59.5898 40.1367 59.5117 39.7852 59.6484 39.4336C59.668 39.375 59.6484 39.3164 59.6484 39.2383C59.6484 38.7695 59.6484 38.3203 59.6484 37.8711C59.6875 36.9727 59.7461 36.0742 59.7656 35.1562C59.7852 34.2773 59.7461 33.3984 59.7461 32.5195C59.7461 31.2891 59.7852 30.0391 59.7852 28.8086C59.7852 27.9688 59.7852 27.1094 59.7852 26.25C59.7852 25.4492 59.7852 24.6484 59.8047 23.8477C59.8047 23.6133 59.8047 23.3594 59.8047 23.0859C59.9023 23.125 59.9414 23.125 59.9609 23.1445C60.8008 23.5938 61.6602 24.0234 62.4805 24.4727C63.2422 24.9023 63.9844 25.3516 64.7266 25.8008C65.3711 26.1719 65.9961 26.543 66.6406 26.9336C67.3047 27.3242 67.9687 27.7148 68.6133 28.0859C69.043 28.3398 69.5117 28.5547 69.9414 28.8281C70.6836 29.2773 71.4258 29.7461 72.168 30.2148C73.3398 30.957 74.5117 31.6797 75.6641 32.4219C76.3672 32.8711 77.0312 33.3398 77.793 33.6914C78.9062 34.2187 80 34.8047 81.1133 35.3516C81.2695 35.4297 81.2891 35.5273 81.2891 35.6836C81.25 37.3437 81.25 39.0234 81.2109 40.6836C81.1719 41.7383 81.0938 42.7734 81.0352 43.8086C80.957 45.2344 80.8789 46.6797 80.8203 48.1055C80.7812 49.2383 80.7812 50.3711 80.7617 51.5234C80.7617 51.9336 80.5469 52.1484 80.2148 52.0312C80 51.9531 79.7852 51.8359 79.5898 51.7187C79.3164 51.543 79.0625 51.3281 78.7695 51.1719C77.9688 50.7227 77.1484 50.293 76.3477 49.8437C75.7227 49.4922 75.0781 49.1406 74.4336 48.8086C74.043 48.6133 73.6523 48.4375 73.2617 48.2227C72.4609 47.793 71.6406 47.3438 70.8398 46.8945C70.2539 46.5625 69.668 46.2305 69.1211 45.8594C68.2812 45.293 67.4805 44.6289 66.543 44.1992C66.1328 44.0039 65.7422 43.7695 65.332 43.5547C64.8242 43.3008 64.3164 43.0664 63.7891 42.8125C63.7695 42.832 63.7695 42.8516 63.75 42.8711C63.9844 42.9883 64.2188 43.125 64.4531 43.2422C65.2148 43.6523 65.9961 44.0234 66.7188 44.4922C68.0078 45.332 69.2578 46.25 70.625 46.9922C72.0508 47.7734 73.4766 48.5352 74.9023 49.3164C76.1719 50 77.4219 50.6836 78.6719 51.3867C79.1602 51.6602 79.6484 51.9336 80.1367 52.1875C80.4492 52.3438 80.918 52.0312 80.9375 51.6797C80.957 51.3477 80.9766 50.9961 80.9766 50.6641C80.9961 49.8047 81.0156 48.9258 81.0352 48.0664C81.0742 47.0508 81.1133 46.0156 81.1328 45C81.1719 43.8477 81.2109 42.6953 81.2695 41.543C81.2891 41.1133 81.3672 40.6836 81.3867 40.2539C81.4062 38.8086 81.4258 37.3437 81.4453 35.8984C81.4453 35.7812 81.4453 35.6641 81.4453 35.5078C81.6406 35.7031 81.7773 35.7031 81.9141 35.4883C81.9922 35.3711 82.0508 35.1953 82.0508 35.0586C82.0508 34.668 82.0117 34.2187 82.0117 33.7891ZM81.8164 34.2187C81.7773 34.5898 81.7188 34.9609 81.6602 35.3711C81.2305 35.1562 80.8008 35 80.4297 34.7656C79.6484 34.2773 78.8477 33.8672 78.0273 33.4766C77.3438 33.1445 76.6992 32.7344 76.0352 32.3438C74.7852 31.582 73.5352 30.8008 72.3047 30.0195C71.6602 29.6094 71.0156 29.1797 70.3516 28.7891C69.7461 28.4375 69.1211 28.1055 68.5156 27.7539C67.5586 27.207 66.6211 26.6211 65.6836 26.0742C64.4727 25.3906 63.2617 24.707 62.0703 24.0234C61.1914 23.5156 60.3125 22.9883 59.3359 22.6367C59.2773 22.6172 59.2383 22.5391 59.1992 22.4805C59.1211 22.3438 59.0625 22.207 58.9844 22.0703C58.8477 21.7969 59.0234 21.2695 59.3164 21.1523C59.375 21.1328 59.4531 21.1523 59.5117 21.1914C60.1367 21.5234 60.7617 21.8555 61.4062 22.168C61.8945 22.4023 62.3828 22.6172 62.8516 22.8711C63.418 23.1836 63.9453 23.5742 64.4922 23.9062C64.7461 24.0625 65 24.1992 65.2734 24.3359C66.0156 24.7461 66.7773 25.1367 67.5195 25.5469C68.3789 25.9961 69.2383 26.4453 70.0586 26.9336C70.9961 27.4805 71.8945 28.0859 72.8125 28.6523C73.3789 29.0039 73.9844 29.3164 74.5508 29.6484C75.1953 30.0391 75.8594 30.4297 76.5039 30.8008C76.9922 31.0937 77.4805 31.3672 77.9492 31.6406C78.4766 31.9531 78.9844 32.2852 79.5117 32.5781C80.1562 32.9492 80.8203 33.3008 81.4844 33.6328C81.7773 33.7695 81.8555 33.9062 81.8164 34.2187Z" fill="#1D2426"></path>
    <path d="M95.3711 78.0859C95.4297 78.1445 95.4688 78.1836 95.5273 78.2422C95.5078 78.2617 95.5078 78.2812 95.4883 78.3008C94.7656 77.8711 94.1016 77.3828 93.457 76.8359C93.4766 76.8164 93.4766 76.7969 93.4961 76.7773C93.6914 76.9141 93.8867 77.0508 94.082 77.1875C94.2383 77.3242 94.3945 77.4609 94.5703 77.5781C94.6289 77.6172 94.707 77.6172 94.7852 77.6367C94.8242 77.6367 94.8633 77.6367 94.8828 77.6562C95.2539 77.8711 95.6055 78.0664 95.957 78.3203C95.7617 78.2227 95.5859 78.125 95.4102 78.0273C95.3906 78.0664 95.3711 78.0664 95.3711 78.0859Z" fill="#1D2426"></path>
    <path d="M62.7539 42.2852C62.7344 42.3047 62.7148 42.3437 62.6953 42.3633C62.3828 42.207 62.0898 42.0508 61.7773 41.875C61.7969 41.8555 61.8164 41.8164 61.8164 41.7773C62.1484 41.9531 62.4609 42.1289 62.7539 42.2852Z" fill="#1D2426"></path>
    <path d="M61.6406 41.6992C61.6211 41.7188 61.6211 41.7383 61.6016 41.7578C61.4258 41.6602 61.25 41.5625 61.0742 41.4648C61.0742 41.4453 61.0938 41.4258 61.1133 41.4062C61.2891 41.5039 61.4648 41.6016 61.6406 41.6992Z" fill="#1D2426"></path>
    <path d="M67.5586 61.2891C67.0117 61.0156 66.4648 60.7617 65.918 60.5078C65.7812 60.4492 65.6445 60.4102 65.5078 60.3516C65.1953 60.1953 64.8828 60.0195 64.5898 59.8438C64.1602 59.5898 63.75 59.3164 63.3398 59.043C62.9102 58.75 62.5 58.4375 62.0703 58.1445C61.4844 57.7539 60.8984 57.3633 60.293 56.9727C59.8242 56.6797 59.3555 56.3672 58.8672 56.0938C58.3398 55.7813 57.793 55.4688 57.2461 55.1562C57.1289 55.0781 56.9922 55 56.875 54.9219C56.1719 54.5703 55.4883 54.2188 54.7852 53.8867C54.3555 53.6719 53.8672 53.5547 53.457 53.3008C53.0273 53.0273 52.5781 53.0273 52.0703 53.0078C51.9922 53.0273 51.8359 53.0078 51.7383 53.0664C51.3867 53.2617 51.0547 53.4766 50.7227 53.6719C50.0586 54.082 49.3945 54.4727 48.7305 54.8828C48.1836 55.2148 47.6562 55.5859 47.1094 55.8984C46.0352 56.5039 44.9414 57.0703 43.8672 57.6758C43.1445 58.0664 42.4609 58.4961 41.7383 58.8867C40.6055 59.4922 39.4922 60.1563 38.4375 60.8789C37.5391 61.5039 36.6016 62.0898 35.6641 62.6562C34.8047 63.1641 33.9063 63.6328 33.0273 64.1211C32.4219 64.4336 31.7969 64.707 31.1914 65.0391C30.5859 65.3711 30 65.7617 29.3945 66.0938C28.3398 66.6797 27.2461 67.2266 26.1914 67.8125C25.4492 68.2227 24.7266 68.6523 24.0039 69.1016C23.8086 69.2188 23.6719 69.4141 23.6914 69.668C23.6914 69.7266 23.7305 69.8047 23.7695 69.8438C23.9453 69.9609 24.1211 70.0586 24.3164 70.1563C25.0391 70.5273 25.7422 70.8984 26.4844 71.2695C27.7148 71.8945 28.9648 72.4805 30.1953 73.1055C31.5625 73.8086 32.9102 74.5508 34.2773 75.2539C34.9805 75.6055 35.6836 75.9375 36.4062 76.2891C36.7969 76.4844 37.2266 76.6602 37.5977 76.8945C38.125 77.2266 38.6719 77.4609 39.2578 77.6562C39.8047 77.832 40.3516 77.9492 40.8398 77.5C40.8594 77.5 40.8594 77.4805 40.8789 77.4805C41.5234 77.1094 42.1875 76.7578 42.793 76.3281C43.418 75.8789 44.082 75.5469 44.7461 75.1953C45.8203 74.5898 46.9141 74.0234 47.9688 73.3984C48.3203 73.2031 48.5938 72.8906 48.9258 72.6562C49.2188 72.4414 49.4922 72.1875 49.8047 72.0117C50.1562 71.8164 50.5664 71.7188 50.918 71.5234C51.6211 71.1328 52.3047 70.7031 52.9883 70.3125C53.8086 69.8242 54.6289 69.3359 55.4297 68.8477C56.0352 68.4961 56.6211 68.125 57.2266 67.7734C57.7734 67.4609 58.3203 67.1484 58.8672 66.8164C59.6484 66.3672 60.4297 65.8789 61.2109 65.4492C61.6992 65.1758 62.2266 64.9609 62.7344 64.668C63.5352 64.2188 64.2969 63.75 65.0781 63.2812C65.7813 62.8516 66.4844 62.4414 67.168 62.0117C67.3242 61.9141 67.4805 61.7773 67.5977 61.6211C67.6367 61.5039 67.6172 61.3086 67.5586 61.2891ZM38.3594 70.3125C37.8711 70.7031 37.3633 71.0742 36.8945 71.4844C36.6406 71.6992 36.3867 71.6602 36.1328 71.5234C35.3516 71.0938 34.5703 70.6055 33.7695 70.2148C33.3203 70 33.2227 69.6875 33.1641 69.2773C33.1055 68.9648 33.2031 68.75 33.4375 68.5742C33.8281 68.2812 34.1992 67.9883 34.6094 67.7148C34.8828 67.5195 35.1758 67.4414 35.5078 67.5391C35.6055 67.5586 35.7227 67.5391 35.8203 67.5195C36.2109 67.4414 36.5234 67.5977 36.6992 67.9688C36.7383 68.0469 36.8359 68.125 36.9336 68.1641C37.3633 68.3984 37.793 68.6328 38.2227 68.8477C38.5742 69.043 38.6328 69.375 38.6328 69.7461C38.6328 69.9805 38.5547 70.1562 38.3594 70.3125Z" fill="#FFBA59"></path>
    <path d="M60.7031 67.2266C61.2891 67.2461 61.7969 67.4414 62.2852 67.7344C62.3633 67.793 62.4414 67.8711 62.4805 67.9688C62.6172 68.2617 62.6758 68.5742 62.6563 68.9258C62.5586 70.0391 62.4805 71.1523 62.4219 72.2656C62.4024 72.6953 62.5 73.125 62.5195 73.5352C62.5195 73.75 62.4805 73.9648 62.4219 74.1797C62.4023 74.2578 62.2852 74.2969 62.207 74.3555C61.4062 74.9414 60.5273 75.3516 59.6289 75.7422C59.1992 75.9375 58.7695 76.1719 58.2422 76.0937C57.9102 76.0352 57.7539 75.9375 57.6758 75.6055C57.6172 75.332 57.5977 75.0391 57.5977 74.7461C57.5977 73.9453 57.5781 73.125 57.6563 72.3242C57.7539 71.3867 57.832 70.4297 58.0859 69.5312C58.3203 68.7109 58.6914 67.8711 59.6094 67.5195C59.9805 67.3633 60.3516 67.3242 60.7031 67.2266Z" fill="#F7FBFC"></path>
    <path d="M66.3281 69.8633C66.4258 68.6523 66.2695 67.3828 66.5039 66.1328C66.6211 65.5859 66.6211 65 66.7969 64.4727C67.0312 63.7695 67.3242 63.0664 67.9883 62.6172C68.5938 62.2266 69.2578 62.0898 69.9414 62.2461C70.293 62.3242 70.6055 62.6172 70.957 62.8125C71.3281 63.0078 71.3867 63.3594 71.3672 63.7109C71.3086 64.8438 71.2109 65.9766 71.1328 67.1094C71.1133 67.3047 71.1523 67.5195 71.1719 67.7148C71.1914 68.0469 71.25 68.3594 71.2305 68.6914C71.2305 68.9453 71.1523 69.1601 70.8984 69.3164C69.8242 69.9805 68.7109 70.5664 67.5 70.9766C67.2852 71.0547 67.0117 71.0351 66.7578 70.9766C66.5234 70.9375 66.4453 70.7031 66.4062 70.4883C66.3672 70.3125 66.3477 70.1172 66.3281 69.8633Z" fill="#F7FBFC"></path>
    <path d="M52.7344 72.4805C52.3828 72.3437 52.0312 72.2461 51.6602 72.168C51.6406 72.168 51.6016 72.168 51.582 72.168C51.5234 72.168 51.4648 72.1484 51.3867 72.168C50.3906 72.2656 49.4336 72.8516 48.9648 73.7305C48.8867 73.8672 48.8477 74.0234 48.8477 74.1602C48.8086 74.2578 48.7891 74.3359 48.75 74.4336C48.6133 74.9219 48.5352 75.4492 48.4766 75.9766C48.3984 76.6406 48.3398 77.2851 48.3008 77.9492C48.2812 78.4766 48.2617 78.9844 48.2617 79.5117C48.2617 79.8242 48.2812 80.1367 48.3398 80.4492C48.3984 80.8008 48.5742 80.918 48.9258 80.9766C49.4336 81.0547 49.8438 80.8203 50.2734 80.625C51.1719 80.2344 52.0508 79.8047 52.8711 79.2578C53.0273 79.1406 53.125 79.043 53.125 78.8867C53.1445 78.4961 53.125 78.1055 53.1055 77.6953C53.1055 77.4609 53.0664 77.207 53.0664 76.9726C53.0664 76.8555 53.0664 76.7383 53.0664 76.6016C53.0664 76.4453 53.0664 76.2695 53.0664 76.1133C53.0664 76.2695 53.0664 76.4258 53.0664 76.6016C53.0664 76.6016 53.0664 76.6016 53.0664 76.582C53.2617 76.0351 53.2227 75.4492 53.2617 74.8828C53.2617 74.8047 53.2617 74.707 53.2422 74.6289C53.2227 74.8242 53.2031 75 53.2031 75.1953C53.2031 75.332 53.1445 75.3906 53.0273 75.4297C52.4414 75.6641 51.8555 75.8789 51.2109 75.918C51.5234 76.0547 51.8164 76.2891 52.1484 76.3281C51.8359 76.2891 51.5234 76.0547 51.2109 75.918C51.8555 75.8789 52.4414 75.6641 53.0273 75.4297C53.1445 75.3906 53.2031 75.332 53.2031 75.1953C53.2227 75 53.2422 74.8242 53.2422 74.6289C53.2617 74.4531 53.2812 74.2969 53.2812 74.1211C53.2812 74.043 53.2812 73.9648 53.3008 73.8867C53.3008 73.7891 53.3008 73.7109 53.3008 73.6133C53.3203 73.1836 53.2617 72.6953 52.7344 72.4805Z" fill="#F7FBFC"></path>
    <path d="M44.7656 54.2578C44.7656 54.8047 44.7656 55.3516 44.7656 55.8984C44.7656 55.9961 44.668 56.1133 44.5898 56.1523C44.3359 56.2695 44.0625 56.3672 43.7891 56.4648C43.7109 56.4844 43.6133 56.4844 43.5547 56.4453C42.6172 55.918 41.6016 55.5078 40.5859 55.1172C40.5469 55.0977 40.4883 55.0391 40.4688 55C40.293 53.75 40.0586 52.5195 39.9805 51.2695C39.9414 50.4492 40.3516 49.7461 41.1719 49.375C41.7578 49.1211 42.3633 49.0234 42.9688 49.1406C43.6133 49.2578 44.0234 49.6484 44.2383 50.293C44.5898 51.2891 44.7461 52.3242 44.7266 53.3594C44.7266 53.6719 44.7266 53.9648 44.7266 54.2773C44.7461 54.2578 44.7656 54.2578 44.7656 54.2578Z" fill="#F7FBFC"></path>
    <path d="M28.1445 63.8477C28.1445 64.3945 28.1445 64.9414 28.1445 65.4883C28.1445 65.5664 28.0469 65.7031 27.9687 65.7227C27.6953 65.8398 27.4219 65.9375 27.1289 66.0352C27.0508 66.0547 26.9336 66.0352 26.875 65.9961C25.9375 65.4688 24.9609 65.0586 23.9453 64.6875C23.8867 64.668 23.8281 64.6094 23.8086 64.5508C23.6328 63.3008 23.3984 62.0703 23.3203 60.8203C23.2812 60 23.6914 59.3164 24.4922 58.9453C25.0781 58.6719 25.6836 58.5938 26.3086 58.7109C26.9531 58.8281 27.3438 59.2383 27.5586 59.8633C27.8906 60.8594 28.0469 61.875 28.0469 62.9102C28.0469 63.2227 28.0469 63.5352 28.0469 63.8477C28.1055 63.8477 28.125 63.8477 28.1445 63.8477Z" fill="#F7FBFC"></path>
    <path d="M34.3555 60.918C34.4922 60.8008 34.5508 60.7422 34.6289 60.6836C34.2969 60.9375 34.043 60.7031 33.7695 60.5859C33.1445 60.3125 32.5 60.0586 31.875 59.7852C31.7969 59.7461 31.7188 59.668 31.6992 59.5898C31.5234 58.457 31.3086 57.3242 31.2109 56.1914C31.0938 54.8633 31.9531 53.8867 33.3594 53.7695C33.75 53.7305 34.1406 53.75 34.5312 53.8867C35 54.0625 35.2734 54.4141 35.4492 54.8633C35.8203 55.8789 35.9766 56.9336 35.9766 58.0273C35.9766 58.8672 36.0156 59.7266 36.0156 60.5664C36.0156 60.6445 35.918 60.7812 35.8398 60.8008C35.5664 60.918 35.293 61.0742 35 61.0937C34.8047 61.1523 34.5898 60.9961 34.3555 60.918Z" fill="#F7FBFC"></path>
    <path d="M47.2852 80.1172C47.2461 80.1172 47.207 80.1172 47.1875 80.1172C46.5039 79.9023 45.8203 79.668 45.2539 79.2383C45.1953 79.1797 45.1367 79.0234 45.1758 78.9453C45.293 78.6719 46.0938 78.2812 46.4062 78.3594C46.6992 78.4375 46.9727 78.5742 47.2461 78.6914C47.2852 78.7109 47.3438 78.7891 47.3438 78.8281C47.3438 79.1211 47.3242 79.4336 47.3047 79.7266C47.3047 79.8438 47.2852 79.9609 47.2852 80.1172Z" fill="#F7FBFC"></path>
    <path d="M56.6797 75.293C56.5039 75.2539 56.4062 75.2344 56.3281 75.1953C55.7422 74.9609 55.1172 74.7851 54.6094 74.3945C54.4141 74.2578 54.3945 74.1211 54.5898 73.9844C54.8047 73.8281 55.0195 73.6719 55.2539 73.5547C55.4883 73.418 55.7422 73.457 55.9766 73.5547C56.1719 73.6328 56.3672 73.6914 56.5234 73.7891C56.6016 73.8281 56.6797 73.9648 56.6797 74.0625C56.6797 74.4531 56.6797 74.8437 56.6797 75.293Z" fill="#F7FBFC"></path>
    <path d="M65.3906 70.2148C65.2148 70.1758 65.1172 70.1562 65.0391 70.1172C64.4531 69.8828 63.8281 69.707 63.3203 69.3164C63.1445 69.1797 63.1055 69.043 63.3008 68.9062C63.5156 68.75 63.7305 68.5937 63.9648 68.4766C64.1992 68.3398 64.4531 68.3789 64.6875 68.4766C64.8828 68.5547 65.0781 68.6133 65.2344 68.7109C65.3125 68.75 65.3906 68.8867 65.3906 68.9844C65.3906 69.3945 65.3906 69.7851 65.3906 70.2148Z" fill="#F7FBFC"></path>
    <path d="M45.1953 55.5859C45.1953 55 45.1953 55 45.7422 55.1172C45.8789 55.1563 46.0742 55.2148 46.0938 55.3125C46.1328 55.5078 46.0742 55.7227 45.8984 55.8398C45.7617 55.9375 45.625 55.9961 45.4688 56.0742C45.293 56.1523 45.2148 56.0742 45.2148 55.8789C45.2148 55.8203 45.2148 55.7617 45.2148 55.7227C45.1953 55.6641 45.1953 55.6055 45.1953 55.5859Z" fill="#F7FBFC"></path>
    <path d="M33.1836 63.3203C33.0664 63.2422 32.9102 63.1641 32.832 63.0469C32.793 62.9883 32.9102 62.832 32.9492 62.7344C32.9688 62.6953 33.0273 62.6562 33.0664 62.6172C33.1836 62.5195 33.2812 62.3633 33.3984 62.3438C33.5156 62.3242 33.6328 62.4609 33.7695 62.5195C33.8672 62.5586 33.9844 62.5781 34.0625 62.6367C34.1016 62.6758 34.1406 62.832 34.1211 62.832C33.8281 62.9883 33.5352 63.125 33.2422 63.2617C33.2227 63.2617 33.2031 63.2617 33.2031 63.2617C33.2031 63.2812 33.2031 63.3008 33.1836 63.3203Z" fill="#F7FBFC"></path>
    <path d="M35.2539 61.3672C35.6836 61.1328 36.1133 61.0547 36.6016 61.1914C36.6797 61.2109 36.7773 61.1914 36.8555 61.1524C36.9336 61.1328 37.0117 61.0742 37.1289 61.0742C36.582 61.4063 36.0156 61.7383 35.4688 62.0898C35.4883 61.9531 35.5664 61.8164 35.5273 61.6992C35.4883 61.5625 35.3516 61.4649 35.2539 61.3672Z" fill="#F7FBFC"></path>
    <path d="M24.1211 66.5039C24.5117 66.6992 24.8438 66.8555 25.2344 67.0508C25 67.2656 24.7852 67.4609 24.5508 67.6367C24.4336 67.7344 24.2969 67.6367 24.2383 67.4414C24.2383 67.4219 24.2188 67.4023 24.2188 67.3633C24.1797 67.0898 24.1602 66.8164 24.1211 66.5039Z" fill="#F7FBFC"></path>
    <path d="M40.7422 56.8945C41.1328 57.0898 41.4648 57.2461 41.8555 57.4414C41.6016 57.6562 41.3867 57.8516 41.1719 58.0273C41.0547 58.125 40.8984 58.0273 40.8789 57.8125C40.8203 57.5391 40.7812 57.2461 40.7422 56.8945Z" fill="#F7FBFC"></path>
    <path d="M33.0859 62.1289C32.8516 62.3438 32.6367 62.5391 32.4219 62.6953C32.2852 62.8125 32.1484 62.7148 32.0898 62.5195C32.0898 62.5 32.0703 62.4805 32.0703 62.4414C32.0312 62.168 32.0117 61.8945 31.9727 61.582C32.3633 61.7578 32.6953 61.9336 33.0859 62.1289Z" fill="#F7FBFC"></path>
    <path d="M26.1328 67.5977C25.8008 67.793 25.5078 67.9687 25.2148 68.125C25.1758 68.1445 25.0586 68.0859 25 68.0273C24.9609 67.9883 24.9414 67.8516 24.9609 67.832C25.1367 67.6367 25.332 67.4414 25.5078 67.2656C25.5273 67.2461 25.6055 67.2461 25.625 67.2656C25.8008 67.3438 25.9375 67.4609 26.1328 67.5977Z" fill="#F7FBFC"></path>
    <path d="M27.3828 66.2109C27.7344 66.1328 28.0859 66.0547 28.418 65.9766C28.4375 66.0156 28.4375 66.0352 28.457 66.0742C28.2031 66.2109 27.9492 66.3867 27.6758 66.4844C27.6172 66.5039 27.4805 66.3672 27.3633 66.3086C27.3828 66.2891 27.3828 66.25 27.3828 66.2109Z" fill="#F7FBFC"></path>
    <path d="M42.3438 57.7734C42.1289 57.9297 41.8945 58.0664 41.6797 58.2227C41.6602 58.2031 41.6406 58.1836 41.6211 58.1641C41.7969 57.9883 41.9727 57.832 42.168 57.6758C42.207 57.6562 42.2852 57.6953 42.3438 57.7148C42.3438 57.7148 42.3438 57.7539 42.3438 57.7734Z" fill="#F7FBFC"></path>
    <path d="M37.8906 60.4492C37.8906 60.3516 37.8906 60.2539 37.8906 60.1758C37.9492 60.1953 38.0273 60.2148 38.0859 60.2539C38.0469 60.332 38.0273 60.4102 37.9883 60.4883C37.9688 60.4688 37.9297 60.4492 37.8906 60.4492Z" fill="#F7FBFC"></path>
    <path d="M44.0234 56.6602C44.1992 56.6016 44.375 56.5234 44.5312 56.4648C44.5312 56.4844 44.5508 56.5039 44.5508 56.5234C44.375 56.582 44.2578 56.7773 44.0234 56.6602Z" fill="#F7FBFC"></path>
    <path d="M81.6797 35.3711C81.25 35.1563 80.8203 35 80.4492 34.7656C79.668 34.2773 78.8672 33.8672 78.0469 33.4766C77.3633 33.1445 76.7188 32.7344 76.0547 32.3438C74.8047 31.582 73.5547 30.8008 72.3242 30.0195C71.6602 29.6094 71.0352 29.1797 70.3711 28.7891C69.7656 28.4375 69.1406 28.1055 68.5352 27.7539C67.5781 27.207 66.6406 26.6211 65.7031 26.0742C64.4922 25.3906 63.2812 24.707 62.0898 24.0234C61.2109 23.5156 60.332 22.9883 59.3555 22.6367C59.2969 22.6172 59.2578 22.5391 59.2188 22.4805C59.1406 22.3438 59.082 22.207 59.0039 22.0703C58.8672 21.7969 59.043 21.2695 59.3359 21.1523C59.3945 21.1328 59.4727 21.1523 59.5312 21.1914C60.1562 21.5234 60.7812 21.8555 61.4258 22.168C61.9141 22.4023 62.4023 22.6172 62.8711 22.8711C63.4375 23.1836 63.9648 23.5742 64.5117 23.9063C64.7656 24.0625 65.0195 24.1992 65.293 24.3359C66.0352 24.7461 66.7969 25.1367 67.5391 25.5469C68.3984 25.9961 69.2578 26.4453 70.0781 26.9336C71.0156 27.4805 71.9141 28.0859 72.832 28.6523C73.3984 29.0039 74.0039 29.3164 74.5703 29.6484C75.2148 30.0195 75.8594 30.4297 76.5234 30.8008C77.0117 31.0938 77.4805 31.3672 77.9688 31.6602C78.4961 31.9727 79.0039 32.3047 79.5312 32.5977C80.1758 32.9688 80.8398 33.3203 81.5039 33.6523C81.7969 33.7891 81.8555 33.9258 81.8359 34.2383C81.7773 34.5898 81.7188 34.9609 81.6797 35.3711Z" fill="#FFBA59"></path>
    <path d="M38.6328 69.7461C38.6328 69.9805 38.5547 70.1758 38.3594 70.3125C37.8711 70.7031 37.3633 71.0742 36.8945 71.4844C36.6406 71.6992 36.3867 71.6602 36.1328 71.5234C35.3516 71.0938 34.5703 70.6055 33.7695 70.2148C33.3203 70 33.2227 69.6875 33.1641 69.2773C33.1055 68.9844 33.2031 68.75 33.4375 68.5742C33.8281 68.2812 34.1992 67.9883 34.6094 67.7148C34.8828 67.5195 35.1758 67.4414 35.5078 67.5391C35.6055 67.5781 35.7227 67.5391 35.8203 67.5195C36.2109 67.4414 36.5234 67.5977 36.6992 67.9688C36.7383 68.0469 36.8359 68.125 36.9336 68.1641C37.3633 68.3984 37.793 68.6328 38.2227 68.8477C38.5742 69.043 38.6133 69.375 38.6328 69.7461Z" fill="#1D2426"></path>
</svg>