<svg xmlns="http://www.w3.org/2000/svg" xml:space="preserve" id="Layer_1" x="0" y="0" version="1.1" viewBox="0 0 512 512"><style>.st0{display:none}.st1{display:inline}.st2{fill:#91caed}.st3{fill:#fff}.st4{fill:#f6d7b4}.st7{fill:#fbf08e}.st8{fill:#f1c5cb}.st9{fill:#eebd77}</style><g id="_x33_I52Ar.tif"><path d="M464.8 385.2c-3.9-2.2-7.8-4.3-11.6-6.6-4.3-2.6-8.4-5.3-12.6-8.1-3.8-2.5-7.6-5.2-11.4-7.8-5.1-3.6-10-7.3-15.1-10.7-5.2-3.5-10.7-6.6-16-9.9-6.4-4.1-12.8-8.3-19.2-12.5-3.4-2.2-6.8-4.5-10.3-6.8-.9-.6-1.7-1.2-1.6-2.5 0-.3-.2-.7-.5-1.1-2-3-5-4.2-8.5-4.3-.9 0-2-.1-2.8-.5-7.1-3.5-14.2-7.1-21.3-10.6-2.7-1.4-5.6-2.4-8.1-4.2-5-3.6-10-7.1-15.3-10.3-2.8-1.7-5.4-3.6-8.2-5.2-3.9-2.3-7.9-4.5-11.9-6.6-2.7-1.5-5.5-2.9-8.4-4.1-2.5-1.1-5.1-1.9-7.6-2.9-1.1-.4-2.2-.9-3.3-1.1-1.8-.2-3.6-.2-5.4-.3-.4 0-.9-.1-1.2-.3-2.5-1.6-5.2-2.6-8.3-2.6v-3.9c-.1-4.9-.3-9.8-.3-14.7 0-4.2.1-8.4.2-12.6.2-5.3.6-10.5.9-15.8.3-4.7.7-9.4.8-14.1.1-3.7-.1-7.4-.1-11.1-.1-4.8-.1-9.5-.1-14.2 0-5.8 0-11.5.1-17.2.1-8.3.2-16.6.2-24.9 0-5.1-.3-10.3-.4-15.4 0-2 .1-4.1.1-6.1 0-3.9-.1-7.7-.2-11.6 0-6.3 0-12.7-.1-19 0-6.9-.2-13.8-.2-20.7 0-2.2-.1-4.3-.1-6.5 0-.5-.2-.9-.3-1.4h-.5c-.1.5-.2 1-.2 1.5v14.1c-.1 7.3-.4 14.5-.5 21.8-.1 8.2.1 16.4.1 24.7 0 4.2-.3 8.4-.3 12.6-.1 4.2-.1 8.4-.2 12.5-.1 5.9-.4 11.9-.5 17.8-.1 5.6-.1 11.2-.1 16.9 0 1.3.1 2.5.1 3.8 0 2.6-.2 5.3-.2 7.9.1 4.1.2 8.2.4 12.3 0 .8.2 1.6.2 2.3-.2 4-.6 8-.7 11.9-.1 3.5-.1 7-.1 10.4 0 3.5.1 7.1 0 10.6 0 4.8-.2 9.6-.2 14.3 0 4.1.3 8.2.5 12.1-.5.2-1.1.3-1.6.6-2.3 1.2-4.5 2.6-6.8 3.8-3.2 1.6-6.5 3-9 5.7-.4.5-1.4.7-2 .6-1-.2-2-.7-3-1.2-.4-.2-.8-.8-.9-1.3-.3-1.6-.4-3.2-.6-4.7-.7-4.5-1.9-8.9-3.7-13.1-1.2-2.7-2.7-4.7-5.7-5.6-5.3-1.8-10-.9-14.2 2.5-1.9 1.6-3.3 3.8-4.9 5.7-.4.5-.8 1.3-.8 1.9-.2 2.3-.5 4.7-.4 7 .2 2.3.9 4.5 1.3 6.8.5 2.2.8 4.4 1.4 6.5.3 1.2.2 1.8-1 2.2-1.5.5-2.2 1.5-2.3 3.1-.1 1.7.7 2.6 2.1 3.2.5.2 1.1.4 1.5.8.5.4 1 .9 1.2 1.5.7 2.5.2 3.3-2.2 4.3-.3.1-.6.3-.9.4-2.9 1.6-5.7 3.1-8.6 4.7-.4.2-1 .4-1.4.2-1.6-.6-3.2-1.4-4.8-2.2-.4-.2-.9-.8-1-1.3-.3-1.6-.4-3.2-.6-4.7-.7-4.5-1.9-8.9-3.7-13.1-1.2-2.7-2.7-4.7-5.7-5.6-5.2-1.7-10-.9-14.2 2.5-1.9 1.5-3.3 3.7-4.8 5.6-.5.6-.9 1.4-1 2.2-.2 2.3-.5 4.6-.3 6.9s.9 4.5 1.3 6.8c.4 2.2.8 4.4 1.4 6.5.3 1.2.2 1.8-1 2.1-.2 0-.3.2-.4.2-1.7.7-1.8 2.1-1.8 3.7 0 1.3.8 1.9 1.8 2.3 2.6.9 3.5 2.7 3.1 5.3-.1.4 0 .8 0 1.2.1.9-.4 1.3-1.1 1.7-2 1-4.2 1.8-6.1 3.1-2.1 1.5-3.9 1.4-5.9.1-.1-.1-.2-.1-.3-.2-.4-.5-.9-.9-1-1.5-.4-2.2-.7-4.5-1-6.7-.6-3.9-1.9-7.5-3.4-11.1-1.1-2.7-2.6-4.5-5.5-5.5-5.3-1.8-10.1-1-14.3 2.5-1.9 1.5-3.3 3.7-4.8 5.6-.6.8-1 1.9-1.2 3-.2 2-.5 4.1-.2 6.1.7 4.2 1.6 8.4 2.5 12.5.5 2.2.6 2.2-1.3 3.2-1.5.8-1.6 2.2-1.6 3.7 0 1.2.8 1.7 1.6 2.1.7.4 1.4.7 2.1 1.1 1.2.7 1.6 3.7.6 4.5-.8.6-1.7 1.2-2.6 1.7-2.5 1.4-5.1 2.8-7.7 4.2-4.7 2.6-9.4 5.3-14.1 7.9-4 2.2-8 4.3-11.9 6.6-2.9 1.7-5.6 3.7-8.5 5.4-4.3 2.6-8.6 5-12.9 7.5-2.7 1.6-5.4 3.2-8.2 4.8L40 388.3c-1.8 1-3.7 2-5.5 3.1 1.2-.2 2.4-.5 3.5-1.1 2.7-1.4 5.4-2.8 8.1-4.3 3.3-1.9 6.6-3.8 9.8-5.8 2.5-1.6 5-3 7.9-3.8 2.6-.8 5.1-1.8 7.5-2.9 2-1 3.9-2.3 5.9-3.4 5-2.9 10.1-5.8 15.1-8.7 3.8-2.2 7.4-4.5 11.2-6.6 5-2.8 10.1-5.6 15.2-8.3.2-.1.6-.2.8-.2.5 2.3-.8 5.2 2.5 6.8-.4.5-1 .7-1.4 1.1-1.5 1.5-1.7 4-.6 5.8 1.4 2.2 3.6 3.6 5.8 4.8 3.4 1.8 6.8 3.6 10.3 5.3.2.1.4.3.7.5-.5.2-.9.2-1.4.1-1.6-.1-3.1-.3-4.6-.3-.4 0-1 .4-1.2.8-.4.8 0 1.4.8 1.6 1.3.2 2.6.3 3.9.4h1.5c-1.8 2.2-3.5 4.2-5.1 6.2-.6.7-1.1 1.5-1.5 2.3-.2.4-.1 1-.1 1.5.5-.1 1.2 0 1.5-.4 1.3-1.3 2.5-2.8 3.7-4.2 1.1-1.2 2.1-2.5 3.4-4 .5.9.8 1.5 1.2 2.1 1.2 2 2.4 4 3.8 5.9.2.3.9.3 1.4.5 0-.5.3-1 .1-1.4-1.3-2.4-2.6-4.7-4-7v-.4c1.1.5 2.1 1 3.2 1.4 1.4.5 2.9.7 4.2 1.3 4 1.8 8 3.7 11.9 5.6.5.2 1 1 1 1.6.1 2.6.1 5.2.1 7.7 0 1 0 2-.1 3-.1 1.8-.5 3.6-.3 5.3.2 3.1 0 6.2-.4 9.3-.2 1.8 0 3.6.1 5.4 0 1.3.1 2.6.2 4-.5-.2-.8-.3-1-.5l-15.9-7.8c-1.7-.9-3.3-.1-4.8.5-.3.1-.6.8-.6 1.2-.1 2.1.8 3.7 2.5 4.8 3.2 2.1 6.4 4.1 9.6 6.1.9.6 1.8 1.2 2.8 1.7 2.9 1.7 5.8 3.3 8.8 4.9 3.6 2 7.2 4.1 10.8 6 2.4 1.3 4.9 2.4 7.5 3.5.9.4 1.9.9 2.8.7 1.4-.2 2.7-.9 4-1.5.2-.1.3-.3.4-.6.6-2.1.1-3.6-1.8-4.7s-3.8-2.1-5.7-3.2c-4.3-2.4-8.5-4.7-12.8-7-1.2-.6-1.4-1.4-1.2-2.6.2-2.6.4-5.2.5-7.9.1-2.1-.1-4.2 0-6.3.1-4.9.2-9.7-.4-14.6-.2-2 0-4 0-6.3 2.4 1.1 4.8 1.9 6.9 3.1 3.7 2.1 7.4 4 11.4 5.6 1.6.6 3 1.8 4.6 2.5 2 .9 4 1.7 6 2.6.7.3 1.3.8 2 1.1 3 1.5 6.5 1.6 9.7 2.3.5.1 1.2 0 1.7-.2 1.3-.6 2.7-1.2 3.9-2 3.4-2.1 6.7-4.3 10.1-6.4 4.7-2.8 9.5-5.6 14.2-8.3 2.9-1.7 5.9-3.3 8.9-5 .2-.1.4-.2.7-.3-.9 4.9-1.8 9.6-2.7 14.4-.1.6-.4.8-1 .6-2-.7-4.1-1.3-6.1-2.2-2.5-1.1-4.9-1-7.3.1-1.8.8-2 2.3-.3 3.3 1.1.7 2.3 1.2 3.5 1.7 1 .4 2.1.7 3.4 1.1-.9.6-1.6 1-2.2 1.4-1.1.8-2.2 1.5-3.2 2.3-1.9 1.7-1.4 5.5.9 6.7 3.7 1.9 7.4 3.9 11.2 5.6 2.2 1 4.6 1.9 7 2.4 1.9.4 2 .4 1.9 2.3-.1 2.1-.1 4.3.1 6.4.3 4.1.8 8.1 1.2 12.2-.1.1-.3.2-.4.3-1.8-.6-3.6-1.3-5.3-1.9-.7-.2-1.7-.9-2.1.1-.3 1 .9 1.1 1.6 1.4 1.5.7 3.1 1.4 4.6 2 0 .2.1.3.1.5-2.9 1.7-5.9 3.5-8.8 5.2-.6.4-1.3.6-1.8 1.1-.3.3-.6 1-.5 1.3.1.4.7.7 1.2.8.4.1 1 0 1.4-.2 2.1-1.1 4.2-2.3 6.2-3.5 1.2-.7 2.3-1.6 3.6-2.5-.1 2.4-.3 4.7-.3 6.9 0 1.2.2 2.5.5 3.6.2.8.9.8 1.2 0 .4-1 .7-2.2.8-3.3.2-2.2.2-4.5.3-6.7.1 0 .2-.1.4-.1.4.4.8.8 1.3 1.2 2.6 1.9 5.2 3.9 7.8 5.7.4.3 1.2.1 1.9.1-.2-.6-.3-1.3-.5-1.9-.1-.2-.4-.4-.7-.5-1.4-1-2.8-1.9-4.2-3-1.7-1.3-3.2-2.8-5.1-4.4.9-.3 1.5-.4 2-.6 1.3-.4 2.6-.7 3.8-1.2.4-.1.5-.8.8-1.2-.4-.2-.8-.6-1.2-.6-.4-.1-.9.1-1.4.3-1.6.4-3.1.8-4.9 1.2-.1-1-.2-1.8-.2-2.6 0-2.4.1-4.7.1-7.1 0-3.3-.1-6.6-.2-9.9 0-1.3.5-2 1.7-2.3 1.7-.5 3.4-1 5-1.7 1.7-.8 3.4-1.8 5.1-2.7.7-.4 1.3-1 2-1.3 4.1-1.6 6-4.7 5.4-8.4-.3-1.9-.3-3.8-.1-5.7.2-3.7.7-7.5.9-11.2.2-4.4.2-8.8.3-13.2.1-2.4-1.1-3.9-2.9-5.2-.7-.5-1.5-.9-2.3-1.3-.3-.1-.5-.3-1-.5.3-.2.5-.4.7-.5 2.5-1.8 4.9-3.6 7.8-4.8 1.8-.7 3.5-2 5.2-3l11.7-6.9c.4-.2.9-.4 1.3-.6-.7 2.6-1.6 4.9-2.1 7.4-.9 4-1.6 8.1-2.3 12.2-.1.6-.3.9-1 .7-2-.7-4.1-1.3-6.1-2.2-2.5-1.1-4.9-1-7.3.1-1.8.8-2 2.3-.3 3.3 1.1.7 2.3 1.2 3.5 1.7 1 .4 2.1.7 3.4 1.1-.9.6-1.6 1-2.2 1.4-1.1.8-2.2 1.5-3.2 2.4-1.9 1.7-1.4 5.5.9 6.7 3.7 1.9 7.4 3.9 11.2 5.7 2.5 1.2 5 2.5 7.9 2.5.3 0 .8.5.9.9.2.4 0 .9 0 1.4.1 2.3.1 4.6.2 6.9.3 3.9.7 7.8 1 11.7-.1.1-.3.2-.4.3-1.8-.6-3.5-1.3-5.3-1.9-.7-.2-1.7-.9-2.1.1s.8 1.1 1.5 1.4q2.25 1.05 4.8 2.1c-1.6 1.1-2.9 2.2-4.3 3.1-1.5.9-3.1 1.7-4.6 2.5-.6.3-1.3.6-1.9 1.1-.3.3-.6 1-.4 1.3.1.4.7.7 1.2.8.4.1 1 0 1.4-.2 2.1-1.1 4.2-2.3 6.2-3.5 1.2-.7 2.3-1.6 3.6-2.5-.1 2.4-.3 4.7-.3 6.9 0 1.2.3 2.4.5 3.5 0 .2.4.7.6.6.3 0 .7-.3.8-.6.3-1.1.7-2.2.8-3.3.2-2.2.2-4.4.3-6.6.1 0 .2-.1.4-.1.4.3.7.6 1.1.9 2.6 2 5.2 4 7.8 5.9.7.5 1.6.9 2.1 0 .2-.4-.5-1.3-.8-2-.1-.2-.3-.2-.5-.4-1.4-1-2.8-1.8-4.1-2.9-1.7-1.3-3.2-2.8-5.1-4.4.9-.3 1.5-.4 2-.6 1.3-.4 2.6-.8 3.8-1.3.4-.1.5-.8.8-1.2-.4-.2-.8-.6-1.2-.6-.4-.1-.9.2-1.4.3-1.6.4-3.1.8-4.9 1.2-.1-1-.2-1.8-.2-2.6 0-2.4.2-4.7.1-7 0-3.3-.1-6.5-.2-9.8 0-1.6.2-2 1.8-2.5s3.3-1 4.9-1.7q2.55-1.2 5.1-2.7c.7-.4 1.3-1 2-1.3 4.1-1.6 6-4.7 5.4-8.4-.3-1.9-.3-3.8-.2-5.7.2-3.8.6-7.5.9-11.3.1-.8 0-1.6 0-2.5 1.4.7 2.5 1.2 3.6 1.7 4 2 8 4.1 12.1 6 1.1.5 2.4.8 3.7.9 1.8.2 1.9.4 1.8 2.3-.1 2.1-.2 4.3.1 6.3.5 3.3.8 6.6.9 10v2.7c-2-.7-3.8-1.4-5.6-2-.7-.2-1.6-.8-1.9.1-.4 1 .7 1.1 1.4 1.4 1.6.7 3.2 1.4 5.1 2.2-3.1 2.1-5.7 4.3-8.9 5.6-.6.3-1.3.5-1.8 1-.3.3-.7 1.1-.6 1.4.2.4.9.7 1.4.9.3.1.8 0 1.2-.2 2.1-1.1 4.2-2.3 6.2-3.5 1.2-.7 2.3-1.6 3.6-2.5-.1 2.4-.3 4.6-.3 6.9 0 1.2.2 2.4.5 3.6.2.8.9.9 1.2.1.4-1 .7-2.2.8-3.3.2-2.3.2-4.5.3-6.8.7.2 1 .5 1.4.8 2.6 2 5.2 4 7.9 5.9.6.5 1.6 1 2.1.1.5-.8-.1-1.6-.8-2.1-.1-.1-.3-.2-.4-.3-1.9-1.4-3.9-2.8-5.8-4.3-1.1-.9-2-2.1-3-3.2 1.8-.6 3.5-1.1 5.2-1.7.6-.2 1.3-.6 1-1.3-.2-.4-1-.5-1.5-.6-.3-.1-.7.1-1 .2-1.5.4-3.1.8-4.9 1.2-.1-1-.2-1.7-.2-2.5 0-2.4.2-4.8.1-7.2 0-3.2-.1-6.5-.2-9.7 0-1.8.2-2.1 1.9-2.7 1.6-.5 3.2-.9 4.7-1.6 1.8-.8 3.5-1.8 5.2-2.7.7-.4 1.2-.9 1.9-1.2 4.7-1.9 5.9-4.8 5.5-8.4-.3-2.4-.1-4.9 0-7.4.2-4.7.5-9.4.8-14.1.1-2 .3-3.9.4-6.1 1.3.9 2.4 1.6 3.5 2.3 6.6 4.3 13.3 8.6 19.9 12.8 2.8 1.8 5.6 3.7 8.4 5.4 5.4 3.4 10.8 6.7 16.2 10.2 3.4 2.2 6.7 4.7 10.1 7.1 4.5 3.2 9 6.4 13.7 9.5 5.1 3.4 10.3 6.6 15.6 9.8 3.8 2.3 7.6 4.5 11.4 6.8.4.2 1 .4 1.5.3.7-.1 1.3-.5 1.8-.8-.6-.4-2.2-1.2-3.8-2.2m-222.6 23c0 .6-.1 1.2-.1 2h-.5c-3.5-1.1-7-2.3-9.9-4.5-.3-.3-.6-1.1-.4-1.5.6-1.4 4.7-3.4 6.3-3 1.5.4 2.9 1.1 4.3 1.7.1 0 .2.2.4.3.1.1.2.3.2.4v1.1c-.2 1.2-.2 2.3-.3 3.5m48-22.7c-.9-.2-1.4-.3-1.8-.5-3-1.2-6.2-2.1-8.8-4.1-1-.7-1.1-1.4-.1-2.1 1.1-.8 2.2-1.6 3.4-2.2 1.2-.7 2.5-.5 3.7 0 1 .4 2 .7 2.8 1.2.4.2.8.9.8 1.4zm58.2-72.5c1.5.7 2.9 1.4 4.4 2.1v.3c-1.1.3-2.2.7-3.5 1.1-.4-1.2-.8-2.2-1.1-3.3zm-93.5-46.9c.1 1.2.1 2.1.2 3.2.4-.3.7-.5.8-.5 1.7.6 3.3 1.2 5.2 1.8-.9.5-1.7.8-2.3 1.2-3.9 2.4-7.7 4.8-11.6 7.2-.8.5-1.5.7-2.4.3-2.1-.8-4.2-1.6-6.3-2.6 5-4 11-6.6 16.4-10.6m-23.5 19.1v-.7c0-3 0-3 2.8-2.4.5.1 1.1.3 1.5.6.1 0 .1.1.2.1.1.1.1.2.2.2 0 .1 0 .2.1.3v.7c0 .1 0 .3-.1.4-.1.5-.5 1-1 1.3-.7.5-1.5.8-2.2 1.2-.5.2-.8.2-1 0-.1-.1-.2-.3-.3-.5 0-.1-.1-.3-.1-.5-.1-.1-.1-.4-.1-.7m-26.3-18.1c-.2-1.6-.3-3.2-.4-4.8V261c.1-1 .3-1.9.6-2.8.2-.5.4-1 .7-1.5s.7-1 1.1-1.5c.2-.2.3-.4.5-.5.4-.3.7-.7 1.1-.9.3-.2.7-.5 1.1-.7.3-.2.6-.4 1-.5 3-1.3 6-1.8 9.2-1.2 2 .4 3.6 1.3 4.8 2.8.2.3.5.6.7.9.4.6.7 1.4 1 2.2 1.8 5.1 2.6 10.4 2.6 15.7v4.7h.2v8.4c0 .2-.1.5-.3.7s-.4.5-.6.6c-1.3.6-2.7 1.1-4.2 1.6-.4.1-.9.1-1.2-.1-4.8-2.7-10-4.8-15.2-6.8-.1-.1-.2-.2-.4-.3l-.1-.1s0-.1-.1-.1c0-.1-.1-.1-.1-.2-.6-4.7-1.5-9.5-2-14.3m23 22.3c-.9.3-1.5 1.3-2.8.7.9-.3 1.8-.7 2.6-1 .2.1.2.2.2.3m-15 8.3c.9-.8 1.8-1.7 2.8-2.5.2-.1.6.1.9.2v.4c-1.1.8-2.3 1.5-3.4 2.3-.1-.1-.2-.3-.3-.4m-2.4-.6c-.6.5-1.4 0-1.5-1.1 0-.2-.1-.4-.1-.6 0-.4-.1-.8-.1-1.1-.1-1-.2-2-.4-3.1 2 1 3.7 1.8 5.7 2.8-1.3 1.2-2.4 2.2-3.6 3.1m-5.6-.3c.2 1.9.4 3.6.5 5.3v.3c-.5.9-3.5 1.9-4.5 1.5-1.6-.7-3.1-1.3-5-2.1 3.1-1.8 6-3.4 9-5M194 308c.3.1.7.2 1 .4-.2.4-.3.8-.5 1.2-.2 0-.4-.1-.5-.1zm-3.9-1.7c.8.2 1.1.5 1 1.7-.3.9-.7 2.2-1.2 3.5-.1.2-.4.4-.6.5-1.3.2-2.9-1.1-2.8-2.5.1-2 1.9-3.5 3.6-3.2m-2.7 6.9c.4.1.9 0 1.3-.2.4-.1.8-.4 1.4-.4-2.8 1.7-5.7 3.4-8.5 5.2.1-.7.5-1.4.3-2s-.8-1.1-1.3-1.7c2.2-1.2 4.4-1.6 6.8-.9m-27.6-25.5c-.1-1.2-.1-2.4.2-3.4.1-.4.1-.7.2-1.1 0-.2.1-.3.2-.5.3-.8.6-1.6 1.1-2.3.2-.3.4-.6.6-.8.1-.1.2-.3.3-.4s.2-.2.3-.4c.4-.4.9-.8 1.3-1.2.2-.1.3-.2.5-.3 1.7-1.1 3.8-1.8 6.2-2 2-.2 4-.1 6 .6 1.1.4 1.9 1 2.6 1.7.9.9 1.5 2 2 3.3.4 1 .7 2 1 3 1.2 4.3 1.7 8.7 1.8 13.2 0 2.2 0 4.4.1 6.5 0 1.6.1 3.3.1 4.9v1.6c0 .2-.1.5-.3.7s-.4.4-.6.5c-1.4.6-2.8 1.3-4.3 1.5-1 .1-2.1-.6-3.4-1 .6-.5.9-.8 1.2-1.1l.1-.1s-.1 0-.1.1c-1.6 1-2.8 0-4.2-.7-3.2-1.4-6.5-2.7-9.7-4.1-.2-.1-.4-.2-.6-.4l-.1-.1c-.1-.1-.2-.3-.2-.4-.4-2.9-.9-5.8-1.4-8.7-.3-2.8-.7-5.7-.9-8.6m10.1 36.5c-.5-.3-1-.6-1.4-1-.1-.1-.3-.2-.3-.4-.1-.1 0-.3 0-.5.1-.2.2-.5.4-.8.1-.1.1-.3.2-.4 0-.1.1-.1.1-.2s.1-.1.2-.1l.3-.3.4-.4c.1-.1.1-.2.2-.2l.2-.2c.3-.3.6-.5.9-.5.6-.1 1.2.6 1.9.9.5.2 1.1.3 1.5.6l.1.1c0 .1.1.1.1.2s.1.2.1.3c0 .2.1.5 0 .5-1.5.8-3 1.5-4.5 2.2h-.2c-.1 0-.1.1-.2.2M166 321c-.5.4-.9.3-1.2-.1-.1-.1-.2-.2-.2-.4-.1-.2-.1-.3-.2-.5 0-.1-.1-.2-.1-.4-.2-1.4-.3-2.8-.5-4.4 1.9.9 3.7 1.8 5.7 2.8-1.3 1.1-2.4 2.1-3.5 3m-5.8 2c.7 1.4 0 3.1 1.7 4.1 1.6 1 2.9.1 4.2-.4 0 .1.1.2.1.3-1.4.8-2.8 1.6-4.3 2.3-.2.1-.6 0-.9-.1-2-.8-4.1-1.6-6.1-2.4-.3-.1-.5-.3-1-.6 2.2-1.1 4.2-2.2 6.3-3.2m-14 7.4c1.5.4 2.7.7 3.8 1.1.3.1.8.6.8.8-.1 1.4-.3 2.8-1.5 3.9-.8.7-1.5.6-2.5.2-.9-.4-.6-1.1-.6-1.7zm-.6 7.4c0 .2.1.3.2.5-.6.3-1.1.6-1.7.9-.2.1-.4.2-.6.4-.6.3-1.1.6-1.7.8h-.2c-.2-.1-.3-.2-.5-.3-.3-.2-.5-.4-.8-.6v-.5c1.7-.4 3.5-.8 5.3-1.2m-23.4-6.8c-.1-.1-.2-.3-.2-.4-.2-1.6-.5-3.2-.7-4.8-.4-2.8-.9-5.6-1.2-8.4-.2-2-.5-4-.6-6s.3-3.8 1.2-5.3c.1-.2.2-.4.4-.6.2-.4.5-.8.9-1.1l.5-.5c.9-.8 1.9-1.5 3.1-2.1q4.5-2.1 9.3-1.2c3.3.6 5.3 2.7 6.4 5.9.8 2.2 1.3 4.5 1.8 6.7.1.3.1.6.2 1 .1.7.2 1.3.3 2 .1 1.3.3 2.6.3 4v6.8h.2v8.6c-.1.4-.5.9-.8 1.1-1.4.6-2.8 1.2-4.2 1.6-.4.1-1 0-1.3-.2-4.8-2.7-9.8-4.8-14.9-6.7-.4-.2-.5-.3-.7-.4m5.6 16.3c.5-.5.9-1 1.4-1.5s1-1 1.5-1.4c.1-.1.5-.1.6 0 .8.5 1.5 1 2.5 1.7-1.6 1-3.1 1.9-4.7 2.7-.2.1-.8-.2-1.1-.5-.1-.1-.1-.2-.2-.3 0-.3-.1-.6 0-.7m-2.2-1c-.5.4-.9.2-1.3-.3-.1-.2-.2-.4-.3-.7 0-.1-.1-.2-.1-.3-.1-.9-.2-1.7-.3-2.7-.1-.5-.1-1.1-.2-1.8 2 1 3.7 1.8 5.6 2.8-1.1 1-2.2 2-3.4 3M270 371.1c2.7 1.1 3 3.6 3 6v1.4c0 .4 0 .8-.1 1.2-.1.8-.1 1.7-.2 2.6.1.4.2.9.1 1.3-.2 2.9 0 5.9-1 8.7v2c0 1.2.2 2.5.2 3.7 0 2 .1 4 .1 6.1 0 .8-.5 1.3-1.3 1.9-4.2 2.8-8.7 5-13.3 7-2.1.9-4.3 2.1-6.9 1.8-1.8-.3-2.7-.8-3-2.7-.2-1.6-.3-3.2-.4-4.8 0-2.7 0-5.3.2-8 .2-3.4.5-6.8.9-10.1.3-2.7.7-5.3 1.4-7.9.1-.5.3-.9.5-1.4 0-.8.2-1.5.6-2.2 2.5-4.6 7.4-7.5 12.4-8h1.4c1.8.1 3.6.7 5.4 1.4m22.8-24.4c-3.1 1.8-6.1 3.7-9.2 5.6-4.2 2.5-8.4 5-12.5 7.5-3.5 2.1-7 4.3-10.6 6.2-1.8 1-3.9 1.5-5.7 2.5-1.6.9-3.1 2.1-4.5 3.3-1.6 1.3-3.1 2.8-4.9 3.8-5.4 3.2-11 6.1-16.5 9.2-3.4 1.9-6.8 3.6-10 5.8-3.1 2.2-6.5 4-9.8 5.9-.1 0-.1.1-.2.1-2.5 2.3-5.3 1.7-8.1.8-3-1-5.8-2.2-8.5-3.9-1.9-1.2-4.1-2.1-6.1-3.1-3.6-1.8-7.3-3.4-10.9-5.3-7-3.6-13.9-7.4-20.9-11-6.3-3.2-12.7-6.3-19-9.4l-11.1-5.7c-.9-.5-1.9-1-2.8-1.6-.2-.2-.4-.6-.4-.9-.1-1.3.7-2.3 1.6-2.9 3.7-2.3 7.4-4.5 11.2-6.6 5.5-3 11-5.8 16.4-8.8 3.1-1.7 6.1-3.7 9.2-5.4s6.3-3.1 9.4-4.7c4.5-2.4 9.1-4.8 13.5-7.5 4.8-2.9 9.6-5.9 14.2-9.1 5.4-3.8 11.1-7.1 16.9-10.2 3.7-2 7.3-4.2 10.9-6.2 5.5-3.1 11.1-6 16.6-9.1 2.8-1.6 5.5-3.5 8.3-5.2 3.4-2.1 6.8-4.1 10.2-6.2 1.7-1 3.4-2.2 5.2-3.1.6-.3 1.3-.2 1.7-.3 2.6.1 4.9.1 7.1 1.5 2 1.3 4.5 1.9 6.8 3 3.6 1.7 7.2 3.5 10.7 5.3.7.3 1.3.8 1.9 1.2 2.8 1.6 5.5 3.1 8.3 4.8 2.5 1.5 4.9 3 7.3 4.5 3.1 2 6.1 3.9 9.1 6 2.2 1.5 4.3 3.1 6.5 4.6 2.1 1.4 4.2 2.8 6.4 4.1 1.5.9 3.1 1.8 4.7 2.6.7.3 1.4.5 2.1.8 2.8 1.3 5.6 2.6 8.4 4 .2.1.3 1.1.1 1.4-.6.8-1.4 1.5-2.2 2-3.5 2.2-7.2 4.4-10.7 6.5-4 2.4-8 4.8-12 7.1-2.5 1.4-5.2 2.5-7.8 4-4 2.3-8 4.7-12 7-2.7 1.9-5.5 3.5-8.3 5.1m27 32.3v.1c0 .2-.1.5-.2.7-.1.4-.7.6-1.1.9-4.1 3-8.6 5.1-13.2 7.1-2.2 1-4.4 2.2-7.1 1.8-1.7-.3-2.5-.8-2.9-2.5-.3-1.5-.4-2.9-.4-4.4v-7.1c0-1.8.1-3.6.3-5.3.1-1.2.2-2.4.4-3.6s.3-2.4.4-3.6c.1-.6.2-1.1.3-1.7v-.2c.1-.6.2-1.1.3-1.6.2-1.2.5-2.4.8-3.5.2-.8.5-1.6.8-2.4.6-1.6 1.3-3.1 2.3-4.4.2-.2.3-.4.5-.6l.6-.6c1-1 2.2-1.8 3.6-2.3 1.8-.7 3.7-1 5.5-1.4 3 .1 5.6 1.1 8.1 2.6.1.1.2.1.3.2l.3.3c.2.2.3.4.4.7.7 1.5 1 3.1.9 4.9q-.75 8.55-1.2 17.1c0 .9 0 1.9.1 2.8 0 .2.1.5.1.8l.3 3c0 .6 0 1.2-.1 1.8 0-.1-.1.1-.1.4m15-19.5c-.9-.2-1.4-.3-1.8-.5-3-1.2-6.2-2.1-8.8-4.1-.7-.5-.9-1-.7-1.5.1-.1.1-.2.3-.4.1-.1.2-.2.3-.2 1.1-.8 2.2-1.6 3.4-2.2s2.5-.5 3.7 0c1 .4 2 .7 2.8 1.2 0 0 .1.1.2.1 0 0 .1.1.1.2.3.3.5.8.5 1.1 0 .9.1 1.9.1 2.9-.1 1.1-.1 2.2-.1 3.4m-12.1-7.5v-5c1.6.5 3.2 1 5.1 1.5-1.8 1.3-3.3 2.3-5.1 3.5m14.4-16.4c-.5 2.8-1 5.6-1.5 8.3-.1.6-.4.8-1 .6-2-.7-4-1.2-6-2.1-2.6-1.2-5-1.1-7.5.1-.7.4-1.3.4-2-.1-1.6-1.2-3.5-1.6-5.5-1.6h-1.3c0-.1-.1-.2-.1-.4 9.5-5 19.3-9.5 28-16.5-.6 2.1-1.2 3.8-1.7 5.6-.5 2-1 4.1-1.4 6.1m28.3-9.3c-.1 1.5-.2 2.9-.3 4.4-.3 4.4-.7 8.7-.9 13.1v.5c0 .9.2 1.8.2 2.6.1 1.7.4 3.3.3 5-.1 1.2-.4 2.4-1.8 3.2-5.5 3.4-11.2 6.4-17.4 8.5-1.1.4-2.5.2-3.8 0-.4-.1-.7-.2-.9-.5-.2-.2-.4-.5-.6-.8-.2-.4-.3-.8-.4-1.2-.1-.6-.2-1.3-.2-2 0-.4-.1-.9-.1-1.4.4-4.9-.1-10 .4-15.1.1-1.3.3-2.7.5-4 .1-.4.1-.7.2-1.1.4-2.5.5-5.1 1.4-7.4.9-2.7 2-5.4 3.9-7.5.2-.2.3-.4.5-.5.5-.5 1.1-1 1.7-1.4 3.1-2 6.5-2.7 10-1.9 1.8.4 3.4 1.9 5.2 2.9.4.2.8.5 1 .8l.1.1c.2.2.3.4.4.6s.2.3.2.5c.4.8.5 1.7.4 2.6"/><path d="M419.9 173c0-.7 0-1.2-.8-1.6-3.7-2-7.3-3.9-10.9-6-5.8-3.5-11.4-7.3-17.1-10.8-3.4-2.1-7-3.8-10.5-5.8-4.4-2.6-8.6-5.5-13-8.1-7-4.1-14.1-8.2-21.2-12.2-5.3-3-10.8-5.7-16.1-8.6-3-1.7-5.8-3.7-8.8-5.4-2.3-1.3-4.8-2.5-7.3-3.7-2.7-1.4-5.5-2.7-8.2-4.1q-1.95-1.05-3.6.3c-1.5 1.3-2.8 2.8-2.3 4.8.5 2.2 1.4 4.5 3.8 5.4.9.4 1.2 1 1.2 2-.1 7.9-.2 15.7-.2 23.6v27.8c0 2.7.1 5.3 0 8 0 2.3-.2 4.6-.3 6.9-.1 3.7 0 7.3-.1 11-.1 3-.3 6.1-.4 9.2 0 .3.1.6.2.9.3 1.5 1.6 1.4 2.7 1.8-.3-.5-.6-.9-.9-1.3-1-1.6-1.4-3.4-.7-5.2.1-.3 0-.6 0-1v-7c.2-4.6.5-9.2.6-13.9.1-4.5-.1-9-.1-13.5 0-6.3.2-12.7.2-19v-13.1c0-4.1 0-8.2.1-12.3v-3.9c.5.2.7.2.8.3 4.3 2.3 8.7 4.5 12.9 6.8 3.9 2.2 7.7 4.5 11.5 6.8 3.3 1.9 6.5 3.8 9.8 5.8 3.4 2 6.8 4 10.1 5.9 2.2 1.3 4.6 2.4 6.8 3.8 3.8 2.3 7.6 4.7 11.4 7.1 6 3.8 12 7.5 17.9 11.3 3.6 2.3 7 4.7 10.9 6.5 5.7 2.7 11.3 5.7 17 8.5.8.4.9.9.9 1.7-.2 8.5-.2 17.1-.4 25.6-.2 5.4-.6 10.7-.9 16-.4 7.3-.8 14.7-1.1 22-.2 5.8-.2 11.6-.3 17.5 0 2.1-1.1 3.2-2.8 2.6-1.1-.4-2.2-1-3.2-1.6-1.4-.9-2.7-2-4.2-2.8-4.1-2.3-8.3-4.5-12.4-6.8-3.2-1.8-6.5-3.6-9.8-5.3-2-1-4-1.9-6-3-4.1-2.2-8.3-4.5-12.4-6.8-3-1.7-6-3.4-8.8-5.3-4.3-2.9-8.4-6.3-13.2-8.5-2.1-1-4.1-2.2-6.2-3.3-2.6-1.3-5.2-2.5-7.9-3.8-.1.1-.1.2-.2.3 1.2.6 2.4 1.3 3.6 1.9 3.9 2.1 7.9 4 11.6 6.4 6.6 4.3 13 9 20 12.8 7.3 4 14.6 7.9 21.9 11.9 6.5 3.5 12.9 7 19.3 10.6 2.5 1.4 5 2.8 7.5 4.1 1.6.8 4-.8 4.1-2.6.1-1.7.2-3.5.2-5.2l.3-13.3c.2-5.2.4-10.5.5-15.7.2-5.9.4-11.8.7-17.7.1-2.2.5-4.4.6-6.6l.3-22.3v-2c1 1 1.7 1 2.4-.1.4-.6.7-1.5.7-2.2 0-2-.2-4.3-.2-6.5m-1 2.2c-.2 1.9-.5 3.8-.8 5.9-2.2-1.1-4.4-1.9-6.3-3.1-4-2.5-8.1-4.6-12.3-6.6-3.5-1.7-6.8-3.8-10.2-5.8-6.4-3.9-12.8-7.9-19.1-11.9-3.3-2.1-6.6-4.3-10-6.3-3.1-1.8-6.3-3.5-9.4-5.3-4.9-2.8-9.7-5.8-14.5-8.6-6.2-3.5-12.4-7-18.5-10.5-4.5-2.6-9-5.3-14-7.1-.3-.1-.5-.5-.7-.8-.4-.7-.7-1.4-1.1-2.1-.7-1.4.2-4.1 1.7-4.7.3-.1.7 0 1 .2 3.2 1.7 6.4 3.4 9.7 5 2.5 1.2 5 2.3 7.4 3.6 2.9 1.6 5.6 3.6 8.4 5.3 1.3.8 2.6 1.5 4 2.2 3.8 2.1 7.7 4.1 11.5 6.2 4.4 2.3 8.8 4.6 13 7.1 4.8 2.8 9.4 5.9 14.1 8.8 2.9 1.8 6 3.4 8.9 5.1 3.3 2 6.7 4 10 5.9 2.5 1.5 5 2.9 7.4 4.3 2.7 1.6 5.3 3.3 8 4.8 3.3 1.9 6.7 3.7 10.1 5.4 1.5.7 1.9 1.4 1.7 3m69.4 224.6.8.8c-.1.1-.1.2-.2.3-3.7-2.2-7.1-4.7-10.4-7.5.1-.1.1-.2.2-.3l3 2.1c.8.7 1.6 1.4 2.5 2 .3.2.7.2 1.1.3.2 0 .4 0 .5.1 1.9 1.1 3.7 2.1 5.5 3.4-1-.5-1.9-1-2.8-1.5-.1.2-.2.2-.2.3"/><path d="M321.3 216.5c-.1.1-.2.3-.3.4-1.6-.8-3.1-1.6-4.7-2.5.1-.1.2-.3.2-.5 1.7.9 3.3 1.8 4.8 2.6m-5.7-3c-.1.1-.1.2-.2.3l-2.7-1.5c0-.1.1-.2.2-.3z"/><path d="M345.9 313.8c-2.8-1.4-5.6-2.7-8.4-4-.7-.3-1.4-.5-2.1-.8-1.6-.8-3.2-1.7-4.7-2.6-2.2-1.3-4.3-2.7-6.4-4.1-2.2-1.5-4.3-3.1-6.5-4.6-3-2-6-4-9.1-6-2.4-1.5-4.8-3.1-7.3-4.5-2.7-1.6-5.5-3.2-8.3-4.8-.6-.4-1.3-.8-1.9-1.2-3.6-1.8-7.1-3.6-10.7-5.3-2.2-1.1-4.7-1.7-6.8-3-2.2-1.4-4.5-1.4-7.1-1.5-.4.1-1.2 0-1.7.3-1.8 1-3.5 2.1-5.2 3.1-3.4 2.1-6.8 4.1-10.2 6.2-2.8 1.7-5.5 3.6-8.3 5.2-5.5 3.1-11.1 6-16.6 9.1-3.7 2-7.2 4.2-10.9 6.2-5.8 3.1-11.5 6.5-16.9 10.2-4.6 3.2-9.4 6.2-14.2 9.1-4.4 2.6-9 5-13.5 7.5-3.1 1.6-6.3 3-9.4 4.7s-6.1 3.7-9.2 5.4c-5.4 3-11 5.8-16.4 8.8-3.8 2.1-7.5 4.3-11.2 6.6-1 .6-1.7 1.6-1.6 2.9 0 .3.2.7.4.9.9.6 1.8 1.1 2.8 1.6 3.7 1.9 7.3 3.8 11.1 5.7 6.3 3.2 12.7 6.2 19 9.4 7 3.6 13.9 7.4 20.9 11 3.6 1.8 7.2 3.5 10.9 5.3 2 1 4.2 1.9 6.1 3.1 2.7 1.7 5.5 2.9 8.5 3.9 2.8.9 5.6 1.5 8.1-.8.1 0 .1-.1.2-.1 3.3-1.9 6.7-3.7 9.8-5.9 3.2-2.3 6.6-4 10-5.8 5.5-3.1 11.1-6 16.5-9.2 1.8-1 3.2-2.6 4.9-3.8 1.5-1.1 2.9-2.4 4.5-3.3 1.8-1 3.9-1.5 5.7-2.5 3.6-2 7.1-4.2 10.6-6.2 4.2-2.5 8.4-5 12.5-7.5 3.1-1.8 6.1-3.7 9.2-5.5 2.8-1.6 5.6-3.2 8.4-4.9 4-2.3 8-4.8 12-7 2.5-1.4 5.2-2.5 7.8-4 4.1-2.3 8-4.7 12-7.1 3.6-2.2 7.2-4.3 10.7-6.5.8-.5 1.6-1.2 2.2-2 .2-.6.1-1.6-.2-1.7M196.4 360c-2.5 2-5.1 3.9-7.5 6-1.3 1.1-2.6.9-3.9.2-4-2.2-8-4.7-12.1-6.7-2.3-1.1-2.8-2.7-3.1-4.8-.3-1.6.2-2.7 1.4-3.6 2-1.5 3.9-3 6-4.4 1.4-1 2.9-1.4 4.6-.9.5.1 1.1 0 1.6-.1 2-.4 3.6.4 4.5 2.3.2.4.7.8 1.2 1 2.2 1.2 4.4 2.4 6.6 3.5 1.8 1 2.1 2.7 2.1 4.6 0 1.2-.4 2.1-1.4 2.9" class="st9"/><path d="M310.8 344.2c3 .1 5.6 1.1 8.1 2.6.4.3.8.7 1 1.2.7 1.5 1 3.1.9 4.9q-.75 8.55-1.2 17.1c-.1 2.2.4 4.4.5 6.5 0 1.1-.2 2.2-.5 3.3-.1.4-.7.6-1.1.9-4.1 3-8.6 5.1-13.2 7.1-2.2 1-4.4 2.2-7.1 1.8-1.7-.3-2.5-.8-2.9-2.5-.3-1.4-.4-2.9-.4-4.4 0-4.1-.1-8.3.3-12.4.5-4.8.9-9.7 2.2-14.3 1.2-4.2 3.1-8.5 7.8-10.3 1.9-.8 3.8-1 5.6-1.5m28.8 13.5c.5-6.2-.3-12.7.9-19.1.6-2.8.6-5.8 1.5-8.5 1.2-3.6 2.7-7.2 6.1-9.5 3.1-2 6.5-2.7 10-1.9 1.8.4 3.4 1.9 5.2 2.9 1.9 1 2.2 2.8 2.1 4.6-.3 5.8-.8 11.6-1.2 17.4-.1 1 .1 2.1.2 3.1.1 1.7.4 3.3.3 5 0 1.3-.4 2.4-1.7 3.2-5.5 3.4-11.2 6.4-17.4 8.5-1.1.4-2.5.3-3.8 0-1.2-.2-1.6-1.4-1.8-2.5-.2-.9-.3-1.9-.4-3.2M270 371.1c-1.8-.7-3.6-1.2-5.5-1.6h-.4c-.3 0-.6-.1-1 0-5.1.5-10 3.5-12.4 8-.4.7-.6 1.5-.6 2.2-.2.5-.3.9-.5 1.4-.7 2.5-1.1 5.2-1.4 7.9-.4 3.4-.7 6.7-.9 10.1-.1 2.7-.2 5.3-.2 8 0 1.6.1 3.2.4 4.8.3 1.8 1.2 2.4 3 2.7 2.6.4 4.7-.8 6.9-1.8 4.6-2 9.1-4.2 13.3-7 .8-.6 1.3-1.1 1.3-1.9.1-2 0-4-.1-6.1 0-1.2-.2-2.5-.2-3.7v-4.4 2.4c1-2.8.8-5.8 1-8.7 0-.4 0-.9-.1-1.3-.1 1-.2 1.9-.2 2.9 0 .7-.3 1-.9 1.2-3 1.2-6 2.3-9.3 2.5 1.6.7 3.1 1.9 4.8 2.1h.6-.6c-1.6-.2-3.2-1.4-4.8-2.1 3.3-.2 6.3-1.3 9.3-2.5.6-.2.9-.5.9-1.2.1-1 .2-1.9.2-2.9.1-.9.2-1.7.2-2.6 0-.4 0-.8.1-1.2v-1.4c.1-2.2-.2-4.7-2.9-5.8m-40.8-93.3v8.4c0 .5-.5 1.1-.9 1.3-1.3.6-2.7 1.1-4.1 1.6-.4.1-.9.1-1.2-.1-4.8-2.7-10-4.8-15.2-6.8-.2-.1-.5-.4-.6-.6-.9-6.4-2.1-12.7-2.5-19.1-.2-4.2 1.9-7.8 6.1-9.7 3-1.3 6.1-1.8 9.2-1.2 3.3.6 5.4 2.6 6.5 5.9 1.8 5.1 2.6 10.4 2.5 15.7v4.7c.1-.1.2-.1.2-.1m-85.1 49.1v8.4c0 .4-.5 1.1-.9 1.2-1.4.6-2.8 1.1-4.3 1.6-.4.1-1 0-1.3-.2-4.8-2.7-9.8-4.8-15-6.7-.3-.1-.6-.4-.7-.7-.9-6.4-2.1-12.7-2.5-19.1-.2-4.2 1.9-7.7 6-9.6q4.5-2.1 9.3-1.2c3.3.6 5.3 2.7 6.4 5.9 1.7 5.1 2.5 10.3 2.5 15.6v4.8zm31.8-15c.7-.6 1-.9 1.4-1.2-1.7 1.3-3 .1-4.4-.5-3.2-1.4-6.5-2.7-9.7-4.1-.4-.2-.8-.6-.9-1-.9-5.8-2-11.6-2.5-17.4-.6-6.8 3.8-11.8 11-12.4 2-.2 4-.1 6 .6 2.4.9 3.8 2.7 4.7 5 1.9 5.2 2.7 10.6 2.7 16.2 0 4.3.2 8.7.2 13 0 .4-.5 1.1-.9 1.2-1.4.6-2.8 1.4-4.3 1.5-1 .3-2.1-.5-3.3-.9m66.2 98.3h-.5c-3.5-1.1-7-2.3-9.9-4.5-.3-.3-.6-1.1-.4-1.5.6-1.4 4.7-3.4 6.3-3 1.5.4 2.9 1.1 4.3 1.7.2.1.5.5.5.7 0 1.5-.1 3.1-.2 4.6 0 .6-.1 1.2-.1 2m48.1-24.7c-.9-.2-1.4-.3-1.8-.5-3-1.2-6.2-2.1-8.8-4.1-1-.7-1.1-1.4-.1-2.1 1.1-.8 2.2-1.6 3.4-2.2 1.2-.7 2.5-.5 3.7 0 1 .4 2 .7 2.8 1.2.4.2.8.9.8 1.4zm44.6-26c-.9-.2-1.4-.3-1.8-.5-3-1.2-6.2-2.1-8.8-4.1-.9-.7-1.1-1.4-.1-2.1 1.1-.8 2.2-1.6 3.4-2.2 1.2-.7 2.5-.5 3.7 0 1 .4 2 .7 2.8 1.2.4.2.8.9.8 1.4zm-103.4-74.9c0-3 0-3 2.8-2.4.7.2 1.7.5 1.8 1 .2 1-.1 2.1-1 2.7-.7.5-1.4.8-2.2 1.2-.9.4-1.3 0-1.3-1v-.8c-.1-.3-.1-.6-.1-.7m-61.5 39.6c-.6-.4-1.4-.8-1.8-1.4-.2-.3.4-1.1.6-1.6.1-.2.4-.4.6-.6.6-.5 1.1-1.3 1.7-1.4s1.2.6 1.9.9c.5.2 1.1.3 1.5.6.2.2.4 1 .3 1-1.5.8-3 1.5-4.5 2.2h-.2c0 .1 0 .2-.1.3m10.6-10c2.2-1.2 4.4-1.6 6.9-.9.4.1.9 0 1.3-.2.4-.1.8-.4 1.4-.4-2.8 1.7-5.7 3.4-8.5 5.2.1-.7.5-1.4.3-2-.2-.7-.9-1.2-1.4-1.7m-57 26.3c2 1 3.7 1.8 5.7 2.8-1.2 1.1-2.3 2.1-3.5 3-.6.5-1.3 0-1.6-1 0-.1-.1-.2-.1-.4-.2-1.4-.3-2.8-.5-4.4m85.1-49.2c2 1 3.7 1.8 5.7 2.8-1.3 1.1-2.4 2.1-3.5 3-.6.5-1.4 0-1.5-1.1-.3-1.4-.5-2.9-.7-4.7m-39.2 26.8c-1.2 1.1-2.3 2.1-3.4 2.9-.7.6-1.4.1-1.7-.9 0-.1-.1-.2-.1-.4-.2-1.4-.3-2.8-.5-4.4 2 .9 3.7 1.8 5.7 2.8m-35.6 28c-1.7 1-3.2 1.9-4.7 2.7-.2.1-.8-.2-1.1-.5-.2-.2-.3-.9-.2-1 .9-1 1.9-2 2.8-2.9.1-.1.5-.1.6 0 .9.4 1.6 1 2.6 1.7m6.4-7.1c1.8-.4 3.6-.8 5.3-1.2.1.2.1.3.2.5-1.3.7-2.6 1.6-4 2.1-.3.1-1-.6-1.6-.9.1-.1.1-.3.1-.5m76.6-43.2c-1.1.8-2.3 1.5-3.4 2.3l-.3-.3c.9-.9 1.8-1.7 2.8-2.5.2-.1.6.1.9.2zM194 309.5v-1.4c.3.1.7.2 1 .4-.2.4-.3.8-.5 1.2-.1-.1-.3-.2-.5-.2m31.4-19.4c.9-.3 1.8-.7 2.6-1 0 .1.1.2.1.3-.9.3-1.5 1.3-2.7.7" class="st3"/><path d="M418.2 181.1c-2.2-1.1-4.4-1.9-6.3-3.1-4-2.5-8.1-4.6-12.3-6.6-3.5-1.7-6.8-3.8-10.2-5.8-6.4-3.9-12.8-7.9-19.1-11.9-3.4-2.1-6.6-4.3-10-6.3-3.1-1.8-6.3-3.5-9.4-5.3-4.9-2.8-9.7-5.8-14.5-8.6-6.2-3.5-12.4-7-18.5-10.5-4.5-2.6-9-5.3-14-7.1-.3-.1-.5-.5-.7-.8-.4-.7-.7-1.4-1.1-2.1-.7-1.4.2-4.1 1.7-4.7.3-.1.7 0 1 .2 3.2 1.7 6.4 3.4 9.7 5 2.5 1.2 5 2.3 7.4 3.6 2.9 1.6 5.6 3.6 8.4 5.3 1.3.8 2.6 1.5 4 2.2 3.8 2.1 7.7 4.1 11.5 6.2 4.4 2.3 8.8 4.6 13 7.1 4.8 2.8 9.4 5.9 14.1 8.8 2.9 1.8 6 3.4 8.9 5.1 3.3 1.9 6.6 4 10 5.9 2.5 1.5 4.9 2.9 7.4 4.4 2.7 1.6 5.3 3.3 8 4.8 3.3 1.9 6.7 3.7 10.1 5.4 1.5.7 1.8 1.4 1.7 3-.3 1.8-.6 3.7-.8 5.8" class="st9"/><path d="M197.8 357.1c0 1.2-.4 2.2-1.4 2.9-2.5 2-5.1 3.9-7.5 6-1.3 1.1-2.6.9-3.9.2-4-2.2-8-4.7-12.1-6.7-2.3-1.1-2.8-2.7-3.1-4.8-.3-1.5.2-2.7 1.4-3.6 2-1.5 3.9-3 6-4.4 1.4-1 2.9-1.4 4.6-.9.5.2 1.1 0 1.6-.1 2-.4 3.6.4 4.5 2.3.2.4.7.8 1.2 1 2.2 1.2 4.4 2.4 6.6 3.5 1.8 1 2 2.7 2.1 4.6"/></g></svg>