<svg xmlns="http://www.w3.org/2000/svg" xml:space="preserve" id="Layer_1" x="0" y="0" version="1.1" viewBox="0 0 512 512"><style>.st0{display:none}.st1{display:inline}.st2{fill:#91caed}.st3{fill:#fff}.st4{fill:#f6d7b4}.st7{fill:#fbf08e}.st8{fill:#f1c5cb}</style><g id="xHWQpi.tif"><path d="M464.8 395.4c-.6.3-1.1.7-1.8.8-.5.1-1.2-.1-1.7-.3-2.8-1.6-5.6-3.3-8.5-5-2.6-1.5-5.2-3-7.8-4.7-4-2.6-7.9-5.2-11.9-7.8-3-2-6-3.9-9-6-3.6-2.5-7-5.1-10.6-7.6-1.9-1.3-3.9-2.6-5.9-3.9-3.1-2-6.3-4.1-9.4-6.1-3-1.9-6-3.6-9-5.5-3.9-2.5-7.6-5.1-11.5-7.6-2.7-1.8-5.5-3.5-8.2-5.3-3.6-2.3-7.2-4.7-10.7-7-4.7-3.1-9.5-6.2-14.6-8.6-5.4-2.5-10.8-5.1-16.1-7.6-6-2.8-11.9-5.6-17.8-8.5-3.2-1.5-6.3-3.3-9.5-4.8-3.2-1.6-6.4-3-9.5-4.5-4.2-2-8.4-3.9-12.7-5.9-1.5-.7-3.1-1.3-4.6-2.1-4.1-2.1-8.2-4.2-12.2-6.4-2.9-1.6-5.7-3.3-9-4-.3-.1-.6-.3-.9-.3-.4-.1-.8-.2-1.6-.3 0-.5-.1-1.4-.2-2.5-2.2 1.4-4.2 2.7-6.3 3.9l-6.3 3.6c-1 .6-2 1.3-2.9 2.1-1.7 1.4-3.3 3.1-5.1 4.4-1.7 1.2-3.6 2.1-5.4 3.1-1 .5-1.9 1.1-2.9 1.7-1.7 1-3.3 1.9-5 2.8-5.1 2.8-10.2 5.5-15.2 8.3-6.6 3.7-13.2 7.6-19.6 11.8-4.9 3.1-9.9 5.9-15 8.8-4.4 2.5-8.8 4.9-13.3 7.3-3.9 2.1-7.8 3.9-11.6 6.1-6.7 3.9-13.2 8-19.8 11.9-6.2 3.6-12.6 7-18.9 10.6-4.9 2.8-9.8 5.7-14.7 8.5-5.1 2.9-10.2 5.8-15.2 8.8-2 1.2-3.9 2.5-6 3.5-2.4 1.1-4.9 2.2-7.4 2.9-2.9.8-5.4 2.2-7.9 3.8-3.2 2-6.5 4-9.8 5.8-2.6 1.5-5.4 2.9-8.1 4.3-1.1.5-2.3.8-3.5 1.2v-.2c4.4-2.5 8.9-5 13.3-7.5 5.2-2.9 10.4-5.9 15.6-8.8 3.1-1.8 6.3-3.6 9.4-5.5 6.8-4.1 13.6-8.2 20.5-12.2 3.4-2 6.9-3.7 10.3-5.6 4.4-2.4 8.9-4.9 13.3-7.4 3.6-2.1 7.2-4.2 10.7-6.3 5.7-3.4 11.3-6.9 17-10.2 4.7-2.7 9.4-5.2 14.2-7.7 4.1-2.2 8.3-4.3 12.4-6.6 5.8-3.3 11.4-6.9 17.1-10.4 2.8-1.7 5.4-3.5 8.2-5.1 2-1.2 4.2-2.2 6.3-3.3l7.8-4.2c1.9-1 3.8-2 5.7-3.1 4.3-2.4 8.7-4.8 13-7.3 1.5-.9 2.9-2.3 4.3-3.4.2-.2.3-.4.5-.5 3.8-2.5 7.1-5.6 11.5-7.3 2.4-.9 4.5-2.5 6.8-3.7.5-.3 1.1-.4 1.3-.5V248c0-.6.4-1.1.6-1.7.2 0 .3 0 .5-.1.2.5.7 1.1.7 1.6 0 2.4-.1 4.9 0 7.3l.3 14.7v4c3.9-.2 6.9 1.7 9.9 3.4 3.3 1.9 6.6 3.8 10 5.6 5.9 3 11.8 6 17.7 8.9 2.8 1.4 5.5 2.8 8.3 4.2l15 7.2 18.3 9c5.7 2.8 11.6 5.3 17.1 8.6 7.9 4.6 15.5 9.7 23.2 14.6l11.4 7.5c7.7 4.9 15.6 9.7 23.3 14.7 6.2 4.1 12.3 8.5 18.4 12.7 3.8 2.6 7.6 5.3 11.4 7.9q6.15 4.2 12.6 8.1c3.9 2.4 7.9 4.5 11.8 6.8 1.8.7 3.4 1.6 4.9 2.4"/><path d="M327.2 426.2c-.7-3.3-1.4-6.5-2.2-9.8-.7-2.8-1.5-5.5-2.1-8.3-.5-2.2-.7-4.5-1.2-6.7-.4-1.9-.9-3.8-1.2-5.7-.6-3.9-1.1-7.9-1.6-11.8-.3-2.5-.5-4.9-.5-7.4l-.6-20.2c0-.7-.1-1.4-.2-2.1-.2-1.1-1.5-1.6-1.9-.8-.6 1.1-1 2.3-1.5 3.5-.1.3-.1.9-.3.9-1.3.5-2.7.9-4.2 1.3 0-.8-.1-1.3-.1-1.8 0-1.6.1-3.2 0-4.8-.3-5-.7-10-.9-15-.1-1.3-.3-2.8 1.4-3.4 1-.4 2-.9 1.8-2.3.5-.2 1-.5 1.1-1 .4-1.1-.4-1.6-1.1-2.1-.8-.5-1.6-.9-2.4-1.4-5.2-3.6-10.3-7.4-15.9-10.4-1.4-.7-2.7-1.5-4.1-2.1-3.5-1.5-6.9-3.3-9.9-5.7-1.8-1.4-3.8-2.4-5.8-3.6-2.8-1.8-5.6-3.5-8.4-5.2-.5-.3-1.5-.3-2 .1-1.6 1.2-3.2 2.3-5.1 3-2.3.8-4.5 2-6.7 3-1.2.6-2.4 1.2-3.6 1.9-1.7.9-3.5 1.8-5.1 2.8-2.1 1.3-4.1 2.7-6.3 3.9-3.1 1.8-6.3 3.3-9.4 5.1s-6.1 3.7-9.3 5.5c-2.6 1.4-5.4 2.4-7.9 4-4.1 2.6-8.4 4.9-13 6.6-3 1.2-6 2.5-8.9 4.1-2 1.1-3.8 2.9-5.7 4.2-4.7 3.2-9.6 6.1-14.9 8.4-.5.2-1 .5-1.4.9-1.8 1.2-1.8 3 .1 4.2.4.3 1 .7 1.1 1.1.1 1.1 0 2.3 0 3.4 0 4.4-.1 8.8-.1 13.2 0 4.7.1 9.3.2 14l.2 13.9c0 2.6 0 5.1.1 7.7 0 1 1.2 2.3 2 2.2 1.1-.1 1.5-1 1.5-2 0-.8.1-1.7.2-2.5.2-5.9.7-11.8-.1-17.7-.4-2.9-.3-5.8-.4-8.7-.1-4.4-.2-8.7-.2-13v-5c.7.4 1.2.7 1.7 1 4 2.2 8.1 4.3 12.1 6.5 3.5 1.9 7 3.9 10.6 5.8 2.2 1.2 4.6 2.3 6.8 3.5 2.2 1.1 4.4 2.3 6.5 3.5.3.2.5.6.6.9q.15 1.5 0 3c-.5 8.1-.5 16.3-.1 24.4.4 7.6.7 15.2 1 22.8 0 .3.1.8.3 1 .9.7 1.9 1.4 3.1 2.2.3-1.1.7-1.9.7-2.8q-.15-9.45-.6-18.9c-.2-6.1-.7-12.1-.8-18.2-.1-3.9.2-7.8.3-11.7v-3.5c.3.1.5.1.7.2 1 .6 1.8.7 2.6-.3.1-.2.4-.2.6-.3 1.6-.8 3.3-1.5 4.9-2.3 2.6-1.3 5.1-2.7 7.6-4 4.4-2.3 8.7-4.7 13-7.1 2.4-1.4 4.6-3 7-4.3 3.2-1.8 6.5-3.5 9.8-5.1 4.4-2.2 8.8-4.3 13.2-6.4 2.7-1.3 5.6-2.2 8.2-3.6 3.9-2 7.7-4.3 11.6-6.5l10.8-6c.5-.3 1-.5 1.6-.7.1.4.2.7.2.9.2 4.1.5 8.1.6 12.2.1 3 .2 5.9.2 8.9 0 .4-.3 1.1-.6 1.2-3 1.5-6 3-9 4.4-1.8.8-3.6 1.7-5 3.1-.4.4-1 .8-1.3 1-.7-.2-1.2-.5-1.6-.5-1.4.1-2.9.3-4.3.5-4.1.7-7.9 2.3-11.5 4.3-5.6 3.2-11 6.6-13.9 12.7-.2.3-.6.6-.9.8-.4.3-.9.4-1.1.8-.4 1.1-.7 2.2-.8 3.3-.3 3-.5 6-.6 9.1-.2 3.4-.3 6.8-.4 10.2-.1 3.1-.2 6.1-.3 9.2 0 1-.1 2-.1 3-.2 2.5-.4 5-.5 7.5 0 .5.6 1.3 1.1 1.4s1.5-.3 1.6-.8c.7-1.6 1.3-3.2 1.6-4.8.4-3 .6-6 .8-8.9.1-1.1.2-2.2.4-3.3.2-1.6.5-3.1.8-4.7.1-.3.2-.7.3-1 .6-3.5 1.1-6.9 1.7-10.4.2-1.4.3-2.8.5-4.3 1.3.6 2.5 1.2 3.6 1.7.8.3 1.8.4 2.3.9 1.7 1.8 4.1 1.9 6.2 3 2.2 1.1 4.5 2 6.8 2.7 2.4.8 3.3 2.1 3.2 4.6s.3 5.1.4 7.6c.2 6.8.3 13.7.4 20.5 0 1.9.2 3.8.2 5.7.1 2.1.1 4.1.2 6.2 0 .9.5 1.4 1.5 1.4s1.3-.6 1.3-1.4c.1-1.4.2-2.8.2-4.2.1-1.8 0-3.6.2-5.4.2-1.9.6-3.8.7-5.7.3-4 .5-8 .8-12 .2-2.2.8-4.4 1-6.6.2-2.4.2-4.8.3-7.2.1-2.3.5-2.8 2.8-3.5 2.4-.7 4.7-1.5 7-2.3.8-.2 1.5-.6 2.2-.9 1.1-.5 2.3-.8 3.4-1.4s1.9-1.7 3-2.3c1-.6 2.2-1 3.5-1.5.1.3.3.6.4.9.8 3 1.5 6.1 2.5 9.1 1 3.4 2.2 6.7 3.3 10 .1.3 0 .6 0 .8.1.8 0 1.6.3 2.3 1.4 3.3 2.9 6.5 4.4 9.8.2.4.4.8.7 1.1.3.2.8.5 1.1.4s.5-.6.7-1c.3 0 .3-.3.2-.6M284 381.8l.3 14.2v1.7c-1.3-.6-2.3-.9-3.3-1.5-1.5-.9-2.9-2-4.4-2.8-4.7-2.3-9.5-4.5-14.2-6.8-.5-.2-1-.3-1.5-.6 2-5.2 17.1-14.5 23.5-14.6-.1.6-.3 1.2-.3 1.7-.1 2.1-.2 4.1-.2 6.2-.1.9.1 1.7.1 2.5m20.9-48.3c-5.8 3.2-11.6 6.3-17.3 9.5-4.8 2.6-9.4 5.5-14.2 8-4.2 2.2-8.6 3.9-12.9 6-3.5 1.7-7 3.6-10.4 5.4-7.3 3.9-14.5 7.9-21.9 11.7-4.3 2.3-8.7 4.3-13.1 6.5-.4.2-1 .2-1.4 0-3.2-1.5-6.4-3.2-9.6-4.7-4.3-2.1-8.7-3.9-12.9-6.2s-8.2-4.9-12.3-7.4l-9.3-5.7c-.5-.3-1-.7-1.8-1.2.7-.3 1.1-.6 1.5-.8 6.3-2.7 12.1-6.3 17.4-10.6 2.8-2.3 6.2-3.5 9.3-5 2.3-1.1 4.8-1.8 7.1-2.9 1.6-.8 3.1-1.8 4.7-2.7 2.8-1.5 5.6-2.9 8.3-4.4 2.4-1.3 4.7-2.7 7-4.2 4.8-3.1 9.6-6.3 14.8-8.7 1.4-.6 2.7-1.4 3.9-2.3 3.3-2.7 6.9-4.8 10.8-6.5l7.2-3c1.3-.5 2.4-1.4 3.5-2.2.6-.4 1.1-.5 1.7-.1l3.6 2.4c1.1.7 2.2 1.3 3.3 1.9 1.8 1.1 3.7 2 5.3 3.2 5 3.9 10.8 6.5 16.3 9.7 4.6 2.7 9 5.7 13.5 8.5.6.4 1.2.6 1.8 1 .7.4 1.3.8 2.2 1.2-2.2 1.3-4.1 2.5-6.1 3.6m7.8 54.1c-1.5 1-3 1.9-4.6 2.7-.9.5-2 .4-3 .8-1.9.8-3.8 1.7-5.7 2.6-2.4 1.1-4.7 2.2-7.1 3.2-.6.3-1.4.3-2.1.4-1.4 0-1.4-.1-1.3-1.5s.1-2.8.2-4.2c0-.4.4-1 .7-1.2 3-1.8 5.9-3.7 9-5.3 2.7-1.4 5.6-2.5 8.4-3.8 1.6-.7 3.1-.6 4.4.7.5.5 1 .9 1.5 1.4 1.2 1.2 1 3.3-.4 4.2m1.1-6.5c-.5-.3-1-.5-1.5-.8v-.4c.5-.1 1-.3 1.4-.2.2 0 .2.7.3 1.1 0 .2-.1.2-.2.3m.6-19.5c-.1 2.7-.4 5.3-.5 8-.1 1.9 0 3.8.1 5.7.1 1-.1 1.4-1.2 1.7-2.2.5-4.4 1.3-6.5 2-2.4.8-4.9 1.6-7.3 2.7-3.2 1.5-6.6 2.9-9.3 5.3l-.8.4c-.1-1.4-.1-2.6-.2-3.8-.2-3.2-.4-6.4-.5-9.6 0-.4.2-.9.4-1.2 1-1.1 2-2.3 3.2-3.2 4-3.1 8.6-5.2 13.4-6.8 2.6-.8 5.1-1.6 7.7-2.4 1.3-.2 1.5-.1 1.5 1.2m-5.7-174c-1.3-.6-2.7-1-4-1.3-1.2-.3-2.7-.1-3.8-.6-3-1.5-6.4-1.1-9.5-2.5-3-1.3-6.4-1.7-9.7-2.2-6.9-1-13.8-1.9-20.8-2.8-.5-.1-.9-.2-1.6-.3 1.5-1.9 2.9-3.5 4.3-5.2 1.3-1.6 2.7-3.2 3.9-4.8 1.5-2 3-4.1 4.5-6.1 1.9-2.4 3.8-4.7 5.7-7.1l7.2-9c1.1-1.4 2.4-2.8 3.5-4.3 1.2-1.6.8-2.8-1-3.3q-.3-.15-.9-.6c.7-.2 1.1-.4 1.9-.6-.5-.2-.6-.2-.8-.2-3.5 0-6.9-.1-10.4 0-4 .1-8 .5-12 .8-1.3.1-2.5 0-3.8 0-2.3.1-4.7.4-7 .6-2.2.1-4.4.1-6.6.3-1.1.1-2.5.1-2.2 1.9 0 .1-.1.2-.2.3-.7 1-1.4 1.9-2.1 2.9-1.6 2.2-3.4 4.2-5 6.4-2 2.7-3.9 5.4-5.7 8.2-2 3-4 6-5.9 9-2.1 3.4-4.1 7-6.2 10.5-1.5 2.5-2.9 5.1-4.3 7.7-1.1 2.1-2.3 4.2-3.2 6.4-1.3 3.3-.5 4.4 3.1 4.7 3.3.3 6.7.4 9.8 1.3 5.5 1.6 10.8 3.5 16.4 4.6 3.6.7 7.3 1.1 11 1.3h1.8c-.7 1-1.2 1.7-1.9 2.4-1.5 1.7-3.1 3.2-4.5 5-3 4-6 8.1-8.9 12.2-2.2 3.2-4.3 6.4-6.5 9.6-2.6 3.9-5.3 7.9-7.9 11.8-.7 1.1-1.5 2.2-2.2 3.2-1.1 1.5-2.5 3-3.4 4.6-3 5-5.8 10.1-8.7 15.2-1.3 2.4-2.6 4.8-3.8 7.3-.2.4 0 1 0 1.5.5-.2 1.1-.3 1.5-.6l5.7-5.7c3.6-3.4 7.1-6.9 10.9-10.1 3.7-3.2 7.7-6.1 11.3-9.4 5.3-4.9 11.2-8.9 16.9-13.1 4.8-3.5 9.4-7.2 13.6-11.3 3.8-3.6 7.4-7.4 11.1-11.1 4-4 8.4-7.7 12.9-11.2 4-3 7.8-6.2 11.7-9.3.2-.2.5-.3.7-.4 2.6-.6 4.2-2.4 5.6-4.6.5-.9.3-1.7-.5-2m-7.5 4.5c-.3.2-.8.4-1.1.7-2.5 2-4.9 4.1-7.4 6.1-4.3 3.5-8.8 6.8-13.1 10.5-2.7 2.2-5 4.8-7.5 7.3-1.8 1.8-3.4 3.7-5.3 5.3-6.2 5.5-12.4 11-18.7 16.3-5.7 4.8-11.7 9.3-17.4 14.1-4.4 3.7-8.5 7.8-12.7 11.7-1.3 1.2-2.5 2.4-4 3.4.6-1 1.1-2 1.7-3 3.5-5.1 7.1-10.1 10.5-15.2 2.5-3.7 4.9-7.5 7.4-11.2 2.8-4.2 5.7-8.5 8.6-12.7 3.2-4.6 6.5-9.2 9.9-13.7 1.7-2.3 3.6-4.4 5.5-6.5 1-1.1 1.5-2.4 1.7-3.8 0-.4-.6-1.1-1-1.2-1.7-.4-3.4-.7-5.1-.8-4.7 0-9.3-.6-13.8-2-2.4-.8-4.8-1.1-7.2-1.7-3.7-1.1-7.5-1.7-11.3-1.7H216c-.4 0-.8 0-1.2-.1 2-3.1 3.8-6 5.6-9 3-4.9 5.9-9.9 9-14.8 4.7-7.6 9.5-15.1 14.3-22.7 1-1.7 2.1-3.3 3.2-4.9.2-.3.4-.7.5-1 0-1.7 1.2-1.5 2.3-1.5 3.5-.1 6.9-.2 10.4-.4 2.4-.1 4.8-.6 7.2-.6 5.3.1 10.6.4 15.9.6.1 0 .2.1.5.2-1 1.1-2 2.2-2.9 3.3-2.8 3.5-5.6 6.9-8.4 10.4-.9 1.1-2 2.2-2.6 3.4-.8 1.7-2.2 3-3.1 4.5-.7 1.1-1.2 2.4-2.1 3.1-1 .8-1.7 1.8-2.4 2.9-1.9 2.9-3.9 5.7-5.8 8.6-.6.9-1.1 1.8-2.1 2.4-.8.5-.4 1.6.8 1.9 1.6.3 3.2.6 4.7.9 5.8 1.1 11.6 2.2 17.4 3.2 2.3.4 4.8.5 7.1 1 2.8.7 5.8.8 8.4 2.2.9.4 2 .5 3 .7 1.2.2 2.3.4 3.5.5.7.1 1.5-.1 2.2 0 1 .1 2.1.4 3.1.6 0 .1 0 .2.1.3-1.2.8-2.3 1.6-3.4 2.4M253 123.6c0 1.3-.1 2.7-.2 4 0 .2-.4.4-.7.5s-.7 0-1.4 0c.3-21.1.5-42.1.8-63.1 0-.2.2-.3.5-.8.2.7.4 1.1.4 1.5.1 2.2.1 4.4.1 6.6.1 6.9.2 13.8.2 20.7 0 6.3 0 12.7.1 19 .1 3.9.2 7.7.2 11.6m233.6 284.9s0 .1-.1.1c-.9-.5-1.9-1-2.8-1.5-.1.1-.1.2-.2.3.3.2.7.3 1 .5-.1.1-.2.3-.4.5-3.6-2.2-7.1-4.7-10.3-7.5.1-.1.1-.2.2-.3 1.1.8 2.1 1.6 3.2 2.3.4.3.7.6 1 .8.9.6 1.7 1.2 2.8 1.5 2 .5 3.7 2 5.6 3.1z"/><path d="M308.8 328.6c-.6-.3-1.2-.6-1.8-1-4.5-2.8-8.9-5.8-13.5-8.5-5.5-3.2-11.2-5.9-16.3-9.7-1.6-1.2-3.5-2.2-5.3-3.2-1.1-.7-2.2-1.3-3.3-1.9l-3.6-2.4c-.6-.4-1.1-.4-1.7.1-1.1.8-2.3 1.6-3.5 2.2l-7.2 3c-3.9 1.7-7.5 3.9-10.8 6.5-1.2.9-2.5 1.7-3.9 2.3-5.2 2.4-10 5.6-14.8 8.7-2.3 1.5-4.6 2.8-7 4.2-2.7 1.5-5.5 2.9-8.3 4.4-1.6.9-3 2-4.7 2.7-2.3 1.1-4.8 1.8-7.1 2.9-3.2 1.5-6.5 2.7-9.3 5-5.3 4.3-11.1 7.9-17.4 10.6-.4.2-.8.4-1.5.8.7.5 1.2.9 1.8 1.2l9.3 5.7c4.1 2.5 8.1 5.1 12.3 7.4 4.2 2.2 8.6 4.1 12.9 6.2 3.2 1.5 6.4 3.2 9.6 4.7.4.2 1 .2 1.4 0 4.4-2.1 8.8-4.2 13.1-6.5 7.3-3.8 14.6-7.8 21.9-11.7 3.5-1.8 6.9-3.7 10.4-5.4 4.3-2.1 8.7-3.8 12.9-6 4.8-2.5 9.4-5.3 14.2-8 5.8-3.2 11.6-6.3 17.3-9.5 2-1.1 4-2.3 6.1-3.6-.8-.4-1.5-.8-2.2-1.2m-43 10.5c-1.6 1-3.2 2.1-4.8 3.1-2 1.2-4.1 2.2-6.2 3.2-1.7.9-3.4 1.7-5.1 2.5-.2.1-.4.1-.5.2-1.6 1.5-3.3.9-4.9.2-2-.9-4-1.9-6-2.9-1-.5-1.9-1-2.9-1.4-2.7-1.1-3.4-3.5-4-6-.6-2.3-1.3-4.6-1.8-6.9-.4-1.5-.6-3-.8-4.6 0-.4.2-.9.4-1.2 1.8-1.7 3.8-3 6.1-4 1.5-.7 2.9-1.6 4.4-2.4 2-1 3.9-1.9 5.9-2.8.4-.2.8-.5 1.2-.8 1.4-1.1 2.6-.9 3 .8 1.3 4.8 2.5 9.5 3.7 14.3.1.2 0 .5 0 .9 4.1 2.3 8.3 4.7 12.5 7.1v.7z" class="st3"/><path d="M288.8 387.5c-.1-1.3-.1-2.6-.2-3.8-.2-3.2-.4-6.4-.5-9.6 0-.4.2-.9.4-1.2 1-1.1 2-2.3 3.2-3.2 4-3.1 8.6-5.2 13.4-6.8 2.6-.8 5.1-1.6 7.7-2.4 1.3-.4 1.5-.3 1.5 1.1-.1 2.7-.4 5.3-.5 8-.1 1.9 0 3.8.1 5.7.1 1-.1 1.4-1.3 1.7-2.2.5-4.4 1.3-6.5 2-2.4.8-4.9 1.6-7.3 2.7-3.2 1.5-6.6 2.9-9.3 5.3-.1.2-.3.3-.7.5m-28-1.4c2-5.2 17.1-14.5 23.5-14.6-.1.6-.3 1.2-.3 1.7-.1 2.1-.2 4.1-.2 6.2 0 .8.1 1.6.2 2.4l.3 14.2v1.6c-1.3-.6-2.3-.9-3.3-1.5-1.5-.9-2.9-2-4.4-2.8-4.7-2.3-9.5-4.5-14.2-6.8-.5-.1-1-.2-1.6-.4m29.4 11.2c-1.4 0-1.4-.1-1.3-1.5s.1-2.8.2-4.2c0-.4.3-1 .7-1.2 3-1.8 5.9-3.7 9-5.3 2.7-1.4 5.6-2.5 8.4-3.8 1.6-.7 3.1-.6 4.4.7.5.5 1 .9 1.5 1.4 1.2 1.2 1 3.2-.4 4.1-1.5.9-3 1.9-4.6 2.7-.9.4-2 .4-3 .8-1.9.8-3.8 1.7-5.7 2.6-2.4 1.1-4.7 2.2-7.1 3.2-.6.3-1.4.4-2.1.5M214.9 194c2-3.1 3.8-6 5.6-9 3-4.9 5.9-9.9 9-14.7 4.7-7.6 9.5-15.2 14.3-22.7 1-1.7 2.1-3.3 3.2-4.9.2-.3.4-.6.4-1 0-1.7 1.2-1.5 2.3-1.5 3.5-.1 6.9-.2 10.4-.4 2.4-.1 4.8-.6 7.2-.6 5.3.1 10.6.4 15.9.6.1 0 .2.1.5.2-1 1.1-2 2.2-2.9 3.3-2.8 3.4-5.6 6.9-8.4 10.4-.9 1.1-2 2.2-2.6 3.4-.8 1.7-2.2 3-3.1 4.5-.7 1.1-1.2 2.4-2.1 3.1-1.1.8-1.7 1.8-2.4 2.9-1.9 2.9-3.9 5.7-5.8 8.6-.6.9-1.1 1.8-2.1 2.4-.8.5-.4 1.6.8 1.9 1.6.3 3.1.6 4.7.9 5.8 1.1 11.6 2.2 17.4 3.2 2.3.4 4.8.5 7.1 1 2.8.7 5.7.8 8.4 2.2.9.5 2 .5 3 .7 1.2.2 2.4.4 3.5.5.7.1 1.5-.1 2.2 0 1 .1 2.1.4 3.1.6 0 .1 0 .2.1.3l-3.3 2.4c-.4.3-.8.4-1.1.7-2.5 2-4.9 4.1-7.4 6.1-4.4 3.5-8.8 6.8-13.1 10.4-2.6 2.2-5 4.8-7.5 7.3-1.8 1.8-3.4 3.7-5.3 5.3-6.2 5.5-12.4 11-18.7 16.3-5.7 4.8-11.7 9.3-17.4 14.1-4.4 3.7-8.5 7.8-12.7 11.7-1.3 1.2-2.5 2.4-4 3.4.6-1 1.1-2 1.7-3 3.5-5.1 7-10.1 10.5-15.1 2.5-3.7 4.9-7.5 7.4-11.2 2.8-4.2 5.7-8.5 8.6-12.7 3.2-4.6 6.5-9.2 9.9-13.7 1.7-2.3 3.6-4.4 5.5-6.4 1-1.1 1.5-2.4 1.7-3.8 0-.4-.6-1.1-1-1.2-1.7-.4-3.4-.7-5.1-.7-4.7 0-9.3-.6-13.8-2.1-2.4-.7-4.8-1.1-7.2-1.7-3.7-1-7.5-1.7-11.3-1.7h-4.9c-.3-.2-.7-.2-1.2-.3" class="st8"/><path d="M253.4 331.6c0-.4.1-.7 0-.9-1.2-4.8-2.4-9.6-3.7-14.3-.5-1.7-1.6-1.9-3-.8-.4.3-.7.6-1.2.8-2 1-4 1.9-5.9 2.8-1.5.8-2.9 1.7-4.4 2.4-2.3 1-4.3 2.3-6.1 4-.3.3-.5.8-.4 1.2.2 1.5.5 3.1.8 4.6l1.8 6.9c.6 2.5 1.3 4.9 4 6 1 .4 1.9.9 2.9 1.4 2 1 4 2 6 2.9 1.6.7 3.3 1.3 4.9-.2.1-.1.4-.1.5-.2 1.7-.8 3.4-1.7 5.1-2.5 2.1-1.1 4.2-2.1 6.2-3.2 1.7-.9 3.2-2.1 4.8-3.1v-.5c-4-2.6-8.2-5-12.3-7.3m-2.3-.9c-4 1.2-7.2 3.8-10.8 5.7-2.2 1.2-4.4 2.3-6.8 3.5-.8-3.1-1.6-6.1-2.4-9.1-.3-1.1-.5-2.2-.8-3.2-.2-.7-.1-1.1.5-1.5 1.9-1.1 3.7-2.2 5.6-3.2 3.8-1.9 7.8-3.7 11.5-5.5.6.6 1.2 1.1 1.6 1.6l.3.6c.6 3.2 1.2 6.5 1.8 9.7.3.8.2 1.2-.5 1.4"/><path d="M233.6 339.9c-.8-3.1-1.6-6.1-2.4-9.1-.3-1.1-.5-2.2-.8-3.2-.2-.7-.1-1.1.6-1.5 1.9-1.1 3.7-2.2 5.6-3.2 3.9-1.9 7.8-3.7 11.5-5.5.6.6 1.2 1.1 1.6 1.6l.3.6c.6 3.2 1.2 6.5 1.8 9.7.1.6.1 1.1-.6 1.3-4 1.2-7.2 3.8-10.8 5.7-2.3 1.3-4.5 2.4-6.8 3.6" class="st3"/></g></svg>