<svg xmlns="http://www.w3.org/2000/svg" xml:space="preserve" id="Layer_1" x="0" y="0" version="1.1" viewBox="0 0 512 512"><style>.st0{display:none}.st1{display:inline}.st2{fill:#91caed}.st3{fill:#fff}.st4{fill:#f6d7b4}.st6{fill:#f1c5cb}.st8{fill:#fbf08e}</style><g id="FE0066.tif"><path d="M194.1 299.3s4.9-6.6 7.3-6.7c2.4 0 9.6 2.3 9.6 2.3s4.6 5 5.3 10.3c.7 5.4.5 13 .5 13s-.3 6.7-1.8 7.7-8.4-1.8-10.9-4.6-9.3-12.5-9.9-15.7c-.7-3.3-.1-6.3-.1-6.3m-30.9 6.3 24.3 14.5 2.1-2.6 1.5-5.8-1.5-4.4-1-3-6.2-3.4-6.4-1.6-4.9 2-6.1 3z" class="st3"/><path d="M461.7 405.6c-5.2-2.9-10.5-5.6-15.5-8.7-6.2-3.8-12.3-7.8-18.3-11.9-5.3-3.6-10.5-7.6-15.8-11.2-3.9-2.7-8-5.2-11.9-7.8-.4-.3-1-.9-1-1.3 0-6.7 0-13.3.1-20 .1-7.2.2-14.3.2-21.5 0-.8.1-1.3.8-1.7 1.7-.9 1.7-2.6.1-3.6-1.9-1.1-3.9-1.9-5.8-3q-4.95-3-9.9-6.3c-2.1-1.4-4-3-6.5-3.8-1.9-.6-3.7-1.7-5.6-2.6 2.1-2.2 2.8-5 3.9-7.5.3-.8.4-1.6.5-2.4.1-1-.4-1.3-1.4-1.3-2.3-.1-4.9 1.5-5.6 3.8-.6 1.7-.8 3.5-1.2 5.2-1.9.6-2-.9-2.5-2.1-.1.4-.2.8-.2 1.3-1.2-.8-2.3-1.6-3.5-2.4.4-.3.7-.6 1.3-1h-.7c-.3.1-.5.4-.8.5s-.8.2-1.1.1c-3.2-1.7-6.4-3.3-9.5-5.1-3.9-2.2-7.6-4.8-11.8-6.5-1.5-.6-2.8-1.7-4.2-2.5-1.3-.8-2.6-1.7-3.9-2.5-1-.5-2.1-.9-3-1.4-1.7-.8-3.3-1.9-5-2.6-2.2-1-4.7-1.7-6.4-3.5-.2-.2-1.1-.2-1.4 0-1.5.9-2.9 2-4.3 3-.6.4-1.2.7-2 1.2v-8.1c0-2.6.1-5.2.2-7.8.1-2.7.1-5.5.2-8.2.1-2.1.5-4.1.6-6.2.2-4.3.3-8.7.3-13 0-5.4-.1-10.9-.1-16.3 0-3.2-.1-6.4-.2-9.6 0-1.5.2-3.1.2-4.6-.1-2.7-.4-5.4-.6-8-.4-4-.7-7.9-.3-11.9.2-2.4-.2-4.6-2.2-6.6-2.9-2.9-6.5-4.7-9.8-6.9-2.5-1.6-5.1-3-7.6-4.6-1.8-1.1-3.5-2.3-5.3-3.5-1.1-.8-2.1-1.7-3.2-2.5-1.5-1.2-3-2.5-4.7-3.5-1.1-.7-2.6-.8-3.8-1.2-2.8-1-5.6-2.2-8.3-3.2-2.6-1-5.1-1.9-7.1-3.8-.2-.2-.7-.2-1.1-.2-.1.3-.3.8-.2 1 .8 1.2.5 2.6.5 3.8.1 1.5.1 3 .2 4.5.1 2 .3 4 .3 6v13.8c0 3.8.1 7.7.1 11.5 0 2.5-.1 5-.1 7.5 0 1.9.2 3.8 0 5.7-.4 5-1.1 9.9-1.5 14.9-.3 3.1-.3 6.1-.5 9.2-.2 5.2-.5 10.4-.8 15.5-.3 4.9-.8 9.8-.8 14.7 0 7.7.4 15.5.6 23.2.1 2.5 0 4.9 0 7.3-1.8-.4-3.5-.7-5.5-1.1v-3.5c0-3.5-.1-7-.2-10.5 0-3.6-.1-7.2 0-10.8.2-7.1.4-14.2 1-21.3.6-8.6.9-17.1.8-25.7-.2-9.8-.2-19.6-.2-29.3 0-6.6.3-13.2.3-19.9 0-5.4-.2-10.9-.2-16.3-.1-4.2-.1-8.4-.1-12.5-.1-3.9-.1-7.8-.2-11.7 0-6.3 0-12.7-.1-19-.1-6.9-.2-13.7-.2-20.6 0-2.2 0-4.4-.1-6.6 0-.5-.2-.9-.4-1.3-.1 0-.3 0-.4.1-.1.5-.2.9-.2 1.3-.1 6.3-.1 12.6-.2 18.9-.1 4.7-.2 9.4-.2 14.1-.1 8.3-.1 16.7-.1 25 0 3.5-.1 7.1-.1 10.6v14.8c-.2 4.3-.5 8.7-.7 13-.1 1.8.1 3.7 0 5.5 0 1.9-.2 3.9-.2 5.8 0 7.3-.1 14.7-.1 22 0 4.8.2 9.6.3 14.3 0 .9.2 1.8.2 2.7-.2 4-.7 8-.7 12-.1 6.8 0 13.6 0 20.3v27.2c-.3.1-.8.2-1.3.5-2.3 1.2-4.4 2.8-6.8 3.7-4.4 1.7-7.8 4.8-11.5 7.3-2.1 1.4-4 3.1-6.1 4.6-1.2.9-2.6 1.6-3.9 2.3l-.4-.4c-.1-.2-.2-.3-.3-.5-2.3-4.8-6.2-7.4-11.4-8.4-2.9-.5-7.6 2-8.5 4.6.5-.3.8-.8 1.1-1.2 1.1-1.1 2.4-1.8 3.9-1.8 6.2-.2 10.7 2.9 12.8 8.7.9 2.5 1.1 5.1 1.2 7.8.2 4.3.1 8.6-.6 12.9-.4 2.4-1.4 2.8-3.5 1.7-4.6-2.5-8.3-6-11.2-10.4l-3-4.5c-1.3-1.9-2.5-4-2.4-6.4 0-1.7.5-3.3.7-5 0-.4-.3-.8-.4-1.2-.4.2-1 .4-1.2.7-.4.9-.8 1.8-.9 2.8-.7 3.9.2 7.6 2.4 10.8 2 2.9 4.1 5.7 6.2 8.5.2.3.4.8.3 1.1-.8 2.2-2.1 3.8-4.4 4.8-2.4.9-4.8 1-7.3.7-1.3-.2-2.6-.7-4.1-1.1.5-.4.6-.5.8-.6.7-.5 1.5-.7 1.7-1.8.1-.5 1.3-1.1 2-1.1 2.6.1 5-.7 7.4-1.8.5-.2 1-.5 1.4-.9.2-.3.3-.7.4-1.1-.4-.1-.8-.2-1.3-.3-.2 0-.4.2-.6.3q-3 1.65-6.3 2.1h-1.7c.3-.8.6-1.4.8-1.9 1.3-3.2 1.7-6.5.8-10-.2-.9.1-1.9.2-2.9.3-1.9.8-3.7 1.1-5.6.3-2.4.4-4.8.6-7.1 1.8-.4 1.9-2.1 2.8-3.1.9-1.1 1.9-2.1 2.9-3.2.6 1.7 1.2 2 2.7 1.8q.9-.15 1.8-.6c2.2-.8 4.3-1.7 6.5-2.5 2.9-1.1 5.8-2.4 7.9-4.8.8-.9 1.6-1.8 2.2-2.8 1.1-1.9 2.3-3.8 3.1-5.8.8-1.9 0-3.2-2-4s-3.8-.2-5.3 1c-4.9 4.2-9.7 8.5-14.5 12.9-.6.6-1.6 1.1-1.3 2.3.1.2-.5.7-.8 1-.4.4-.9.7-1.3 1.1-1.6 1.8-3.1 3.7-4.6 5.4.1-1.8.1-3.6 1.6-5.3 1.2-1.4 2.1-3.2 2.7-5 1.5-3.7.6-7.1-2-9.3-2.5-2.2-6.1-2.2-8.3-.1-.5-.3-1.1-.6-1.7-.8-1.8-.6-3.6-1.2-5.5-1.6-3.9-.8-6.7 2.7-6.1 6.1.4 2.1 1.1 4.2 1.9 6.2.7 1.7 1.8 3.3 2.8 5-4.1-.8-7.8.2-11.5 1.9-1.5.7-2.5 1.8-2.6 3.4s.9 2.6 2.2 3.3c2.7 1.5 5.3 3.1 8.4 3.7.1 0 .2.2.4.3-4.6.6-8.9 1.7-12.4 4.7-.8.7-1.3.4-2-.1-2-1.4-4-2.6-6-3.9-2.2-1.4-4.5-2.7-6.6-4.1-.8-.6-1.3-.6-2 .1-2 2-4.8 2.6-7.4 3.7-.6-3.6-1.2-7-1.8-10.5-.5-3-.9-6.1-1.3-9.1-.2-1.5-.8-2.3-2.2-2.5-.8-.1-1.6-.1-2.3.2-3.5 1.5-6.9 3-10.3 4.6-1.8.8-3.7 1.6-5.5 2.6-3.7 2-7.4 4.1-11.1 6.2-3.6 2-7.2 3.9-10.8 5.9-1.2.6-1.6 1.7-1.7 3 0 .8 0 1.5.1 2.3.5 4.3 1 8.7 1.6 13q.45 4.2 1.2 8.4c.1.7-.2.9-.8 1.1-1.6.6-3.2 1.2-4.8 1.9-3 1.6-6.4 2.5-9.2 4.6-3 2.3-6.2 4.2-9.4 6.2-2.3 1.4-4.7 2.4-7 3.7-2 1.1-1.9 2.7 0 3.9.3.2.6.5.6.8.1.9 0 1.9 0 2.8v14.1c0 3.6.1 7.3.2 10.9 0 4.5.1 8.9 0 13.4 0 .3-.2.8-.5 1-2.1 1.3-4.3 2.7-6.4 3.9-2 1.2-4.1 2.2-6.1 3.3-4.5 2.5-8.9 5.1-13.4 7.7-3.6 2-7.3 4-10.9 6-.2.1-.3.2-.4.3 1.2-.3 2.4-.6 3.5-1.1 2.7-1.4 5.4-2.8 8.1-4.3 3.3-1.9 6.5-3.9 9.8-5.8 1.9-1.1 3.8-2.4 5.9-3.1 3.5-1.4 7.2-2.1 10.2-4 .9.5 1.7 1.3 2.3 1.2 1.2-.2 1-1.5 1.2-2.5v-.5c.2-.3.4-.7.7-.9 5.4-3.1 10.8-6.1 16.2-9.2 3.9-2.2 7.7-4.6 11.5-6.8 1.1-.7 2.3-1.2 3.6-1.8.1.4.1.6.1.8-.1 1.8-.1 3.6-.2 5.4-.3 5.9 0 11.7.4 17.6.3 5.3.5 10.6.7 15.9.1 2.3.5 3.1 3 3.9.2-.7.5-1.4.5-2.2-.1-5.5-.3-11.1-.5-16.6-.2-4.9-.5-9.8-.6-14.7-.1-3.4.2-6.9.3-10.3v-3.2c1.3 1.1 2.3.7 3.1-.1.1-.1.1-.1.2-.1 4-2 8.1-3.9 12.1-6.1 4.5-2.4 8.8-5.1 13.3-7.6 4-2.2 7.9-4.5 12-6.5 4.6-2.3 9.4-4.4 14.1-6.6.4-.2.8-.2 1-.3-1.3 5.6-2.5 11.1-3.8 16.8-1.9-.7-3.8-1.2-5.6-2-2-.9-4-.7-5.9.2-1.4.6-1.6 1.8-.3 2.7.9.6 1.9 1 2.9 1.4.9.3 1.8.6 2.8.9-1.5 1.1-2.9 2-4.2 3-1.8 1.5-1.4 4.6.6 5.6 3.1 1.6 6.2 3.2 9.3 4.7 2 1 4.1 2.1 6.5 2 .9 0 .9.7.8 1.3-.3 2.7 0 5.3.4 8 .3 2.6.3 5.3.5 8.2-1.8-.7-3.3-1.2-4.9-1.7-.5-.1-1 .1-1.5.1.3.4.6.9 1 1.1 1.3.6 2.7 1.2 4.1 1.7 0 .1.1.2.1.4-2.4 1.4-4.7 2.9-7.1 4.3-.6.4-1.2.6-1.8 1-.7.7-.5 1.5.5 1.6.5.1 1 0 1.4-.2 1.9-1 3.8-2.1 5.6-3.2.8-.5 1.6-1.1 2.5-1.8-.4 7.7-.5 8.3.8 9.2.8-.9 1.1-1.9 1.1-3.1 0-1.9.1-3.8.2-6 .5.4.7.6 1 .8 2.2 1.7 4.4 3.4 6.7 5 .4.3 1.1.1 1.7.1-.2-.6-.3-1.2-.7-1.6-.6-.6-1.5-1-2.2-1.6-1.9-1.5-3.7-3-5.8-4.7 1.6-.5 2.8-.8 4-1.2.6-.2 1.8-.2 1.5-1.3s-1.3-.4-2.1-.3c-1.3.3-2.6.6-4 1-.1-.9-.2-1.5-.2-2.1 0-4.7 0-9.4-.1-14.1 0-1 .5-1.5 1.4-1.8 1.9-.7 3.7-1.4 5.5-2.2 1.6-.7 3-1.7 4.5-2.4 3.4-1.4 4.7-3.9 4.4-6.8-.2-2.4 0-4.8.1-7.2.2-6.2.4-12.4.7-18.5 0-.4-.1-.9-.3-1.3q-1.95-3-5.4-3.6c-.5-.1-1-.1-1.5-.2 0-.1 0-.2-.1-.3 2.4-1.4 4.8-2.7 7.3-4.2.1 1.5.3 2.8.4 4l.6 22c.1 4.2.5 8.5.5 12.7 0 2.1.9 3.2 3 3.9.2-.4.4-.8.5-1.2.1-2.9.2-5.8.1-8.6 0-2.5-.3-4.9-.5-7.4-.2-3.2-.4-6.5-.5-9.7-.1-1.8 0-3.5 0-5.4.6.3 1 .5 1.3.7 4.2 2.7 10.4 1.9 13.4-1.7.6-.7 1.1-1.3 1.2-2.2.5-3.4 1-6.9 1.5-10.3.1-.5.2-1 .4-1.7 1.8 2.5 4.3 3.3 6.5 4.6 2.8 1.5 5.8.3 6.6-2.7.5-2 .8-4.1.9-6.1.3-4.4.5-8.9-.3-13.2-.2-1 .1-1.7.8-2.2.8-.5 1.7-.9 2.5-1.4 1.8-1 3.7-1.9 5.3-3.1 1.7-1.2 3.2-2.8 4.8-4.1q1.5-1.35 3.3-2.4c2-1.2 4.2-2.3 6.2-3.6 2.1-1.2 4.1-2.6 6.4-4 .1 1.1.1 2 .2 3.1.4-.4.6-.6.8-.7.6.3 1 .6 1.6.7 3.4.8 6.2 2.5 9.2 4.2 3.7 2.1 7.5 4 11.2 6 2.1 1.2 4.5 1.8 6.5 3.2 1.4.9 1.6 2 1.5 3.4-.2 3.1-.4 6.1-.6 9.2-.3 6.1-.4 12.2-.7 18.3-.1 3.9-.3 7.9-.5 11.8 0 1-.1 2.2.6 3 1.9-.6 2.9-1.7 2.9-3.9 0-2.9.3-5.8.4-8.7.1-2.4 0-4.9.1-7.3l.6-16.2c.1-2.1.2-4.2.3-6.6q3.15 1.8 5.7 3.3c-.1.9-.3 1.6-.3 2.4.1 4.7.1 9.3.3 14 .2 4 1 8.1.5 12.2-.2 1.3.3 2.6 1.3 3.6 1.1 1.1 2.4 1.8 3.7 2.5 2.5 1.3 4.8 2.9 7.6 3.6.7.2 1.5.4 2.1.8.5.3 1 1 1 1.5.1 4.2.1 8.4.1 12.6 0 1.2-.1 2.4-.2 3.8-1.1-.2-2-.4-2.9-.6l-2.4-.6c-.3 0-.7.3-.8.5s.1.7.4.9c.2.2.6.3.9.4 1.3.4 2.6.8 4.1 1.3-1.2 1.1-2.2 2.1-3.3 2.9-1.5 1.2-3.1 2.2-4.6 3.4-.4.3-.5 1.1-.7 1.6.6 0 1.2.2 1.7-.1.8-.4 1.6-1.1 2.3-1.6 1.7-1.3 3.4-2.6 5.4-4 .1 2.1.2 4 .2 5.9 0 1.2.4 2.2 1.3 3.3 1.7-3.2.3-6.4.7-9.2q3.75 2.25 7.8 4.5c.4.2 1 .4 1.5.3.3 0 .8-.4 1-.7.1-.2-.2-.8-.4-1-.5-.4-1.1-.6-1.6-1-2.4-1.4-4.7-2.8-7.3-4.4l1-.5c1.2-.5 2.5-1 3.7-1.6.3-.2.5-.6.7-.9-.4-.1-.8-.3-1.2-.3s-.8.4-1.2.5c-1.3.4-2.5.8-3.9 1.2 0-2-.2-3.8 0-5.6.4-3.6 1.1-7.1.7-10.7-.1-.8.4-1 1.2-1.1 1.2-.2 2.6-.4 3.7-.9 3.2-1.4 6.2-3.1 9.3-4.6 1-.5 2-.8 2.8-1.5 1.7-1.4 2.2-4.2-.9-6.2-1-.6-2-1.3-3.1-2.1.7-.2 1.2-.4 1.6-.5 1.3-.5 2.6-.9 3.8-1.6 1.5-.8 1.5-1.7.4-2.9 1.5.6 3 1.2 4.3 2 4.1 2.4 8.1 4.9 12.2 7.3 3.6 2 7.4 3.8 11.1 5.7 1.7.8 3.3 1.8 4.9 2.6.3.1.7.1 1 .1.4-.1.7-.3 1.3-.5v3.2c0 6.9.1 13.7-.1 20.6-.2 6.4-.6 12.8-.8 19.3-.1 1.3-.1 2.6.8 3.9.4-.3.8-.6 1.2-.8 1.2-.6 1.5-1.5 1.5-2.9q0-5.55.3-11.1c.2-4.5.7-8.9.8-13.4.1-4.9-.2-9.8-.3-14.7v-2.9c3.9 2.5 7.6 4.8 11.3 7.2 3.5 2.3 6.9 4.7 10.4 7 3 1.9 6 3.6 9 5.4.9.5 1.4 1.1 1.5 2.2.1.7.7 1.4 1 2.1.6-.4 1.2-.7 1.9-1.1.1 0 .1-.1.4-.2 1.7 1.1 3.5 2.3 5.2 3.5 2.1 1.4 4.2 2.7 6.3 4.1 3.5 2.5 7 5.1 10.5 7.5 3 2.1 6 4.1 9 6.1 3.9 2.6 7.8 5.2 11.8 7.8 2.6 1.7 5.4 3.2 8.1 4.9 2.7 1.6 5.5 3.3 8.2 4.8.5.3 1.2.4 1.7.3.6-.1 1.2-.5 1.8-.8.3-.2.2-.3 0-.4M200.9 285.5c.3-.7.5-1.4.8-2.1.1-.2.1-.4.3-.5 3.8-3.5 7.6-7.2 11.5-10.6 1.5-1.3 3.5-1.9 5.4-2.7.6-.2 1.6-.1 2.1.2.8.5.5 1.5.2 2.3-1.2 3.2-3.4 5.8-5.6 8.2-.7.7-1.7 1.3-2.6 1.6-3.4 1.4-6.8 2.6-10.3 4-.7.3-1.4.6-2.1 1-.1-.1-.2-.1-.2-.2.2-.4.4-.8.5-1.2m-24.5-11c-.4-2.6 1.9-4.6 4.4-4 1.9.5 3.6 1.2 5.4 1.9.8.3 1.4.7 2.4-.1 1.1-.9 2.8-1 4.4-.4 2.1.8 3.4 2.5 3.4 4.6-.1 3.2-1.5 5.8-3.3 8.2-1.1 1.4-2.5 2.6-4 3.8-1 .8-2.3 1-3.5.2-4.7-3.7-8.3-8.1-9.2-14.2m-1.7 22.3c-2.1-1-4.2-2.1-6.3-3.2-.7-.4-1.9-.7-1.6-1.6.2-.8.9-1.9 1.7-2.2 1.7-.7 3.6-1.2 5.5-1.6 1.4-.2 2.8 0 4.3-.1.6 0 1.2-.2 2.2-.3 1.7 1.2 3 3.5 5.6 4 0 .1.1.2.1.2 0 1.1.3 2.5-.3 3.2-.5.7-1.9.6-2.9.9-1.6.5-3.3 1.1-4.9 1.3-1.2.1-2.4-.1-3.4-.6m-3.1 5.4c3.6-1.2 7.2-1 10.8-.1 1.9.5 3.5 1.6 4.7 3.1.4.5.9 1.5 1.8.9.2-.2 0-1.3-.2-1.9-1.2-2.3-3.4-3.3-5.7-4-1.3-.4-2.6-.7-4-1.2 2.3-.9 4.6-1.8 7-2.6 1.1-.4 2-1.2 1.8-2.4-.1-.7-.3-1.4-.6-2.3 2.3-.1 4-1.5 5.6-3.1.1.1.2.1.3.2-.7 5.4-1.3 10.7-2 16.1-.7-3.2-1.2-6.5-2.4-9.6-.2 0-.3 0-.4.1 0 .4-.1.8 0 1.2.5 2.6 1.1 5.2 1.6 7.8.2 1 .5 2-.1 3-.2.4 0 1.2.1 1.7.8 3.3.4 6.5-1.6 9.4-.6.9-1.1.9-1.9.3-3-2.1-5.8-4.4-8.9-6.2-3.1-1.9-6.4-3.3-9.6-5-.9-.4-1.7-.9-2.8-1.5 2-1.8 4.1-3.1 6.5-3.9m-76.3-1.3c-.2-1.4.3-2.3 1.4-2.9 2.9-1.6 5.8-3.1 8.7-4.6 1.2-.6 2.4-1.3 3.6-1.9 5.2-2.7 10.3-5.4 15.5-8 3.1-1.6 6.3-2.9 9.5-4.3 1-.5 1.4-.1 1.6.8.4 2.4.8 4.9 1.1 7.3.8 5.5 1.5 10.9 2.3 16.4.1.8.1 1.7.1 2.5-.1 1.9-1 2.7-2.8 3.4-1.7.6-3.3 1.6-4.9 2.5-7.4 4-14.7 8-22.1 12-2.7 1.4-5.5 2.6-8.2 3.8-.7.3-1.5.4-2.3.6-.4-3-.8-5.8-1.1-8.6-.5-4.4-1-8.9-1.5-13.3-.4-2-.6-3.9-.9-5.7m31.7 21.4c1.1.6 2.2 1.1 3.6 1.8-1.8 1-3.5 1.9-5.2 2.8-.5.3-1.1.5-1.6.8-1.3 1.2-2.6.8-3.9.2-.1-.1-.3-.2-.4-.2-3.2-.7-3.4-3-3.3-5.6 0-.2.1-.6.2-.7 1.2-.5 2.1-1.5 3.6-1.3 1.6.2 2.3-.4 2.9-2 .1-.2.3-.5.5-.6.7-.4 1.4-.7 2.1-1.1.3 1.8.5 3.4.8 5 0 .3.3.7.7.9m-58.1 63.8c-.4-11.9-.8-23.5-1.2-35.3 10.9 5.8 21.6 11.4 32.3 17.1-10.4 6.1-21.4 11-31.1 18.2m115.6-63.4c-3 2.8-6.8 4.4-10.3 6.4-5.9 3.3-11.8 6.6-17.8 9.8-3.8 2-7.8 3.6-11.7 5.5-2.9 1.4-5.8 2.9-8.6 4.5-8.5 4.6-16.9 9.6-25.8 13.4-1.4.6-2.7 1.4-4 2.1-.6.4-1.1.3-1.8 0l-7.8-3.9c-4-2-8.2-3.7-12.2-5.8-3.4-1.8-6.5-4-9.8-6-2.5-1.6-5.1-3.1-7.6-4.7-.5-.3-.9-.7-1.5-1.1 1.7-.8 3.2-1.6 4.7-2.4 4.6-2.3 8.7-5.3 12.9-8.3 1.8-1.3 4-2.2 6-3.1s4-1.7 6-2.5c.2-.1.5-.1.6.1.8.7 1.4 1.7 2.3 2.2.6.4 1.6.4 2.3.2 4.6-1.4 8.7-3.8 12.8-6.1.3-.2.7-.4 1-.6.1 0 .2 0 .5-.1.2 1.2.4 2.5.8 3.7.2.6.5 1.4 1.1 1.7 1.5.8 3.2 1.5 4.8 2 .5.2 1.3-.1 1.8-.3 2.4-1.3 4.8-2.7 7.2-4 .4-.2.8-.5 1.1-.9.5-.6.6-1.2-.3-1.7-1.2-.6-2.5-1.3-3.6-2-.3-.2-.5-.7-.5-1.1-.1-1.4 0-2.8 0-4.3 3.3-1.7 6.7-3.6 10.2-5.3 2.4-1.2 3-2.2 2.9-4.9-.1-1.2-.1-2.3-.3-3.5-.1-.7.1-1.2.8-1.4s1.4-.3 2.1-.6c1.4-.7 2.8-1.3 4.1-2.2.9-.6 1.5-.7 2.4-.1 3.6 2.3 7.3 4.2 10.7 6.7 5.1 3.8 11 6.3 16.4 9.6 2.7 1.7 5.3 3.5 8 5.3.5.3 1 .7 1.5.9.9.3.9 1 .8 1.6-.1.4-.8.6-1.2.9-.4.1-.8.1-1 .3m17.6 4.2-1.2 8.4c0 .3-.2.6-.4.8-2.7 2.3-5.9 2.3-9.2 1.6-3.1-.7-4.7-2.5-4.8-5.8 0-1.4-.4-2.8-.6-4.3 6.3 2.1 11.9 2.1 16.5-3.5-.1 1-.2 1.9-.3 2.8m169.3-32.2c1.1-1.7 2.7-2.5 4.8-2.8 0 .5.1.8 0 1.1-.9 2.9-1.8 5.7-4 7.9-.3.3-1 .4-1.5.6-.2-.5-.4-.9-.5-1.4-.3-1.9.2-3.7 1.2-5.4m-4 7.4c.5.6 1 1.2 1.6 1.8.4-.1.7-.3 1.3-.5-.5 1.2.1 1.2.9 1.2s1.6 0 2.3.3c.9.4 1.4 1.5.9 2.3-1.1 1.7-2.4 3.3-3.7 5-2.8-2.8-2.9-5.3-.3-7.4-.9-.1-1.5-.2-2.2-.3-.2-.7-.5-1.5-.9-2.3zm2 11.1c-1.5.4-2 .1-2.5-1.3-.3-.9-.5-1.8-.6-2.8 1.1 1.3 2.1 2.7 3.1 4.1m-4.7-12.3c1.2 1 2.1 2.5 3.2 3.7-.1.1-.2.2-.3.2-1.3-.4-2.7-.8-4-1.2-.7-.3-1.5-.6-2.1-1.1-.3-.2-.6-.8-.5-1.1.1-.4.6-.9.9-.9.9 0 2.1-.1 2.8.4m-106.3-13.5c-.7-.3-1.1-.5-1.5-.7 0 0-.1 0-.1-.1-.1 0-.1-.1-.2-.1s-.1-.1-.2-.2l-.1-.1-.1-.1c-.1-.2-.2-.4-.3-.7v-.2c0-.3-.1-.8-.1-1.3-.1-6.7-.4-13.3-.4-20 0-7.1.3-14.2.5-21.3.2-6.3.5-12.7.8-19 .1-2.6.2-5.2.2-7.8 0-.4.1-.8 0-1.2-.4-2.2.5-4.2.7-6.3.2-2.8.7-5.6.8-8.4.2-3.1.2-6.2.1-9.3 0-4.8-.2-9.6-.2-14.4-.1-5.7-.1-11.3-.3-17-.1-2.9-.2-5.8-.4-8.7v-1.3c1.4.8 2.5 1.5 3.8 2.1 3.8 1.8 7.4 3.9 11.5 4.9 2.5.6 4.4 2.2 6.2 3.8s3.7 3.2 5.9 4.4c2.4 1.2 4.5 2.9 6.8 4.1 3.8 2.1 7.7 4.1 11.6 6.2.8.4 1.3 1.2 2 1.8.9.7 1.8 1.4 2.6 2-.2 3.9-.4 8-.6 12 0 .8.1 1.5.2 2.3.5 3.3.9 6.6.6 10-.1 1.7 0 3.4 0 5.1v16c-.8 4.6-.3 9.2-.6 13.8-.3 4.2-.4 8.3-.6 12.5-.1 3-.4 6-.5 9-.1 1 0 2 0 3 0 2.3 0 4.7-.1 7s-.4 4.7-.4 7c0 1.4-.6 2.2-1.7 2.7-.4.2-.8.5-1.4.9.3-1.4.5-2.6.8-3.8.9-3.9.6-7.8.3-11.7 0-.3-.1-.6-.1-.9 0-4.3 0-8.7.1-13 .1-1.8.5-3.5.7-5.3.3-3.5.4-6.9.8-10.4.5-4 .1-8 .1-11.9 0-3 .2-6 .2-9 .1-4.1.2-8.3.2-12.4v-6.6c0-4 0-8-.1-12.1 0-1.1-.2-2.2-.4-3.4 0-.2-.4-.6-.6-.6-2.6-.9-4.8-2.5-6.9-4.2-.8-.6-1.7-1.2-2.6-1.5-2.3-.8-3.9-2.5-5.7-4.1-.3-.2-.5-.6-.8-.7-3.4-1.5-5.8-4.4-8.7-6.4q-1.65-1.2-3.6-2.1c-1.9-.9-3.9-1.5-5.7-2.4-1.4-.6-2.5-1.7-4-2.2-1.9-.7-3.9-1.1-5.8-1.5-.5-.1-1.1.2-1.4.3.1 1.5.3 2.8.4 4 .4 5.2.8 10.5 1 15.8.1 2 0 4.1 0 6.1.1 5.7.4 11.3.5 17 .1 5.4 0 10.8-.1 16.3 0 3.1-.2 6.2-.3 9.3-.1 4.4-.1 8.8-.4 13.1-.2 2.6-.6 5.2-1.2 7.7-.7 3.4-.9 6.7-.6 10.1.2 2.2-.2 4.4-.2 6.7 0 1.5.1 3.1.2 4.6 0 .2.2.5.4.6 2.7 1.6 5.3 3.5 8.1 4.8 3.1 1.4 6.3 2.7 9.3 4.3 2.3 1.3 4.8 1.9 7.2 3 2.6 1.2 5.1 2.6 7.6 4q2.1 1.2 4.2 2.7c-1.5.7-2.9 1.4-4.3 2-.2.1-.6 0-.9-.2-3.3-1.3-6.4-3.1-9.4-5s-6.3-3.2-9.5-4.8c-1.6-.8-3.1-1.6-4.7-2.4-2.5-1.3-5-2.5-7.4-3.8-.1 0-.2 0-.2-.1-.4-.2-.9-.4-1.3-.6-.1.6-.4 1.1-.4 1.7-.2 2.9-.4 5.8 0 8.7.3 2.1.1 4.4.1 6.6.6.5.6.9.6 1.3m44.6-35v8.1c0 3.3 0 6.7-.2 10-.1 2.2-.6 4.3-.8 6.5-.1.9-.2 1.8-.2 2.7 0 2.1-1.7 3.2-3.6 2.4-1.1-.5-2.2-.8-3.4-1.3-4.7-2-9.4-3.9-14-5.9-1.9-.8-3.6-2.1-5.4-3-1.6-.8-3.3-1.6-5-2.2-3-1-5.4-2.7-7.9-4.5-.6-.4-1.1-.8-1.7-1.2.5-4 1.5-8 .7-12-.5-2.6 0-5.2.6-7.7.9-3.9 1.3-7.8 1.2-11.8-.1-4.9.3-9.8.4-14.7.1-4.4.2-8.8.3-13.3 0-3.5.1-7.1-.1-10.6-.2-5.5-.4-11-.8-16.5-.4-6.5-1-13-1.4-19.6-.1-1.1-.1-2.2-.2-3.5 2 .3 4.1.5 5.9 1.7 3 1.8 6 3.6 9.2 5 2.5 1.1 4.5 3.2 6.7 4.9 1.3 1 2.6 1.8 3.8 2.8 1.3 1 2.4 2.2 3.7 3.2 1.4 1 2.9 1.8 4.3 2.7s2.9 1.6 4.1 2.7c1.1 1 2.3 1.7 3.7 2 1.8.4 2.3 1.4 2.4 2.8.1 2.7.1 5.3.1 8v8.3c0 .9-.2 1.8-.1 2.8.1 2.6.3 5.2.2 7.8 0 3.7-.2 7.3-.4 11 0 1.4-.1 2.8-.1 4.1 0 2.3 0 4.7-.2 7-.1 2.2-.4 4.3-.6 6.4 0 .7 0 1.5.1 2.1.4 1.9-.3 3.7-1 5.3-.8 2.8-.3 5.2-.3 7.5m-28.4 44.1c-1.7-.8-3.4-1.8-5-2.7-2.3-1.3-4.7-2.6-7-3.9-1.4-.8-2.7-1.6-4.1-2.4 1.4.5 2.9.8 4.2 1.4 4.5 2.3 8.9 4.7 13.3 7 .1 0 .2.1.3.6-.6 0-1.2.2-1.7 0m1.3-2c-3.8-2.1-7.6-4.2-11.4-6.2-1.3-.7-2.6-1.2-3.9-1.8-.4-.2-.7-.7-.7-1.1-.3-3.5-.5-7.1-.7-10.6-.1-1.2 0-2.4 0-4 2.4 1.2 4.5 2.2 6.6 3.2.5.2.9.6 1.4.9 3.1 1.6 6.2 3.1 9.3 4.7 2.8 1.5 5.5 3.1 8.2 4.7 1.8 1 3.7 1.9 5.6 2.9-.4.3-.7.5-1 .8-2.7 1.7-5.4 3.4-8 5.1-.7.4-1.4.8-2 1.3-1.1 1.1-2.2.8-3.4.1m48.8 32c-.8-.2-1.5-.4-2.3-.5-2.2-.2-4 1-6.1 1.6-.9.3-1.8.7-2.9 1-.6-3.1-1.1-6-1.7-9.1 3 1.4 5.8 2.7 8.5 4.1 1.4.7 2.8 1.6 4.1 2.4.3.2.5.4.8.6 0 0-.2-.1-.4-.1m71.7 12.9c0 3.4-.2 6.9-.3 10.3-.1 1.4-.3 2.8-.3 4.3 0 2.6.1 5.2.1 7.8 0 .4 0 .9-.1 1.7-10.2-6.6-20.1-13-30.2-19.6 10.5-5.6 20.7-11 30.9-16.4-.1 3.9 0 7.9-.1 11.9m-.4-18c-3.6 2.2-7.2 4.5-10.8 6.6-4.1 2.3-8.3 4.6-12.5 6.8s-8.6 4.2-12.9 6.2c-.4.2-1 .2-1.3.1-6.2-3.1-12.5-6.1-18.6-9.3q-6.9-3.6-13.5-7.5c-4.1-2.4-8.4-4.3-12.8-6-1.9-.7-2.9-1.8-3.2-3.9-.4-2.6-2-4.8-4.1-6.4-3.8-3-8.1-4.3-12.9-3.8-.9.1-1.7.4-2.5.8s-1.4.4-2.1 0c-3.1-1.9-6.3-3.8-9.4-5.7-.5-.3-1-.4-1.5-.7-.2-.1-.5-.5-.5-.7 0-.3.2-.7.4-.9 1.4-.9 2.9-1.7 4.3-2.6 5.8-3.8 11.7-7.2 17.9-10.4 1.2-.6 2.2-1.8 3.4-2.6 1.5-1 3.1-1.9 4.7-2.9 2.4-1.5 4.9-2.9 7.2-4.4 1-.6 1.6-.5 2.5.1 1.5.9 3.2 1.6 4.8 2.3.7.3 1.3.5 2 .8l3.6 1.8c1.9 1.1 3.9 2.2 5.7 3.4 2.1 1.3 4.1 2.6 6.2 3.9 4.3 2.6 8.5 5.2 12.8 7.7 2.2 1.3 4.5 2.4 6.7 3.6 1 .5 2 1.2 3.3 1.9-.7.2-1.2.4-1.6.6-1.9.6-2.3 1.8-.8 3.1.9.8 2.1 1.3 3.3 1.9.4.2.8.2 1.4.4-.9 1.3-1 2.6-.2 3.9.3.6.4 1.4.6 2.1 1 2.9 3.8 3.6 6 1.5 1.8-1.7 3-4 3.6-7.3 2.6 1.2 5.3 2.1 7.6 4 4.1 3.4 8.7 6 13.3 8.5.5.2 1 .3 1.5.6.5.2.9.5 1.6.8-1.2.4-2.2 1.1-3.2 1.7"/><path d="M189.8 269.5c-1-.1-6.6-4.9-7.3-6 1.1-.4.8-1.2.5-1.9-1.3-4.3-3.4-8-6.2-11.5-2.8-3.3-6.1-6-9.7-8-3.5-2-7.6-3-11.7-3-1.8 0-2.8 1-3 2.8-.3 2.2.1 4.3 1.2 6.2 2.7 4.8 6.6 8.1 12 9.5 3.3.9 6.6 1.7 9.8 2.8 1.7.5 3.2 1.5 4.8 2.2.3.2.7.4.9.7.7.8.4 1.4-.5 1.5-.7 0-1.5 0-2.1-.3-3.9-1.8-8.2-2.5-12.3-3.6-5.5-1.4-10.2-4.2-13.1-9.2-1.6-2.7-2.4-5.8-2.7-8.9-.3-3.7 2.2-5.9 6.2-5.7 3.1.1 6 .7 8.8 2 5.8 2.7 10.8 6.3 14.1 12 1.1 1.9 2.1 3.8 3.2 5.6q1.35 2.55 1.2 5.4c0 .9.3 1.4 1 2 1.4 1.2 2.8 2.5 4.1 3.8.3.5.5 1 .8 1.6m9-48.2c-1.3.6-2.6 1.4-3.7 2.4-2.6 2.5-4.7 5.4-6.2 8.6-1 2.1-1.7 4.5-2.2 6.8-1.1 4.7.5 9 2 13.3 1.6 4.8 3.3 9.6 3.2 14.9 0 .6.2 1.2.2 1.8h.4c.1-.3.3-.7.3-1v-5.6c0-.9 0-1.9.2-2.8.1-1 .3-1.9.5-2.8.5-3.8.6-7.8 1.7-11.4 1.7-5.6 2.7-11.4 5.5-16.7.8-1.5 1.3-3.3 1.6-5 .2-2.1-1.6-3.3-3.5-2.5m1.6 2.9c-1 2.3-2 4.7-3 7-1.8 4-2.4 8.3-3 12.5-.7 4.4-1.2 8.9-1.7 13.3 0 .1-.1.3-.1.4h-.3c-1.1-3.9-2.6-7.8-3.4-11.8-.9-4.7-.2-9.3 2.4-13.5 1.1-1.8 2.1-3.8 3.4-5.5 1.2-1.5 2.8-2.7 4.3-3.9.3-.3 1-.1 1.5-.1-.1.7 0 1.2-.1 1.6M481 417.7c-.1.1-.1.2-.2.3.3.2.7.3 1 .5-.1.2-.3.3-.4.5-3.6-2.2-7.1-4.7-10.4-7.5.1-.1.1-.2.2-.2 1.1.8 2.1 1.6 3.2 2.3.4.3.7.6 1 .8.9.6 1.5 1.5 2.8 1.5.9 0 1.9 1 2.9 1.5.9.5 1.8 1 2.8 1.5l-.2.2c-.8-.5-1.8-.9-2.7-1.4"/><path d="M305.2 201.5c0-.9.1-1.8.1-2.8v-8.3c0-2.7 0-5.3-.1-8-.1-1.4-.6-2.5-2.4-2.8-1.4-.3-2.6-1-3.7-2-1.2-1.1-2.7-1.8-4.1-2.7s-2.9-1.7-4.3-2.7c-1.3-1-2.4-2.1-3.7-3.2-1.2-1-2.5-1.9-3.8-2.8-2.2-1.7-4.2-3.9-6.7-4.9-3.3-1.4-6.2-3.2-9.2-5-1.8-1.1-3.9-1.3-5.9-1.7.1 1.3.1 2.4.2 3.5.5 6.5 1 13 1.4 19.6.3 5.5.6 11 .8 16.5.1 3.5.1 7.1.1 10.6 0 4.4-.1 8.8-.3 13.3-.1 4.9-.5 9.8-.4 14.7.1 4-.4 7.9-1.2 11.8-.6 2.5-1.1 5.1-.6 7.7.8 4-.2 8-.7 12 .6.4 1.1.8 1.7 1.2 2.5 1.7 4.9 3.5 7.9 4.5 1.7.6 3.4 1.3 5 2.2 1.8.9 3.5 2.2 5.4 3 4.6 2.1 9.3 4 14 5.9 1.1.5 2.2.8 3.4 1.3 1.9.8 3.6-.3 3.6-2.4 0-.9.1-1.8.2-2.7.3-2.2.7-4.3.8-6.5.2-3.3.2-6.7.2-10v-8.1c0-2.3-.5-4.7.4-7 .7-1.7 1.4-3.4 1-5.3-.1-.7-.2-1.4-.1-2.1.2-2.1.5-4.3.6-6.4.1-2.3.1-4.7.2-7 0-1.4 0-2.8.1-4.1.1-3.7.3-7.3.4-11 0-3.1-.2-5.7-.3-8.3m-1.9 42.4c-.1.8-.2 1.7-.5 2.4-.3.8-1.2 1-1.9.4-.8-.8-1.6-1.6-2.4-2.5-.1-.1-.3-.3-.3-.5-.2-3.5-.5-7 .1-10.4.2-1.6.2-3.3.3-5 0-.4.2-.8.3-1.2q1.95 1.2 3.6 2.1c.2.2.4.5.6.7-.3 0-.7.2-1 .1-.8-.3-1.6-.6-2.7-1.1-.1 1.2-.3 2.4-.3 3.5-.1 2.9 0 5.7-.1 8.6-.1 2.2.1 2.7 3 4.2q.15-2.25.3-4.2c.1-3.1.2-6.2.4-9.3h.6z" class="st3"/><path d="M185.8 319.9c-.6-.2-1.1-.6-1.5-.9-2.7-1.8-5.3-3.6-8-5.3-5.4-3.3-11.2-5.8-16.4-9.6-3.4-2.5-7.2-4.5-10.7-6.7-.9-.6-1.6-.5-2.4.1-1.3.8-2.7 1.5-4.1 2.2-.6.3-1.4.4-2.1.6s-.9.6-.8 1.4c.2 1.2.2 2.3.3 3.5.2 2.8-.4 3.7-2.9 4.9-3.5 1.8-6.9 3.6-10.2 5.3v4.3c0 .4.2.9.5 1.1 1.2.7 2.4 1.4 3.6 2 .9.5.8 1 .3 1.7-.3.3-.7.6-1.1.9-2.4 1.4-4.8 2.7-7.2 4-.5.3-1.3.5-1.8.3-1.7-.5-3.3-1.2-4.8-2-.5-.3-.9-1-1.1-1.7-.3-1.2-.5-2.5-.8-3.7-.3 0-.4 0-.5.1-.3.2-.7.4-1 .6-4.1 2.3-8.3 4.7-12.8 6.1-.7.2-1.7.1-2.3-.2-.9-.5-1.5-1.4-2.3-2.2-.1-.2-.4-.2-.6-.1-2 .8-4 1.6-6 2.5s-4.2 1.8-6 3.1c-4.1 3-8.3 6-12.9 8.3-1.5.8-3 1.5-4.7 2.4.6.4 1 .8 1.5 1.1 2.5 1.6 5.1 3.1 7.6 4.7 3.3 2 6.5 4.1 9.8 6 4 2.1 8.1 3.9 12.2 5.8q3.9 1.8 7.8 3.9c.7.3 1.1.4 1.8 0 1.3-.8 2.6-1.5 4-2.1 8.9-3.8 17.3-8.7 25.8-13.4 2.8-1.5 5.7-3.1 8.6-4.5 3.9-1.9 7.9-3.5 11.7-5.5 6-3.1 11.9-6.4 17.8-9.8 3.5-2 7.3-3.6 10.3-6.4.2-.2.6-.1.9-.3.4-.3 1.1-.5 1.2-.9.2-.6.1-1.3-.7-1.6m-39.3 11.6c-2.4 1.5-4.8 3.1-7.3 4.5-2.2 1.3-4.5 2.5-6.7 3.7-.9.5-1.8.8-2.7 1.2 0-.1-.1-.2-.1-.3 5.3-3.3 10.7-6.6 16-10-1.8-1.7-3.4-3.2-5-4.8-.8-.8-1.5-.8-2.5-.2-5 3-10.2 5.9-15.3 8.8-.4.2-.7.5-1.3.9 2.6 1.7 4.9 3.2 7.3 4.8l-.2.2c-2.3-1.1-5-1.6-7-3.4-.4-.4-.7-.9-.9-1.4-.1-.2.1-.6.2-.7l7.2-4.5c3.4-2.1 6.9-4.1 10.2-6.2.8-.5 1.4-.4 2.1.2 2 2 4.1 3.9 6.2 5.8.6.7.3 1.1-.2 1.4m7.7-9.3c-2 1.3-4.1 2.4-6.1 3.6-.1-.2-.2-.3-.3-.5 2-1.3 4.1-2.7 6.2-4-1-1-1.8-1.9-2.7-2.7-.2-.2-.7-.2-1-.1-2.2 1-4.3 2.1-6.5 3.2 1.2 1.2 2.4 2.2 3.5 3.3-.1.1-.2.2-.2.3-1.3-.9-2.7-1.7-3.9-2.7-.2-.1 0-1.3.4-1.5 2.2-1.3 4.5-2.5 6.8-3.5.4-.2 1.3.1 1.7.4 1 .7 1.8 1.6 2.6 2.5.6.7 0 1.4-.5 1.7m243.3-3.6c-.5-.2-1-.3-1.5-.6-4.7-2.5-9.3-5.1-13.3-8.5-2.3-1.9-4.9-2.8-7.6-4-.6 3.3-1.8 5.6-3.6 7.3-2.3 2.1-5.1 1.3-6-1.5-.2-.7-.3-1.4-.6-2.1-.7-1.3-.7-2.6.2-3.9-.5-.2-1-.2-1.4-.4-1.1-.6-2.4-1.1-3.3-1.9-1.5-1.3-1.1-2.5.8-3.1.5-.2.9-.3 1.6-.6-1.2-.7-2.2-1.3-3.3-1.9-2.2-1.2-4.5-2.3-6.7-3.6-4.3-2.5-8.6-5.1-12.8-7.7-2.1-1.3-4.1-2.6-6.2-3.9-1.9-1.2-3.8-2.3-5.7-3.4-1.2-.7-2.4-1.2-3.6-1.8-.6-.3-1.3-.5-2-.8-1.6-.8-3.3-1.4-4.8-2.3-.9-.6-1.6-.7-2.5-.1-2.4 1.5-4.8 2.9-7.2 4.4-1.6 1-3.2 1.9-4.7 2.9-1.2.8-2.2 1.9-3.4 2.6-6.1 3.2-12.1 6.6-17.9 10.4-1.4.9-2.9 1.7-4.3 2.6-.2.1-.4.6-.4.9 0 .2.2.6.5.7.5.3 1 .4 1.5.7 3.2 1.9 6.3 3.8 9.4 5.7.7.5 1.4.4 2.1 0 .8-.4 1.6-.7 2.5-.8 4.8-.5 9.1.8 12.9 3.8 2.1 1.6 3.7 3.8 4.1 6.4.3 2 1.3 3.2 3.2 3.9 4.4 1.6 8.7 3.6 12.8 6 4.5 2.6 8.9 5.1 13.5 7.5 6.2 3.2 12.4 6.2 18.6 9.3.4.2.9.1 1.3-.1 4.3-2 8.6-4 12.9-6.2 4.2-2.2 8.4-4.4 12.5-6.8 3.7-2.1 7.2-4.4 10.8-6.6 1-.6 1.9-1.2 3.1-2-.6-.1-1.1-.3-1.5-.5m-50.6-23.5c-.5 2.3-1.1 4.5-1.7 6.8l-1.2 4.8c-.4 1.4-1.2 2.4-2.6 3.1-2.4 1.1-4.8 2.4-7.2 3.5-.8.4-1.7.7-2.6.9-.4.1-1 0-1.4-.2-3.1-1.6-6.2-3.3-9.2-5-1.6-.9-3.3-1.8-4.9-2.7-1-.5-1-1-.1-1.6 1.9-1.1 3.8-2.1 5.7-3.2 1.3-.7 2.5-1.5 3.7-2.3.3-.2.2-.9.4-1.4 1-3.8 2-7.7 3-11.5.1-.5.6-1 .9-1.6 1.2.6 2.2 1.1 3.3 1.7 1.6.8 3.1 1.6 4.7 2.5 2.1 1.1 4.3 2.2 6.4 3.4.9.5 1.7 1.3 2.5 2 .3 0 .4.5.3.8m-88.5-7.7c-2.3-.8-2.5-1.2-2.5-3.5-.1-6.7-.4-13.3-.4-20 0-7.1.3-14.2.5-21.3.2-6.3.5-12.7.8-19 .1-2.6.2-5.2.2-7.8 0-.4.1-.8 0-1.2-.4-2.2.5-4.2.7-6.3.2-2.8.7-5.6.8-8.4.2-3.1.2-6.2.2-9.3 0-4.8-.2-9.6-.2-14.3-.1-5.7-.1-11.3-.3-17-.1-2.9-.2-5.8-.4-8.7v-1.3c1.4.8 2.6 1.5 3.8 2.1 3.8 1.8 7.4 3.9 11.5 4.9 2.6.6 4.4 2.2 6.2 3.8s3.7 3.2 5.9 4.4c2.4 1.2 4.5 2.9 6.8 4.1 3.8 2.1 7.7 4.1 11.6 6.2.8.4 1.3 1.2 2 1.8.9.7 1.8 1.4 2.6 2-.2 3.9-.4 8-.5 12 0 .8 0 1.5.2 2.3.5 3.3.9 6.6.6 10-.1 1.7 0 3.4 0 5.1v16c-.8 4.6-.3 9.2-.6 13.8-.3 4.2-.4 8.3-.6 12.5-.1 3-.4 6-.5 9-.1 1 0 2 0 3 0 2.3 0 4.7-.1 7s-.4 4.7-.4 7c0 1.4-.6 2.2-1.7 2.7-.4.2-.8.5-1.4.9.3-1.4.5-2.6.8-3.8.9-3.9.7-7.8.3-11.7 0-.3-.1-.6-.1-1 0-4.3 0-8.7.2-13 .1-1.8.5-3.6.6-5.3.3-3.4.4-6.9.8-10.3.5-4 .1-8 0-11.9 0-3 .2-6 .3-9 .1-4.1.2-8.3.2-12.4 0-2.2.1-4.4 0-6.6 0-4 0-8-.1-12.1 0-1.1-.2-2.2-.4-3.4 0-.3-.4-.6-.6-.7-2.6-.9-4.8-2.5-6.9-4.2-.8-.6-1.7-1.2-2.6-1.5-2.3-.8-3.9-2.5-5.7-4.1-.3-.2-.5-.6-.8-.7-3.4-1.4-5.8-4.4-8.7-6.4-1.1-.8-2.4-1.5-3.6-2.1-1.9-.9-3.9-1.5-5.7-2.4-1.4-.6-2.5-1.7-3.9-2.2-1.9-.7-3.9-1.1-5.9-1.5-.5-.1-1.1.2-1.4.3.1 1.5.3 2.8.4 4 .4 5.3.7 10.5 1 15.8.1 2 0 4.1 0 6.1.1 5.7.4 11.3.5 17 .1 5.4 0 10.8-.1 16.3l-.3 9.3c-.1 4.4-.1 8.8-.4 13.1-.2 2.6-.6 5.1-1.2 7.7-.7 3.4-.9 6.7-.6 10.1.2 2.2-.2 4.5-.2 6.7 0 1.5.1 3.1.2 4.6 0 .2.2.5.4.6 2.7 1.6 5.3 3.5 8.1 4.8 3.1 1.4 6.3 2.7 9.3 4.3 2.3 1.3 4.9 1.9 7.2 3 2.6 1.2 5.1 2.6 7.6 4 1.4.8 2.8 1.7 4.3 2.6-1.5.7-2.9 1.4-4.3 2-.2.1-.6 0-.9-.2-3.3-1.3-6.4-3.1-9.4-5s-6.3-3.2-9.5-4.8c-1.6-.8-3.1-1.6-4.7-2.4-2.5-1.3-5-2.6-7.4-3.8-.1 0-.2 0-.2-.1-.4-.2-.9-.4-1.3-.6-.1.6-.4 1.1-.4 1.7-.2 2.9-.4 5.8 0 8.7.3 2.1.1 4.4.1 6.6.2.6.2 1 .2 1.4" class="st4"/><path d="M138.9 303.6c-.7-5.5-1.5-10.9-2.3-16.4-.3-2.4-.7-4.9-1.1-7.3-.2-1-.6-1.3-1.6-.8-3.2 1.5-6.4 2.8-9.5 4.3-5.2 2.6-10.3 5.3-15.5 8-1.2.6-2.4 1.3-3.6 1.9-2.9 1.5-5.8 3-8.7 4.6-1.1.6-1.6 1.5-1.4 2.9.4 1.8.5 3.7.8 5.6.5 4.4 1 8.9 1.5 13.3.3 2.8.7 5.6 1.1 8.6.8-.2 1.6-.3 2.3-.6 2.8-1.2 5.6-2.4 8.2-3.8 7.4-3.9 14.8-8 22.1-12 1.6-.9 3.2-1.9 4.9-2.5 1.8-.7 2.7-1.4 2.8-3.4q.15-1.05 0-2.4m-2.8-1.8c-7.7 4.2-15.3 8.6-23 12.8-3.7 2-7.6 3.6-11.5 5.4-.8.4-1.5.8-2.2 1.2-.6.3-1 .3-1.1-.5l-1.8-15.6h.4c-.1-1.7-.3-3.3-.3-5 0-.5.3-1.1.6-1.3 2.3-1.4 4.7-2.8 7.1-4.1 5.2-2.8 10.4-5.6 15.6-8.3 4-2 8.1-3.8 12.1-5.7 1.5-.7 2.1-.3 2.4 1.4.9 5.9 1.8 11.7 2.7 17.6.3.9-.1 1.6-1 2.1m123-31c2.4 1.2 4.5 2.2 6.6 3.2.5.2.9.6 1.4.9 3.1 1.6 6.3 3.1 9.3 4.7 2.8 1.5 5.5 3.1 8.2 4.7 1.8 1 3.7 1.9 5.6 2.9-.4.3-.7.5-1 .7-2.7 1.7-5.4 3.4-8 5.1-.7.4-1.4.8-2 1.4-1.1 1.1-2.2.8-3.4.2-3.8-2.1-7.6-4.2-11.4-6.2-1.3-.7-2.6-1.2-3.9-1.8-.4-.2-.7-.7-.7-1.1-.3-3.5-.5-7.1-.7-10.6zm-62.8 5.7c0 3.2-1.5 5.8-3.3 8.2-1.1 1.4-2.5 2.6-4 3.8-1 .8-2.3 1-3.5.2-4.7-3.7-8.2-8.1-9.2-14.2-.4-2.6 1.9-4.6 4.4-4 1.8.5 3.6 1.2 5.4 1.9.8.3 1.4.7 2.4-.1 1.1-.9 2.8-.9 4.4-.4 2.1.8 3.5 2.6 3.4 4.6m4.1 10.2c.2-.4.4-.8.5-1.2.3-.7.5-1.4.8-2.2.1-.2.1-.4.3-.5 3.8-3.5 7.6-7.2 11.6-10.6 1.5-1.3 3.5-1.9 5.4-2.7.6-.2 1.6-.1 2.1.2.8.6.5 1.5.2 2.3-1.2 3.2-3.3 5.8-5.6 8.2-.7.7-1.7 1.3-2.6 1.6-3.4 1.4-6.8 2.6-10.3 4-.7.3-1.4.6-2.1 1-.2 0-.2-.1-.3-.1" class="st3"/><path d="M185.9 327.5c6.3 2.1 11.9 2.1 16.5-3.5-.1 1-.1 1.9-.2 2.9l-1.2 8.4c0 .3-.2.6-.4.8-2.7 2.4-5.9 2.3-9.2 1.6-3.1-.7-4.7-2.5-4.8-5.8-.1-1.5-.5-2.9-.7-4.4" class="st4"/><path d="M180.4 287.7c1.7 1.2 3 3.5 5.6 4 .1.1.1.2.1.2 0 1.1.3 2.5-.3 3.2-.5.7-1.9.6-2.9.9-1.6.5-3.3 1.1-4.9 1.3-1.1.1-2.3-.1-3.3-.5-2.1-.9-4.2-2.1-6.3-3.2-.7-.4-1.9-.7-1.6-1.6.2-.9.9-1.9 1.7-2.2 1.7-.7 3.6-1.2 5.5-1.6 1.4-.2 2.8 0 4.3-.1.6 0 1.2-.2 2.1-.4m-55 28.6c.3 1.8.5 3.4.8 5 .1.4.4.8.7 1 1.1.6 2.2 1.1 3.6 1.8-1.8 1-3.5 1.9-5.2 2.8-.5.3-1.1.5-1.6.8-1.3 1.2-2.6.8-3.9.2-.1-.1-.3-.2-.4-.2-3.2-.6-3.4-3-3.3-5.6 0-.3.1-.7.2-.7 1.2-.5 2.1-1.5 3.6-1.3 1.6.2 2.3-.4 2.9-2 .1-.2.3-.5.5-.6q1.05-.75 2.1-1.2m200 10.3c0 .1 0 0 0 0m45.2-14.4c-2.8-2.7-2.9-5.3-.3-7.4-.9-.1-1.4-.2-2.2-.3-.3-.7-.6-1.5-.9-2.3l.2-.2c.5.6 1 1.2 1.6 1.8.4-.1.7-.3 1.3-.5-.5 1.2.1 1.2.9 1.2s1.6 0 2.3.3c.9.4 1.4 1.5.9 2.3-1.2 1.8-2.5 3.4-3.8 5.1m5.6-20.3c0 .5.1.8 0 1.2-.9 2.9-1.8 5.7-4 7.9-.4.4-1 .4-1.5.6-.2-.5-.4-.9-.5-1.4-.3-2 .2-3.8 1.3-5.5 1-1.7 2.7-2.4 4.7-2.8" class="st3"/><path d="M258.4 287.4c1.5.5 3 .8 4.3 1.5 4.5 2.3 8.9 4.7 13.3 7 .1.1.2.1.3.6-.5 0-1.2.2-1.6 0-1.7-.8-3.4-1.8-5-2.7-2.3-1.3-4.6-2.6-7-3.9-1.5-.9-2.9-1.7-4.3-2.5" class="st4"/><path d="M367.5 304.9c-1.3-.4-2.7-.8-4-1.2-.7-.3-1.5-.6-2.1-1.1-.3-.2-.6-.8-.5-1.1.1-.4.6-.9.9-.9 1 0 2.2-.1 2.8.4 1.2 1 2.1 2.5 3.2 3.7-.1 0-.2.1-.3.2" class="st3"/><path d="M369.4 313.2c-1.5.4-2 .1-2.5-1.3-.3-.9-.5-1.8-.6-2.8 1.1 1.3 2.1 2.7 3.1 4.1"/><path d="M192.1 257.5c-1.1-3.9-2.6-7.8-3.4-11.8-.9-4.7-.2-9.3 2.4-13.5 1.1-1.8 2.1-3.8 3.4-5.5 1.2-1.5 2.8-2.7 4.3-3.9.3-.3 1-.1 1.5-.1 0 .5.1 1-.1 1.5-1 2.4-2 4.7-3 7-1.8 4-2.4 8.3-3 12.5-.7 4.4-1.2 8.9-1.7 13.3 0 .1-.1.3-.1.4-.1.1-.2.1-.3.1" class="st3"/><path d="m298.7 228.3-.5 14.2.3 1.7 3.4 1.8.7-3.1.6-13-2.5-1.6z" class="st4"/><path d="M302.1 245.2q.15-2.25.3-4.2c.1-3.1.2-6.2.4-9.3h.6v9.3c0 1 .1 1.9 0 2.9-.1.8-.2 1.7-.4 2.4-.3.8-1.2 1-1.9.4-.8-.8-1.6-1.6-2.4-2.5-.1-.1-.3-.3-.3-.5-.2-3.5-.5-7 .1-10.4.2-1.6.2-3.3.3-5 0-.4.2-.8.3-1.2 1.3.8 2.5 1.4 3.6 2.1.3.2.4.5.6.7-.3 0-.7.2-1 .1-.8-.3-1.6-.6-2.7-1.1-.1 1.2-.3 2.4-.3 3.5-.1 2.9 0 5.7-.1 8.6-.3 2.2 0 2.8 2.9 4.2"/><path d="m121.6 337 8.2 3.9 16.5-10.1-6.5-6.3-1.8.6-14.7 8.3-2.4 1.5zm21.9-15.8 6.8-3.6 3.1 2.4 1.1 1.3-6.4 4.5-5-3.2z" class="st3"/><path d="M129.6 340.7c5.3-3.3 10.7-6.6 16-10-1.8-1.7-3.4-3.3-5-4.8-.8-.8-1.5-.8-2.5-.2-5 3-10.2 5.9-15.2 8.8-.4.2-.7.5-1.3.9 2.6 1.7 4.9 3.2 7.3 4.8l-.2.2c-2.3-1.1-5-1.6-7-3.4-.4-.4-.7-.9-.9-1.4-.1-.2.1-.6.2-.7l7.2-4.5c3.4-2.1 6.9-4.1 10.3-6.2.8-.5 1.4-.4 2.1.2 2 2 4.1 3.9 6.2 5.8.6.6.4 1-.1 1.3-2.4 1.5-4.8 3.1-7.3 4.5-2.2 1.3-4.5 2.5-6.7 3.7-.9.5-1.8.8-2.7 1.2-.3 0-.3-.1-.4-.2m14.1-19c1.2 1.2 2.4 2.2 3.5 3.3-.1.1-.2.2-.2.3-1.3-.9-2.7-1.7-3.9-2.7-.2-.1.1-1.3.4-1.5 2.2-1.3 4.5-2.5 6.8-3.5.4-.2 1.3.1 1.7.4.9.7 1.8 1.6 2.6 2.5.7.7.1 1.4-.4 1.7-2 1.3-4.1 2.4-6.1 3.6-.1-.2-.2-.3-.3-.5 2-1.3 4.1-2.6 6.2-4-1-1-1.8-1.9-2.7-2.7-.2-.2-.7-.2-1-.1-2.2 1.1-4.4 2.1-6.6 3.2m203-27.6c-.8-.7-1.6-1.5-2.5-2-2.1-1.2-4.3-2.3-6.4-3.4-1.5-.8-3.1-1.6-4.7-2.5-1.1-.6-2.1-1.1-3.3-1.7-.4.6-.8 1.1-.9 1.6-1 3.8-2 7.7-3 11.5-.1.5-.1 1.2-.4 1.4-1.2.9-2.5 1.6-3.7 2.3-1.9 1.1-3.8 2.1-5.7 3.2-1 .6-.9 1.1.1 1.6 1.6.9 3.3 1.8 4.9 2.7 3.1 1.7 6.2 3.3 9.2 5 .4.2.9.3 1.4.2.9-.2 1.8-.5 2.6-.9 2.4-1.1 4.8-2.4 7.2-3.5 1.4-.6 2.2-1.6 2.6-3.1l1.2-4.8c.6-2.3 1.2-4.5 1.7-6.8 0-.1-.1-.6-.3-.8m-4 12.2c-5.2-2.9-10.4-5.6-15.6-8.5.3-1.3.7-2.8.9-4.2.3-1.5.3-3 .7-4.4.2-.8.9-1.4 1.5-2.2 3.4 1.6 6.7 3.1 9.9 4.7 1.7.8 3.3 1.8 4.9 2.8.3.2.6.7.5 1-.9 3.6-1.8 7.1-2.8 10.8m-245.8-1.2c-.1-1.7-.3-3.3-.3-5 0-.5.3-1.1.6-1.3 2.3-1.4 4.7-2.8 7.1-4.1 5.2-2.8 10.4-5.6 15.6-8.3 4-2 8.1-3.8 12.1-5.7 1.5-.7 2.1-.3 2.4 1.4.9 5.9 1.8 11.7 2.7 17.6.1 1-.2 1.7-1.1 2.2-7.7 4.3-15.3 8.6-23.1 12.7-3.7 2-7.6 3.6-11.5 5.4-.8.4-1.5.8-2.2 1.2-.6.3-1 .3-1.1-.5l-1.8-15.6z"/><path d="M330.1 287c3.4 1.6 6.7 3.1 9.9 4.7 1.7.8 3.3 1.8 4.9 2.8.3.2.6.7.5 1-.9 3.6-1.8 7.1-2.8 10.8-5.2-2.9-10.4-5.6-15.6-8.5.3-1.3.7-2.7.9-4.2.3-1.4.3-2.9.7-4.4.3-.7 1-1.4 1.5-2.2" class="st3"/><path d="M188.7 321.2s5.9 0 8.4-1.5c2.5-1.6 3.4-2.7 3.4-2.7s2.6 1.5 2.3 3-1.5 6.8-6.2 7.3-11.7-1.6-11.7-1.6z"/></g></svg>