<svg xmlns="http://www.w3.org/2000/svg" xml:space="preserve" id="Layer_1" x="0" y="0" version="1.1" viewBox="0 0 512 512"><style>.st0{display:none}.st1{display:inline}.st2{fill:#91caed}.st3{fill:#fff}.st4{fill:#f6d7b4}.st7{fill:#fbf08e}.st8{fill:#f1c5cb}.st9{fill:#d2bbea}</style><g id="hyJUdd.tif"><path d="M76.7 319.1c1.9-6.7 5.4-17.9 12.9-25.9 7.4-8 12.8-12.9 12.8-12.9s-12.2-11.8-14.1-25.5c-1.9-13.8 1-43.2 10.3-54.1s23.1-21.8 34.8-25.1c11.7-3.2 19.8-8.2 32-7.2s22.1 2.8 22.1 2.8 15.1-31.1 29-43.6 33.3-16.3 43.8-17.5 41.2-.1 51.5 9.7c10.4 9.8 15 13.9 15.3 14.4s3.3 10.1 3.3 10.1l4.5 7.7 12.8-.7 22.6 8.3 15.9 11.9 10.2 14.6 10.4 23.6 1.9 17.5.7 13.7-1.7 12.5s14.1 14.4 16.3 18.8c2.3 4.3 10 19.7 12.2 35.2 2.3 15.5-4.7 33.8-9.6 39.5S416 359.6 416 359.6s-10.9 14.1-32.1 20.3c-21.2 6.3-41 13.9-41 13.9s-25.4 6.6-27.1 7.2-11.9 6.5-11.9 6.5l-22.2 10-29.7 8.7-41.9-1.4-13-4.2-17.4-3.1-22.2-3.6-19.9-5.3-28-11.8-10.6-7.6-11.1-10.8-7.5-12-3.8-14.6-2.1-11.2z" class="st3"/><path d="M434 293.7c-1.8-7.4-4.1-14.5-8.1-21-2-3.2-4.2-6.2-6.9-8.7l-9.3-9c-.6-.6-.8-1.2-.6-2 1-6.5 1.5-13 1.3-19.5-.2-6.3-.4-12.6-1.7-18.9-.6-3.1-1.3-6.2-2-9.3-1.7-7.2-4.7-13.9-8.6-20.1-1.7-2.7-3.7-5.2-5.8-7.6-1.9-2.2-4-4.2-6.2-6.2-2.1-2-4.1-4-6.4-5.6-3-2.2-6.3-4.1-9.5-6.2-4.2-2.7-8.9-4.4-13.4-6.2-2.9-1.1-6.1-1.6-9.2-2.1-3.9-.6-7.9-1-11.9-1.4-.9-.1-1.3-.4-1.7-1.2-1.1-2.6-2.2-5.2-3.4-7.8-.5-1.1-1.1-2.1-1.7-3.2-1.6-2.6-3-5.4-4.9-7.8-2.5-3-5.5-5.7-8.5-8.3-2.5-2.1-5.2-4.2-8.1-5.7-3.8-1.9-7.8-3.5-11.8-4.9-4.6-1.6-9.3-2.7-14.2-3-4.7-.2-9.3-.4-14-.5-1.8 0-3.6.2-5.2.3.7 1 1.3 1.9 2.2 3.1 1.5-.1 3.4-.4 5.3-.4q5.4 0 10.8.3c2.3.1 4.7.2 7 .8 3.9 1 7.8 2.1 11.7 3.5 3.7 1.3 7.2 2.9 10.5 5.1 3.2 2.1 6.2 4.3 8.8 7.2 2.3 2.5 4.6 5 6.5 7.8 2 2.8 3.5 6 5.2 9 .9 1.7 1.8 3.4 2.8 5.2-10.5.2-20.8 1.1-30.6 2.9-1.5-2.1-2.7-4.1-4.2-6-1.8-2.4-4.5-3.7-7.1-4.9-2.5-1.2-5.1-1.9-7.8-1.6-2.2.2-4.4.9-6.5 1.5-1.1.4-2.2 1-3.3 1.7-3.2 2.2-4.1 5.8-5.3 9.1-1.2 3.5-1.3 7.3-.6 10.9.6 3.3 1.5 6.5 2.2 9.8.1.4 0 1.1-.3 1.3-2.1 1.6-4.3 3.1-6.5 4.6-2.1 1.4-4.1 2.7-6.2 4-1.7 1.1-3.5 2-5.3 3-.6.3-1.1.7-1.5 1-.3-.1-.7-.5-1-.4q-1.2.45-2.4 1.2c-.5.3-.8.8-1.3 1-3.2 1.1-6.2 2.5-9 4.4-1.4.9-2.8 1.8-4.3 2.5-3.1 1.3-6.3 2.5-8.6 5.1-.2.2-.5.5-.8.6-1.1.4-1.2 1.3-1.1 2.2.2 2 .2 2-1.5 2.8-.5.2-1 .5-1.5.8-2.7 1.5-5.4 3.1-8.1 4.7-.5.3-1.1.6-1.7.9-3.6 2-7.1 4-10.7 6-3.1 1.7-6.3 3.2-9.5 4.9-4.5 2.4-9 4.8-13.5 7.3-2.6 1.4-5.3 2.8-7.8 4.4s-4.8 3.4-7.1 5.2c-.7.5-1.2 1.5-1.4 2.3-.7 2.6.4 5.1.7 7.6 0 .1.2.2.2.4.2.5.5 1 .6 1.5.1 4 .2 8 .2 12.1.1 4 .1 8.1.2 12.1.1 3.8.2 7.7.4 11.5 0 .8-.3 1.1-1.1 1.2-1.1.2-2.2.5-3.2.9-.4.1-.6.5-.9.8.1.1.1.2.2.3.3 0 .6.1.9 0 3.2-1.1 6.5-.8 9.8-.1 3.1.6 5.8 2 8.5 3.4l5.4 2.7.4-.4c-.8-1.2-1.4-2.6-2.5-3.5-3.2-3-7-4.8-11.3-5.1-.7-.1-1.1-.2-1.1-1.1 0-2.1-.1-4.2-.2-6.2-.4-5.5-.9-11-1.3-16.5-.2-3.3-.3-6.6-.4-9.9 0-.2.1-.5.2-.8 5.4 2.5 10.9 4.7 16.1 7.6 5.2 2.8 10.3 5.9 14.8 9.4-.2 1-.4 1.8-.4 2.6-.1 9.8-.1 19.6-.1 29.4 0 .6.1 1.2-.1 1.6-.3.7 0 1 .5 1.3 1.5.9 3 1.7 4.5 2.5.7.4 1.4.7 2.2 1.2-3.3 2.3-6.2 4.5-8.3 7.8-2 3.3-3.2 6.7-3 10.6.3-.3.4-.6.5-1 .8-2.3 1.3-4.8 2.4-7 2.7-5.1 7.2-8.2 12.5-10.3 4.6-1.8 9.5-2.8 14.4-3.3 3.9-.4 7.8-.9 11.7-.8 3.3.1 6.7 1 10 1.5.1 0 .1 0 .2.1 2 .7 4.1 1.4 6.1 2.2 3 1.3 5.9 2.7 8.8 4.1 1.1.5 2.2 1.3 3.2 2 1.5 1.1 3.2 2.1 4.4 3.5 2 2.5 3.7 5.2 5.4 7.8.5.7.9 1.5 1.1 2.3 1 3.5 2.1 6.9 3 10.4.7 2.7 1.2 5.4 1.9 8.2.2.9.5 1.9.9 2.7.4.7 1 1.2 1.7 1.9-.3-2.1-.6-3.9-.7-5.7-.1-1.1.1-2.2-.1-3.2-.7-4-1.3-8-2.3-12-.5-2.2-1.6-4.3-2.5-6.4-.6-1.3-1.1-2.7-2-3.8-1.7-2.1-3.6-4-5.5-6 1.9-1.4 3.8-3 5.8-4.2 3.1-1.9 6.7-3 10.3-3.3 2.8-.2 5.7-1.1 8.4.7.2.1.5.1.7.1 2.5.4 4.6 1.6 6 3.6s2.8 4.1 3.9 6.2c1.1 2.2 1.5 4.5.8 7-.4 1.5-.6 3.1-1 4.6 1.3-.8 2.1-1.9 2.6-3.3 1.1-2.9.8-5.8-.2-8.6-.3-1-.6-2-1-2.9-.3-.7-1-1.2-1.3-1.8-1.1-3-3.6-4.8-6.2-6-2.4-1.2-5.2-1.9-7.9-2.3-4.3-.6-8.5-.1-12.6 1.6-.6.3-1.2.5-2.1.8 0-2 .1-3.9 0-5.7-.3-6.5-.8-13-1.1-19.5-.1-1.9-.2-3.8-1.1-5.5-.3-.6-.8-1.3-1.4-1.7-1.6-1.1-3.4-2-5.1-3 1.1-.6 2.1-1.2 3.2-1.8 2.3-1.2 4.5-2.3 6.8-3.5 2-1 4-2.1 6-3 1.4-.7 2.7-1.2 4.1-1.8 2-.9 3-2.9 5.3-3.5 2-.5 3.9-1.6 5.8-2.5 1.5-.7 2.9-1.6 4.4-2.4 1.6-.9 3.3-1.9 4.9-2.9 2.2-1.4 4.5-2.8 6.7-4.2 1.7-1.1 3.2-2.3 4.9-3.4s3.4-2.1 5.1-3.2c2.3-1.6 4.5-3.3 6.8-4.8 1.9-1.2 4-2.3 6-3.4 1.2-.6 2.4-1.3 3.5-1.9-.6.7-1.4 1.2-2 1.8-2.3 1.8-4.6 3.7-7 5.5-2.5 1.9-4 4.4-4.8 7.5-.7 2.8-.6 5.7-.3 8.6.1.6-.1 1-.6 1.3-1.7 1-3.3 2.2-5 3.1-2.7 1.5-5.4 2.9-8.2 4.3-.3.1-.9.1-1.2-.1-1.4-.7-2.8-1.4-4.1-2.2-3-1.9-6.5-.3-8.2 1.4-1.1 1.1-.9 2.5.4 3.3l2.7 1.5c2.2 1.2 4.3 2.5 6.5 3.8.4.2.8.5 1 .8.4 1.1.9 2.2 1 3.4.4 2.5.6 4.9 1.8 7.2.8 1.7 1.9 2.7 3.6 2.5 1-.1 2-.2 2.8-.6 2-1 3.7-.8 5.6.7 1.6 1.3 3.6 2.1 5.4 3 .6.3 1.6.1 2 .5.4.5.2 1.4.3 2.1 0 .3 0 .6.1 1 .5 1.6.7 3.3 1.4 4.8 1 2 .9 2.3-1 3.4-2 1.2-4 2.7-5.9 4.1-.3.2-.3.8-.4 1.2.3 0 .8.1 1 0 2.9-2.1 6.4-2.8 9.8-3.2 1.1-.1 2.3.2 3.5.5 1 .2 2 .8 3 .9 1.2.2 1.6-.6 1.3-1.8-.5-1.9-2.2-2.6-3.8-3.2-1.4-.5-2.9-.5-4.3-.7.3-2.4.6-4.9.8-7.4.1-1.5.5-2.6 2.1-2.9.2 0 .4-.2.5-.3 3.5-2.9 8-4 11.9-6.1 2.1-1.1 4.3-1.9 6.4-3 2.3-1.3 4.5-2.7 6.7-4.1.6-.4 1-1.3 1.2-2 .4-2 .4-4 .8-6 1-5.3 2-10.6 3.1-15.9.6-3.1 1.4-6.2 2-9.2.7-3.2 1.3-6.4 2.1-9.6.8-3.4 1.8-6.7 2.8-10 .4-1.6.1-2.2-1.4-2.9-.1-.1-.3-.1-.4-.3-.6-1-1.6-1-2.5-.9-4.2.4-8.2 1.8-12 3.6-1.4.6-2.7 1.2-4 1.9l-.3-.3c2-1 1.2-2.9 1.3-4.2.2-1.8-1-3.6-2.9-4.6-1.8-1-3.6-2-5.5-3-5.4-2.9-10.8-5.8-16.1-8.8-1.9-1-3.7-2.2-5.5-3.4-3.1-2.2-5.9-4.7-9.1-6.9-4.5-3.1-9.1-6-13.6-8.9-1.6-1-3.2-1.8-4.8-2.8 5.5-6.8 8.8-14.1 6-23.1.8-.2 1.6-.4 2.4-.5 4.5-.5 9-1.1 13.6-1.4 5.4-.3 10.8-.5 16.1-.5 3.2 0 6.4.3 9.5.6 1.4.1 2.7.3 4 .7 1.1.3 2 1 3.1 1.4 3.1 1 6.4 1.7 9.4 3 3.9 1.7 7.7 3.7 11.2 6 4.8 3.2 9.4 6.8 13.5 11 3 3 6.1 5.9 8.4 9.5 2 3.2 4 6.5 5.7 10 1.2 2.3 2 4.8 2.8 7.2.9 3 1.5 6.1 2.3 9.1.3 1.1.8 2.2 1.1 3.4.2.7 0 1.5.1 2.2.2 1.2.6 2.3.7 3.5.2 3.5.3 6.9.5 10.4.1 1 .4 2.1.4 3.1 0 1.6-.1 3.2-.2 4.8-.2 4.2-.5 8.5-.7 12.7 0 .2-.1.4-.1.6-2-1.9-4.7-7.2-5-10.1-.1-.6-.4-1.2-.6-1.8-.2 0-.3.1-.5.1 0 .3-.1.7-.1 1 .5 1.9.8 3.9 1.5 5.6 2.7 6.3 7.2 11.3 11.9 16.1 2.4 2.4 4.9 4.8 6.9 7.6 3.5 5 5.7 10.6 7.4 16.4 1.3 4.7 2.3 9.5 3.2 14.3 1.1 5.9 1.7 11.8 1.2 17.9-.1 1 0 2 0 3.1 1.2.1 2.6.1 2.8 1.9.3-.4.4-.7.4-1 .2-2.5.6-4.9.7-7.4.4-7.2-.6-14.3-2.3-21.3m-209.4-91.3c3-2.2 6.3-3.9 9.7-5.4 4.6-2.1 9.1-4.2 13.7-6.4.8-.4 1.4-.5 1.7.6.1.3.4.8.8.9 1.1.2.9 1 1 1.7.7 4 1.4 8.1 2.2 12.1.1.7.3 1.4.5 2.2-9.1 3.3-16.6 9.5-25.5 13.2-.3-1.3-.7-2.8-1.1-4.3-1.1-4.4-2.3-8.8-3.5-13.2-.4-.7 0-1 .5-1.4m4.2 98.4c0 .7-.2 1-.9 1-4.9.3-9.7 1-14.4 2.5-3.3 1-6.5 2.5-9.6 3.8-.8.4-1.4.4-2.2-.1-1.5-.9-3-1.7-4.5-2.5-.6-.3-.8-.7-.8-1.5.2-4.1.2-8.2.3-12.3v-4.2h.2l-.8-14.8c0-1 .4-1.3 1.3-.8 3 1.6 5.9 3.3 8.9 4.9 1.2.7 2.5 1.1 3.8 1.7 5.1 2.5 10.3 5 15.5 7.5.4.2.8.2 1.3.3 1.4.2 2 .8 2 2.2v8.1c-.1 1.3-.2 2.8-.1 4.2m8.8 1.1c0 .1-.1.3-.1.5-1.1-.1-2.1-.2-3.1-.4-.3-.1-.6-.6-.6-.9 0-1.3.1-2.5.1-3.8v-9.2c.1-.1.2-.2.3-.2 1.2.9 2.4 1.8 3.5 2.7.1.1.2.4.2.6-.1 3.6-.2 7.2-.3 10.7m32.1-2.7c.2 2.5.3 5 .4 7.4.1 1-.2 1.5-1 2.2-1.4 1-2.6 2.3-3.7 3.5-.4.4-.5 1-.8 1.7-5.6-3.9-11.5-7.2-18-9.4v-.4c7.6-3.2 15.1-6.5 22.9-9.8 0 1.7.2 3.2.2 4.8m-6.1-18.5c1.2-.6 2.4-1.2 3.6-1.7 1-.4 1.5-.1 1.6 1.1s.1 2.4.1 3.6c.1 2.4.2 4.9.3 7.3 0 .7-.2 1.1-.9 1.3-3.7 1.4-7.4 2.8-11 4.4-3.5 1.5-7 3.3-10.5 4.9-1.2.6-2.3 1.3-3.6 1.6-.9.2-2-.1-2.8-.4-.3-.1-.3-1.1-.3-1.6v-1.8h.1v-7.1c0-.7.3-1 .9-1.3 3-1.4 6-2.9 9-4.3 2.1-1 4.3-1.9 6.4-2.8 2.3-1 4.7-2.1 7.1-3.2m49.5.2c-.2 0-.7-.3-.8-.5-.4-1.1-.8-2.2-1.1-3.4.2-.1.3-.1.5-.2 1.6 1 3.3 2.1 5.2 3.3-1.6.3-2.7.6-3.8.8m9.7 1.6c-3.6-2.2-7-4.6-10.4-7-.3-.2-.6-.8-.7-1.2-.1-.7 0-1.3 0-2.2 2.3.8 4.1-.4 5.9-1.2 2.3-1 2.5-3.1.4-4.5-2.2-1.5-4.6-2.7-7-4.1 3.9-2.1 7.9-4.3 11.9-6.5 1.7 9.3 3.5 18.6 5.3 28.1-2 .1-3.8-.4-5.4-1.4m35.7-60.8c2.5-1 5-2 7.5-2.8 1.8-.6 3.7-1.1 5.9-1.7-.1.8 0 1.6-.2 2.3-1.5 5.2-3.1 10.3-4.6 15.5-1.1 3.8-2.1 7.5-3.1 11.3-.5 1.9-.8 3.9-1.2 5.9-.9 4.1-1.9 8.2-2.7 12.4-.3 1.3-.4 2.6-.5 3.9-.1.7-.3 1.2-1 1.5-3.2 1.7-6.3 3.5-9.5 5.3-2.5 1.4-5 2.9-7.6 4.3-1.8 1-3.7 2.1-5.5 3.2-1 .6-1.9 1.4-3 2-1.2.6-1.8.2-2-1.2-.3-2.6-.6-5.2-1-7.7-1-5.2-1.8-10.4-3.2-15.4-1.3-4.7-1.4-9.6-2.3-14.4-.2-1.4 0-2.9.3-4.3.1-.6.7-1.2 1.2-1.6 1.7-1.3 3.6-2.3 5.3-3.7 3.2-2.7 6.8-4.9 10.5-6.9 5.4-3 10.9-5.6 16.7-7.9m-54.1-35.3c1.8 1.1 3.4 2.4 5.2 3.6 4.6 3.2 9.1 6.5 13.8 9.5 3.3 2.1 6.9 3.8 10.3 5.8 4.3 2.5 8.5 5 12.8 7.5q1.35.75 3 1.8c-1 .6-1.9 1.2-2.8 1.7-1.8 1-3.7 1.8-5.4 2.8-4.1 2.4-8.1 4.9-12.2 7.3-3.6 2.1-7.3 3.9-10.8 6.1-3.4 2.1-6.7 4.6-10 6.9-.9.6-1.8 1.1-2.7 1.6-5.4 3.1-10.8 6.3-16.3 9.4-1.8 1-3.7 1.8-5.4 2.8-1.4.8-2.7 2-4.1 2.8-2 1.1-4.1 2.1-6.2 3.1-4.4 2.3-8.8 4.5-13.2 6.8-5.2 2.7-10.3 5.6-15.5 8.2-3.3 1.7-6.8 3-10.2 4.5-1.1.5-2.2 1.1-3.2 1.8-.6.4-1 .5-1.7.3-7.7-2.8-14.8-6.8-21.9-10.7-3.5-2-7.4-3.5-10.9-5.5-6.2-3.6-12.4-7.4-18.5-11.3-2-1.2-3.6-2.9-5.5-4.2s-3.9-2.5-5.9-3.6-4.1-2-6.1-3c-.2-.1-.4-.3-.7-.5 2-1.3 3.9-2.4 5.7-3.7 5.1-3.4 10.7-6.1 16.2-8.8l16.5-8.4c2.2-1.1 4.4-2.2 6.6-3.4 1.9-1 3.6-2.1 5.5-3.2 3.6-2.2 7.3-4.3 10.9-6.4.2-.1.4-.1.8-.3.4 1.5.7 3 1.1 4.5 0 .2-.1.7-.3.8-1.7 1.1-3.4 2.1-5.1 3.1-4.8 2.7-9.7 5.3-14.4 8-1.6.9-3.2 2-4.7 3.1-.4.3-.5 1-.7 1.5.5.1 1 .2 1.5.2.5-.1 1-.3 1.5-.5 3.8-1.9 7.6-3.7 11.3-5.8 3.6-2 7-4.4 10.5-6.6.5-.3 1-.5 1.7-.9.2 1.3.4 2.5.6 3.5.5 2.3.9 4.8 2.6 6.6.8.9 2 1.5 3.1 2.1 1.8 1 3.7 1.9 5.5 2.8 3.3 1.5 6.6 3 10 4.2.8.3 1.9-.4 2.9-.8 1.9-.8 3.8-1.7 5.6-2.6 1-.5 1.9-1.1 2.9-1.6 3.1-1.6 6.2-3.1 9.2-4.8 1.8-1 3.5-2.2 5.3-3.3.9-.6.9-1.5-.1-2.1-2.2-1.4-4.4-2.8-6.7-4-2.3-1.3-4.7-2.4-7-3.7-.8-.5-1.6-1.2-2.2-1.7-.5-2.4-1-4.9-1.5-7.3-.3-1.6-.8-3.1-1.2-4.6-.1-.3.2-.9.4-1 1.6-1 3.2-1.8 4.7-2.8 1.6-1 3.1-2.2 4.6-3.4 1-.7 2-1.3 2.9-2.1.4-.3.3-1.1.4-1.7-.5 0-1.1-.2-1.6 0-.7.2-1.3.7-2 1.1-3.2 2.3-6.8 4.1-10.5 5.7l-.9-1.8c-.6-1.4-.4-1.8.9-2.7 3.9-2.5 7.7-5.1 11.6-7.6 2.3-1.4 4.6-2.6 7.2-4 .5 1.2 1 2.3 1.4 3.4 1.4 3.2 2.8 6.5 4.2 9.7.7 1.5 1.8 1.8 3.1 1 4.7-2.8 9-6.1 12.6-10.2.7-.8 1.2-.9 2.1-.3 3.1 1.8 6.3 3.5 9.4 5.3m-3.5-24.8c-1 4.3-1.6 8.8-4.9 12.2-1.6 1.8-2.9 3.9-4.5 5.7-.8 1-1.7 1.9-2.6 2.8-1.5 1.5-3 3.1-4.6 4.5s-3.4 2.7-5.1 4.1c-1-2.2-2-4.4-3-6.5-1-2.2-1.8-4.4-2.7-6.7-.2-.5-.1-1.2-.1-1.8-.3-.5-.9-1-1.1-1.6-1-3.9-2.2-7.8-2.8-11.8-.7-4.8.4-9.6 2.6-13.9 1.5-3 4.4-4.1 7.5-5.1 2.6-.8 5.1-.4 7.6-.1 1.9.2 3.7 1.3 5.4 2.3 2.4 1.5 4.6 3.4 5.8 6.2.5 1.2 1 2.5 1.3 3.8.4 1.8.8 3.6 1.1 5.5.1.1.1.3.1.4"/><path d="M430.6 337.5c-.2-.9-.4-1.7-.6-2.7-.2 0-.5.1-.7.1v-.7c-.4.2-.7.6-.9.9-1.2 2.8-2.6 5.5-3.8 8.4-1.3 3.3-3.6 6.1-5.6 9.1-.6.9-1.5 1.7-2.2 2.5-.8.9-1.7 1.8-2.4 2.8-.7.9-1.1 2-1.9 2.7-2.4 2.3-4.4 5.1-7.3 7-2.4 1.6-4.6 3.7-7 5.2-1.7 1.1-3.6 1.7-5.5 2.4-2.3.8-4.7 1.5-7.1 2.2l-15 4.8c-.5.2-1.2 0-1.7 0-.2.2-.4.5-.6.6-1.4.4-2.9.6-4.2 1.1-2.1.8-4 1.8-6.1 2.7-3.9 1.6-7.8 3.4-11.9 4.8-8.7 2.8-17.5 5.4-26.2 8-5 1.5-9.9 3.1-14.5 5.4-3.8 1.9-7.5 3.7-11.3 5.4-4.8 2.1-9.5 4.4-14.5 6.1-4.4 1.5-9 2.6-13.6 3.4-4.9.8-9.8 1.2-14.7 1.6-4.6.4-9.3.7-14 .9-4.3.2-8.6.3-12.9.1-5.3-.2-10.5-.6-15.7-1.3-4.3-.6-8.6-1.7-12.9-2.5-4.4-.8-8.9-1.5-13.3-2.2-3.9-.7-7.9-1.3-11.8-2-4.5-.8-8.9-1.7-13.4-2.7-3.1-.7-6.2-1.5-9.2-2.3-2.2-.6-4.5-1.1-6.7-1.7-1.4-.4-2.7-.9-4.1-1.2-3.9-.9-7.7-2-11.2-4.1-1.8-1.1-3.8-1.9-5.8-2.9-2.9-1.4-5.9-2.7-8.8-4.3-3.2-1.8-6.2-3.7-9.3-5.6-1.4-.8-2.7-1.6-4-2.6-.8-.6-1.4-1.5-2.2-2.2-2.3-2.1-4.5-4.3-6.2-7-1.3-2-2.9-3.7-4-5.8-1.3-2.4-2.2-5-3.3-7.4-.4-.8-.9-1.6-1.4-2.4-.3-.5-.5-1-.8-1.5-1.1-1.9-1.6-4-1.7-6.2 0-.4-.3-.8-.4-1.2-.7-1.9-1.4-3.7-1.3-5.8s-.2-4.2-.3-6.3c0-.4-.3-.9-.4-1.3-.6.2-1.1.3-1.8.4.1.8.1 1.6.2 2.5.4 3.2 1.2 11.3 1.4 12.2.9 3.1 2.8 5.9 3.1 9.2 0 .2.1.3.2.5.6 1 1.8 1.9 1.4 3.4 0 .1.2.2.3.4.4.7.9 1.3 1.3 2 1 1.9 1.8 4 3 5.8 2.2 3.3 4.5 6.6 7 9.6 2 2.3 4.3 4.4 7.3 5.6.2.1.4.2.6.4 1.8 2.3 4.6 3.2 7 4.6 1.7 1 3.7 1.8 5.5 2.7.5.2.9.6 1.4.9 2.4 1.1 4.8 2.1 7.2 3.2 4 1.9 7.9 3.8 12 5.6 1.3.6 2.8.5 4.2.9 1.8.5 3.5 1.1 5.2 1.6 4.5 1.3 8.9 3 13.4 3.9 6.3 1.2 12.6 1.7 19 2.5 3.5.5 7 .7 10.5 1.3 2.6.4 5 1.3 7.6 1.8 5.1 1.1 21.9 4 23.8 4.2 10.4.9 20.7.8 31.1-.3l6.6-.6c2.4-.3 4.9-.9 7.3-1.1 5.6-.7 11.1-1.9 16.5-3.7 4.5-1.5 8.9-3.4 13.2-5.4 3.3-1.5 6.6-3.2 10.1-5 .4-.8 20.3-8.2 26.3-9.8 6-1.5 12.1-3 17.9-5.4l11.1-4.5c3.4-1.4 6.7-2.9 10.1-4.2 1.8-.7 3.7-1.3 5.6-1.8 3.1-.8 6.2-1.4 9.3-2.3 3.5-1.1 7-2.4 10.5-3.8 2.4-1 4.7-2.2 7-3.4q4.2-2.25 8.1-4.8c3.3-2.2 5.8-5.3 8.5-8.2 1.1-1.2 2.1-2.4 3.1-3.6.9-1.2 1.9-2.3 2.7-3.6 1.2-1.9 2.1-4 3.5-5.7 2.5-3.2 4-7 5.8-10.6.1-.1.1-.3.1-.5-.4.7-.6.8-.8.8M255.2 111.9c-3.2.8-6.5 1.6-9.7 2.4-5 1.3-9.9 2.8-14.5 5.3-3.3 1.8-6.6 3.6-9.7 5.7-3.7 2.4-6.6 5.5-9.3 8.9-2.9 3.7-5.7 7.5-8.5 11.3-1.6 2.1-3.2 4.2-4.6 6.5-1.1 1.8-1.9 3.9-2.8 5.8-2 4.1-4 8.3-6 12.4-.1.1-.1.3-.2.5 1.5.6 3 1.1 4.5 1.8 2.8 1.3 5.7 2.5 8.4 4.1 1.6.9 2.9 2.4 4.3 3.7 2 1.9 4 3.8 6.1 5.7 1.3 1.2 1.7 2.8 2.1 4.4 0 .1-.6.5-.7.4-1.8-1.3-3.8-2.4-5.2-4.3-2.5-3.1-5.2-6.3-9.1-8l-7.5-3.3c-2.1-.9-4.1-1.9-6.2-2.7-1.3-.5-2.8-.8-4.2-1.1-5.5-1.1-11-1.9-16.6-1.5-3.3.2-6.5.6-9.8.7-3.7.1-7.3.8-10.8 1.5-8.3 1.7-16.2 4.3-23.4 9.1-4.6 3.1-9.1 6.5-13.4 10.1-3.8 3.2-6.6 7-9.3 11.1-4 6.1-6.2 13-8.4 19.9-2.4 7.7-2.8 15.6-2 23.6.7 7.3 2.4 14.4 5.1 21.2 1.9 4.9 5.2 8.8 8.6 12.9 7.3-6 14.9-11.4 24.3-13.3 0 .1.1.2.1.3-.7.3-1.3.7-2 .9-7.8 2.7-14.6 7.1-20.8 12.6-.4.4-.5 1-.9 1.7-1.1-.5-1.8.7-2.6 1.4-6.9 6.3-12.9 13.2-17.2 21.5-2.3 4.6-4.1 9.4-5.2 14.4-.5 2.2-.7 4.4-1 6.6-.1.4-.1.7-.2 1h-1.7c1.7-19.1 11.4-33.8 25.8-46-.9-1.1-1.7-2.2-2.6-3.2-3.2-3.8-5.6-8-7.3-12.7-2.2-6-3.8-12.1-4.1-18.5-.2-4.7-.1-9.4.2-14.1.4-5.6 1.9-11 3.8-16.2.9-2.4 1.4-5 2.7-7.3 2.3-4.2 4-8.7 7.2-12.3 4.2-4.7 8.3-9.5 13.5-13.2 3.5-2.6 7.2-4.9 11.2-6.9 4.9-2.5 9.9-4.4 15.1-6 2.7-.8 5.6-1.2 8.4-1.8 2.5-.5 4.9-1.2 7.4-1.4 3.8-.4 7.5-.5 11.3-.6 2.3-.1 4.7-.3 6.9 0 3.6.5 7.2 1.3 10.7 2.2 1.1.3 1.5.1 1.9-.9.5-1.4 1.4-2.7 2-4 .2-.4.2-.8.4-1.2.6-1.2 1.3-2.4 1.9-3.6.3-.5.5-1 .8-1.5.5-1 1-1.9 1.6-2.9 1.5-2.7 3-5.5 4.6-8.1.7-1.2 1.6-2.2 2.4-3.3.9-1.3 1.5-2.8 2.5-4 1.8-2 2.7-4.7 5-6.4 1.1-.8 1.8-2.2 2.8-3.3 1.4-1.5 2.7-3 4.3-4.2 4.2-3.1 8.4-6.1 13.2-8.2 3.4-1.5 6.7-3.2 10.2-4.5 4.6-1.7 9.3-3.2 14.2-3.8h.6c.4 1-.3 2.5 1.4 2.7"/><path d="M265.8 175.8c-.2.4-1 .8-1.4.8-.8-.2-1.8-.5-2.2-1.2-1.3-2-2.9-2-5.1-1 .5-2.3-.8-2.2-2.2-2.4-3.4-.5-6.8-1-10.2.1-1.2.4-2.5.8-3.7 1.2-.1-.1-.2-.2-.3-.4.6-.5 1.2-1.2 1.8-1.6 4.2-2.3 8.7-2.9 13.4-2.5.3 0 .6 0 1.1.1v-5.4c-.1-4.3-.3-8.5-.3-12.8 0-5.8.1-11.7.1-17.6 0-3.9.1-7.8.2-11.7.2-3.9.6-7.9.7-11.8.1-3.1-.1-6.2-.1-9.3 0-3.6.2-7.2.3-10.8 0-3.9-.1-7.8 0-11.7 0-9.2.1-18.4.2-27.7.1-6.5.2-13 .2-19.5 0-.7.1-1.4.2-2.2h.5c.1.4.3.9.3 1.3.1 2 .1 4 .1 6 .1 8.8.2 17.6.2 26.5 0 4.6-.1 9.2 0 13.8 0 3.1.2 6.2.3 9.3.1 3.9.1 7.9.1 11.8.1 5.4.2 10.9.2 16.3 0 5.9-.3 11.7-.3 17.6-.1 5 0 10 0 15 0 4.6.1 9.3.1 13.9 0 3 0 6.1.1 9.1 0 .6.2 1 .8 1.3 2 .8 3.4 2.4 4.7 4 .4.2.4 1.1.2 1.5m197.4 170.3c-.5.2-1.1.6-1.7.7-.5.1-1.1 0-1.6-.3-3.7-2.1-7.3-4.2-10.9-6.4-5-3.1-10-6.2-15-9.4-4.4-2.9-8.7-6-13-9-4.4-3-8.8-6.1-13.2-9-6-3.9-12.2-7.6-18.2-11.4-1.1-.7-2.2-1.5-3.2-2.2-.5-.4-1-.3-1.5.2-2.3 2.2-5.3 3.2-8.3 4.2-.3.1-.8-.2-1.2-.3.3-.3.5-.8.9-.9 5.1-1.8 8.9-5.1 11.2-10 1.4-3 2.9-6 4.2-9.1.7-1.6.8-3.5 1.3-5.2.9-3 .9-6.1.6-9.1-.2-2.2-.6-4.3-1-6.5-.1-.9-.1-1.9-.4-2.7-1.4-4.6-3.1-9.2-6.4-12.8-1.8-2-3.9-3.8-5.9-5.6-.6-.6-1.4-1.1-2.1-1.6.2-.2.3-.4.5-.6.4.1.9.2 1.3.4 3.6 1.9 6.4 4.7 9.3 7.5.7.7 1.5 1.2 2 2 3.1 5.1 5.8 10.2 6.4 16.3.3 3.7.7 7.4-.2 11.1-1.8 7.3-4.3 14.3-9.4 20-.2.3-.4.6-.7.9.2.2.4.4.7.6 6.5 4 13 7.9 19.3 12.1 6 3.9 11.8 8.2 17.7 12.3 3.5 2.4 7 4.9 10.6 7.2 3.9 2.6 7.8 5.2 11.8 7.5 5.1 3 10.2 5.8 15.4 8.8.3 0 .6.2.7.3M152 305.3c-.4.1-.8.4-1.1.2-2.2-.9-4.5-1.9-6.6-3-1.6-.8-3.1-1.8-4.7-2.5-.5-.2-1.2-.2-1.6 0-5.5 3.1-10.9 6.3-16.3 9.4-3.8 2.1-7.7 4.1-11.6 6.3-4.6 2.6-9.1 5.3-13.6 8-5.1 3-10.2 6.1-15.4 8.9-2.1 1.1-4.4 1.9-6.7 2.5-2.7.8-5.1 2.1-7.5 3.6-3.1 2-6.4 3.9-9.6 5.7-2.6 1.5-5.2 2.8-7.8 4.1-1 .5-2.2.8-3.3 1.2 0-.1 0-.1-.1-.2 2.3-1.3 4.6-2.6 7-4 1.9-1.1 3.7-2.1 5.6-3.2 2.5-1.4 5.1-2.8 7.7-4.2 3.2-1.8 6.5-3.6 9.7-5.5l11.1-6.6c5.1-3.1 10.2-6.3 15.3-9.3 3.3-1.9 6.8-3.6 10.1-5.5 5.1-2.9 10.2-5.9 15.3-8.8 2.8-1.6 5.7-3.1 8.9-4.8-3.9-2.8-5-6.8-5.1-11.1 0-.9.2-1.9.2-2.8.2 0 .3 0 .5-.1.3.9.7 1.7 1 2.6 1.2 3.3 2.5 6.6 5.2 9.1 1.9 1.8 4 3.3 6.2 4.7 2 1.4 4.2 2.5 6.3 3.8.1.1.3.1.4.2.1.6.3.9.5 1.3m255.3 39.9c-.1 2-1.5 4.1-2.5 6-.5.9-1.4 1.5-2.3 2.5.4-2 .9-3.6 1.2-5.2.1-.7 0-1.5-.1-2.2-.1-1.4-.2-2.7-.3-4.1-.1-.5-.3-.9-.5-1.4-.1-.3-.4-.6-.3-.8.2-1.5-.4-2.7-1.1-3.9-.8-1.5-1.4-3.1-2-4.7-1-2.8-3.1-4.8-5.1-6.8-3.1-3-7.1-4.1-11.3-4.8-4.6-.7-8.6.8-12.7 2.5-1 .4-1.8 1.1-2.7 1.7-1.5-4.8-2.9-9-7.9-11.1-4.9-2.1-9-1.2-13 1.9-.1-.1-.2-.2-.3-.4.3-.5.4-1.2.9-1.5 2-1.3 4-2.8 6.2-3.8 2.4-1.1 4.9-.4 7.2.5 3.1 1.2 5.3 3.4 6.4 6.7.6 1.8 1.5 3.5 2.4 5.2 3.4-2.1 7.3-3.1 11.2-3.7 4.4-.7 8.5.1 12.5 2.1 4.4 2.2 7.5 5.7 10.1 9.6 1.4 2.1 2 4.7 3 7.1.8 2.7 1.2 5.7 1 8.6m-270.9-19.5c-1.9-.1-3.8-.3-5.7-.1-6.4.6-11.5 6.3-12.1 11.5-.5 3.9.3 7.5 2.9 10.8-1 .3-1.5-.3-1.9-.9-1.4-2.3-1.9-4.9-2.2-7.6-.5-4.8 1.1-9 3.7-12.8 2.2-3.1 5.5-4.1 9-4.9 2.6-.6 4.7.2 6.7 1.8.3.2.6.6.7.9.3 1-.1 1.4-1.1 1.3m345.1 31.7c0 .1-.1.1-.1.2.3.3.7.6 1 .9-4-1.8-7.3-4.5-10.6-7.2l.3-.3c2 1.6 4.1 3.1 6.4 4.9-.2-.5-.3-.7-.4-1 2.1 1.2 4.1 2.4 6.2 3.7 0 .1-.1.2-.1.2-1-.4-1.9-.9-2.7-1.4M49.8 349c-1.8.7-3.7 1.5-5.5 2.2 0-.1-.1-.2-.1-.3 1.9-.7 3.7-1.4 5.6-2.1z"/><path d="M224.7 215.1c.2 1.3.4 2.5.6 3.5.5 2.3.9 4.8 2.6 6.6.9.9 2 1.5 3.1 2.1 1.8 1 3.7 1.9 5.5 2.8 3.3 1.5 6.6 3 10 4.2.8.3 1.9-.4 2.9-.8 1.9-.8 3.7-1.7 5.6-2.6 1-.5 1.9-1.1 2.9-1.6 3.1-1.6 6.2-3.1 9.2-4.8 1.8-1 3.5-2.2 5.3-3.3.9-.6.9-1.5-.1-2.1-2.2-1.4-4.4-2.8-6.7-4-2.3-1.3-4.7-2.4-7-3.7-.8-.5-1.5-1.2-2.2-1.7-.5-2.4-1-4.9-1.5-7.3-.4-1.6-.8-3.1-1.2-4.6-.1-.3.2-.9.4-1 1.6-1 3.2-1.8 4.7-2.8 1.6-1 3.1-2.2 4.6-3.4 1-.7 2-1.3 2.9-2.1.4-.3.3-1.1.4-1.7-.5 0-1.1-.2-1.6 0-.7.2-1.3.7-2 1.1-3.3 2.3-6.8 4.1-10.5 5.7-.3-.7-.6-1.2-.9-1.8-.6-1.4-.4-1.8.9-2.7 3.9-2.5 7.7-5.1 11.6-7.6 2.3-1.4 4.6-2.6 7.2-4 .5 1.2 1 2.3 1.4 3.4 1.4 3.2 2.8 6.5 4.2 9.7.7 1.5 1.8 1.8 3.1 1 4.7-2.8 9-6.1 12.6-10.2.7-.8 1.2-.9 2.1-.3 3.1 1.8 6.3 3.4 9.4 5.3 1.8 1.1 3.4 2.4 5.2 3.6 4.6 3.2 9.1 6.5 13.8 9.5 3.3 2.1 6.9 3.8 10.3 5.8 4.3 2.5 8.5 5 12.8 7.5.9.5 1.8 1.1 3 1.8-1 .6-1.9 1.2-2.8 1.7-1.8 1-3.7 1.8-5.4 2.8-4.1 2.4-8.1 4.9-12.2 7.3-3.6 2.1-7.3 3.9-10.8 6.1-3.4 2.1-6.7 4.6-10 6.9-.9.6-1.8 1.1-2.7 1.6-5.4 3.1-10.8 6.3-16.3 9.4-1.8 1-3.6 1.8-5.4 2.8-1.4.8-2.7 2-4.1 2.8-2 1.1-4.1 2.1-6.2 3.2-4.4 2.3-8.8 4.5-13.2 6.8-5.2 2.7-10.3 5.6-15.5 8.2-3.3 1.7-6.8 3-10.2 4.5-1.1.5-2.2 1.1-3.2 1.8-.6.4-1 .5-1.7.3-7.7-2.8-14.8-6.8-21.9-10.7-3.5-2-7.4-3.5-10.9-5.5-6.2-3.6-12.4-7.4-18.5-11.3-1.9-1.2-3.6-2.9-5.5-4.2s-3.9-2.5-5.9-3.6-4.1-2-6.1-3c-.2-.1-.4-.3-.7-.5 2-1.3 3.9-2.4 5.7-3.7 5.1-3.4 10.7-6.1 16.2-8.8l16.5-8.4 6.6-3.3c1.9-1 3.6-2.1 5.5-3.2 3.6-2.1 7.3-4.3 10.9-6.4.2-.1.4-.1.8-.3.4 1.5.7 3 1.1 4.5.1.2-.1.7-.3.8-1.7 1.1-3.4 2.1-5.1 3.1-4.8 2.7-9.6 5.3-14.4 8-1.6.9-3.2 2-4.7 3.1-.4.3-.5 1-.7 1.5.5.1 1 .2 1.5.2.5-.1 1-.3 1.5-.5 3.8-1.9 7.6-3.7 11.3-5.8 3.6-2.1 7-4.4 10.5-6.6.5-.5 1-.7 1.7-1.1m147.1 2.1c-.1.8 0 1.6-.2 2.3-1.5 5.2-3.1 10.3-4.6 15.5-1.1 3.8-2.1 7.5-3.1 11.3-.5 1.9-.8 3.9-1.2 5.8-.9 4.1-1.9 8.2-2.7 12.4-.3 1.3-.4 2.6-.5 3.9-.1.7-.3 1.2-1 1.5-3.2 1.7-6.3 3.5-9.5 5.3-2.5 1.4-5 2.9-7.6 4.3-1.8 1.1-3.7 2.1-5.5 3.2-1 .6-1.9 1.4-3 2-1.2.6-1.8.2-2-1.2-.3-2.6-.6-5.2-1-7.7-1-5.2-1.8-10.4-3.2-15.4-1.3-4.7-1.4-9.6-2.3-14.4-.3-1.4 0-2.9.3-4.3.1-.6.7-1.2 1.2-1.6 1.7-1.3 3.6-2.3 5.3-3.7 3.2-2.7 6.8-4.9 10.5-6.9 5.4-3 10.9-5.6 16.7-7.8 2.5-1 5-2 7.5-2.8 1.9-.6 3.8-1.1 5.9-1.7" class="st9"/><path d="M196.9 287.5c-.3-4.9-.5-9.9-.8-14.8-.1-1 .4-1.3 1.3-.8 3 1.6 5.9 3.3 8.9 4.9 1.2.7 2.5 1.1 3.8 1.7 5.2 2.5 10.3 5 15.5 7.5.4.2.8.2 1.3.3 1.4.2 2 .8 2 2.2v12.4c0 .7-.2 1-.9 1-4.9.3-9.7 1-14.4 2.5-3.3 1-6.5 2.5-9.7 3.8-.8.4-1.4.4-2.2-.1-1.5-.9-3-1.7-4.5-2.5-.6-.3-.8-.7-.8-1.5.2-4.1.2-8.2.3-12.3v-4.2c.1-.1.1-.1.2-.1m103.9-126.4c-.4-1.8-.7-3.7-1.1-5.5-.3-1.3-.7-2.6-1.3-3.8-1.2-2.7-3.4-4.6-5.8-6.2-1.6-1-3.5-2.1-5.4-2.3-2.5-.3-5-.7-7.6.1-3.1 1-5.9 2.1-7.5 5.1-2.2 4.3-3.3 9.1-2.6 13.9.6 4 1.8 7.8 2.8 11.8.2.6.8 1.1 1.1 1.6 0 .6-.1 1.3.1 1.8.8 2.2 1.7 4.5 2.7 6.7.9 2.2 2 4.3 3 6.5 1.7-1.4 3.5-2.6 5.1-4.1 1.6-1.4 3.1-3 4.6-4.5.9-.9 1.8-1.8 2.6-2.8 1.5-1.9 2.8-4 4.5-5.7 3.2-3.5 3.9-7.9 4.9-12.2 0 0 0-.2-.1-.4m-14 7.1c-1.9.4-3.8-.1-5.5-1.3-3.4-2.3-4.5-5.6-4.7-9.5.5-2.8 1.1-5.5 3.8-7.2 2-1.3 3.9-.6 5.7.1 4 1.7 6.2 5.1 6.9 9.3.8 4.3-2.5 7.9-6.2 8.6m-32.7 39.9c-9.1 3.3-16.6 9.5-25.5 13.2-.3-1.3-.7-2.8-1.1-4.3-1.1-4.4-2.3-8.8-3.5-13.2-.2-.8.2-1.1.7-1.5 3-2.2 6.3-3.9 9.7-5.4 4.6-2.1 9.1-4.2 13.7-6.4.8-.4 1.4-.5 1.7.6.1.3.4.8.8.9 1.1.2.9 1 1 1.7.7 4 1.4 8.1 2.2 12.1-.1.8.1 1.5.3 2.3m-14 91.3v-7.1c0-.7.3-1 .9-1.3 3-1.4 6-2.9 8.9-4.3 2.1-1 4.3-1.9 6.4-2.8 2.4-1.1 4.8-2.2 7.1-3.3 1.2-.6 2.4-1.1 3.6-1.6 1-.4 1.5-.1 1.6 1.1s.1 2.4.1 3.6c.1 2.4.2 4.9.3 7.3 0 .7-.2 1.1-.9 1.3-3.7 1.4-7.4 2.8-11 4.4-3.5 1.5-7 3.3-10.5 4.9-1.2.6-2.3 1.3-3.6 1.6-.9.2-2-.1-2.8-.4-.3-.1-.3-1.1-.3-1.6.1-.6.2-1.2.2-1.8" class="st3"/><path d="M311.6 272c2.3.8 4.1-.4 5.9-1.2 2.3-1 2.5-3.1.4-4.4-2.3-1.5-4.6-2.7-7-4.1 3.9-2.1 7.9-4.3 11.9-6.5 1.7 9.3 3.5 18.7 5.3 28.1-1.9.2-3.8-.4-5.4-1.4-3.6-2.2-7-4.6-10.4-7-.3-.2-.6-.8-.7-1.2z" class="st9"/><path d="M269.3 294.3c.2 1.8.3 3.3.4 4.9.2 2.5.3 4.9.4 7.4.1.9-.2 1.6-1 2.2-1.4 1-2.6 2.3-3.7 3.5-.4.4-.5 1.1-.8 1.7-5.6-3.9-11.5-7.2-18-9.4v-.4c7.4-3.3 15-6.5 22.7-9.9m-31.8 8.2c-1.1-.1-2.1-.2-3-.4-.3-.1-.6-.6-.6-.9 0-1.3.1-2.5.1-3.8v-9.2c.1-.1.2-.1.3-.2l3.6 2.7c.1.1.2.4.2.7l-.3 10.6c-.2.1-.3.2-.3.5m74.1-25.8c1.6 1.1 3.3 2.1 5.2 3.3-1.4.3-2.6.6-3.7.8-.2 0-.7-.3-.8-.5-.4-1.1-.8-2.2-1.1-3.4.1 0 .2-.1.4-.2" class="st3"/><path d="M293 159.5c-.7-4.2-2.9-7.5-6.9-9.3-1.8-.8-3.7-1.4-5.7-.1-2.7 1.7-3.3 4.5-3.8 7.2.2 3.9 1.3 7.2 4.7 9.5 1.7 1.2 3.6 1.7 5.5 1.3 3.7-.6 7-4.2 6.2-8.6m-3.6 4.5c-3.4 2.4-6.1 2.4-9-1.2-1.1-1.4-1.9-4.7-1.8-6.5.1-1.9 1-3.5 2.4-4.7 1-.9 2.2-.9 3.5-.3 1.9.9 3.2 2.5 4.2 4.2.7 1.1 1.2 2.3 1.8 3.5.6 1-.1 4.4-1.1 5"/><path d="M278.6 156.3c.1-1.9 1-3.5 2.4-4.7 1-.9 2.3-.9 3.5-.3 1.9.9 3.2 2.5 4.2 4.2.7 1.1 1.2 2.3 1.8 3.5.5 1-.2 4.3-1.1 5-3.4 2.4-6.1 2.4-9-1.2-1-1.4-1.8-4.6-1.8-6.5" class="st9"/></g></svg>