<svg xmlns="http://www.w3.org/2000/svg" xml:space="preserve" id="Layer_1" x="0" y="0" version="1.1" viewBox="0 0 512 512"><style>.st0{display:none}.st1{display:inline}.st2{fill:#91caed}.st3{fill:#fff}.st4{fill:#f6d7b4}.st6{fill:#f1c5cb}.st8{fill:#fbf08e}.st9{fill:#b9e7f9}</style><g id="zA75fE.tif"><path d="M389.8 326.1s.4 1.8-8.3-1.3-16.3-6.6-16.3-6.6-6-4.9-6.6-8c-.6-3-1.5-7.5 0-8.5s5.8-1.8 9.4-.8 10 3.9 13.5 7.9 8.1 11.5 8.3 13.6 1.9 3.6 0 3.7" class="st9"/><path d="M244.5 225.5c.5-.1 1.1-.2 1.6-.4-.6.2-1.1.3-1.6.4m0 0" class="st3"/><path d="M396.4 331.8c-.1.1-.3.2-.4.4-2.5-1.8-4.3-4.3-7.1-6 1.4-.5 1.1-1.3.8-2.1-2.4-7.9-7.4-13.8-14.2-18.3-3.9-2.6-8.2-3.7-12.7-4.1-2.6-.2-3.8 1-3.9 3.6-.1 3.5 1.4 6.4 3.7 8.9 2.9 3.1 6.2 5.5 10.5 6.4 2.2.5 4.4.9 6.5 1.6 2.5.9 4.8 2.1 7.2 3.1.1 0 .2.1.3.2.3.5.6 1 .9 1.4-.6.2-1.2.6-1.7.6-1-.2-2-.7-3-1-3.5-1-7-2-10.5-2.9-5.5-1.4-10.1-4.1-13.1-9.1-1.6-2.8-2.4-5.8-2.8-9-.4-3.8 2.4-6.1 6.5-5.7 3.7.3 7.2 1.4 10.6 3.1 5.7 2.8 9.8 7 12.9 12.4.8 1.4 1.5 2.8 2.3 4.2.9 1.8 1.2 3.7 1.3 5.7 0 .5.3 1.1.7 1.5 1.4 1.4 2.9 2.7 4.3 4.1.5.1.6.6.9 1m9-48c-1.4.6-2.7 1.5-3.8 2.5-2.5 2.4-4.6 5.2-6 8.4-1 2.2-1.7 4.5-2.2 6.9-1 4.7.5 9 2 13.3 1.6 4.8 3.3 9.7 3.2 14.9 0 .6.2 1.2.3 1.8h.3c.1-.3.4-.7.4-1v-5.5c0-1 0-2 .1-3 .1-.9.3-1.9.5-2.8.6-4 .7-8.2 1.9-12 1.6-5.4 2.6-11 5.3-16.1.8-1.5 1.3-3.3 1.6-5 .2-2.1-1.7-3.3-3.6-2.4m1.2 3.6c-3.2 6-4.9 12.4-5.8 19.1-.6 4.4-1.3 8.8-1.9 13.4-.2-.8-.5-1.5-.7-2.2-.9-2.9-1.9-5.7-2.6-8.6-1.2-5.4-.5-10.5 2.5-15.2.5-.7.9-1.4 1.2-2.2 1.2-2.4 3-4.4 5.2-6 .6-.5 1.6-.5 2.5-.7-.1.9 0 1.8-.4 2.4m74.7 139.4c.2.2.5.5.7.8-.1.1-.1.2-.2.3-3.7-2.2-7.1-4.8-10.4-7.5.1-.1.1-.2.2-.3 1 .7 2.1 1.4 3.1 2.2.8.6 1.6 1.4 2.5 2 .3.2.8.1 1.1.2.4.1.9.2 1.2.4 1.6.9 3.2 1.9 4.8 3.1-.9-.5-1.9-1-2.8-1.4-.1.1-.2.1-.2.2M244.7 226c-.1.5-.3.9-.5 1.4-.2-.3-.6-.6-.6-.8 0-.5-.1-1.3.9-1.1 0 0 0 .1.1.1 0 .2.1.3.1.4m-3.2 46.2"/><path d="m268.1 354.6 10.1 7.3 8.2 3.5 15.1-10.8 14-10.9 14.1-9.5.6-8.1-1.2-13.6.7-17.3-.9-23.7-2.9-5.3-20.5-10.2-24-13.6-13.3-7.9-16-10.7h-6l-2.5 2.8v11.8l12.5 37.8-5.8 29.3z" class="st3"/><path d="M245.1 271.5c-1.2.2-2.3.4-3.5.7 1.1-.4 2.2-.8 3.4-1.1 0 .1 0 .2.1.4"/><path d="M294.2 333.2c-3 1.9-5.8 3.8-8.7 5.6l-12.9 7.8c-3.8 2.3-7.4 4.8-11.2 7.2-3.5 2.2-7.1 4.3-10.6 6.4l-11.4 6.9c-.8.5-1.5.7-2.4.2-2.5-1.3-5.1-2.4-7.5-3.6-1.9-.9-3.7-2-5.5-3.1-4.2-2.4-8.3-4.8-12.5-7.2l-14.4-8.1c-5.9-3.2-11.9-6.3-17.8-9.6-3.1-1.8-6.1-3.9-8.9-6.2-3.4-2.7-7.3-4.6-11.1-6.5-4.7-2.3-9.4-4.5-14.1-6.8-3.3-1.6-6.5-3.2-9.8-4.8-.5-.2-.9-.5-1.4-.9 1.3-.9 2.3-1.8 3.5-2.5 5.7-3.8 11.9-6.7 17.9-9.9 4.4-2.3 8.5-5.2 12.8-7.7 2.7-1.6 5.5-3.1 8.2-4.6 3.4-1.9 6.7-3.9 10-5.9 2.9-1.7 5.7-3.5 8.6-5.2.6-.3 1-.4 1.6.1 3.6 2.6 7.3 5.2 11.1 7.6 2.1 1.3 4.5 2.3 6.8 3.3 2.6 1.1 4.9 2.6 7.2 4.3 1.7 1.3 3.5 2.5 5.3 3.7 4.1 2.6 8.3 5.3 12.5 7.7 3.6 2.1 7.4 4 11.2 5.7 3.5 1.6 6.5 3.9 9.7 6.1 2.2 1.5 4.6 2.7 6.9 4 5.4 3 10.9 5.9 16.3 9 3.4 2 6.7 4.2 10 6.3 0 .2.3.4.6.7m102 36.7c-.6-.4-1-.9-1.3-1.4-.3-.1-.6-.2-.8-.4-2-2.5-4.6-3.7-7.7-4-6.5-.8-12 1.2-16.4 5.9-6.3 6.7-8.5 14.8-8.1 23.8.1 1.9.4 2.1 2.2 1.6 5.1-1.4 10.2-2.8 15.3-4.3 5-1.5 9.6-3.6 13.3-7.5 3.4-3.5 5.1-7.5 3.7-12.4-.1-.4-.3-.9-.2-1.3m6.8-30.8c0 3-1.4 5.6-3.3 8-1.1 1.4-2.5 2.6-3.9 3.8-1 .8-2.3 1.1-3.5.2-4.7-3.6-8.3-8.1-9.2-14.1-.4-2.6 1.9-4.7 4.5-4 2 .5 3.8 1.4 5.7 2.1.7.2 1.1.6 1.8-.2.5-.6 1.7-.6 2.6-.7 2.2-.3 5.5 1.8 5.3 4.9m3.9 10.2c.4-.7.7-1.2.9-1.7l.6-1.8c.1-.2.1-.4.2-.5 4.2-4.1 8.2-8.4 13.1-11.7 1.2-.8 2.7-1.3 4.2-1.7.5-.2 1.5 0 1.8.4.4.4.4 1.4.2 2-1.3 3.6-3.5 6.8-6.4 9.1-2 1.5-4.7 2.2-7 3.2-2.2.9-4.5 1.8-6.8 2.7-.1-.1-.3-.1-.8 0" class="st9"/><path d="M409.2 386.3c-.4 3.1-.8 5.8-1.2 8.6-.1.4-.1.8-.2 1.2-.2.8-.1 1.8-.5 2.2-1.1.8-2.3 1.7-3.6 1.9-2.5.5-5.1.2-7.5-.9-1.4-.6-2.3-1.5-2.6-3l-1.2-6.6c6.2 2.4 11.9 2.4 16.8-3.4" class="st3"/><path d="M387.1 350.2c1.7 1.2 3 3.5 5.6 4 0 .1.1.2.1.3 0 1 .3 2.4-.3 3.1-.5.6-1.9.6-2.8.8-1.7.5-3.3 1.1-5.1 1.4-1 .2-2.2 0-3.1-.4-2.4-1.1-4.7-2.4-7-3.6-1.3-.7-1.5-1.5-.5-2.6.4-.5.9-.9 1.5-1.1 3-1.2 6.2-1.9 9.5-1.5.5 0 1.1-.3 2.1-.4" class="st9"/><path d="M374 358c2.8 1.2 5.6 2.5 8.2 3.6-1.1.5-1.8.5-3.1-.3-1.7-1-3.4-2.2-5.1-3.3" class="st3"/><path d="M188.8 354.3c1.7 1 3.4 2 5.2 3 3.2 1.8 6.3 3.6 9.5 5.3 3 1.6 6 3.1 9.1 4.6 2.4 1.2 4.8 2.5 7.3 3.5 2.4 1 3.5 3 4.1 5.3.1.2-.1.6-.3.8-.8.6-1.6 1.1-2.5 1.6-2.9 1.7-5.7 3.5-8.6 5.2-3.6 2.1-7.2 4.2-10.8 6.4-3.1 1.8-6.2 3.7-9.3 5.5-.9.5-1.8 1.1-2.9 1.7.1-1.3.3-2.5.3-3.7.3-3.8.6-7.6.8-11.4.3-5.3.6-10.6.7-15.9.1-2.3 0-4.7-.4-7-.4-1.8-1.5-3.3-2.2-4.9m-10-5.3c2.1 1.1 4.2 2.2 6.2 3.3-.1.1-.1.2-.2.4-2-1.2-4-2.5-6-3.7" class="st9"/><path d="M222.3 400.9c-.9.2-1.9.2-2.7.6-1.7.9-3.4 2-5.1 3.1-3.7 2.6-7.2 5.3-11 7.8-4.6 3-9.4 5.7-14.1 8.5-1.6.9-3.1 2-4.4 2.9-3.3-1.6-6.6-3.1-9.8-4.9-2.6-1.4-4.9-3.1-7.4-4.6-3.9-2.4-7.9-4.7-11.9-7.1-1-.6-2.1-1.4-2.9-2.3-1.5-1.6-3.4-2.5-5.4-3.1-3-.9-5.4-2.8-7.9-4.5-3.8-2.7-7.9-5-12.2-6.9-2.6-1.1-4.9-2.9-7.4-4.4-3.7-2.3-7.4-4.6-11.1-6.8-1.5-.9-3.1-1.4-5-2.3 0-4.2.2-8.8 0-13.3-.4-7.2-1-14.5-1.5-21.7-.3-4.3-.4-8.7-.6-13l-.3-15.9c0-.9-.2-1.9-.3-2.9 1-.4 2.1-.8 2.9-1.1 1.9.9 3.7 1.8 5.6 2.5 5.2 1.8 9.4 5.2 13.7 8.5 3.6 2.7 7.2 5.4 11 7.8 7.2 4.7 14.6 9.2 21.9 13.7 5.3 3.2 10.8 6.2 16.2 9.3 2.6 1.5 5.1 2.9 7.6 4.5 1.7 1.1 2.5 2.9 2.4 5 0 .9-.3 1.8.8 2.4.3.2.2 1 .2 1.6.1 5.7.3 11.3.2 17s-.4 11.3-.7 17c0 .7-.1 1.4 0 2.2 0 .3.4.6.6.8.3-.3.6-.5.8-.8.1-.1.1-.4.1-.6.2-5.2.5-10.5.5-15.7.1-6.5-.1-12.9-.1-19.4 0-2.2.3-4.4.1-6.5-.1-1.7-.4-3.2-2.5-4.1-2.9-1.3-5.5-3.2-8.3-4.8-4.7-2.7-9.5-5.4-14.2-8.2-6.9-4-13.7-8-20.5-12.1-4.8-3-9.6-6.1-14.2-9.3-3.1-2.1-6-4.6-9.3-7 .4.1.6.1.7.2 3.3 1.8 6.7 3.4 9.7 5.4 3.2 2.2 7 3.1 10.3 5.1 4.2 2.5 8.5 4.9 12.7 7.4.2.1.4.2.5.4 3.3 4 7.9 6.3 12.3 8.8 1.6 1 3.1 2.2 4.6 3.4 5 3.9 10.3 7.2 16 10 1.2.6 2.5 1.2 3.7 1.8 1.6.8 2.3 2.3 2.7 3.9.8 2.7.5 5.5.4 8.3s-.3 5.5-.4 8.3c0 2.5.3 5 .2 7.5-.1 3.9-.5 7.9-.8 11.8-.1.9-.4 1.8-.7 2.7-.1.3-.5.6-.8.8-.6.4-1.2.6-1.7 1.1-.3.3-.4.8-.6 1.2.4 0 .9 0 1.3-.2 1-.6 1.9-1.2 2.9-1.8 7-4.2 14.1-8.3 21.1-12.5 4.2-2.5 8.4-5.1 12.6-7.6.2-.1.3-.2.6-.3-.3 7.5-.7 15.1-1.1 22.4" class="st3"/><path d="m178.8 349-4.5-2.4c.1-.2.2-.3.3-.5 1.4 1 2.8 2 4.2 2.9" class="st9"/><path d="m184.5 390.1-.9 10.5 1.4.2 3.8-2.6 1.7-13.5v-16.9l-.6-8.5-2.3-4.6-12.8-6.6-5.9-3.7-9.8-7.6-11.4-8.5-13.8-7.3-8.2-4.2-6.7-3.5-4-1.9v1.5l6 5 7.5 5 4.9 3.7 7.9 5 5.8 3 13.9 8.3 17.4 9.8 4.3 2.9 1.1 6 .4 8.4-.1 9.3zM398.9 320c-.2-.8-.5-1.5-.7-2.2-.9-2.9-1.9-5.7-2.6-8.6-1.2-5.4-.5-10.5 2.5-15.2.5-.7.9-1.4 1.2-2.2 1.2-2.4 3-4.4 5.2-6 .6-.5 1.6-.5 2.5-.7-.1.8-.1 1.7-.4 2.3-3.2 6-4.9 12.4-5.8 19.1-.5 4.5-1.2 8.9-1.9 13.5m3.3 41s1.9-4.5 4.2-5.5 9.9-.6 12.7 3.1 5.2 8.3 5.2 14-.8 11.7-1.7 13.6c-.9 2-3.3 5.4-8.9 0s-12.4-13.4-13-17.1c-.5-3.6-.8-8.1 1.5-8.1" class="st9"/><path d="M225.4 375.7c-.6-3.1-2.4-5.3-5.3-6.6-1.4-.6-2.8-1.1-4.2-1.8-4.3-2.2-8.7-4.4-12.9-6.7l-17.7-9.6c-3.9-2.2-7.7-4.6-11.5-6.8-1.3-.7-2.8-1.1-4-1.9-2.2-1.2-4.3-2.5-6.4-3.8-2.9-1.8-5.9-3.7-8.7-5.6-1.8-1.3-3.4-2.9-5.2-4.2-5.5-3.8-11.4-6.8-17.5-9.6-3.4-1.6-6.8-3.2-10.2-4.9-2.4-1.2-4.6-2.6-7-3.7-1.4-.6-2.9-1.1-4.4-1.2-1.3-.1-2.5-.2-3.7-.7-2-.8-4-.9-5.9.5-.7.5-.9 1-.8 1.8.2 3 .3 6 .4 9.1.1 4.6 0 9.2.1 13.9s.2 9.3.5 14c.2 3.2.9 6.4 1 9.6.1 5.6.8 11.2.3 16.8-.1 1.1-.3 1.8-1.3 2.4-4.3 2.3-8.6 4.7-12.9 7.1-3.8 2.1-7.6 4.1-11.3 6.3-2.3 1.3-4.3 3-6.6 4.3-4.5 2.7-9.1 5.2-13.7 7.9-2.7 1.6-5.3 3.2-8 4.8-2.5 1.4-5.1 2.8-7.7 4.2-2 1.1-3.9 2.2-5.8 3.3-2.4 1.4-4.8 2.7-7.1 4.1 1.2-.3 2.4-.6 3.5-1.1 2.7-1.4 5.4-2.8 8.1-4.3 3.3-1.9 6.5-3.9 9.8-5.8 2.3-1.3 4.6-2.9 7.2-3.6 5.5-1.5 10.1-4.3 14.9-7.1 4-2.4 8.1-4.7 12.1-7 3.5-2 6.9-4 10.4-5.9 3.1-1.8 6.3-3.5 9.4-5.2.8.4 1.3.8 1.9 1.1 3.3 2 6.6 4 10 5.9 3.7 2.2 7.5 4.3 11.2 6.4 3.3 1.9 6.8 3.5 10 5.5 4.3 2.7 8.6 5.4 13.2 7.7.6.3 1.2.6 1.8 1 3 2.1 5.9 4.2 8.9 6.3 1.8 1.2 3.7 2.2 5.5 3.4 2.7 1.7 5.3 3.6 8.1 5.3 2 1.2 4.1 2.3 6.2 3.3 1.2.6 2.6 1 3.9 1.4.2.1.5 0 .6-.1.5-.6 1.2-.6 1.9-.9 2.1-.8 4.3-1.7 6.2-2.8 6.6-4.1 13.1-8.3 19.6-12.5 1.1-.7 2.1-1.6 3.2-2.2 1.4-.9 2.9-1.7 4.4-2.4 1.1-.6 2.2-1.3 3.4-1.5.9-.1 1.2-.5 1.3-1.2.1-.6 0-1.3 0-1.9.1-5.3.1-10.6.2-15.9 0-2 .2-4 .3-6.3.5-.8.5-1.7.3-2.6M185 352.4c-.1.1-.1.2-.2.3-1.8-1.1-3.6-2.2-5.5-3.4 1.9 1 3.8 2.1 5.7 3.1m-10.4-6.3c1.3.9 2.6 1.8 3.9 2.8.1.1.2.1.3.2.2.1.3.2.5.3-.2-.1-.3-.2-.5-.3-.1-.1-.2-.1-.3-.2-1.4-.7-2.8-1.5-4.2-2.2.1-.3.2-.4.3-.6m47.7 54.8c-.9.2-1.9.2-2.7.6-1.8.9-3.4 2-5.1 3.1-3.7 2.6-7.2 5.4-11 7.8-4.6 3-9.4 5.7-14.1 8.5-1.6.9-3.1 2-4.4 2.9-3.3-1.6-6.6-3.1-9.8-4.9-2.5-1.4-5-3.1-7.4-4.6-4-2.4-7.9-4.7-11.9-7.1-1-.7-2.1-1.4-2.9-2.3-1.5-1.6-3.4-2.5-5.4-3.1-3-.9-5.4-2.8-7.8-4.5-3.8-2.7-7.8-5-12.2-6.9-2.6-1.1-5-2.9-7.4-4.4-3.7-2.3-7.4-4.6-11.1-6.8-1.5-.9-3.1-1.4-5-2.3 0-4.2.2-8.8 0-13.3-.4-7.2-1-14.5-1.5-21.7-.3-4.3-.4-8.7-.6-13-.2-5.3-.2-10.6-.3-15.9 0-.9-.2-1.9-.3-2.9 1-.4 2.1-.8 2.9-1.1 2 .9 3.7 1.8 5.6 2.5 5.2 1.8 9.4 5.2 13.7 8.5 3.6 2.7 7.2 5.4 11 7.8 7.2 4.7 14.6 9.2 21.9 13.7 5.3 3.2 10.8 6.2 16.2 9.3 2.5 1.5 5.2 2.9 7.6 4.5 1.7 1.1 2.5 2.9 2.4 5 0 .9-.3 1.8.8 2.4.3.2.2 1.1.2 1.6.1 5.7.3 11.3.2 17s-.5 11.3-.7 17c0 .7-.1 1.5 0 2.2 0 .3.4.6.6.8.3-.2.5-.5.8-.8.1-.1.1-.4.1-.6.2-5.2.5-10.5.5-15.7 0-6.5-.1-13-.2-19.4 0-2.2.3-4.4.1-6.5-.1-1.7-.4-3.2-2.5-4.1-2.9-1.3-5.5-3.2-8.3-4.8-4.7-2.7-9.5-5.4-14.2-8.2-6.9-4-13.8-8-20.5-12.1-4.8-2.9-9.5-6.1-14.2-9.3-3.1-2.1-6-4.6-9.3-7 .4.1.6.1.7.2 3.2 1.8 6.7 3.4 9.7 5.5 3.2 2.2 7 3.1 10.3 5.1 4.2 2.5 8.5 4.9 12.8 7.4.2.1.3.2.5.4 3.3 4 7.9 6.3 12.3 8.8 1.6 1 3.1 2.2 4.6 3.4 5 3.9 10.3 7.2 16 10 1.2.6 2.5 1.2 3.7 1.8 1.6.8 2.3 2.3 2.7 3.9.8 2.7.5 5.5.4 8.3s-.4 5.5-.4 8.3c0 2.5.3 5 .2 7.5-.1 3.9-.5 7.9-.8 11.8-.1.9-.4 1.8-.7 2.7-.1.3-.5.6-.8.8-.5.4-1.2.6-1.7 1.1-.3.3-.4.8-.6 1.2.4 0 .9 0 1.3-.2 1-.6 2-1.2 2.9-1.8 7-4.2 14.1-8.3 21.1-12.5 4.2-2.5 8.4-5.1 12.6-7.6.2-.1.3-.2.6-.3-.4 7.4-.8 15-1.2 22.3m1.3-24.2c-.8.6-1.6 1.1-2.5 1.6-2.9 1.7-5.7 3.5-8.6 5.2l-10.8 6.3c-3.1 1.8-6.2 3.7-9.2 5.5-.9.5-1.8 1.1-2.9 1.6.1-1.3.2-2.5.3-3.7.3-3.8.6-7.6.8-11.4.3-5.3.6-10.6.7-15.9.1-2.3 0-4.7-.4-7-.3-1.6-1.4-3.1-2.2-4.7 1.7 1 3.4 2 5.2 3 3.2 1.8 6.3 3.6 9.5 5.3 3 1.6 6 3.1 9.1 4.6 2.4 1.2 4.8 2.5 7.3 3.5 2.4 1 3.5 3 4.1 5.3-.1.3-.2.7-.4.8"/><path d="m296.8 334.7 26.4-14.4s2.8-1.7 2.8-4.1-.9-15.9-.9-15.9l.9-22.2s-.2-4.9-2.3-5.2c-2-.3-5.7-2.4-5.7-2.4l-24-13-20.7-11.8-12.4-6.9-10.7-9.4-2.5-.8-2.3-1-.6.3-1.1 2-1.3 4.9-.6 9.3.9 7.3 1.1 8.5 1.9 5.7 1.9 5-4.7 1.2-5.2 1.9-15.5 7.8-4.6 3.9 11.5 8.2 15.1 9.2 13.7 6.2 11.7 8.5 14.2 7.5 10.5 6.7z" class="st9"/><path d="M422.6 390c.7-1.5 1.8-2.8 2-4.2.9-6.2 1.3-12.6.1-18.8-.9-4.9-3.5-8.7-8-11-2.2-1.2-4.6-2-7-1.5-2.7.5-5.1 1.9-6.4 4.6.5-.3.8-.8 1.1-1.1 1.1-1.2 2.4-1.9 4-1.9 6.2-.2 10.7 2.9 12.7 8.7.9 2.5 1.1 5 1.2 7.6.2 4.3.1 8.6-.6 12.8-.4 2.6-1.4 3.1-3.7 1.8-4.6-2.5-8.2-6-11-10.4-.9-1.4-1.8-2.9-2.9-4.3-1.9-2.6-3-5.4-2.5-8.7.1-.8.5-1.6.5-2.5 0-.5-.3-1-.4-1.6-.5.4-1.1.6-1.3 1.1-1.3 3.1-1.3 6.3-.2 9.5 1.7 4.6 5 8.4 7.9 12.3.2.3.6.8.5 1.1-.6 1.7-1.3 3.3-3 4.2-4.3 2.4-8.7 1.9-13.2.1 1.8-1.6 2.9-4.3 6-3.4.2.1.5 0 .7 0 2.5-.3 4.7-1.2 6.8-2.6.3-.2.3-.8.4-1.2-.4-.1-.9-.2-1.3-.2-.2 0-.4.2-.6.3q-3 1.65-6.3 2.1c-.5 0-1-.1-1.6-.1.3-.6.4-1.1.6-1.5 1.4-3.3 1.9-6.7.9-10.3-.2-.7-.2-1.6 0-2.4.3-1.6 1-3.1 1.2-4.7.4-2.8.5-5.7.7-8 2.5-2.1 3.3-5.1 5.8-6.6.7 1.6 1.3 1.9 3 1.5.5-.1 1-.3 1.5-.5 2.2-.9 4.4-1.8 6.6-2.6 2.9-1.1 5.7-2.3 7.8-4.8 1.3-1.6 2.6-3.3 3.7-5 .7-1.1 1.2-2.3 1.6-3.5.8-2.1 0-3.4-2-4.2s-3.8-.1-5.3 1.2c-5.2 4.3-10.6 8.5-15.2 13.6-.2.3-.3.7-.5 1-.2.5-.3 1-.6 1.4-1.6 1.8-3.3 3.5-4.9 5.3-.4.4-.6 1-1 1.7 0-2.3.2-4.1 1.7-5.9 2.1-2.4 3.3-5.3 3.3-8.5 0-2.9-1.4-5.2-4.1-6.5-2.4-1.1-4.8-1.3-6.8.7-1.7-.7-3.3-1.6-5.1-1.9-1.6-.4-3.5-.5-5-.1-2.3.6-3.6 3.2-3.2 5.8.5 3.7 2 7.1 4.2 10.2q.3.45.9 1.2c-4.1-.8-7.7.1-11.1 1.6-1.3.5-2.4 1.3-3 2.6-.7 1.5 0 2.6 1 3.9-.6-.3-.9-.5-1.3-.8-4.1-2.7-8.3-5.4-12.4-8.2-9-6-18.5-11-28.3-15.5-.8-.4-.8-.9-.8-1.5.1-1.7.2-3.3.1-5-.1-1.8-.5-3.5-.5-5.2 0-3.4.1-6.8.1-10.3 0-2.2-.2-4.5.2-6.7.9-5.6 1.6-11.1 1.5-16.8-.1-5.2-.1-10.4-.2-15.6 0-1.4-.2-2.9-1.9-3.7-2.8-1.2-5.5-2.6-8.1-4-2.9-1.6-5.8-3.4-8.7-5.1-2.9-1.8-5.8-3.6-8.9-5.2-4.1-2.2-8.4-4.1-12.4-6.4-4.4-2.4-8.5-5.1-12.8-7.6-4-2.3-8-4.5-12-6.7-1-.6-2.2-1-3.2-1.6-3.8-2.4-7.5-5-11.3-7.4-1-.7-1.3-1.5-1.3-2.6 0-4.8-.1-9.6-.1-14.4 0-5.8 0-11.6.1-17.4.1-8.3.2-16.5.2-24.8 0-5.2-.3-10.4-.4-15.5 0-2 .1-4 .1-6 0-3.9-.1-7.9-.2-11.8 0-6.2 0-12.4-.1-18.7-.1-7-.2-14-.2-20.9 0-2.2-.1-4.3-.1-6.5 0-.5-.2-.9-.3-1.3h-.5c-.1.5-.2 1-.2 1.6 0 4.7.1 9.4 0 14.1-.1 7.2-.4 14.3-.5 21.4-.1 8.3.1 16.7.1 25 0 4.2-.3 8.4-.4 12.6l-.3 18.9c-.1 4.1-.3 8.1-.4 12.2-.1 3.8 0 7.5-.1 11.2 0 3.8-.1 7.6-.1 11.4 0 2.4.1 4.7.2 7.1 0 1 .4 2.2 0 2.9s-1.7.9-2.6 1.3h-.1c-.9.4-1.1 1-.4 1.7.5-.1 1.1-.3 1.6-.4s1.1-.3 1.6-.4c1.3-.4 2.3-.1 3.5.7 3.1 2.2 6.4 4.4 9.7 6.4 3.5 2 7.2 3.8 10.8 5.7 1 .5 2 1 2.9 1.6 2.5 1.6 5.1 3.3 7.6 5 .8.5 1.5 1.1 2.2 1.6 2.5 1.5 5 3.2 7.7 4.5s5.6 2.4 8 4.3c1.2 1 2.6 1.7 4 2.4 1.9 1.1 3.9 1.9 5.7 3.1 2.6 1.6 5.1 3.6 7.8 5.1 3.3 1.9 6.9 3.5 10.3 5.3.4.2.9.8.9 1.1v24.9c0 3.7 0 7.3-.1 11-.2 4.8-.6 9.6-.7 14.5 0 2.9.4 5.7.6 8.6 0 .5-.4 1.1-.4 1.6 0 .8.3 1.7.5 2.5l-2.7 1.5-11.4 7.2c-.5.3-1 .6-1.4 1.1-2.8 3-6.1 5.4-9.5 7.7-3 2.1-6.5 3.3-9.3 5.8-1.9 1.7-4.3 2.8-6.4 4.1-.7.4-1.3 1-2.1 1.6.3-7.2.6-14.1 1-21 2.5-1.7 5.1-3.5 7.7-5.3.7-.5 1.5-.9 2.2-1.3 1-.5 2.1-.9 3.1-1.5 3.3-2 6.6-4.2 10-6.2 2-1.2 4.1-2.1 6.2-3.2 1.8-1 3.6-2.1 5.4-3.1.3-.2.8-.2 1.1-.5s.5-.8.7-1.2c-.5-.1-1-.3-1.4-.2s-.9.4-1.3.6c-3.5 1.9-7.1 3.8-10.7 5.7-3.9 2-8.1 3.6-11.6 6.5-.3.2-.6.4-1 .6 0-.1 0-.2.1-.4-1.1-.6-2.3-1.2-3.5-1.8 3.4-4 8.2-5.6 12.3-8.4 4.2-2.9 9.3-3.4 14-5.1-.6-.2-1.2-.3-1.7-.2-3.1.8-6.4 1.3-9.2 2.7-5.7 2.7-11.3 5.6-16.1 9.8-.2.2-.8.3-1.1.1-1.3-.8-2.7-1.6-3.9-2.5-5.8-4.1-11.8-7.9-18.1-11.2-4-2-7.8-4.5-11.5-7.1-2-1.4-4.2-2.6-6.4-3.7-2.7-1.4-5.5-2.4-8.1-3.9-3.8-2.2-7.4-4.6-11.1-7-4.7-3-9.3-6.1-14.1-9.3.6-.5.9-.7 1.3-.9 1.8-1.2 3.7-2.3 5.6-3.4 3.9-2.3 7.8-4.5 11.7-6.8.7-.4 1.3-.8 2-1.1.7-.4 1.3-.7 2-1.1-.8.2-1.5.4-2.3.7-3.3 1.4-6.6 2.9-10 4.3-3.6 1.5-6.8 3.5-9.8 5.9-1.2 1-2.2 1.3-3.8.6-2.7-1.1-5.3-2.2-7.7-3.8-3-2.1-6.1-4.1-9.2-6.1-.5-.3-1.2-.6-1.6-1-.9-1-1.3-1-2.4-.3-2.2 1.6-4.1 3.6-6.6 4.6-.4.2-.8.5-1.2.8-2.5 1.6-4.9 3.2-7.4 4.6-4.5 2.5-9.2 4.8-13.7 7.3-1.6.9-3 2-4.5 2.9-4.3 2.5-8.7 5-13 7.5-3 1.8-6 3.8-9 5.7-2 1.2-4 2.3-6 3.6-.3.2-.7.6-.7.9 0 1.2-.1 2.5.1 3.7.1.5.9 1 1.4 1.3 2.2 1.1 4.5 2 6.7 3.1 2.6 1.2 5 2.6 7.6 3.8 1.8.9 3.7 1.4 5.5 2.4 2 1.1 3.8 2.5 5.7 3.7 1.8 1.1 3.7 2.2 5.6 3.2 2.1 1.2 4.2 2.2 6.4 3.4.3.2.5.4.9.7-1.6 1-3 2-4.5 3 .5.4.8.6 1.1.9.7.7 1.2.7 2 .1 1-.7 2.1-1.3 3.2-1.9.7-.5 1.4-.4 2.1.1 1 .7 1.9 1.4 3 2 3 1.7 5.9 3.4 8.9 5.1 1.3.7 2.5 1.6 3.8 2.3 2.8 1.5 5.5 3 8.3 4.5 1.5.8 3.2 1.3 4.6 2.1 3.1 1.9 6.1 4 9.2 5.8 2.9 1.7 5.9 3.3 8.9 4.9 1.6.8 3.2 1.7 4.9 2.2 3.2 1 6.1 2.5 8.6 4.8.2.1.5.3.6.2 1.1-.3 2.2-.5 3.2-1.1 2.7-1.5 5.3-3.2 8-4.7 3.7-2.1 7.5-4.2 11.3-6.3.3-.2.7-.3 1.2-.5v5.5c0 .9.2 1.8.2 2.7.1 2.3 0 4.6.2 6.9.1 1.1-.1 1.7-1 2.3-2.8 1.7-5.6 3.4-8.4 5-.9.5-1.4 1.2-1 2.2.4 1.1 1.3.6 2 .3 1.3-.6 2.5-1.3 3.8-1.8 1-.5 2.2-.7 3.2-1.3 3.2-2 6.5-4.1 9.6-6.3 2-1.4 4.1-2.7 5.6-4.7.2-.3.4-.9.3-1.2s-.7-.6-1-.6c-.5 0-1 .2-1.4.5-1.3.7-2.5 1.6-3.8 2.3-.9.5-1.8.8-2.7 1.3l-2.7 1.5c-.2-1.9-.5-3.7-.6-5.5-.1-3 0-6.1-.1-9.1 0-1 .4-1.6 1.2-2.1 6.1-4 12.1-8 18.1-12.1.9-.6 1.8-1.1 3-1.8-.1 6.9-.3 13.5-.4 20.2-1-.5-1.9-.7-2.6-1.2-3.3-2.1-6.6-4.4-9.8-6.5-1.2-.8-1.5-.7-2.4.5 3.1 2.2 6.3 4.2 9.3 6.6 1.7 1.3 3.6 2 5.6 2.6.4.1 1 .1 1.4-.1 1.5-.9 2.9-1.9 4.4-2.9l6.6-4.8c2.6-1.9 5.3-3.8 8-5.7 2.8-2 5.6-3.9 8.5-5.7 3.2-2 6.5-3.8 9.8-5.8 1.7-1 3.3-2.2 5-3.3.8-.5 1.5-1.2 2.5-2 3.8 1.8 8 3.7 12.1 5.7 3 1.5 5.9 3.1 8.7 4.9 4.1 2.6 8 5.4 12.1 8 3.7 2.4 7.4 4.7 11.1 7.1.8.5 1.4 1.1 2.2 1.8-.3.2-.5.3-.7.4-5.6 1.9-9.7 5.7-12.6 10.8-2.1 3.7-3.4 7.6-4.1 11.8-.5 3-.3 5.9.6 8.8.7 2.6 1.4 3 4 2.4 3.4-.7 6.8-1.6 10.2-2.4 4.7-1.1 9.4-2.2 13.8-4.4.6-.3 1.3-.6 2-1q.75 3.9 1.5 7.5c.6 2.9 2.3 4.7 5.3 5.3.2 0 .4.1.6.2 2.3 1.2 8.2-.4 10-2.6.7-.8 1.4-1.5 1.5-2.7.4-3.5 1-6.9 1.5-10.3.1-.4.2-.8.2-1 2.1 1.3 4.2 2.6 6.3 3.8 1 .5 2.1.8 3 1.4 2.1 1.4 4.1 2.9 6.2 4.3 3.6 2.4 7.2 4.7 10.8 7 3.1 2 6.2 4.1 9.3 6 4 2.4 8 4.7 12.1 7 .5.3 1.2.6 1.8.5.7-.1 1.3-.6 2-.9-14.6-7-27.9-15.6-40.4-24.6m-14.8-42.4c.2-.6.4-1.2.7-1.8.1-.2.1-.4.2-.5 4.2-4.1 8.2-8.5 13.1-11.7 1.2-.8 2.7-1.3 4.2-1.7.5-.2 1.5 0 1.8.4.4.5.4 1.4.2 2-1.3 3.6-3.5 6.8-6.4 9.1-2 1.5-4.7 2.2-7 3.2-2.2.9-4.5 1.8-6.8 2.7-.1.1-.3.1-.8.1.3-.8.6-1.3.8-1.8m-122.2-8.9c-4.3 2.7-8.6 5.2-12.9 7.8-3.8 2.3-7.4 4.8-11.2 7.2-3.5 2.2-7.1 4.3-10.7 6.4-3.8 2.3-7.6 4.6-11.4 7-.8.5-1.5.7-2.4.2-2.5-1.3-5-2.4-7.5-3.6-1.9-1-3.7-2-5.6-3.1-4.2-2.4-8.3-4.8-12.5-7.2l-14.4-8.1c-5.9-3.2-11.9-6.3-17.8-9.6-3.1-1.8-6.1-3.9-8.9-6.2-3.4-2.7-7.2-4.6-11.1-6.5-4.7-2.3-9.4-4.5-14.1-6.8-3.3-1.6-6.5-3.2-9.8-4.8-.5-.2-.9-.6-1.4-.9 1.2-.9 2.3-1.8 3.5-2.5 5.7-3.8 11.9-6.7 17.9-9.9 4.4-2.3 8.5-5.2 12.8-7.7 2.7-1.6 5.5-3.1 8.2-4.6 3.3-1.9 6.7-3.9 10-5.8 2.9-1.7 5.7-3.5 8.6-5.2.6-.3 1-.3 1.6.1 3.6 2.6 7.3 5.2 11.1 7.5 2.1 1.3 4.5 2.3 6.8 3.3 2.6 1.1 4.9 2.6 7.2 4.3 1.7 1.3 3.5 2.5 5.3 3.7 4.1 2.6 8.3 5.3 12.5 7.7 3.6 2.1 7.4 4 11.2 5.7 3.5 1.6 6.5 3.9 9.7 6.1 2.2 1.5 4.6 2.7 6.9 4 5.4 3 10.9 5.9 16.3 9 3.4 2 6.7 4.2 10 6.3.2.2.5.3.8.6-3 2-5.8 3.9-8.7 5.6m97.5-1.7c-.4-2.7 1.9-4.7 4.5-4 2 .5 3.8 1.4 5.7 2.1.7.2 1.1.6 1.8-.2.5-.6 1.7-.6 2.6-.7 2.2-.2 5.5 1.9 5.3 5 0 3-1.4 5.6-3.3 8-1.1 1.4-2.5 2.6-3.9 3.8-1 .8-2.3 1.1-3.5.2-4.7-3.7-8.3-8.2-9.2-14.2m-9.2 16.1c.4-.5.9-.9 1.5-1.1 3-1.2 6.2-1.9 9.5-1.5.6.1 1.2-.2 2.2-.3 1.7 1.2 3 3.5 5.6 4 0 .1.1.2.1.3 0 1 .3 2.4-.3 3.1-.5.6-1.9.6-2.9.8-1.7.5-3.3 1.1-5.1 1.4-1 .2-2.2 0-3.1-.4-2.4-1.1-4.7-2.4-7-3.6-1.2-.7-1.4-1.5-.5-2.7m5.5 37.9c-5.1 1.5-10.2 2.9-15.3 4.3-1.8.5-2.1.3-2.2-1.6-.4-9 1.8-17.1 8.1-23.8 4.4-4.7 9.9-6.6 16.4-5.9 3.1.4 5.8 1.5 7.7 4 .3.4.9.4 1.4.7 0-.5.2-1.2 0-1.6-1.1-2.6-3.4-3.7-5.9-4.4-1.3-.4-2.6-.7-4-1.2 2.4-.9 4.8-1.8 7.2-2.6 1-.3 1.8-1.2 1.7-2.3 0-.4-.1-.8-.2-1.2-.1-.3-.2-.7-.5-1.3 2.5 0 4.1-1.5 6-2.9-.7 5.4-1.3 10.7-2 16.1-.7-3.2-1.2-6.5-2.4-9.6-.2 0-.3.1-.5.1 0 .4 0 .8.1 1.2.5 2.5 1.1 5.1 1.6 7.6.2 1.1.6 2.1-.2 3.2-.2.3 0 1 .1 1.4 1.4 4.9-.3 8.9-3.7 12.4-3.8 3.8-8.5 6-13.4 7.4m28.5 3.9c-.1.4-.1.8-.2 1.2-.2.8 0 1.8-.5 2.2-1.1.8-2.3 1.7-3.6 1.9-2.5.5-5.1.2-7.5-.9-1.4-.6-2.3-1.5-2.6-3l-1.2-6.6c6.3 2.4 12 2.4 16.9-3.4-.5 3.1-.9 5.9-1.3 8.6M241.5 272.2q-.15 0 0 0c-.1 0 0 0 0 0"/><path d="M325.9 297.6c-.2 3.9-.3 7.9-.2 11.8.1 2.3.1 4.6.1 6.9 0 .3 0 .7-.1.9-.1.3-.3.5-.5.7-.2-.2-.5-.5-.5-.8 0-2.4-.1-4.7 0-7.1 0-1.1.2-2.2.2-3.2 0-1.9-.2-3.9-.3-5.8 0-1.4.1-2.9.1-4.3v-15c0-1.2.2-2.5.3-3.7.1-2.5-1.1-4.4-3.5-5.4-3.8-1.6-7.6-3.4-11.4-5.2-1.2-.6-2.3-1.5-3.5-2.2-2.3-1.3-4.7-2.5-7.1-3.7-3-1.6-6.1-3.2-9.1-4.9-5-2.8-10.1-5.6-15.1-8.5-3.2-1.9-6.2-4.2-9.3-6.3-1.3-.8-2.6-1.6-4-2.2-3.4-1.5-5.9-4.1-8.8-6.4-2.2-1.7-4.3-3.6-7.1-4.3-.4-.1-.8-.5-1.4-.8-1.3 1.8-1.7 3.8-2 5.8-.8 6.5-.7 13 .4 19.6q.45 2.85.6 5.7c.2 2.7 1.5 5.1 2.3 7.6.7 2.3 1.9 4.1 3.7 5.4 1 .8 2.3 1.2 3.5 1.8 2.6 1.5 5.2 2.9 7.8 4.4 3.1 1.8 6.2 3.7 9.3 5.6 2 1.3 3.8 3 6 3.9 4.7 2 8.9 4.8 13.4 7.2 2.5 1.4 4.9 3.1 7.5 4.5 3.6 2 7.2 3.8 10.8 5.7.7.4 1.4.7 2.1 1.2 3.9 2.6 7.7 5.2 11.6 7.8.1.1.2.1.3.2.5.5 1.3.9.8 1.7s-1.2.2-1.8 0c-3.3-1.1-5.6-3.7-8.6-5.4-3.3-1.9-6.7-3.8-10-5.9-3-1.8-6-3.8-9-5.7-2.1-1.3-4.1-2.6-6.2-3.8-2.3-1.3-4.7-2.5-7-3.7l-3.9-1.8c-2.9-1.2-5.2-3.1-7.6-4.9-1.4-1-3.1-1.6-4.6-2.5-2.5-1.5-4.9-3.2-7.3-4.8-1.6-1-3.2-2.1-4.8-3.1-3.3-1.9-5.7-4.5-6.5-8.3-.2-.8-1-1.4-1.2-2.2-.8-2.7-1.8-5.3-2.1-8.1-.6-5.2-1.7-10.4-1.1-15.7.4-3.2.4-6.5 1.7-9.5.5-1.2 1.3-2.2 1.9-3.3.4-.7.8-.6 1.5-.4 3.2 1.3 6 3.1 8.7 5.4 2.8 2.5 5.9 4.6 9.4 6.3s6.6 4.3 10 6.3c2.4 1.5 4.9 2.7 7.3 4 2.1 1.2 4.2 2.6 6.4 3.8 1.5.8 3 1.5 4.5 2.2 1.9 1 3.8 2.1 5.6 3.1 3.8 2.1 7.6 4.4 11.5 6.4 4.4 2.2 8.8 4.3 13.2 6.4 2.8 1.3 4.1 3.5 4 6.4-.3 7.1-.5 13.6-.9 20.2"/></g></svg>