<svg xmlns="http://www.w3.org/2000/svg" xml:space="preserve" id="Layer_1" x="0" y="0" version="1.1" viewBox="0 0 512 512"><style>.st0{display:none}.st1{display:inline}.st2{fill:#91caed}.st3{fill:#fff}.st4{fill:#f6d7b4}.st7{fill:#fbf08e}.st8{fill:#f1c5cb}.st9{fill:#adedc8}</style><path d="M264.5 353.5c1.7-2.5 4.7-4.1 7.8-4.5 2.4-.3 4.9.2 6.9 1.5s3.5 3.3 4.7 5.5c.9 1.6 1.5 3.3 1.7 5.2.1 1.2 0 2.3-.1 3.5-.2 3.3-.3 6.7-.1 10 .1 1.7.2 3.4-.5 5s-2.3 2.9-4 2.5c-.5-.1-1-.4-1.5-.7-3.7-2.3-7-5.1-9.8-8.3-1-1.2-2-2.4-2.7-3.8-1.2-2.5-2.1-5.1-3.3-7.7s-.7-5.9.9-8.2m-38.2-43c2.1 1.4 4.2 2.9 6.6 3.6 1 .3 2 .4 3 .8 1.4.4 2.6 1.2 3.9 1.8 4 2 8.4 3.1 12.8 3.2-.1-.8-.2-1.6-.4-2.4-.3-1.4-.8-2.8-1.3-4.2-.2-.7-.5-1.4-.7-2-.6-1.6-1.2-3.3-2.1-4.7-1.3-2-3.3-3.5-5.3-5-.5-.4-1-.7-1.5-1.1-.6-.4-1.2-.9-1.8-1.3-.7-.5-1.5-.9-2.2-1.5-.4-.3-.7-.7-1.1-.9s-.8-.4-1.2-.5c-3.9-1.2-7.9-1.8-11.9-1.9-.4 0-.8 0-1.1.2-.5.2-.8.8-1.1 1.4-1.5 3.7-.5 8.3 2.4 11.1 1.2 1 1.7 2.5 3 3.4" class="st9"/><g id="_x33_hA4Ot.tif"><path d="M296 281.3c-1.8-.9-3.6-1.8-5.4-2.8-.4-.2-.8-.8-.8-1.2-.3-5.5-.5-11.1-.8-16.6-.1-2.9-.4-5.8-.5-8.7 0-.6 0-1.2.3-1.7.5-.7 1.2-1.3 1.8-1.8.8-.7.7-1.3-.2-1.8-.7-.4-1.4-.8-2-1.3-2.5-1.7-5-3.4-7.6-4.9-2.3-1.3-4.7-2.4-7-3.7-2-1.2-3.9-2.6-5.9-3.8-2.1-1.3-4.3-2.5-6.4-3.7.3-.7.7-1.3.8-2 .3-1 .6-2.1.7-3.1.1-1.3-.2-1.6-1.6-1.6-3 0-5.5 2.5-6 5.8-.2 1.1-.3 2.2-.5 3.3-.4-.1-.8-.2-1.1-.1-1 .3-1-.2-1-.9 0-.4-.2-.8-.2-1.2h-.3c0 .5-.1 1-.1 1.5l-3.6-2.7c.4-.3.7-.6 1.2-.9-1.2-.2-1.8.4-2.1 1.1-.1.3.6 1 1 1.4.5.4 1.1.7 1.6 1-1.3.4-2.5.6-3.6 1.1s-1.2 1.3-.5 2.2c.5.7 1.2 1.4 1.9 2.2-.9.6-2 1.2-3 1.8-.8.4-1.7.7-2.5 1.1-4.3 2.4-8.6 4.7-12.8 7.2-3.8 2.3-7.7 4.1-11.7 5.9-1.5.7-3.1 1.3-4.4 2.3-4.3 3.6-9.6 5.7-14.4 8.6-2.4 1.4-5.1 2.3-7.6 3.7-3 1.6-5.9 3.3-8.9 5-4.3 2.4-8.6 4.7-12.8 7.2-3.7 2.2-7.7 4.1-11.6 5.9-1.7.7-3.3 1.6-4.8 2.6-2.2 1.3-4.2 2.9-6.4 4.2-1.7 1-3.5 1.8-5.2 2.8-1.3.7-1.3 1.9-.1 2.6.6.4.6.8.6 1.3 0 2.9-.1 5.8 0 8.7l.3 14.6c0 .5-.3 1.1-.7 1.5-.5.6-1.5 1 0 1.6.1 0 .2.3.3.5.2 1.4.2 2.8.5 4.2.1.6.8 1 1.2 1.5.3-.5.8-1 .9-1.5.2-1.3.1-2.5.1-3.8 0-.9.3-1.6 1.2-2 2.8-1.3 5.5-2.7 8.2-4.2 1-.5 2-1.1 2.9-1.7 0-.1-.1-.3-.1-.4h-3.1v-1.1c-3 1.7-5.9 3.3-9.1 5.1-.2-6.8-.4-13.4-.6-20.2.5.2.7.3.9.4 2.2 1.2 4.5 2.4 6.8 3.6 4.6 2.5 9.3 5 14 7.3 1.8.9 2 2 1.9 3.8-.1 5.2 0 10.5.1 15.7.1 3.9.4 7.8.5 11.7.1 1.8.2 2.1 2.3 2.9.4-5.7-.2-11.2-.4-16.7s0-11.1 0-16.9c1.1 1 1.8.1 2.5-.2 2.9-1.5 5.8-2.8 8.7-4.4 4.3-2.3 8.5-4.8 12.7-7.2 2.5-1.4 5-2.8 7.5-4 4.2-2 8.5-3.9 12.6-6 3.7-1.9 7.2-4 10.8-6 .4-.2.7-.3 1.4-.7v8.7c-1.1-.1-2.5.3-3.3-.3-2.7-1.8-5.5-1.5-8.3-.7-3.3 1-6 3-6.9 6.4-.9 3.3-1.4 6.7-2.2 10 0 .1-.2.3-.3.4-.7-.3-1.4-.6-2.2-.8-1.5-.4-3-1.4-4.6-1-.8.2-2 .7-2.1 1.4-.3 1 1 1.4 1.8 1.8s1.7.6 2.7.9c-1.1.8-2.1 1.4-2.9 2.1-1.2 1.1-1 3.2.4 4 2.3 1.2 4.6 2.4 6.9 3.5 1.2.6 2.6 1 4 1.2.8.2.9.5 1 1.2 0 1.8.2 3.5.2 5.2.1 2 .3 4 .4 5.9-1.7.2-3-1.2-4.5-1 0 .2-.1.3-.2.5 1.2.6 2.4 1.2 4 1.9-1.9 1.2-3.6 2.2-5.2 3.2-.4.2-.8.4-1.1.6-.2.2-.4.6-.4.8.1.3.5.5.8.5.4 0 .8-.2 1.1-.4l5.4-3c.3 2-.8 4.3.5 6.5 1.7-2 .2-4.5 1.3-6.3 1.7 1.2 3.4 2.5 5.1 3.7.3.2.9.1 1.3.2-.2-.4-.2-1-.5-1.3-.4-.4-1-.7-1.5-1-1.3-1.1-2.7-2.2-4.1-3.4 1.3-.4 2.2-.6 3.1-1 .3-.1.6-.5.8-.8-.4-.1-.8-.3-1.2-.3-1 .2-2 .5-3.1.7-.1-.4-.2-.7-.2-.9 0-3.6-.1-7.2 0-10.8 0-.4.5-.9 1-1.1 1.4-.7 2.8-1.1 4.2-1.8 1-.5 1.9-1.1 2.9-1.6 2.5-1.1 3.3-2.4 3.2-5.1-.1-.9-.1-1.8-.1-2.7.1-.1.3-.1.4-.2.2.3.3.6.6.8 1.4 1.2 2.7 2.6 4.4 3.5 1.8 1 3.8 1.5 5.7 2 4.2 1.1 8.5 1.8 12.5 3.6.6.3 1.4.3 2.1.3 1-.1 1.2-.7.5-1.5-.2-.3-.6-.6-.9-.7-1.6-.8-3.1-1.7-4.8-2.2-3.2-1-6.5-1.9-9.8-2.8-5.4-1.5-9.3-4.8-12-9.6-1.1-1.9-1.6-4-1.2-6.2.2-1.7 1.2-2.7 2.9-2.7 4.2-.1 8.3.9 11.8 3 3.6 2.1 7 4.7 9.7 8.1 2.9 3.5 5 7.2 6.2 11.5.2.6-.1 1.3-.1 2-.2.1-.3.1-.5.2 2.6 1.7 4.4 4.2 7.1 5.7 0-.6-.2-1.1-.5-1.4-1.4-1.4-2.9-2.7-4.3-4.1-.4-.4-.7-1-.7-1.5 0-2.6-.7-4.9-2-7-.5-.7-.8-1.5-1.2-2.2-1.4-2.1-2.5-4.4-4.2-6.2-3.9-4.3-8.7-7.2-14.2-8.9-1-.3-1.4-.8-1.4-1.8.1-2.6.3-5.3.1-7.9-.1-2.3 1-3.5 2.9-4.4q6.15-3 12.3-6.3c4.5-2.4 8.9-5 13.3-7.5.4-.2 1-.2 1.4 0 1.1.5 2.1 1.1 3.1 1.7.3.2.6.5.6.8-.3 2.1-.8 4.1-1.2 6.3-.8-.3-1.5-.6-2.2-.8-1.5-.4-2.9-.9-4.4-1-.8 0-2.2.7-2.4 1.3-.3 1.2 1.1 1.5 2 2 .7.3 1.5.5 2.5.8-1 .7-1.9 1.3-2.7 1.9-1.6 1.4-1.3 3.5.7 4.4 1.2.6 2.3 1.3 3.6 2-.3.5-.6.9-.8 1.3-1.6 2.5-2.5 5.3-3 8.1-1 4.8.5 9.2 2 13.6 1.6 4.8 3.3 9.6 3.2 14.7 0 .7.2 1.3.3 1.9h.4c.1-.4.4-.7.4-1.1v-5.5c0-.9 0-1.8.1-2.7.1-1.3.4-2.5.5-3.8.2-1.8.4-3.7.6-5.5 0-.2.1-.6.3-.7 1.5-.9 2.9-1.8 4.4-2.7-.2 5.5-.4 5.5.6 6.4 1.5-1.9.1-4.3 1.2-6.2.3.2.6.5.9.7 1.4 1 2.8 2.1 4.2 3.1.3.2.8.1 1.3.1-.2-.4-.2-.9-.5-1.2-.4-.4-1.1-.7-1.5-1.1-1.3-1.1-2.6-2.2-4.1-3.4 1.3-.4 2.2-.6 3.2-1 .3-.1.5-.6.8-.9-.4-.1-.7-.3-1.1-.2-1.1.2-2.1.5-3.2.7-.1-.3-.2-.5-.2-.6 0-3.7-.1-7.4 0-11.1 0-.4.5-.9.9-1.1 1.4-.6 2.8-1.1 4.2-1.7l3.6-1.8c1.6-.8 2.6-2.4 2.6-4.1 0-1.4-.2-2.7-.1-4.1.2-4.7.4-9.4.7-14.1.1-1.7-.8-2.7-2.1-3.4-.7-.4-1.4-.6-2.3-1 3.1-1.7 6.1-3.4 9.4-5.3.1 2.9.3 5.5.4 8.2.2 6.5.4 13.1.7 19.6.1 1.7.3 2 2.1 2.6.2-.3.4-.6.6-1.1 1.9.9 3.7 1.7 5.5 2.5.6.3 1.1.2 1.3-.6-.3-1-.4-1.5-1.2-1.9m-33.6-58c.1 2.1-.9 3.9-1.8 5.7-.8 1.6-2.5 1.9-4.1 2.5-.8-3.9 1.7-7.4 5.9-8.2m-3.7 8.3c.1.1.1.2.2.2-.8.7-1.6 1.4-2.5 2.3-.5-2.5 1.5-1.8 2.3-2.5m-4.9 2.2c.5.5.9 1.1 1.3 1.6l1.4-.7c-.2.5-.3.8-.5 1.3.6 0 1.1 0 1.6-.1 1-.2 1.9 0 2.5.9s.5 1.8-.2 2.6c-1.1 1.4-2.2 2.7-3.3 4-2.7-2-3-5.2-.7-6.9v-.4c-.6 0-1.1-.1-1.9-.2-.2-.6-.5-1.3-.7-2 .3 0 .4-.1.5-.1m1.8 10.8c-1.7.3-2.1 0-2.6-1.6-.2-.8-.5-1.6-.5-2.6 1.1 1.4 2.1 2.8 3.1 4.2m-1.9-8.3c-1-.3-2-.7-3-1 1.7-1.4 2.6-1.1 3 1m-6.7-3.1c-.2-.8.4-1.2 1-1.4 1.6-.4 3.1.2 4.1 1.8-.8.4-1.6.8-2.3 1.1-.8.4-2.6-.6-2.8-1.5m-30.7 54.5c-4 2.2-7.9 4.8-12.1 6.6-5 2.2-9.8 4.8-14.6 7.3-5.9 3.1-11.8 6.1-17.7 9.1-.3.2-.9.3-1.2.2-3.4-1.6-6.7-3.1-10-4.8-4-2.1-7.9-4.4-11.8-6.6-1.7-1-3.4-2.1-5.1-3.1-.4-.2-.7-.5-1.2-.8 1.7-.9 3.3-1.5 4.8-2.5 2.5-1.6 4.9-3.3 7.4-4.9 1.6-1 3.2-1.9 4.9-2.6 3.5-1.3 6.7-3.2 9.9-5 5.7-3.3 11.4-6.5 17.1-9.8 1.2-.7 2.2-1.7 3.4-2.4 1-.6 2.1-1.2 3.1-1.7 2.2-1 4.4-2.1 6.7-2.9 1.3-.4 2.7-1 4 .3.7.7 1.7 1 2.5 1.6 1.6 1.2 3.2 2.5 4.9 3.6 1.3.9 2.7 1.9 4.2 2.5 3 1.1 5.8 2.7 8.4 4.5 1.6 1.1 3.4 2.1 5.1 3.1.3.2.6.4 1.1.8q-6.75 3.75-13.8 7.5m46.6-23.8c.8-.4 1.5-.8 2.5-1.3-.4.9-.6 1.5-.9 2.2-.5-.3-1-.5-1.6-.9m1 39.9c-.1-.1-.2-.2-.3-.2.2-1 .5-2.1.7-3.3 1 .5 1.8.9 2.9 1.3-1.2.8-2.2 1.5-3.3 2.2m3.7-3.5c-2.9-.6-2.9-.6-2.1-3.4.5-1.9 1-3.7 1.8-5.6.2 3 .5 6 .8 8.9-.4.1-.5.2-.5.1m-6.4 13.1c-.2-.7-.4-1.4-.7-2.1-.9-2.9-2-5.8-2.6-8.7-1.2-5.2-.5-10.2 2.3-14.8.5-.8 1-1.6 1.4-2.5 1.2-2.4 3-4.3 5-5.9.9-.7 1.8-1 3.2-.2-6.1 10.6-7.1 22.4-8.6 34.2m16.3-59c-4.1 2.2-8 4.7-12.2 6.6-5.3 2.4-10.6 5.1-15.8 7.8-5.9 3.1-11.8 6.1-17.8 9.2-.6.3-1 .2-1.6 0-4.2-1.5-7.4-4.7-11.4-6.6-1-.5-2.2-.8-3.2-1.4-4.1-2.5-8.1-5-12.2-7.6 4.3-1.9 8-4.5 11.7-7.2 1.4-1 3-1.7 4.6-2.3 3.5-1.3 6.7-3.2 9.9-5 5.7-3.3 11.3-6.5 17-9.7.5-.3 1.1-.6 1.5-1 1-1.1 2.1-1 3.3-.3-.8 1.1-.9 2.2-.4 3.4.4.8.5 1.7.8 2.5.9 2.8 3.6 3.6 5.9 1.6 1.8-1.5 2.8-3.6 3.5-5.8.6-2.1-.6-3.6-2.8-3.8-.3 0-.7-.1-1.1-.3 2.1-1 3.3-2.7 4.1-4.8 9.7 5.9 19.2 11.7 28.9 17.5-4.4 2.6-8.5 4.9-12.7 7.2m128.9 62.4-1.2-.6c-2.9-1.7-5.8-3.4-8.6-5.2-1-.6-1.8-1.3-2.8-1.8-2-.9-4-1.7-6-2.5-.3-.1-.6-.6-.5-.9.5-4.2 1-8.3 1.5-12.5.3-2.8.1-3.2-2.3-4.5-3-1.6-5.9-3.2-9-4.8-4.2-2.1-8.4-4.1-12.7-6.2-1-.5-2-.3-2.6.6-.3.5-.4 1.2-.5 1.8-.6 3.6-1.1 7.3-1.7 11.3-1.6-.9-3.1-1.6-4.4-2.5-.4-.2-.7-.9-.7-1.5-.1-2-.1-4-.2-6-.1-3.1-.4-6.1-.4-9.2 0-5.4.1-10.9.1-16.3 0-4.3 0-8.7.1-13 0-1.2.8-2.3.8-3.5.2-4.7.2-9.5.2-14.2 0-1.4-.6-2.3-1.8-3-1.6-.9-3.4-1.7-4.9-2.7-3.7-2.6-7.8-4.6-11.9-6.4-.7-.3-1.6-.4-2.3-.2-1.5.4-3 .9-4.4 1.6-3 1.6-6 3.4-9.1 4.9-2.3 1.1-4.7 2-7 3.1-.3.1-.6.7-.6 1 0 2.2.2 4.4.2 6.6.1 3.2.2 6.3.1 9.5-.2 5.5-.5 10.9-.9 16.4-.3 4.9-.9 9.8-1.1 14.7-.2 4.3-.1 8.5-.2 12.8 0 1.7-.3 3.4-.4 5.2-.9-.4-1.7-.7-2.3-1l-1.2 2.1c.8.4 1.5.8 2.2 1 1 .3 1.2.9 1.1 1.8-.1 2.1-.2 4.2-.1 6.3.1 3.3.4 6.5.6 9.8.1.8.2 1.5 1.1 2s1.8 1.2 2.7 1.7c3.4 2 6.8 4 10.2 5.9 1.4.8 2.9 1.3 4.3 2.1.3.2.8.5.8.8.1 1.2 0 2.4 0 3.9-1-1.2-1.7-2.3-2.5-3.1-2.5-2.3-5.7-2.5-8.9-2.2-1.6.2-2.8 1.7-2.8 3.4 0 1.8 0 3.6.1 5.4l.3 10.5c.1 1.5.9 2.5 2.1 3.1 2.1 1.1 4.4 2.1 6.6 3 .8.3 1 .7 1 1.5-.1 2-.1 4.1-.1 6.1v3.5c-1.1-.3-2-.5-2.9-.7-.3 0-.6.1-1 .2.2.2.4.6.6.7.8.3 1.6.5 2.4.8-1.2 2.1-3.9 2.8-5.3 5 1.6.2 2.3-.8 3.1-1.4 1-.6 1.8-1.3 2.7-2 .9 1.6-.3 3.7 1.1 5.4 1.1-1.9.1-3.8.5-5.5 1.6.9 3.1 1.8 4.7 2.6.4.2.9 0 1.4-.1-.2-.4-.5-.8-.8-1.1-.2-.2-.7-.3-1-.5-1.2-.8-2.5-1.6-3.9-2.5 1.3-.6 2.3-1.1 3.4-1.6-.1-.2-.1-.3-.2-.5-1.2.3-2.4.7-3.7 1.1v-2c.1-2.6.3-5.2.5-7.8 0-.3.4-.7.8-.8.8-.3 1.8-.4 2.6-.8 2.1-1 4.2-2.1 6.3-3.2 1.8-.8 2-2.7.5-3.9-.6-.5-1.3-.9-2.2-1.5.6-.2 1.1-.3 1.5-.5.5-.2 1.1-.4 1.5-.7s.8-.8.8-1.2c0-.3-.6-.8-1-.8-1-.1-2.1-.2-3 0-1.3.3-2.5.8-3.8 1.3.2-4.4.3-8.5.5-12.4 1-.1 2 0 2.8-.3 3.8-1.9 7.5-3.9 11.3-5.8.4-.2 1-.2 1.3 0 5.9 2.6 11.6 5.6 17.1 8.8 4.4 2.6 9.1 4.9 13.6 7.2.7.4 1.4.6 2.3.9v1.5c0 3.6.1 7.2 0 10.8-.1 4.7-.4 9.4-.6 14.1 0 .5.2 1.1.3 1.7 1.3-.5 2-1.2 1.9-2.6-.2-1.1 0-2.3.1-3.5l.6-15c0-2-.1-4.1-.2-6.1 0-.8.3-1.3 1-1.7 2.7-1.3 5.4-2.7 8-4.1 3.6-2 7.3-4 11-6v8.7c0 2-.3 4-.3 6 0 3.2 0 6.5.2 9.7 0 .4.5.7.8 1.1.4-.3.8-.6 1-1 .2-.3.1-.8.1-1.2v-6.8l.3-18.9c0-.4.3-.8.6-1.1 1.6-.2 1.6-1 .7-1.6m-45.8-21.7c.1-1.5.2-3 .4-4.5.5-3.6 1.1-7.3 1.6-10.9.1-.4.2-.8.4-1.3 3.5 1.4 6.8 2.9 9.9 4.8.8.5 1.6.9 2.4 1.4 1.1.5 2.3.9 3.4 1.5 2.4 1.2 4.7 2.5 7 3.7 1.3.6 1.7 1.4 1.5 2.9-.7 5.3-1.3 10.6-2 16.1-.7-.2-1.4-.4-2-.7-5.6-2.9-11.1-5.8-16.7-8.6l-4.8-2.4c-.7-.4-1.2-1-1.1-2m13.7 12.2c-.3.6-1.2.8-1.9 1.1-.9.5-1.7.5-2.6-.1-1.2-.8-2.6-1.4-4-2.1 2.6-1.6 2.6-1.6 3-4.7.8.2 1.5.5 1.9 1.4.2.4.9.7 1.4.8 2.3.1 3.4 1.7 2.2 3.6m-20.1-56.5c-.1 5.8-.7 11.6-1 17.3-.1 2.1-.1 4.2-.1 6.3.1 4.8.3 9.6.5 14.4 0 .3-.3.9-.6 1-1.3.8-2.6 1.5-3.9 2.3-1.6 1-3.2 2.2-4.9 3.2-2.1 1.2-4.3 2.2-6.5 3.4-.6.3-1.2.7-2.1 1.3v-9c-.1-5.8-.2-11.6-.2-17.4 0-4.1.2-8.2.2-12.3 0-4.2-.2-8.5-.1-12.7.1-4.3.3-8.5.6-12.8.1-.6.9-1.4 1.6-1.7 3.2-1.5 6.5-2.8 9.7-4.2 1.7-.8 3.4-1.8 5-2.7l1.4-.7v2.4c.2 7.4.5 14.7.4 21.9m-35.7-28c3.8-1.9 7.5-3.8 11.3-5.7 1.7-.8 3.5-1.5 5.2-2.3.3-.1.7-.1 1 0 3.3 1.5 6.5 3 9.5 5.2.6.4 1.3.6 1.9 1 1.1.5 2.1 1.1 3.2 1.6l2.7 1.5c.2.1.4.4.6.6-.2.1-.4.3-.6.4-2.4 1.2-4.7 2.3-7.1 3.4-2 .9-4 1.7-6 2.7-.9.5-1.8 1-2.6 1.7-1.1 1-2.3 1.1-3.4.1-2.9-2.5-6.2-4.2-9.6-5.9-2.5-1.2-4.9-2.4-7.6-3.8.6-.1 1-.3 1.5-.5m-3.2 36c.2-3.6.2-7.2.3-10.8 0-.3.1-.6.1-1.2.7.5 1.2 1 1.8 1.4 3.3 2.2 6.7 4.3 10.1 6.4 1 .7 2 1.4 3.1 2.1.6.3 1.2.5 1.8.8-2.1-1.6-4.2-3.1-6.3-4.7-3.4-2.6-6.8-5.2-10.1-7.8-.3-.2-.4-.7-.4-1 0-3.8 0-7.7-.1-11.5 0-1.8-.3-3.6-.4-5.4-.1-.9-.1-1.7-.2-2.9 3.2 1.6 6.1 3.2 9 4.7.8.4 1.7.8 2.5 1.2.9.4 1.7.8 2.5 1.3 1.4.9 2.7 2.1 4.2 2.9 1.1.6 1.2 1.4 1.2 2.4-.1 4.4-.1 8.9-.1 13.3v8.3c-.7-.3-1.2-.5-1.7-.8 0 .1.1.2.1.2 2 .9 1.8 2.6 1.7 4.3-.5 6.6-.8 13.2-.4 19.9v1.8c-1-.7-1.8-1.2-2.5-1.8-2.3-2.3-5.2-3.5-7.9-5.1-2.9-1.8-5.9-3.6-8.8-5.4-.3-.2-.4-.8-.3-1.2.2-3.8.6-7.6.8-11.4m-1.5 27.5c.2-4.1.2-8.2.4-12.3 0-.2 0-.5.1-1 1.1.6 2 1.1 3 1.7 4.1 2.4 8.2 4.9 12.3 7.3.6.4 1.2 1 1.9 1.3 2.3 1 2.7 2.8 2.6 5-.2 4-.2 8.1-.2 12.1 0 .8-.3 1.2-.9 1.7-1.3 1.2-2.5 1.1-4 .3-2.4-1.3-4.9-2.2-7.4-3.5s-5-2.6-7.5-4c-.3-.2-.6-.8-.6-1.3.1-2.5.3-4.9.3-7.3m18 22.7c-.2 3.4-.3 6.8-.5 10.5-2.1-1.1-4.1-2-6-3.1l-10.2-6c-.8-.4-1.1-.9-1.1-1.8-.1-3.8-.4-7.5-.6-11.2v-1.5c.6.3 1.1.6 1.5.8 4.3 2.9 8.9 5 13.6 7 .8.3 1.2 1.4 1.8 2.1.1.2.2.5.4.6 1.4.4 1.2 1.5 1.1 2.6m1.7 10.4c.1-3.4.3-6.8.4-10.2 0-.2.1-.5.1-.7h.4c.4 4.2.8 8.5 1.2 12.8-1.9-.1-2.2-.4-2.1-1.9m3.3.5c-.2-3.4-.4-6.7-.6-10.3 3.3 1.8 6.4 3.5 9.8 5.3-3.3 1.8-6.2 3.3-9.2 5m64.4.6c-2.3 1.4-4.6 2.9-7 4.2-1.5.9-3.1 1.6-4.7 2.3-2.5 1.2-4.9 2.4-7.5 3.5-.5.2-1.2.3-1.6.1-7.2-3.8-14.4-7.6-21.7-11.3-1.9-1-4-1.6-5.9-2.6-3.2-1.7-6.4-3.5-9.6-5.2-3-1.7-6.1-3.3-9.1-5-.7-.4-1.3-.8-1.9-1.2s-.6-1.3 0-1.7l12-7.2c1.7-1 3.2-2.1 4.9-3.2 1.6-1 3.2-2 4.9-3 .8-.5 1.4-.5 2.2.1s1.9.9 2.8 1.2c.7.3 1.2.6 1 1.5-.6 2.6.1 4.5 2.9 5.4 1.5.5 2.9 1.5 4.3 2.3.6.3.8.6.7 1.2-.1.5.1 1-.1 1.4-.1.4-.4.9-.7 1.2-.5.4-1 .6-1.5.9-.9.6-.9 1 0 1.5 1.5.9 3.1 1.8 4.7 2.6.5.2 1.2 0 1.8-.1 1.8-.4 3.2-1.2 3.1-3.4 0-.3.2-.5.2-.8 2.7 1.3 5.2 2.5 7.7 3.8.9.4 1.8.8 2.7.1.4-.3.7-.8 1.2-1.4.4.1.8.3 1.3.5 3.9 1.3 7.2 3.7 10.6 6 2 1.4 4.2 2.5 6.4 3.7-1.3.8-2.7 1.8-4.1 2.6"/><path d="M291.2 324c-1.1-.6-2.4-1.2-3.7-.6-1.4.6-2.7 1.3-3.9 2.3-4.7 3.9-9.6 7.6-13.7 12.2-.5.5-1.2.8-.9 1.8.1.3-.5.8-.8 1.1-.4.4-1 .7-1.4 1.1-1.6 1.8-3.1 3.6-4.5 5.3.2-1.6-.1-3.4 1.3-5 2.2-2.5 3.7-5.6 3.7-9 0-2.9-1.4-5.2-4-6.5-2.4-1.2-4.8-1.3-6.9.6-1.7-.7-3.3-1.6-5-1.9-1.6-.3-3.5-.5-5-.1-2.3.7-3.6 3.2-3.2 5.8.5 3.7 2 7.1 4.2 10.2q.3.45.9 1.2c-4.4-.9-8.2.2-11.8 1.9-1.4.7-2.4 1.8-2.6 3.4-.1 1.5.8 2.5 2.1 3.3l3.9 2.1c1.6.8 3.2 1.4 4.7 2-1.9.5-4.1.9-6.1 1.5-4.7 1.5-8.4 4.3-10.4 8.9-1.1 2.6-2.1 5.3-3 8q-1.05 3.6-1.8 7.2c-.5 2.5.5 4.1 2.7 5 .6.2 1.3.5 2 .5 6.8.3 13.6 1.2 20.1-1.4.6-.2 1.3-.3 1.9-.4-2.4 1.5-4.7 3.2-6.9 4.8-1.1.8-1.1.9 0 1.5 2.7 1.5 5.4 2.8 8 4.2 3.4 1.9 6.8 3.9 10.1 5.8 1.5.9 2.9 1.4 4.7.4 3.7-2.2 7.5-4.1 11.3-6.2 2.2-1.3 4.4-2.7 6.6-4 .5-.3 1-.4 1.7-.6-.3-.2-.6-.3-.9-.5-1.2-.6-2.4-1.2-3.6-1.9-2.6-1.5-5.1-3.2-7.7-4.7-.2-.2-.7-.4-.6-.6.1-1.3.3-2.6.5-3.9.1 0 .2 0 .3-.1 1.6 2.3 4.1 3.1 6.4 4.3 2.8 1.5 5.7.3 6.6-2.7q.45-1.5.6-3c.2-3.5.3-6.9.4-10.4 0-3.7-.3-7.3-2-10.7-2.4-4.7-6.1-7.4-11.3-8.3-3-.6-7.7 2-8.7 4.6l1.2-1.2c1.1-1.1 2.4-1.8 3.9-1.9 6.2-.2 10.7 2.9 12.8 8.7.9 2.5 1.1 5.1 1.2 7.8.2 4.3.1 8.6-.6 12.9-.4 2.4-1.4 2.8-3.5 1.7-4.6-2.5-8.3-6-11.2-10.4-.9-1.4-1.8-2.9-2.9-4.3-1.9-2.5-3-5.2-2.5-8.5.1-.9.5-1.9.6-2.8 0-.5-.3-1-.5-1.5-.4.3-1.1.6-1.3 1.1-1.6 4-1.4 8 .8 11.6 2.1 3.5 4.7 6.8 7 10.1.2.3.5.8.4 1.1-.7 2-1.8 3.8-4 4.7-4.1 1.8-8.1 1.1-12.3-.5.9-1.1 1.6-2.1 2.5-3 .4-.3 1.1-.4 1.6-.4.9-.1 1.8.1 2.7 0 2.4-.3 4.7-1.2 6.7-2.5.3-.2.3-.8.4-1.2-.4-.1-.9-.2-1.3-.2-.2 0-.4.2-.6.3q-3 1.65-6.3 2.1c-.5.1-1-.1-1.6-.1.3-.9.6-1.5.9-2.2 1.1-3.1 1.5-6.2.6-9.5-.2-.8-.2-1.7 0-2.5.3-1.6 1-3.1 1.2-4.7.4-2.8.5-5.7.8-8.4 1.7-.4 1.9-2 2.8-3 .9-1.1 1.9-2.2 2.9-3.4.7 1.8 1.3 2.1 2.9 1.8.6-.1 1.1-.3 1.7-.6 2.1-.8 4.2-1.7 6.3-2.5 2.9-1.1 5.8-2.3 7.9-4.8.8-.9 1.6-1.8 2.2-2.8 1.1-1.9 2.2-3.8 3.1-5.8.8-1.6.3-3.1-.8-3.7m-47.4 28.8c-2.4-1.1-4.7-2.4-7-3.6-1.3-.7-1.5-1.5-.6-2.6.4-.5 1.1-1 1.7-1.2 3-1.1 6.1-1.9 9.4-1.4.6.1 1.2-.2 2-.4 1.8 1.3 3.1 3.6 5.7 4.1.1.1.1.1.1.2 0 1.1.3 2.5-.2 3.2s-1.9.6-2.9.9c-1.7.5-3.3 1.1-5 1.4-1.1 0-2.3-.2-3.2-.6m28.6 32.2c3.2 1.8 6.4 3.5 9.6 5.2-1.1.7-2.2 1.4-3.2 2.2-4.3 3.4-9.6 5-14.2 7.7-.3.2-.9.1-1.3-.1-3.2-1.8-6.3-3.6-9.5-5.4-3.1-1.7-6.2-3.3-9.6-5.1 2.9-1.6 5.8-3.2 8.9-4.9q.3 1.8.6 3.3c.2 1.2.6 2.3.9 3.5.4 1.5 1.3 2.5 2.8 3.3 3.9 1.9 7.6 1.8 11.3-.5 1.7-1.1 3-2.5 3-4.8 0-1.5.4-2.9.7-4.4m-17.8-1.7c6.2 2.3 11.9 2.3 16.7-3.3-.1 1.1-.1 2-.3 3-.4 2.7-.8 5.5-1.2 8.2 0 .2-.1.6-.3.7-1.5 1-2.9 2-4.9 2s-3.9-.1-5.8-.8-3-1.9-3.3-4c-.2-1.8-.7-3.5-1-5.3.1-.1.1-.3.1-.5m5.4-22.5c-.8-3.2-1.2-6.5-2.4-9.6-.2 0-.3 0-.5.1 0 .4-.1.8 0 1.1.5 2.7 1.2 5.4 1.7 8.1.2.9.5 1.8-.2 2.8-.2.3-.1 1 .1 1.5.7 2.8.7 5.5-.7 8.1-.3.6-.9 1.1-1.3 1.6-.9 1-1.8 2-2.7 2.9-1.8 1.7-3.4 3.5-5.4 4.8-1.6 1.1-3.6 1.8-5.5 2-4.5.5-9.1.6-13.6.8-.7 0-1.5-.2-2.2-.4-1.8-.5-2.6-1.7-2.2-3.6.7-4 1.5-8 3.7-11.6 1.5-2.4 2.9-5.1 4.8-7.1 2.8-2.8 6.4-4.6 10.4-4.9 3.2-.2 6.5-.2 9.4 1.5.9.6 1.7 1.4 2.6 2.1.2.2.4.5.7.7.4.2.8.3 1.2.5 0-.4.2-.9.1-1.3-.8-2.2-2.5-3.5-4.6-4.2-1.8-.6-3.6-1.1-5.7-1.7 2.7-1 5-1.9 7.5-2.7 1-.3 1.8-1.2 1.6-2.3q-.15-1.05-.6-2.4c2.4 0 4-1.6 5.9-3.3-.8 5.7-1.5 11.1-2.1 16.5m2-20.3c-1.1 1.4-2.4 2.6-3.8 3.8-1.5 1.2-2.8 1.1-4.2-.1-4.3-3.7-7.8-7.9-8.6-13.8-.4-2.6 1.9-4.6 4.4-4 1.9.5 3.8 1.3 5.6 2 .7.3 1.3.8 2.1-.2.5-.6 1.7-.6 2.6-.7 2.2-.2 5.4 1.9 5.2 5 0 3-1.4 5.6-3.3 8m28.2-12.8c-1.3 3.6-3.5 6.8-6.4 9.1-2 1.6-4.7 2.2-7.2 3.2l-6.6 2.7c-.1 0-.3 0-.9.1.4-.7.7-1.2.9-1.7.2-.6.4-1.2.7-1.9.1-.2.1-.4.3-.6 4-4 7.9-8.2 12.6-11.3 1.4-.9 3-1.5 4.6-2 .5-.2 1.5 0 1.8.4s.4 1.4.2 2m-204.8 29c-.1-1.2-.2-1.2-1.2-.6-1.2.7-2.4 1.4-3.6 2.2 0-3.9-.1-7.6 0-11.2.1-3 .5-6 .5-9 0-5-.2-10.1-.4-15.1-.1-3.6-.4-7.3-.6-10.9-.3-4.4-.5-8.8-.8-13.1-.1-2-.3-3.9-.5-5.9-.2-2.4-.6-4.8-.7-7.1-.1-2.7-.1-5.3-.1-8-.1-6.6-.2-13.2-.1-19.8 0-5.6.3-11.2.5-16.7 0-.8.3-1.5.4-2.3 0-.3 0-.7-.1-1.1-.4.1-.8.1-1.1.3-.8.5-1.5 1.2-2.4 1.6-2 .9-4 1.7-6.1 2.5-1.7.7-3.4 1.5-5.1 1.9q-3.15.75-5.7 2.7c-2.1 1.7-4.1 3.4-6.3 4.8-3.1 2.1-6.3 4-9.5 6-2.1 1.3-4.2 2.5-6.1 4-1.2.9-2.2 2.1-3.1 3.3-1 1.5-.7 3.3-.6 5 0 1.9.2 3.8 0 5.7-.2 3.6-.7 7.2-.9 10.8-.2 3.9 0 7.9 0 11.8 0 1.2.1 2.5 0 3.7-.1 2-.4 4-.3 6.1.1 4.5.3 9 .5 13.5s.4 8.9.6 13.4c.1 2.5.2 5.1.2 7.6 0 3.9-.1 7.8.6 11.7.8 4.7 1.3 9.3 1.8 14 .4 5 .6 10.1.9 15.2 0 .3-.3.8-.6 1-1 .6-2 1.1-3 1.6 1.8-.4 3.5-.8 5-1.5 2.3-1.1 4.4-2.5 6.6-3.8 3.3-1.9 6.5-3.9 9.8-5.8 2.3-1.3 4.6-2.9 7.2-3.6 5.3-1.4 9.8-4.2 14.5-6.9 2.8-1.6 5.5-3.2 8.3-4.8.9-.5 1.7-1 2.4-1.4-.5-.7-.8-1.2-.9-1.8m-6.2 1.3c0 1.7-1.4 2-2.4 2.6-3.8 2.4-7.7 4.6-11.5 6.8-3.3 2-6.7 3.9-10 5.8-2.2 1.3-4.5 2.6-6.8 3.9-3.5 2-6.9 3.9-10.6 6-.1-2-.1-3.7-.4-5.4-.8-5.5-.3-11.1-.8-16.6-.3-3.9-1-7.7-1.3-11.5-.3-4-.8-8-.4-12 .2-1.7-.3-3.6-.4-5.4s0-3.5-.1-5.3c-.1-1.9-.4-3.8-.5-5.7-.1-3.1-.1-6.1-.2-9.2-.1-2.5-.3-5-.3-7.5v-7.8c0-4.3-.1-8.6-.1-12.9 0-1.5.2-3 .5-4.5.7-3.6.2-7.2 0-10.9-.1-.8-.2-1.5-.2-2.2 0-.2.2-.5.4-.6 1-.5 1.9-1.1 2.5-2.1.2-.4.8-.7 1.2-.9.7-.4 1.5-.7 2.2-1.1 3.9-2.1 7.8-4.2 11.6-6.4 3.1-1.7 6-3.9 8.6-6.4 1.4-1.3 3-1.9 4.7-2.4 4.4-1.3 8.3-3.5 12.5-5.8v2.5l-.3 11.7c-.1 4.4-.3 8.9-.3 13.3-.1 5.1.1 10.1-.1 15.2-.2 3.8.6 7.4 1.2 11 .4 2.2.1 4.3.2 6.5.3 4.5.4 9.1.5 13.6.3 7.2.6 14.4.7 21.6.2 7.4-.1 14.8-.1 22.1m124.5 71.3c-.1-.1-.4-.1-.6-.1-2.7-.4-5.3-.8-8-1.1-2.3-.3-4.6-.5-7-.7.1-1.5.2-3.2.3-4.9.1-2.8 1-5.6.4-8.4-.3-1.5-.5-3.1-1.3-4.5-1.2-2.3-4.1-2.8-6.6-1.5-1.2.6-2.4 1.2-3.7 1.8-.8.4-1.5.7-2.2 1.1-2.2 1.6-4.4 3.2-6.7 4.8s-4.6 3.1-7 4.6c-.3.2-.7.3-1 .2-2-.7-4-1.4-6-2s-4-1.1-6-1.6c-.5-.1-1.3.2-1.5.5-.5.7-.1 1.4.6 1.8.6.3 1.2.6 1.8.8 3 .9 6 1.8 9.1 2.8-.6.8-1.2 1.6-1.8 2.3-1.4 1.5-.2 2.7 1.2 3s2.9.3 4.4.5c1.6.2 3.1.3 4.8.5-.3.5-.4.9-.6 1.2-2 2.7-3.8 5.5-4.9 8.7-.2.5-.7.8-.9 1.3-.5 1.1-1.4 2.4-1.3 3.5.4 3.4 5.1 5.4 8 3.4.9-.6 1.8-1.4 2.3-2.4 2-3.1 3.8-6.2 5.6-9.4.7-1.2 1-1.3 1.9-.2 1 1.1 1.8 2.4 2.8 3.6 1 1.3 2.2 2.5 4 2.5.6 0 1.6-.4 1.7-.9.6-1.8.9-3.8 1.3-5.7.4-1.8.7-3.6 1-5.4 1.4.3 2.7.6 4 .8l10.5 1.5c.3 0 .7.2.9.1.5-.3 1-.7 1.5-1-.2-.6-.6-1-1-1.5m-17.1-17c-.6 4.3-1 8.6-1.7 12.9-.5 3.5-1.2 7-1.8 10.5-.1.5-.2.9-.3 1.5-.2-.2-.4-.3-.6-.4-1.2-1.6-2.4-3.2-3.7-4.8-.2-.2-.5-.5-.6-.5-1.7.4-3.8-.1-5 1.8l-5.1 7.8c-.8 1.3-1.5 2.8-2.4 4.1-.2.3-.7.6-1.1.5-.5 0-1-.3-1.5-.5-1.7-.9-1.7-1.1-.3-2.4l.5-.5c1.3-2 2.7-4 3.8-6.1 1.2-2.2 2-4.5 3-6.7.3-.7 0-1.3-.7-1.6-.8-.3-1.6-.7-2.5-.8-2.3-.3-4.6-.5-6.9-.7-.3 0-.5-.1-1-.1.3-.3.3-.5.5-.6 3.7-2.6 7.3-5.1 11-7.6 3.1-2.1 6.3-4.2 9.5-6.2 1.3-.8 2.8-1.3 4.3-1.8 1.8-.6 2.9.6 2.6 2.2M216.1 231c-.3-1.7-.8-3.4-.9-5.1-.1-6.3 0-12.5 0-18.8h-.2c0-1.3.1-2.6 0-4-.1-2-.3-4.1-.5-6.1-.1-1-.9-1.4-1.9-1.1-.9.2-1.8.5-2.6.8-7.1 3.1-14.3 6.2-21.4 9.4-5 2.3-9.9 4.8-14.9 7.1-3 1.4-6.3 2.3-9 4.3-1.3 1-2.2 2.1-2.2 3.7 0 2.9.1 5.8.2 8.6.1 3.3.5 6.6.5 9.9 0 5.7.1 11.4.8 17.1.2 1.3 1.3 2 2.5 1.5 1.5-.5 2.9-1.1 4.3-1.7 6.5-3.1 13-6.2 19.5-9.4 5.8-2.9 11.2-6.5 17.2-9.2 2.5-1.1 4.8-2.6 7.2-4 1-.5 1.7-1.5 1.4-3m-4.5 2.9c-2.9 1.5-5.9 2.8-8.8 4.3-3.7 1.9-7.4 4-11.1 5.9-4.6 2.4-9.2 4.7-13.9 7-3.1 1.6-6.3 3-9.5 4.6-1.6.8-2.3.4-2.4-1.4-.2-3.2-.2-6.4-.4-9.6-.3-5.9-.6-11.7-.8-17.6-.1-1.8-.1-3.7-.1-5.5 0-1.1.4-1.9 1.4-2.4 2-1 4.1-2.1 6.1-3 3.6-1.7 7.3-3.3 10.9-4.9 6.4-2.9 12.8-5.9 19.2-8.8 2.6-1.2 5.2-2.3 7.8-3.5 1.4-.6 2-.4 2.1 1.2.2 5.5.5 11 .7 17.7v9.6c0 1.1.2 2.2.3 3.2.3 1.6 0 2.4-1.5 3.2M401 408.1c-2.4 1.2-4.9 2.2-7.4 3.3-1.8.8-3.6 1.6-5.5 2.3-1 .4-2 .7-2.8 1-1.1-.1-1.3-.4-.9-1.2.6-1.3 1.8-1.9 2.9-2.4 4.2-1.8 8.5-3.4 12.7-5.1.8-.3 1.8-.7 2.2.3.5 1-.6 1.5-1.2 1.8m-142.2 27.7c-1.8.1-3.6 0-5.4 0v.3h-7.6c-1.2 0-2.5 0-3.7-.2-.4-.1-.8-.6-1.2-.9.4-.5.7-1 1.2-1.3.2-.2.6-.1.9-.1 2.7.1 5.4.3 8.1.3 2.5 0 4.9-.2 7.4-.4 1-.1 2.1-.1 2.3.9.1 1.3-1.2 1.4-2 1.4m-149.4-90.6c-5.4 3-10.7 6-16.2 9-.2-.7-.5-1.5-.7-2.2 0-.2.4-.6.7-.7 2.5-1.4 4.9-2.8 7.4-4.2 1.8-1 3.7-2.1 5.5-3.1l1.2-.6c-.1 1.5.2 1.7 2.1 1.8m146.1-142.3c-1.2-.1-2.2-.1-3.2-.2v-6.5c0-1.8-.1-3.6 0-5.4 0-.5.4-1.1.7-1.4.2-.1.8.4 1.3.6.1-.1.3-.3.7-.8.2.9.5 1.5.5 2.1zm63.1 227.3c-.8.3-1.7.4-2.6.5-3.2.4-6.5.9-9.7 1.3-.2 0-.5 0-.7.1-.3 0-.6.1-.8 0-.5-.4-1.2-.7-1.3-1.2-.2-.8.5-1.1 1.2-1.2l6.3-.9c1.8-.2 3.7-.4 5.6-.6.6-.1 1.2-.2 1.8 0 .5.2 1.1.6 1.2 1.1 0 0-.6.7-1 .9m-63.4-265.6V175c0 .2-.1.3-.1.5-1 .1-2 .2-3.2.3v-4.2c0-2 .1-3.9.1-5.9v-.6c.1-1.4.7-1.8 2.1-1 .2-.3.4-.5.7-.9.2.6.4 1 .4 1.4m-.5 49.5-.6 10.2c0 .8-.2 1.6-.2 2.3h-2.1v-14.3c.5.3 1 .5 1.4.8.1-.2.3-.5.4-.6 1.2-.1 1.1.7 1.1 1.6m91.7 211.1c-.4.2-.9.2-1.4.2-4 .6-8.1 1.3-12.1 1.9-.2 0-.4 0-.7.1-.3-.1-.8-.1-1.1-.3s-.5-.7-.5-1c.1-.3.5-.8.8-.8 4.9-.7 9.8-1.4 14.8-2.1.5-.1 1.5.2 1.6.6.1.8-.7 1.2-1.4 1.4m-231.1-18.9c-.1.4-.7.6-1.2.9-.7-.3-1.3-.6-1.9-.9-1.7-.9-3.4-1.8-5.1-2.8s-3.3-2.1-4.9-3.1c-.8-.5-.7-1.4-.3-2 .1-.2 1.1-.2 1.5 0 1.5.8 2.9 1.7 4.3 2.5 1.8 1 3.5 2 5.3 3 .6.4 1.3.7 1.8 1.2.3.2.6.9.5 1.2m17.5-74.7c-4 2.5-8 4.9-12.4 7.6-.1-.7-.2-1.2-.3-1.7-.3 0-.7.1-1.2.1-.1-.1-.1-.2-.2-.3 1.1-.7 2.1-1.5 3.2-2.1 3.1-1.9 6.3-3.7 9.5-5.5l1.2-.6c0 .9-.1 1.6-.1 2.3 0 .1.1.2.3.2m97.7 102.2c-.4.3-.9.7-1.3.9-.3.1-.8 0-1.2 0v.1c-3.9-.5-7.8-.9-11.8-1.4-.8-.1-1.4-.4-1.3-1.4.1-1.1.9-1.1 1.7-1 3.3.4 6.7.8 10 1.2.9.1 1.9.1 2.8.4.4.2.7.8 1.1 1.2M138.8 414c-.5.3-.9.7-1.5.8-.3.1-.8-.1-1.1-.2-3.7-1.4-7.4-2.9-11-4.3-.4-.1-.9-.3-1.2-.6-.3-.4-.5-.9-.5-1.4 0-.2.6-.4.9-.6.6.2 1 .2 1.3.4 3.8 1.4 7.5 2.8 11.3 4.2.3.1.7.2.9.5.4.3.6.7.9 1.2m151.6 19.9c0 1.2-1.1 1-2 1-2.4.1-4.8.3-7.3.4-2.5 0-5-.1-7.5-.2-.4 0-.7-.5-1.1-.7.4-.3.7-.8 1-.9 1-.1 2 0 3 0v.1c4-.2 8-.4 11.9-.6.9-.1 2-.2 2 .9M77.3 381.2c-.9-.3-2-.3-2.6-.8-2.2-1.7-4.4-3.5-6.5-5.3-.3-.3-.8-.6-.9-.9-.2-.5-.3-1.2-.1-1.5s1.2-.4 1.5-.2c2.3 1.6 4.5 3.3 6.7 5.1 1 .7 2.1 1.6 1.9 3.6m343.4 16.9c-.1.2-.3.3-.5.4-3.1 1.6-6.1 3.3-9.2 4.8-.7.4-1.5.6-2.4.9-.3-.2-.9-.4-1-.7-.1-.4.1-.9.3-1.3.1-.2.5-.4.8-.5 3-1.5 6-2.9 9.1-4.4.7-.3 1.5-.5 2.3-.7.3 0 .9.2.9.3.1.4-.1.8-.3 1.2m16.9-10.9c-1 1-2.2 1.8-3.3 2.7-.9.7-1.9 1.4-2.9 2.1-.9.6-1.9 1.1-2.9 1.6-.8.5-1.5 0-1.5-.9 0-1 .5-1.4 1.4-1.6.5-.1 1-.4 1.5-.7 1-.7 2-1.5 2.9-2.3.8-.7 1.6-1.4 2.4-2.2.3-.2.6-.6 1-.6.6 0 1.3 0 1.7.4.2.2 0 1.2-.3 1.5M255.5 140.3c0 2.9-.2 5.9-.2 8.8 0 .3-.2.6-.3.8-.2-.1-.5-.3-.7-.4-.6-.2-1.2-.3-2.1-.5.1-.7.2-1.7.2-2.7.1-2.1.1-4.2.2-6.3.1-1.1.4-1.2 1.3-.6.2.2.7-.1 1.3-.1.1.2.4.6.3 1M94.4 393c0 .2-.5.5-.8.7-.5-.2-1-.3-1.3-.5-1.4-.8-2.7-1.7-4-2.5-1.7-1.1-3.3-2.1-5-3.2-.7-.5-1.6-1.2-1-2.1.7-.9 1.6-.1 2.2.3 3.1 2 6.2 4.1 9.2 6.2.4.1.6.7.7 1.1m327.5-39.1c-.6.5-1.1.9-1.6 1.4-3.8-2.6-7.5-5.2-11.4-7.9.2-.1.6-.1.6-.2.4-1.9 1.3-.9 2.1-.4 3.4 2.3 6.8 4.7 10.3 7.1m45 28.7c-.5.2-1.1.6-1.7.8-.4.1-1 0-1.4-.2l-10.8-6.3c-.1-.1-.2-.2-.3-.4.4-.4.7-.8 1-1.2 4.4 2.5 8.9 5 13.2 7.3M255.3 120v10.5c-.6.1-1.2.3-1.8.3-.3 0-.8-.4-.8-.6 0-3.4.1-6.9.2-10.3 0-.2.2-.4.3-.5.8.2 1.3.4 2.1.6m120.3 296.8c-.3.4-.6.9-1 1.1-1.9.6-3.9 1.1-5.9 1.7-2.7.8-5.5 1.7-8.2 2.5-.5.2-1.1 0-1.7 0-.1-.2-.1-.4-.2-.5.5-.3.9-.6 1.4-.8 2.1-.8 4.3-1.5 6.4-2.2 1.9-.6 3.9-1.3 5.8-1.9.6-.2 1.2-.5 1.8-.5.7 0 1.2.4 1.6.6m66-47.5c-4.5-2.3-8.5-5.1-12.7-8 1.1-1.2 1.8-1.1 2.8-.3 2.7 2 5.5 3.8 8.3 5.7.7.4 1.5.7 1.2 1.8 0 .2.3.5.4.8m7.4 8.9c-1.6 1.3-3.3 2.6-5 3.9-.2.2-.6.2-1 .4-.4-.3-1-.5-1.1-.9-.1-.3.2-.9.5-1.2 1.4-1.4 2.8-2.7 4.2-4 .2-.2.4-.4.6-.5 1.1-.7 2.1-.6 2.6.1.7 1-.1 1.7-.8 2.2M255 108c0 .2-.1.3-.1.4-.6.1-1.1.2-1.8.3V95.9c1.2.2 1.9.6 1.8 1.9.1 3.4.1 6.8.1 10.2m144.2 231.1c-.2.6-.4 1.1-.7 1.8-3.3-2-6.6-4.1-9.8-6 .2-.8.4-1.3.6-2 3.3 2.1 6.6 4.1 9.9 6.2M254.9 82.7c0 1.3-.1 1.3-1.6 2.1v-8.6c.5-.1.9-.2 1.4-.3.1.4.2.8.2 1.2zm-.2-20.1h-1V51.8c.2 0 .3 0 .5-.1.1.4.3.9.4 1.3.1 2.3.1 4.7.1 7zm231.2 331.8c0 .1-.1.1-.1.2.3.2.5.5.8.8-.1.1-.1.2-.2.3-3.6-2.2-7.1-4.7-10.2-7.8 1 .7 2 1.3 2.9 2 .8.6 1.6 1.3 2.4 2 .4.3.8.9 1.4.3 0 0 .2 0 .3.1 1.9 1.1 3.8 2.2 5.7 3.2 0 .1-.1.2-.1.2-1-.3-2-.8-2.9-1.3"/><path d="M251.3 236.8c-.8 1.1-.9 2.2-.4 3.4.4.8.5 1.7.8 2.5.9 2.8 3.6 3.6 5.9 1.6 1.8-1.5 2.8-3.6 3.5-5.8.6-2.1-.6-3.6-2.8-3.8-.3 0-.7-.1-1.1-.3 2.1-1 3.3-2.7 4.1-4.8 9.7 5.9 19.2 11.7 28.9 17.5-4.4 2.4-8.5 4.8-12.6 7.1-4.1 2.2-8 4.7-12.2 6.6-5.3 2.4-10.6 5.1-15.8 7.8-5.9 3.1-11.8 6.1-17.8 9.2-.6.3-1 .2-1.6 0-4.2-1.5-7.4-4.7-11.4-6.6-1-.5-2.2-.8-3.2-1.4-4.1-2.5-8.1-5-12.2-7.6 4.3-1.9 8-4.5 11.7-7.2 1.4-1 3-1.7 4.6-2.3 3.5-1.3 6.7-3.2 9.9-5 5.7-3.3 11.3-6.5 17-9.7.5-.3 1.1-.6 1.5-1 .9-.9 2-.8 3.2-.2m-22 42.5c-1.7-1-3.5-2-5.1-3.1-2.6-1.8-5.4-3.4-8.4-4.5-1.5-.6-2.9-1.5-4.2-2.5-1.7-1.1-3.2-2.4-4.9-3.6-.8-.6-1.8-.9-2.5-1.6-1.3-1.2-2.8-.7-4-.3-2.3.8-4.5 1.9-6.7 2.9-1.1.5-2.1 1.1-3.1 1.7-1.2.8-2.2 1.7-3.4 2.4-5.7 3.3-11.4 6.5-17.1 9.8-3.2 1.8-6.4 3.7-9.9 5-1.7.7-3.4 1.6-4.9 2.6-2.5 1.6-4.9 3.3-7.4 4.9-1.5.9-3.1 1.6-4.8 2.5.5.3.8.6 1.2.8 1.7 1 3.4 2.1 5.1 3.1 3.9 2.2 7.8 4.5 11.8 6.6 3.3 1.7 6.6 3.3 10 4.8.3.1.8 0 1.2-.2 5.9-3 11.8-6.1 17.7-9.1 4.8-2.5 9.6-5.1 14.6-7.3 4.2-1.8 8.1-4.4 12.1-6.6 4.6-2.5 9.2-5 14-7.7-.7-.2-1-.4-1.3-.6m-31.5 7.3c-2.7 1.4-5.3 2.8-8.1 4.1-.6.3-1.7.1-2.4-.2-2.1-.9-4.1-1.9-6.1-3-.5-.3-1.1-.9-1.3-1.5-.8-2.5-1.3-5-2-7.5-.5-1.6.4-2.6 1.5-3.2 2.8-1.6 5.7-3 8.6-4.4.6-.3 1.2-.7 2-1.2.5 1.3 1 2.4 1.3 3.6.6 2.1.9 4.2 1.5 6.3.2.7 1 1.3 1.6 1.7 1.5.9 3 1.6 4.5 2.5.5.3.9.6 1.5 1.1-.8.6-1.7 1.2-2.6 1.7m72-7.4c-6.1 10.6-7.1 22.4-8.6 34.2l-.6-2.1c-.9-2.9-2-5.8-2.6-8.7-1.2-5.2-.5-10.2 2.3-14.7.5-.8 1-1.6 1.4-2.5 1.2-2.3 3-4.3 5-5.9.8-.7 1.8-1 3.1-.3" class="st9"/><path d="M256.1 236.2c-.6-.1-1.1-.1-1.9-.2-.2-.6-.5-1.3-.7-2 .1-.1.2-.1.3-.2.5.5.9 1.1 1.4 1.6.4-.2.8-.4 1.4-.6-.2.5-.3.8-.5 1.3.6 0 1.1 0 1.6-.1 1-.2 1.9 0 2.5.9s.5 1.8-.2 2.6c-1.1 1.4-2.2 2.7-3.3 4-2.7-2-3-5.2-.7-6.9.1-.2.1-.3.1-.4m.3-4.7c-.7-3.9 1.8-7.4 5.9-8.2.1 2.2-.9 3.9-1.8 5.7-.7 1.6-2.5 1.9-4.1 2.5m-4.2 2.2c-.8.4-1.6.8-2.3 1.1-.8.3-2.6-.7-2.8-1.5s.4-1.2 1-1.4c1.6-.4 3.1.2 4.1 1.8" class="st9"/><path d="M255.6 244.6c-1.7.3-2.1.1-2.6-1.6-.3-.8-.5-1.6-.5-2.6 1.1 1.4 2.1 2.8 3.1 4.2" class="st3"/><path d="M253.7 236.3c-1-.3-2-.7-3-1 1.7-1.4 2.6-1.1 3 1m2.7-2.2c-.5-2.5 1.5-1.8 2.3-2.5.1.1.1.2.2.2-.8.7-1.6 1.4-2.5 2.3m142.6 80c-3.4-2.3-6.7-4.7-10.6-6-.5-.2-1-.3-1.3-.5-.5.5-.7 1-1.2 1.4-.9.7-1.8.3-2.7-.1-2.6-1.2-5.1-2.5-7.7-3.8-.1.3-.2.5-.2.8 0 2.1-1.3 3-3.1 3.4-.6.1-1.3.3-1.8.1-1.6-.8-3.2-1.7-4.7-2.6-.9-.6-.9-1 0-1.5.5-.3 1.1-.5 1.5-.9.3-.3.6-.7.7-1.2s0-1 .1-1.4c.1-.6-.1-.9-.7-1.2-1.5-.7-2.8-1.8-4.3-2.3-2.8-.9-3.5-2.8-2.9-5.4.2-.9-.2-1.2-1-1.5-1-.3-2-.6-2.8-1.2s-1.5-.6-2.2-.1c-1.6 1-3.3 2-4.9 3s-3.2 2.2-4.9 3.2l-12 7.2c-.6.4-.6 1.3 0 1.7s1.2.9 1.9 1.2c3 1.7 6.1 3.3 9.1 5 3.2 1.8 6.3 3.6 9.6 5.2 1.9 1 4 1.6 5.9 2.6 7.2 3.7 14.4 7.6 21.7 11.3.4.2 1.1.1 1.6-.1 2.5-1.1 5-2.3 7.5-3.5 1.6-.8 3.2-1.5 4.7-2.3 2.3-1.3 4.7-2.8 7-4.2 1.4-.9 2.9-1.8 4.2-2.7-2.3-1.1-4.5-2.2-6.5-3.6m-44.1-6.9c-1.2-.7-2.5-1.4-3.6-2.2-.2-.1-.2-.9-.1-1.2q.45-.75 1.2-1.2c.5-.2 1.2-.4 1.7-.2 1.2.5 2.3 1.1 3.4 1.7.9.5.9 1 0 1.6-.6.4-1.2.7-1.8 1.1 0-.1-.1-.1-.1-.2.7-.6 1.3-1.2 2-2-1.3-.7-2.5-1.3-3.8-1.9-.3-.1-.8 0-1 .2-.5.4-1 .8-1.6 1.3 1.4.9 2.6 1.7 3.8 2.5 0 .3 0 .4-.1.5M367 316c1.4-.9 2.8-1.8 4.3-2.9-1.1-.7-2-1.2-2.9-1.7-2.4-1.4-4.9-2.8-7.2-4.2-.6-.4-1.1-.3-1.6.2-.9 1-1.8 2.1-2.7 3.1 2.9 1.8 6 3.7 9.1 5.7-.1.1-.1.2-.2.3-3.4-1.9-6.8-3.9-10.2-5.8v-.5c1.5-1.3 3-2.7 4.5-4 .2-.1.8 0 1 .2 3.6 2.2 7.2 4.3 10.8 6.5-.9 2.4-3.3 2.2-4.9 3.1" class="st9"/><path d="M335.6 300.1v-9c-.1-5.8-.2-11.6-.2-17.4 0-4.1.2-8.2.2-12.3 0-4.2-.2-8.5-.1-12.7.1-4.3.3-8.5.6-12.8 0-.6.9-1.4 1.6-1.7 3.2-1.5 6.5-2.7 9.6-4.2 1.7-.8 3.4-1.8 5.1-2.7l1.4-.7v2.4c.1 7.3.4 14.5.3 21.8-.1 5.8-.7 11.6-1 17.3-.1 2.1-.1 4.2-.1 6.3.1 4.8.3 9.6.5 14.4 0 .4-.3.9-.6 1.1-1.3.8-2.6 1.5-3.9 2.3-1.7 1-3.2 2.2-4.9 3.2-2.1 1.2-4.3 2.2-6.5 3.4-.5.3-1.1.7-2 1.3m-3-42.3s-.1-.1-.1-.2c-.6-.3-1.3-.5-1.8-.8-1-.6-2-1.4-3.1-2.1-3.3-2.1-6.7-4.3-10.1-6.4-.6-.4-1.2-.9-1.8-1.4 0 .5-.1.8-.1 1.2-.1 3.6-.1 7.2-.3 10.8-.2 3.8-.6 7.6-.8 11.3 0 .4.1 1 .3 1.2 2.9 1.8 5.8 3.6 8.8 5.4 2.7 1.6 5.6 2.9 7.9 5.1.6.6 1.5 1.1 2.5 1.8v-1.8c-.4-6.6-.2-13.2.4-19.9.1-1.6.2-3.3-1.8-4.2m-5.7 2.1c-1.8-.9-3.6-1.9-5.3-3-.2-.1-.4-.6-.4-.9 0-.1.4-.3.5-.4.5.2.8.3 1.2.5 1.5.8 3.1 1.6 4.6 2.5.3.2.3.7.5 1-.3.2-.8.5-1.1.3m4.6 23.3c-.7-.3-1.2-.9-1.9-1.3-4.1-2.5-8.2-4.9-12.3-7.3-.9-.5-1.8-1-3-1.7-.1.5-.1.8-.1 1-.1 4.1-.2 8.2-.4 12.3-.1 2.4-.3 4.9-.3 7.3 0 .4.2 1.1.6 1.3 2.5 1.4 5 2.8 7.5 4 2.4 1.2 5 2.2 7.4 3.5 1.5.9 2.7.9 4-.3.5-.5.9-.9.9-1.7 0-4 0-8.1.2-12.1.1-2.2-.3-4-2.6-5m-4.7 3.2c-2.1-1.2-4.1-2.5-6.1-3.8-.3-.2-.4-.6-.4-1 0-.1.4-.3.7-.4.6.3 1.2.4 1.6.7 1.7 1 3.3 2 5 3.1.3.2.3.8.5 1.2-.4.1-1 .4-1.3.2" class="st3"/><path d="M334.4 236.8c0-1-.2-1.8-1.2-2.4-1.5-.8-2.8-2-4.2-2.9-.8-.5-1.7-.9-2.5-1.3s-1.7-.8-2.5-1.2c-2.9-1.5-5.8-3-9-4.7.1 1.2.2 2.1.2 2.9.1 1.8.4 3.6.4 5.4.1 3.8.1 7.7.1 11.5 0 .4.1.8.4 1 3.3 2.6 6.7 5.2 10.1 7.8 2.1 1.6 4.2 3.1 6.3 4.7.5.2 1.1.5 1.7.8v-8.3c.1-4.5.1-8.9.2-13.3m-6.2-1c-2.3-1-4.6-2.1-6.9-3.2-.2-.1-.2-.6-.3-.9.3-.1.7-.3.9-.2 2.3.9 4.5 1.9 6.8 2.9.3.1.4.6.5.9-.1.1-.6.2-1 .5M317 223.5c.7-.3 1.1-.4 1.5-.6 3.8-1.9 7.5-3.8 11.3-5.7 1.7-.8 3.5-1.6 5.2-2.3.3-.1.7-.1 1 0 3.3 1.5 6.6 3 9.5 5.2.6.4 1.3.6 1.9 1 1.1.5 2.1 1.1 3.2 1.6l2.7 1.5c.2.1.4.4.6.6-.2.2-.4.3-.6.4-2.4 1.1-4.7 2.3-7.1 3.4-2 .9-4 1.7-5.9 2.7-.9.4-1.8 1-2.6 1.7-1.1 1-2.3 1.1-3.4.1-2.9-2.5-6.2-4.2-9.6-5.8-2.6-1.3-5-2.5-7.7-3.8" class="st3"/><path d="M372.9 283.3c.8.5 1.6.9 2.4 1.4.4.3.8.5 1.2.8l9.3 5.1c.3.2.7.7.6 1-.1 2.9-.3 5.9-.5 8.8-.1 1.4-.4 2.8-.6 4.3l-2-1c-6.3-3.3-12.5-6.6-18.8-9.8-2.5-1.2-3.2-2.7-2.5-5.3s.9-5.3 1.3-8c.2-1 .6-1.3 1.6-.9.8.4 1.5.7 2.3 1 1.9.8 3.8 1.7 5.7 2.6"/><path d="M330.7 306.3c-.2-.1-.2-.4-.4-.6-.6-.7-1.1-1.8-1.8-2.1-4.7-2-9.3-4.1-13.6-7-.4-.3-.9-.5-1.5-.8v1.5c.2 3.8.5 7.5.6 11.2 0 .9.3 1.4 1.1 1.8 3.4 2 6.8 4.1 10.2 6 1.9 1.1 3.9 2 6 3.1.2-3.7.3-7.1.5-10.5.1-1 .3-2.1-1.1-2.6m-5.6-.7c-.1.2-.5.3-1 .5-1.6-1-3.3-2.1-4.9-3.2-.2-.1-.2-.6-.1-.7.1-.2.5-.3.7-.2 1.7.9 3.4 1.8 5 2.8.2.1.4.5.3.8m47.8-22.3c-1.9-.9-3.8-1.7-5.8-2.6-.8-.3-1.5-.7-2.3-1-.9-.4-1.4-.1-1.6.9-.4 2.7-.7 5.4-1.3 8-.7 2.6.1 4.1 2.5 5.3 6.3 3.1 12.5 6.5 18.8 9.8l2 1c.2-1.5.5-2.9.6-4.3.2-2.9.4-5.9.5-8.8 0-.3-.3-.8-.6-1l-9.3-5.1c-.4-.2-.8-.5-1.2-.8 1.1.5 2.3.9 3.4 1.5 2.3 1.2 4.6 2.5 7 3.7 1.3.6 1.7 1.4 1.5 2.9-.7 5.3-1.3 10.6-2 16.1-.7-.2-1.4-.4-2-.7-5.6-2.9-11.1-5.8-16.7-8.6l-4.8-2.4c-.8-.4-1.4-1-1.3-2 .1-1.5.2-3 .4-4.5.5-3.6 1.1-7.3 1.6-10.9.1-.4.2-.8.4-1.3 3.8 1.3 7.1 2.8 10.2 4.8m-27 31.6c-3.2 1.7-6.1 3.3-9.2 4.9-.2-3.4-.4-6.7-.6-10.3 3.3 1.9 6.4 3.6 9.8 5.4m19.9-8.6c2.6-1.5 2.6-1.5 3-4.7.8.2 1.5.5 1.9 1.4.2.4.9.7 1.4.8 2.3.1 3.3 1.7 2.2 3.6-.3.6-1.3.8-1.9 1.2-.9.5-1.7.5-2.6-.1-1.3-.9-2.6-1.5-4-2.2m-30.2 15c-1.8-.1-2.2-.4-2.1-2 .1-3.4.3-6.8.4-10.2 0-.2.1-.4.1-.7h.4c.4 4.4.8 8.6 1.2 12.9" class="st3"/><path d="m258.5 363.3-.2-.1c-.3-.3-.6-.7-.8-1.1-.4-.1-.7-.2-1-.4-.3-.1-.4-.5-.6-.7-.8-.7-1.6-1.5-2.6-2.1-2.9-1.7-6.2-1.7-9.4-1.5-4.1.3-7.6 2.1-10.4 4.9-2 2-3.3 4.6-4.8 7.1-2.2 3.5-2.9 7.6-3.7 11.6-.3 1.9.4 3.1 2.2 3.6.7.2 1.5.4 2.2.4 4.5-.2 9.1-.3 13.6-.8 1.9-.2 3.9-1 5.5-2 2-1.3 3.6-3.2 5.4-4.8.9-.9 1.8-1.9 2.7-2.9.5-.5 1-1 1.3-1.6 1.4-2.6 1.4-5.3.7-8.1-.1-.5-.2-1.1-.1-1.5m6.8-30.8c0 3-1.4 5.6-3.3 8-1.1 1.4-2.4 2.6-3.8 3.7-1.5 1.2-2.8 1.2-4.2-.1-4.3-3.7-7.8-7.9-8.6-13.8-.4-2.6 1.9-4.6 4.4-4 1.9.5 3.8 1.3 5.6 2 .7.3 1.3.8 2.1-.2.5-.6 1.7-.6 2.6-.7 2.1 0 5.4 2.1 5.2 5.1" class="st9"/><path d="M282 390.2c-1.1.7-2.2 1.4-3.2 2.2-4.3 3.4-9.6 5-14.3 7.7-.3.2-.9.1-1.3-.1-3.2-1.8-6.3-3.6-9.5-5.4-3.1-1.7-6.2-3.3-9.6-5.1 2.9-1.6 5.8-3.2 8.9-4.9q.3 1.8.6 3.3c.3 1.2.6 2.3.9 3.5.4 1.5 1.3 2.6 2.8 3.3 3.9 1.9 7.6 1.8 11.3-.5 1.7-1.1 3-2.5 3-4.8 0-1.4.5-2.8.7-4.3 3.3 1.7 6.5 3.4 9.7 5.1" class="st3"/><path d="M269.2 342.8c.4-.7.7-1.2.9-1.7.3-.6.4-1.2.7-1.8.1-.2.1-.5.3-.6 4-4 7.9-8.2 12.6-11.3 1.4-.9 3-1.5 4.6-2 .5-.2 1.5 0 1.8.4.4.4.4 1.4.2 2-1.3 3.6-3.5 6.8-6.4 9.1-2 1.6-4.7 2.2-7.1 3.3l-6.6 2.7c-.3-.2-.5-.2-1-.1" class="st9"/><path d="M254.6 383.3c6.2 2.3 11.9 2.3 16.7-3.3-.1 1.1-.1 2-.3 3-.4 2.7-.8 5.4-1.2 8.2 0 .3-.1.6-.3.7-1.5 1-2.9 2.1-4.9 2-2 0-3.9-.1-5.8-.8s-3-1.9-3.3-4c-.2-1.8-.7-3.5-1-5.3.1-.1.1-.3.1-.5" class="st3"/><path d="M249.3 343.6c1.8 1.3 3.1 3.6 5.7 4.1.1.1.1.1.1.2 0 1.1.3 2.4-.2 3.2-.5.7-1.9.6-2.9.9-1.7.5-3.3 1.1-5 1.4-1 .2-2.2 0-3.1-.5-2.4-1.1-4.7-2.4-7-3.6-1.3-.7-1.5-1.5-.6-2.6.4-.5 1.1-1 1.7-1.2 3-1.1 6.1-1.9 9.3-1.4.5-.1 1.2-.4 2-.5M78.7 314.5c-.2-4.5-.3-9.1-.5-13.6-.1-2.2.2-4.3-.2-6.5-.6-3.6-1.4-7.3-1.2-11 .2-5.1 0-10.1.1-15.2l.3-13.3.3-11.7v-2.5c-4.2 2.2-8.1 4.5-12.5 5.8-1.7.5-3.4 1.1-4.7 2.4-2.6 2.5-5.4 4.6-8.6 6.4-3.9 2.1-7.8 4.3-11.6 6.4-.7.4-1.5.7-2.2 1.1-.4.2-1 .5-1.2.9-.6 1-1.4 1.7-2.5 2.1-.2.1-.4.4-.4.6 0 .8.2 1.5.2 2.2.2 3.6.7 7.2 0 10.9-.3 1.5-.5 3-.5 4.5 0 4.3.1 8.6.1 12.9 0 2.6-.1 5.2 0 7.8 0 2.5.3 5 .3 7.5.1 3.1.1 6.2.2 9.2.1 1.9.4 3.8.5 5.7.1 1.8 0 3.5.1 5.3s.6 3.6.4 5.4c-.5 4 .1 8 .4 12 .3 3.9 1 7.7 1.3 11.5.5 5.5 0 11.1.8 16.6.3 1.7.2 3.5.4 5.4 3.7-2.1 7.1-4 10.6-6 2.2-1.3 4.5-2.6 6.8-3.9 3.3-1.9 6.7-3.9 10-5.8 3.9-2.2 7.7-4.5 11.5-6.8 1-.6 2.4-.9 2.4-2.6 0-7.3.3-14.7.3-22-.2-7.4-.6-14.6-.9-21.7m-40.2 42.8c-.6-3.5-1.2-7-1.5-10.5-.2-2.1.1-4.3.1-6.5 0-1.4 0-2.8.1-4.2.2-4.2-.1-8.4-.6-12.5-.4-3-.6-6.1-.7-9.2-.1-3.3 0-6.7-.1-10 0-2.6-.2-5.3-.2-7.9-.1-3.7-.2-7.3-.2-11 0-5-.1-10 0-14.9 0-1.3.2-2.6.4-3.9 0-.2.3-.6.5-.6 3-.9 5-3.5 7.9-4.7 2.2-.9 3.9-2.4 5.6-4 .1-.1.3-.3.5-.4 3.1-1.3 5.2-4 7.9-5.8.9-.6 1.8-1 2.7-1.5 2.8-1.3 5.5-2.7 8.3-3.9 1.6-.7 3.2-1.1 4.9-1.4.5-.1 1.1.2 1.5.2-.1 2.4-.2 4.6-.4 6.8-.3 3.6-.7 7.2-.8 10.9-.1 2.9.2 5.8.1 8.6-.2 5.7-.5 11.4-.7 17.1-.1 2.6.2 5.3.3 7.9.2 4.1.5 8.2.7 12.3.1 1.5 0 3-.1 4.5-.3 4 1 7.8 1.5 11.7.3 1.9.1 3.9.1 5.8 0 1.8.1 3.6.1 5.4 0 1.5 0 3-.1 4.5 0 .3-.2.8-.5 1-3.1 2.2-6.3 4.2-10 5.2-.9.3-1.8.9-2.7 1.3-2.4 1.2-4.7 2.5-7.2 3.5-3.9 1.5-7.6 3.3-10.9 5.8-1.7 1.2-3.3 1.6-5.2 1.3-.7 0-1.3-.5-1.3-.9m38.5 1.9c0 .3-.2.8-.4.9-5.3 2-10 5.2-15.1 7.7-.8.4-1.6.7-2.4 1-5.4 1.5-10.8 3.1-16.2 4.6-.4.1-.9.1-1.3.2 0-.1-.1-.2-.1-.4 2.5-.9 5-2 7.6-2.8 2.8-.9 5.6-1.6 8.4-2.4 4.6-1.3 8.7-3.5 12.8-5.9 1.6-.9 3.3-1.6 4.9-2.5.3-.2.8-.6.8-1 .2-3.1.4-6.3.6-9.4 0-1-.1-2-.1-3.3-2.2 1.1-4 2-5.9 3-2.5 1.3-5 2.5-7.5 3.8s-5 2.6-7.4 4c-4.2 2.5-8.5 4.5-13.2 5.8-.4.1-.8.3-1 .3.2 3.3.4 6.5.7 9.6-.2 0-.3.1-.5.2-.2-.3-.5-.6-.6-.9-.4-2.5-.7-4.9-1-7.4-.2-1.2.2-2.2 1.5-2.7 1.7-.6 3.4-1.4 5.1-1.9 3.5-1.1 6.8-2.8 9.9-4.7 2.8-1.7 5.8-3 8.7-4.5 1-.5 2.1-1 3.1-1.6 2.3-1.2 4.7-2.5 7-3.7.5-.3 1-.5 1.6-.8.1.3.3.5.3.8.1 2.4.2 4.9.2 7.3-.4 2.1-.4 4.4-.5 6.7m82 67.1c.3-.3.4-.5.5-.6 3.7-2.6 7.3-5.1 11-7.6 3.1-2.1 6.3-4.2 9.5-6.2 1.3-.8 2.8-1.3 4.3-1.8s2.6.8 2.4 2.3c-.6 4.3-1 8.6-1.7 12.9-.5 3.5-1.2 7-1.8 10.5-.1.5-.2.9-.3 1.5-.2-.2-.4-.3-.6-.4-1.2-1.6-2.4-3.2-3.7-4.8-.2-.2-.5-.5-.6-.5-1.7.4-3.8-.1-5 1.8l-5.1 7.8c-.8 1.3-1.5 2.8-2.4 4.1-.2.3-.7.6-1.1.5-.5 0-1-.3-1.4-.5-1.7-.9-1.7-1.1-.3-2.4l.5-.5c1.3-2 2.7-4 3.8-6.1 1.2-2.2 2-4.5 3-6.7.3-.7 0-1.3-.7-1.6-.8-.3-1.6-.7-2.5-.8-2.3-.3-4.6-.5-6.9-.7-.1-.1-.4-.2-.9-.2" class="st9"/><path d="M213.2 230.7c-.2-1.1-.3-2.1-.3-3.2v-9.6c-.3-6.7-.5-12.2-.7-17.7-.1-1.6-.7-1.9-2.1-1.2-2.6 1.2-5.2 2.3-7.8 3.5-6.4 2.9-12.8 5.9-19.2 8.8-3.6 1.7-7.3 3.3-10.9 4.9-2.1 1-4.1 2-6.1 3-1 .5-1.4 1.4-1.4 2.4 0 1.8 0 3.7.1 5.5.3 5.9.6 11.7.8 17.6.1 3.2.2 6.4.4 9.6.1 1.8.8 2.2 2.4 1.4 3.2-1.5 6.3-3 9.5-4.6 4.6-2.3 9.3-4.6 13.9-7 3.7-1.9 7.3-4 11.1-5.9 2.9-1.5 5.9-2.9 8.8-4.3 1.4-.8 1.7-1.6 1.5-3.2m-35.7 4.9c-2.3 1.4-4.6 2.8-6.8 4.2-.9.6-1.5.5-1.8-.7l-.6-3c-.4-2.7-.9-5.3-1.2-8-.3-2.6-.5-2.5 2-3.6 2-.8 4.1-1.5 6.2-2.2 1.4-.5 1.8-.2 2 1.3l1.5 10.2c.1.4.3.8.4 1.2-.7.2-1.2.4-1.7.6m5.8-13.7c-1.2.5-2.4.8-3.8 1.3q-.6-1.95-1.2-4.2c1.6-.6 3-1.2 4.5-1.6.2-.1.8.4.9.7.3.9.5 1.8.5 2.7 0 .4-.5 1-.9 1.1m3.3 2.4c-.4-1.7-.8-3.2-1.1-4.7 0-.1.1-.2.2-.3 0 0 0-.1.1-.1.1-.1.1-.2.2-.2 1-.5 2.1-1 3.2-1.5.2-.1.7.3.8.5.4 1.5.6 3 1 4.7-1.4.5-2.8 1-4.4 1.6m10.3 14.8c-1.4.8-2.8 1.6-4.3 2.5-.6-1.5-1.1-2.9-1.7-4.3.1 0 .2-.1.3-.1.6 1.2 1.1 2.5 1.7 3.8 1.2-.9 2.4-1.7 3.6-2.5-.2-1-.5-2.1-.8-3.4-1.2.4-2.4.9-3.5 1.3 0-.1-.1-.2-.1-.2 1.3-.6 2.5-1.1 3.9-1.8.4 1.4.8 2.9 1.2 4.3 0 0-.1.3-.3.4m9.6-6.1c-2.6 1.1-5.2 2.1-7.8 3.2-.7.3-1.1.2-1.2-.5-.1-.3-.1-.5-.1-.8l-1.2-10.8c-.1-.6-.1-1.3-.1-1.8 3.3-1.4 6.5-2.8 10-4.3.4 5 .8 9.7 1.2 14.7-.4 0-.6.2-.8.3" class="st3"/><path d="M199.1 283.7c-1.5-.8-3.1-1.6-4.5-2.5-.7-.4-1.4-1-1.6-1.7-.6-2-1-4.2-1.5-6.3-.3-1.2-.9-2.3-1.3-3.6-.8.5-1.4.9-2 1.2-2.9 1.5-5.8 2.9-8.6 4.4-1.2.6-2 1.5-1.5 3.2.8 2.5 1.3 5 2 7.5.2.6.7 1.2 1.3 1.5 2 1.1 4 2.1 6.1 3 .7.3 1.7.5 2.4.2 2.7-1.3 5.4-2.7 8.1-4.1.9-.5 1.8-1.2 2.8-1.8-.8-.3-1.2-.7-1.7-1m-7.7-3.9c-3.1 1.6-6.2 3.2-9.3 4.9-.4.2-.8.4-1.3.6-.7-2.6-1.3-5.1-1.9-7.6-.1-.3.3-.8.6-1 2.8-1.5 5.6-2.9 8.4-4.3.6-.3 1.2-.5 1.8-.8 1.3.7 1.3 2 1.5 3.1.2 1.2.5 2.5.7 3.8.1.6.1 1-.5 1.3m165.5 30.7c2.9 1.8 6 3.7 9.1 5.7-.1.1-.1.2-.2.3-3.4-1.9-6.8-3.9-10.2-5.8v-.5c1.5-1.3 3-2.7 4.5-4 .2-.1.7 0 1 .2 3.6 2.2 7.2 4.3 10.8 6.6-.9 2.3-3.2 2.1-4.9 3 1.4-.9 2.7-1.8 4.3-2.9-1.1-.6-2-1.2-2.9-1.7-2.4-1.4-4.9-2.8-7.3-4.2-.6-.4-1.1-.3-1.6.2-.9 1-1.7 2-2.6 3.1m-1.3-3.8c.6-.6 1.3-1.2 2-2-1.3-.7-2.5-1.3-3.8-1.9-.3-.1-.7 0-1 .2-.5.3-1 .8-1.6 1.3 1.4.9 2.6 1.7 3.8 2.5-.1.1-.1.2-.2.3-1.2-.7-2.4-1.4-3.6-2.2-.2-.1-.2-.9-.1-1.2q.45-.75 1.2-1.2c.5-.2 1.2-.4 1.7-.2 1.2.5 2.3 1.1 3.4 1.7.9.5.9 1 0 1.6-.6.4-1.2.7-1.8 1.1.1.1 0 .1 0 0m-33.9-51c.5.2.9.3 1.2.5 1.5.8 3.1 1.6 4.6 2.5.3.2.4.7.5 1-.4.1-.9.4-1.1.2-1.8-.9-3.6-1.9-5.3-2.9-.2-.1-.4-.6-.4-.9 0-.1.4-.3.5-.4m-.7 25.5c.6.3 1.2.4 1.6.7 1.7 1 3.3 2 5 3.1.3.2.3.8.5 1.2-.4.1-1 .4-1.3.2-2.1-1.2-4.1-2.5-6.1-3.8-.3-.2-.4-.6-.4-1 0-.1.5-.3.7-.4m7.2-45.4c-2.3-1-4.6-2.1-6.9-3.2-.2-.1-.2-.6-.3-.9.3-.1.7-.3.9-.3 2.3.9 4.5 1.9 6.8 2.9.3.1.4.6.5 1-.1 0-.6.2-1 .5m-4.1 70.3c-1.6-1-3.3-2.1-4.9-3.2-.1-.1-.2-.6-.1-.7.1-.2.5-.3.7-.2 1.7.9 3.4 1.8 5 2.8.2.1.4.6.3.8 0 .2-.4.2-1 .5M76 330.3c0-2 .2-3.9-.1-5.8-.5-3.9-1.7-7.7-1.5-11.7.1-1.5.2-3 .1-4.5-.2-4.1-.5-8.2-.7-12.3-.1-2.6-.4-5.3-.3-7.9.2-5.7.5-11.4.7-17.1.1-2.9-.2-5.8-.1-8.6.2-3.6.6-7.2.8-10.9.2-2.2.2-4.4.4-6.8-.4-.1-1-.4-1.5-.2-1.6.4-3.3.8-4.9 1.4-2.8 1.2-5.5 2.6-8.3 3.9-.9.5-1.9.9-2.7 1.5-2.7 1.8-4.8 4.5-7.9 5.8-.2.1-.3.2-.5.4-1.6 1.6-3.4 3.1-5.6 4-2.8 1.2-4.8 3.9-7.9 4.7-.2.1-.5.4-.5.6-.2 1.3-.4 2.6-.4 3.9v14.9c0 3.7.1 7.3.2 11 .1 2.6.2 5.2.2 7.9 0 3.3 0 6.7.1 10 .1 3.1.3 6.1.7 9.2.5 4.2.8 8.3.6 12.5-.1 1.4 0 2.8-.1 4.2-.1 2.2-.4 4.3-.1 6.5.3 3.5 1 7 1.5 10.5.1.4.6.9 1 1 1.9.3 3.6 0 5.2-1.3 3.3-2.5 7-4.3 10.9-5.8 2.5-1 4.8-2.3 7.2-3.5.9-.4 1.7-1.1 2.7-1.3 3.7-1 6.9-3 10-5.2.3-.2.5-.6.5-1 .1-1.5.1-3 .1-4.5.3-1.9.2-3.7.2-5.5m-10.8 15.2c-2.3.7-4.3 2.2-6.5 3.3-1.8.9-3.7 1.9-5.6 2.8-2.6 1.1-5.3 2.1-8 3.1-1.7.7-3.4 1.2-5.4 2-.1-1-.1-1.9-.2-2.8-.1-1.1-.1-2.2-.4-3.3-1-3.5-.3-7-.6-10.5-.2-2.5-.4-4.9-.4-7.4 0-2 .2-3.9.2-5.9 0-.7-.2-1.5-.3-2.2l.2-.4c-.9-1.5-1.4-3.1-1.2-5 .1-1.2-.1-2.5-.1-3.8-.1-1.5-.3-2.9-.3-4.4l-.3-14.8c0-2.4-.1-4.8-.1-7.3V280c0-3.4 0-6.8.1-10.3 0-1.7.6-2.5 2.3-3.1 1.4-.4 2.5-1.5 3.7-2.2 1.9-1.1 3.8-2.2 5.6-3.4.9-.6 1.6-1.3 2.4-2 .8-.6 1.7-1.2 2.5-1.8 1.1-.9 2.2-1.8 3.3-2.8 2.1-2 4.3-3.5 7.1-4.5 2-.7 3.8-2.1 5.7-3.3 1.6-1.1 3.5-1.2 5.5-1.7-.5 5.2-1 10.2-1.3 15.2-.2 3.6-.3 7.2-.4 10.8-.1 2.3-.2 4.5-.3 6.8-.1 2.8-.3 5.5-.3 8.2 0 3.2 0 6.4.1 9.6.2 7.2.3 14.4.6 21.5.1 2.6 1 5.2 1.3 7.8.2 1.5.3 3.1.1 4.6-.5 3.5.2 7 .7 10.5-2.9 2.3-6 4.4-9.7 5.6"/><path d="M45.2 361.1c1.7-.7 3.1-2.1 4.7-2.9 1.3-.6 2.8-.9 4.2-1.5 1-.5 1.9-1.2 2.8-1.8 1.2-.7 2.6-1.3 4-1.8.6-.2 1.2-.5 1.7-.8s.9-.8 1.4-1.1c1.3-1 2.9-1.3 4.4-2 2.7-1.2 4.9-3.5 7.8-4 .4.9.4 2 .4 3 0 2.7-.1 5.4-.1 8.1 0 1-.1 2-.6 2.8-.5.7-1.2 1.1-2 1.5-1.9.9-3.7 1.9-5.6 2.8-4.1 2-8.1 4.1-12.5 5.4-3.7 1.1-7.7 1.8-11.2 3.4-1.1.5-2.3 1.2-3.5 1-.3-.1-.6-3.9-.7-4.4-.2-1.5-.2-3.1-.3-4.6 0-1.3 0-1.7 1.4-2.2 1.3-.4 2.6-.4 3.7-.9" class="st3"/><path d="M76.2 345.8c-2.2 1.1-4 2-5.9 3-2.5 1.3-5 2.5-7.5 3.8s-5 2.6-7.4 4c-4.2 2.5-8.5 4.5-13.2 5.7-.4.1-.8.3-1 .3.2 3.3.4 6.5.7 9.6-.2.1-.3.1-.5.2-.2-.3-.5-.6-.6-.9-.4-2.4-.7-4.9-1-7.4-.2-1.2.2-2.2 1.5-2.7 1.7-.6 3.4-1.4 5.1-1.9 3.5-1.1 6.8-2.8 9.9-4.7 2.8-1.7 5.8-3 8.7-4.5 1-.5 2.1-1 3.1-1.6 2.3-1.2 4.7-2.5 7-3.7.5-.3 1-.5 1.6-.8.1.3.3.5.3.8.1 2.4.2 4.9.2 7.3 0 2.3-.1 4.5-.1 6.8 0 .3-.2.8-.4.9-5.3 2.1-10 5.2-15.1 7.7-.8.4-1.6.7-2.4 1-5.4 1.5-10.8 3.1-16.2 4.6-.4.1-.9.1-1.3.2 0-.1-.1-.2-.1-.4 2.5-.9 5-2 7.6-2.8 2.8-.9 5.6-1.6 8.4-2.4 4.6-1.3 8.7-3.5 12.8-5.9 1.6-.9 3.3-1.6 4.9-2.5.3-.2.8-.6.8-1 .2-3.1.4-6.3.6-9.4-.3-1-.4-2-.5-3.3m129.7-127.9c-3.5 1.5-6.7 2.9-10 4.3 0 .6 0 1.2.1 1.8l1.2 10.8c0 .3.1.6.1.8.1.7.5.9 1.2.5 2.6-1.1 5.2-2.1 7.8-3.2.2-.1.5-.3.6-.4-.2-4.9-.6-9.7-1-14.6m.2 13.7c0 .2-.2.6-.4.7-2.4 1.1-4.8 2.2-7.3 3.3-.1.1-.2 0-.4.1-.1-1.2-.1-2.3-.2-3.4-.3-3-.7-5.9-1.1-8.9-.1-.8.2-1.1.9-1.4 2.1-.8 4.2-1.8 6.3-2.6.5-.2 1.1-.4 1.5-.6.2 2.8.5 5.5.7 8.2.1 1.5.1 3.1 0 4.6m-27.3 2.2c-.5-3.4-1.1-6.8-1.5-10.2-.2-1.4-.6-1.7-2-1.3-2.1.7-4.2 1.4-6.2 2.2-2.5 1-2.3 1-2 3.6.3 2.7.8 5.4 1.2 8 .1 1 .4 2 .6 3 .2 1.2.8 1.2 1.8.7 2.2-1.4 4.5-2.8 6.8-4.2.5-.3 1-.4 1.7-.7-.1-.3-.3-.7-.4-1.1m-1.7 1.5c-2.4 1.3-4.8 2.8-7.4 4.4-.2-1.2-.5-2.2-.6-3.2-.5-3.1-.9-6.1-1.3-9.2-.3-1.6-.2-1.8 1.2-2.3 2.5-.8 5-1.7 7.5-2.5.1.4.2.6.2.9.5 3.2.9 6.4 1.4 9.6.2 1 .2 1.7-1 2.3m6.5-17.2c-.1-.3-.7-.8-.9-.7-1.5.5-2.9 1-4.5 1.6q.6 2.25 1.2 4.2c1.4-.5 2.7-.8 3.8-1.3.4-.2.8-.7.8-1.1.1-.9-.1-1.8-.4-2.7m-3.7 4.5c-.3-1.1-.6-2.1-.9-3.3 1.2-.5 2.6-1 3.9-1.5.2 1.1.4 2.2.7 3.5-1.2.4-2.4.9-3.7 1.3m6.1-3.7c1.1-.5 2.1-1.1 3.2-1.5.2-.1.7.3.8.5.4 1.5.7 3 1 4.7-1.3.5-2.7 1-4.3 1.6-.4-1.7-.8-3.2-1.1-4.7-.2-.1.2-.4.4-.6.3 1.6.6 3.2.9 5 1.3-.6 2.3-1.1 3.4-1.5-.4-1.5-.8-2.9-1.2-4.3-1 .2-2.1.5-3.1.8m6.6 22.7c-.6-1.5-1.1-2.9-1.7-4.3.1 0 .2-.1.3-.1.6 1.2 1.1 2.5 1.7 3.8 1.2-.9 2.4-1.7 3.6-2.5-.2-1-.5-2.1-.8-3.4-1.2.4-2.4.8-3.5 1.3 0-.1-.1-.2-.1-.2 1.3-.6 2.5-1.1 3.9-1.8.4 1.4.8 2.8 1.1 4.3 0 .2-.1.5-.3.6-1.3.6-2.7 1.4-4.2 2.3"/><path d="M189.7 271.7c1.3.7 1.3 2 1.5 3.1.2 1.3.5 2.5.7 3.8.1.5.2.9-.5 1.3-3.1 1.6-6.2 3.3-9.3 4.9-.4.2-.8.4-1.3.6-.7-2.6-1.3-5.1-1.9-7.6-.1-.3.3-.8.6-1 2.8-1.5 5.6-2.9 8.4-4.3.6-.3 1.2-.5 1.8-.8M38.4 324.2c-1-1.5-1.4-3.1-1.2-5 .1-1.3-.1-2.5-.1-3.8-.1-1.5-.3-2.9-.3-4.4l-.3-14.8c0-2.4-.1-4.8-.1-7.3V280c0-3.4 0-6.9.1-10.3 0-1.7.5-2.6 2.3-3.1 1.3-.4 2.5-1.5 3.7-2.2 1.9-1.1 3.8-2.2 5.6-3.4.9-.6 1.6-1.3 2.4-1.9s1.7-1.2 2.5-1.8c1.1-.9 2.2-1.8 3.3-2.8 2.1-2 4.3-3.5 7.1-4.5 2-.7 3.8-2.1 5.7-3.3 1.6-1.1 3.5-1.2 5.5-1.6-.5 5.2-1 10.2-1.3 15.2-.3 3.6-.3 7.2-.4 10.8-.1 2.3-.2 4.5-.3 6.8-.1 2.7-.3 5.5-.3 8.3 0 3.2 0 6.4.1 9.6.2 7.2.3 14.4.6 21.5.1 2.6 1 5.2 1.3 7.8.2 1.5.3 3.1.1 4.6-.5 3.6.2 7 .7 10.5-3 2.2-6.1 4.3-9.8 5.4-2.3.7-4.3 2.2-6.5 3.3-1.8.9-3.7 1.9-5.6 2.8-2.6 1.1-5.3 2.1-8 3.2-1.7.7-3.4 1.3-5.4 1.9-.1-1-.1-1.9-.2-2.8-.1-1.1-.1-2.2-.4-3.3-1-3.5-.3-7-.6-10.5-.2-2.5-.3-4.9-.4-7.4 0-2 .2-3.9.2-5.9 0-.7-.2-1.5-.3-2.2 1 .9 1.7.7 2.6-.3 1-1 2.1-1.9 1.6-3.6 0-.1.1-.3.1-.5v-6.8c0-1.5-.2-3.1-.3-4.6 0-.3-.2-.6-.4-1.1-1.1 1.3-3 1.3-3.7 3.1 1.2-.5 2.2-.9 3.4-1.4.1 1.2.2 2.2.2 3.3 0 2.2-.1 4.5.1 6.7.2 2.4 0 3-2.5 4.1-.2-3.9-.4-7.6-.6-11.4h-.3v1.8c-.1 3.1-.2 6.1-.2 9.2 0 .4.2.7.3 1" class="st3"/><path d="M38.4 324.2c-.1-.3-.3-.7-.3-1 0-3.1.1-6.1.2-9.2v-1.8h.3c.2 3.8.4 7.5.6 11.4 2.6-1.1 2.8-1.7 2.5-4.1-.2-2.2 0-4.4-.1-6.7 0-1.1-.1-2.1-.2-3.3-1.2.5-2.2.9-3.4 1.4.7-1.8 2.6-1.8 3.7-3.1.2.5.4.8.4 1.1.1 1.5.3 3.1.3 4.6.1 2.3 0 4.5 0 6.8 0 .2-.1.3-.1.5.4 1.6-.6 2.5-1.6 3.6-.9 1-1.6 1.2-2.6.3.2-.2.2-.3.3-.5"/><path d="M198 235.7c-.1-1.2-.1-2.3-.2-3.4-.4-3-.7-5.9-1.1-8.9-.1-.8.2-1.1.9-1.4 2.1-.8 4.2-1.8 6.3-2.6.5-.2 1.1-.4 1.5-.6.2 2.8.5 5.5.7 8.2.1 1.6.1 3.2.1 4.8 0 .2-.2.6-.4.7-2.4 1.1-4.8 2.2-7.3 3.3-.1-.1-.3-.1-.5-.1m-28.2 4.1c-.2-1.2-.5-2.2-.6-3.2-.5-3.1-.9-6.1-1.4-9.2-.3-1.6-.2-1.8 1.2-2.3 2.5-.8 5-1.7 7.5-2.5.1.4.2.6.2.9.5 3.2.9 6.4 1.4 9.6.1 1 .1 1.7-1 2.3-2.4 1.2-4.7 2.8-7.3 4.4m13.9-18.5c-1.2.4-2.5.9-3.7 1.3-.3-1.1-.6-2.1-.9-3.3 1.2-.5 2.6-1 3.9-1.5.2 1.2.4 2.3.7 3.5m2.3-2.4c1.1-.3 2.1-.6 3.1-.9.4 1.4.8 2.8 1.2 4.3-1.1.5-2.2 1-3.4 1.5-.4-1.7-.6-3.3-.9-4.9" class="st3"/></g></svg>