<svg viewBox="0 0 100 100" fill="none" xmlns="http://www.w3.org/2000/svg" class="size-full">
    <path d="M37.9102 58.457C37.9102 58.457 38.8672 57.168 39.3359 57.1484C39.8047 57.1484 41.2109 57.5976 41.2109 57.5976C41.2109 57.5976 42.1094 58.5742 42.2461 59.6094C42.3828 60.6641 42.3438 62.1484 42.3438 62.1484C42.3438 62.1484 42.2852 63.457 41.9922 63.6523C41.6992 63.8476 40.3516 63.3008 39.8633 62.7539C39.375 62.207 38.0469 60.3125 37.9297 59.6875C37.793 59.043 37.9102 58.457 37.9102 58.457Z" fill="#F7FBFC"></path>
    <path d="M31.875 59.6875L36.6211 62.5195L37.0312 62.0117L37.3242 60.8789L37.0312 60.0195L36.8359 59.4336L35.625 58.7695L34.375 58.457L33.418 58.8476L32.2266 59.4336L31.875 59.6875Z" fill="#F7FBFC"></path>
    <path d="M90.1758 79.2188C89.1602 78.6523 88.125 78.125 87.1485 77.5195C85.9375 76.7773 84.7461 75.9961 83.5742 75.1953C82.5391 74.4922 81.5235 73.7109 80.4883 73.0078C79.7266 72.4805 78.9258 71.9922 78.1641 71.4844C78.086 71.4258 77.9688 71.3086 77.9688 71.2305C77.9688 69.9219 77.9688 68.6328 77.9883 67.3242C78.0078 65.918 78.0274 64.5313 78.0274 63.125C78.0274 62.9688 78.0469 62.8711 78.1836 62.793C78.5156 62.6172 78.5156 62.2852 78.2031 62.0898C77.832 61.875 77.4414 61.7188 77.0703 61.5039C76.4258 61.1133 75.7813 60.7031 75.1367 60.2734C74.7266 60 74.3555 59.6875 73.8672 59.5312C73.4961 59.4141 73.1445 59.1992 72.7734 59.0234C73.1836 58.5938 73.3203 58.0469 73.5352 57.5586C73.5938 57.4023 73.6133 57.2461 73.6328 57.0898C73.6524 56.8945 73.5547 56.8359 73.3594 56.8359C72.9102 56.8164 72.4024 57.1289 72.2656 57.5781C72.1485 57.9102 72.1094 58.2617 72.0313 58.5938C71.6602 58.7109 71.6406 58.418 71.543 58.1836C71.5234 58.2617 71.5039 58.3398 71.5039 58.4375C71.2695 58.2813 71.0547 58.125 70.8203 57.9688C70.8985 57.9102 70.957 57.8516 71.0742 57.7734C70.9961 57.7734 70.957 57.7734 70.9375 57.7734C70.8789 57.793 70.8399 57.8516 70.7813 57.8711C70.7227 57.8906 70.625 57.9102 70.5664 57.8906C69.9414 57.5586 69.3164 57.2461 68.7109 56.8945C67.9492 56.4648 67.2266 55.957 66.4063 55.625C66.1133 55.5078 65.8594 55.293 65.5859 55.1367C65.332 54.9805 65.0781 54.8047 64.8242 54.6484C64.6289 54.5508 64.4141 54.4727 64.2383 54.375C63.9063 54.2188 63.5938 54.0039 63.2617 53.8672C62.832 53.6719 62.3438 53.5352 62.0117 53.1836C61.9727 53.1445 61.7969 53.1445 61.7383 53.1836C61.4453 53.3594 61.1719 53.5742 60.8984 53.7695C60.7813 53.8477 60.6641 53.9063 60.5078 54.0039C60.5078 53.4375 60.5078 52.9297 60.5078 52.4219C60.5078 51.9141 60.5274 51.4063 60.5469 50.8984C60.5664 50.3711 60.5664 49.8242 60.5859 49.2969C60.6055 48.8867 60.6836 48.4961 60.7031 48.0859C60.7422 47.2461 60.7617 46.3867 60.7617 45.5469C60.7617 44.4922 60.7422 43.418 60.7422 42.3633C60.7422 41.7383 60.7227 41.1133 60.7031 40.4883C60.7031 40.1953 60.7422 39.8828 60.7422 39.5898C60.7227 39.0625 60.6641 38.5352 60.625 38.0273C60.5469 37.2461 60.4883 36.4844 60.5664 35.7031C60.6055 35.2344 60.5274 34.8047 60.1367 34.4141C59.5703 33.8477 58.8672 33.4961 58.2227 33.0664C57.7344 32.7539 57.2266 32.4805 56.7383 32.168C56.3867 31.9531 56.0547 31.7188 55.7031 31.4844C55.4883 31.3281 55.293 31.1523 55.0781 30.9961C54.7852 30.7617 54.4922 30.5078 54.1602 30.3125C53.9453 30.1758 53.6523 30.1562 53.418 30.0781C52.8711 29.8828 52.3242 29.6484 51.7969 29.4531C51.2891 29.2578 50.8008 29.082 50.4102 28.7109C50.3711 28.6719 50.2734 28.6719 50.1953 28.6719C50.1758 28.7305 50.1367 28.8281 50.1563 28.8672C50.3125 29.1016 50.2539 29.375 50.2539 29.6094C50.2734 29.9023 50.2734 30.1953 50.293 30.4883C50.3125 30.8789 50.3516 31.2695 50.3516 31.6602C50.3516 32.5586 50.3516 33.457 50.3516 34.3555C50.3516 35.0977 50.3711 35.8594 50.3711 36.6016C50.3711 37.0898 50.3516 37.5781 50.3516 38.0664C50.3516 38.4375 50.3906 38.8086 50.3516 39.1797C50.2734 40.1563 50.1367 41.1133 50.0586 42.0898C50 42.6953 50 43.2813 49.9609 43.8867C49.9219 44.9023 49.8633 45.918 49.8047 46.9141C49.7461 47.8711 49.6484 48.8281 49.6484 49.7852C49.6484 51.2891 49.7266 52.8125 49.7656 54.3164C49.7852 54.8047 49.7656 55.2734 49.7656 55.7422C49.4141 55.6641 49.082 55.6055 48.6914 55.5273C48.6914 55.3125 48.6914 55.0781 48.6914 54.8438C48.6914 54.1602 48.6719 53.4766 48.6524 52.793C48.6524 52.0898 48.6328 51.3867 48.6524 50.6836C48.6914 49.2969 48.7305 47.9102 48.8477 46.5234C48.9648 44.8438 49.0234 43.1836 49.0039 41.5039C48.9648 39.5898 48.9648 37.6758 48.9648 35.7812C48.9648 34.4922 49.0234 33.2031 49.0234 31.8945C49.0234 30.8398 48.9844 29.7656 48.9844 28.7109C48.9648 27.8906 48.9648 27.0703 48.9648 26.2695C48.9453 25.5078 48.9453 24.7461 48.9258 23.9844C48.9258 22.7539 48.9258 21.5039 48.9063 20.2734C48.8867 18.9258 48.8672 17.5977 48.8672 16.25C48.8672 15.8203 48.8672 15.3906 48.8477 14.9609C48.8477 14.8633 48.8086 14.7852 48.7695 14.707C48.75 14.707 48.7109 14.707 48.6914 14.7266C48.6719 14.8242 48.6524 14.9023 48.6524 14.9805C48.6328 16.2109 48.6328 17.4414 48.6133 18.6719C48.5938 19.5898 48.5742 20.5078 48.5742 21.4258C48.5547 23.0469 48.5547 24.6875 48.5547 26.3086C48.5547 26.9922 48.5352 27.6953 48.5352 28.3789C48.5352 29.1992 48.5352 30.0195 48.5352 30.8398C48.5352 30.9766 48.5352 31.1133 48.5352 31.2695C48.4961 32.1094 48.4375 32.9688 48.3984 33.8086C48.3789 34.1602 48.418 34.5313 48.3984 34.8828C48.3984 35.2539 48.3594 35.6445 48.3594 36.0156C48.3594 37.4414 48.3398 38.8867 48.3398 40.3125C48.3398 41.25 48.3789 42.1875 48.3984 43.1055C48.3984 43.2813 48.4375 43.457 48.4375 43.6328C48.3984 44.4141 48.3008 45.1953 48.3008 45.9766C48.2813 47.3047 48.3008 48.6328 48.3008 49.9414V55.2539C48.2422 55.2734 48.1445 55.293 48.0469 55.3516C47.5977 55.5859 47.1875 55.8984 46.7188 56.0742C45.8594 56.4063 45.1953 57.0117 44.4727 57.5C44.0625 57.7734 43.6914 58.1055 43.2813 58.3984C43.0469 58.5742 42.7734 58.7109 42.5195 58.8477C42.4805 58.8086 42.4609 58.7891 42.4414 58.7695C42.4219 58.7305 42.4023 58.7109 42.3828 58.6719C41.9336 57.7344 41.1719 57.2266 40.1563 57.0313C39.5898 56.9336 38.6719 57.4219 38.4961 57.9297C38.5938 57.8711 38.6523 57.7734 38.7109 57.6953C38.9258 57.4805 39.1797 57.3438 39.4727 57.3438C40.6836 57.3047 41.5625 57.9102 41.9727 59.043C42.1484 59.5312 42.1875 60.0391 42.207 60.5664C42.2461 61.4063 42.2266 62.2461 42.0898 63.0859C42.0117 63.5547 41.8164 63.6328 41.4063 63.418C40.5078 62.9297 39.7852 62.2461 39.2188 61.3867C39.0234 61.0938 38.8281 60.8008 38.6328 60.5078C38.3789 60.1367 38.1445 59.7266 38.1641 59.2578C38.1641 58.9258 38.2617 58.6133 38.3008 58.2812C38.3008 58.2031 38.2422 58.125 38.2227 58.0469C38.1445 58.0859 38.0273 58.125 37.9883 58.1836C37.9102 58.3594 37.832 58.5352 37.8125 58.7305C37.6758 59.4922 37.8516 60.2148 38.2813 60.8398C38.6719 61.4062 39.082 61.9531 39.4922 62.5C39.5313 62.5586 39.5703 62.6563 39.5508 62.7148C39.3945 63.1445 39.1406 63.457 38.6914 63.6523C38.2227 63.8281 37.7539 63.8477 37.2656 63.7891C37.0117 63.75 36.7578 63.6523 36.4648 63.5742C36.5625 63.4961 36.582 63.4766 36.6211 63.457C36.7578 63.3594 36.9141 63.3203 36.9531 63.1055C36.9727 63.0078 37.207 62.8906 37.3438 62.8906C37.8516 62.9102 38.3203 62.7539 38.7891 62.5391C38.8867 62.5 38.9844 62.4414 39.0625 62.3633C39.1016 62.3047 39.1211 62.2266 39.1406 62.1484C39.0625 62.1289 38.9844 62.1094 38.8867 62.0898C38.8477 62.0898 38.8086 62.1289 38.7695 62.1484C38.3789 62.3633 37.9688 62.5 37.5391 62.5586C37.4414 62.5586 37.3438 62.5586 37.207 62.5586C37.2656 62.4023 37.3242 62.2852 37.3633 62.1875C37.6172 61.5625 37.6953 60.918 37.5195 60.2344C37.4805 60.0586 37.5391 59.8633 37.5586 59.668C37.6172 59.2969 37.7148 58.9453 37.7734 58.5742C37.832 58.1055 37.8516 57.6367 37.8906 57.1875C38.2422 57.1094 38.2617 56.7773 38.4375 56.582C38.6133 56.3672 38.8086 56.1719 39.0039 55.957C39.1211 56.2891 39.2383 56.3477 39.5312 56.3086C39.6484 56.2891 39.7656 56.25 39.8828 56.1914C40.3125 56.0352 40.7227 55.8594 41.1523 55.7031C41.7188 55.4883 42.2852 55.2344 42.6953 54.7656C42.8516 54.5898 43.0078 54.4141 43.125 54.2188C43.3398 53.8477 43.5742 53.4766 43.7305 53.0859C43.8867 52.7148 43.7305 52.4609 43.3398 52.3047C42.9492 52.1484 42.5977 52.2656 42.3047 52.5C41.3477 53.3203 40.4102 54.1602 39.4727 55.0195C39.3555 55.1367 39.1602 55.2344 39.2188 55.4688C39.2383 55.5078 39.1211 55.6055 39.0625 55.6641C38.9844 55.7422 38.8867 55.8008 38.8086 55.8789C38.4961 56.2305 38.2031 56.6016 37.9102 56.9336C37.9297 56.582 37.9297 56.2305 38.2227 55.8984C38.457 55.625 38.6328 55.2734 38.75 54.9219C39.043 54.1992 38.8672 53.5352 38.3594 53.1055C37.8711 52.6758 37.168 52.6758 36.7383 53.0859C36.6406 53.0273 36.5234 52.9688 36.4063 52.9297C36.0547 52.8125 35.7031 52.6953 35.332 52.6172C34.5703 52.4609 34.0234 53.1445 34.1406 53.8086C34.2188 54.2188 34.3555 54.6289 34.5117 55.0195C34.6484 55.3516 34.8633 55.6641 35.0586 55.9961C34.2578 55.8398 33.5352 56.0352 32.8125 56.3672C32.5195 56.5039 32.3242 56.7188 32.3047 57.0313C32.2852 57.3438 32.4805 57.5391 32.7344 57.6758C33.2617 57.9688 33.7695 58.2812 34.375 58.3984C34.3945 58.3984 34.4141 58.4375 34.4531 58.457C33.5547 58.5742 32.7148 58.7891 32.0313 59.375C31.875 59.5117 31.7773 59.4531 31.6406 59.3555C31.25 59.082 30.8594 58.8477 30.4688 58.5938C30.0391 58.3203 29.5898 58.0664 29.1797 57.793C29.0234 57.6758 28.9258 57.6758 28.7891 57.8125C28.3984 58.2031 27.8516 58.3203 27.3438 58.5352C27.2266 57.832 27.1094 57.168 26.9922 56.4844C26.8945 55.8984 26.8164 55.293 26.7383 54.707C26.6992 54.4141 26.582 54.2578 26.3086 54.2188C26.1523 54.1992 25.9961 54.1992 25.8594 54.2578C25.1758 54.5508 24.5117 54.8438 23.8477 55.1562C23.4961 55.3125 23.125 55.4688 22.7734 55.6641C22.0508 56.0547 21.3281 56.4648 20.6055 56.875C19.9023 57.2656 19.1992 57.6367 18.4961 58.0273C18.2617 58.1445 18.1836 58.3594 18.1641 58.6133C18.1641 58.7695 18.1641 58.9062 18.1836 59.0625C18.2813 59.9023 18.3789 60.7617 18.4961 61.6016C18.5547 62.1484 18.6328 62.6953 18.7305 63.2422C18.75 63.3789 18.6914 63.418 18.5742 63.457C18.2617 63.5742 17.9492 63.6914 17.6367 63.8281C17.0508 64.1406 16.3867 64.3164 15.8398 64.7266C15.2539 65.1758 14.6289 65.5469 14.0039 65.9375C13.5547 66.2109 13.0859 66.4063 12.6367 66.6602C12.2461 66.875 12.2656 67.1875 12.6367 67.4219C12.6953 67.4609 12.7539 67.5195 12.7539 67.5781C12.7734 67.7539 12.7539 67.9492 12.7539 68.125C12.7539 69.043 12.7539 69.9609 12.7539 70.8789C12.7539 71.582 12.7734 72.3047 12.793 73.0078C12.793 73.8867 12.8125 74.7461 12.793 75.625C12.793 75.6836 12.7539 75.7813 12.6953 75.8203C12.2852 76.0742 11.8555 76.3477 11.4453 76.582C11.0547 76.8164 10.6445 77.0117 10.2539 77.2266C9.375 77.7148 8.51563 78.2227 7.63672 78.7305C6.93359 79.1211 6.21094 79.5117 5.50781 79.9023C5.46875 79.9219 5.44922 79.9414 5.42969 79.9609C5.66406 79.9023 5.89844 79.8438 6.11328 79.7461C6.64063 79.4727 7.16797 79.1992 7.69531 78.9062C8.33984 78.5352 8.96484 78.1445 9.60938 77.7734C9.98047 77.5586 10.3516 77.3047 10.7617 77.168C11.4453 76.8945 12.168 76.7578 12.7539 76.3867C12.9297 76.4844 13.0859 76.6406 13.2031 76.6211C13.4375 76.582 13.3984 76.3281 13.4375 76.1328C13.4375 76.0938 13.4375 76.0742 13.4375 76.0352C13.4766 75.9766 13.5156 75.8984 13.5742 75.8594C14.6289 75.2539 15.6836 74.668 16.7383 74.0625C17.5 73.6328 18.2422 73.1641 18.9844 72.7344C19.1992 72.5977 19.4336 72.5 19.6875 72.3828C19.707 72.4609 19.707 72.5 19.707 72.5391C19.6875 72.8906 19.6875 73.2422 19.668 73.5938C19.6094 74.7461 19.668 75.8789 19.7461 77.0312C19.8047 78.0664 19.8438 79.1016 19.8828 80.1367C19.9023 80.5859 19.9805 80.7422 20.4688 80.8984C20.5078 80.7617 20.5664 80.625 20.5664 80.4688C20.5469 79.3945 20.5078 78.3008 20.4688 77.2266C20.4297 76.2695 20.3711 75.3125 20.3516 74.3555C20.332 73.6914 20.3906 73.0078 20.4102 72.3437C20.4102 72.1484 20.4102 71.9727 20.4102 71.7188C20.6641 71.9336 20.8594 71.8555 21.0156 71.6992C21.0352 71.6797 21.0352 71.6797 21.0547 71.6797C21.8359 71.2891 22.6367 70.918 23.418 70.4883C24.2969 70.0195 25.1367 69.4922 26.0156 69.0039C26.7969 68.5742 27.5586 68.125 28.3594 67.7344C29.2578 67.2852 30.1953 66.875 31.1133 66.4453C31.1914 66.4063 31.2695 66.4062 31.3086 66.3867C31.0547 67.4805 30.8203 68.5547 30.5664 69.668C30.1953 69.5313 29.8242 69.4336 29.4727 69.2774C29.082 69.1016 28.6914 69.1406 28.3203 69.3164C28.0469 69.4336 28.0078 69.668 28.2617 69.8438C28.4375 69.9609 28.6328 70.0391 28.8281 70.1172C29.0039 70.1758 29.1797 70.2344 29.375 70.293C29.082 70.5078 28.8086 70.6836 28.5547 70.8789C28.2031 71.1719 28.2813 71.7773 28.6719 71.9727C29.2773 72.2852 29.8828 72.5977 30.4883 72.8906C30.8789 73.0859 31.2891 73.3008 31.7578 73.2813C31.9336 73.2813 31.9336 73.418 31.9141 73.5352C31.8555 74.0625 31.9141 74.5703 31.9922 75.0977C32.0508 75.6055 32.0508 76.1328 32.0898 76.6992C31.7383 76.5625 31.4453 76.4648 31.1328 76.3672C31.0352 76.3477 30.9375 76.3867 30.8398 76.3867C30.8984 76.4648 30.957 76.5625 31.0352 76.6016C31.2891 76.7188 31.5625 76.8359 31.8359 76.9336C31.8359 76.9531 31.8555 76.9727 31.8555 77.0117C31.3867 77.2852 30.9375 77.5781 30.4688 77.8516C30.3516 77.9297 30.2344 77.9688 30.1172 78.0469C29.9805 78.1836 30.0195 78.3398 30.2148 78.3594C30.3125 78.3789 30.4102 78.3594 30.4883 78.3203C30.8594 78.125 31.2305 77.9102 31.582 77.6953C31.7383 77.5977 31.8945 77.4805 32.0703 77.3438C31.9922 78.8477 31.9727 78.9649 32.2266 79.1406C32.3828 78.9649 32.4414 78.7695 32.4414 78.5352C32.4414 78.1641 32.4609 77.793 32.4805 77.3633C32.5781 77.4414 32.6172 77.4805 32.6758 77.5195C33.1055 77.8516 33.5352 78.1836 33.9844 78.4961C34.0625 78.5547 34.1992 78.5156 34.3164 78.5156C34.2773 78.3984 34.2578 78.2812 34.1797 78.2031C34.0625 78.0859 33.8867 78.0078 33.75 77.8906C33.3789 77.5977 33.0273 77.3047 32.6172 76.9727C32.9297 76.875 33.1641 76.8164 33.3984 76.7383C33.5156 76.6992 33.75 76.6992 33.6914 76.4844C33.6328 76.2695 33.4375 76.4062 33.2813 76.4258C33.0273 76.4844 32.7734 76.543 32.5 76.6211C32.4805 76.4453 32.4609 76.3281 32.4609 76.2109C32.4609 75.293 32.4609 74.375 32.4414 73.457C32.4414 73.2617 32.5391 73.1641 32.7148 73.1055C33.0859 72.9688 33.4375 72.832 33.7891 72.6758C34.1016 72.5391 34.375 72.3438 34.668 72.207C35.332 71.9336 35.5859 71.4453 35.5273 70.8789C35.4883 70.4102 35.5273 69.9414 35.5469 69.4727C35.5859 68.2617 35.625 67.0508 35.6836 65.8594C35.6836 65.7813 35.6641 65.6836 35.625 65.6055C35.3711 65.2148 35.0195 64.9805 34.5703 64.9023C34.4727 64.8828 34.375 64.8828 34.2773 64.8633C34.2773 64.8438 34.2773 64.8242 34.2578 64.8047C34.7266 64.5313 35.1953 64.2773 35.6836 63.9844C35.7031 64.2773 35.7422 64.5312 35.7617 64.7656C35.8008 66.1914 35.8398 67.6367 35.8789 69.0625C35.8984 69.8828 35.9766 70.7227 35.9766 71.543C35.9766 71.9531 36.1523 72.168 36.5625 72.3047C36.6016 72.2266 36.6406 72.1484 36.6602 72.0703C36.6797 71.5039 36.6992 70.9375 36.6797 70.3906C36.6797 69.9023 36.6211 69.4336 36.582 68.9453C36.543 68.3203 36.5039 67.6758 36.4844 67.0508C36.4648 66.6992 36.4844 66.3672 36.4844 65.9961C36.6016 66.0547 36.6797 66.0937 36.7383 66.1328C37.5586 66.6602 38.7695 66.5039 39.3555 65.8008C39.4727 65.6641 39.5703 65.5469 39.5898 65.3711C39.6875 64.707 39.7852 64.0234 39.8828 63.3594C39.9023 63.2617 39.9219 63.1641 39.9609 63.0273C40.3125 63.5156 40.8008 63.6719 41.2305 63.9258C41.7773 64.2188 42.3633 63.9844 42.5195 63.3984C42.6172 63.0078 42.6758 62.5977 42.6953 62.207C42.7539 61.3477 42.793 60.4688 42.6367 59.6289C42.5977 59.4336 42.6563 59.2969 42.793 59.1992C42.9492 59.1016 43.125 59.0234 43.2813 58.9258C43.6328 58.7305 44.0039 58.5547 44.3164 58.3203C44.6484 58.0859 44.9414 57.7734 45.2539 57.5195C45.4492 57.3438 45.6641 57.1875 45.8984 57.0508C46.2891 56.8164 46.7188 56.6016 47.1094 56.3477C47.5195 56.1133 47.9102 55.8398 48.3594 55.5664C48.3789 55.7812 48.3789 55.957 48.3984 56.1719C48.4766 56.0938 48.5156 56.0547 48.5547 56.0352C48.6719 56.0938 48.75 56.1523 48.8672 56.1719C49.5313 56.3281 50.0781 56.6602 50.6641 56.9922C51.3867 57.4023 52.1289 57.7734 52.8516 58.1641C53.2617 58.3984 53.7305 58.5156 54.1211 58.7891C54.3945 58.9648 54.4336 59.1797 54.4141 59.4531C54.375 60.0586 54.3359 60.6445 54.2969 61.25C54.2383 62.4414 54.2188 63.6328 54.1602 64.8242C54.1406 65.5859 54.1016 66.3672 54.0625 67.1289C54.0625 67.3242 54.043 67.5586 54.1797 67.7149C54.5508 67.5977 54.7461 67.3828 54.7461 66.9531C54.7461 66.3867 54.8047 65.8203 54.8242 65.2539C54.8438 64.7852 54.8242 64.2969 54.8438 63.8281C54.8828 62.7734 54.9219 61.7188 54.9609 60.6641C54.9805 60.2539 55 59.8438 55.0195 59.375C55.4297 59.6094 55.8008 59.8242 56.1328 60.0195C56.1133 60.1953 56.0742 60.332 56.0742 60.4883C56.0938 61.4063 56.0938 62.3047 56.1328 63.2227C56.1719 64.0039 56.3281 64.8047 56.2305 65.6055C56.1914 65.8594 56.2891 66.1133 56.4844 66.3086C56.6992 66.5234 56.9531 66.6602 57.207 66.7969C57.6953 67.0508 58.1445 67.3633 58.6914 67.5C58.8281 67.5391 58.9844 67.5781 59.1016 67.6562C59.1992 67.7148 59.2969 67.8516 59.2969 67.9492C59.3164 68.7695 59.3164 69.5899 59.3164 70.4102C59.3164 70.6445 59.2969 70.8789 59.2774 71.1523C59.0625 71.1133 58.8867 71.0742 58.7109 71.0352C58.5547 70.9961 58.3984 70.957 58.2422 70.918C58.1836 70.918 58.1055 70.9766 58.0859 71.0156C58.0664 71.0547 58.1055 71.1524 58.1641 71.1914C58.2031 71.2305 58.2813 71.25 58.3399 71.2695C58.5938 71.3477 58.8477 71.4258 59.1406 71.5234C58.9063 71.7383 58.7109 71.9336 58.4961 72.0898C58.2031 72.3242 57.8906 72.5195 57.5977 72.7539C57.5195 72.8125 57.5 72.9688 57.4609 73.0664C57.5781 73.0664 57.6953 73.1055 57.793 73.0469C57.9492 72.9688 58.1055 72.832 58.2422 72.7344C58.5742 72.4805 58.9063 72.2266 59.2969 71.9531C59.3164 72.3633 59.3359 72.7344 59.3359 73.1055C59.3359 73.3398 59.4141 73.5352 59.5899 73.75C59.9219 73.125 59.6484 72.5 59.7266 71.9531C60.2149 72.2461 60.7227 72.5391 61.25 72.832C61.3281 72.8711 61.4453 72.9102 61.543 72.8906C61.6016 72.8906 61.6992 72.8125 61.7383 72.7539C61.7578 72.7149 61.6992 72.5977 61.6602 72.5586C61.5625 72.4805 61.4453 72.4414 61.3477 72.3633C60.8789 72.0898 60.4297 71.8164 59.9219 71.5039C60.0391 71.4453 60.0781 71.4258 60.1172 71.4062C60.3516 71.3086 60.6055 71.2109 60.8399 71.0938C60.8984 71.0547 60.9375 70.9766 60.9766 70.918C60.8984 70.8984 60.8203 70.8594 60.7422 70.8594C60.6641 70.8594 60.5859 70.9375 60.5078 70.957C60.2539 71.0352 60.0195 71.1133 59.7461 71.1914C59.7461 70.8008 59.707 70.4492 59.7461 70.0977C59.8242 69.3945 59.9609 68.7109 59.8828 68.0078C59.8633 67.8516 59.9609 67.8125 60.1172 67.793C60.3516 67.7539 60.625 67.7149 60.8399 67.6172C61.4649 67.3438 62.0508 67.0117 62.6563 66.7188C62.8516 66.6211 63.0469 66.5625 63.2031 66.4258C63.5352 66.1523 63.6328 65.6055 63.0274 65.2148C62.832 65.0977 62.6367 64.9609 62.4219 64.8047C62.5586 64.7656 62.6563 64.7266 62.7344 64.707C62.9883 64.6094 63.2422 64.5313 63.4766 64.3945C63.7695 64.2383 63.7695 64.0625 63.5547 63.8281C63.8477 63.9453 64.1406 64.0625 64.3945 64.2188C65.1953 64.6875 65.9766 65.1758 66.7774 65.6445C67.4805 66.0352 68.2227 66.3867 68.9453 66.7578C69.2774 66.9141 69.5899 67.1094 69.9024 67.2656C69.9609 67.2852 70.0391 67.2852 70.0977 67.2852C70.1758 67.2656 70.2344 67.2266 70.3516 67.1875V67.8125C70.3516 69.1602 70.3711 70.4883 70.332 71.8359C70.293 73.0859 70.2149 74.3359 70.1758 75.6055C70.1563 75.8594 70.1563 76.1133 70.332 76.3672C70.4102 76.3086 70.4883 76.25 70.5664 76.2109C70.8008 76.0938 70.8594 75.918 70.8594 75.6445C70.8594 74.9219 70.8789 74.1992 70.918 73.4766C70.957 72.5977 71.0547 71.7383 71.0742 70.8594C71.0938 69.9023 71.0352 68.9453 71.0156 67.9883C71.0156 67.8125 71.0156 67.6367 71.0156 67.4219C71.7774 67.9102 72.5 68.3594 73.2227 68.8281C73.9063 69.2773 74.5703 69.7461 75.2539 70.1953C75.8399 70.5664 76.4258 70.8984 77.0117 71.25C77.1875 71.3477 77.2852 71.4648 77.3047 71.6797C77.3242 71.8164 77.4414 71.9531 77.5 72.0898C77.6172 72.0117 77.7344 71.9531 77.8711 71.875C77.8906 71.875 77.8906 71.8555 77.9492 71.8359C78.2813 72.0508 78.6328 72.2852 78.9649 72.5195C79.375 72.793 79.7852 73.0469 80.1953 73.3203C80.8789 73.8086 81.5625 74.3164 82.2461 74.7852C82.832 75.1953 83.418 75.5859 84.0039 75.9766C84.7656 76.4844 85.5274 76.9922 86.3086 77.5C86.8164 77.832 87.3633 78.125 87.8906 78.457C88.418 78.7695 88.9649 79.1016 89.4922 79.3945C89.5899 79.4531 89.7266 79.4727 89.8242 79.4531C89.9414 79.4336 90.0586 79.3555 90.1758 79.2969C90.2344 79.2578 90.2149 79.2383 90.1758 79.2188ZM39.2383 55.7617C39.2969 55.625 39.3359 55.4883 39.3945 55.3516C39.4141 55.3125 39.4141 55.2734 39.4531 55.2539C40.1953 54.5703 40.9375 53.8477 41.6992 53.1836C41.9922 52.9297 42.3828 52.8125 42.7539 52.6563C42.8711 52.6172 43.0664 52.6367 43.1641 52.6953C43.3203 52.793 43.2617 52.9883 43.2031 53.1445C42.9688 53.7695 42.5391 54.2773 42.1094 54.7461C41.9727 54.8828 41.7773 55 41.6016 55.0586C40.9375 55.332 40.2734 55.5664 39.5898 55.8398C39.4531 55.8984 39.3164 55.957 39.1797 56.0352C39.1602 56.0156 39.1406 56.0156 39.1406 55.9961C39.1797 55.918 39.2188 55.8398 39.2383 55.7617ZM34.4531 53.6133C34.375 53.1055 34.8242 52.7148 35.3125 52.832C35.6836 52.9297 36.0156 53.0664 36.3672 53.2031C36.5234 53.2617 36.6406 53.3398 36.8359 53.1836C37.0508 53.0078 37.3828 52.9883 37.6953 53.1055C38.1055 53.2617 38.3594 53.5938 38.3594 54.0039C38.3398 54.6289 38.0664 55.1367 37.7148 55.6055C37.5 55.8789 37.2266 56.1133 36.9336 56.3477C36.7383 56.5039 36.4844 56.543 36.25 56.3867C35.332 55.6641 34.6289 54.8047 34.4531 53.6133ZM34.1211 57.9688C33.7109 57.7734 33.3008 57.5586 32.8906 57.3438C32.7539 57.2656 32.5195 57.207 32.5781 57.0313C32.6172 56.875 32.7539 56.6602 32.9102 56.6016C33.2422 56.4648 33.6133 56.3672 33.9844 56.2891C34.2578 56.25 34.5313 56.2891 34.8242 56.2695C34.9414 56.2695 35.0586 56.2305 35.2539 56.2109C35.5859 56.4453 35.8398 56.8945 36.3477 56.9922C36.3477 57.0117 36.3672 57.0313 36.3672 57.0313C36.3672 57.2461 36.4258 57.5195 36.3086 57.6563C36.2109 57.793 35.9375 57.7734 35.7422 57.832C35.4297 57.9297 35.0977 58.0469 34.7852 58.0859C34.5508 58.1055 34.3164 58.0664 34.1211 57.9688ZM33.5156 59.0234C34.2188 58.7891 34.9219 58.8281 35.625 59.0039C35.9961 59.1016 36.3086 59.3164 36.543 59.6094C36.6211 59.707 36.7188 59.9023 36.8945 59.7852C36.9336 59.7461 36.8945 59.5313 36.8555 59.4141C36.6211 58.9648 36.1914 58.7695 35.7422 58.6328C35.4883 58.5547 35.2344 58.4961 34.9609 58.3984C35.4102 58.2227 35.8594 58.0469 36.3281 57.8906C36.543 57.8125 36.7188 57.6562 36.6797 57.4219C36.6602 57.2852 36.6211 57.1484 36.5625 56.9727C37.0117 56.9531 37.3438 56.6797 37.6563 56.3672C37.6758 56.3867 37.6953 56.3867 37.7148 56.4062C37.5781 57.4609 37.4609 58.4961 37.3242 59.5508C37.1875 58.9258 37.0898 58.2812 36.8555 57.6758C36.8164 57.6758 36.7969 57.6758 36.7773 57.6953C36.7773 57.7734 36.7578 57.8516 36.7773 57.9297C36.875 58.4375 36.9922 58.9453 37.0898 59.4531C37.1289 59.6484 37.1875 59.8438 37.0703 60.0391C37.0313 60.1172 37.0703 60.2734 37.0898 60.3711C37.2461 61.0156 37.168 61.6406 36.7773 62.207C36.6602 62.3828 36.5625 62.3828 36.4063 62.2656C35.8203 61.8555 35.2734 61.4063 34.668 61.0547C34.0625 60.6836 33.418 60.4102 32.793 60.0781C32.6172 60 32.4609 59.9023 32.2461 59.7852C32.6367 59.4336 33.0469 59.1797 33.5156 59.0234ZM18.6133 58.7695C18.5742 58.4961 18.6719 58.3203 18.8867 58.2031C19.4531 57.8906 20.0195 57.5977 20.5859 57.3047C20.8203 57.1875 21.0547 57.0508 21.2891 56.9336C22.3047 56.4062 23.3008 55.8789 24.3164 55.3711C24.9219 55.0586 25.5469 54.8047 26.1719 54.5313C26.3672 54.4336 26.4453 54.5117 26.4844 54.6875C26.5625 55.1562 26.6406 55.6445 26.6992 56.1133C26.8555 57.1875 26.9922 58.2422 27.1484 59.3164C27.168 59.4727 27.168 59.6484 27.168 59.8047C27.1484 60.1758 26.9727 60.332 26.6211 60.4688C26.2891 60.5859 25.9766 60.7812 25.6641 60.957C24.2188 61.7383 22.793 62.5195 21.3477 63.3008C20.8203 63.5742 20.2734 63.8086 19.7461 64.043C19.6094 64.1016 19.4531 64.1211 19.2969 64.1602C19.2188 63.5742 19.1406 63.0273 19.082 62.4805C18.9844 61.6211 18.8867 60.7422 18.7891 59.8828C18.7109 59.4922 18.6719 59.1211 18.6133 58.7695ZM24.8047 62.9492C25.0195 63.0664 25.2344 63.1641 25.5078 63.3008C25.1563 63.4961 24.8242 63.6719 24.4922 63.8477C24.3945 63.9062 24.2773 63.9453 24.1797 64.0039C23.9258 64.2383 23.6719 64.1602 23.418 64.043C23.3984 64.0234 23.3594 64.0039 23.3398 64.0039C22.7148 63.8672 22.6758 63.418 22.6953 62.9102C22.6953 62.8711 22.7148 62.793 22.7344 62.7734C22.9688 62.6758 23.1445 62.4805 23.4375 62.5195C23.75 62.5586 23.8867 62.4414 24.0039 62.1289C24.0234 62.0898 24.0625 62.0312 24.1016 62.0117C24.2383 61.9336 24.375 61.875 24.5117 61.7969C24.5703 62.1484 24.6094 62.4609 24.668 62.7734C24.668 62.832 24.7266 62.9102 24.8047 62.9492ZM13.457 75.4102C13.3789 73.0859 13.3008 70.8203 13.2227 68.5156C15.3516 69.6484 17.4414 70.7422 19.5313 71.8555C17.5 73.0469 15.3516 74.0039 13.457 75.4102ZM36.0352 63.0273C35.4492 63.5742 34.707 63.8867 34.0234 64.2773C32.8711 64.9219 31.7188 65.5664 30.5469 66.1914C29.8047 66.582 29.0234 66.8945 28.2617 67.2656C27.6953 67.5391 27.1289 67.832 26.582 68.1445C24.9219 69.043 23.2813 70.0195 21.543 70.7617C21.2695 70.8789 21.0156 71.0352 20.7617 71.1719C20.6445 71.25 20.5469 71.2305 20.4102 71.1719C19.9023 70.918 19.3945 70.6641 18.8867 70.4102C18.1055 70.0195 17.2852 69.6875 16.5039 69.2774C15.8398 68.9258 15.2344 68.4961 14.5898 68.1055C14.1016 67.793 13.5938 67.5 13.1055 67.1875C13.0078 67.1289 12.9297 67.0508 12.8125 66.9727C13.1445 66.8164 13.4375 66.6602 13.7305 66.5039C14.6289 66.0547 15.4297 65.4688 16.25 64.8828C16.6016 64.6289 17.0313 64.4531 17.4219 64.2773C17.8125 64.1016 18.2031 63.9453 18.5938 63.7891C18.6328 63.7695 18.6914 63.7695 18.7109 63.8086C18.8672 63.9453 18.9844 64.1406 19.1602 64.2383C19.2773 64.3164 19.4727 64.3164 19.6094 64.2773C20.5078 64.0039 21.3086 63.5352 22.1094 63.0859C22.168 63.0469 22.2461 63.0078 22.3047 62.9688C22.3242 62.9688 22.3438 62.9688 22.4023 62.9492C22.4414 63.1836 22.4805 63.4375 22.5586 63.6719C22.5977 63.7891 22.6563 63.9453 22.7734 64.0039C23.0664 64.1602 23.3984 64.2969 23.7109 64.3945C23.8086 64.4336 23.9648 64.375 24.0625 64.3359C24.5312 64.082 25 63.8086 25.4688 63.5547C25.5469 63.5156 25.625 63.457 25.6836 63.3789C25.7813 63.2617 25.8008 63.1445 25.625 63.0469C25.3906 62.9297 25.1367 62.793 24.9219 62.6562C24.8633 62.6172 24.8242 62.5195 24.8242 62.4414C24.8047 62.168 24.8242 61.8945 24.8242 61.6016C25.4688 61.2695 26.1328 60.8984 26.8164 60.5664C27.2852 60.332 27.4023 60.1367 27.3828 59.6094C27.3633 59.375 27.3633 59.1602 27.3242 58.9258C27.3047 58.7891 27.3438 58.6914 27.4805 58.6523C27.6172 58.6133 27.7539 58.5938 27.8906 58.5352C28.1641 58.3984 28.4375 58.2812 28.6914 58.1055C28.8672 57.9883 28.9844 57.9688 29.1602 58.0859C29.8633 58.5352 30.5859 58.9063 31.25 59.3945C32.2461 60.1367 33.3984 60.625 34.4531 61.2695C34.9805 61.6016 35.4883 61.9531 36.0156 62.3047C36.1133 62.3633 36.2109 62.4414 36.3086 62.4805C36.4844 62.5391 36.4844 62.6758 36.4648 62.793C36.4453 62.8711 36.3086 62.9102 36.2305 62.9688C36.1523 62.9883 36.0742 62.9883 36.0352 63.0273ZM39.4727 63.8477C39.3945 64.3945 39.3164 64.9414 39.2383 65.4883C39.2383 65.5469 39.1992 65.6055 39.1602 65.6445C38.6328 66.0937 38.0078 66.0938 37.3633 65.957C36.7578 65.8203 36.4453 65.4687 36.4258 64.8242C36.4258 64.5508 36.3477 64.2773 36.3086 63.9844C37.5391 64.3945 38.6328 64.3945 39.5312 63.3008C39.5117 63.4961 39.4922 63.6719 39.4727 63.8477ZM72.5391 57.5586C72.7539 57.2266 73.0664 57.0703 73.4766 57.0117C73.4766 57.1094 73.4961 57.168 73.4766 57.2266C73.3008 57.793 73.125 58.3398 72.6953 58.7695C72.6367 58.8281 72.5 58.8477 72.4024 58.8867C72.3633 58.7891 72.3242 58.7109 72.3047 58.6133C72.2461 58.2422 72.3438 57.8906 72.5391 57.5586ZM71.7578 59.0039C71.8555 59.1211 71.9531 59.2383 72.0703 59.3555C72.1485 59.3359 72.207 59.2969 72.3242 59.2578C72.2266 59.4922 72.3438 59.4922 72.5 59.4922C72.6563 59.4922 72.8125 59.4922 72.9492 59.5508C73.125 59.6289 73.2227 59.8438 73.125 60C72.9102 60.332 72.6563 60.6445 72.4024 60.9766C71.8555 60.4297 71.836 59.9414 72.3438 59.5312C72.168 59.5117 72.0508 59.4922 71.9141 59.4727C71.875 59.3359 71.8164 59.1797 71.7383 59.0234C71.7383 59.0234 71.7383 59.0234 71.7578 59.0039ZM72.1484 61.1719C71.8555 61.25 71.7578 61.1914 71.6602 60.918C71.6016 60.7422 71.5625 60.5664 71.543 60.3711C71.7578 60.625 71.9531 60.8984 72.1484 61.1719ZM71.2305 58.7695C71.4649 58.9648 71.6406 59.2578 71.8555 59.4922C71.836 59.5117 71.8164 59.5312 71.7969 59.5312C71.543 59.4531 71.2695 59.375 71.0156 59.2969C70.8789 59.2383 70.7227 59.1797 70.6055 59.082C70.5469 59.043 70.4883 58.9258 70.5078 58.8672C70.5274 58.7891 70.625 58.6914 70.6836 58.6914C70.8594 58.6914 71.0938 58.6719 71.2305 58.7695ZM50.4688 56.1328C50.332 56.0742 50.2539 56.0352 50.1758 55.9961C50.1758 55.9961 50.1563 55.9961 50.1563 55.9766C50.1367 55.9766 50.1367 55.957 50.1172 55.957C50.0977 55.957 50.0977 55.9375 50.0781 55.918L50.0391 55.8789C50.0195 55.8398 50 55.8008 49.9805 55.7422C49.9805 55.7227 49.9805 55.7031 49.9805 55.7031C49.9805 55.6445 49.9609 55.5469 49.9609 55.4492C49.9414 54.1406 49.8828 52.8516 49.8828 51.543C49.8828 50.1562 49.9414 48.7695 49.9805 47.3828C50.0195 46.1523 50.0781 44.9023 50.1367 43.6719C50.1563 43.1641 50.1758 42.6563 50.1758 42.1484C50.1758 42.0703 50.1953 41.9922 50.1758 41.9141C50.0977 41.4844 50.2734 41.0938 50.3125 40.6836C50.3516 40.1367 50.4492 39.5898 50.4688 39.043C50.5078 38.4375 50.5078 37.832 50.4883 37.2266C50.4883 36.2891 50.4492 35.3516 50.4492 34.4141C50.4297 33.3008 50.4297 32.207 50.3906 31.0938C50.3711 30.5273 50.3516 29.9609 50.3125 29.3945C50.3125 29.3164 50.3125 29.2383 50.3125 29.1406C50.5859 29.2969 50.8008 29.4336 51.0547 29.5508C51.7969 29.9023 52.5 30.3125 53.3008 30.5078C53.7891 30.625 54.1602 30.9375 54.5117 31.25C54.8633 31.5625 55.2344 31.875 55.6641 32.1094C56.1328 32.3438 56.543 32.6758 56.9922 32.9102C57.7344 33.3203 58.4961 33.7109 59.2578 34.1211C59.4141 34.1992 59.5117 34.3555 59.6484 34.4727C59.8242 34.6094 60 34.7461 60.1563 34.8633C60.1172 35.625 60.0781 36.4258 60.0391 37.207C60.0391 37.3633 60.0586 37.5 60.0781 37.6563C60.1758 38.3008 60.2539 38.9453 60.1953 39.6094C60.1758 39.9414 60.1953 40.2734 60.1953 40.6055C60.1953 41.6016 60.1953 42.5781 60.1953 43.5742C60.1953 43.6328 60.1953 43.6914 60.1953 43.7305C60.0391 44.6289 60.1367 45.5273 60.0781 46.4258C60.0195 47.2461 60 48.0469 59.9609 48.8672C59.9414 49.4531 59.8828 50.0391 59.8633 50.625C59.8438 50.8203 59.8633 51.0156 59.8633 51.2109C59.8633 51.6602 59.8633 52.1289 59.8438 52.5781C59.8242 53.0273 59.7656 53.4961 59.7656 53.9453C59.7656 54.2188 59.6484 54.375 59.4336 54.4727C59.3555 54.5117 59.2774 54.5703 59.1602 54.6484C59.2188 54.375 59.2578 54.1406 59.3164 53.9063C59.4922 53.1445 59.4336 52.3828 59.375 51.6211C59.375 51.5625 59.3555 51.5039 59.3555 51.4453C59.3555 50.6055 59.3555 49.7461 59.375 48.9062C59.3945 48.5547 59.4727 48.2227 59.5117 47.8711C59.5703 47.1875 59.5899 46.5234 59.668 45.8398C59.7656 45.0586 59.6875 44.2773 59.6875 43.5156C59.6875 42.9297 59.7266 42.3438 59.7266 41.7578C59.7461 40.957 59.7656 40.1367 59.7656 39.3359C59.7656 38.9062 59.7656 38.4766 59.7656 38.0469C59.7656 37.2656 59.7656 36.4844 59.7461 35.6836C59.7461 35.4687 59.707 35.2539 59.668 35.0195C59.668 34.9805 59.5899 34.9023 59.5508 34.9023C59.043 34.7266 58.6133 34.4141 58.2031 34.082C58.0469 33.9648 57.8711 33.8477 57.6953 33.7891C57.2461 33.6328 56.9336 33.3008 56.582 32.9883C56.5234 32.9492 56.4844 32.8711 56.4258 32.8516C55.7617 32.5586 55.293 31.9922 54.7266 31.6016C54.5117 31.4453 54.2774 31.3086 54.0234 31.1914C53.6524 31.0156 53.2617 30.8984 52.9102 30.7227C52.6367 30.6055 52.4219 30.3906 52.1289 30.293C51.7578 30.1563 51.3672 30.0781 50.9961 30C50.8984 29.9805 50.7813 30.0391 50.7227 30.0586C50.7422 30.3516 50.7813 30.6055 50.8008 30.8398C50.8789 31.8555 50.957 32.8906 50.9961 33.9258C51.0156 34.3164 50.9961 34.7266 50.9961 35.1172C51.0156 36.2305 51.0742 37.3242 51.0938 38.4375C51.1133 39.4922 51.0938 40.5469 51.0742 41.6211C51.0742 42.2266 51.0352 42.832 51.0156 43.4375C50.9961 44.2969 50.9961 45.1562 50.9375 45.9961C50.8984 46.5039 50.8203 47.0117 50.7031 47.5C50.5664 48.1641 50.5273 48.8086 50.5859 49.4727C50.625 49.9023 50.5469 50.332 50.5469 50.7812C50.5469 51.0742 50.5664 51.3867 50.5859 51.6797C50.5859 51.7188 50.625 51.7773 50.6641 51.7969C51.1914 52.1094 51.6992 52.4805 52.2461 52.7344C52.8516 53.0078 53.4766 53.2617 54.0625 53.5742C54.5117 53.8281 55 53.9453 55.4688 54.1602C55.9766 54.3945 56.4649 54.668 56.9531 54.9414C57.2266 55.0977 57.5 55.2734 57.7734 55.4688C57.4805 55.6055 57.207 55.7422 56.9336 55.8594C56.8945 55.8789 56.8164 55.8594 56.7578 55.8203C56.1133 55.5664 55.5078 55.2148 54.9219 54.8438C54.3359 54.4727 53.6914 54.2188 53.0664 53.9063C52.7539 53.75 52.4609 53.5938 52.1484 53.4375C51.6602 53.1836 51.1719 52.9492 50.7031 52.6953C50.6836 52.6953 50.6641 52.6953 50.6641 52.6758C50.5859 52.6367 50.4883 52.5977 50.4102 52.5586C50.3906 52.6758 50.332 52.7734 50.332 52.8906C50.293 53.457 50.2539 54.0234 50.332 54.5898C50.3906 55 50.3516 55.4492 50.3516 55.8789C50.4688 55.9766 50.4688 56.0547 50.4688 56.1328C50.4883 56.1328 50.4883 56.1328 50.4883 56.1328H50.4688ZM59.1797 49.2969C59.1797 49.8242 59.1797 50.3516 59.1797 50.8789C59.1797 51.5234 59.1797 52.1875 59.1406 52.832C59.1211 53.2617 59.0234 53.6719 58.9844 54.1016C58.9649 54.2773 58.9453 54.4531 58.9453 54.6289C58.9453 55.0391 58.6133 55.2539 58.2422 55.0977C58.0274 55 57.8125 54.9414 57.5781 54.8438C56.6602 54.4531 55.7422 54.082 54.8438 53.6914C54.4727 53.5352 54.1406 53.2812 53.7891 53.1055C53.4766 52.9492 53.1445 52.793 52.8125 52.6758C52.2266 52.4805 51.7578 52.1484 51.2695 51.7969C51.1523 51.7188 51.0547 51.6406 50.9375 51.5625C51.0352 50.7812 51.2305 50 51.0742 49.2188C50.9766 48.7109 51.0742 48.2031 51.1914 47.7148C51.3672 46.9531 51.4453 46.1914 51.4258 45.4102C51.4062 44.4531 51.4844 43.4961 51.5039 42.5391C51.5234 41.6797 51.543 40.8203 51.5625 39.9414C51.5625 39.2578 51.582 38.5547 51.543 37.8711C51.5039 36.7969 51.4648 35.7227 51.3867 34.6484C51.3086 33.3789 51.1914 32.1094 51.1133 30.8203C51.0938 30.6055 51.0938 30.3906 51.0742 30.1367C51.4648 30.1953 51.875 30.2344 52.2266 30.4688C52.8125 30.8203 53.3984 31.1719 54.0234 31.4453C54.5117 31.6602 54.9023 32.0703 55.332 32.4023C55.5859 32.5977 55.8399 32.7539 56.0742 32.9492C56.3281 33.1445 56.543 33.3789 56.7969 33.5742C57.0703 33.7695 57.3633 33.9258 57.6367 34.1016C57.9102 34.2773 58.2031 34.4141 58.4375 34.6289C58.6524 34.8242 58.8867 34.9609 59.1602 35.0195C59.5117 35.0977 59.6094 35.293 59.6289 35.5664C59.6484 36.0938 59.6484 36.6016 59.6484 37.1289C59.6484 37.6758 59.6484 38.2227 59.6484 38.75C59.6484 38.9258 59.6094 39.1016 59.6289 39.2969C59.6484 39.8047 59.6875 40.3125 59.668 40.8203C59.668 41.543 59.6289 42.2461 59.5899 42.9688C59.5899 43.2422 59.5703 43.5156 59.5703 43.7695C59.5703 44.2188 59.5703 44.6875 59.5313 45.1367C59.5117 45.5664 59.4531 45.9766 59.4141 46.3867C59.4141 46.5234 59.4141 46.6797 59.4336 46.7969C59.5117 47.168 59.375 47.5195 59.2383 47.832C59.082 48.3789 59.1797 48.8477 59.1797 49.2969ZM53.6328 57.9102C53.3008 57.7539 52.9688 57.5586 52.6563 57.3828C52.207 57.1289 51.7383 56.875 51.2891 56.6211C51.0156 56.4648 50.7617 56.3086 50.4883 56.1523C50.7617 56.25 51.0547 56.3086 51.3086 56.4258C52.1875 56.875 53.0469 57.3438 53.9063 57.793C53.9258 57.793 53.9453 57.8125 53.9648 57.9102C53.8477 57.9102 53.7305 57.9492 53.6328 57.9102ZM53.8867 57.5195C53.1445 57.1094 52.4024 56.6992 51.6602 56.3086C51.4063 56.1719 51.1524 56.0742 50.8984 55.957C50.8203 55.918 50.7617 55.8203 50.7617 55.7422C50.7031 55.0586 50.6641 54.3555 50.625 53.6719C50.6055 53.4375 50.625 53.2031 50.625 52.8906C51.0938 53.125 51.5039 53.3203 51.9141 53.5156C52.0117 53.5547 52.0899 53.6328 52.1875 53.6914C52.793 54.0039 53.3984 54.2969 54.0039 54.6094C54.5508 54.9023 55.0781 55.2148 55.6055 55.5273C55.957 55.7227 56.3281 55.8984 56.6992 56.0938C56.6211 56.1523 56.5625 56.1914 56.5039 56.25C55.9766 56.582 55.4492 56.9141 54.9414 57.2461C54.8047 57.3242 54.668 57.4023 54.5508 57.5C54.3359 57.7148 54.1211 57.6562 53.8867 57.5195ZM63.418 63.7695C63.2617 63.7305 63.125 63.6914 62.9688 63.6719C62.5391 63.6328 62.1875 63.8672 61.7774 63.9844C61.6016 64.043 61.4258 64.1211 61.2109 64.1797C61.0938 63.5742 60.9961 63.0078 60.8789 62.4023C61.4649 62.6758 62.0117 62.9297 62.5391 63.2031C62.8125 63.3398 63.0859 63.5156 63.3399 63.6719C63.3984 63.7109 63.4375 63.75 63.4961 63.7891C63.4961 63.7891 63.457 63.7695 63.418 63.7695ZM77.4219 66.2891C77.4219 66.9531 77.3828 67.6367 77.3633 68.3008C77.3438 68.5742 77.3047 68.8477 77.3047 69.1406C77.3047 69.6484 77.3242 70.1562 77.3242 70.6641C77.3242 70.7422 77.3242 70.8399 77.3047 70.9961C75.3125 69.707 73.3789 68.457 71.4063 67.168C73.457 66.0742 75.4492 65.0195 77.4414 63.9648C77.4219 64.7266 77.4414 65.5078 77.4219 66.2891ZM77.3438 62.7734C76.6406 63.2031 75.9375 63.6523 75.2344 64.0625C74.4336 64.5117 73.6133 64.9609 72.793 65.3906C71.9727 65.8203 71.1133 66.2109 70.2734 66.6016C70.1953 66.6406 70.0781 66.6406 70.0195 66.6211C68.8086 66.0156 67.5781 65.4297 66.3867 64.8047C65.4883 64.3359 64.6094 63.8477 63.75 63.3398C62.9492 62.8711 62.1094 62.5 61.25 62.168C60.8789 62.0312 60.6836 61.8164 60.625 61.4062C60.5469 60.8984 60.2344 60.4688 59.8242 60.1562C59.082 59.5703 58.2422 59.3164 57.3047 59.4141C57.1289 59.4336 56.9727 59.4922 56.8164 59.5703C56.6602 59.6484 56.543 59.6484 56.4063 59.5703C55.8008 59.1992 55.1758 58.8281 54.5703 58.457C54.4727 58.3984 54.375 58.3789 54.2773 58.3203C54.2383 58.3008 54.1797 58.2227 54.1797 58.1836C54.1797 58.125 54.2188 58.0469 54.2578 58.0078C54.5312 57.832 54.8242 57.6758 55.0977 57.5C56.2305 56.7578 57.3828 56.0938 58.5938 55.4688C58.8281 55.3516 59.0234 55.1172 59.2578 54.9609C59.5508 54.7656 59.8633 54.5898 60.1758 54.3945C60.6445 54.1016 61.1328 53.8281 61.582 53.5352C61.7774 53.418 61.8945 53.4375 62.0703 53.5547C62.3633 53.7305 62.6953 53.8672 63.0078 54.0039C63.1445 54.0625 63.2617 54.1016 63.3984 54.1602C63.6328 54.2773 63.8672 54.3945 64.1016 54.5117C64.4727 54.7266 64.8633 54.9414 65.2149 55.1758C65.625 55.4297 66.0156 55.6836 66.4258 55.9375C67.2656 56.4453 68.0859 56.9531 68.9258 57.4414C69.3555 57.6953 69.8047 57.9102 70.2344 58.1445C70.4297 58.2422 70.625 58.3789 70.8789 58.5156C70.7422 58.5547 70.6445 58.5938 70.5664 58.6328C70.1953 58.75 70.1172 58.9844 70.4102 59.2383C70.586 59.3945 70.8203 59.4922 71.0547 59.6094C71.1328 59.6484 71.211 59.6484 71.3281 59.6875C71.1524 59.9414 71.1328 60.1953 71.2891 60.4492C71.3477 60.5664 71.3672 60.7227 71.4063 60.8594C71.6016 61.4258 72.1485 61.5625 72.5781 61.1523C72.9297 60.8203 73.1641 60.3711 73.2813 59.7266C73.7891 59.9609 74.3164 60.1367 74.7656 60.5078C75.5664 61.1719 76.4649 61.6797 77.3633 62.168C77.4609 62.207 77.5586 62.2266 77.6563 62.2852C77.7539 62.3242 77.832 62.3828 77.9688 62.4414C77.7344 62.5195 77.5391 62.6562 77.3438 62.7734Z" fill="#1D2426"></path>
    <path d="M37.0703 52.6367C36.875 52.6172 35.7812 51.6797 35.6445 51.4648C35.8594 51.3867 35.8008 51.2305 35.7422 51.0937C35.4883 50.2539 35.0781 49.5312 34.5312 48.8477C33.9844 48.2031 33.3398 47.6758 32.6367 47.2852C31.9531 46.8945 31.1523 46.6992 30.3516 46.6992C30 46.6992 29.8047 46.8945 29.7656 47.2461C29.707 47.6758 29.7852 48.0859 30 48.457C30.5273 49.3945 31.2891 50.0391 32.3437 50.3125C32.9883 50.4883 33.6328 50.6445 34.2578 50.8594C34.5898 50.957 34.8828 51.1523 35.1953 51.2891C35.2539 51.3281 35.332 51.3672 35.3711 51.4258C35.5078 51.582 35.4492 51.6992 35.2734 51.7187C35.1367 51.7187 34.9805 51.7187 34.8633 51.6602C34.1016 51.3086 33.2617 51.1719 32.4609 50.957C31.3867 50.6836 30.4687 50.1367 29.9023 49.1602C29.5898 48.6328 29.4336 48.0273 29.375 47.4219C29.3164 46.6992 29.8047 46.2695 30.5859 46.3086C31.1914 46.3281 31.7578 46.4453 32.3047 46.6992C33.4375 47.2266 34.4141 47.9297 35.0586 49.043C35.2734 49.4141 35.4687 49.7852 35.6836 50.1367C35.8594 50.4688 35.9375 50.8203 35.918 51.1914C35.918 51.3672 35.9766 51.4648 36.1133 51.582C36.3867 51.8164 36.6602 52.0703 36.9141 52.3242C36.9727 52.4219 37.0117 52.5195 37.0703 52.6367Z" fill="#1D2426"></path>
    <path d="M38.8281 43.2227C38.5742 43.3398 38.3203 43.4961 38.1055 43.6914C37.5977 44.1797 37.1875 44.7461 36.8945 45.3711C36.6992 45.7812 36.5625 46.25 36.4648 46.6992C36.25 47.6172 36.5625 48.457 36.8555 49.2969C37.168 50.2344 37.5 51.1719 37.4805 52.207C37.4805 52.3242 37.5195 52.4414 37.5195 52.5586C37.5391 52.5586 37.5781 52.5586 37.5977 52.5586C37.6172 52.5 37.6562 52.4219 37.6562 52.3633C37.6562 51.9922 37.6562 51.6211 37.6562 51.2695C37.6562 51.0937 37.6562 50.8984 37.6953 50.7227C37.7148 50.5273 37.7539 50.3516 37.793 50.1758C37.8906 49.4336 37.9102 48.6523 38.125 47.9492C38.457 46.8555 38.6523 45.7227 39.1992 44.6875C39.3555 44.3945 39.4531 44.043 39.5117 43.7109C39.5508 43.3008 39.1992 43.0664 38.8281 43.2227ZM39.1406 43.7891C38.9453 44.2383 38.75 44.707 38.5547 45.1562C38.2031 45.9375 38.0859 46.7773 37.9687 47.5977C37.832 48.457 37.7344 49.3359 37.6367 50.1953C37.6367 50.2148 37.6172 50.2539 37.6172 50.2734C37.5977 50.2734 37.5781 50.2734 37.5586 50.2734C37.3437 49.5117 37.0508 48.75 36.8945 47.9687C36.7187 47.0508 36.8555 46.1523 37.3633 45.332C37.5781 44.9805 37.7734 44.5898 38.0273 44.2578C38.2617 43.9648 38.5742 43.7305 38.8672 43.4961C38.9258 43.4375 39.0625 43.4766 39.1602 43.4766C39.1406 43.6133 39.1602 43.7109 39.1406 43.7891Z" fill="#1D2426"></path>
    <path d="M93.9453 81.582C93.9258 81.6016 93.9258 81.6211 93.9062 81.6406C93.9648 81.6797 94.043 81.6992 94.1016 81.7383C94.082 81.7773 94.043 81.7969 94.0234 81.8359C93.3203 81.4062 92.6367 80.918 91.9922 80.3711C92.0117 80.3516 92.0117 80.332 92.0313 80.332C92.2461 80.4883 92.4414 80.6445 92.6562 80.7812C92.7344 80.8398 92.793 80.8984 92.8516 80.9375C93.0273 81.0547 93.1445 81.2305 93.3984 81.2305C93.5742 81.2305 93.7695 81.4258 93.9648 81.5234C94.1406 81.6211 94.3164 81.7187 94.5117 81.8164L94.4727 81.8555C94.3164 81.7578 94.1211 81.6797 93.9453 81.582Z" fill="#1D2426"></path>
    <path d="M59.6094 39.3555C59.6094 39.1797 59.6289 39.0039 59.6289 38.8086C59.6289 38.2617 59.6289 37.7148 59.6289 37.1875C59.6289 36.6602 59.6289 36.1523 59.6094 35.625C59.5898 35.3516 59.4922 35.1367 59.1406 35.0781C58.8672 35.0195 58.6328 34.8828 58.418 34.6875C58.1836 34.4727 57.8906 34.3359 57.6172 34.1602C57.3437 33.9844 57.0508 33.8281 56.7773 33.6328C56.5234 33.4375 56.3086 33.2227 56.0547 33.0078C55.8203 32.8125 55.5664 32.6367 55.3125 32.4609C54.8828 32.1289 54.4922 31.6992 54.0039 31.5039C53.3594 31.2305 52.793 30.8789 52.207 30.5273C51.8555 30.3125 51.4453 30.2734 51.0547 30.1953C51.0742 30.4492 51.0742 30.6641 51.0937 30.8789C51.1914 32.1484 51.2891 33.418 51.3672 34.707C51.4258 35.7812 51.4844 36.8555 51.5234 37.9297C51.543 38.6133 51.543 39.3164 51.543 40C51.543 40.8594 51.5234 41.7187 51.4844 42.5977C51.4648 43.5547 51.3867 44.5117 51.4062 45.4687C51.4258 46.25 51.3281 47.0117 51.1719 47.7734C51.0547 48.2617 50.957 48.7695 51.0547 49.2773C51.2109 50.0586 51.0156 50.8398 50.918 51.6211C51.0352 51.6992 51.1328 51.7773 51.25 51.8555C51.7383 52.1875 52.207 52.5391 52.793 52.7344C53.125 52.8516 53.457 52.9883 53.7695 53.1641C54.1211 53.3398 54.4531 53.5938 54.8242 53.75C55.7227 54.1602 56.6406 54.5312 57.5586 54.9023C57.7734 55 57.9883 55.0586 58.2227 55.1562C58.5937 55.3125 58.9258 55.0977 58.9258 54.6875C58.9258 54.5117 58.9453 54.3359 58.9648 54.1601C59.0234 53.7305 59.1016 53.3203 59.1211 52.8906C59.1602 52.2461 59.1602 51.582 59.1602 50.9375C59.1602 50.4102 59.1602 49.8828 59.1602 49.3555C59.1602 48.9062 59.0625 48.4375 59.2383 47.9883C59.375 47.6562 59.5117 47.3242 59.4336 46.9531C59.4141 46.8164 59.3945 46.6797 59.4141 46.543C59.4531 46.1328 59.5117 45.7031 59.5312 45.293C59.5508 44.8437 59.5508 44.375 59.5703 43.9258C59.5703 43.6523 59.5703 43.3789 59.5898 43.125C59.6094 42.4023 59.6484 41.6992 59.668 40.9766C59.668 40.3711 59.6289 39.8633 59.6094 39.3555ZM59.2383 47.6367C59.2187 47.793 59.1992 47.9687 59.1406 48.1055C59.082 48.2617 58.9062 48.3008 58.7695 48.1836C58.6133 48.0273 58.457 47.8711 58.3008 47.6953C58.2812 47.6758 58.2422 47.6367 58.2422 47.5977C58.2031 46.9141 58.1445 46.2305 58.2617 45.5664C58.3008 45.2539 58.3008 44.9219 58.3203 44.5898C58.3203 44.5117 58.3594 44.4336 58.3789 44.3555C58.6328 44.5117 58.8672 44.6484 59.082 44.7656C59.1211 44.8047 59.1602 44.8633 59.1992 44.9023C59.1406 44.9023 59.0625 44.9414 59.0039 44.9219C58.8477 44.8633 58.6914 44.8047 58.4766 44.707C58.457 44.9414 58.418 45.1758 58.418 45.3906C58.3984 45.957 58.418 46.5039 58.3984 47.0703C58.3789 47.5 58.418 47.5977 58.9844 47.8906C59.0039 47.5977 59.0234 47.3242 59.043 47.0703C59.0625 46.4648 59.082 45.8594 59.1211 45.2539H59.2383V47.0703C59.2383 47.2656 59.2383 47.4414 59.2383 47.6367Z" fill="#F7FBFC"></path>
    <path d="M36.2891 62.4805C36.1719 62.4414 36.0742 62.3633 35.9961 62.3047C35.4688 61.9531 34.9609 61.6016 34.4336 61.2695C33.3789 60.625 32.2461 60.1367 31.2305 59.3945C30.5664 58.9062 29.8242 58.5156 29.1406 58.0859C28.9648 57.9687 28.8281 57.9883 28.6719 58.1055C28.418 58.2617 28.1445 58.3984 27.8711 58.5352C27.7539 58.5938 27.5977 58.6133 27.4609 58.6523C27.3242 58.6914 27.2852 58.7695 27.3047 58.9258C27.3438 59.1602 27.3438 59.375 27.3633 59.6094C27.4023 60.1562 27.2852 60.332 26.7969 60.5664C26.1133 60.918 25.4492 61.2695 24.8047 61.6016C24.8047 61.8945 24.8047 62.168 24.8047 62.4414C24.8047 62.5195 24.8438 62.6172 24.9023 62.6562C25.1367 62.793 25.3711 62.9297 25.6055 63.0469C25.7813 63.1445 25.7617 63.2422 25.6641 63.3789C25.6055 63.4375 25.5273 63.4961 25.4492 63.5547C24.9805 63.8281 24.5117 64.082 24.043 64.3359C23.9453 64.3945 23.7891 64.4336 23.6914 64.3945C23.3594 64.2969 23.0469 64.1602 22.7539 64.0039C22.6562 63.9453 22.5781 63.8086 22.5391 63.6719C22.4805 63.4375 22.4414 63.1836 22.3828 62.9492C22.3242 62.9492 22.3047 62.9492 22.2852 62.9687C22.2266 63.0078 22.1484 63.0469 22.0898 63.0859C21.2891 63.5352 20.4688 64.0039 19.5898 64.2773C19.4531 64.3164 19.2578 64.2969 19.1406 64.2383C18.9648 64.1406 18.8477 63.9648 18.6914 63.8086C18.6719 63.7695 18.6133 63.7695 18.5742 63.7891C18.1836 63.9453 17.793 64.1016 17.4023 64.2773C17.0117 64.4531 16.582 64.6289 16.2305 64.8828C15.4297 65.4687 14.6094 66.0547 13.7109 66.5039C13.418 66.6601 13.125 66.7969 12.793 66.9726C12.9102 67.0508 12.9883 67.1289 13.0859 67.1875C13.5742 67.5 14.082 67.793 14.5703 68.1055C15.2148 68.4961 15.8398 68.9062 16.4844 69.2773C17.2656 69.6875 18.0664 70.0391 18.8672 70.4101C19.375 70.6445 19.8828 70.8984 20.3906 71.1719C20.5273 71.2305 20.6055 71.25 20.7422 71.1719C20.9961 71.0156 21.25 70.8789 21.5234 70.7617C23.2617 70.0195 24.9023 69.0625 26.5625 68.1445C27.1094 67.8516 27.6758 67.5391 28.2422 67.2656C29.0039 66.8945 29.7852 66.582 30.5273 66.1914C31.6992 65.5859 32.8516 64.9414 34.0039 64.2773C34.6875 63.8867 35.4297 63.5742 36.0156 63.0273C36.0547 62.9883 36.1328 63.0078 36.1914 62.9687C36.2695 62.9102 36.4063 62.8711 36.4258 62.793C36.4648 62.6758 36.4453 62.5391 36.2891 62.4805ZM28.6133 64.7461C28.1445 65.0391 27.6758 65.3516 27.1875 65.625C26.7578 65.8789 26.3086 66.1133 25.8789 66.3477C25.7031 66.4453 25.5273 66.5039 25.3516 66.582C25.3516 66.5625 25.332 66.543 25.332 66.5234C26.3672 65.8789 27.4219 65.2344 28.457 64.5703C28.1055 64.2383 27.793 63.9453 27.4805 63.6328C27.3242 63.4766 27.1875 63.4766 26.9922 63.5937C26.0156 64.1797 25 64.7461 24.0039 65.3125C23.9258 65.3516 23.8672 65.4101 23.75 65.4883C24.2578 65.8203 24.707 66.1133 25.1758 66.4258C25.1562 66.4453 25.1367 66.4648 25.1367 66.4648C24.6875 66.25 24.1602 66.1523 23.7695 65.8008C23.6914 65.7226 23.6328 65.625 23.5938 65.5273C23.5742 65.4883 23.6133 65.4101 23.6328 65.3906C24.1016 65.0976 24.5703 64.8047 25.0391 64.5117C25.7031 64.1016 26.3867 63.7109 27.0312 63.3008C27.1875 63.2031 27.3047 63.2226 27.4414 63.3398C27.832 63.7305 28.2422 64.1016 28.6523 64.4727C28.7695 64.6094 28.7109 64.6875 28.6133 64.7461ZM30.1172 62.9297C29.7266 63.1836 29.3164 63.3984 28.9258 63.6328C28.9063 63.5937 28.8867 63.5742 28.8672 63.5351C29.2578 63.2812 29.668 63.0078 30.0781 62.7539C29.8828 62.5586 29.7266 62.3828 29.5508 62.2266C29.5117 62.1875 29.4141 62.1875 29.3555 62.207C28.9258 62.4023 28.5156 62.6172 28.0859 62.832C28.3203 63.0664 28.5547 63.2617 28.7695 63.4766C28.75 63.4961 28.7305 63.5156 28.7305 63.5351C28.4766 63.3594 28.2031 63.2031 27.9688 63.0078C27.9297 62.9883 27.9688 62.7539 28.0469 62.7148C28.4766 62.4609 28.9258 62.2266 29.375 62.0312C29.4531 61.9922 29.6289 62.0508 29.707 62.1094C29.9023 62.2461 30.0586 62.4219 30.2148 62.5977C30.332 62.7344 30.2148 62.8711 30.1172 62.9297Z" fill="#FAD7AF"></path>
    <path d="M77.6367 62.2266C77.5391 62.1875 77.4414 62.168 77.3438 62.1094C76.4258 61.6211 75.5273 61.1133 74.7461 60.4492C74.2969 60.0781 73.7891 59.9023 73.2617 59.668C73.1445 60.3125 72.9102 60.7617 72.5586 61.0937C72.1094 61.5039 71.5625 61.3476 71.3867 60.8008C71.3477 60.6641 71.3281 60.5273 71.2695 60.3906C71.1328 60.1367 71.1328 59.8828 71.3086 59.6289C71.2109 59.5898 71.1133 59.5898 71.0352 59.5508C70.8203 59.4336 70.5664 59.3359 70.3906 59.1797C70.0976 58.9258 70.1758 58.6914 70.5469 58.5742C70.6445 58.5351 70.7226 58.5156 70.8594 58.457C70.625 58.3203 70.4297 58.2031 70.2148 58.0859C69.7852 57.8516 69.3359 57.6367 68.9062 57.3828C68.0664 56.8945 67.2266 56.3867 66.4062 55.8789C65.9961 55.625 65.6055 55.3711 65.1953 55.1172C64.8242 54.8828 64.4531 54.668 64.082 54.4531C63.8477 54.3164 63.6133 54.2187 63.3789 54.1016C63.2617 54.043 63.125 54.0039 62.9883 53.9453C62.6758 53.7891 62.3438 53.6719 62.0508 53.4961C61.875 53.3789 61.7383 53.3594 61.5625 53.4766C61.0938 53.7695 60.625 54.043 60.1562 54.3359C59.8437 54.5312 59.5312 54.707 59.2383 54.9023C59.0039 55.0586 58.8086 55.2734 58.5742 55.4102C57.3828 56.0352 56.2109 56.6992 55.0781 57.4414C54.8047 57.6172 54.5117 57.7734 54.2383 57.9492C54.1992 57.9687 54.1601 58.0664 54.1601 58.125C54.1601 58.1641 54.1992 58.2422 54.2578 58.2617C54.3555 58.3203 54.4531 58.3398 54.5508 58.3984C55.1758 58.7695 55.7812 59.1406 56.3867 59.5117C56.5234 59.6094 56.6601 59.5898 56.7969 59.5117C56.9531 59.4336 57.1094 59.375 57.2851 59.3555C58.2226 59.2578 59.0625 59.5117 59.8047 60.0977C60.2148 60.4102 60.5273 60.8398 60.6055 61.3476C60.6641 61.7383 60.8594 61.9726 61.2305 62.1094C62.0898 62.4219 62.9297 62.8125 63.7305 63.2812C64.6094 63.7891 65.4687 64.2773 66.3672 64.7461C67.5781 65.3711 68.7891 65.957 70 66.5625C70.0781 66.6016 70.1758 66.582 70.2539 66.543C71.0938 66.1523 71.9336 65.7617 72.7734 65.332C73.5938 64.9023 74.4141 64.4727 75.2148 64.0039C75.9375 63.5937 76.6211 63.1445 77.3242 62.7148C77.5195 62.5976 77.6953 62.4805 77.9297 62.3242C77.8125 62.3047 77.7148 62.2656 77.6367 62.2266ZM67.7539 57.6367C67.6562 58.0859 67.5391 58.5156 67.4219 58.9648C67.3438 59.2773 67.2656 59.5898 67.1875 59.9023C67.1094 60.1758 66.9531 60.3711 66.6797 60.5078C66.2109 60.7226 65.7422 60.9766 65.2734 61.1914C65.1172 61.2695 64.9414 61.3281 64.7656 61.3672C64.6875 61.3867 64.5703 61.3672 64.4922 61.3281C63.8867 61.0156 63.2812 60.6836 62.6953 60.3516C62.3828 60.1758 62.0508 60 61.7383 59.8242C61.543 59.7266 61.543 59.6289 61.7187 59.5117C62.0898 59.2969 62.4609 59.1016 62.832 58.8867C63.0859 58.75 63.3203 58.5937 63.5547 58.4375C63.6133 58.3984 63.5937 58.2617 63.6328 58.1641C63.8281 57.4219 64.0234 56.6601 64.2187 55.918C64.2383 55.8203 64.3359 55.7227 64.3945 55.6055C64.6289 55.7227 64.8242 55.8203 65.0391 55.9375C65.3516 56.0937 65.6445 56.25 65.957 56.4258C66.3672 56.6406 66.7969 56.8555 67.207 57.0898C67.3828 57.1875 67.5391 57.3437 67.6953 57.4805C67.7539 57.4805 67.7734 57.5781 67.7539 57.6367Z" fill="#FAD7AF"></path>
    <path d="M50.4688 56.1328C50.0195 55.9766 49.9805 55.8984 49.9805 55.4492C49.9609 54.1406 49.9023 52.8516 49.9023 51.543C49.9023 50.1562 49.9609 48.7695 50 47.3828C50.0391 46.1523 50.0977 44.9023 50.1562 43.6719C50.1758 43.1641 50.1953 42.6562 50.1953 42.1484C50.1953 42.0703 50.2148 41.9922 50.1953 41.9141C50.1172 41.4844 50.293 41.0937 50.332 40.6836C50.3711 40.1367 50.4688 39.5898 50.4883 39.043C50.5273 38.4375 50.5273 37.832 50.5273 37.2266C50.5273 36.2891 50.4883 35.3516 50.4883 34.4336C50.4688 33.3203 50.4688 32.2266 50.4297 31.1133C50.4102 30.5469 50.3906 29.9805 50.3516 29.4141C50.3516 29.3359 50.3516 29.2578 50.3516 29.1602C50.625 29.3164 50.8594 29.4531 51.0938 29.5703C51.8359 29.9219 52.5391 30.332 53.3398 30.5273C53.8477 30.6445 54.1992 30.957 54.5508 31.2695C54.9023 31.582 55.2734 31.8945 55.7031 32.1289C56.1719 32.3633 56.582 32.6953 57.0312 32.9297C57.7734 33.3398 58.5352 33.7305 59.2969 34.1406C59.4531 34.2187 59.5508 34.375 59.6875 34.4922C59.8633 34.6289 60.0391 34.7656 60.1953 34.8828C60.1562 35.6445 60.1172 36.4453 60.0977 37.2266C60.0977 37.3828 60.0977 37.5195 60.1367 37.6758C60.2344 38.3203 60.3125 38.9648 60.2539 39.6289C60.2344 39.9609 60.2539 40.293 60.2539 40.625C60.2539 41.6211 60.2539 42.5977 60.2539 43.5937C60.2539 43.6523 60.2539 43.7109 60.2539 43.75C60.0977 44.6484 60.1953 45.5469 60.1367 46.4453C60.0781 47.2656 60.0586 48.0664 60.0195 48.8867C60 49.4727 59.9414 50.0586 59.9219 50.6445C59.9023 50.8398 59.9219 51.0351 59.9219 51.2305C59.9219 51.6797 59.9219 52.1484 59.9023 52.5976C59.8828 53.0469 59.8242 53.5156 59.8242 53.9648C59.8242 54.2383 59.707 54.3945 59.4922 54.4922C59.4141 54.5312 59.3359 54.5898 59.2188 54.668C59.2773 54.3945 59.3164 54.1602 59.375 53.9258C59.5508 53.1641 59.5117 52.4023 59.4336 51.6406C59.4336 51.582 59.4141 51.5234 59.4141 51.4453C59.4141 50.6055 59.4141 49.7461 59.4531 48.9062C59.4727 48.5547 59.5508 48.2031 59.5703 47.8711C59.6289 47.207 59.6484 46.5234 59.7266 45.8594C59.8242 45.0781 59.7461 44.2969 59.7266 43.5352C59.7266 42.9492 59.7656 42.3633 59.7852 41.7773C59.8047 40.9766 59.8242 40.1562 59.8242 39.3555C59.8242 38.9258 59.8437 38.4961 59.8242 38.0664C59.8242 37.2852 59.8242 36.5039 59.8047 35.7031C59.8047 35.4883 59.7656 35.2734 59.7266 35.0391C59.7266 34.9805 59.6484 34.9219 59.6094 34.9023C59.1016 34.7266 58.6719 34.4141 58.2617 34.082C58.1055 33.9648 57.9297 33.8477 57.7539 33.7891C57.3047 33.6328 56.9922 33.3008 56.6406 32.9883C56.582 32.9492 56.543 32.8711 56.4844 32.8516C55.8203 32.5781 55.3516 31.9922 54.7852 31.6016C54.5703 31.4453 54.3164 31.3086 54.082 31.1914C53.7109 31.0156 53.3203 30.8984 52.9688 30.7227C52.6953 30.6055 52.4805 30.3906 52.207 30.293C51.8359 30.1562 51.4453 30.0781 51.0547 30C50.957 29.9805 50.8398 30.0391 50.7812 30.0586C50.8008 30.3516 50.8398 30.6055 50.8594 30.8398C50.9375 31.875 50.9961 32.8906 51.0547 33.9258C51.0742 34.3164 51.0547 34.7266 51.0547 35.1172C51.0742 36.2305 51.1328 37.3242 51.1523 38.4375C51.1719 39.4922 51.1523 40.5469 51.1328 41.6211C51.1133 42.2266 51.0938 42.832 51.0742 43.4375C51.0547 44.2969 51.0547 45.1562 50.9961 45.9961C50.957 46.5039 50.8789 46.9922 50.7617 47.5C50.625 48.1641 50.5859 48.8086 50.6445 49.4727C50.6836 49.9023 50.6055 50.3516 50.6055 50.7812C50.6055 51.0742 50.625 51.3867 50.6445 51.6797C50.6445 51.7187 50.6836 51.7773 50.7227 51.7969C51.25 52.1094 51.7578 52.4805 52.3047 52.7344C52.9102 53.0078 53.5352 53.2617 54.1211 53.5742C54.5703 53.8281 55.0781 53.9453 55.5273 54.1601C56.0351 54.3945 56.5234 54.668 57.0117 54.9414C57.2852 55.0977 57.5586 55.2734 57.8516 55.4492C57.5586 55.5859 57.2852 55.7226 57.0117 55.8398C56.9727 55.8594 56.8945 55.8398 56.8359 55.8008C56.1914 55.5469 55.5859 55.1953 55 54.8242C54.4141 54.4531 53.7695 54.1992 53.1445 53.8867C52.832 53.7305 52.5391 53.5742 52.2266 53.418C51.7383 53.1641 51.25 52.9102 50.7812 52.6758C50.7617 52.6758 50.7422 52.6758 50.7422 52.6562C50.6641 52.6172 50.5664 52.5781 50.4883 52.5391C50.4688 52.6562 50.4102 52.7539 50.4102 52.8711C50.3711 53.4375 50.332 54.0039 50.4102 54.5703C50.4688 54.9805 50.4297 55.4297 50.4297 55.8594C50.4688 55.9766 50.4688 56.0547 50.4688 56.1328Z" fill="#FAD7AF"></path>
    <path d="M27.1289 59.2969C26.9922 58.2227 26.8359 57.168 26.6797 56.0938C26.6211 55.625 26.543 55.1367 26.4648 54.668C26.4258 54.4727 26.3477 54.4141 26.1523 54.5117C25.5273 54.8047 24.9023 55.0586 24.2969 55.3516C23.2812 55.8594 22.2852 56.3867 21.2695 56.9141C21.0352 57.0312 20.8008 57.168 20.5664 57.2851C20 57.5781 19.4336 57.8711 18.8672 58.1836C18.6523 58.3008 18.5547 58.4766 18.5937 58.75C18.6719 59.1016 18.6914 59.4727 18.75 59.8437C18.8477 60.7031 18.9453 61.582 19.043 62.4414C19.1016 62.9883 19.1797 63.5351 19.2578 64.1211C19.4141 64.082 19.5703 64.0625 19.707 64.0039C20.2539 63.7695 20.8008 63.5352 21.3086 63.2617C22.7539 62.5 24.1992 61.6992 25.625 60.918C25.9375 60.7422 26.25 60.5469 26.582 60.4297C26.9336 60.293 27.1094 60.1562 27.1289 59.7656C27.1484 59.6289 27.1484 59.4727 27.1289 59.2969ZM26.582 58.9453C25.0781 59.7656 23.5937 60.625 22.0898 61.4453C21.3672 61.8359 20.6055 62.1484 19.8437 62.5C19.6875 62.5781 19.5508 62.6562 19.4141 62.7344C19.2969 62.793 19.2188 62.793 19.1992 62.6367C19.082 61.6211 18.9648 60.6055 18.8477 59.5898C18.8672 59.5898 18.9062 59.5898 18.9258 59.5898C18.9062 59.2578 18.8672 58.9453 18.8672 58.6133C18.8672 58.5156 18.9258 58.3984 18.9844 58.3594C19.4336 58.0859 19.9023 57.8125 20.3711 57.5586C21.3867 57.0117 22.4023 56.4648 23.418 55.9375C24.1992 55.5469 25 55.1953 25.7812 54.8242C26.0742 54.6875 26.1914 54.7656 26.25 55.0977C26.4258 56.25 26.6016 57.3828 26.7773 58.5352C26.8359 58.7109 26.7578 58.8476 26.582 58.9453Z" fill="#F7FBFC"></path>
    <path d="M50.6055 52.8906C51.0742 53.125 51.4844 53.3203 51.8945 53.5156C51.9922 53.5547 52.0703 53.6328 52.168 53.6914C52.7734 54.0039 53.3984 54.2969 53.9844 54.6094C54.5312 54.9023 55.0586 55.2148 55.5859 55.5273C55.9375 55.7226 56.3086 55.8984 56.6797 56.0938C56.6016 56.1523 56.543 56.1914 56.4844 56.2305C55.957 56.5625 55.4297 56.8945 54.9219 57.2266C54.7852 57.3047 54.6484 57.3828 54.5312 57.5C54.3164 57.7148 54.1016 57.6562 53.8672 57.5391C53.125 57.1289 52.3828 56.7187 51.6406 56.3281C51.3867 56.1914 51.1328 56.0937 50.8789 55.9766C50.8008 55.9375 50.7422 55.8398 50.7422 55.7617C50.6836 55.0781 50.6445 54.375 50.6055 53.6914C50.6055 53.4375 50.6055 53.1836 50.6055 52.8906Z" fill="#F7FBFC"></path>
    <path d="M38.3398 54.0039C38.3398 54.6289 38.0469 55.1367 37.6953 55.6055C37.4805 55.8789 37.207 56.1133 36.9141 56.3476C36.7188 56.5039 36.4648 56.543 36.2305 56.3867C35.3125 55.6641 34.6289 54.8047 34.4336 53.6133C34.3555 53.1055 34.8047 52.7148 35.293 52.832C35.6445 52.9297 35.9961 53.0664 36.3477 53.2031C36.5039 53.2617 36.6211 53.3398 36.8164 53.1836C37.0312 53.0078 37.3633 53.0078 37.6758 53.1055C38.0859 53.2617 38.3594 53.6133 38.3398 54.0039Z" fill="#F7FBFC"></path>
    <path d="M39.1406 55.9961C39.1797 55.918 39.2188 55.8398 39.2383 55.7617C39.2969 55.625 39.3359 55.4883 39.3945 55.332C39.4141 55.293 39.4141 55.2539 39.4531 55.2344C40.1953 54.5508 40.9375 53.8281 41.7188 53.1641C42.0117 52.9102 42.4023 52.793 42.7734 52.6367C42.8906 52.5977 43.0859 52.6172 43.1836 52.6758C43.3398 52.793 43.2812 52.9687 43.2227 53.125C42.9883 53.75 42.5781 54.2578 42.1289 54.7266C41.9922 54.8633 41.7969 54.9805 41.6211 55.0391C40.957 55.3125 40.293 55.5469 39.6094 55.8203C39.4727 55.8789 39.3359 55.9375 39.1992 56.0156C39.1602 56.0156 39.1602 55.9961 39.1406 55.9961Z" fill="#F7FBFC"></path>
    <path d="M36.3086 63.9648C37.5391 64.375 38.6328 64.375 39.5312 63.2812C39.5117 63.4766 39.5117 63.6523 39.4922 63.8477C39.4141 64.3945 39.3359 64.9414 39.2578 65.4883C39.2578 65.5469 39.2188 65.6055 39.1797 65.6445C38.6523 66.1133 38.0273 66.0937 37.3828 65.957C36.7773 65.8203 36.4648 65.4687 36.4453 64.8242C36.4258 64.5312 36.3477 64.2578 36.3086 63.9648Z" fill="#FAD7AF"></path>
    <path d="M35.2344 56.1914C35.5664 56.4258 35.8203 56.875 36.3281 56.9727C36.3477 56.9922 36.3477 57.0117 36.3477 57.0117C36.3477 57.2266 36.4062 57.5 36.2891 57.6367C36.1914 57.7734 35.918 57.7539 35.7227 57.8125C35.4102 57.9102 35.0781 58.0273 34.7656 58.0664C34.5508 58.0859 34.3164 58.0469 34.1211 57.9688C33.7109 57.793 33.3008 57.5586 32.8906 57.3438C32.7539 57.2656 32.5195 57.207 32.5781 57.0313C32.6172 56.8555 32.7539 56.6602 32.9102 56.6016C33.2422 56.4648 33.6133 56.3672 33.9844 56.2891C34.2578 56.25 34.5313 56.2891 34.8242 56.2695C34.9414 56.2695 35.0586 56.2305 35.2344 56.1914Z" fill="#F7FBFC"></path>
    <path d="M24.4922 61.7773C24.5508 62.1289 24.5898 62.4414 24.6484 62.7539C24.668 62.832 24.7266 62.9101 24.7852 62.9492C25 63.0664 25.2148 63.1641 25.4883 63.3008C25.1367 63.4961 24.8047 63.6719 24.4727 63.8477C24.375 63.9062 24.2578 63.9453 24.1602 64.0039C23.9062 64.2383 23.6523 64.1602 23.3984 64.043C23.3789 64.0234 23.3398 64.0039 23.3203 64.0039C22.6953 63.8867 22.6562 63.418 22.6758 62.9102C22.6758 62.8516 22.6953 62.7734 22.7148 62.7734C22.9492 62.6758 23.125 62.4805 23.418 62.5195C23.7305 62.5586 23.8672 62.4414 23.9844 62.1289C24.0039 62.0898 24.043 62.0312 24.082 62.0117C24.2187 61.9141 24.3555 61.8359 24.4922 61.7773Z" fill="#F7FBFC"></path>
    <path d="M72.3828 60.9766C71.8359 60.4492 71.8164 59.9414 72.3242 59.5312C72.1484 59.5117 72.0508 59.4922 71.8945 59.4727C71.8359 59.3359 71.7774 59.1797 71.7188 59.0234C71.7383 59.0039 71.7383 59.0039 71.7578 58.9844C71.8555 59.1016 71.9531 59.2187 72.0703 59.3359C72.1484 59.3164 72.207 59.2773 72.3242 59.2383C72.2266 59.4726 72.3438 59.4727 72.5 59.4727C72.6563 59.4727 72.8125 59.4726 72.9492 59.5312C73.125 59.6094 73.2227 59.8242 73.125 59.9805C72.8906 60.332 72.6367 60.6445 72.3828 60.9766Z" fill="#F7FBFC"></path>
    <path d="M73.4766 57.0117C73.4766 57.1094 73.4961 57.168 73.4766 57.2461C73.3008 57.8125 73.125 58.3594 72.6953 58.7891C72.6172 58.8672 72.5 58.8672 72.4024 58.9062C72.3633 58.8086 72.3242 58.7305 72.3047 58.6328C72.2461 58.2422 72.3438 57.8906 72.5586 57.5586C72.7539 57.2266 73.0859 57.0898 73.4766 57.0117Z" fill="#F7FBFC"></path>
    <path d="M50.4688 56.1328C50.7617 56.2305 51.0547 56.2891 51.3086 56.4258C52.1875 56.875 53.0469 57.3438 53.9063 57.793C53.9258 57.8125 53.9453 57.8125 53.9648 57.9102C53.8672 57.9102 53.7305 57.9492 53.6523 57.9102C53.3203 57.7539 52.9883 57.5586 52.6758 57.3828C52.2266 57.1289 51.7773 56.875 51.3086 56.6211C51.0156 56.4453 50.7422 56.2891 50.4688 56.1328Z" fill="#FAD7AF"></path>
    <path d="M71.7773 59.5508C71.5234 59.4726 71.25 59.3945 70.9961 59.3164C70.8594 59.2578 70.7031 59.1992 70.5859 59.1016C70.5273 59.0625 70.4688 58.9453 70.4883 58.8867C70.5078 58.8086 70.6055 58.7109 70.6641 58.7109C70.8594 58.7109 71.0938 58.6914 71.2109 58.7891C71.4453 58.9844 71.6211 59.2773 71.8359 59.5117C71.8164 59.5117 71.7969 59.5312 71.7773 59.5508Z" fill="#F7FBFC"></path>
    <path d="M72.1484 61.1719C71.8555 61.25 71.7578 61.1914 71.6602 60.918C71.6016 60.7422 71.5625 60.5664 71.543 60.3711C71.7578 60.625 71.9531 60.8984 72.1484 61.1719Z" fill="#1D2426"></path>
    <path d="M37.5195 50.293C37.3047 49.5312 37.0117 48.7695 36.8555 47.9883C36.6797 47.0703 36.8164 46.1719 37.3242 45.3516C37.5391 45 37.7344 44.6094 37.9883 44.2773C38.2227 43.9844 38.5352 43.75 38.8281 43.5156C38.8867 43.457 39.0234 43.4961 39.1211 43.4961C39.1211 43.5938 39.1406 43.6914 39.1016 43.7891C38.9062 44.2578 38.7109 44.707 38.5156 45.1562C38.1641 45.9375 38.0469 46.7773 37.9297 47.5977C37.793 48.457 37.6953 49.3359 37.5977 50.1953C37.5977 50.2148 37.5781 50.2539 37.5781 50.2734C37.5586 50.293 37.5391 50.293 37.5195 50.293Z" fill="#F7FBFC"></path>
    <path d="M58.3398 44.5898L58.2422 47.3633L58.3008 47.6953L58.9648 48.0469L59.1016 47.4414L59.2188 44.9023L58.7305 44.5898H58.3398Z" fill="#FAD7AF"></path>
    <path d="M59.0039 47.8906C59.0234 47.5976 59.043 47.3242 59.0625 47.0703C59.082 46.4648 59.1016 45.8594 59.1406 45.2539C59.1797 45.2539 59.2188 45.2539 59.2578 45.2539C59.2578 45.8594 59.2578 46.4648 59.2578 47.0703C59.2578 47.2656 59.2774 47.4414 59.2578 47.6367C59.2383 47.793 59.2188 47.9687 59.1797 48.1055C59.1211 48.2617 58.9453 48.3008 58.8086 48.1836C58.6524 48.0273 58.4961 47.8711 58.3399 47.6953C58.3203 47.6758 58.2813 47.6367 58.2813 47.5976C58.2422 46.9141 58.1836 46.2305 58.3008 45.5664C58.3399 45.2539 58.3399 44.9219 58.3594 44.5898C58.3594 44.5117 58.3984 44.4336 58.418 44.3555C58.6719 44.5117 58.9063 44.6289 59.1211 44.7656C59.1797 44.8047 59.1992 44.8633 59.2383 44.9023C59.1797 44.9023 59.1016 44.9414 59.043 44.9219C58.8867 44.8633 58.7305 44.8047 58.5156 44.707C58.4961 44.9414 58.457 45.1758 58.457 45.3906C58.4375 45.957 58.457 46.5039 58.4375 47.0703C58.3789 47.5 58.4375 47.6172 59.0039 47.8906Z" fill="#1D2426"></path>
    <path d="M23.75 65.8203L25.3516 66.582L28.5742 64.6094L27.3047 63.3789L26.9531 63.4961L24.082 65.1172L23.6133 65.4102L23.75 65.8203Z" fill="#F7FBFC"></path>
    <path d="M28.0273 62.7344L29.3555 62.0312L29.9609 62.5L30.1758 62.7539L28.9258 63.6328L27.9492 63.0078L28.0273 62.7344Z" fill="#F7FBFC"></path>
    <path d="M25.3125 66.543C26.3477 65.8984 27.4023 65.2539 28.4375 64.5898C28.0859 64.2578 27.7734 63.9453 27.4609 63.6523C27.3047 63.4961 27.168 63.4961 26.9727 63.6133C25.9961 64.1992 24.9805 64.7656 24.0039 65.332C23.9258 65.3711 23.8672 65.4297 23.75 65.5078C24.2578 65.8398 24.707 66.1328 25.1758 66.4453C25.1562 66.4648 25.1367 66.4844 25.1367 66.4844C24.6875 66.2695 24.1602 66.1719 23.7695 65.8203C23.6914 65.7422 23.6328 65.6445 23.5938 65.5469C23.5742 65.5078 23.6133 65.4297 23.6328 65.4101C24.1016 65.1172 24.5703 64.8242 25.0391 64.5312C25.7031 64.1211 26.3867 63.7305 27.0508 63.3203C27.207 63.2227 27.3242 63.2422 27.4609 63.3594C27.8516 63.75 28.2617 64.1211 28.6719 64.4922C28.7891 64.6094 28.75 64.6875 28.6523 64.7461C28.1836 65.0391 27.7148 65.3516 27.2266 65.625C26.7969 65.8789 26.3477 66.1133 25.918 66.3477C25.7422 66.4453 25.5664 66.5039 25.3906 66.582C25.332 66.582 25.332 66.5625 25.3125 66.543Z" fill="#1D2426"></path>
    <path d="M28.0664 62.832C28.3008 63.0664 28.5352 63.2617 28.75 63.4766C28.7305 63.4961 28.7109 63.5156 28.7109 63.5351C28.457 63.3594 28.1836 63.2031 27.9492 63.0078C27.9102 62.9883 27.9688 62.7539 28.0273 62.7148C28.457 62.4609 28.9062 62.2266 29.3555 62.0312C29.4336 61.9922 29.6094 62.0508 29.6875 62.1094C29.8633 62.2461 30.0391 62.4219 30.1953 62.5977C30.332 62.7344 30.2148 62.8711 30.1172 62.9297C29.7266 63.1836 29.3164 63.3984 28.9258 63.6328C28.9063 63.5937 28.8867 63.5742 28.8672 63.5351C29.2578 63.2812 29.668 63.0273 30.0781 62.7539C29.8828 62.5586 29.7266 62.3828 29.5508 62.2266C29.5117 62.1875 29.4141 62.1875 29.3555 62.207C28.9258 62.4219 28.4961 62.6172 28.0664 62.832Z" fill="#1D2426"></path>
    <path d="M67.7148 57.4414C67.5586 57.3047 67.4023 57.1484 67.2266 57.0508C66.8164 56.8164 66.3867 56.6016 65.9766 56.3867C65.6836 56.2305 65.3711 56.0742 65.0586 55.8984C64.8437 55.7812 64.6484 55.6836 64.4141 55.5664C64.3359 55.6836 64.2578 55.7812 64.2383 55.8789C64.043 56.6211 63.8477 57.3828 63.6523 58.125C63.6328 58.2227 63.6328 58.3594 63.5742 58.3984C63.3398 58.5742 63.0859 58.7109 62.8516 58.8476C62.4805 59.0625 62.1094 59.2578 61.7383 59.4727C61.543 59.5898 61.5625 59.6875 61.7578 59.7852C62.0703 59.9609 62.4023 60.1367 62.7148 60.3125C63.3203 60.6445 63.9258 60.957 64.5117 61.2891C64.5898 61.3281 64.6875 61.3477 64.7852 61.3281C64.9609 61.2891 65.1367 61.2305 65.293 61.1523C65.7617 60.9375 66.2305 60.6836 66.6992 60.4687C66.9727 60.3516 67.1289 60.1562 67.207 59.8633C67.2852 59.5508 67.3633 59.2383 67.4414 58.9258C67.5586 58.4766 67.6758 58.0469 67.7734 57.5977C67.7734 57.5781 67.7539 57.4805 67.7148 57.4414ZM66.9336 59.8242C65.918 59.2578 64.9023 58.7305 63.8867 58.1641C63.9453 57.9101 64.0234 57.6172 64.0625 57.3437C64.1211 57.0508 64.1211 56.7578 64.1992 56.4844C64.2383 56.3281 64.375 56.2109 64.4922 56.0547C65.1562 56.3672 65.8008 56.6602 66.4258 56.9727C66.7578 57.1289 67.0703 57.3242 67.3828 57.5195C67.4414 57.5586 67.5 57.6562 67.4805 57.7148C67.3047 58.418 67.1289 59.1016 66.9336 59.8242Z" fill="#1D2426"></path>
    <path d="M18.9258 59.5898C18.9062 59.2578 18.8672 58.9453 18.8672 58.6133C18.8672 58.5156 18.9258 58.3984 18.9844 58.3594C19.4336 58.0859 19.9023 57.8125 20.3711 57.5586C21.3867 57.0117 22.4023 56.4648 23.418 55.9375C24.1992 55.5469 25 55.1953 25.7812 54.8242C26.0742 54.6875 26.1914 54.7656 26.25 55.0977C26.4258 56.25 26.6016 57.3828 26.7773 58.5352C26.7969 58.7305 26.7383 58.8672 26.5625 58.9648C25.0586 59.8047 23.5742 60.6445 22.0508 61.4453C21.3281 61.8359 20.5664 62.1484 19.8047 62.5C19.6484 62.5781 19.5117 62.6562 19.375 62.7344C19.2578 62.793 19.1797 62.793 19.1602 62.6367C19.043 61.6211 18.9258 60.6055 18.8086 59.5898C18.8672 59.5898 18.9062 59.5898 18.9258 59.5898Z" fill="#1D2426"></path>
    <path d="M64.4727 56.0547C65.1367 56.3672 65.7813 56.6602 66.4063 56.9727C66.7383 57.1289 67.0508 57.3242 67.3633 57.5195C67.4219 57.5586 67.4805 57.6562 67.4609 57.7148C67.2852 58.418 67.1094 59.1016 66.9141 59.8242C65.8984 59.2578 64.8828 58.7305 63.8672 58.1641C63.9258 57.9101 64.0039 57.6367 64.043 57.3437C64.1016 57.0703 64.1016 56.7773 64.1797 56.4844C64.2383 56.3477 64.375 56.2109 64.4727 56.0547Z" fill="#F7FBFC"></path>
    <path d="M36.8555 62.7344C36.8555 62.7344 38.0078 62.7344 38.4961 62.4414C38.9844 62.1289 39.1602 61.9141 39.1602 61.9141C39.1602 61.9141 39.668 62.207 39.6094 62.5C39.5508 62.793 39.3164 63.8281 38.3984 63.9258C37.4805 64.0234 36.1133 63.6133 36.1133 63.6133L36.8555 62.7344Z" fill="#1D2426"></path>
</svg>