<svg xmlns="http://www.w3.org/2000/svg" width="25.808" height="26.307" viewBox="0 0 25.808 26.307">
  <g id="Group_54985" data-name="Group 54985" transform="translate(-365.705 -541.168)" opacity="0.21">
    <path id="Path_67419" data-name="Path 67419" d="M98.94,17.457l2.636,4.551a1.32,1.32,0,0,0,1.8.48l1.84-1.061a10.651,10.651,0,0,0,2.5,1.463v2.1a1.315,1.315,0,0,0,1.318,1.315H114.3a1.317,1.317,0,0,0,1.319-1.315v-2.1a10.7,10.7,0,0,0,2.5-1.463l1.839,1.061a1.325,1.325,0,0,0,1.8-.48l2.637-4.551a1.32,1.32,0,0,0-.48-1.8l-1.809-1.044a10.111,10.111,0,0,0,0-2.925l1.808-1.044a1.315,1.315,0,0,0,.48-1.8L121.758,4.3a1.32,1.32,0,0,0-1.8-.48L118.118,4.88a10.568,10.568,0,0,0-2.5-1.463v-2.1A1.315,1.315,0,0,0,114.3,0H109.03a1.317,1.317,0,0,0-1.318,1.315v2.1a10.692,10.692,0,0,0-2.5,1.463l-1.839-1.061a1.318,1.318,0,0,0-1.8.48L98.94,8.85a1.319,1.319,0,0,0,.48,1.8l1.809,1.044a10.069,10.069,0,0,0,0,2.925L99.421,15.66A1.315,1.315,0,0,0,98.94,17.457Zm12.726-9.565a5.261,5.261,0,1,1-5.272,5.261A5.263,5.263,0,0,1,111.667,7.892Z" transform="translate(266.941 541.168)" fill="#050605"/>
    <path id="Path_67420" data-name="Path 67420" d="M110.972,3.5a8.906,8.906,0,1,1-8.907,8.906A8.906,8.906,0,0,1,110.972,3.5" transform="translate(267.624 541.891)" fill="#fff"/>
    <path id="Path_67421" data-name="Path 67421" d="M112.577,13.8s1.569-1.57,2.106-2.106c1.683-1.683.841-5.053.841-5.053s-3.368-.842-5.053.842c-1.259,1.259-2.1,2.125-2.1,2.125a4.078,4.078,0,0,0-3.376.822l6.737,6.737a4.1,4.1,0,0,0,.841-3.368Zm-.827-4.939a1.1,1.1,0,1,1,0,1.554,1.1,1.1,0,0,1,0-1.554h0m-6.218,7.757a4.293,4.293,0,0,0,2.749-1.1l-1.65-1.65C105.532,14.415,105.532,16.614,105.532,16.614Z" transform="translate(268.23 542.496)" fill="#050605"/>
  </g>
</svg>
