<svg id="circle-check_duo" xmlns="http://www.w3.org/2000/svg" width="21.516" height="21.516" viewBox="0 0 21.516 21.516">
  <path id="Path_67509" data-name="Path 67509" d="M21.516,10.758A10.758,10.758,0,1,1,10.758,0,10.758,10.758,0,0,1,21.516,10.758Z" fill="#d6d6d6"/>
  <path id="Path_67510" data-name="Path 67510" d="M56.577,64.54l1.315,1.315a13.517,13.517,0,0,1,3.231-4.445,8.508,8.508,0,0,1,1.487-1.058c.192-.105.349-.18.464-.229.057-.025.1-.043.139-.057l.044-.016.015-.005.006,0h0a.807.807,0,0,1,.516,1.529l-.011,0-.073.03c-.07.03-.181.082-.326.162a6.9,6.9,0,0,0-1.2.858,12.643,12.643,0,0,0-3.278,4.937.807.807,0,0,1-1.32.271l-2.152-2.152a.807.807,0,0,1,1.141-1.141Z" transform="translate(-49.014 -53.276)" fill="#212121"/>
</svg>
