<svg xmlns="http://www.w3.org/2000/svg" width="23.727" height="22.541" viewBox="0 0 23.727 22.541">
  <g id="Group_54968" data-name="Group 54968" transform="translate(-211.005 -545.105)" opacity="0.21">
    <path id="Path_67422" data-name="Path 67422" d="M29.107,6,25.551,2.449a1.183,1.183,0,0,0-.839-.348H10.477a1.181,1.181,0,0,0-.838.348L6.082,6a1.184,1.184,0,0,0-.351.842V22.269A2.374,2.374,0,0,0,8.1,24.642H27.086a2.373,2.373,0,0,0,2.372-2.373V6.845A1.184,1.184,0,0,0,29.107,6M10.967,4.473H24.222l1.186,1.187H9.781ZM23.526,15.151v1.186H11.663V11.592h2.373v2.372h7.118V11.592h2.372Z" transform="translate(205.274 543.004)" fill="#212121"/>
    <path id="Path_67423" data-name="Path 67423" d="M0,0H16.829V10.519H0Z" transform="translate(214.804 552.18)" fill="#212121"/>
    <path id="Path_67424" data-name="Path 67424" d="M9.738,15.4a.671.671,0,0,0,.315.41l1.292.748v1.488a.677.677,0,0,0,.678.676h1.488l.747,1.294a.678.678,0,0,0,.924.248h0l1.291-.747,1.292.748a.679.679,0,0,0,.925-.247l.748-1.294h1.488a.676.676,0,0,0,.676-.676v-1.49l1.294-.747a.678.678,0,0,0,.247-.925h0L22.4,13.6l.747-1.291a.676.676,0,0,0-.247-.925l-1.292-.748V9.143a.678.678,0,0,0-.678-.678H19.441l-.747-1.292a.687.687,0,0,0-.411-.315.668.668,0,0,0-.514.068l-1.294.747-1.292-.748a.678.678,0,0,0-.925.247L13.51,8.466H12.022a.676.676,0,0,0-.676.676v1.49l-1.294.747a.679.679,0,0,0-.246.926l.747,1.291-.747,1.292a.682.682,0,0,0-.068.515m6.737-1.13c-2.356,0-2.708-1.272-2.708-2.031a2.152,2.152,0,0,1,2.03-1.973V9.543h1.355v.751a2.031,2.031,0,0,1,1.624,1.948H18.1l-.676.013c-.009-.257-.146-.689-.948-.689-.879,0-1.354.348-1.354.676,0,.254,0,.678,1.354.678,2.356,0,2.708,1.272,2.708,2.031a2.152,2.152,0,0,1-2.03,1.973v.735H15.8v-.731a2.13,2.13,0,0,1-2.03-1.976h1.354c.008.1.108.676,1.354.676.934,0,1.354-.4,1.354-.676,0-.22,0-.678-1.354-.678" transform="translate(206.394 544.332)" fill="#fff"/>
  </g>
</svg>
