<svg xmlns="http://www.w3.org/2000/svg" xmlns:xlink="http://www.w3.org/1999/xlink" width="420.601" height="347.967" viewBox="0 0 420.601 347.967">
  <defs>
    <clipPath id="clip-path">
      <rect id="Rectangle_25383" data-name="Rectangle 25383" width="343.022" height="347.967" fill="none"/>
    </clipPath>
    <clipPath id="clip-path-3">
      <rect id="Rectangle_25347" data-name="Rectangle 25347" width="31.231" height="26.549" fill="none"/>
    </clipPath>
    <clipPath id="clip-path-6">
      <rect id="Rectangle_25352" data-name="Rectangle 25352" width="46.337" height="3.015" fill="none"/>
    </clipPath>
    <clipPath id="clip-path-7">
      <rect id="Rectangle_25353" data-name="Rectangle 25353" width="15.191" height="15.191" fill="none"/>
    </clipPath>
    <clipPath id="clip-path-9">
      <rect id="Rectangle_25376" data-name="Rectangle 25376" width="108.99" height="26.289" fill="none"/>
    </clipPath>
    <clipPath id="clip-path-11">
      <rect id="Rectangle_25389" data-name="Rectangle 25389" width="43.51" height="43.51" fill="none"/>
    </clipPath>
    <clipPath id="clip-path-13">
      <rect id="Rectangle_25384" data-name="Rectangle 25384" width="21.211" height="22.502" fill="none"/>
    </clipPath>
    <clipPath id="clip-path-14">
      <rect id="Rectangle_25385" data-name="Rectangle 25385" width="33.076" height="33.077" fill="#0272d0"/>
    </clipPath>
    <clipPath id="clip-path-15">
      <rect id="Rectangle_25386" data-name="Rectangle 25386" width="32.632" height="32.633" fill="#0272d0"/>
    </clipPath>
    <clipPath id="clip-path-16">
      <rect id="Rectangle_25387" data-name="Rectangle 25387" width="11.468" height="20.039" fill="none"/>
    </clipPath>
    <clipPath id="clip-path-17">
      <rect id="Rectangle_25389-2" data-name="Rectangle 25389" width="79.63" height="79.631" fill="none"/>
    </clipPath>
    <clipPath id="clip-path-19">
      <rect id="Rectangle_25384-2" data-name="Rectangle 25384" width="38.819" height="41.183" fill="none"/>
    </clipPath>
    <clipPath id="clip-path-20">
      <rect id="Rectangle_25385-2" data-name="Rectangle 25385" width="60.535" height="60.536" fill="#0272d0"/>
    </clipPath>
    <clipPath id="clip-path-21">
      <rect id="Rectangle_25386-2" data-name="Rectangle 25386" width="59.723" height="59.723" fill="#0272d0"/>
    </clipPath>
    <clipPath id="clip-path-22">
      <rect id="Rectangle_25387-2" data-name="Rectangle 25387" width="20.989" height="36.675" fill="none"/>
    </clipPath>
    <clipPath id="clip-path-23">
      <rect id="Rectangle_25389-3" data-name="Rectangle 25389" width="56.936" height="56.936" fill="none"/>
    </clipPath>
    <clipPath id="clip-path-24">
      <rect id="Rectangle_25388-3" data-name="Rectangle 25388" width="56.935" height="56.936" fill="none"/>
    </clipPath>
    <clipPath id="clip-path-25">
      <rect id="Rectangle_25384-3" data-name="Rectangle 25384" width="27.756" height="29.446" fill="none"/>
    </clipPath>
    <clipPath id="clip-path-26">
      <rect id="Rectangle_25385-3" data-name="Rectangle 25385" width="43.283" height="43.283" fill="#0272d0"/>
    </clipPath>
    <clipPath id="clip-path-27">
      <rect id="Rectangle_25386-3" data-name="Rectangle 25386" width="42.702" height="42.702" fill="#0272d0"/>
    </clipPath>
    <clipPath id="clip-path-28">
      <rect id="Rectangle_25387-3" data-name="Rectangle 25387" width="15.007" height="26.222" fill="none"/>
    </clipPath>
  </defs>
  <g id="Group_50623" data-name="Group 50623" transform="translate(-677.986 -71.788)">
    <g id="Group_50030" data-name="Group 50030" transform="translate(677.986 71.788)">
      <g id="Group_50029" data-name="Group 50029" clip-path="url(#clip-path)">
        <g id="Group_49959" data-name="Group 49959">
          <g id="Group_49958" data-name="Group 49958" clip-path="url(#clip-path)">
            <path id="Path_53870" data-name="Path 53870" d="M144.361,35.129a25.919,25.919,0,1,1-29.484-21.706,25.89,25.89,0,0,1,29.484,21.706" transform="translate(-22.614 -3.199)" fill="#f5f5f5"/>
            <path id="Path_53871" data-name="Path 53871" d="M140.249,38.032a19.752,19.752,0,1,1-22.469-16.543,19.729,19.729,0,0,1,22.469,16.543" transform="translate(-24.601 -5.182)" fill="#ebebeb"/>
            <path id="Path_53872" data-name="Path 53872" d="M140.036,37.178a11.643,11.643,0,0,1-.871-2.271,20.966,20.966,0,0,0-3.155-5.646,20.2,20.2,0,0,0-3.121-3.159,19.752,19.752,0,0,0-4.329-2.645,18.34,18.34,0,0,0-2.578-.939,18.525,18.525,0,0,0-2.8-.579,19.187,19.187,0,0,0-2.956-.157,19.287,19.287,0,0,0-5.979,1.093,19.3,19.3,0,0,0-2.708,1.194,19.318,19.318,0,0,0-4.493,3.324,19.772,19.772,0,0,0-3.112,4.007,20.232,20.232,0,0,0-1.8,4.06,20.964,20.964,0,0,0-.949,6.4,11.534,11.534,0,0,1-.009,2.432,5.8,5.8,0,0,1-.579-2.4,18.264,18.264,0,0,1,.508-6.726,19.771,19.771,0,0,1,4.946-8.749,19.068,19.068,0,0,1,2.2-1.963,19.372,19.372,0,0,1,2.578-1.684,20.1,20.1,0,0,1,2.914-1.309,20.217,20.217,0,0,1,6.449-1.18,20.17,20.17,0,0,1,3.188.193,20.148,20.148,0,0,1,5.76,1.719,19.8,19.8,0,0,1,7.726,6.43,18.3,18.3,0,0,1,2.859,6.11,5.791,5.791,0,0,1,.308,2.447" transform="translate(-24.484 -4.94)" fill="#e0e0e0"/>
            <path id="Path_53873" data-name="Path 53873" d="M128.215,54.2l.562,3.4-3.031.5-.546-3.3a14.563,14.563,0,0,1-7.948-1.175l1.054-3.974a12.4,12.4,0,0,0,6.236,1.178l-.839-5.061c-3.5-.26-7.442-.76-8.159-5.094-.532-3.213,1.345-6.356,6.043-7.694l-.557-3.365,3.031-.5.547,3.3a13.885,13.885,0,0,1,6.457.83l-.9,3.978a12.6,12.6,0,0,0-4.9-.809l.854,5.153c3.494.23,7.377.74,8.084,5.013.522,3.152-1.33,6.261-5.993,7.624m-5.247-12.894-.713-4.3c-1.545.629-2.036,1.614-1.871,2.614.176,1.06,1.181,1.486,2.584,1.689m6.422,6.442c-.176-1.061-1.15-1.491-2.528-1.731l.692,4.183c1.46-.584,2-1.482,1.836-2.452" transform="translate(-28.132 -7.092)" fill="#e0e0e0"/>
            <path id="Path_53874" data-name="Path 53874" d="M356.221,223.76a15.906,15.906,0,1,1-18.094-13.321,15.888,15.888,0,0,1,18.094,13.321" transform="translate(-79.089 -51.232)" fill="#f5f5f5"/>
            <path id="Path_53875" data-name="Path 53875" d="M353.7,225.541a12.122,12.122,0,1,1-13.789-10.152A12.107,12.107,0,0,1,353.7,225.541" transform="translate(-80.308 -52.449)" fill="#ebebeb"/>
            <path id="Path_53876" data-name="Path 53876" d="M353.567,225.018a7.124,7.124,0,0,1-.534-1.394,12.88,12.88,0,0,0-1.936-3.465,12.441,12.441,0,0,0-1.915-1.939,12.15,12.15,0,0,0-2.658-1.623,11.879,11.879,0,0,0-3.3-.931,11.689,11.689,0,0,0-1.814-.1,11.831,11.831,0,0,0-3.669.671,11.821,11.821,0,0,0-1.662.732,11.377,11.377,0,0,0-1.481.941,11.209,11.209,0,0,0-1.276,1.1,12.136,12.136,0,0,0-1.91,2.459,12.424,12.424,0,0,0-1.1,2.492,12.845,12.845,0,0,0-.582,3.925,7.018,7.018,0,0,1-.006,1.491,3.557,3.557,0,0,1-.355-1.47,11.2,11.2,0,0,1,.312-4.127,12.138,12.138,0,0,1,3.036-5.369,11.587,11.587,0,0,1,1.349-1.2,11.831,11.831,0,0,1,1.583-1.034,12.324,12.324,0,0,1,1.788-.8,12.444,12.444,0,0,1,3.958-.725,12.384,12.384,0,0,1,1.957.119,12.337,12.337,0,0,1,3.535,1.055,12.14,12.14,0,0,1,4.741,3.946,11.214,11.214,0,0,1,1.755,3.749,3.555,3.555,0,0,1,.189,1.5" transform="translate(-80.236 -52.3)" fill="#e0e0e0"/>
            <path id="Path_53877" data-name="Path 53877" d="M346.313,235.466l.345,2.083-1.86.307-.335-2.027a8.943,8.943,0,0,1-4.878-.721l.647-2.438a7.626,7.626,0,0,0,3.827.723l-.514-3.106c-2.147-.16-4.568-.467-5.008-3.126-.326-1.972.826-3.9,3.708-4.722l-.341-2.066,1.86-.308.336,2.028a8.52,8.52,0,0,1,3.962.51l-.551,2.441a7.735,7.735,0,0,0-3.006-.5l.523,3.162c2.144.142,4.527.455,4.962,3.077.32,1.935-.817,3.842-3.678,4.679m-3.22-7.914-.437-2.64c-.948.386-1.25.99-1.149,1.6.108.65.725.912,1.586,1.036m3.941,3.953c-.108-.651-.706-.915-1.552-1.062l.425,2.566c.9-.358,1.225-.909,1.127-1.5" transform="translate(-82.475 -53.621)" fill="#e0e0e0"/>
            <path id="Path_53878" data-name="Path 53878" d="M55.5,242.736a21.579,21.579,0,1,1-24.547-18.072A21.555,21.555,0,0,1,55.5,242.736" transform="translate(-3.065 -54.682)" fill="#f5f5f5"/>
            <path id="Path_53879" data-name="Path 53879" d="M52.073,245.153A16.445,16.445,0,1,1,33.367,231.38a16.426,16.426,0,0,1,18.707,13.773" transform="translate(-4.719 -56.333)" fill="#ebebeb"/>
            <path id="Path_53880" data-name="Path 53880" d="M51.895,244.442a9.734,9.734,0,0,1-.725-1.891,17.467,17.467,0,0,0-2.627-4.7,16.822,16.822,0,0,0-2.6-2.63,16.462,16.462,0,0,0-3.6-2.2,16.138,16.138,0,0,0-4.478-1.263,15.924,15.924,0,0,0-2.46-.131,16.062,16.062,0,0,0-4.978.911,16.128,16.128,0,0,0-2.255.993,16.128,16.128,0,0,0-3.74,2.767,16.438,16.438,0,0,0-2.59,3.336,16.855,16.855,0,0,0-1.5,3.38,17.46,17.46,0,0,0-.79,5.326,9.583,9.583,0,0,1-.008,2.024,4.833,4.833,0,0,1-.482-2,15.193,15.193,0,0,1,.423-5.6,16.478,16.478,0,0,1,4.118-7.284,15.859,15.859,0,0,1,1.832-1.634,16.13,16.13,0,0,1,2.146-1.4,16.709,16.709,0,0,1,2.426-1.09,16.847,16.847,0,0,1,5.369-.982,16.825,16.825,0,0,1,2.655.16,16.741,16.741,0,0,1,4.8,1.432,16.472,16.472,0,0,1,6.432,5.353,15.217,15.217,0,0,1,2.38,5.087,4.827,4.827,0,0,1,.256,2.037" transform="translate(-4.621 -56.132)" fill="#e0e0e0"/>
            <path id="Path_53881" data-name="Path 53881" d="M42.053,258.616l.468,2.826L40,261.86l-.455-2.75a12.123,12.123,0,0,1-6.616-.978l.877-3.309A10.335,10.335,0,0,0,39,255.8l-.7-4.214c-2.913-.217-6.2-.632-6.794-4.242-.442-2.674,1.12-5.292,5.032-6.405l-.464-2.8,2.523-.418.455,2.751a11.555,11.555,0,0,1,5.376.691l-.747,3.313A10.492,10.492,0,0,0,39.6,243.8l.711,4.291c2.909.191,6.142.616,6.731,4.173.434,2.624-1.107,5.213-4.99,6.348m-4.369-10.735-.594-3.583c-1.287.524-1.7,1.344-1.558,2.177.147.883.982,1.237,2.152,1.406m5.347,5.363c-.147-.883-.958-1.241-2.1-1.441l.576,3.482c1.215-.486,1.662-1.234,1.529-2.041" transform="translate(-7.658 -57.924)" fill="#e0e0e0"/>
            <path id="Path_53882" data-name="Path 53882" d="M361.739,134.969,229.967,93.952a6.42,6.42,0,0,1-4.222-8.038l25.338-81.4A6.42,6.42,0,0,1,259.121.292L390.893,41.311a6.419,6.419,0,0,1,4.221,8.037l-25.337,81.4a6.421,6.421,0,0,1-8.038,4.222" transform="translate(-54.934 0)" fill="#e0e0e0"/>
            <path id="Path_53883" data-name="Path 53883" d="M253,82.072l-2.489,8-.822-.256,2.261-7.264-1.884-.587.228-.731Z" transform="translate(-60.84 -19.793)" fill="#fff"/>
            <path id="Path_53884" data-name="Path 53884" d="M260.069,92.595l-.227.731-5.608-1.746.182-.583,4.337-2.221c1.179-.61,1.518-1.093,1.689-1.641.288-.926-.185-1.7-1.407-2.079a2.848,2.848,0,0,0-2.46.211l-.425-.684a3.764,3.764,0,0,1,3.188-.26c1.622.5,2.395,1.647,1.978,2.984-.237.765-.691,1.376-2.092,2.093l-3.551,1.826Z" transform="translate(-61.947 -20.491)" fill="#fff"/>
            <path id="Path_53885" data-name="Path 53885" d="M271.409,94.815l-1.6-.5-.653,2.1-.822-.256.654-2.1-4.512-1.4.185-.594,5.888-3.981.914.284-5.7,3.89,3.472,1.082.576-1.851.8.249-.576,1.85,1.6.5Z" transform="translate(-64.442 -21.462)" fill="#fff"/>
            <path id="Path_53886" data-name="Path 53886" d="M287.61,99.858l-1.6-.5-.654,2.1-.822-.256.654-2.1-4.512-1.4.185-.594,5.887-3.981.914.284-5.7,3.89,3.472,1.081.576-1.85.8.249-.576,1.85,1.6.5Z" transform="translate(-68.39 -22.691)" fill="#fff"/>
            <path id="Path_53887" data-name="Path 53887" d="M297.189,102.272c-.423,1.359-1.7,2.126-3.655,1.519a4.32,4.32,0,0,1-2.547-1.921l.6-.526a3.631,3.631,0,0,0,2.168,1.69c1.359.423,2.285-.016,2.587-.987.32-1.027-.122-1.866-2.154-2.5l-1.7-.529,1.659-3.882,4.375,1.361-.228.731-3.655-1.138-1.066,2.462,1.028.32c2.41.75,3.029,1.982,2.588,3.4" transform="translate(-70.902 -23.181)" fill="#fff"/>
            <path id="Path_53888" data-name="Path 53888" d="M307.768,105.646a2.609,2.609,0,0,1-3.5,1.606c-2.124-.661-2.82-2.494-2.034-5.018.847-2.718,2.772-3.673,4.942-3a3.839,3.839,0,0,1,1.762,1.024l-.539.559a2.934,2.934,0,0,0-1.435-.859c-1.724-.537-3.178.225-3.854,2.4-.057.182-.116.414-.168.661a2.675,2.675,0,0,1,2.871-.609,2.535,2.535,0,0,1,1.949,3.237m-.819-.23a1.839,1.839,0,0,0-1.473-2.351,1.844,1.844,0,1,0-1.02,3.478,1.83,1.83,0,0,0,2.493-1.128" transform="translate(-73.567 -24.129)" fill="#fff"/>
            <path id="Path_53889" data-name="Path 53889" d="M322.079,110.018c-.415,1.336-1.706,2.063-3.636,1.462a4.352,4.352,0,0,1-2.559-1.925l.6-.526a3.669,3.669,0,0,0,2.191,1.7c1.324.412,2.249.023,2.557-.97.3-.959-.179-1.8-1.664-2.259l-.571-.178.188-.606,3.081-2.085-4.089-1.273.228-.731,5.139,1.6-.182.583-3.147,2.14c1.686.626,2.261,1.794,1.862,3.073" transform="translate(-76.969 -25.005)" fill="#fff"/>
            <path id="Path_53890" data-name="Path 53890" d="M332.83,113.448a2.608,2.608,0,0,1-3.493,1.606c-2.125-.662-2.82-2.494-2.034-5.019.846-2.718,2.772-3.672,4.941-3a3.846,3.846,0,0,1,1.762,1.024l-.538.56a2.929,2.929,0,0,0-1.436-.86c-1.724-.537-3.177.225-3.853,2.4-.057.182-.117.414-.169.661a2.676,2.676,0,0,1,2.871-.609,2.533,2.533,0,0,1,1.948,3.237m-.817-.23a1.839,1.839,0,0,0-1.473-2.35,1.844,1.844,0,1,0-1.021,3.478,1.832,1.832,0,0,0,2.494-1.128" transform="translate(-79.675 -26.03)" fill="#fff"/>
            <path id="Path_53891" data-name="Path 53891" d="M344.578,110.6l-.182.583-5.654,6.371-.892-.278,5.551-6.24-4.112-1.28-.466,1.5-.81-.252.694-2.227Z" transform="translate(-82.321 -26.504)" fill="#fff"/>
            <path id="Path_53892" data-name="Path 53892" d="M359.691,115.307l-.182.583-5.654,6.371-.891-.277,5.551-6.241-4.112-1.28-.466,1.5-.81-.253.694-2.227Z" transform="translate(-86.004 -27.651)" fill="#fff"/>
            <path id="Path_53893" data-name="Path 53893" d="M367.855,124.5c-.44,1.416-1.913,1.923-3.82,1.329s-2.811-1.839-2.37-3.256a2.09,2.09,0,0,1,2.153-1.485,1.89,1.89,0,0,1-.709-2.15c.405-1.3,1.766-1.769,3.456-1.243s2.569,1.69,2.163,2.991a1.9,1.9,0,0,1-1.826,1.361,2.109,2.109,0,0,1,.951,2.452m-.84-.275c.306-.982-.349-1.862-1.765-2.3s-2.442-.083-2.748.9.334,1.87,1.749,2.311,2.454.088,2.764-.906m-1.563-2.954c1.246.388,2.162.059,2.432-.809.281-.9-.337-1.7-1.535-2.069s-2.146-.067-2.423.824.282,1.666,1.527,2.053" transform="translate(-88.097 -28.626)" fill="#fff"/>
            <path id="Path_53894" data-name="Path 53894" d="M378.751,125.855c-.846,2.718-2.773,3.672-4.941,3a3.845,3.845,0,0,1-1.762-1.025l.536-.559a2.949,2.949,0,0,0,1.437.859c1.724.537,3.178-.225,3.853-2.4.057-.182.117-.414.169-.661a2.677,2.677,0,0,1-2.872.609,2.534,2.534,0,0,1-1.948-3.237,2.608,2.608,0,0,1,3.493-1.606c2.125.662,2.82,2.494,2.035,5.019m-.637-1.94a1.944,1.944,0,0,0-1.579-2.37,1.829,1.829,0,1,0-1.02,3.478,1.938,1.938,0,0,0,2.6-1.108" transform="translate(-90.654 -29.403)" fill="#fff"/>
            <path id="Path_53895" data-name="Path 53895" d="M392.18,125.395l-2.489,8-.822-.256,2.261-7.265-1.885-.586.228-.731Z" transform="translate(-94.752 -30.348)" fill="#fff"/>
            <path id="Path_53896" data-name="Path 53896" d="M399.248,135.917l-.227.731-5.608-1.746.182-.583,4.337-2.221c1.179-.61,1.519-1.093,1.689-1.642.288-.925-.186-1.7-1.408-2.078a2.839,2.839,0,0,0-2.459.212l-.427-.684a3.762,3.762,0,0,1,3.189-.26c1.622.5,2.394,1.647,1.979,2.984-.239.765-.692,1.376-2.093,2.092l-3.551,1.827Z" transform="translate(-95.859 -31.047)" fill="#fff"/>
            <path id="Path_53897" data-name="Path 53897" d="M409.258,137.156c-.415,1.336-1.706,2.063-3.638,1.461a4.349,4.349,0,0,1-2.556-1.924l.6-.526a3.667,3.667,0,0,0,2.19,1.7c1.325.413,2.249.023,2.557-.97.3-.959-.18-1.8-1.663-2.259l-.571-.178.188-.606,3.08-2.085-4.09-1.273.228-.731,5.14,1.6-.181.582-3.147,2.14c1.685.626,2.26,1.794,1.862,3.073" transform="translate(-98.211 -31.617)" fill="#fff"/>
            <rect id="Rectangle_25345" data-name="Rectangle 25345" width="3.636" height="67.074" transform="translate(246.009 98.107) rotate(-72.707)" fill="#fff"/>
            <rect id="Rectangle_25346" data-name="Rectangle 25346" width="3.637" height="34.402" transform="translate(275.048 114.751) rotate(-72.707)" fill="#fff"/>
            <g id="Group_49957" data-name="Group 49957" transform="translate(190.375 34.739)" opacity="0.5">
              <g id="Group_49956" data-name="Group 49956">
                <g id="Group_49955" data-name="Group 49955" clip-path="url(#clip-path-3)">
                  <path id="Path_53898" data-name="Path 53898" d="M274.049,72.309l-19.7-6.133a3.755,3.755,0,0,1-2.469-4.7l4.018-12.905a3.754,3.754,0,0,1,4.7-2.469l19.7,6.133a3.754,3.754,0,0,1,2.469,4.7L278.75,69.84a3.755,3.755,0,0,1-4.7,2.469" transform="translate(-251.706 -45.93)" fill="#ebebeb"/>
                </g>
              </g>
            </g>
            <path id="Path_53899" data-name="Path 53899" d="M252.743,61.178l.4-1.287L266.98,64.2a3.033,3.033,0,1,0,1.8-5.792L254.947,54.1l.4-1.288,13.835,4.307a4.382,4.382,0,1,1-2.6,8.367Z" transform="translate(-61.584 -12.868)" fill="#e0e0e0"/>
            <rect id="Rectangle_25348" data-name="Rectangle 25348" width="1.349" height="9.946" transform="translate(209.639 50.174) rotate(-72.643)" fill="#e0e0e0"/>
            <rect id="Rectangle_25349" data-name="Rectangle 25349" width="6.212" height="72.379" transform="matrix(0.297, -0.955, 0.955, 0.297, 202.148, 24.194)" fill="#fff"/>
            <path id="Path_53900" data-name="Path 53900" d="M415.895,79.7l-9.361-2.914a2.383,2.383,0,0,1-1.566-2.982l2.915-9.361a2.382,2.382,0,0,1,2.982-1.566l9.361,2.914a2.382,2.382,0,0,1,1.566,2.982l-2.914,9.361a2.382,2.382,0,0,1-2.982,1.566" transform="translate(-98.648 -15.293)" fill="#fff"/>
          </g>
        </g>
        <g id="Group_49961" data-name="Group 49961">
          <g id="Group_49960" data-name="Group 49960" clip-path="url(#clip-path)">
            <path id="Path_53901" data-name="Path 53901" d="M343.022,443.195c0,.109-76.794.2-171.5.2-94.742,0-171.52-.088-171.52-.2s76.777-.2,171.52-.2c94.708,0,171.5.088,171.5.2" transform="translate(0 -107.941)" fill="#263238"/>
          </g>
        </g>
        <g id="Group_49969" data-name="Group 49969">
          <g id="Group_49968" data-name="Group 49968" clip-path="url(#clip-path)">
            <path id="Path_53902" data-name="Path 53902" d="M125.565,409.644H19.876a6.622,6.622,0,0,1-6.622-6.622v-91a6.622,6.622,0,0,1,6.622-6.622H125.565a6.623,6.623,0,0,1,6.623,6.622v91a6.623,6.623,0,0,1-6.623,6.622" transform="translate(-3.229 -74.414)" fill="#455a64"/>
            <g id="Group_49964" data-name="Group 49964" transform="translate(10.025 296.33)" opacity="0.3">
              <g id="Group_49963" data-name="Group 49963">
                <g id="Group_49962" data-name="Group 49962" clip-path="url(#clip-path-6)">
                  <path id="Path_53903" data-name="Path 53903" d="M13.254,394.811H56.576a3.015,3.015,0,0,0,3.015-3.015H13.375Z" transform="translate(-13.254 -391.796)"/>
                </g>
              </g>
            </g>
            <path id="Path_53904" data-name="Path 53904" d="M56.578,383.574H12.813A3.771,3.771,0,0,1,9.042,379.8V360.291a3.771,3.771,0,0,1,3.771-3.77H56.578a3.771,3.771,0,0,1,3.771,3.77V379.8a3.771,3.771,0,0,1-3.771,3.771" transform="translate(-2.203 -86.87)" fill="#455a64"/>
            <path id="Path_53905" data-name="Path 53905" d="M56.514,383.51a4.525,4.525,0,0,0,1.47-.341,3.836,3.836,0,0,0,1.427-1.112,3.74,3.74,0,0,0,.8-2.3c-.014-3.819-.036-9.314-.061-16.1q0-1.275-.007-2.609a10.972,10.972,0,0,0-.042-1.326,3.6,3.6,0,0,0-2.47-2.932,4.137,4.137,0,0,0-1.392-.173l-1.485,0-12.759.017-29.237.016a3.585,3.585,0,0,0-3.054,1.72,3.489,3.489,0,0,0-.517,1.717c-.014.621,0,1.265-.008,1.894q0,3.788,0,7.46t0,7.2c.008,1.168-.022,2.36.017,3.471a3.6,3.6,0,0,0,3.148,3.19c.514.051,1.092.017,1.631.028l3.239,0,6.194.01,11.117.024,16.1.063,4.376.037,1.138.019c.256.007.388.02.388.02s-.132.014-.388.02l-1.138.019-4.376.037-16.1.063-11.117.024-6.194.01-3.239,0c-.554-.011-1.082.027-1.673-.027a3.96,3.96,0,0,1-3.475-3.507c-.045-1.187-.014-2.325-.025-3.509q0-3.528,0-7.2t0-7.46c0-.635-.008-1.258.007-1.908a3.89,3.89,0,0,1,.573-1.908,3.982,3.982,0,0,1,3.391-1.909l29.237.016,12.759.018,1.485,0a4.438,4.438,0,0,1,1.489.194,3.924,3.924,0,0,1,2.223,1.839,3.881,3.881,0,0,1,.445,1.352,11.028,11.028,0,0,1,.039,1.367q0,1.334-.006,2.609c-.027,6.784-.048,12.281-.064,16.1a3.819,3.819,0,0,1-2.346,3.484,3.912,3.912,0,0,1-1.111.269c-.258.007-.39,0-.39,0" transform="translate(-2.14 -86.807)" fill="#263238"/>
            <g id="Group_49967" data-name="Group 49967" transform="translate(37.904 278.512)" opacity="0.3">
              <g id="Group_49966" data-name="Group 49966">
                <g id="Group_49965" data-name="Group 49965" clip-path="url(#clip-path-7)">
                  <path id="Path_53906" data-name="Path 53906" d="M65.306,375.833a7.6,7.6,0,1,1-7.6-7.6,7.6,7.6,0,0,1,7.6,7.6" transform="translate(-50.115 -368.237)"/>
                </g>
              </g>
            </g>
            <path id="Path_53907" data-name="Path 53907" d="M65.306,372.337a7.6,7.6,0,1,1-7.6-7.6,7.6,7.6,0,0,1,7.6,7.6" transform="translate(-12.211 -88.873)" fill="#ebebeb"/>
            <path id="Path_53908" data-name="Path 53908" d="M65.243,372.285a17.062,17.062,0,0,0-.312-1.836,7.571,7.571,0,0,0-2.773-4.091,7.434,7.434,0,0,0-7.036-1.036,7.439,7.439,0,0,0-3.436,2.587,7.38,7.38,0,0,0,0,8.75,7.432,7.432,0,0,0,3.437,2.588,7.435,7.435,0,0,0,7.037-1.036,7.574,7.574,0,0,0,2.772-4.091,17.058,17.058,0,0,0,.312-1.836,5.825,5.825,0,0,1-.163,1.873,7.556,7.556,0,0,1-2.752,4.275,7.646,7.646,0,0,1-3.248,1.474A7.765,7.765,0,0,1,55,379.59a7.764,7.764,0,0,1-3.624-2.7,7.732,7.732,0,0,1,0-9.207,7.764,7.764,0,0,1,3.623-2.7,7.757,7.757,0,0,1,4.081-.318,7.651,7.651,0,0,1,3.248,1.473,7.558,7.558,0,0,1,2.752,4.275,5.829,5.829,0,0,1,.163,1.873" transform="translate(-12.148 -88.821)" fill="#263238"/>
          </g>
        </g>
        <g id="Group_50018" data-name="Group 50018">
          <g id="Group_50017" data-name="Group 50017" clip-path="url(#clip-path)">
            <path id="Path_54017" data-name="Path 54017" d="M276.307,345.686l-102.453-.474A22.317,22.317,0,0,1,151.64,322.8L152.725,65.95a22.318,22.318,0,0,1,22.42-22.223L277.6,44.2a22.319,22.319,0,0,1,22.214,22.412l-1.086,256.852a22.317,22.317,0,0,1-22.42,22.223" transform="translate(-36.949 -10.654)" fill="#263238"/>
            <path id="Path_54018" data-name="Path 54018" d="M279.644,55.92l-19.864-.092-58.013-.268-6.986-.033-17.385-.08a15.629,15.629,0,0,0-15.7,15.564l-1.06,250.705a15.63,15.63,0,0,0,15.558,15.7l102.248.472a15.63,15.63,0,0,0,15.7-15.563L295.2,71.615a15.631,15.631,0,0,0-15.558-15.7" transform="translate(-39.14 -13.51)" fill="#fafafa"/>
            <path id="Path_54019" data-name="Path 54019" d="M318.163,85.783a1.279,1.279,0,1,1-1.274-1.284,1.279,1.279,0,0,1,1.274,1.284" transform="translate(-76.9 -20.589)" fill="#263238"/>
            <path id="Path_54020" data-name="Path 54020" d="M318.14,91.868a1.279,1.279,0,1,1-1.274-1.284,1.28,1.28,0,0,1,1.274,1.284" transform="translate(-76.895 -22.072)" fill="#263238"/>
            <path id="Path_54021" data-name="Path 54021" d="M318.117,97.953a1.279,1.279,0,1,1-1.274-1.284,1.279,1.279,0,0,1,1.274,1.284" transform="translate(-76.889 -23.554)" fill="#263238"/>
            <path id="Path_54022" data-name="Path 54022" d="M290.875,213.1H188.389a3.252,3.252,0,0,1-3.252-3.252v-62.64a3.251,3.251,0,0,1,3.252-3.252H290.875a3.251,3.251,0,0,1,3.252,3.252v62.64a3.252,3.252,0,0,1-3.252,3.252" transform="translate(-45.111 -35.078)" fill="#ebebeb"/>
            <path id="Path_54023" data-name="Path 54023" d="M286.914,207.171H184.428a3.252,3.252,0,0,1-3.252-3.252v-62.64a3.253,3.253,0,0,1,3.252-3.252H286.914a3.253,3.253,0,0,1,3.252,3.252v62.64a3.252,3.252,0,0,1-3.252,3.252" transform="translate(-44.145 -33.632)" fill="#e0e0e0"/>
            <path id="Path_54024" data-name="Path 54024" d="M282.343,202.237H179.857a3.252,3.252,0,0,1-3.252-3.252v-62.64a3.252,3.252,0,0,1,3.252-3.252H282.343a3.252,3.252,0,0,1,3.252,3.252v62.64a3.252,3.252,0,0,1-3.252,3.252" transform="translate(-43.032 -32.43)" fill="#0272d0"/>
            <path id="Path_54025" data-name="Path 54025" d="M198.824,152.777c0,.885-.7,1.4-2.047,1.4h-2.646v-5.116h2.5c1.28,0,1.937.533,1.937,1.33a1.231,1.231,0,0,1-.679,1.125,1.262,1.262,0,0,1,.936,1.264m-3.516-2.829v1.206h1.177c.577,0,.892-.2.892-.607s-.315-.6-.892-.6Zm2.324,2.7c0-.431-.328-.635-.943-.635h-1.381v1.264h1.381c.615,0,.943-.19.943-.629" transform="translate(-47.302 -36.319)" fill="#fff"/>
            <path id="Path_54026" data-name="Path 54026" d="M204.672,153.077H202.3l-.454,1.1h-1.213l2.28-5.116h1.17l2.288,5.116h-1.243Zm-.373-.9-.812-1.959-.811,1.959Z" transform="translate(-48.885 -36.319)" fill="#fff"/>
            <path id="Path_54027" data-name="Path 54027" d="M213.608,149.056v5.117h-.973l-2.55-3.107v3.107h-1.17v-5.117h.98l2.543,3.106v-3.106Z" transform="translate(-50.904 -36.319)" fill="#fff"/>
            <path id="Path_54028" data-name="Path 54028" d="M218.581,152.163l-.687.716v1.294h-1.178v-5.117h1.178v2.39l2.265-2.39h1.315l-2.119,2.28,2.243,2.836h-1.381Z" transform="translate(-52.805 -36.319)" fill="#fff"/>
            <path id="Path_54029" data-name="Path 54029" d="M197.757,180.988h-.939v1.234h-.483v-1.234h-2.65v-.349l2.488-3.113h.538l-2.4,3.032h2.04v-1.086h.469v1.086h.939Z" transform="translate(-47.193 -43.256)" fill="#fff"/>
            <path id="Path_54030" data-name="Path 54030" d="M202.534,180.874c0,.785-.57,1.389-1.7,1.389a2.446,2.446,0,0,1-1.691-.6l.235-.383a2.056,2.056,0,0,0,1.456.544c.778,0,1.208-.363,1.208-.946,0-.563-.4-.933-1.269-.933h-.335v-.355l1.3-1.631h-2.4v-.43h3.019v.343l-1.328,1.671c1.007.054,1.51.584,1.51,1.335" transform="translate(-48.522 -43.256)" fill="#fff"/>
            <path id="Path_54031" data-name="Path 54031" d="M207.557,180.84c0,.8-.557,1.422-1.7,1.422a2.424,2.424,0,0,1-1.684-.6l.235-.383a2.032,2.032,0,0,0,1.442.544c.8,0,1.221-.389,1.221-.96,0-.6-.375-.979-1.57-.979h-1l.242-2.354h2.569v.43h-2.147l-.161,1.5h.6c1.415,0,1.952.557,1.952,1.389" transform="translate(-49.748 -43.256)" fill="#fff"/>
            <path id="Path_54032" data-name="Path 54032" d="M212.984,180.808a1.464,1.464,0,0,1-1.6,1.442c-1.247,0-1.926-.864-1.926-2.348,0-1.6.873-2.429,2.147-2.429a2.154,2.154,0,0,1,1.114.255l-.2.389a1.644,1.644,0,0,0-.912-.22c-1.013,0-1.664.65-1.664,1.924,0,.107.007.242.02.383a1.5,1.5,0,0,1,1.436-.8,1.422,1.422,0,0,1,1.584,1.408m-.477.013c0-.617-.455-1.013-1.181-1.013a1.087,1.087,0,0,0-1.207,1.027c0,.517.43,1.006,1.24,1.006a1.027,1.027,0,0,0,1.147-1.02" transform="translate(-51.036 -43.243)" fill="#fff"/>
            <path id="Path_54033" data-name="Path 54033" d="M226.642,182.6l-1.12-1.476-1.127,1.476h-.537l1.4-1.811-1.328-1.718h.537l1.06,1.382,1.06-1.382h.524l-1.329,1.718,1.409,1.811Z" transform="translate(-54.545 -43.632)" fill="#fff"/>
            <path id="Path_54034" data-name="Path 54034" d="M231.379,182.6l-1.12-1.476-1.127,1.476h-.537l1.4-1.811-1.328-1.718h.537l1.06,1.382,1.06-1.382h.524l-1.329,1.718,1.409,1.811Z" transform="translate(-55.7 -43.632)" fill="#fff"/>
            <path id="Path_54035" data-name="Path 54035" d="M236.115,182.6l-1.12-1.476-1.127,1.476h-.537l1.4-1.811-1.329-1.718h.537l1.06,1.382,1.06-1.382h.524l-1.329,1.718,1.409,1.811Z" transform="translate(-56.854 -43.632)" fill="#fff"/>
            <path id="Path_54036" data-name="Path 54036" d="M240.851,182.6l-1.12-1.476L238.6,182.6h-.537l1.4-1.811-1.329-1.718h.537l1.06,1.382,1.06-1.382h.524l-1.329,1.718L241.4,182.6Z" transform="translate(-58.008 -43.632)" fill="#fff"/>
            <path id="Path_54037" data-name="Path 54037" d="M257.206,182.6l-1.12-1.476-1.127,1.476h-.537l1.4-1.811-1.328-1.718h.537l1.06,1.382,1.06-1.382h.524l-1.329,1.718,1.409,1.811Z" transform="translate(-61.993 -43.632)" fill="#fff"/>
            <path id="Path_54038" data-name="Path 54038" d="M261.942,182.6l-1.12-1.476-1.127,1.476h-.537l1.4-1.811-1.328-1.718h.537l1.06,1.382,1.06-1.382h.523l-1.328,1.718,1.409,1.811Z" transform="translate(-63.147 -43.632)" fill="#fff"/>
            <path id="Path_54039" data-name="Path 54039" d="M266.679,182.6l-1.12-1.476-1.127,1.476h-.537l1.4-1.811-1.328-1.718h.537l1.06,1.382,1.06-1.382h.523l-1.328,1.718,1.409,1.811Z" transform="translate(-64.301 -43.632)" fill="#fff"/>
            <path id="Path_54040" data-name="Path 54040" d="M271.415,182.6l-1.12-1.476-1.127,1.476h-.537l1.4-1.811-1.329-1.718h.538l1.06,1.382,1.06-1.382h.523l-1.328,1.718,1.409,1.811Z" transform="translate(-65.455 -43.632)" fill="#fff"/>
            <path id="Path_54041" data-name="Path 54041" d="M286.488,177.526v4.7h-.483v-4.266H284.9v-.43Z" transform="translate(-69.419 -43.256)" fill="#fff"/>
            <path id="Path_54042" data-name="Path 54042" d="M291.493,180.874c0,.785-.57,1.389-1.7,1.389a2.446,2.446,0,0,1-1.691-.6l.235-.383a2.056,2.056,0,0,0,1.456.544c.778,0,1.208-.363,1.208-.946,0-.563-.4-.933-1.268-.933h-.336v-.355l1.3-1.631h-2.4v-.43h3.019v.343l-1.328,1.671c1.007.054,1.51.584,1.51,1.335" transform="translate(-70.198 -43.256)" fill="#fff"/>
            <path id="Path_54043" data-name="Path 54043" d="M297.449,180.988h-.939v1.234h-.483v-1.234h-2.65v-.349l2.488-3.113h.538l-2.4,3.032h2.04v-1.086h.469v1.086h.939Z" transform="translate(-71.484 -43.256)" fill="#fff"/>
            <path id="Path_54044" data-name="Path 54044" d="M302.443,181.78v.43h-3.294v-.342l1.952-1.913c.53-.523.631-.839.631-1.161,0-.543-.382-.878-1.1-.878a1.592,1.592,0,0,0-1.281.523l-.343-.294a2.111,2.111,0,0,1,1.664-.672c.953,0,1.557.483,1.557,1.268a1.931,1.931,0,0,1-.771,1.469l-1.6,1.57Z" transform="translate(-72.857 -43.243)" fill="#fff"/>
            <path id="Path_54045" data-name="Path 54045" d="M190.491,196.25a1.234,1.234,0,0,1,2.139-.762l-.334.307a.72.72,0,0,0-.563-.262.717.717,0,0,0,0,1.434.714.714,0,0,0,.563-.265l.334.307a1.232,1.232,0,0,1-2.139-.759" transform="translate(-46.415 -47.536)" fill="#fff"/>
            <path id="Path_54046" data-name="Path 54046" d="M195.107,196.9h-1.04l-.2.48h-.531l1-2.241h.512l1,2.241h-.544Zm-.163-.394-.355-.858-.355.858Z" transform="translate(-47.109 -47.548)" fill="#fff"/>
            <path id="Path_54047" data-name="Path 54047" d="M198.4,197.383l-.432-.624h-.477v.624h-.518v-2.241h.97c.6,0,.973.311.973.813a.728.728,0,0,1-.461.708l.5.72Zm-.486-1.818h-.423v.781h.423c.317,0,.477-.147.477-.391s-.16-.39-.477-.39" transform="translate(-47.995 -47.548)" fill="#fff"/>
            <path id="Path_54048" data-name="Path 54048" d="M199.856,197.15l.176-.39a1.315,1.315,0,0,0,.74.234c.307,0,.432-.1.432-.241,0-.419-1.3-.131-1.3-.964,0-.381.307-.7.944-.7a1.5,1.5,0,0,1,.778.2l-.16.394a1.265,1.265,0,0,0-.621-.176c-.308,0-.426.115-.426.256,0,.413,1.3.129,1.3.951,0,.375-.311.7-.951.7a1.6,1.6,0,0,1-.912-.259" transform="translate(-48.697 -47.536)" fill="#fff"/>
            <path id="Path_54049" data-name="Path 54049" d="M206.049,195.142v2.241h-.518v-.919h-1.019v.919h-.518v-2.241h.518v.883h1.019v-.883Z" transform="translate(-49.705 -47.548)" fill="#fff"/>
            <path id="Path_54050" data-name="Path 54050" d="M207.232,196.25a1.228,1.228,0,1,1,1.227,1.159,1.16,1.16,0,0,1-1.227-1.159m1.927,0a.7.7,0,1,0-.7.717.683.683,0,0,0,.7-.717" transform="translate(-50.494 -47.536)" fill="#fff"/>
            <path id="Path_54051" data-name="Path 54051" d="M211,195.142h.518v1.818h1.124v.423H211Z" transform="translate(-51.412 -47.548)" fill="#fff"/>
            <path id="Path_54052" data-name="Path 54052" d="M213.558,195.142h1.018a1.126,1.126,0,1,1,0,2.241h-1.018Zm.992,1.815a.7.7,0,1,0,0-1.389h-.473v1.389Z" transform="translate(-52.036 -47.548)" fill="#fff"/>
            <path id="Path_54053" data-name="Path 54053" d="M218.795,196.967v.416h-1.735v-2.241h1.693v.416h-1.178v.487h1.04v.4h-1.04v.519Z" transform="translate(-52.889 -47.548)" fill="#fff"/>
            <path id="Path_54054" data-name="Path 54054" d="M221.332,197.383l-.433-.624h-.477v.624H219.9v-2.241h.969c.6,0,.973.311.973.813a.728.728,0,0,1-.461.708l.5.72Zm-.487-1.818h-.423v.781h.423c.317,0,.477-.147.477-.391s-.16-.39-.477-.39" transform="translate(-53.582 -47.548)" fill="#fff"/>
            <path id="Path_54055" data-name="Path 54055" d="M221.854,208.343H191.011a1.2,1.2,0,0,1-1.2-1.2v-.472a1.2,1.2,0,0,1,1.2-1.2h30.843a1.2,1.2,0,0,1,1.2,1.2v.472a1.2,1.2,0,0,1-1.2,1.2" transform="translate(-46.249 -50.065)" fill="#fff"/>
            <path id="Path_54056" data-name="Path 54056" d="M299.259,208.343H283.194a1.2,1.2,0,0,1-1.2-1.2v-.472a1.2,1.2,0,0,1,1.2-1.2h16.065a1.2,1.2,0,0,1,1.2,1.2v.472a1.2,1.2,0,0,1-1.2,1.2" transform="translate(-68.711 -50.065)" fill="#fff"/>
            <g id="Group_50016" data-name="Group 50016" transform="translate(133.573 100.663)" opacity="0.2">
              <g id="Group_50015" data-name="Group 50015">
                <g id="Group_50014" data-name="Group 50014" clip-path="url(#clip-path-9)">
                  <path id="Path_54057" data-name="Path 54057" d="M281.983,133.093H180.216A3.611,3.611,0,0,0,176.6,136.7v18.258c6.432,4.484,15.261,5.272,23.1,3.634,9.236-1.931,17.6-6.653,26.2-10.524s18.057-6.979,27.357-5.384c8.776,1.5,16.257,6.971,24.189,11.016a47.094,47.094,0,0,0,8.143,3.281V136.7a3.61,3.61,0,0,0-3.611-3.611" transform="translate(-176.605 -133.093)" fill="#fff"/>
                </g>
              </g>
            </g>
            <path id="Path_54058" data-name="Path 54058" d="M201.269,288.425H186.26a6.642,6.642,0,0,1-6.642-6.642V266.774a6.642,6.642,0,0,1,6.642-6.642h15.009a6.642,6.642,0,0,1,6.642,6.642v15.009a6.642,6.642,0,0,1-6.642,6.642" transform="translate(-43.766 -63.384)" fill="#0fa7ff"/>
            <path id="Path_54059" data-name="Path 54059" d="M198.361,281.3h-6.182a.366.366,0,0,1-.355-.276l-2.287-9.1H187.39a.365.365,0,0,1,0-.731h2.431a.365.365,0,0,1,.354.276l2.288,9.1h5.9a.365.365,0,1,1,0,.731" transform="translate(-45.571 -66.08)" fill="#fff"/>
            <path id="Path_54060" data-name="Path 54060" d="M196.172,286.495a1.159,1.159,0,1,1-1.159-1.159,1.159,1.159,0,0,1,1.159,1.159" transform="translate(-47.235 -69.525)" fill="#0fa7ff"/>
            <path id="Path_54061" data-name="Path 54061" d="M194.9,287.9a1.524,1.524,0,1,1,1.524-1.523A1.525,1.525,0,0,1,194.9,287.9m0-2.317a.793.793,0,1,0,.793.793.795.795,0,0,0-.793-.793" transform="translate(-47.118 -69.408)" fill="#fff"/>
            <path id="Path_54062" data-name="Path 54062" d="M204.675,286.495a1.159,1.159,0,1,1-1.159-1.159,1.159,1.159,0,0,1,1.159,1.159" transform="translate(-49.307 -69.525)" fill="#0fa7ff"/>
            <path id="Path_54063" data-name="Path 54063" d="M203.4,287.9a1.524,1.524,0,1,1,1.524-1.523A1.525,1.525,0,0,1,203.4,287.9m0-2.317a.793.793,0,1,0,.793.793.795.795,0,0,0-.793-.793" transform="translate(-49.189 -69.408)" fill="#fff"/>
            <path id="Path_54064" data-name="Path 54064" d="M201.726,280.11h-8.81a.365.365,0,0,1,0-.731h8.5l.969-5.449H191.281a.365.365,0,0,1,0-.731c.018-.008,1.293,0,3.014,0h8.526a.365.365,0,0,1,.359.429l-1.1,6.181a.365.365,0,0,1-.359.3" transform="translate(-46.52 -66.567)" fill="#fff"/>
            <path id="Path_54065" data-name="Path 54065" d="M283.972,273.537H232.286a2.855,2.855,0,0,1-2.855-2.854v-1.123a2.855,2.855,0,0,1,2.855-2.855h51.686a2.854,2.854,0,0,1,2.854,2.855v1.123a2.854,2.854,0,0,1-2.854,2.854" transform="translate(-55.903 -64.985)" fill="#e0e0e0"/>
            <path id="Path_54066" data-name="Path 54066" d="M255.59,291.287H232.285a2.854,2.854,0,0,1-2.854-2.854v-1.123a2.854,2.854,0,0,1,2.854-2.855H255.59a2.854,2.854,0,0,1,2.854,2.855v1.123a2.854,2.854,0,0,1-2.854,2.854" transform="translate(-55.903 -69.31)" fill="#e0e0e0"/>
            <path id="Path_54067" data-name="Path 54067" d="M293.872,245.979c0,.109-29.869.2-66.7.2s-66.711-.088-66.711-.2,29.862-.2,66.711-.2,66.7.088,66.7.2" transform="translate(-39.097 -59.887)" fill="#e0e0e0"/>
            <path id="Path_54068" data-name="Path 54068" d="M266.824,341.876H204.332a12.258,12.258,0,0,1-12.258-12.258v-4.823a12.258,12.258,0,0,1,12.258-12.258h62.492a12.258,12.258,0,0,1,12.258,12.258v4.823a12.258,12.258,0,0,1-12.258,12.258" transform="translate(-46.801 -76.153)" fill="#090580"/>
            <path id="Path_54072" data-name="Path 54072" d="M185.735,93.179a5.647,5.647,0,1,1-5.647-5.647,5.647,5.647,0,0,1,5.647,5.647" transform="translate(-42.504 -21.328)" fill="#b4b4b4"/>
            <path id="Path_54073" data-name="Path 54073" d="M260.925,96.114H222.757a2.069,2.069,0,0,1-2.069-2.069v-.815a2.069,2.069,0,0,1,2.069-2.069h38.169a2.069,2.069,0,0,1,2.069,2.069v.815a2.069,2.069,0,0,1-2.069,2.069" transform="translate(-53.773 -22.213)" fill="#e0e0e0"/>
            <rect id="Rectangle_25377" data-name="Rectangle 25377" width="86.363" height="5.768" transform="translate(149.875 274.181)" fill="#263238"/>
            <path id="Path_54074" data-name="Path 54074" d="M203.564,366.324c.759.253,10.873.253,10.873,20.23s-.505,44.758,10.115,45.516,66.506,0,66.506,0V381.935a15.193,15.193,0,0,0-15.106-15.193Z" transform="translate(-49.601 -89.259)" fill="#fafafa"/>
            <path id="Path_54075" data-name="Path 54075" d="M203.564,366.324l42.006.126,21.314.079,5.844.027a34.164,34.164,0,0,1,6.037.3,15.341,15.341,0,0,1,5.751,2.375,15.46,15.46,0,0,1,6.6,10.8,26.621,26.621,0,0,1,.132,3.336q0,1.669,0,3.356,0,6.747.005,13.767c0,9.351,0,19.034,0,28.95v2.83l-.194,0c-19.545.235-38.132.41-55.022.276-2.112-.017-4.2-.053-6.253-.1-2.063-.077-4.075-.054-6.1-.329a6.893,6.893,0,0,1-2.741-1.287,10.073,10.073,0,0,1-1.966-2.23,20.188,20.188,0,0,1-2.256-5.288,58.873,58.873,0,0,1-1.8-10.714c-.309-3.472-.443-6.812-.522-10-.165-6.373-.037-12.139-.112-17.19-.1-5.033-.88-9.4-2.439-12.593a13.73,13.73,0,0,0-2.7-3.816,10.348,10.348,0,0,0-2.851-1.9,14.274,14.274,0,0,0-2.733-.775l.717.109a9.913,9.913,0,0,1,2.047.593,10.329,10.329,0,0,1,2.9,1.891,13.77,13.77,0,0,1,2.761,3.834c1.594,3.211,2.4,7.6,2.522,12.656.1,5.061-.013,10.82.169,17.188.088,3.183.23,6.517.546,9.978a58.669,58.669,0,0,0,1.808,10.652,19.86,19.86,0,0,0,2.225,5.2,9.742,9.742,0,0,0,1.9,2.146,6.543,6.543,0,0,0,2.6,1.215c1.935.26,4,.242,6.04.313,2.054.042,4.138.076,6.248.089,16.884.113,35.472-.073,55.014-.309l-.194.2v-2.635c0-9.916,0-19.6,0-28.95q0-7.014.005-13.767,0-1.687,0-3.356a26.284,26.284,0,0,0-.126-3.29,15.019,15.019,0,0,0-2.127-6.027,15.178,15.178,0,0,0-4.3-4.522,15,15,0,0,0-5.617-2.329,33.948,33.948,0,0,0-5.958-.3l-5.815-.04-21.209-.167-42.154-.361" transform="translate(-49.6 -89.259)" fill="#263238"/>
            <path id="Path_54076" data-name="Path 54076" d="M231.654,439.574s8.743,0,10.617-12.9c2.232-15.365,0-28.827,11.884-29.333s43.747,0,43.747,0v42.229Z" transform="translate(-56.445 -96.763)" fill="#e0e0e0"/>
            <path id="Path_54077" data-name="Path 54077" d="M259.43,397.473s9.585-1.163,9.585,14.768.253,26.467,10.873,27.647,75.862,0,75.862,0-10.367-4.889-11.126-19.3-3.793-23.208-14.161-23.489-71.033.376-71.033.376" transform="translate(-63.213 -96.74)" fill="#fafafa"/>
            <path id="Path_54078" data-name="Path 54078" d="M259.43,397.42l.644-.026,1.887-.039,7.263-.11,26.741-.293,18.486-.128,10.305-.014c1.772.008,3.569.016,5.393.052a15.48,15.48,0,0,1,5.474,1.052,11.135,11.135,0,0,1,4.448,3.575,18.454,18.454,0,0,1,2.624,5.223,51.4,51.4,0,0,1,1.993,11.844c.067,1.017.121,2.045.233,3.056l.151,1.527.285,1.513.142.759.207.745.426,1.492a26.349,26.349,0,0,0,1.2,2.877,20.825,20.825,0,0,0,8.5,9.133l.662.362-.743.013-1.808.032c-17.509.287-34.189.477-49.362.474-7.587-.017-14.8-.036-21.544-.323a30.3,30.3,0,0,1-4.965-.535,9.97,9.97,0,0,1-4.3-2.167,10.64,10.64,0,0,1-2.665-3.781,19.992,19.992,0,0,1-1.277-4.238,53.564,53.564,0,0,1-.819-8.155c-.1-2.586-.1-5.024-.107-7.3.009-1.141,0-2.239-.05-3.293-.027-.526-.019-1.047-.074-1.55s-.123-1-.182-1.479q-.044-.362-.088-.716c-.052-.231-.1-.461-.155-.687q-.153-.68-.3-1.329-.214-.629-.419-1.225l-.207-.588-.268-.543a9.351,9.351,0,0,0-2.51-3.363,7.362,7.362,0,0,0-2.7-1.488,7.23,7.23,0,0,0-1.876-.345c-.216-.015-.379-.011-.489-.011h-.165a1.388,1.388,0,0,1,.164-.021,4.224,4.224,0,0,1,.491-.009,6.955,6.955,0,0,1,1.9.309,7.363,7.363,0,0,1,2.749,1.474,9.414,9.414,0,0,1,2.573,3.386c1.5,2.9,1.844,6.943,1.824,11.477.013,2.278.029,4.714.136,7.293a53.632,53.632,0,0,0,.842,8.111,19.666,19.666,0,0,0,1.271,4.174,10.332,10.332,0,0,0,2.6,3.671,9.655,9.655,0,0,0,4.174,2.088,30.059,30.059,0,0,0,4.907.516c6.733.272,13.944.281,21.528.287,15.169-.017,31.849-.219,49.356-.505l1.807-.031-.08.374a21.176,21.176,0,0,1-8.684-9.316,26.827,26.827,0,0,1-1.219-2.925l-.433-1.515-.21-.757-.144-.77-.287-1.536-.153-1.547c-.113-1.032-.165-2.049-.231-3.064a51.1,51.1,0,0,0-1.966-11.754,18.115,18.115,0,0,0-2.562-5.118,10.774,10.774,0,0,0-4.3-3.465,15.135,15.135,0,0,0-5.339-1.031c-1.819-.039-3.616-.05-5.387-.061l-10.3-.005-18.484.08-26.742.168-7.264.036h-1.89l-.642-.013" transform="translate(-63.213 -96.687)" fill="#263238"/>
            <path id="Path_54079" data-name="Path 54079" d="M255.107,397.561c0,.048-.766-.032-2.119.157a9.111,9.111,0,0,0-5.083,2.476,14.388,14.388,0,0,0-3.776,7.513,64.657,64.657,0,0,0-.888,10.485,51.9,51.9,0,0,1-1.221,10.519,25.648,25.648,0,0,1-1.565,4.365,16.224,16.224,0,0,1-2.066,3.478,8.577,8.577,0,0,1-2.555,2.156,8.714,8.714,0,0,1-2.384.825,9.108,9.108,0,0,1-1.583.146,2.788,2.788,0,0,1-.553-.016,3.052,3.052,0,0,1,.549-.064,11.263,11.263,0,0,0,1.557-.216,8.929,8.929,0,0,0,2.308-.868,8.49,8.49,0,0,0,2.444-2.138,16.193,16.193,0,0,0,1.985-3.438,25.815,25.815,0,0,0,1.511-4.319,53.175,53.175,0,0,0,1.179-10.448,62.519,62.519,0,0,1,.927-10.545,14.51,14.51,0,0,1,3.94-7.638,9.083,9.083,0,0,1,5.254-2.426,7.418,7.418,0,0,1,.916-.063,5.659,5.659,0,0,1,.672.006,2.922,2.922,0,0,1,.551.052" transform="translate(-56.362 -96.854)" fill="#263238"/>
            <path id="Path_54080" data-name="Path 54080" d="M287.213,381.565c0,.109-12.253.2-27.364.2s-27.367-.088-27.367-.2,12.25-.2,27.367-.2,27.364.088,27.364.2" transform="translate(-56.647 -92.924)" fill="#e0e0e0"/>
            <path id="Path_54081" data-name="Path 54081" d="M289.291,392.33c0,.109-11.848.2-26.46.2s-26.461-.088-26.461-.2,11.845-.2,26.461-.2,26.46.088,26.46.2" transform="translate(-57.594 -95.547)" fill="#e0e0e0"/>
            <path id="Path_54082" data-name="Path 54082" d="M338.046,413.261c0,.109-12.253.2-27.364.2s-27.367-.088-27.367-.2,12.25-.2,27.367-.2,27.364.088,27.364.2" transform="translate(-69.033 -100.648)" fill="#e0e0e0"/>
            <path id="Path_54083" data-name="Path 54083" d="M340.4,425.82c0,.109-11.24.2-25.1.2s-25.1-.088-25.1-.2,11.238-.2,25.1-.2,25.1.088,25.1.2" transform="translate(-70.709 -103.708)" fill="#e0e0e0"/>
            <path id="Path_54084" data-name="Path 54084" d="M293.627,155.859H288.3a2.382,2.382,0,0,1-2.383-2.382v-5.33a2.382,2.382,0,0,1,2.383-2.382h5.329a2.382,2.382,0,0,1,2.382,2.382v5.33a2.382,2.382,0,0,1-2.382,2.382" transform="translate(-69.666 -35.517)" fill="#fff"/>
            <text id="Receive" transform="translate(156.12 256.864)" fill="#fff" font-size="18" font-family="Graphie-Bold, Graphie" font-weight="700"><tspan x="0" y="0">Receive</tspan></text>
          </g>
        </g>
        <g id="Group_50020" data-name="Group 50020">
          <g id="Group_50019" data-name="Group 50019" clip-path="url(#clip-path)">
            <path id="Path_54085" data-name="Path 54085" d="M38.4,119.6l-5-.6a19.219,19.219,0,1,1,4.948-4.788l.009-.007Z" transform="translate(-0.869 -20.43)" fill="#fff"/>
            <path id="Path_54086" data-name="Path 54086" d="M38.351,119.554s-.009-.128-.016-.365-.014-.6-.026-1.044c-.017-.923-.042-2.261-.075-3.99l.114.054-.008.007a.071.071,0,0,1-.1-.009.072.072,0,0,1,0-.086,19.157,19.157,0,0,0,3.366-8.55,19.6,19.6,0,0,0-.16-6.055,19.071,19.071,0,0,0-2.479-6.411,19.446,19.446,0,0,0-5.18-5.541,18.607,18.607,0,0,0-7.518-3.248,19.457,19.457,0,0,0-8.7.376A18.622,18.622,0,0,0,9.647,89.2a19.574,19.574,0,0,0-3,3.61c-.386.672-.784,1.338-1.114,2.03L5.08,95.9l-.223.526-.169.545a19.415,19.415,0,0,0-.788,8.758,18.568,18.568,0,0,0,2.96,7.717,19.5,19.5,0,0,0,5.388,5.426A19.159,19.159,0,0,0,18.6,121.6l1.585.279c.522.079,1.042.09,1.548.138a17.235,17.235,0,0,0,2.937-.055,19.155,19.155,0,0,0,8.635-3.063.068.068,0,0,1,.046-.011l3.687.485.969.133c.22.031.339.054.339.054s-.1,0-.316-.026l-.956-.1-3.739-.411.046-.011a19.1,19.1,0,0,1-8.689,3.17,17.352,17.352,0,0,1-2.971.075c-.514-.045-1.041-.054-1.569-.131l-1.609-.274a19.372,19.372,0,0,1-6.46-2.739A19.727,19.727,0,0,1,6.6,113.616a18.841,18.841,0,0,1-3.028-7.842,19.714,19.714,0,0,1,.791-8.914l.172-.555.227-.536.461-1.075c.336-.7.74-1.383,1.134-2.067a19.864,19.864,0,0,1,3.052-3.677,18.946,18.946,0,0,1,8.069-4.588,19.758,19.758,0,0,1,8.853-.371,18.9,18.9,0,0,1,7.639,3.32,19.7,19.7,0,0,1,5.243,5.644A19.287,19.287,0,0,1,41.7,99.469a19.747,19.747,0,0,1,.128,6.133,19.114,19.114,0,0,1-3.474,8.6l-.1-.1.008-.007a.07.07,0,0,1,.1.009.077.077,0,0,1,.017.045c0,1.748-.005,3.1-.007,4.034,0,.441-.005.781-.008,1.027,0,.228-.01.338-.01.338" transform="translate(-0.823 -20.383)" fill="#263238"/>
            <path id="Path_54087" data-name="Path 54087" d="M17.731,108.236l2.4-2.573,4.943,4.1,9.111-9.385,2.395,2.41-11.7,11.785Z" transform="translate(-4.32 -24.459)" fill="#090580"/>
          </g>
        </g>
      </g>
    </g>
    <g id="Group_50048" data-name="Group 50048" transform="translate(1030.046 124.034)">
      <g id="Group_50045" data-name="Group 50045" clip-path="url(#clip-path-11)">
        <g id="Group_50044" data-name="Group 50044" transform="translate(0 0)">
          <g id="Group_50043" data-name="Group 50043" clip-path="url(#clip-path-11)">
            <path id="Path_54151" data-name="Path 54151" d="M43.5,20.995A21.754,21.754,0,1,1,20.994.014,21.754,21.754,0,0,1,43.5,20.995" transform="translate(0 0)" fill="#0272d0"/>
            <g id="Group_50033" data-name="Group 50033" transform="translate(0 0.014)" opacity="0.1">
              <g id="Group_50032" data-name="Group 50032">
                <g id="Group_50031" data-name="Group 50031" clip-path="url(#clip-path-13)">
                  <path id="Path_54152" data-name="Path 54152" d="M20.995.019A21.755,21.755,0,0,0,.014,22.521s15.3.149,18.761-6.132S20.995.019,20.995.019" transform="translate(0 -0.019)" fill="#fff"/>
                </g>
              </g>
            </g>
            <path id="Path_54153" data-name="Path 54153" d="M39.853,22.782A16.538,16.538,0,1,1,22.747,6.832a16.537,16.537,0,0,1,17.106,15.95" transform="translate(-1.927 -1.937)" fill="#0272d0"/>
            <g id="Group_50036" data-name="Group 50036" transform="translate(8.346 9.532)" opacity="0.2">
              <g id="Group_50035" data-name="Group 50035" transform="translate(0 0)">
                <g id="Group_50034" data-name="Group 50034" clip-path="url(#clip-path-14)">
                  <path id="Path_54154" data-name="Path 54154" d="M39.853,22.782A16.538,16.538,0,1,1,22.747,6.832a16.537,16.537,0,0,1,17.106,15.95" transform="translate(-6.787 -6.821)" fill="#0272d0"/>
                </g>
              </g>
            </g>
            <path id="Path_54155" data-name="Path 54155" d="M40.715,23.806A16.316,16.316,0,1,1,23.839,8.07,16.316,16.316,0,0,1,40.715,23.806" transform="translate(-3.178 -1.08)" fill="#0272d0"/>
            <g id="Group_50039" data-name="Group 50039" transform="translate(4.86 3.589)" opacity="0.2">
              <g id="Group_50038" data-name="Group 50038">
                <g id="Group_50037" data-name="Group 50037" clip-path="url(#clip-path-15)">
                  <path id="Path_54156" data-name="Path 54156" d="M40.715,23.806A16.316,16.316,0,1,1,23.839,8.07,16.316,16.316,0,0,1,40.715,23.806" transform="translate(-8.093 -8.059)" fill="#0272d0"/>
                </g>
              </g>
            </g>
            <path id="Path_54157" data-name="Path 54157" d="M29.128,25.171,28.982,21H29a8.581,8.581,0,0,1,2.238.5,7.007,7.007,0,0,1,1.062.619l.051-.131.591-1.525.136-.35-.771-.755-.352.174a7.8,7.8,0,0,0-3.053-.767l-.08-2.294-.735-.551.02.576-.98.034.082,2.335c-3.213.423-4.678,2.316-4.6,4.424.1,2.873,2.586,3.531,4.9,4.009l.145,4.133A7.939,7.939,0,0,1,23.462,30l-.857,2.12a9.048,9.048,0,0,0,5.124,1.539l.061,1.732-.806.042.826.519,1.7-.059-.081-2.315c3.233-.444,4.72-2.317,4.646-4.426-.1-2.873-2.627-3.509-4.94-3.987m-1.71-.375c-1.211-.309-2.116-.733-2.15-1.725-.032-.909.562-1.675,2.022-1.954ZM28.982,21Zm.362,10.335-.128-3.659c1.252.308,2.178.751,2.214,1.764.031.889-.585,1.613-2.086,1.894" transform="translate(-6.417 -4.519)" fill="#03226c"/>
            <g id="Group_50042" data-name="Group 50042" transform="translate(16.186 11.406)" opacity="0.3">
              <g id="Group_50041" data-name="Group 50041">
                <g id="Group_50040" data-name="Group 50040" clip-path="url(#clip-path-16)">
                  <path id="Path_54158" data-name="Path 54158" d="M29.128,25.171,28.982,21H29a8.581,8.581,0,0,1,2.238.5,7.007,7.007,0,0,1,1.062.619l.051-.131.591-1.525.136-.35-.771-.755-.352.174a7.8,7.8,0,0,0-3.053-.767l-.08-2.294-.735-.551.02.576-.98.034.082,2.335c-3.213.423-4.678,2.316-4.6,4.424.1,2.873,2.586,3.531,4.9,4.009l.145,4.133A7.939,7.939,0,0,1,23.462,30l-.857,2.12a9.048,9.048,0,0,0,5.124,1.539l.061,1.732-.806.042.826.519,1.7-.059-.081-2.315c3.233-.444,4.72-2.317,4.646-4.426-.1-2.873-2.627-3.509-4.94-3.987m-1.71-.375c-1.211-.309-2.116-.733-2.15-1.725-.032-.909.562-1.675,2.022-1.954ZM28.982,21Zm.362,10.335-.128-3.659c1.252.308,2.178.751,2.214,1.764.031.889-.585,1.613-2.086,1.894" transform="translate(-22.603 -15.918)"/>
                </g>
              </g>
            </g>
            <path id="Path_54159" data-name="Path 54159" d="M28.416,33.043l.081,2.315-1.7.059-.08-2.294A9.065,9.065,0,0,1,21.6,31.584l.857-2.12a7.95,7.95,0,0,0,4.19,1.426L26.5,26.756c-2.314-.478-4.8-1.136-4.9-4.009-.074-2.108,1.391-4,4.605-4.425l-.082-2.336,1.7-.059.08,2.3a8.863,8.863,0,0,1,4.241,1.114l-.775,2.117a8.566,8.566,0,0,0-3.388-1l.146,4.176c2.314.478,4.841,1.114,4.941,3.988.074,2.108-1.413,3.982-4.647,4.426m-2.005-8.789-.128-3.679c-1.46.279-2.054,1.044-2.022,1.954.034.992.94,1.416,2.15,1.725M30.423,28.9c-.035-1.013-.962-1.457-2.214-1.764l.128,3.659c1.5-.281,2.118-1.006,2.086-1.895" transform="translate(-6.131 -4.521)" fill="#fff"/>
            <path id="Path_54160" data-name="Path 54160" d="M30.8,40.745a.864.864,0,0,1,.133-.02l.392-.042.638-.062a6.137,6.137,0,0,0,.865-.116l1.074-.208a4.512,4.512,0,0,0,.6-.158l.647-.193c.221-.074.46-.121.688-.222l.713-.291c.242-.105.5-.192.75-.319l.76-.4a17.357,17.357,0,0,0,3.144-2.184l.753-.735c.127-.125.259-.246.383-.378L42.7,35c.233-.284.488-.557.714-.859l.656-.942.166-.239c.052-.082.1-.17.146-.254l.289-.516.294-.522c.1-.172.168-.365.256-.548.159-.373.338-.743.486-1.129q.193-.59.39-1.191a17.691,17.691,0,0,0,.65-5.157,17.676,17.676,0,0,0-1.008-5.1l-.473-1.162c-.175-.375-.38-.731-.564-1.092-.1-.176-.177-.364-.293-.529l-.329-.5-.325-.495c-.054-.081-.105-.165-.163-.243l-.183-.227-.72-.894c-.247-.286-.52-.541-.773-.807l-.382-.392c-.133-.122-.274-.234-.409-.351l-.8-.68a17.39,17.39,0,0,0-3.29-1.959l-.786-.347c-.256-.11-.521-.178-.771-.266l-.732-.241c-.235-.084-.476-.115-.7-.173l-.659-.148a4.43,4.43,0,0,0-.614-.115l-1.086-.133a6.255,6.255,0,0,0-.871-.055l-.641-.017L29.783,7.7a.819.819,0,0,1-.135-.011,1,1,0,0,1,.134-.006l.395,0,.642,0a6.01,6.01,0,0,1,.875.04l1.092.12a4.537,4.537,0,0,1,.618.108l.664.143a7.244,7.244,0,0,1,.708.168l.738.237c.251.086.518.153.777.262l.794.344a17.349,17.349,0,0,1,3.324,1.957l.812.682c.137.117.279.23.414.352l.387.394c.256.267.531.524.781.811l.729.9.185.229c.059.079.11.163.165.245l.329.5.334.5c.117.165.2.355.3.533.188.364.395.724.571,1.1l.479,1.172a17.765,17.765,0,0,1,1.021,5.151,17.754,17.754,0,0,1-.66,5.207q-.2.607-.4,1.2c-.15.39-.332.763-.493,1.139-.088.185-.154.379-.259.553l-.3.526-.294.52c-.049.085-.1.173-.148.256l-.168.241-.665.949c-.228.3-.486.58-.723.865l-.358.419c-.126.132-.26.254-.387.38l-.763.737a17.355,17.355,0,0,1-3.179,2.185l-.768.4c-.251.127-.513.213-.757.317l-.72.288c-.231.1-.471.145-.695.217l-.652.188a4.445,4.445,0,0,1-.609.152l-1.081.2a6.012,6.012,0,0,1-.87.1l-.641.047-.394.026a.859.859,0,0,1-.134,0" transform="translate(-8.417 -2.18)" fill="#263238"/>
            <path id="Path_54161" data-name="Path 54161" d="M3.866,38.149a.811.811,0,0,1-.108-.165l-.28-.488c-.123-.212-.266-.474-.41-.79s-.332-.666-.488-1.075L2.322,35c-.089-.222-.161-.46-.246-.7-.177-.484-.314-1.017-.469-1.575A23.558,23.558,0,0,1,1,29a23.457,23.457,0,0,1,.047-3.763c.071-.574.127-1.122.231-1.627.047-.252.084-.5.138-.731s.11-.455.161-.668c.093-.428.223-.8.322-1.135a8.841,8.841,0,0,1,.289-.842c.083-.215.152-.388.2-.524a.9.9,0,0,1,.081-.178.873.873,0,0,1-.052.19c-.045.139-.1.316-.175.533s-.175.513-.262.848-.213.708-.3,1.136c-.047.213-.1.435-.15.667s-.084.477-.129.728c-.1.5-.148,1.048-.214,1.618a24.5,24.5,0,0,0-.035,3.737,24.466,24.466,0,0,0,.59,3.689c.15.555.281,1.086.451,1.568.082.243.15.481.236.7s.169.434.247.637c.148.41.324.763.463,1.08s.271.584.385.8.188.371.253.5a.9.9,0,0,1,.079.18" transform="translate(-0.269 -5.546)" fill="#fff"/>
            <path id="Path_54162" data-name="Path 54162" d="M23.254,26.2a1.372,1.372,0,0,1-.5-.46,2.559,2.559,0,0,1,0-3.095,1.368,1.368,0,0,1,.5-.46c.019.021-.181.186-.4.526a2.653,2.653,0,0,0,0,2.963c.223.339.422.5.4.526" transform="translate(-6.313 -6.299)" fill="#fff"/>
            <path id="Path_54163" data-name="Path 54163" d="M28.459,18.238a1.5,1.5,0,0,1-.1-.677,1.482,1.482,0,0,1,.057-.682,1.5,1.5,0,0,1,.1.677,1.505,1.505,0,0,1-.057.682" transform="translate(-8.049 -4.792)" fill="#fff"/>
            <path id="Path_54164" data-name="Path 54164" d="M26.2,6.124a3.267,3.267,0,0,1-.532,0c-.17-.009-.379-.016-.622-.009s-.518,0-.822.019-.638.032-.994.076c-.357.028-.734.093-1.132.153a17.038,17.038,0,0,0-4.947,1.657c-.354.192-.695.367-1,.56s-.586.366-.839.539-.472.337-.668.48-.359.273-.49.382a3.342,3.342,0,0,1-.423.322,3.324,3.324,0,0,1,.382-.37c.125-.117.282-.256.475-.4s.4-.332.658-.5.524-.373.834-.559.642-.38,1-.578a16.182,16.182,0,0,1,4.991-1.672c.4-.057.784-.117,1.144-.14.359-.038.7-.049,1-.057s.584,0,.828.005.453.019.624.037a3.416,3.416,0,0,1,.528.065" transform="translate(-3.899 -1.706)" fill="#fff"/>
            <path id="Path_54165" data-name="Path 54165" d="M31.117,58.771a1.936,1.936,0,0,1-.384.119c-.249.069-.616.147-1.072.223a15.716,15.716,0,0,1-7.157-.486c-.442-.137-.794-.265-1.032-.367a1.956,1.956,0,0,1-.364-.169,1.871,1.871,0,0,1,.386.11c.243.083.6.193,1.043.315A17.584,17.584,0,0,0,29.644,59c.455-.062.823-.122,1.076-.173a1.943,1.943,0,0,1,.4-.057" transform="translate(-5.992 -16.492)" fill="#fff"/>
          </g>
        </g>
      </g>
    </g>
    <g id="Group_55159" data-name="Group 55159" transform="translate(985.26 219.845)">
      <g id="Group_50045-2" data-name="Group 50045" clip-path="url(#clip-path-17)">
        <g id="Group_50044-2" data-name="Group 50044" transform="translate(0 0)">
          <g id="Group_50043-2" data-name="Group 50043" clip-path="url(#clip-path-17)">
            <path id="Path_54151-2" data-name="Path 54151" d="M79.6,38.424A39.814,39.814,0,1,1,38.422.025,39.814,39.814,0,0,1,79.6,38.424" transform="translate(0 0)" fill="#0272d0"/>
            <g id="Group_50033-2" data-name="Group 50033" transform="translate(0 0.025)" opacity="0.1">
              <g id="Group_50032-2" data-name="Group 50032">
                <g id="Group_50031-2" data-name="Group 50031" clip-path="url(#clip-path-19)">
                  <path id="Path_54152-2" data-name="Path 54152" d="M38.424.019A39.815,39.815,0,0,0,.025,41.2s28,.273,34.336-11.223S38.424.019,38.424.019" transform="translate(0 -0.019)" fill="#fff"/>
                </g>
              </g>
            </g>
            <path id="Path_54153-2" data-name="Path 54153" d="M67.3,36.031A30.267,30.267,0,1,1,36,6.84,30.266,30.266,0,0,1,67.3,36.031" transform="translate(2.108 2.119)" fill="#0272d0"/>
            <g id="Group_50036-2" data-name="Group 50036" transform="translate(15.275 17.446)" opacity="0.2">
              <g id="Group_50035-2" data-name="Group 50035" transform="translate(0)">
                <g id="Group_50034-2" data-name="Group 50034" clip-path="url(#clip-path-20)">
                  <path id="Path_54154-2" data-name="Path 54154" d="M67.3,36.031A30.267,30.267,0,1,1,36,6.84,30.266,30.266,0,0,1,67.3,36.031" transform="translate(-6.787 -6.821)" fill="#0272d0"/>
                </g>
              </g>
            </g>
            <path id="Path_54155-2" data-name="Path 54155" d="M67.8,36.877A29.861,29.861,0,1,1,36.91,8.078,29.861,29.861,0,0,1,67.8,36.877" transform="translate(0.902 4.715)" fill="#0272d0"/>
            <g id="Group_50039-2" data-name="Group 50039" transform="translate(8.895 6.569)" opacity="0.2">
              <g id="Group_50038-2" data-name="Group 50038">
                <g id="Group_50037-2" data-name="Group 50037" clip-path="url(#clip-path-21)">
                  <path id="Path_54156-2" data-name="Path 54156" d="M67.8,36.877A29.861,29.861,0,1,1,36.91,8.078,29.861,29.861,0,0,1,67.8,36.877" transform="translate(-8.093 -8.059)" fill="#0272d0"/>
                </g>
              </g>
            </g>
            <path id="Path_54157-2" data-name="Path 54157" d="M34.545,32.852l-.267-7.635h.037a15.7,15.7,0,0,1,4.1.915,12.825,12.825,0,0,1,1.944,1.134l.093-.24,1.081-2.79.249-.641-1.41-1.383-.645.318a14.278,14.278,0,0,0-5.587-1.4l-.147-4.2-1.345-1.008.037,1.054-1.794.063.149,4.274c-5.881.775-8.562,4.238-8.427,8.1.183,5.258,4.733,6.462,8.967,7.338l.265,7.565A14.529,14.529,0,0,1,24.174,41.7l-1.569,3.879c2.026,1.634,5.662,2.719,9.377,2.816l.111,3.17-1.476.077,1.511.95,3.1-.107-.148-4.237c5.917-.813,8.638-4.241,8.5-8.1-.183-5.258-4.807-6.422-9.042-7.3m-3.13-.687c-2.216-.566-3.873-1.341-3.936-3.157-.059-1.664,1.029-3.065,3.7-3.575Zm2.862-6.955Zm.662,18.914-.235-6.7c2.292.564,3.987,1.375,4.052,3.229.056,1.626-1.071,2.953-3.818,3.466" transform="translate(7.02 4.944)" fill="#03226c"/>
            <g id="Group_50042-2" data-name="Group 50042" transform="translate(29.622 20.874)" opacity="0.3">
              <g id="Group_50041-2" data-name="Group 50041">
                <g id="Group_50040-2" data-name="Group 50040" clip-path="url(#clip-path-22)">
                  <path id="Path_54158-2" data-name="Path 54158" d="M34.545,32.852l-.267-7.635h.037a15.7,15.7,0,0,1,4.1.915,12.825,12.825,0,0,1,1.944,1.134l.093-.24,1.081-2.79.249-.641-1.41-1.383-.645.318a14.278,14.278,0,0,0-5.587-1.4l-.147-4.2-1.345-1.008.037,1.054-1.794.063.149,4.274c-5.881.775-8.562,4.238-8.427,8.1.183,5.258,4.733,6.462,8.967,7.338l.265,7.565A14.529,14.529,0,0,1,24.174,41.7l-1.569,3.879c2.026,1.634,5.662,2.719,9.377,2.816l.111,3.17-1.476.077,1.511.95,3.1-.107-.148-4.237c5.917-.813,8.638-4.241,8.5-8.1-.183-5.258-4.807-6.422-9.042-7.3m-3.13-.687c-2.216-.566-3.873-1.341-3.936-3.157-.059-1.664,1.029-3.065,3.7-3.575Zm2.862-6.955Zm.662,18.914-.235-6.7c2.292.564,3.987,1.375,4.052,3.229.056,1.626-1.071,2.953-3.818,3.466" transform="translate(-22.603 -15.918)"/>
                </g>
              </g>
            </g>
            <path id="Path_54159-2" data-name="Path 54159" d="M34.078,47.253l.148,4.237-3.1.109-.147-4.2c-3.716-.1-7.352-1.183-9.38-2.816L23.166,40.7a14.55,14.55,0,0,0,7.668,2.611l-.265-7.567c-4.236-.874-8.786-2.079-8.97-7.338-.135-3.858,2.546-7.325,8.428-8.1l-.149-4.275,3.1-.109.147,4.2a16.221,16.221,0,0,1,7.763,2.039L39.473,26.04a15.677,15.677,0,0,0-6.2-1.828l.267,7.642c4.236.875,8.86,2.039,9.043,7.3.136,3.858-2.586,7.287-8.5,8.1m-3.67-16.085-.235-6.734c-2.672.51-3.759,1.911-3.7,3.577.063,1.815,1.719,2.591,3.936,3.157m7.343,8.494c-.064-1.854-1.76-2.666-4.052-3.229l.235,6.7c2.747-.514,3.875-1.841,3.818-3.468" transform="translate(6.707 4.946)" fill="#fff"/>
            <path id="Path_54160-2" data-name="Path 54160" d="M31.765,68.2a1.579,1.579,0,0,1,.244-.037l.718-.076c.321-.03.71-.069,1.168-.114a11.233,11.233,0,0,0,1.583-.212l1.966-.381a8.259,8.259,0,0,0,1.106-.288l1.185-.354c.4-.135.841-.221,1.259-.406l1.305-.533c.443-.193.917-.351,1.372-.585l1.391-.734a31.767,31.767,0,0,0,5.755-4q.678-.661,1.379-1.345c.232-.229.474-.451.7-.692s.43-.507.647-.763c.427-.519.893-1.02,1.307-1.573l1.2-1.725.3-.438c.1-.151.177-.311.267-.465l.529-.945.537-.955c.19-.315.308-.668.468-1,.291-.683.619-1.359.889-2.067q.354-1.079.714-2.179a32.376,32.376,0,0,0,1.19-9.439A32.349,32.349,0,0,0,59.1,27.553l-.865-2.126c-.32-.685-.695-1.338-1.033-2-.182-.322-.324-.667-.536-.969s-.4-.612-.6-.915-.4-.605-.595-.906c-.1-.148-.193-.3-.3-.446l-.334-.415q-.666-.83-1.317-1.637c-.452-.523-.951-.991-1.414-1.477l-.7-.717c-.244-.224-.5-.429-.748-.642l-1.469-1.244a31.826,31.826,0,0,0-6.021-3.586l-1.439-.634c-.469-.2-.954-.326-1.41-.488l-1.339-.442c-.43-.153-.872-.211-1.284-.316l-1.206-.27a8.108,8.108,0,0,0-1.124-.211l-1.987-.244a11.447,11.447,0,0,0-1.594-.1l-1.173-.031-.721-.026a1.5,1.5,0,0,1-.246-.02,1.833,1.833,0,0,1,.245-.01l.722,0,1.176,0a11,11,0,0,1,1.6.073l2,.22a8.3,8.3,0,0,1,1.131.2l1.215.261a13.259,13.259,0,0,1,1.295.307l1.351.434c.46.157.949.28,1.422.48l1.453.629a31.751,31.751,0,0,1,6.084,3.582l1.486,1.248c.25.214.511.421.758.645l.708.721c.468.489.972.959,1.43,1.485l1.334,1.647.338.419c.107.144.2.3.3.448l.6.912.611.924c.214.3.359.65.543.975.343.667.722,1.325,1.046,2.017l.877,2.144a32.512,32.512,0,0,1,1.869,9.427,32.493,32.493,0,0,1-1.207,9.531q-.366,1.111-.723,2.2c-.275.713-.607,1.4-.9,2.084-.161.338-.282.693-.474,1.012l-.544.963-.537.951c-.09.156-.174.317-.271.469l-.308.44q-.615.881-1.216,1.737c-.418.557-.89,1.062-1.322,1.583l-.655.767c-.231.241-.476.465-.709.7l-1.4,1.349a31.763,31.763,0,0,1-5.819,4l-1.4.729c-.459.232-.938.389-1.385.579l-1.317.527c-.422.181-.862.266-1.271.4l-1.194.343a8.135,8.135,0,0,1-1.114.278l-1.979.359a11,11,0,0,1-1.592.185l-1.173.086-.721.047a1.571,1.571,0,0,1-.245.005" transform="translate(9.208 2.385)" fill="#263238"/>
            <path id="Path_54161-2" data-name="Path 54161" d="M6.289,53.6a1.485,1.485,0,0,1-.2-.3l-.512-.893c-.225-.388-.488-.868-.751-1.446s-.608-1.219-.893-1.967l-.472-1.165c-.163-.406-.295-.843-.451-1.286-.324-.886-.574-1.861-.858-2.882a43.114,43.114,0,0,1-1.107-6.8,42.93,42.93,0,0,1,.086-6.887c.13-1.051.232-2.054.422-2.978.086-.461.153-.912.253-1.338s.2-.832.295-1.223c.17-.782.408-1.468.59-2.077a16.18,16.18,0,0,1,.529-1.541c.152-.393.278-.71.375-.959a1.639,1.639,0,0,1,.148-.326,1.6,1.6,0,0,1-.094.347c-.083.254-.187.578-.32.976-.148.421-.32.938-.48,1.552s-.391,1.3-.545,2.079c-.086.389-.178.8-.274,1.22s-.153.873-.236,1.333c-.177.92-.271,1.917-.392,2.962a44.841,44.841,0,0,0-.064,6.839,44.778,44.778,0,0,0,1.08,6.751c.274,1.016.514,1.988.826,2.87.151.444.275.879.431,1.284s.309.794.452,1.165c.271.751.592,1.4.847,1.976s.5,1.068.705,1.463c.19.375.343.679.463.917a1.648,1.648,0,0,1,.145.33" transform="translate(0.294 6.068)" fill="#fff"/>
            <path id="Path_54162-2" data-name="Path 54162" d="M24.1,29.537a2.511,2.511,0,0,1-.91-.841,4.683,4.683,0,0,1,0-5.664,2.5,2.5,0,0,1,.911-.841c.034.038-.332.341-.739.962a4.856,4.856,0,0,0,0,5.423c.408.621.772.924.738.962" transform="translate(6.906 6.891)" fill="#fff"/>
            <path id="Path_54163-2" data-name="Path 54163" d="M28.549,19.366a2.746,2.746,0,0,1-.191-1.238,2.713,2.713,0,0,1,.1-1.249,2.741,2.741,0,0,1,.191,1.239,2.755,2.755,0,0,1-.1,1.249" transform="translate(8.805 5.242)" fill="#fff"/>
            <path id="Path_54164-2" data-name="Path 54164" d="M36.546,6.218a5.98,5.98,0,0,1-.974,0c-.312-.016-.693-.029-1.138-.017s-.948-.008-1.5.034c-.558.026-1.168.059-1.819.139-.653.051-1.343.17-2.072.28A34.293,34.293,0,0,0,24.4,7.819a34.3,34.3,0,0,0-4.41,1.865c-.649.351-1.271.672-1.824,1.025-.567.329-1.073.67-1.535.986-.47.3-.864.617-1.223.878s-.657.5-.9.7a6.117,6.117,0,0,1-.775.59,6.083,6.083,0,0,1,.7-.678c.229-.214.516-.469.869-.74s.739-.607,1.2-.92c.456-.329.959-.683,1.527-1.024.552-.364,1.176-.7,1.826-1.058a32.284,32.284,0,0,1,4.443-1.9,32.373,32.373,0,0,1,4.692-1.156c.737-.1,1.435-.214,2.094-.256.658-.069,1.274-.09,1.835-.1.561-.029,1.069,0,1.515.009s.83.035,1.142.068a6.252,6.252,0,0,1,.967.119" transform="translate(4.265 1.867)" fill="#fff"/>
            <path id="Path_54165-2" data-name="Path 54165" d="M39.426,59.336a3.542,3.542,0,0,1-.7.218c-.456.126-1.127.269-1.962.409a28.762,28.762,0,0,1-13.1-.889c-.809-.252-1.453-.485-1.889-.671a3.58,3.58,0,0,1-.667-.309,3.424,3.424,0,0,1,.706.2c.446.152,1.1.353,1.908.577a32.182,32.182,0,0,0,13.009.883c.834-.114,1.506-.224,1.968-.316a3.556,3.556,0,0,1,.727-.1" transform="translate(6.555 18.042)" fill="#fff"/>
          </g>
        </g>
      </g>
    </g>
    <g id="Group_55160" data-name="Group 55160" transform="translate(1041.652 332.011)">
      <g id="Group_50045-3" data-name="Group 50045" clip-path="url(#clip-path-23)">
        <g id="Group_50044-3" data-name="Group 50044" transform="translate(0 0)">
          <g id="Group_50043-3" data-name="Group 50043" clip-path="url(#clip-path-24)">
            <path id="Path_54151-3" data-name="Path 54151" d="M56.917,27.473A28.467,28.467,0,1,1,27.472.018,28.467,28.467,0,0,1,56.917,27.473" transform="translate(0 0)" fill="#0272d0"/>
            <g id="Group_50033-3" data-name="Group 50033" transform="translate(0 0.018)" opacity="0.1">
              <g id="Group_50032-3" data-name="Group 50032">
                <g id="Group_50031-3" data-name="Group 50031" clip-path="url(#clip-path-25)">
                  <path id="Path_54152-3" data-name="Path 54152" d="M27.473.019A28.468,28.468,0,0,0,.018,29.464s20.023.195,24.55-8.024S27.473.019,27.473.019" transform="translate(0 -0.019)" fill="#fff"/>
                </g>
              </g>
            </g>
            <path id="Path_54153-3" data-name="Path 54153" d="M50.056,27.706A21.641,21.641,0,1,1,27.671,6.835,21.64,21.64,0,0,1,50.056,27.706" transform="translate(-0.427 -0.429)" fill="#0272d0"/>
            <g id="Group_50036-3" data-name="Group 50036" transform="translate(10.922 12.474)" opacity="0.2">
              <g id="Group_50035-3" data-name="Group 50035" transform="translate(0)">
                <g id="Group_50034-3" data-name="Group 50034" clip-path="url(#clip-path-26)">
                  <path id="Path_54154-3" data-name="Path 54154" d="M50.056,27.706A21.641,21.641,0,1,1,27.671,6.835,21.64,21.64,0,0,1,50.056,27.706" transform="translate(-6.787 -6.821)" fill="#0272d0"/>
                </g>
              </g>
            </g>
            <path id="Path_54155-3" data-name="Path 54155" d="M50.781,28.664A21.351,21.351,0,1,1,28.7,8.073,21.35,21.35,0,0,1,50.781,28.664" transform="translate(-1.662 1.074)" fill="#0272d0"/>
            <g id="Group_50039-3" data-name="Group 50039" transform="translate(6.36 4.697)" opacity="0.2">
              <g id="Group_50038-3" data-name="Group 50038">
                <g id="Group_50037-3" data-name="Group 50037" clip-path="url(#clip-path-27)">
                  <path id="Path_54156-3" data-name="Path 54156" d="M50.781,28.664A21.351,21.351,0,1,1,28.7,8.073,21.35,21.35,0,0,1,50.781,28.664" transform="translate(-8.093 -8.059)" fill="#0272d0"/>
                </g>
              </g>
            </g>
            <path id="Path_54157-3" data-name="Path 54157" d="M31.142,28.026l-.191-5.459h.026a11.229,11.229,0,0,1,2.928.654,9.17,9.17,0,0,1,1.39.811l.067-.171.773-2,.178-.458L35.3,20.417l-.461.228a10.209,10.209,0,0,0-3.995-1l-.1-3-.961-.721.026.753-1.283.045.107,3.056c-4.2.554-6.122,3.03-6.025,5.789.131,3.76,3.384,4.621,6.411,5.247l.189,5.409a10.388,10.388,0,0,1-5.481-1.866L22.6,37.125a11.839,11.839,0,0,0,6.7,2.014l.08,2.267-1.055.055,1.08.679,2.218-.077-.106-3.03c4.231-.581,6.176-3.032,6.08-5.791-.131-3.76-3.437-4.592-6.465-5.217M28.9,27.535c-1.585-.4-2.769-.959-2.814-2.257-.042-1.19.736-2.192,2.645-2.556Zm2.047-4.973Zm.473,13.524L31.256,31.3c1.639.4,2.851.983,2.9,2.309.04,1.163-.766,2.111-2.73,2.479" transform="translate(-1.422 -1.002)" fill="#03226c"/>
            <g id="Group_50042-3" data-name="Group 50042" transform="translate(21.18 14.925)" opacity="0.3">
              <g id="Group_50041-3" data-name="Group 50041">
                <g id="Group_50040-3" data-name="Group 50040" clip-path="url(#clip-path-28)">
                  <path id="Path_54158-3" data-name="Path 54158" d="M31.142,28.026l-.191-5.459h.026a11.229,11.229,0,0,1,2.928.654,9.17,9.17,0,0,1,1.39.811l.067-.171.773-2,.178-.458L35.3,20.417l-.461.228a10.209,10.209,0,0,0-3.995-1l-.1-3-.961-.721.026.753-1.283.045.107,3.056c-4.2.554-6.122,3.03-6.025,5.789.131,3.76,3.384,4.621,6.411,5.247l.189,5.409a10.388,10.388,0,0,1-5.481-1.866L22.6,37.125a11.839,11.839,0,0,0,6.7,2.014l.08,2.267-1.055.055,1.08.679,2.218-.077-.106-3.03c4.231-.581,6.176-3.032,6.08-5.791-.131-3.76-3.437-4.592-6.465-5.217M28.9,27.535c-1.585-.4-2.769-.959-2.814-2.257-.042-1.19.736-2.192,2.645-2.556Zm2.047-4.973Zm.473,13.524L31.256,31.3c1.639.4,2.851.983,2.9,2.309.04,1.163-.766,2.111-2.73,2.479" transform="translate(-22.603 -15.918)"/>
                </g>
              </g>
            </g>
            <path id="Path_54159-3" data-name="Path 54159" d="M30.521,38.325l.106,3.03-2.218.078-.1-3A11.863,11.863,0,0,1,21.6,36.416l1.122-2.775A10.4,10.4,0,0,0,28.2,35.508L28.012,30.1c-3.029-.625-6.282-1.486-6.413-5.247-.1-2.759,1.821-5.237,6.026-5.79L27.518,16l2.218-.078.1,3a11.6,11.6,0,0,1,5.55,1.458l-1.014,2.77a11.209,11.209,0,0,0-4.433-1.307l.191,5.464c3.029.626,6.335,1.458,6.466,5.219.1,2.759-1.849,5.21-6.081,5.792M27.9,26.824l-.168-4.815c-1.911.365-2.688,1.366-2.646,2.557.045,1.3,1.229,1.853,2.814,2.257m5.25,6.073c-.046-1.326-1.258-1.906-2.9-2.309l.168,4.788c1.964-.367,2.771-1.317,2.73-2.479" transform="translate(-1.359 -1.002)" fill="#fff"/>
            <path id="Path_54160-3" data-name="Path 54160" d="M31.161,50.948a1.128,1.128,0,0,1,.174-.026l.514-.054.835-.082a8.032,8.032,0,0,0,1.132-.152l1.406-.273a5.906,5.906,0,0,0,.791-.206l.847-.253c.289-.1.6-.158.9-.29l.933-.381c.317-.138.656-.251.981-.418l.994-.525a22.714,22.714,0,0,0,4.115-2.858l.986-.961c.166-.164.339-.322.5-.495s.307-.363.463-.545c.305-.371.638-.729.934-1.124l.858-1.233.217-.313c.068-.108.127-.222.191-.333l.379-.676.384-.683c.136-.225.22-.478.335-.717.208-.488.442-.972.635-1.478q.253-.772.511-1.558a23.149,23.149,0,0,0,.851-6.749,23.13,23.13,0,0,0-1.319-6.676l-.618-1.52c-.229-.49-.5-.957-.738-1.429-.13-.231-.231-.477-.383-.692s-.288-.438-.431-.654l-.425-.648c-.071-.106-.138-.216-.214-.319l-.239-.3-.942-1.17c-.323-.374-.68-.708-1.011-1.056l-.5-.513c-.174-.16-.359-.306-.535-.459l-1.05-.889a22.756,22.756,0,0,0-4.3-2.564l-1.029-.454c-.335-.143-.682-.233-1.008-.349l-.958-.316c-.307-.11-.623-.151-.918-.226l-.862-.193a5.8,5.8,0,0,0-.8-.151l-1.421-.174a8.184,8.184,0,0,0-1.139-.072l-.839-.022L29.824,7.7a1.073,1.073,0,0,1-.176-.014,1.311,1.311,0,0,1,.175-.007l.516,0,.841,0a7.865,7.865,0,0,1,1.145.052l1.429.157a5.937,5.937,0,0,1,.809.141l.869.186a9.479,9.479,0,0,1,.926.219l.966.31c.329.112.678.2,1.017.343l1.039.45a22.7,22.7,0,0,1,4.35,2.561l1.063.892c.179.153.365.3.542.461l.506.515c.335.35.7.686,1.022,1.062l.954,1.178.242.3c.077.1.144.214.216.32l.431.652.437.661c.153.216.257.465.388.7.245.477.516.947.748,1.442l.627,1.533a23.246,23.246,0,0,1,1.336,6.74,23.233,23.233,0,0,1-.863,6.814q-.261.794-.517,1.573c-.2.51-.434,1-.645,1.49-.115.242-.2.5-.339.723l-.389.689-.384.68c-.065.112-.125.227-.194.335l-.22.315q-.44.63-.87,1.242c-.3.4-.636.759-.946,1.132l-.469.548c-.165.172-.34.333-.507.5l-1,.964A22.71,22.71,0,0,1,40.74,48.42l-1,.521c-.328.166-.671.278-.99.414l-.942.377c-.3.129-.617.19-.909.284l-.854.246a5.818,5.818,0,0,1-.8.2l-1.415.257a7.867,7.867,0,0,1-1.139.132l-.839.062-.515.034a1.123,1.123,0,0,1-.175,0" transform="translate(-1.866 -0.483)" fill="#263238"/>
            <path id="Path_54161-3" data-name="Path 54161" d="M4.767,43.892a1.062,1.062,0,0,1-.141-.216l-.366-.638c-.161-.277-.349-.62-.537-1.034s-.435-.871-.638-1.407l-.337-.833c-.116-.29-.211-.6-.322-.919-.231-.633-.41-1.331-.614-2.061a30.827,30.827,0,0,1-.792-4.859A30.7,30.7,0,0,1,1.08,27c.093-.752.166-1.468.3-2.129.062-.33.11-.652.181-.957s.143-.6.211-.874c.122-.559.291-1.05.422-1.485a11.569,11.569,0,0,1,.379-1.1c.109-.281.2-.508.268-.686a1.172,1.172,0,0,1,.106-.233,1.143,1.143,0,0,1-.067.248c-.059.182-.134.413-.229.7-.106.3-.229.671-.343,1.109s-.279.927-.39,1.486c-.062.278-.127.57-.2.872s-.11.624-.169.953c-.127.658-.194,1.371-.28,2.118a32.061,32.061,0,0,0-.046,4.89A32.016,32.016,0,0,0,2,36.738c.2.726.367,1.422.59,2.052.108.318.2.629.308.918s.221.568.323.833c.194.537.424,1,.605,1.413s.355.764.5,1.046.246.485.331.656a1.178,1.178,0,0,1,.1.236" transform="translate(-0.06 -1.229)" fill="#fff"/>
            <path id="Path_54162-3" data-name="Path 54162" d="M23.568,27.442a1.8,1.8,0,0,1-.65-.6,3.348,3.348,0,0,1,0-4.05,1.79,1.79,0,0,1,.651-.6c.024.027-.237.244-.529.688a3.472,3.472,0,0,0,0,3.878c.291.444.552.661.528.688" transform="translate(-1.399 -1.396)" fill="#fff"/>
            <path id="Path_54163-3" data-name="Path 54163" d="M28.492,18.658a1.963,1.963,0,0,1-.137-.886,1.94,1.94,0,0,1,.075-.893,1.96,1.96,0,0,1,.137.886,1.97,1.97,0,0,1-.075.893" transform="translate(-1.784 -1.062)" fill="#fff"/>
            <path id="Path_54164-3" data-name="Path 54164" d="M30.045,6.159a4.276,4.276,0,0,1-.7,0c-.223-.011-.5-.021-.813-.012s-.677-.006-1.076.024-.835.042-1.3.1c-.467.037-.96.122-1.482.2a24.519,24.519,0,0,0-3.32.835A24.525,24.525,0,0,0,18.2,8.637c-.464.251-.909.481-1.3.733-.406.235-.767.479-1.1.7s-.618.441-.874.628-.469.357-.641.5a4.374,4.374,0,0,1-.554.422,4.35,4.35,0,0,1,.5-.484c.164-.153.369-.335.621-.529s.529-.434.861-.658.686-.488,1.092-.732c.395-.261.841-.5,1.305-.756a21.176,21.176,0,0,1,6.531-2.188c.527-.074,1.026-.153,1.5-.183.47-.05.911-.065,1.312-.074s.765,0,1.083.007.593.025.816.049a4.47,4.47,0,0,1,.692.085" transform="translate(-0.864 -0.378)" fill="#fff"/>
            <path id="Path_54165-3" data-name="Path 54165" d="M34.205,58.981a2.534,2.534,0,0,1-.5.156c-.326.09-.806.192-1.4.292a20.565,20.565,0,0,1-9.366-.635c-.578-.18-1.039-.347-1.35-.48a2.56,2.56,0,0,1-.477-.221,2.448,2.448,0,0,1,.505.144c.319.109.785.252,1.364.412a23.01,23.01,0,0,0,9.3.632c.6-.082,1.077-.16,1.407-.226a2.541,2.541,0,0,1,.52-.074" transform="translate(-1.328 -3.656)" fill="#fff"/>
          </g>
        </g>
      </g>
    </g>
  </g>
</svg>
