<svg id="Group_55403" data-name="Group 55403" xmlns="http://www.w3.org/2000/svg" xmlns:xlink="http://www.w3.org/1999/xlink" width="232.909" height="67.525" viewBox="0 0 232.909 67.525">
  <defs>
    <clipPath id="clip-path">
      <rect id="Rectangle_12915" data-name="Rectangle 12915" width="232.91" height="67.525" fill="none"/>
    </clipPath>
  </defs>
  <g id="Group_28863" data-name="Group 28863" clip-path="url(#clip-path)">
    <path id="Path_23261" data-name="Path 23261" d="M75.686,17.109A24.543,24.543,0,0,1,88.912,21.3c.876.576,1.821,1.046,2.7,1.617a24.785,24.785,0,0,1,4.95,4.312c.649.725,1.382,1.376,2.031,2.1a24.168,24.168,0,0,1,6.031,12.64A24.59,24.59,0,0,1,100.6,59.981c-.372.556-.659,1.167-1.007,1.741a25.055,25.055,0,0,1-30.721,10.6c-.888-.341-1.831-.537-2.727-.859A24.747,24.747,0,0,1,52.2,59.35a25.1,25.1,0,0,1-2.264-6.361,18.838,18.838,0,0,0-.741-2.076,24.924,24.924,0,0,1,17.5-32.431c1.207-.309,2.407-.651,3.624-.917a24.483,24.483,0,0,1,5.373-.457M55.237,45.926l-.073.008c.128,1.306.192,2.623.4,3.916A24.46,24.46,0,0,0,60.3,60.886a11.435,11.435,0,0,0,3.664,3.17,21.872,21.872,0,0,0,6.915,2.283,23.6,23.6,0,0,0,6.673.211,16.03,16.03,0,0,0,3.335-.619,24.622,24.622,0,0,0,16.392-26.5,6.008,6.008,0,0,0-.38-1.7A24.413,24.413,0,0,0,86.153,26.254a12.037,12.037,0,0,0-2.527-1.124,21.349,21.349,0,0,0-5.958-.649A24.671,24.671,0,0,0,59.42,32.912a11.164,11.164,0,0,0-1.665,2.214,23.688,23.688,0,0,0-2.519,10.8m-4.895-5.054c.021-.08.045-.159.063-.239a24.593,24.593,0,0,1,8.4-13.815c1.07-.9,2.217-1.707,3.313-2.576a24.776,24.776,0,0,1,14.533-5.472c.752-.036,1.508,0,2.262,0a.222.222,0,0,0-.144-.09c-1.125-.2-2.245-.442-3.377-.589a21.136,21.136,0,0,0-5.378,0,16.2,16.2,0,0,0-3.085.577A23.859,23.859,0,0,0,57,25.074a24.4,24.4,0,0,0-6.152,11.6,20.065,20.065,0,0,0-.5,4.195m48.8,7.828-.073-.012c-.025.076-.05.153-.073.23A24.813,24.813,0,0,1,87.257,63.678a33.9,33.9,0,0,1-9.292,3.279,23.01,23.01,0,0,1-6.417.535.667.667,0,0,0,.092.049c.062.021.126.039.19.055a24.816,24.816,0,0,0,17.507-2.142A12.125,12.125,0,0,0,91.624,64,20.837,20.837,0,0,0,95.5,59.454a21.13,21.13,0,0,0,3.525-9.021c.065-.575.085-1.154.125-1.731M64.849,19.25a24,24,0,0,0-8.6,4.953,24.554,24.554,0,0,0-5.94,7.941A24.07,24.07,0,0,0,47.983,41.8c-.1,3.3.839,8.55,1.7,9.769-.007-.095-.01-.17-.02-.244a25.014,25.014,0,0,1,.111-7.458,16.034,16.034,0,0,0,.289-2.069,25.991,25.991,0,0,1,.735-5.752A24.709,24.709,0,0,1,63.321,20.016c.5-.274,1.019-.512,1.529-.767M99.407,61.686l-.057-.05c-.049.057-.1.113-.148.17a24.818,24.818,0,0,1-12.639,8.122,5.307,5.307,0,0,0-.947.286,25.137,25.137,0,0,1-14.358,2.45c-.188-.024-.375-.051-.562-.076l-.554-.071c0,.026,0,.053,0,.079A24.874,24.874,0,0,0,99.407,61.686M83.132,65.321a1.607,1.607,0,0,0,.181-.055c1.032-.445,2.1-.824,3.087-1.35A24.5,24.5,0,0,0,98.785,48.957a5.825,5.825,0,0,0,.333-1.74,23.2,23.2,0,0,0-1.169-6.846c-.135-.417-.291-.827-.437-1.241A25.235,25.235,0,0,1,83.132,65.321m14.95-36.186c.028.045.054.092.085.135a24.74,24.74,0,0,1,4.551,14.979,6.652,6.652,0,0,0-.009,1.1,27.282,27.282,0,0,1,.276,4.182,24.527,24.527,0,0,1-1.8,8.95c-.036.089-.066.181-.1.271a24.385,24.385,0,0,0-3.006-29.621M53.16,46.482h.076a.774.774,0,0,0,.019-.083,24.4,24.4,0,0,1,3.169-9.643c.416-.719.931-1.384,1.315-2.118A25.15,25.15,0,0,1,67.5,24.378c.072-.043.144-.087.216-.13a.3.3,0,0,0-.213,0c-1.056.383-2.124.736-3.163,1.164a7.668,7.668,0,0,0-1.762.952,24.241,24.241,0,0,0-8.258,11.346,18.992,18.992,0,0,0-1.281,7.067c.021.57.081,1.138.124,1.707m6.791,19.45-.038.044c.183.194.361.394.549.582a24.466,24.466,0,0,0,6.075,4.475A11.188,11.188,0,0,0,68.764,72a22.365,22.365,0,0,0,6.356.649,24.623,24.623,0,0,0,8.164-1.629c.491-.188.972-.4,1.457-.6a.4.4,0,0,0-.258-.024,25.988,25.988,0,0,1-5.027.4c-.9-.01-1.8-.026-2.694,0a33.527,33.527,0,0,1-4.819-.158,24.754,24.754,0,0,1-11.587-4.419l-.4-.287m42.773-19.447h-.089c-.011.121-.019.242-.033.363-.137,1.229-.193,2.474-.427,3.684a24.353,24.353,0,0,1-10.121,15.7c-1.613,1.15-3.344,2.135-5.022,3.194-.117.075-.238.144-.357.217a.728.728,0,0,0,.333-.031,24.58,24.58,0,0,0,11.71-7.546,11.231,11.231,0,0,0,1.627-2.2,23.2,23.2,0,0,0,2.457-10.1c.022-1.092-.049-2.186-.078-3.279M69.643,23.442l.035.084a25.905,25.905,0,0,1,5.5-.426,24.421,24.421,0,0,1,6.364,1.033c.92.282,1.809.672,2.737.922a25.587,25.587,0,0,1,7.9,3.608c.214.147.426.3.639.444a.363.363,0,0,0-.111-.222c-.51-.493-1.006-1-1.538-1.47a24.506,24.506,0,0,0-12.25-5.845,7.192,7.192,0,0,0-1.828-.163,20.658,20.658,0,0,0-4.81,1.047c-.891.3-1.764.658-2.645.99m16.181-1.754c-.092-.064-.15-.11-.213-.149A22.532,22.532,0,0,0,81.7,19.614a8.512,8.512,0,0,0-1.971-.6,21.771,21.771,0,0,0-5.49.154,24.555,24.555,0,0,0-10.588,4.165c-.384.267-.757.55-1.135.826a.443.443,0,0,0,.272-.068A24.782,24.782,0,0,1,74.35,21.037c1.552-.029,3.1.021,4.657,0a27.94,27.94,0,0,1,4.753.279c.677.107,1.349.242,2.064.372m-3.372,2.934c-.13-.045-.259-.092-.389-.134a24.779,24.779,0,0,0-12.017-.83,5.4,5.4,0,0,0-1.576.422,24.484,24.484,0,0,0-9.708,9.139c-.041.068-.074.141-.11.211a25.349,25.349,0,0,1,23.8-8.808m7.577,40.7a.784.784,0,0,0-.1.038A24.78,24.78,0,0,1,79.974,68.4a26.281,26.281,0,0,1-6.532-.27c-1.418-.231-2.773-.741-4.215-.87-.767-.069-1.524-.255-2.282-.388.007.012.014.032.028.042.078.053.157.105.238.154a24.664,24.664,0,0,0,8.81,3.23,5.981,5.981,0,0,0,1.546.154,24.06,24.06,0,0,0,8.582-2.585,20.927,20.927,0,0,0,3.88-2.55m-23.09,6.149c-.065-.036-.128-.075-.194-.108a25.045,25.045,0,0,1-7.333-5.644,8.96,8.96,0,0,0-.8-.843,25.114,25.114,0,0,1-5.08-5.918c-.376-.611-.732-1.235-1.107-1.847-.592-.967-1.193-1.927-1.785-2.894-.11-.18-.2-.372-.3-.558a24.315,24.315,0,0,0,16.6,17.812M56.913,36.332a.038.038,0,0,0-.025.015c-.043.062-.084.126-.123.19a24.264,24.264,0,0,0-3.258,9.323,7.016,7.016,0,0,0-.1,2.082,24.266,24.266,0,0,0,6.049,12.294c.063.07.135.131.252.242a25.107,25.107,0,0,1-2.792-24.146m-1.056-4.761.034,0c-.036.043-.076.083-.109.129a23.929,23.929,0,0,0-3.32,6.576A24.442,24.442,0,0,0,51.338,48a8.047,8.047,0,0,0,.473,2.58c.307.711.593,1.43.918,2.132.248.535.541,1.049.814,1.573l.067-.025c-.014-.088-.027-.177-.041-.264-.086-.531-.188-1.061-.255-1.595-.1-.806-.149-1.619-.268-2.421a26.342,26.342,0,0,1-.32-4.208c.012-.982.1-1.964.123-2.946a23.518,23.518,0,0,1,1.484-7.7c.456-1.206,1.012-2.374,1.523-3.559m43.635,5.258-.06.024c.121.512.211,1.035.369,1.536a24.9,24.9,0,0,1,1.053,9.826A24.465,24.465,0,0,1,97.888,57.9c-.03.055-.052.116-.077.174a7.644,7.644,0,0,0,.667-.891,24.165,24.165,0,0,0,3.844-10.314,7.914,7.914,0,0,0,.044-2.312,23.09,23.09,0,0,0-2.7-7.445c-.053-.095-.113-.186-.17-.278m2.759,11.711c-.021.081-.045.162-.063.245A23.927,23.927,0,0,1,98.6,57.322c-.67.993-1.417,1.937-2.157,2.881-1.189,1.517-2.37,3.044-3.617,4.513-.7.823-1.524,1.539-2.315,2.325a24.766,24.766,0,0,0,7.66-7.268,23.769,23.769,0,0,0,4.082-11.233m-8.6-23.231c.766,1.038,1.568,2.091,2.33,3.171.451.639.788,1.363,1.267,1.978a24.812,24.812,0,0,1,4.773,10.025c.2.9.335,1.816.506,2.758,0-.2.014-.367,0-.533-.108-1.09-.166-2.189-.346-3.268A23.994,23.994,0,0,0,96.948,28a13.982,13.982,0,0,0-2.684-2.262c-.217-.159-.443-.305-.618-.425M96.814,37a21.638,21.638,0,0,0-2.1-5.675,4.531,4.531,0,0,0-1.049-1.29,23.9,23.9,0,0,0-7.505-4.2c-.218-.076-.44-.142-.66-.213A25.724,25.724,0,0,1,96.814,37M89.791,24.354l-.048.065c.354.354.714.7,1.061,1.064.484.5.917,1.065,1.442,1.521a25.76,25.76,0,0,1,5.784,7.184c.233.427.534.817.8,1.225a.279.279,0,0,0,.012-.2,22.755,22.755,0,0,0-1.481-3.884,6.135,6.135,0,0,0-.679-1.2,23.753,23.753,0,0,0-5.016-4.569c-.614-.418-1.252-.8-1.879-1.2M61.4,62.6l.093-.081a25.316,25.316,0,0,1-8.142-13.774,9.671,9.671,0,0,0,0,1.772,21.579,21.579,0,0,0,1.6,5.213,8.727,8.727,0,0,0,1.226,2.255,25.313,25.313,0,0,0,4.834,4.355c.129.089.26.173.391.26m26.026-42a24.579,24.579,0,0,0-9.314-3.128,23.963,23.963,0,0,0-8.414.418,1.38,1.38,0,0,0,.361,0,24.912,24.912,0,0,1,8.562.553,15.539,15.539,0,0,0,1.676.409,25.4,25.4,0,0,1,3.953.735c1.05.3,2.083.661,3.175,1.01M53.1,41.077l.08.022a25.128,25.128,0,0,1,8.35-14.2.583.583,0,0,0-.181.079,23.492,23.492,0,0,0-3.535,2.652A6.9,6.9,0,0,0,56.36,31.2a24.554,24.554,0,0,0-2.8,7.231c-.185.875-.307,1.763-.457,2.646m3.441,17.616-.038.029c.044.078.085.158.133.233a24.618,24.618,0,0,0,2.933,3.816,8.5,8.5,0,0,0,3.553,2.636c.1.031.19.083.288.119q1.071.39,2.142.777a.191.191,0,0,0-.077-.151q-1.4-1.158-2.793-2.314a14.858,14.858,0,0,0-1.172-.927A25.1,25.1,0,0,1,58.2,60.344c-.567-.533-1.1-1.1-1.655-1.65m35.5-34.648c-.218-.2-.436-.407-.667-.6A14.159,14.159,0,0,0,88.591,21.4a24.435,24.435,0,0,0-6.559-2.118c-.149-.026-.3-.048-.448-.069s-.273-.035-.41-.053a.293.293,0,0,0,.149.105,25.208,25.208,0,0,1,4.917,2.439,2.892,2.892,0,0,0,.615.277c.67.23,1.359.411,2.014.677,1.065.433,2.108.918,3.172,1.386m7.312,22.609a5.311,5.311,0,0,0,.145-.914c-.01-.839-.018-1.681-.1-2.515a24.072,24.072,0,0,0-3.46-10.161c-.081-.133-.167-.264-.251-.4a.5.5,0,0,0,.036.282c.4,1.2.821,2.392,1.2,3.6.174.547.215,1.143.433,1.668a26.923,26.923,0,0,1,2,8.439M57.836,62.7a24.569,24.569,0,0,0,15.24,7.719.826.826,0,0,0-.284-.1,24.664,24.664,0,0,1-10.024-4.448c-.456-.338-.87-.738-1.35-1.036-1.2-.747-2.43-1.451-3.582-2.134m4.6,2.615a23.625,23.625,0,0,0,6.431,3.694,22.264,22.264,0,0,0,7.222,1.5.22.22,0,0,0-.05-.023A24.924,24.924,0,0,1,66.423,66.8a2.347,2.347,0,0,0-.488-.217c-.961-.339-1.925-.67-2.886-1.01-.21-.074-.411-.171-.617-.257m-8.222-9.6a22.686,22.686,0,0,0,1.346,3.815A6.586,6.586,0,0,0,57.9,62.417c.485.329.958.677,1.449,1,.439.286.9.546,1.344.818l.052-.064a1.745,1.745,0,0,1-.15-.113,23.586,23.586,0,0,1-3.472-4.035c-.9-1.33-1.682-2.737-2.688-3.994-.079-.1-.148-.207-.221-.31m32.954-33.4c.483.377.964.758,1.452,1.13a4.416,4.416,0,0,0,.609.409A24.97,24.97,0,0,1,95.8,28.82l.306.326a20.607,20.607,0,0,0-2.268-3.221,6.236,6.236,0,0,0-2.284-1.857c-.3-.131-.591-.3-.889-.44a20.277,20.277,0,0,0-3.5-1.317m-14.255-.9a24.492,24.492,0,0,0-8.571,2.725,24.116,24.116,0,0,0-7.05,5.671.137.137,0,0,0,.1-.047,23.212,23.212,0,0,1,3.371-2.631c.828-.528,1.7-.989,2.508-1.545a24.665,24.665,0,0,1,6.026-3.106c1.2-.409,2.438-.722,3.621-1.067M97.627,31.4c.032.076.062.152.1.227a26.48,26.48,0,0,1,1.419,3.908,4.842,4.842,0,0,0,.461,1.083,25.02,25.02,0,0,1,1.894,4.047c.258.726.48,1.465.718,2.194.21-2.332-2.544-9.278-4.588-11.46M96.215,60.029l.08.044a24.034,24.034,0,0,0,4.1-9.815,24.3,24.3,0,0,0-.515-10.882,13.2,13.2,0,0,0,.109,1.825,26.214,26.214,0,0,1,.266,7.594,24.6,24.6,0,0,1-2.646,8.616c-.457.877-.928,1.746-1.392,2.619M50.157,44.04l-.061,0c-.021.352-.053.7-.063,1.056A25.014,25.014,0,0,0,52.2,56.073a9.544,9.544,0,0,0,1.959,2.85,1.409,1.409,0,0,0-.142-.289,22.772,22.772,0,0,1-2.969-7.706c-.353-2.006-.541-4.042-.8-6.065-.035-.274-.062-.549-.092-.824M78.2,66.782c0-.037,0-.074,0-.111a25.4,25.4,0,0,1-12.861-1.727.6.6,0,0,0,.156.126,23.818,23.818,0,0,0,4.176,1.889,3.915,3.915,0,0,0,1.117.283c1.359.031,2.723.064,4.079-.016,1.117-.066,2.224-.289,3.335-.443M94.985,31.1l-.093.066a25.1,25.1,0,0,1,4.8,12.786,2.785,2.785,0,0,0,.062-.573,14.088,14.088,0,0,0-.057-2.513A22.781,22.781,0,0,0,96.3,32.588,13.6,13.6,0,0,0,94.985,31.1M64.329,25.179c.077-.029.153-.061.23-.087,1.07-.373,2.138-.748,3.21-1.116a11.087,11.087,0,0,0,1.206-.4,25.735,25.735,0,0,1,5.47-1.925c.3-.069.61-.128.916-.188s.6-.113.9-.169a23.679,23.679,0,0,0-11.938,3.881M98.023,56.142a24.46,24.46,0,0,0,1.968-13.535c-.107,1.455-.212,2.913-.269,4.372a35.617,35.617,0,0,1-.879,5.88c-.229,1.1-.541,2.176-.821,3.282M80.541,70.4a.609.609,0,0,0,.125.035c.076,0,.151-.007.226-.017a23.967,23.967,0,0,0,6.248-1.678,12.45,12.45,0,0,0,2.24-1.138A20.462,20.462,0,0,0,93,64.256c.057-.065.106-.136.159-.205A25.336,25.336,0,0,1,80.541,70.4M50.973,39.341c.094-.235.173-.478.284-.7.676-1.381,1.343-2.768,2.045-4.136a24.429,24.429,0,0,1,5.012-6.648c.558-.527,1.106-1.066,1.658-1.6l-.08-.07a24.394,24.394,0,0,0-8.919,13.159m3.367-5.772-.093-.065a26.139,26.139,0,0,0-1.409,2.41A23.668,23.668,0,0,0,50.719,46.4a12.894,12.894,0,0,0,.36,2.009l.1-.009A24.9,24.9,0,0,1,54.34,33.568M51.929,56.092,52,56.064a25.145,25.145,0,0,1-2.158-11.156.213.213,0,0,0-.041.109,24.537,24.537,0,0,0-.107,4.81,8.827,8.827,0,0,0,1.06,4.209c.421.668.788,1.37,1.18,2.057M50.89,48.176l-.061.014a2.066,2.066,0,0,0,0,.277c.088.627.16,1.257.274,1.88a24.127,24.127,0,0,0,3.921,9.487,8.735,8.735,0,0,0,.841.916l.057-.053c-.078-.116-.154-.233-.236-.346a24.769,24.769,0,0,1-4.1-9.326c-.2-.956-.463-1.9-.7-2.849M90.914,25.87c-.306-.312-.6-.642-.923-.933a7.675,7.675,0,0,0-1.437-1.18,22.752,22.752,0,0,0-6.489-2.149c-.444-.081-.893-.135-1.34-.2A27.075,27.075,0,0,1,90.914,25.87M55.146,59.093c-.027-.077-.056-.155-.082-.232-.387-1.133-.772-2.267-1.164-3.4a5.849,5.849,0,0,0-.3-.725c-.479-.942-.968-1.878-1.45-2.818-.08-.157-.14-.324-.21-.486a21.486,21.486,0,0,0,3.208,7.66m37.5,4.265a15.366,15.366,0,0,0,5.539-8.685,26.246,26.246,0,0,1-5.539,8.685m-29.635.4-.078.112c.769.626,1.546,1.242,2.3,1.88a4.409,4.409,0,0,0,2.258,1.036c.29.041.574.117.863.167.307.053.616.093.923.139l.02-.069a28.569,28.569,0,0,1-6.29-3.264M93.79,29.783l.079-.076a11.556,11.556,0,0,0-1.046-1.393,24.111,24.111,0,0,0-6.683-4.684c-.43-.2-.868-.391-1.3-.585l-.035.067a25.116,25.116,0,0,1,8.987,6.671M50.433,45.3h.093a26.05,26.05,0,0,1,1.3-7.431.875.875,0,0,0-.153.26c-.278.722-.581,1.435-.821,2.169a8.482,8.482,0,0,0-.523,2.046,27.972,27.972,0,0,0,.105,2.957m37.577-22.1c-.347-.255-.685-.525-1.045-.759A2.713,2.713,0,0,0,86.122,22c-1.07-.233-2.149-.43-3.229-.609-.5-.084-1.021-.1-1.533-.14a30.248,30.248,0,0,1,6.65,1.942M53.739,58.705l-.067.054a21.951,21.951,0,0,0,4.293,5.215l.058-.048-4.284-5.222m43.413-25.22a29.066,29.066,0,0,1,2.512,6.19,11.184,11.184,0,0,0-2.512-6.19M81.577,70.5c0,.029.006.058.009.088q.966-.108,1.932-.216a7.365,7.365,0,0,0,3.627-1.226c.191-.138.4-.251.6-.375A28.913,28.913,0,0,1,81.577,70.5m3.063-1.683c1.414-.133,7.28-3.928,8.063-5.257-.518.378-1.006.686-1.438,1.058a25.393,25.393,0,0,1-4.628,3.2c-.657.348-1.33.666-2,1M58.3,63.976l-.056.058a8.289,8.289,0,0,0,.876.993,24.066,24.066,0,0,0,6.541,3.857c.074.03.153.048.229.071a31.082,31.082,0,0,1-4.01-2.165A25.632,25.632,0,0,1,58.3,63.976M95.378,26.251a24.015,24.015,0,0,0-4.6-3.634,23.632,23.632,0,0,0,4.6,3.634m-7.847,41.47c1.767-.542,7.02-4.829,7.3-5.973a28.125,28.125,0,0,1-7.3,5.973m5.3-39.886,4.258,5.238a21.281,21.281,0,0,0-4.258-5.238m-35.9,34.142c.576,1.371,5.32,5.3,6.8,5.608a25.755,25.755,0,0,1-6.8-5.608m-1.936-5.54-1.5-4.124c.187,1.486.338,3.055,1.5,4.124M54.33,33.172l3.5-4.455-.062-.048a21.187,21.187,0,0,0-3.435,4.5m6.129-7.181a30.54,30.54,0,0,1,5.087-2.961,15.837,15.837,0,0,0-5.087,2.961M58.515,28.11c.788-.66,1.555-1.349,2.371-1.972s1.675-1.171,2.516-1.753a17.468,17.468,0,0,0-4.887,3.725m33.554-.881a17.778,17.778,0,0,0-4.044-2.911l4.044,2.911M53.027,48.555a5.333,5.333,0,0,0-.135-2.389l.135,2.389M94.158,29.7A2.5,2.5,0,0,0,95.3,31.1l-1.138-1.4m5.376,17.369-.128,0q-.05.9-.1,1.793l.085.005.144-1.8" transform="translate(-32.939 -11.793)" fill="#1a1818"/>
    <path id="Path_23262" data-name="Path 23262" d="M519.88,69.368v-.331h1.387V58.088h-1.383v-.339h3.41v1.412a3.79,3.79,0,0,1,3.262-1.635,2.838,2.838,0,0,1,2.809,2.176l.194-.346a3.555,3.555,0,0,1,3.993-1.733,2.763,2.763,0,0,1,1.953,1.851,6.634,6.634,0,0,1,.382,2.395c.005,2.252,0,4.5,0,6.755v.4h1.367c.006.125.011.222.016.343h-4.807c0-.088-.01-.187-.016-.322h1.414V68.7c0-2.715,0-5.431-.005-8.146a4.866,4.866,0,0,0-.118-1.124,1.718,1.718,0,0,0-2.317-1.2,2.477,2.477,0,0,0-1.747,2.01,2.7,2.7,0,0,0-.07.618q-.007,3.988,0,7.976c0,.056.006.111.011.193h1.355c.006.123.011.222.016.34h-4.817c0-.1-.009-.194-.015-.319h1.381a.457.457,0,0,0,.037-.107q0-4.4-.007-8.8a2.716,2.716,0,0,0-.067-.562,1.858,1.858,0,0,0-2.925-1.112,2.775,2.775,0,0,0-1.263,2.492c-.019,1.2,0,2.4,0,3.6q0,2.186,0,4.371a.865.865,0,0,0,.013.088h1.358v.346Z" transform="translate(-358.337 -39.642)" fill="#1f4821"/>
    <path id="Path_23263" data-name="Path 23263" d="M450.191,60.02h1.344v.33h-4.772v-.324h1.36V44.764h-1.354v-.332h3.4v5.881a10.331,10.331,0,0,1,.754-.813,3.725,3.725,0,0,1,3.756-.8,2.921,2.921,0,0,1,1.96,2.184,8.094,8.094,0,0,1,.283,1.926c.039,1.655.013,3.311.013,4.967v2.242h1.361v.331h-4.8v-.319h1.373c.007-.105.018-.186.018-.268,0-2.838.006-5.676,0-8.515a2.013,2.013,0,0,0-.772-1.746,2.427,2.427,0,0,0-2.96.291,2.98,2.98,0,0,0-.972,2.2c-.017,2.63-.006,5.26-.006,7.89,0,.036.008.073.017.144" transform="translate(-307.939 -30.626)" fill="#1f4821"/>
    <path id="Path_23264" data-name="Path 23264" d="M347.022,137.41V136.6h1.712c.005.088.016.188.016.287,0,2.223.02,4.445-.011,6.667a9.477,9.477,0,0,1-.252,2.129,2.824,2.824,0,0,1-2.65,2.231,4.459,4.459,0,0,1-2.442-.329,3.156,3.156,0,0,1-1.793-3.158h1.674c.015.156.028.3.043.453a1.49,1.49,0,0,0,.768,1.221,2.241,2.241,0,0,0,1.969.128,1.344,1.344,0,0,0,.8-.906,6.517,6.517,0,0,0,.174-2.039,9.034,9.034,0,0,1-1.217.707,3.245,3.245,0,0,1-3.615-1,4.54,4.54,0,0,1-.318-5.009,3.222,3.222,0,0,1,5.146-.576m.117,2.807c-.068-.325-.1-.6-.183-.858a1.948,1.948,0,0,0-1.819-1.422,1.906,1.906,0,0,0-1.959,1.3,2.72,2.72,0,0,0,.027,2.127,1.859,1.859,0,0,0,1.928,1.248,1.878,1.878,0,0,0,1.8-1.362,7.756,7.756,0,0,0,.209-1.032" transform="translate(-235.227 -93.999)" fill="#1a1818"/>
    <path id="Path_23265" data-name="Path 23265" d="M284.526,68.09a2.051,2.051,0,0,1-1.688,2c-1.061.2-1.724-.319-2.247-1.756a11.7,11.7,0,0,1-.866.9,3.831,3.831,0,0,1-4.469.318,3.381,3.381,0,0,1-1.319-2.211,9.1,9.1,0,0,1-.174-1.687c-.019-2.233-.008-4.466-.008-6.7v-.341H272.4v-.343h3.4v.339q0,4.343,0,8.686a3.335,3.335,0,0,0,.076.731,1.953,1.953,0,0,0,2.429,1.446,2.735,2.735,0,0,0,2.2-2.614c.037-1.02.015-2.043.015-3.065q0-2.413,0-4.825v-.362h-1.367v-.338h3.356v.344q0,4.755,0,9.509c0,.5.166.793.514.921a.836.836,0,0,0,1.121-.712c.038-.241.116-.345.377-.248" transform="translate(-187.757 -40.168)" fill="#1f4821"/>
    <path id="Path_23266" data-name="Path 23266" d="M474.282,117.835h1.682V124.6a.764.764,0,0,0,.137-.084,3.2,3.2,0,0,1,4.942.554,4.5,4.5,0,0,1-.368,5.323,3.234,3.234,0,0,1-4.414.265c-.076-.068-.156-.132-.272-.229v.719h-1.707Zm5.8,9.641a8.088,8.088,0,0,0-.244-1,1.894,1.894,0,0,0-1.774-1.319,1.856,1.856,0,0,0-1.9,1.167,2.678,2.678,0,0,0,.023,2.385,1.971,1.971,0,0,0,3.563-.006,7.633,7.633,0,0,0,.333-1.229" transform="translate(-326.907 -81.22)" fill="#1a1818"/>
    <path id="Path_23267" data-name="Path 23267" d="M495.505,62.655H488.07c0,.39-.013.757,0,1.122a6.59,6.59,0,0,0,1.022,3.573,3.386,3.386,0,0,0,3.935,1.285,2.569,2.569,0,0,0,1.739-2.03c.023-.11.044-.221.067-.339h.359a3.119,3.119,0,0,1-1.908,2.754,5.023,5.023,0,0,1-6.361-1.941,7,7,0,0,1,.627-8.188,4.677,4.677,0,0,1,6.124-.781,4.416,4.416,0,0,1,1.7,3c.079.5.083,1.009.124,1.543m-2.286-.364c-.066-.754-.087-1.491-.206-2.212a6.031,6.031,0,0,0-.47-1.5,1.508,1.508,0,0,0-1.532-.916,2.028,2.028,0,0,0-1.411.642,6.646,6.646,0,0,0-1.491,3.987Z" transform="translate(-334.91 -39.496)" fill="#1f4821"/>
    <path id="Path_23268" data-name="Path 23268" d="M682.825,58.283v.324h-1.461l4.022,8.208c.24-.642.465-1.239.687-1.837.491-1.329.992-2.654,1.462-3.989a4.418,4.418,0,0,0,.253-1.211.992.992,0,0,0-.991-1.115c-.215-.026-.432-.041-.664-.062v-.318h4.074v.328c-.98-.036-1.44.642-1.781,1.385-.445.967-.826,1.966-1.2,2.963-.941,2.5-1.856,5.012-2.8,7.512a6.108,6.108,0,0,1-1.06,1.865,2.472,2.472,0,0,1-2.893.633,2.326,2.326,0,0,1-1-3.1,1.3,1.3,0,0,1,1.487-.606,1.265,1.265,0,0,1-.044,2.431,4.751,4.751,0,0,1-.936.011,1.309,1.309,0,0,0,1.128,1.089,2,2,0,0,0,1.987-.694,8.562,8.562,0,0,0,1.192-2.24,1.188,1.188,0,0,0-.061-1.106q-2.395-4.853-4.748-9.728c-.146-.3-.3-.461-.653-.412a6.3,6.3,0,0,1-.834.007v-.335Z" transform="translate(-467.317 -40.173)" fill="#1f4821"/>
    <path id="Path_23269" data-name="Path 23269" d="M357.439,58.631V58.3h4.838v.321h-1.45l4.021,8.206c.216-.583.416-1.121.615-1.659.53-1.435,1.066-2.867,1.583-4.307a3.969,3.969,0,0,0,.216-.962,1.033,1.033,0,0,0-1-1.225c-.206-.026-.414-.039-.654-.061,0-.094-.009-.192-.015-.314h4.073v.317c-1.1-.014-1.545.8-1.9,1.615-.579,1.353-1.078,2.74-1.6,4.118-.785,2.085-1.533,4.185-2.352,6.257a6.809,6.809,0,0,1-1.042,1.771,2.311,2.311,0,0,1-3.976-2.219,1.316,1.316,0,0,1,1.593-.9,1.241,1.241,0,0,1,.865,1.581,1.256,1.256,0,0,1-1.56.868c-.088-.023-.174-.053-.266-.082A1.321,1.321,0,0,0,360.6,72.81a2,2,0,0,0,1.979-.719,8.32,8.32,0,0,0,1.319-2.68.577.577,0,0,0-.088-.366q-1.242-2.563-2.495-5.12c-.807-1.656-1.619-3.309-2.414-4.97a.469.469,0,0,0-.532-.331c-.3.029-.6.007-.927.007" transform="translate(-246.371 -40.186)" fill="#1f4821"/>
    <path id="Path_23270" data-name="Path 23270" d="M595.1,69.214h-.312V65.39l.282-.015c.112.365.195.724.331,1.062a3.956,3.956,0,0,0,3.044,2.644,3.53,3.53,0,0,0,1.764-.114,2.159,2.159,0,0,0,.69-3.627,7.842,7.842,0,0,0-1.579-.871c-.844-.375-1.731-.657-2.568-1.048a2.792,2.792,0,0,1-1.707-2.024,3.178,3.178,0,0,1,2.181-3.7,5.475,5.475,0,0,1,3.779.034,5.084,5.084,0,0,0,.814.238c.5.089.677-.053.759-.561h.3V61.2c-.222.075-.309.006-.361-.213a5.957,5.957,0,0,0-.807-1.953,3.224,3.224,0,0,0-4.034-.939,2.054,2.054,0,0,0-.361,3.358,6.979,6.979,0,0,0,1.6.895c.74.332,1.513.591,2.267.893a4.742,4.742,0,0,1,.6.316,2.92,2.92,0,0,1,.742,4.475,4.34,4.34,0,0,1-3.626,1.472,5.036,5.036,0,0,1-2.1-.543,3.856,3.856,0,0,0-.819-.3c-.594-.135-.745-.027-.882.555" transform="translate(-409.968 -39.549)" fill="#1f4821"/>
    <path id="Path_23271" data-name="Path 23271" d="M571.426,143.909v-.692a.742.742,0,0,0-.142.082,3.239,3.239,0,0,1-5.046-.821,4.47,4.47,0,0,1,.552-5.168,3.19,3.19,0,0,1,4.49-.059c.025.026.056.045.137.112v-.791h1.709v7.338Zm-1.97-5.987a1.771,1.771,0,0,0-1.634.845,2.658,2.658,0,0,0-.069,2.875,1.8,1.8,0,0,0,1.8.954,1.856,1.856,0,0,0,1.688-1.147,2.779,2.779,0,0,0,.081-2.206,1.928,1.928,0,0,0-1.863-1.321" transform="translate(-389.895 -93.985)" fill="#1a1818"/>
    <path id="Path_23272" data-name="Path 23272" d="M374.7,137.37v-.8H376.4v7.343h-1.7v-.726c-.182.155-.311.276-.451.382a3.246,3.246,0,0,1-4.255-.452,4.459,4.459,0,0,1-.113-5.6,3.208,3.208,0,0,1,4.623-.337c.045.044.093.086.206.19m.092,2.694a5.922,5.922,0,0,0-.3-1.022,1.845,1.845,0,0,0-1.786-1.125,1.864,1.864,0,0,0-1.769,1.108,2.743,2.743,0,0,0-.243,1.712,2.024,2.024,0,0,0,3.016,1.606,2.477,2.477,0,0,0,1.081-2.279" transform="translate(-254.3 -93.98)" fill="#1a1818"/>
    <path id="Path_23273" data-name="Path 23273" d="M656.229,140.648h-5.265a1.9,1.9,0,0,0,1.173,1.818c1.162.374,1.944.033,2.725-1.284l1.461.823c-.171.256-.315.506-.492.732a3.812,3.812,0,0,1-5.6.395,4,4,0,0,1-1.008-3.416,5.022,5.022,0,0,1,.456-1.592,3.219,3.219,0,0,1,3.286-1.767c2.323.078,3.15,1.876,3.26,3.485.017.253,0,.508,0,.807m-1.77-1.381a1.616,1.616,0,0,0-1.76-1.368,1.678,1.678,0,0,0-1.637,1.368Z" transform="translate(-447.459 -93.984)" fill="#1a1818"/>
    <path id="Path_23274" data-name="Path 23274" d="M625.448,51.368h-1.432V51.02h1.432v-.888c0-.4-.005-.795,0-1.192,0-.082.037-.207.1-.237.609-.315,1.227-.615,1.89-.942v3.247h3.7v.346H627.46c-.009.131-.021.231-.021.33,0,2.573-.015,5.145.011,7.717a4.894,4.894,0,0,0,.269,1.576,1.652,1.652,0,0,0,1.883.937,1.6,1.6,0,0,0,1.417-1.27c.011-.045.024-.089.036-.134h.331a2.253,2.253,0,0,1-.737,1.526,3.129,3.129,0,0,1-4.537-.257,3.475,3.475,0,0,1-.63-1.884c-.034-.556-.032-1.115-.033-1.672q0-3.235,0-6.469Z" transform="translate(-430.114 -32.919)" fill="#1f4821"/>
    <path id="Path_23275" data-name="Path 23275" d="M337.09,59.251a2.371,2.371,0,0,0-1.537-1.382,3.191,3.191,0,0,0-4.015,1.862,8.617,8.617,0,0,0-.659,4.241,6.658,6.658,0,0,0,.874,3.05,3.488,3.488,0,0,0,2.348,1.771,2.778,2.778,0,0,0,3.368-2.252c.052-.28.153-.352.426-.261a3.106,3.106,0,0,1-1.107,2.239,4.273,4.273,0,0,1-3.358.9,5.113,5.113,0,0,1-4.453-4.029,6.6,6.6,0,0,1,1.43-6.432,5.046,5.046,0,0,1,5.422-1.376,2.826,2.826,0,0,1,1.956,2.952,1.352,1.352,0,0,1-1.066,1.181,1.3,1.3,0,0,1-1.394-.7,1.236,1.236,0,0,1,.153-1.385,1.219,1.219,0,0,1,1.355-.406l.19.054c.007,0,.016-.006.068-.025" transform="translate(-226.559 -39.491)" fill="#1f4821"/>
    <path id="Path_23276" data-name="Path 23276" d="M424.56,59.216a5.313,5.313,0,0,0-.384-.6,3.106,3.106,0,0,0-4.214-.219,4.242,4.242,0,0,0-1.306,2.213,8.827,8.827,0,0,0,.3,5.914,3.667,3.667,0,0,0,2.184,2.14,2.83,2.83,0,0,0,3.8-2.192c.015-.074.031-.147.049-.233h.335a3.013,3.013,0,0,1-.69,1.853,3.592,3.592,0,0,1-2.452,1.28,4.954,4.954,0,0,1-5.5-3.283,6.652,6.652,0,0,1,1.05-7.007,5.016,5.016,0,0,1,5.792-1.416,2.821,2.821,0,0,1,1.736,2.663,1.345,1.345,0,0,1-.854,1.3,1.246,1.246,0,0,1-1.388-.3A1.275,1.275,0,0,1,424.3,59.2l.207.062.057-.048" transform="translate(-286.831 -39.472)" fill="#1f4821"/>
    <path id="Path_23277" data-name="Path 23277" d="M300.227,136.345a3.908,3.908,0,1,1-3.934,3.882,3.87,3.87,0,0,1,3.934-3.882m-.012,1.666a2.243,2.243,0,0,0-2.208,2.241,2.211,2.211,0,1,0,4.422-.015,2.224,2.224,0,0,0-2.214-2.226" transform="translate(-204.226 -93.978)" fill="#1a1818"/>
    <path id="Path_23278" data-name="Path 23278" d="M498.224,137.011c.661,0,1.256-.009,1.85.009a.4.4,0,0,1,.256.2c.674,1.246,1.338,2.5,2,3.748.034.064.075.126.139.233.273-.545.53-1.054.783-1.564.4-.812.8-1.627,1.209-2.436.04-.08.137-.184.209-.186.584-.015,1.168-.009,1.811-.009-.224.442-.424.843-.629,1.241q-2.531,4.911-5.058,9.824a.482.482,0,0,1-.518.314c-.509-.021-1.019-.006-1.583-.006.057-.123.095-.212.139-.3.855-1.62,1.708-3.242,2.573-4.858a.418.418,0,0,0-.01-.464q-1.5-2.7-2.987-5.408c-.053-.1-.106-.195-.189-.348" transform="translate(-343.41 -94.436)" fill="#1a1818"/>
    <path id="Path_23279" data-name="Path 23279" d="M252.91,72.5a1.636,1.636,0,0,0,1.242.816A2.1,2.1,0,0,0,256.5,71.1a13.371,13.371,0,0,0-.614-2.787,13.173,13.173,0,0,1-.46-3.445q0-2.937,0-5.873v-.364h-1.4V58.29h3.407v.3c0,3.537.013,7.075-.007,10.612a5.468,5.468,0,0,1-1.08,3.509,2.494,2.494,0,0,1-3.563.361,1.878,1.878,0,0,1-.117-2.626,1.3,1.3,0,0,1,1.642-.14,1.332,1.332,0,0,1,.376,1.61,1.247,1.247,0,0,1-1.448.666c-.081-.021-.161-.044-.327-.089" transform="translate(-173.824 -40.177)" fill="#1f4821"/>
    <path id="Path_23280" data-name="Path 23280" d="M656.867,57.693V61.54l-.29.013c-.107-.453-.207-.9-.322-1.345a3.54,3.54,0,0,0-.2-.558A1.641,1.641,0,0,0,653.6,58.9a3.3,3.3,0,0,0-1.412,2.085A5.686,5.686,0,0,0,652,62.357c-.019,2.156-.008,4.313-.008,6.47v.326h1.371v.337h-4.793c0-.091-.009-.189-.016-.324h1.4V58.219h-1.384v-.342h3.408v2.239a4.651,4.651,0,0,1,2.059-1.937,6.774,6.774,0,0,1,2.826-.486" transform="translate(-447.027 -39.766)" fill="#1f4821"/>
    <path id="Path_23281" data-name="Path 23281" d="M404.714,143.88h-1.7c0-.12,0-.231,0-.341q-.009-2.113-.02-4.227c0-.038,0-.076-.007-.113-.1-1.037-.362-1.4-1.6-1.3-.786.065-1.21.59-1.238,1.531-.041,1.351-.037,2.7-.052,4.055,0,.122,0,.244,0,.385h-1.7v-7.328h1.684v.433a11.325,11.325,0,0,1,1.362-.584,2.768,2.768,0,0,1,1.783.117,2.236,2.236,0,0,1,1.4,1.855,6.217,6.217,0,0,1,.1,1.042c.011,1.456,0,2.913,0,4.37a.611.611,0,0,1-.024.105" transform="translate(-274.608 -93.943)" fill="#1a1818"/>
    <path id="Path_23282" data-name="Path 23282" d="M543.049,136.581v.546a2.646,2.646,0,0,1,1.394-.716,2.675,2.675,0,0,1,2.52.676,2.725,2.725,0,0,1,.679,1.881c.032,1.494.026,2.988.035,4.483,0,.15,0,.3,0,.465h-1.724v-.307c0-1.306.013-2.611-.008-3.916a6.3,6.3,0,0,0-.168-1.17.615.615,0,0,0-.548-.51,3.88,3.88,0,0,0-1.227.012,1.266,1.266,0,0,0-.891,1.34c-.053,1.057-.049,2.117-.064,3.175-.006.452,0,.905,0,1.375h-1.7v-7.333Z" transform="translate(-373.135 -93.985)" fill="#1a1818"/>
    <path id="Path_23283" data-name="Path 23283" d="M607.352,137.054h1.69c0,.11.013.218.014.326.015,1.418,0,2.837.053,4.253a1.328,1.328,0,0,0,1.771,1.356,1.132,1.132,0,0,0,.942-.942,4.815,4.815,0,0,0,.108-.983c.012-1.229,0-2.459,0-3.688v-.319h1.69a2.009,2.009,0,0,1,.023.212c0,1.362.031,2.724-.014,4.085a5.316,5.316,0,0,1-.321,1.625,2.36,2.36,0,0,1-2.036,1.592,5.637,5.637,0,0,1-1.688-.024,2.647,2.647,0,0,1-2.178-2.562c-.076-1.1-.046-2.21-.058-3.316-.006-.528,0-1.056,0-1.616" transform="translate(-418.627 -94.467)" fill="#1a1818"/>
    <path id="Path_23284" data-name="Path 23284" d="M313.39,58.618h-1.379v-.34h3.408V69.556h1.387V69.9h-4.792V69.57h1.377Z" transform="translate(-215.059 -40.169)" fill="#1f4821"/>
    <path id="Path_23285" data-name="Path 23285" d="M578.488,69.581v-.353q0-5.123.006-10.245c0-.283-.064-.385-.359-.361-.338.028-.68.007-1.052.007l-.015-.33h3.416v11.27h1.373v.339h-4.771v-.327Z" transform="translate(-397.755 -40.184)" fill="#1f4821"/>
    <path id="Path_23286" data-name="Path 23286" d="M441.9,141.4c0,.717,0,1.432-.007,2.146,0,.06-.085.138-.149.175a4.22,4.22,0,0,1-4.489-.417,3.915,3.915,0,0,1,2.247-6.925,4.252,4.252,0,0,1,2.177.4.347.347,0,0,1,.227.369c-.013.669,0,1.339,0,2.088-.176-.194-.3-.338-.433-.477a2.21,2.21,0,0,0-3.255-.1,2.359,2.359,0,0,0,.16,3.414,2.27,2.27,0,0,0,2.959-.142c.181-.173.367-.343.567-.529" transform="translate(-300.41 -93.992)" fill="#1a1818"/>
    <path id="Path_23287" data-name="Path 23287" d="M595.852,138.47h-1.728v-5.728H593.4v-1.631h.713v-2.666h1.727v2.66h1.288v1.624h-1.279Z" transform="translate(-409.014 -88.533)" fill="#1a1818"/>
    <path id="Path_23288" data-name="Path 23288" d="M638.275,136.82l-.759,1.516a3.334,3.334,0,0,0-.785-.306c-.852-.1-1.382.381-1.5,1.321a8.642,8.642,0,0,0-.068,1.046c-.008,1.162,0,2.325,0,3.51h-1.7v-7.334h1.689v.661a2.211,2.211,0,0,1,3.129-.413" transform="translate(-436.622 -93.982)" fill="#1a1818"/>
    <path id="Path_23289" data-name="Path 23289" d="M330.427,136.821l-.8,1.6a1.2,1.2,0,0,0-1.246-.369c-.562.116-.909.576-1.007,1.327a7.063,7.063,0,0,0-.059.876c-.007,1.192,0,2.384,0,3.576a.729.729,0,0,1-.011.08h-1.678v-7.332h1.68v.653a2.212,2.212,0,0,1,3.127-.405" transform="translate(-224.44 -93.982)" fill="#1a1818"/>
    <rect id="Rectangle_12914" data-name="Rectangle 12914" width="1.67" height="7.336" transform="translate(132.207 42.589)" fill="#1a1818"/>
    <path id="Path_23290" data-name="Path 23290" d="M684.01,124.711a.884.884,0,0,1,.108-.021c.828-.042.828-.042,1.092.743.138.409.278.817.438,1.285.219-.636.428-1.206.609-1.785a.3.3,0,0,1,.368-.246c.205.016.413,0,.638,0v2.857h-.607v-2.013l-.054-.011q-.222.633-.444,1.266c-.056.161-.113.321-.164.483s-.088.327-.346.322a.386.386,0,0,1-.418-.322,15.294,15.294,0,0,0-.626-1.62v1.886h-.6Z" transform="translate(-471.466 -85.935)" fill="#1a1818"/>
    <path id="Path_23291" data-name="Path 23291" d="M580.785,45.324a1.233,1.233,0,0,1,1.22-1.313,1.2,1.2,0,0,1,1.232,1.292A1.228,1.228,0,0,1,582,46.566a1.168,1.168,0,0,1-1.21-1.242" transform="translate(-400.316 -30.335)" fill="#1f4821"/>
    <path id="Path_23292" data-name="Path 23292" d="M263.091,45.285a1.236,1.236,0,0,1-1.231,1.282,1.168,1.168,0,0,1-1.221-1.236,1.231,1.231,0,0,1,1.22-1.318,1.209,1.209,0,0,1,1.232,1.273" transform="translate(-179.65 -30.336)" fill="#1f4821"/>
    <path id="Path_23293" data-name="Path 23293" d="M315.672,45.316a1.231,1.231,0,0,1,1.236-1.3,1.2,1.2,0,0,1,1.216,1.285,1.229,1.229,0,0,1-1.241,1.27,1.18,1.18,0,0,1-1.211-1.251" transform="translate(-217.583 -30.336)" fill="#1f4821"/>
    <path id="Path_23294" data-name="Path 23294" d="M426.823,124.806a1.116,1.116,0,0,1-2.232.013,1.116,1.116,0,1,1,2.232-.013" transform="translate(-292.657 -85.247)" fill="#1a1818"/>
    <path id="Path_23295" data-name="Path 23295" d="M676.188,127.627v-2.3h-.809v-.53h2.274v.514h-.787v2.313Z" transform="translate(-465.517 -86.021)" fill="#1a1818"/>
    <path id="Path_23296" data-name="Path 23296" d="M73.632,132.78c-.131-.087-.262-.171-.391-.26a25.333,25.333,0,0,1-4.834-4.355,8.738,8.738,0,0,1-1.226-2.255,21.592,21.592,0,0,1-1.6-5.214,9.672,9.672,0,0,1,0-1.772A25.313,25.313,0,0,0,73.725,132.7l-.093.081" transform="translate(-45.174 -81.97)" fill="#fff"/>
    <path id="Path_23297" data-name="Path 23297" d="M174.508,33.851a20.236,20.236,0,0,1,3.5,1.317c.3.143.586.308.889.439a6.237,6.237,0,0,1,2.284,1.857,20.6,20.6,0,0,1,2.268,3.221l-.307-.326a24.964,24.964,0,0,0-6.576-4.97,4.387,4.387,0,0,1-.609-.408c-.488-.372-.969-.753-1.452-1.13" transform="translate(-120.283 -23.332)" fill="#fff"/>
    <path id="Path_23298" data-name="Path 23298" d="M153.2,174.522a25.338,25.338,0,0,0,12.613-6.345c-.053.068-.1.14-.159.2a20.463,20.463,0,0,1-3.614,3.343,12.43,12.43,0,0,1-2.24,1.138,23.939,23.939,0,0,1-6.247,1.678,2.2,2.2,0,0,1-.227.017.647.647,0,0,1-.125-.036" transform="translate(-105.592 -115.919)" fill="#fff"/>
    <path id="Path_23299" data-name="Path 23299" d="M58.039,59.466a24.4,24.4,0,0,1,8.919-13.159l.08.07c-.552.534-1.1,1.073-1.658,1.6a24.431,24.431,0,0,0-5.012,6.648c-.7,1.368-1.368,2.754-2.045,4.136-.111.227-.19.47-.284.7" transform="translate(-40.004 -31.918)" fill="#fff"/>
    <path id="Path_23300" data-name="Path 23300" d="M60.827,69.935a24.9,24.9,0,0,0-3.161,14.831l-.1.009a12.889,12.889,0,0,1-.36-2.009A23.67,23.67,0,0,1,59.325,72.28a26.133,26.133,0,0,1,1.409-2.41Z" transform="translate(-39.425 -48.159)" fill="#fff"/>
    <path id="Path_23301" data-name="Path 23301" d="M55.988,117.757c-.392-.687-.758-1.389-1.18-2.057a8.83,8.83,0,0,1-1.061-4.209,24.561,24.561,0,0,1,.107-4.81.211.211,0,0,1,.041-.109,25.149,25.149,0,0,0,2.158,11.156l-.066.028" transform="translate(-36.998 -73.457)" fill="#fff"/>
    <path id="Path_23302" data-name="Path 23302" d="M88.568,39.124a15.837,15.837,0,0,1,5.087-2.961,30.541,30.541,0,0,0-5.087,2.961" transform="translate(-61.047 -24.926)" fill="#fff"/>
    <path id="Path_23303" data-name="Path 23303" d="M304.016,141.706a2.224,2.224,0,0,1,2.214,2.226,2.211,2.211,0,1,1-2.214-2.226" transform="translate(-208.027 -97.673)" fill="#fff"/>
    <path id="Path_23304" data-name="Path 23304" d="M141.762,94.174a2.448,2.448,0,0,0-1.749-1.432,3.2,3.2,0,0,0-3.838,1.9,8.653,8.653,0,0,0-.7,4.011,7.332,7.332,0,0,0,.653,2.968,3.8,3.8,0,0,0,2.212,2.154,2.851,2.851,0,0,0,3.856-2.367c.005-.037.012-.073.021-.125h.442c-.031.2-.046.407-.094.6a3.383,3.383,0,0,1-2.771,2.6,5.064,5.064,0,0,1-5.614-2.418,7.1,7.1,0,0,1,.457-7.844,5.208,5.208,0,0,1,6-1.714,2.87,2.87,0,0,1,1.918,2.578A1.413,1.413,0,0,1,140.58,96.6a1.34,1.34,0,0,1-.686-1.651,1.3,1.3,0,0,1,1.506-.864c.1.02.2.047.362.086" transform="translate(-91.816 -63.517)" fill="#515255"/>
    <path id="Path_23305" data-name="Path 23305" d="M110.865,107.8a1.756,1.756,0,0,0,1.872.667,2.064,2.064,0,0,0,1.648-2.089,7.651,7.651,0,0,0-.432-2.275,15.2,15.2,0,0,1-.662-4.667c.021-1.835,0-3.671,0-5.506v-.338h-1.417v-.41h3.529v.3q0,5.421,0,10.841a6.259,6.259,0,0,1-.687,2.981,2.707,2.707,0,0,1-1.943,1.555,2.464,2.464,0,0,1-2.15-.551,1.958,1.958,0,0,1-.325-2.485,1.366,1.366,0,0,1,1.595-.546,1.3,1.3,0,0,1,.829,1.427,1.262,1.262,0,0,1-1.126,1.136,3.934,3.934,0,0,1-.732-.042" transform="translate(-75.816 -64.229)" fill="#515255"/>
    <path id="Path_23306" data-name="Path 23306" d="M122.3,79.934a1.325,1.325,0,0,1-1.3,1.36,1.281,1.281,0,0,1-1.271-1.318,1.315,1.315,0,0,1,1.286-1.369,1.273,1.273,0,0,1,1.286,1.327" transform="translate(-82.527 -54.181)" fill="#515255"/>
  </g>
</svg>
