<svg xmlns="http://www.w3.org/2000/svg" width="225.691" height="25.754" viewBox="0 0 225.691 25.754">
  <g id="image_2023_11_30T10_48_18_749Z" transform="translate(0 -0.001)">
    <path id="Path_67838" data-name="Path 67838" d="M701.4-197.613a6.994,6.994,0,0,0-5.589,6.932,4.973,4.973,0,0,0,1.424,3.88c1.085,1.085,2.577,1.655,6.918,2.632,5.589,1.262,6.647,1.981,6.647,4.544a3,3,0,0,1-1.1,2.645c-1.709,1.492-5.711,1.94-8.4.936a5.284,5.284,0,0,1-3.12-3.961c-.163-1.262-.041-1.18-1.709-1.18H695v.638a7.629,7.629,0,0,0,4.165,6.661,10.166,10.166,0,0,0,5.4,1.031,11.125,11.125,0,0,0,3.473-.353c4.1-1.1,5.955-3.269,5.955-6.946a5.791,5.791,0,0,0-1.967-4.6c-1.275-1.017-1.953-1.248-7.909-2.672-3.419-.8-4.382-1.262-4.924-2.333a3.8,3.8,0,0,1-.014-2.862,4.434,4.434,0,0,1,1.994-1.994,9.927,9.927,0,0,1,3.893-.488c2.89.244,4.558,1.533,5.046,3.907l.176.855,1.506.041,1.519.041v-.434a8.3,8.3,0,0,0-.76-3.188c-.773-1.628-2.333-2.808-4.734-3.581A16.966,16.966,0,0,0,701.4-197.613Z" transform="translate(-602.334 197.851)"/>
    <path id="Path_67839" data-name="Path 67839" d="M554.768-193.966c-.027.068-1.709,5.331-3.731,11.707s-3.717,11.721-3.771,11.843c-.081.217.027.244,1.18.2l1.262-.041,3.771-11.87c2.062-6.525,3.771-11.883,3.771-11.911A12.775,12.775,0,0,0,554.768-193.966Z" transform="translate(-474.623 194.584)"/>
    <path id="Path_67840" data-name="Path 67840" d="M859.8-193.634c-.6,1.533-8.8,23.387-8.8,23.441a9.71,9.71,0,0,0,1.641.041l1.641-.041.936-2.577c.515-1.424,1.085-3.025,1.289-3.568l.353-.977H866.3l1.194,3.595,1.207,3.595h1.8a6.886,6.886,0,0,0,1.736-.109c-.041-.081-6.471-17.717-8.519-23.4l-.136-.366h-3.636Zm3.622,8.383c.936,2.767,1.75,5.1,1.777,5.182.054.136-.733.176-3.69.176-3.527,0-3.758-.014-3.663-.244.068-.163,2.957-8.1,3.663-10.052.041-.109.095-.163.136-.136S862.477-188,863.426-185.25Z" transform="translate(-737.172 194.523)"/>
    <path id="Path_67841" data-name="Path 67841" d="M1023.8-193.634c-.6,1.533-8.8,23.387-8.8,23.441a9.712,9.712,0,0,0,1.642.041l1.641-.041.936-2.577c.516-1.424,1.085-3.025,1.289-3.568l.353-.977h9.441l1.194,3.595,1.207,3.595h1.8a6.886,6.886,0,0,0,1.736-.109c-.041-.081-6.471-17.717-8.519-23.4l-.136-.366h-3.636Zm3.622,8.383c.936,2.767,1.75,5.1,1.777,5.182.054.136-.733.176-3.69.176-3.527,0-3.758-.014-3.663-.244.068-.163,2.957-8.1,3.663-10.052.041-.109.095-.163.135-.136S1026.476-188,1027.426-185.25Z" transform="translate(-878.924 194.523)"/>
    <path id="Path_67842" data-name="Path 67842" d="M1195-182.062v11.938h5.264c6.674,0,7.665-.149,9.7-1.479a8.6,8.6,0,0,0,3.2-3.839,13.869,13.869,0,0,0,1.438-7.095,11.825,11.825,0,0,0-1.14-5.955,8.975,8.975,0,0,0-6.945-5.372c-.488-.068-3.188-.136-6.186-.136H1195Zm11.409-8.858c2.754.8,4.246,2.835,4.8,6.525a13.6,13.6,0,0,1,0,4.572c-.515,3.215-1.791,5.263-3.866,6.281-1.167.556-2.4.705-6.132.705h-2.957v-18.49l3.636.081C1204.917-191.192,1205.663-191.138,1206.409-190.921Z" transform="translate(-1034.506 194.523)"/>
    <path id="Path_67843" data-name="Path 67843" d="M1364.8-193.634c-.6,1.533-8.8,23.387-8.8,23.441a9.711,9.711,0,0,0,1.642.041l1.641-.041.936-2.577c.515-1.424,1.085-3.025,1.289-3.568l.353-.977h9.442l1.194,3.595,1.207,3.595h1.8a6.887,6.887,0,0,0,1.737-.109c-.041-.081-6.471-17.717-8.519-23.4l-.136-.366h-3.636Zm3.622,8.383c.936,2.767,1.75,5.1,1.777,5.182.054.136-.733.176-3.69.176-3.527,0-3.758-.014-3.663-.244.068-.163,2.957-8.1,3.663-10.052.041-.109.1-.163.136-.136S1367.476-188,1368.426-185.25Z" transform="translate(-1173.666 194.523)"/>
    <path id="Path_67844" data-name="Path 67844" d="M1527.8-193.634c-.6,1.533-8.8,23.387-8.8,23.441a9.711,9.711,0,0,0,1.641.041l1.641-.041.936-2.577c.516-1.424,1.085-3.025,1.289-3.568l.353-.977h9.442l1.194,3.595,1.207,3.595h1.8a6.886,6.886,0,0,0,1.736-.109c-.041-.081-6.471-17.717-8.519-23.4l-.136-.366h-3.636Zm3.622,8.383c.936,2.767,1.75,5.1,1.777,5.182.054.136-.732.176-3.69.176-3.527,0-3.758-.014-3.663-.244.068-.163,2.957-8.1,3.663-10.052.041-.109.095-.163.135-.136S1530.477-188,1531.426-185.25Z" transform="translate(-1314.554 194.523)"/>
    <path id="Path_67845" data-name="Path 67845" d="M11.941-185.888l.041,1.126,4.517.041,4.517.027-.041,3.839c-.041,3.391-.068,3.88-.285,4.205-.38.6-.99.841-2.062.827a3.762,3.762,0,0,1-2.713-1.031l-.543-.488-.8.638c-.448.339-.909.692-1.017.773-.163.122.624,1.207,4.4,6.172,2.523,3.31,4.6,6.037,4.6,6.05s.5-.285,1.085-.651c.705-.448,1.031-.746.977-.868-.095-.244-4.707-6.24-5.7-7.393l-.746-.882,1.248-.081a4.782,4.782,0,0,0,2.808-.882c.109-.122.244-.136.488-.054a17.617,17.617,0,0,0,1.723.421,21.694,21.694,0,0,0,5.562.19L30.77-174v9.93h2.713v-20.62h7.054v20.62H43.25v-20.62H58.308v3.513l-.5.136c-.285.068-1.519.393-2.754.692-2.7.692-3.988,1.275-4.992,2.265a5.077,5.077,0,0,0-1.506,3.107,7.405,7.405,0,0,0,2.4,6.294,10.044,10.044,0,0,0,3.825,1.845,9.856,9.856,0,0,0,4.463-.2,4.445,4.445,0,0,1,.9-.258c.027.027.6,1.058,1.289,2.306a11.458,11.458,0,0,0,1.438,2.279c.109,0,.841-.163,1.614-.353l1.424-.353-.393-.5c-.2-.271-1.085-1.4-1.953-2.5l-1.574-2.008.407-.556a3.734,3.734,0,0,0-.475-5.06l-.448-.339-1.045.366-1.031.366v3.717l-.6.3a6.279,6.279,0,0,1-4.856,0c-2.659-1.18-3.608-4.924-1.7-6.756.882-.855,1.8-1.194,5.725-2.143,1.424-.339,2.686-.651,2.822-.678.2-.068.231-.312.231-2.781v-2.7h8v20.62h2.713V-184.68l2.143-.041,2.13-.041.041-1.126L76.092-187H11.9Zm18.829,5.25v4.056l-.909.176a20.552,20.552,0,0,1-5.4-.041c-.624-.136-.814-.231-.8-.421,0-.122.014-1.94.027-4.029l.027-3.8H30.77Z" transform="translate(-11.9 188.473)"/>
  </g>
</svg>
