<svg xmlns="http://www.w3.org/2000/svg" width="25.279" height="25.279" viewBox="0 0 25.279 25.279">
  <g id="Group_54984" data-name="Group 54984" transform="translate(-519.264 -543.201)" opacity="0.14">
    <path id="Path_67416" data-name="Path 67416" d="M205.367,1.638a12.64,12.64,0,1,1-12.64,12.64,12.64,12.64,0,0,1,12.64-12.64" transform="translate(326.537 541.563)" fill="#050605"/>
    <path id="Path_67417" data-name="Path 67417" d="M204.973,11.831,202,14.984l-4.673-4.962-1.051,1.115L202,17.214l2.971-3.154,3.188,3.386-1.7,1.807h4.456v-4.73l-1.7,1.808Z" transform="translate(327.832 544.619)" fill="#fff"/>
    <path id="Path_67418" data-name="Path 67418" d="M207.055,5.765l-3.386-1.612a.353.353,0,0,0-.306,0l-3.386,1.612-.02.014-.031.016-.022.02a.356.356,0,0,0-.072.078c-.007.012-.015.022-.022.033a.579.579,0,0,0-.029.067l-.011.031a.421.421,0,0,0-.015.109v4.029a.405.405,0,0,0,.222.367l3.386,1.612a.333.333,0,0,0,.3,0v0l3.386-1.612a.4.4,0,0,0,.224-.368V6.133a.4.4,0,0,0-.224-.368m-3.539-.8,2.461,1.171L203.516,7.3l-.491-.233-1.968-.936Zm.377,6.19V8.006l2.632-1.253V9.9Z" transform="translate(329.1 542.467)" fill="#fff"/>
  </g>
</svg>
