<svg xmlns="http://www.w3.org/2000/svg" xmlns:xlink="http://www.w3.org/1999/xlink" width="500" zoomAndPan="magnify" viewBox="0 0 375 153.000002" height="204" preserveAspectRatio="xMidYMid meet" version="1.0"><defs><g/><clipPath id="fd7c4b7e38"><path d="M 5.859375 4.714844 L 126 4.714844 L 126 89 L 5.859375 89 Z M 5.859375 4.714844 " clip-rule="nonzero"/></clipPath><clipPath id="162b612ebe"><path d="M 336 51 L 369.816406 51 L 369.816406 97 L 336 97 Z M 336 51 " clip-rule="nonzero"/></clipPath></defs><g clip-path="url(#fd7c4b7e38)"><path fill="#01a2ff" d="M 116.707031 36.757812 L 115.753906 36.757812 C 112.285156 36.800781 108.816406 36.84375 105.347656 36.929688 C 102.878906 36.972656 100.40625 37.015625 97.933594 37.058594 C 96.675781 37.105469 95.378906 37.234375 94.121094 37.191406 C 93.382812 37.105469 92.6875 36.84375 92.082031 36.453125 C 88.179688 34.074219 84.320312 31.648438 80.421875 29.265625 C 77.039062 27.1875 73.65625 25.152344 70.230469 23.117188 C 69.105469 22.425781 67.933594 21.863281 66.675781 21.472656 C 63.640625 20.605469 60.953125 21.472656 58.441406 23.246094 C 56.53125 24.589844 54.582031 25.886719 52.675781 27.230469 C 50.507812 28.746094 48.382812 30.261719 46.214844 31.777344 C 44.4375 33.035156 42.617188 34.246094 40.839844 35.5 C 38.714844 36.972656 36.632812 38.488281 34.507812 39.960938 C 33.683594 40.566406 32.816406 41.128906 31.996094 41.738281 C 31.863281 41.867188 31.691406 42.214844 31.734375 42.300781 C 31.90625 42.472656 32.125 42.644531 32.382812 42.6875 C 32.558594 42.734375 32.730469 42.734375 32.90625 42.6875 L 99.0625 42.6875 C 105 42.6875 110.984375 42.644531 116.921875 42.6875 C 118.789062 42.644531 120.609375 43.035156 122.300781 43.816406 C 123.730469 44.507812 125.074219 45.417969 125.679688 47.019531 C 126.246094 48.449219 125.855469 49.445312 124.597656 50.265625 C 122.949219 51.304688 121.300781 52.390625 119.699219 53.472656 C 116.359375 55.765625 113.066406 58.105469 109.726562 60.398438 C 106.34375 62.738281 102.878906 64.988281 99.496094 67.328125 C 97.066406 69.015625 94.683594 70.707031 92.210938 72.394531 C 89.132812 74.558594 86.011719 76.679688 82.890625 78.800781 C 79.8125 80.925781 76.734375 83.003906 73.699219 85.125 C 72.140625 86.207031 70.535156 87.246094 68.976562 88.328125 C 67.71875 89.195312 66.417969 88.933594 65.246094 88.328125 C 63.640625 87.507812 62.167969 86.464844 60.609375 85.515625 C 57.097656 83.347656 53.628906 81.140625 50.117188 78.976562 C 45.953125 76.378906 41.75 73.824219 37.585938 71.226562 C 34.726562 69.449219 31.90625 67.585938 29.046875 65.8125 C 24.277344 62.867188 19.507812 59.921875 14.609375 56.890625 C 14.957031 56.847656 15.128906 56.804688 15.304688 56.804688 L 20.851562 56.804688 C 24.753906 56.761719 28.65625 56.71875 32.558594 56.632812 C 33.859375 56.632812 35.160156 56.589844 36.417969 56.460938 C 37.628906 56.371094 38.84375 56.71875 39.839844 57.410156 C 43.050781 59.402344 46.300781 61.4375 49.507812 63.386719 C 53.671875 65.941406 57.832031 68.496094 61.996094 71.007812 C 63.859375 72.222656 66.113281 72.695312 68.324219 72.394531 C 70.015625 72.089844 71.621094 71.398438 72.964844 70.402344 C 78.164062 66.722656 83.410156 63.085938 88.65625 59.445312 C 91.300781 57.628906 93.902344 55.765625 96.503906 53.90625 C 97.242188 53.382812 98.023438 52.910156 98.800781 52.390625 C 99.019531 52.257812 99.234375 52.042969 99.410156 51.871094 C 99.625 51.652344 99.667969 51.304688 99.410156 51.046875 C 99.320312 50.917969 99.148438 50.875 99.019531 50.875 C 98.800781 50.875 98.542969 50.875 98.324219 50.875 L 13.003906 50.875 C 11.53125 50.875 10.058594 50.699219 8.582031 50.570312 C 8.28125 50.527344 7.976562 50.441406 7.714844 50.265625 C 5.851562 49.359375 5.417969 47.84375 6.589844 46.066406 C 6.9375 45.546875 7.328125 45.113281 7.804688 44.769531 C 16.992188 38.054688 26.183594 31.386719 35.332031 24.675781 C 41.75 20.085938 48.121094 15.496094 54.496094 10.90625 C 57.140625 9 59.828125 7.140625 62.515625 5.320312 C 63.988281 4.28125 65.507812 4.714844 66.894531 5.582031 C 71.011719 8.136719 75.132812 10.734375 79.25 13.332031 C 83.28125 15.84375 87.269531 18.355469 91.300781 20.824219 C 94.8125 22.988281 98.324219 25.152344 101.792969 27.316406 C 106.605469 30.304688 111.375 33.292969 116.1875 36.324219 C 116.359375 36.453125 116.535156 36.582031 116.707031 36.757812 Z M 116.707031 36.757812 " fill-opacity="1" fill-rule="nonzero"/></g><path fill="#090580" d="M 8.367188 55.679688 L 18.988281 62.304688 C 19.726562 62.78125 20.417969 63.257812 21.199219 63.691406 C 21.546875 63.863281 21.804688 64.253906 21.761719 64.644531 L 21.761719 69.492188 C 21.804688 77.199219 21.804688 84.953125 21.851562 92.660156 C 21.851562 97.292969 21.894531 101.925781 21.894531 106.558594 C 21.851562 106.992188 22.066406 107.382812 22.457031 107.554688 C 33.902344 114.179688 45.390625 120.804688 56.835938 127.429688 C 57.3125 127.6875 57.789062 127.863281 58.308594 127.949219 C 59.21875 128.164062 60.175781 127.644531 60.390625 126.695312 C 60.390625 126.605469 60.433594 126.5625 60.433594 126.476562 C 60.5625 125.785156 60.609375 125.089844 60.5625 124.355469 C 60.5625 120.5 60.519531 116.648438 60.476562 112.835938 C 60.433594 104.914062 60.390625 96.945312 60.347656 88.976562 L 60.347656 87.894531 C 60.519531 87.980469 60.738281 88.070312 60.910156 88.15625 C 62.296875 88.976562 63.640625 89.84375 64.984375 90.667969 C 66.546875 91.621094 68.0625 91.488281 69.539062 90.449219 L 73.613281 87.679688 C 73.875 87.507812 74.089844 87.375 74.480469 87.117188 C 75 101.621094 75.519531 115.953125 76.042969 130.460938 L 80.160156 127.992188 L 103.09375 114.09375 C 105.089844 112.878906 107.125 111.625 109.121094 110.457031 C 109.46875 110.28125 109.683594 109.894531 109.640625 109.503906 C 109.554688 103.742188 109.421875 97.984375 109.335938 92.226562 C 109.25 87.507812 109.207031 82.742188 109.164062 78.023438 C 109.121094 74.515625 109.035156 71.050781 108.945312 67.542969 C 108.945312 66.503906 108.945312 65.464844 108.988281 64.46875 C 108.988281 64.210938 109.121094 63.992188 109.292969 63.863281 C 113.5 61.09375 117.703125 58.363281 122.125 55.507812 L 122.125 59.230469 C 122.125 69.839844 122.125 80.449219 122.167969 91.058594 C 122.167969 99.414062 122.210938 107.769531 122.257812 116.171875 C 122.300781 116.648438 122.039062 117.082031 121.605469 117.296875 C 110.203125 123.792969 98.757812 130.289062 87.355469 136.824219 C 82.414062 139.640625 77.515625 142.585938 72.574219 145.441406 C 71.402344 146.136719 70.230469 147.046875 68.757812 146.871094 C 68.324219 146.828125 67.933594 146.699219 67.542969 146.523438 C 63.511719 144.1875 59.523438 141.71875 55.40625 139.46875 C 40.273438 131.152344 25.101562 122.839844 9.882812 114.570312 C 9.449219 114.394531 9.234375 113.964844 9.234375 113.488281 C 9.191406 108.984375 9.105469 104.480469 9.015625 99.976562 C 8.84375 91.445312 8.714844 82.871094 8.539062 74.34375 L 8.191406 56.285156 C 8.367188 56.113281 8.367188 55.984375 8.367188 55.679688 Z M 8.367188 55.679688 " fill-opacity="1" fill-rule="nonzero"/><path fill="#01a2ff" d="M 153.441406 62.019531 C 151.84375 61.28125 149.785156 60.542969 147.289062 59.804688 C 145.4375 59.25 144.003906 58.765625 142.984375 58.328125 C 141.96875 57.914062 141.113281 57.359375 140.441406 56.667969 C 139.746094 55.972656 139.421875 55.121094 139.421875 54.082031 C 139.421875 52.605469 139.886719 51.472656 140.789062 50.710938 C 141.691406 49.925781 142.914062 49.558594 144.417969 49.558594 C 146.152344 49.558594 147.566406 49.996094 148.605469 50.851562 C 149.671875 51.726562 150.226562 52.8125 150.296875 54.152344 L 158.855469 54.152344 C 158.597656 50.6875 157.210938 47.964844 154.714844 46.027344 C 152.214844 44.089844 148.976562 43.117188 144.972656 43.117188 C 142.3125 43.117188 139.929688 43.582031 137.871094 44.480469 C 135.789062 45.378906 134.195312 46.695312 133.039062 48.378906 C 131.882812 50.089844 131.328125 52.074219 131.328125 54.359375 C 131.328125 56.804688 131.882812 58.742188 133.015625 60.195312 C 134.148438 61.652344 135.488281 62.734375 137.0625 63.472656 C 138.636719 64.191406 140.671875 64.929688 143.191406 65.667969 C 145.042969 66.175781 146.5 66.660156 147.542969 67.074219 C 148.605469 67.492188 149.484375 68.089844 150.179688 68.828125 C 150.875 69.566406 151.242188 70.511719 151.242188 71.644531 C 151.242188 73.050781 150.734375 74.183594 149.695312 75.058594 C 148.652344 75.9375 147.242188 76.351562 145.414062 76.351562 C 143.632812 76.351562 142.246094 75.890625 141.226562 74.96875 C 140.210938 74.042969 139.652344 72.796875 139.539062 71.207031 L 131.210938 71.207031 C 131.257812 73.558594 131.90625 75.613281 133.152344 77.34375 C 134.402344 79.074219 136.113281 80.414062 138.289062 81.335938 C 140.464844 82.261719 142.890625 82.722656 145.597656 82.722656 C 148.445312 82.722656 150.917969 82.191406 152.976562 81.152344 C 155.058594 80.089844 156.632812 78.683594 157.699219 76.90625 C 158.761719 75.128906 159.316406 73.214844 159.316406 71.136719 C 159.316406 68.738281 158.738281 66.796875 157.605469 65.320312 C 156.402344 63.867188 155.039062 62.757812 153.441406 62.019531 Z M 153.441406 62.019531 " fill-opacity="1" fill-rule="nonzero"/><path fill="#01a2ff" d="M 189.527344 52.742188 C 187.722656 51.726562 185.640625 51.21875 183.304688 51.21875 C 181.269531 51.21875 179.417969 51.589844 177.753906 52.351562 C 176.085938 53.113281 174.746094 54.152344 173.75 55.488281 L 173.75 41.363281 L 165.980469 41.363281 L 165.980469 82.351562 L 173.75 82.351562 L 173.75 65.414062 C 173.75 62.964844 174.375 61.097656 175.601562 59.78125 C 176.851562 58.464844 178.539062 57.820312 180.691406 57.820312 C 182.796875 57.820312 184.460938 58.464844 185.6875 59.78125 C 186.914062 61.097656 187.515625 62.964844 187.515625 65.414062 L 187.515625 82.351562 L 195.289062 82.351562 L 195.289062 64.351562 C 195.289062 61.582031 194.777344 59.203125 193.761719 57.242188 C 192.742188 55.257812 191.332031 53.757812 189.527344 52.742188 Z M 189.527344 52.742188 " fill-opacity="1" fill-rule="nonzero"/><path fill="#01a2ff" d="M 206.621094 38.917969 C 205.257812 38.917969 204.125 39.355469 203.199219 40.210938 C 202.296875 41.085938 201.835938 42.148438 201.835938 43.441406 C 201.835938 44.734375 202.296875 45.820312 203.199219 46.671875 C 204.101562 47.550781 205.234375 47.964844 206.621094 47.964844 C 207.988281 47.964844 209.121094 47.527344 210.046875 46.671875 C 210.949219 45.796875 211.410156 44.734375 211.410156 43.441406 C 211.410156 42.148438 210.949219 41.066406 210.046875 40.210938 C 209.121094 39.355469 207.988281 38.917969 206.621094 38.917969 Z M 206.621094 38.917969 " fill-opacity="1" fill-rule="nonzero"/><path fill="#01a2ff" d="M 202.691406 51.65625 L 210.460938 51.65625 L 210.460938 82.351562 L 202.691406 82.351562 Z M 202.691406 51.65625 " fill-opacity="1" fill-rule="nonzero"/><path fill="#01a2ff" d="M 243.171875 53.113281 C 241.042969 51.820312 238.660156 51.171875 236.046875 51.171875 C 233.78125 51.171875 231.789062 51.636719 230.03125 52.582031 C 228.273438 53.527344 226.886719 54.703125 225.890625 56.089844 L 225.890625 51.65625 L 218.121094 51.65625 L 218.121094 96.960938 L 225.890625 96.960938 L 225.890625 77.96875 C 226.957031 79.375 228.367188 80.53125 230.078125 81.453125 C 231.789062 82.375 233.78125 82.839844 236.046875 82.839844 C 238.683594 82.839844 241.042969 82.167969 243.171875 80.851562 C 245.300781 79.515625 246.988281 77.644531 248.214844 75.222656 C 249.464844 72.796875 250.066406 70.027344 250.066406 66.890625 C 250.066406 63.75 249.441406 60.980469 248.214844 58.605469 C 246.988281 56.226562 245.300781 54.40625 243.171875 53.113281 Z M 241.019531 71.78125 C 240.257812 73.144531 239.261719 74.207031 238.011719 74.945312 C 236.765625 75.683594 235.421875 76.050781 233.988281 76.050781 C 232.578125 76.050781 231.257812 75.683594 230.007812 74.96875 C 228.761719 74.253906 227.765625 73.214844 227.003906 71.828125 C 226.238281 70.46875 225.867188 68.851562 225.867188 67.003906 C 225.867188 65.160156 226.238281 63.542969 227.003906 62.183594 C 227.765625 60.820312 228.761719 59.78125 230.007812 59.042969 C 231.257812 58.328125 232.578125 57.957031 233.988281 57.957031 C 235.421875 57.957031 236.765625 58.304688 238.011719 59.019531 C 239.261719 59.710938 240.257812 60.75 241.019531 62.089844 C 241.785156 63.429688 242.152344 65.042969 242.152344 66.890625 C 242.152344 68.78125 241.785156 70.398438 241.019531 71.78125 Z M 241.019531 71.78125 " fill-opacity="1" fill-rule="nonzero"/><path fill="#01a2ff" d="M 285.503906 74.992188 L 279.746094 51.65625 L 271.53125 51.65625 L 265.632812 75.039062 L 260.199219 51.65625 L 252.308594 51.65625 L 261.355469 82.351562 L 269.796875 82.351562 L 275.417969 60.914062 L 281.015625 82.351562 L 289.390625 82.351562 L 298.390625 51.65625 L 290.964844 51.65625 Z M 285.503906 74.992188 " fill-opacity="1" fill-rule="nonzero"/><path fill="#01a2ff" d="M 324.828125 56.042969 C 323.789062 54.636719 322.421875 53.480469 320.6875 52.558594 C 318.976562 51.636719 316.964844 51.171875 314.675781 51.171875 C 312.039062 51.171875 309.675781 51.820312 307.550781 53.113281 C 305.421875 54.40625 303.734375 56.25 302.507812 58.652344 C 301.257812 61.050781 300.65625 63.796875 300.65625 66.914062 C 300.65625 70.050781 301.28125 72.820312 302.507812 75.246094 C 303.753906 77.667969 305.421875 79.539062 307.550781 80.875 C 309.675781 82.214844 312.039062 82.859375 314.628906 82.859375 C 316.917969 82.859375 318.953125 82.398438 320.710938 81.453125 C 322.46875 80.507812 323.859375 79.328125 324.851562 77.875 L 324.851562 82.351562 L 332.671875 82.351562 L 332.671875 51.65625 L 324.851562 51.65625 L 324.851562 56.042969 Z M 323.71875 71.851562 C 322.980469 73.191406 321.984375 74.230469 320.710938 74.945312 C 319.460938 75.660156 318.097656 76.03125 316.664062 76.03125 C 315.253906 76.03125 313.933594 75.660156 312.683594 74.921875 C 311.4375 74.183594 310.441406 73.121094 309.679688 71.738281 C 308.914062 70.351562 308.542969 68.738281 308.542969 66.890625 C 308.542969 65.042969 308.914062 63.453125 309.679688 62.089844 C 310.441406 60.75 311.4375 59.710938 312.640625 59.019531 C 313.863281 58.328125 315.183594 57.957031 316.640625 57.957031 C 318.074219 57.957031 319.441406 58.328125 320.6875 59.042969 C 321.9375 59.757812 322.957031 60.796875 323.695312 62.136719 C 324.4375 63.472656 324.804688 65.089844 324.804688 66.984375 C 324.828125 68.898438 324.460938 70.511719 323.71875 71.851562 Z M 323.71875 71.851562 " fill-opacity="1" fill-rule="nonzero"/><g clip-path="url(#162b612ebe)"><path fill="#01a2ff" d="M 361.402344 51.65625 L 353.351562 73.097656 L 345.417969 51.65625 L 336.695312 51.65625 L 349.027344 81.570312 L 342.363281 96.871094 L 350.644531 96.871094 L 369.683594 51.65625 Z M 361.402344 51.65625 " fill-opacity="1" fill-rule="nonzero"/></g><g fill="#626260" fill-opacity="1"><g transform="translate(133.811365, 115.833426)"><g><path d="M 8.484375 -13.78125 C 9.679688 -13.78125 10.738281 -13.476562 11.65625 -12.875 C 12.582031 -12.28125 13.316406 -11.457031 13.859375 -10.40625 C 14.398438 -9.363281 14.671875 -8.160156 14.671875 -6.796875 C 14.671875 -5.460938 14.398438 -4.257812 13.859375 -3.1875 C 13.316406 -2.113281 12.578125 -1.269531 11.640625 -0.65625 C 10.710938 -0.0390625 9.671875 0.265625 8.515625 0.265625 C 7.898438 0.265625 7.3125 0.171875 6.75 -0.015625 C 6.195312 -0.210938 5.691406 -0.472656 5.234375 -0.796875 C 4.785156 -1.128906 4.382812 -1.515625 4.03125 -1.953125 C 3.675781 -2.390625 3.394531 -2.863281 3.1875 -3.375 L 3.65625 -3.71875 L 3.65625 -0.734375 C 3.65625 -0.503906 3.582031 -0.316406 3.4375 -0.171875 C 3.289062 -0.0234375 3.101562 0.046875 2.875 0.046875 C 2.644531 0.046875 2.453125 -0.0234375 2.296875 -0.171875 C 2.148438 -0.316406 2.078125 -0.503906 2.078125 -0.734375 L 2.078125 -18.671875 C 2.078125 -18.898438 2.144531 -19.085938 2.28125 -19.234375 C 2.425781 -19.390625 2.625 -19.46875 2.875 -19.46875 C 3.101562 -19.46875 3.289062 -19.390625 3.4375 -19.234375 C 3.582031 -19.085938 3.65625 -18.898438 3.65625 -18.671875 L 3.65625 -9.859375 L 3.296875 -10.0625 C 3.472656 -10.601562 3.726562 -11.097656 4.0625 -11.546875 C 4.40625 -11.992188 4.804688 -12.382812 5.265625 -12.71875 C 5.722656 -13.050781 6.222656 -13.3125 6.765625 -13.5 C 7.316406 -13.6875 7.890625 -13.78125 8.484375 -13.78125 Z M 8.34375 -12.296875 C 7.394531 -12.296875 6.5625 -12.054688 5.84375 -11.578125 C 5.125 -11.109375 4.554688 -10.460938 4.140625 -9.640625 C 3.734375 -8.816406 3.53125 -7.867188 3.53125 -6.796875 C 3.53125 -5.742188 3.734375 -4.789062 4.140625 -3.9375 C 4.554688 -3.082031 5.125 -2.414062 5.84375 -1.9375 C 6.5625 -1.457031 7.394531 -1.21875 8.34375 -1.21875 C 9.28125 -1.21875 10.101562 -1.460938 10.8125 -1.953125 C 11.519531 -2.441406 12.082031 -3.113281 12.5 -3.96875 C 12.925781 -4.820312 13.140625 -5.765625 13.140625 -6.796875 C 13.140625 -7.867188 12.925781 -8.816406 12.5 -9.640625 C 12.082031 -10.460938 11.519531 -11.109375 10.8125 -11.578125 C 10.101562 -12.054688 9.28125 -12.296875 8.34375 -12.296875 Z M 8.34375 -12.296875 "/></g></g></g><g fill="#626260" fill-opacity="1"><g transform="translate(149.765818, 115.833426)"><g><path d="M 12.125 -13.703125 C 12.34375 -13.703125 12.523438 -13.617188 12.671875 -13.453125 C 12.828125 -13.296875 12.90625 -13.113281 12.90625 -12.90625 L 12.90625 -1.296875 C 12.90625 0.128906 12.625 1.328125 12.0625 2.296875 C 11.5 3.273438 10.742188 4.015625 9.796875 4.515625 C 8.847656 5.015625 7.769531 5.265625 6.5625 5.265625 C 5.800781 5.265625 5.097656 5.179688 4.453125 5.015625 C 3.816406 4.847656 3.296875 4.632812 2.890625 4.375 C 2.679688 4.25 2.523438 4.097656 2.421875 3.921875 C 2.316406 3.742188 2.304688 3.5625 2.390625 3.375 C 2.484375 3.125 2.617188 2.957031 2.796875 2.875 C 2.984375 2.800781 3.175781 2.804688 3.375 2.890625 C 3.664062 3.054688 4.09375 3.25 4.65625 3.46875 C 5.21875 3.695312 5.863281 3.8125 6.59375 3.8125 C 7.550781 3.8125 8.382812 3.609375 9.09375 3.203125 C 9.8125 2.804688 10.363281 2.222656 10.75 1.453125 C 11.132812 0.691406 11.328125 -0.210938 11.328125 -1.265625 L 11.328125 -3.15625 L 11.515625 -2.53125 C 11.242188 -1.988281 10.867188 -1.503906 10.390625 -1.078125 C 9.910156 -0.660156 9.359375 -0.332031 8.734375 -0.09375 C 8.109375 0.144531 7.445312 0.265625 6.75 0.265625 C 5.6875 0.265625 4.804688 0.0507812 4.109375 -0.375 C 3.421875 -0.8125 2.910156 -1.40625 2.578125 -2.15625 C 2.242188 -2.914062 2.078125 -3.804688 2.078125 -4.828125 L 2.078125 -12.90625 C 2.078125 -13.113281 2.144531 -13.296875 2.28125 -13.453125 C 2.425781 -13.617188 2.625 -13.703125 2.875 -13.703125 C 3.101562 -13.703125 3.289062 -13.617188 3.4375 -13.453125 C 3.582031 -13.296875 3.65625 -13.113281 3.65625 -12.90625 L 3.65625 -5.0625 C 3.65625 -3.832031 3.921875 -2.882812 4.453125 -2.21875 C 4.992188 -1.550781 5.875 -1.21875 7.09375 -1.21875 C 7.84375 -1.21875 8.53125 -1.394531 9.15625 -1.75 C 9.789062 -2.113281 10.3125 -2.585938 10.71875 -3.171875 C 11.125 -3.765625 11.328125 -4.394531 11.328125 -5.0625 L 11.328125 -12.90625 C 11.328125 -13.113281 11.398438 -13.296875 11.546875 -13.453125 C 11.703125 -13.617188 11.894531 -13.703125 12.125 -13.703125 Z M 12.125 -13.703125 "/></g></g></g><path stroke-linecap="butt" transform="matrix(0.74513, 0, 0, 0.74513, 168.019024, 97.485264)" fill="none" stroke-linejoin="miter" d="M 17.001702 6.908257 L 14.689815 6.908257 L 14.689815 16.423167 C 14.689815 18.687873 14.17082 20.370676 13.13283 21.455847 C 12.100082 22.541019 10.737064 23.080983 9.043777 23.080983 C 7.355732 23.080983 5.992715 22.541019 4.954725 21.455847 C 3.916735 20.370676 3.402982 18.687873 3.402982 16.423167 L 3.402982 6.908257 L 1.085852 6.908257 L 1.085852 16.423167 C 1.085852 18.446724 1.426606 20.119042 2.113358 21.44012 C 2.800109 22.755956 3.743736 23.725796 4.938998 24.354881 C 6.134259 24.978723 7.502519 25.293266 9.043777 25.293266 C 10.590278 25.293266 11.958538 24.978723 13.153799 24.354881 C 14.349061 23.725796 15.287446 22.755956 15.968954 21.44012 C 16.660948 20.119042 17.001702 18.446724 17.001702 16.423167 Z M 38.888617 24.999693 L 38.888617 15.484782 C 38.888617 13.461226 38.542621 11.79415 37.855869 10.478314 C 37.174361 9.157236 36.230733 8.187396 35.035472 7.563554 C 33.84021 6.934469 32.47195 6.619926 30.930692 6.619926 C 29.389434 6.619926 28.015932 6.934469 26.82067 7.563554 C 25.625409 8.187396 24.687024 9.157236 23.99503 10.478314 C 23.313522 11.79415 22.972767 13.461226 22.972767 15.484782 L 22.972767 24.999693 L 25.284655 24.999693 L 25.284655 15.484782 C 25.284655 13.220076 25.80365 11.542516 26.84164 10.462587 C 27.874388 9.372173 29.242648 8.826966 30.930692 8.826966 C 32.618737 8.826966 33.981754 9.372173 35.019745 10.462587 C 36.057735 11.542516 36.57673 13.220076 36.57673 15.484782 L 36.57673 24.999693 Z M 46.343274 3.762832 C 45.929127 3.762832 45.577888 3.62653 45.289557 3.348684 C 45.001226 3.065596 44.85444 2.709115 44.85444 2.27924 C 44.85444 1.870335 45.001226 1.524338 45.289557 1.246492 C 45.577888 0.973889 45.929127 0.832345 46.343274 0.832345 C 46.746937 0.832345 47.092934 0.973889 47.381265 1.246492 C 47.68008 1.524338 47.826867 1.870335 47.826867 2.27924 C 47.826867 2.709115 47.68008 3.065596 47.381265 3.348684 C 47.092934 3.62653 46.746937 3.762832 46.343274 3.762832 Z M 45.18471 24.999693 L 45.18471 6.908257 L 47.496597 6.908257 L 47.496597 24.999693 Z M 62.945876 25.293266 C 61.231619 25.293266 59.664149 24.873876 58.25395 24.04558 C 56.843751 23.212043 55.716641 22.07969 54.872618 20.664249 C 54.028596 19.238323 53.609206 17.670853 53.609206 15.956596 C 53.609206 14.216128 54.028596 12.643415 54.872618 11.238459 C 55.716641 9.823017 56.843751 8.701149 58.25395 7.872854 C 59.664149 7.034074 61.231619 6.619926 62.945876 6.619926 C 64.775464 6.619926 66.42157 7.096982 67.87895 8.051095 C 69.341573 9.005207 70.431987 10.22668 71.160677 11.726 L 68.660064 11.726 C 68.036222 10.829553 67.234138 10.121833 66.253814 9.602838 C 65.278732 9.083843 64.188319 8.826966 62.97733 8.826966 C 61.656251 8.826966 60.46099 9.146751 59.40203 9.791563 C 58.343071 10.425891 57.499048 11.280398 56.864721 12.360327 C 56.240878 13.429771 55.931578 14.630275 55.931578 15.956596 C 55.931578 17.277675 56.240878 18.483421 56.864721 19.558108 C 57.499048 20.632794 58.348313 21.487302 59.417757 22.126871 C 60.492444 22.766441 61.677221 23.080983 62.97733 23.080983 C 64.188319 23.080983 65.278732 22.813622 66.253814 22.268415 C 67.234138 21.728451 68.036222 21.02073 68.660064 20.150496 L 71.228828 20.150496 C 70.479168 21.670785 69.373027 22.907985 67.89992 23.862097 C 66.426813 24.81621 64.775464 25.293266 62.945876 25.293266 Z M 86.201051 6.619926 C 87.941519 6.619926 89.514232 7.034074 90.919188 7.872854 C 92.334629 8.701149 93.456497 9.823017 94.284793 11.238459 C 95.123573 12.643415 95.53772 14.216128 95.53772 15.956596 C 95.53772 17.670853 95.123573 19.238323 94.284793 20.664249 C 93.456497 22.07969 92.334629 23.212043 90.919188 24.04558 C 89.514232 24.873876 87.941519 25.293266 86.201051 25.293266 C 84.492036 25.293266 82.924566 24.873876 81.514367 24.04558 C 80.104169 23.212043 78.977058 22.07969 78.127793 20.664249 C 77.289013 19.238323 76.864381 17.670853 76.864381 15.956596 C 76.864381 14.216128 77.289013 12.643415 78.127793 11.238459 C 78.977058 9.823017 80.104169 8.701149 81.514367 7.872854 C 82.924566 7.034074 84.492036 6.619926 86.201051 6.619926 Z M 86.237747 8.826966 C 84.911426 8.826966 83.721407 9.146751 82.662448 9.791563 C 81.603488 10.425891 80.754223 11.280398 80.125138 12.360327 C 79.501296 13.429771 79.191995 14.630275 79.191995 15.956596 C 79.191995 17.277675 79.501296 18.483421 80.125138 19.558108 C 80.754223 20.632794 81.60873 21.487302 82.678175 22.126871 C 83.752862 22.766441 84.937638 23.080983 86.237747 23.080983 C 87.537856 23.080983 88.722633 22.766441 89.781593 22.126871 C 90.845795 21.487302 91.684575 20.632794 92.297933 19.558108 C 92.916533 18.483421 93.225833 17.277675 93.225833 15.956596 C 93.225833 14.630275 92.916533 13.429771 92.297933 12.360327 C 91.684575 11.280398 90.85628 10.425891 89.807805 9.791563 C 88.75933 9.146751 87.56931 8.826966 86.237747 8.826966 Z M 121.660474 6.619926 C 123.128339 6.619926 124.428448 6.934469 125.545074 7.563554 C 126.672185 8.187396 127.558146 9.157236 128.202958 10.478314 C 128.858255 11.79415 129.183282 13.461226 129.183282 15.484782 L 129.183282 24.999693 L 126.871395 24.999693 L 126.871395 15.484782 C 126.871395 13.220076 126.394339 11.542516 125.440227 10.462587 C 124.486114 9.372173 123.222702 8.826966 121.660474 8.826966 C 120.093004 8.826966 118.824349 9.372173 117.859752 10.462587 C 116.895156 11.542516 116.412857 13.220076 116.412857 15.484782 L 116.412857 24.999693 L 114.095727 24.999693 L 114.095727 15.484782 C 114.095727 13.220076 113.618671 11.542516 112.664559 10.462587 C 111.710447 9.372173 110.452277 8.826966 108.884807 8.826966 C 107.317337 8.826966 106.053924 9.372173 105.089327 10.462587 C 104.119488 11.542516 103.637189 13.220076 103.637189 15.484782 L 103.637189 24.999693 L 101.325302 24.999693 L 101.325302 15.484782 C 101.325302 12.449447 102.033023 10.210953 103.453706 8.774542 C 104.879632 7.338132 106.688252 6.619926 108.884807 6.619926 C 110.310733 6.619926 111.600357 6.971165 112.753679 7.668401 C 113.912244 8.37088 114.745782 9.456051 115.254292 10.929159 C 115.762803 9.456051 116.591098 8.37088 117.74442 7.668401 C 118.902985 6.971165 120.208336 6.619926 121.660474 6.619926 Z M 155.479035 6.619926 C 156.952142 6.619926 158.247009 6.934469 159.368877 7.563554 C 160.490745 8.187396 161.376706 9.157236 162.026761 10.478314 C 162.676815 11.79415 163.007085 13.461226 163.007085 15.484782 L 163.007085 24.999693 L 160.689955 24.999693 L 160.689955 15.484782 C 160.689955 13.220076 160.212899 11.542516 159.258787 10.462587 C 158.304675 9.372173 157.046505 8.826966 155.479035 8.826966 C 153.911565 8.826966 152.648152 9.372173 151.683555 10.462587 C 150.718958 11.542516 150.231417 13.220076 150.231417 15.484782 L 150.231417 24.999693 L 147.91953 24.999693 L 147.91953 15.484782 C 147.91953 13.220076 147.442474 11.542516 146.488362 10.462587 C 145.534249 9.372173 144.27608 8.826966 142.708609 8.826966 C 141.141139 8.826966 139.877727 9.372173 138.907888 10.462587 C 137.943291 11.542516 137.460992 13.220076 137.460992 15.484782 L 137.460992 24.999693 L 135.149105 24.999693 L 135.149105 15.484782 C 135.149105 12.449447 135.856825 10.210953 137.277509 8.774542 C 138.698193 7.338132 140.512054 6.619926 142.708609 6.619926 C 144.134535 6.619926 145.42416 6.971165 146.577482 7.668401 C 147.736047 8.37088 148.569585 9.456051 149.078095 10.929159 C 149.581363 9.456051 150.4149 8.37088 151.568223 7.668401 C 152.726788 6.971165 154.032139 6.619926 155.479035 6.619926 Z M 168.784182 15.98805 C 168.784182 14.279036 169.187845 12.711566 169.995171 11.290882 C 170.807739 9.864956 171.903395 8.732603 173.287382 7.888581 C 174.676611 7.044559 176.238839 6.619926 177.979308 6.619926 C 179.614929 6.619926 181.11949 6.997377 182.492992 7.757522 C 183.871737 8.517666 184.977878 9.581868 185.8219 10.944886 C 186.671165 12.307903 187.116767 13.8911 187.163948 15.69972 C 187.19016 15.867476 187.195403 16.040474 187.184918 16.213472 C 187.169191 16.375986 187.153464 16.533257 187.127252 16.680044 L 171.211402 16.680044 C 171.258583 17.86482 171.578368 18.94475 172.165514 19.919831 C 172.763145 20.894913 173.565228 21.665542 174.577006 22.236961 C 175.588785 22.803138 176.72638 23.080983 177.979308 23.080983 C 179.13263 23.080983 180.196832 22.839834 181.177156 22.357536 C 182.152238 21.875237 182.959564 21.251395 183.588649 20.475523 L 186.403804 20.475523 C 185.585994 21.948631 184.416944 23.122922 182.896655 23.993157 C 181.381609 24.858149 179.75123 25.293266 178.016004 25.293266 C 176.275536 25.293266 174.713308 24.873876 173.324079 24.04558 C 171.940092 23.212043 170.833951 22.090175 170.010898 20.679976 C 169.193087 19.269777 168.784182 17.702307 168.784182 15.98805 Z M 171.211402 14.724638 L 184.710517 14.724638 C 184.516549 13.613254 184.107644 12.611961 183.489044 11.726 C 182.875686 10.829553 182.099814 10.121833 181.156187 9.602838 C 180.217802 9.083843 179.169327 8.826966 178.016004 8.826966 C 176.831227 8.826966 175.756541 9.094327 174.791944 9.623807 C 173.822104 10.153287 173.035748 10.86625 172.42239 11.757454 C 171.809032 12.648657 171.405369 13.639466 171.211402 14.724638 Z M 192.95153 24.999693 L 192.95153 15.594872 C 192.95153 12.575264 193.643524 10.362982 195.027511 8.942298 C 196.41674 7.516372 198.199147 6.80341 200.369491 6.80341 C 200.463853 6.80341 200.552974 6.80341 200.636852 6.80341 C 200.725972 6.80341 200.815093 6.813894 200.909455 6.840106 L 200.909455 9.047146 C 200.815093 9.026176 200.725972 9.010449 200.636852 9.010449 C 200.552974 9.010449 200.463853 9.010449 200.369491 9.010449 C 198.854444 9.010449 197.622486 9.550414 196.678859 10.619858 C 195.735231 11.689303 195.26866 13.351136 195.26866 15.594872 L 195.26866 24.999693 Z M 216.028464 25.293266 C 214.314208 25.293266 212.75198 24.873876 211.341781 24.04558 C 209.931582 23.212043 208.804472 22.07969 207.955207 20.664249 C 207.116427 19.238323 206.691795 17.670853 206.691795 15.956596 C 206.691795 14.216128 207.116427 12.643415 207.955207 11.238459 C 208.804472 9.823017 209.931582 8.701149 211.341781 7.872854 C 212.75198 7.034074 214.314208 6.619926 216.028464 6.619926 C 217.863296 6.619926 219.509401 7.096982 220.966782 8.051095 C 222.429404 9.005207 223.519818 10.22668 224.243266 11.726 L 221.742653 11.726 C 221.11881 10.829553 220.321969 10.121833 219.341645 9.602838 C 218.366564 9.083843 217.270907 8.826966 216.065161 8.826966 C 214.73884 8.826966 213.548821 9.146751 212.489861 9.791563 C 211.425659 10.425891 210.581637 11.280398 209.952552 12.360327 C 209.328709 13.429771 209.019409 14.630275 209.019409 15.956596 C 209.019409 17.277675 209.328709 18.483421 209.952552 19.558108 C 210.581637 20.632794 211.436144 21.487302 212.505589 22.126871 C 213.575033 22.766441 214.765052 23.080983 216.065161 23.080983 C 217.270907 23.080983 218.366564 22.813622 219.341645 22.268415 C 220.321969 21.728451 221.11881 21.02073 221.742653 20.150496 L 224.316659 20.150496 C 223.567 21.670785 222.455616 22.907985 220.987751 23.862097 C 219.514644 24.81621 217.863296 25.293266 216.028464 25.293266 Z M 229.952212 15.98805 C 229.952212 14.279036 230.355875 12.711566 231.163201 11.290882 C 231.975769 9.864956 233.076668 8.732603 234.460655 7.888581 C 235.849884 7.044559 237.412112 6.619926 239.147338 6.619926 C 240.788201 6.619926 242.292763 6.997377 243.661022 7.757522 C 245.039767 8.517666 246.151151 9.581868 246.98993 10.944886 C 247.839195 12.307903 248.290039 13.8911 248.337221 15.69972 C 248.35819 15.867476 248.363433 16.040474 248.352948 16.213472 C 248.342463 16.375986 248.321494 16.533257 248.300524 16.680044 L 232.384674 16.680044 C 232.431855 17.86482 232.746398 18.94475 233.338786 19.919831 C 233.931175 20.894913 234.733258 21.665542 235.750279 22.236961 C 236.762057 22.803138 237.89441 23.080983 239.147338 23.080983 C 240.30066 23.080983 241.370105 22.839834 242.345186 22.357536 C 243.32551 21.875237 244.127594 21.251395 244.756679 20.475523 L 247.577076 20.475523 C 246.759266 21.948631 245.590216 23.122922 244.069928 23.993157 C 242.549639 24.858149 240.91926 25.293266 239.184034 25.293266 C 237.448808 25.293266 235.881338 24.873876 234.492109 24.04558 C 233.108122 23.212043 232.007223 22.090175 231.178928 20.679976 C 230.361117 19.269777 229.952212 17.702307 229.952212 15.98805 Z M 232.384674 14.724638 L 245.878547 14.724638 C 245.684579 13.613254 245.280916 12.611961 244.662316 11.726 C 244.048958 10.829553 243.273087 10.121833 242.329459 9.602838 C 241.385832 9.083843 240.337357 8.826966 239.184034 8.826966 C 237.999258 8.826966 236.924571 9.094327 235.959974 9.623807 C 234.995377 10.153287 234.203778 10.86625 233.59042 11.757454 C 232.982305 12.648657 232.578642 13.639466 232.384674 14.724638 Z M 232.384674 14.724638 " stroke="#1a1818" stroke-width="2.532831" stroke-opacity="1" stroke-miterlimit="4"/><g fill="#1a1818" fill-opacity="1"><g transform="translate(168.019024, 116.11351)"><g><path d="M 12.671875 -13.484375 L 10.9375 -13.484375 L 10.9375 -6.390625 C 10.9375 -4.703125 10.550781 -3.453125 9.78125 -2.640625 C 9.007812 -1.828125 7.992188 -1.421875 6.734375 -1.421875 C 5.484375 -1.421875 4.46875 -1.828125 3.6875 -2.640625 C 2.914062 -3.453125 2.53125 -4.703125 2.53125 -6.390625 L 2.53125 -13.484375 L 0.8125 -13.484375 L 0.8125 -6.390625 C 0.8125 -4.878906 1.066406 -3.632812 1.578125 -2.65625 C 2.085938 -1.675781 2.785156 -0.953125 3.671875 -0.484375 C 4.566406 -0.015625 5.585938 0.21875 6.734375 0.21875 C 7.890625 0.21875 8.910156 -0.015625 9.796875 -0.484375 C 10.679688 -0.953125 11.378906 -1.675781 11.890625 -2.65625 C 12.410156 -3.632812 12.671875 -4.878906 12.671875 -6.390625 Z M 12.671875 -13.484375 "/></g></g></g><g fill="#1a1818" fill-opacity="1"><g transform="translate(184.326339, 116.11351)"><g><path d="M 12.671875 0 L 12.671875 -7.09375 C 12.671875 -8.601562 12.410156 -9.847656 11.890625 -10.828125 C 11.378906 -11.804688 10.679688 -12.523438 9.796875 -12.984375 C 8.910156 -13.453125 7.890625 -13.6875 6.734375 -13.6875 C 5.585938 -13.6875 4.566406 -13.453125 3.671875 -12.984375 C 2.785156 -12.523438 2.085938 -11.804688 1.578125 -10.828125 C 1.066406 -9.847656 0.8125 -8.601562 0.8125 -7.09375 L 0.8125 0 L 2.53125 0 L 2.53125 -7.09375 C 2.53125 -8.78125 2.914062 -10.023438 3.6875 -10.828125 C 4.46875 -11.640625 5.484375 -12.046875 6.734375 -12.046875 C 7.992188 -12.046875 9.007812 -11.640625 9.78125 -10.828125 C 10.550781 -10.023438 10.9375 -8.78125 10.9375 -7.09375 L 10.9375 0 Z M 12.671875 0 "/></g></g></g><g fill="#1a1818" fill-opacity="1"><g transform="translate(200.633654, 116.11351)"><g><path d="M 1.90625 -15.828125 C 1.601562 -15.828125 1.34375 -15.925781 1.125 -16.125 C 0.914062 -16.332031 0.8125 -16.597656 0.8125 -16.921875 C 0.8125 -17.234375 0.914062 -17.488281 1.125 -17.6875 C 1.34375 -17.894531 1.601562 -18 1.90625 -18 C 2.21875 -18 2.476562 -17.894531 2.6875 -17.6875 C 2.90625 -17.488281 3.015625 -17.234375 3.015625 -16.921875 C 3.015625 -16.597656 2.90625 -16.332031 2.6875 -16.125 C 2.476562 -15.925781 2.21875 -15.828125 1.90625 -15.828125 Z M 1.046875 0 L 1.046875 -13.484375 L 2.78125 -13.484375 L 2.78125 0 Z M 1.046875 0 "/></g></g></g><g fill="#1a1818" fill-opacity="1"><g transform="translate(207.291882, 116.11351)"><g><path d="M 7.625 0.21875 C 6.351562 0.21875 5.191406 -0.0859375 4.140625 -0.703125 C 3.085938 -1.328125 2.242188 -2.171875 1.609375 -3.234375 C 0.984375 -4.296875 0.671875 -5.460938 0.671875 -6.734375 C 0.671875 -8.023438 0.984375 -9.195312 1.609375 -10.25 C 2.242188 -11.300781 3.085938 -12.132812 4.140625 -12.75 C 5.191406 -13.375 6.351562 -13.6875 7.625 -13.6875 C 8.988281 -13.6875 10.210938 -13.332031 11.296875 -12.625 C 12.390625 -11.914062 13.207031 -11.003906 13.75 -9.890625 L 11.890625 -9.890625 C 11.421875 -10.554688 10.820312 -11.082031 10.09375 -11.46875 C 9.363281 -11.851562 8.550781 -12.046875 7.65625 -12.046875 C 6.664062 -12.046875 5.773438 -11.804688 4.984375 -11.328125 C 4.191406 -10.859375 3.5625 -10.222656 3.09375 -9.421875 C 2.632812 -8.617188 2.40625 -7.722656 2.40625 -6.734375 C 2.40625 -5.742188 2.632812 -4.847656 3.09375 -4.046875 C 3.5625 -3.253906 4.195312 -2.617188 5 -2.140625 C 5.800781 -1.660156 6.6875 -1.421875 7.65625 -1.421875 C 8.550781 -1.421875 9.363281 -1.625 10.09375 -2.03125 C 10.820312 -2.4375 11.421875 -2.960938 11.890625 -3.609375 L 13.796875 -3.609375 C 13.242188 -2.472656 12.414062 -1.550781 11.3125 -0.84375 C 10.21875 -0.132812 8.988281 0.21875 7.625 0.21875 Z M 7.625 0.21875 "/></g></g></g><g fill="#1a1818" fill-opacity="1"><g transform="translate(224.623408, 116.11351)"><g><path d="M 7.625 -13.6875 C 8.914062 -13.6875 10.085938 -13.375 11.140625 -12.75 C 12.191406 -12.132812 13.023438 -11.300781 13.640625 -10.25 C 14.265625 -9.195312 14.578125 -8.023438 14.578125 -6.734375 C 14.578125 -5.460938 14.265625 -4.296875 13.640625 -3.234375 C 13.023438 -2.171875 12.191406 -1.328125 11.140625 -0.703125 C 10.085938 -0.0859375 8.914062 0.21875 7.625 0.21875 C 6.351562 0.21875 5.191406 -0.0859375 4.140625 -0.703125 C 3.085938 -1.328125 2.242188 -2.171875 1.609375 -3.234375 C 0.984375 -4.296875 0.671875 -5.460938 0.671875 -6.734375 C 0.671875 -8.023438 0.984375 -9.195312 1.609375 -10.25 C 2.242188 -11.300781 3.085938 -12.132812 4.140625 -12.75 C 5.191406 -13.375 6.351562 -13.6875 7.625 -13.6875 Z M 7.65625 -12.046875 C 6.664062 -12.046875 5.773438 -11.804688 4.984375 -11.328125 C 4.191406 -10.859375 3.5625 -10.222656 3.09375 -9.421875 C 2.632812 -8.617188 2.40625 -7.722656 2.40625 -6.734375 C 2.40625 -5.742188 2.632812 -4.847656 3.09375 -4.046875 C 3.5625 -3.253906 4.195312 -2.617188 5 -2.140625 C 5.800781 -1.660156 6.6875 -1.421875 7.65625 -1.421875 C 8.625 -1.421875 9.503906 -1.660156 10.296875 -2.140625 C 11.085938 -2.617188 11.710938 -3.253906 12.171875 -4.046875 C 12.628906 -4.847656 12.859375 -5.742188 12.859375 -6.734375 C 12.859375 -7.722656 12.628906 -8.617188 12.171875 -9.421875 C 11.710938 -10.222656 11.09375 -10.859375 10.3125 -11.328125 C 9.53125 -11.804688 8.644531 -12.046875 7.65625 -12.046875 Z M 7.65625 -12.046875 "/></g></g></g><g fill="#1a1818" fill-opacity="1"><g transform="translate(242.709606, 116.11351)"><g><path d="M 15.953125 -13.6875 C 17.046875 -13.6875 18.007812 -13.453125 18.84375 -12.984375 C 19.6875 -12.523438 20.347656 -11.804688 20.828125 -10.828125 C 21.316406 -9.847656 21.5625 -8.601562 21.5625 -7.09375 L 21.5625 0 L 19.84375 0 L 19.84375 -7.09375 C 19.84375 -8.78125 19.484375 -10.023438 18.765625 -10.828125 C 18.054688 -11.640625 17.117188 -12.046875 15.953125 -12.046875 C 14.785156 -12.046875 13.84375 -11.640625 13.125 -10.828125 C 12.40625 -10.023438 12.046875 -8.78125 12.046875 -7.09375 L 12.046875 0 L 10.328125 0 L 10.328125 -7.09375 C 10.328125 -8.78125 9.96875 -10.023438 9.25 -10.828125 C 8.539062 -11.640625 7.601562 -12.046875 6.4375 -12.046875 C 5.269531 -12.046875 4.328125 -11.640625 3.609375 -10.828125 C 2.890625 -10.023438 2.53125 -8.78125 2.53125 -7.09375 L 2.53125 0 L 0.8125 0 L 0.8125 -7.09375 C 0.8125 -9.351562 1.335938 -11.015625 2.390625 -12.078125 C 3.453125 -13.148438 4.800781 -13.6875 6.4375 -13.6875 C 7.5 -13.6875 8.460938 -13.425781 9.328125 -12.90625 C 10.191406 -12.382812 10.8125 -11.578125 11.1875 -10.484375 C 11.5625 -11.578125 12.179688 -12.382812 13.046875 -12.90625 C 13.910156 -13.425781 14.878906 -13.6875 15.953125 -13.6875 Z M 15.953125 -13.6875 "/></g></g></g><g fill="#1a1818" fill-opacity="1"><g transform="translate(267.911335, 116.11351)"><g><path d="M 15.953125 -13.6875 C 17.046875 -13.6875 18.007812 -13.453125 18.84375 -12.984375 C 19.6875 -12.523438 20.347656 -11.804688 20.828125 -10.828125 C 21.316406 -9.847656 21.5625 -8.601562 21.5625 -7.09375 L 21.5625 0 L 19.84375 0 L 19.84375 -7.09375 C 19.84375 -8.78125 19.484375 -10.023438 18.765625 -10.828125 C 18.054688 -11.640625 17.117188 -12.046875 15.953125 -12.046875 C 14.785156 -12.046875 13.84375 -11.640625 13.125 -10.828125 C 12.40625 -10.023438 12.046875 -8.78125 12.046875 -7.09375 L 12.046875 0 L 10.328125 0 L 10.328125 -7.09375 C 10.328125 -8.78125 9.96875 -10.023438 9.25 -10.828125 C 8.539062 -11.640625 7.601562 -12.046875 6.4375 -12.046875 C 5.269531 -12.046875 4.328125 -11.640625 3.609375 -10.828125 C 2.890625 -10.023438 2.53125 -8.78125 2.53125 -7.09375 L 2.53125 0 L 0.8125 0 L 0.8125 -7.09375 C 0.8125 -9.351562 1.335938 -11.015625 2.390625 -12.078125 C 3.453125 -13.148438 4.800781 -13.6875 6.4375 -13.6875 C 7.5 -13.6875 8.460938 -13.425781 9.328125 -12.90625 C 10.191406 -12.382812 10.8125 -11.578125 11.1875 -10.484375 C 11.5625 -11.578125 12.179688 -12.382812 13.046875 -12.90625 C 13.910156 -13.425781 14.878906 -13.6875 15.953125 -13.6875 Z M 15.953125 -13.6875 "/></g></g></g><g fill="#1a1818" fill-opacity="1"><g transform="translate(293.113065, 116.11351)"><g><path d="M 0.671875 -6.71875 C 0.671875 -7.988281 0.972656 -9.15625 1.578125 -10.21875 C 2.179688 -11.28125 3 -12.125 4.03125 -12.75 C 5.0625 -13.375 6.222656 -13.6875 7.515625 -13.6875 C 8.742188 -13.6875 9.867188 -13.40625 10.890625 -12.84375 C 11.910156 -12.28125 12.734375 -11.488281 13.359375 -10.46875 C 13.992188 -9.457031 14.328125 -8.273438 14.359375 -6.921875 C 14.378906 -6.796875 14.382812 -6.671875 14.375 -6.546875 C 14.363281 -6.421875 14.351562 -6.304688 14.34375 -6.203125 L 2.484375 -6.203125 C 2.515625 -5.316406 2.75 -4.507812 3.1875 -3.78125 C 3.632812 -3.0625 4.234375 -2.488281 4.984375 -2.0625 C 5.742188 -1.632812 6.585938 -1.421875 7.515625 -1.421875 C 8.378906 -1.421875 9.175781 -1.597656 9.90625 -1.953125 C 10.632812 -2.316406 11.234375 -2.789062 11.703125 -3.375 L 13.796875 -3.375 C 13.191406 -2.269531 12.320312 -1.394531 11.1875 -0.75 C 10.050781 -0.101562 8.835938 0.21875 7.546875 0.21875 C 6.253906 0.21875 5.085938 -0.0859375 4.046875 -0.703125 C 3.015625 -1.328125 2.191406 -2.164062 1.578125 -3.21875 C 0.972656 -4.269531 0.671875 -5.4375 0.671875 -6.71875 Z M 2.484375 -7.65625 L 12.53125 -7.65625 C 12.382812 -8.476562 12.082031 -9.222656 11.625 -9.890625 C 11.164062 -10.554688 10.585938 -11.082031 9.890625 -11.46875 C 9.191406 -11.851562 8.410156 -12.046875 7.546875 -12.046875 C 6.660156 -12.046875 5.859375 -11.847656 5.140625 -11.453125 C 4.421875 -11.054688 3.832031 -10.523438 3.375 -9.859375 C 2.925781 -9.203125 2.628906 -8.46875 2.484375 -7.65625 Z M 2.484375 -7.65625 "/></g></g></g><g fill="#1a1818" fill-opacity="1"><g transform="translate(310.983641, 116.11351)"><g><path d="M 0.8125 0 L 0.8125 -7.015625 C 0.8125 -9.253906 1.328125 -10.90625 2.359375 -11.96875 C 3.390625 -13.03125 4.710938 -13.5625 6.328125 -13.5625 C 6.398438 -13.5625 6.46875 -13.5625 6.53125 -13.5625 C 6.59375 -13.5625 6.660156 -13.550781 6.734375 -13.53125 L 6.734375 -11.890625 C 6.660156 -11.898438 6.59375 -11.90625 6.53125 -11.90625 C 6.46875 -11.90625 6.398438 -11.90625 6.328125 -11.90625 C 5.203125 -11.90625 4.285156 -11.503906 3.578125 -10.703125 C 2.878906 -9.910156 2.53125 -8.679688 2.53125 -7.015625 L 2.53125 0 Z M 0.8125 0 "/></g></g></g><g fill="#1a1818" fill-opacity="1"><g transform="translate(321.36135, 116.11351)"><g><path d="M 7.625 0.21875 C 6.351562 0.21875 5.191406 -0.0859375 4.140625 -0.703125 C 3.085938 -1.328125 2.242188 -2.171875 1.609375 -3.234375 C 0.984375 -4.296875 0.671875 -5.460938 0.671875 -6.734375 C 0.671875 -8.023438 0.984375 -9.195312 1.609375 -10.25 C 2.242188 -11.300781 3.085938 -12.132812 4.140625 -12.75 C 5.191406 -13.375 6.351562 -13.6875 7.625 -13.6875 C 8.988281 -13.6875 10.210938 -13.332031 11.296875 -12.625 C 12.390625 -11.914062 13.207031 -11.003906 13.75 -9.890625 L 11.890625 -9.890625 C 11.421875 -10.554688 10.820312 -11.082031 10.09375 -11.46875 C 9.363281 -11.851562 8.550781 -12.046875 7.65625 -12.046875 C 6.664062 -12.046875 5.773438 -11.804688 4.984375 -11.328125 C 4.191406 -10.859375 3.5625 -10.222656 3.09375 -9.421875 C 2.632812 -8.617188 2.40625 -7.722656 2.40625 -6.734375 C 2.40625 -5.742188 2.632812 -4.847656 3.09375 -4.046875 C 3.5625 -3.253906 4.195312 -2.617188 5 -2.140625 C 5.800781 -1.660156 6.6875 -1.421875 7.65625 -1.421875 C 8.550781 -1.421875 9.363281 -1.625 10.09375 -2.03125 C 10.820312 -2.4375 11.421875 -2.960938 11.890625 -3.609375 L 13.796875 -3.609375 C 13.242188 -2.472656 12.414062 -1.550781 11.3125 -0.84375 C 10.21875 -0.132812 8.988281 0.21875 7.625 0.21875 Z M 7.625 0.21875 "/></g></g></g><g fill="#1a1818" fill-opacity="1"><g transform="translate(338.692873, 116.11351)"><g><path d="M 0.671875 -6.71875 C 0.671875 -7.988281 0.972656 -9.15625 1.578125 -10.21875 C 2.179688 -11.28125 3 -12.125 4.03125 -12.75 C 5.0625 -13.375 6.222656 -13.6875 7.515625 -13.6875 C 8.742188 -13.6875 9.867188 -13.40625 10.890625 -12.84375 C 11.910156 -12.28125 12.734375 -11.488281 13.359375 -10.46875 C 13.992188 -9.457031 14.328125 -8.273438 14.359375 -6.921875 C 14.378906 -6.796875 14.382812 -6.671875 14.375 -6.546875 C 14.363281 -6.421875 14.351562 -6.304688 14.34375 -6.203125 L 2.484375 -6.203125 C 2.515625 -5.316406 2.75 -4.507812 3.1875 -3.78125 C 3.632812 -3.0625 4.234375 -2.488281 4.984375 -2.0625 C 5.742188 -1.632812 6.585938 -1.421875 7.515625 -1.421875 C 8.378906 -1.421875 9.175781 -1.597656 9.90625 -1.953125 C 10.632812 -2.316406 11.234375 -2.789062 11.703125 -3.375 L 13.796875 -3.375 C 13.191406 -2.269531 12.320312 -1.394531 11.1875 -0.75 C 10.050781 -0.101562 8.835938 0.21875 7.546875 0.21875 C 6.253906 0.21875 5.085938 -0.0859375 4.046875 -0.703125 C 3.015625 -1.328125 2.191406 -2.164062 1.578125 -3.21875 C 0.972656 -4.269531 0.671875 -5.4375 0.671875 -6.71875 Z M 2.484375 -7.65625 L 12.53125 -7.65625 C 12.382812 -8.476562 12.082031 -9.222656 11.625 -9.890625 C 11.164062 -10.554688 10.585938 -11.082031 9.890625 -11.46875 C 9.191406 -11.851562 8.410156 -12.046875 7.546875 -12.046875 C 6.660156 -12.046875 5.859375 -11.847656 5.140625 -11.453125 C 4.421875 -11.054688 3.832031 -10.523438 3.375 -9.859375 C 2.925781 -9.203125 2.628906 -8.46875 2.484375 -7.65625 Z M 2.484375 -7.65625 "/></g></g></g></svg>