<svg xmlns="http://www.w3.org/2000/svg" xmlns:xlink="http://www.w3.org/1999/xlink" width="154.128" height="39.462" viewBox="0 0 154.128 39.462">
  <defs>
    <clipPath id="clip-path">
      <rect id="Rectangle_27321" data-name="Rectangle 27321" width="154.128" height="39.462" fill="#0d0d0d"/>
    </clipPath>
  </defs>
  <g id="Group_55381" data-name="Group 55381" transform="translate(0)">
    <g id="Group_55380" data-name="Group 55380" transform="translate(0 0)" clip-path="url(#clip-path)">
      <path id="Path_67847" data-name="Path 67847" d="M14.27.316C3.923,1.243,0,3.812,0,9.52V12.8l2.212-2.641a10.6,10.6,0,0,1,5.78-3.782C13.629,4.74,13.7,4.74,12.13,9.306c-3.211,9.2-4.924,23.118-3.354,27.4.429,1.356,1.427,2.569,2.14,2.712,1,.215,1.213-.284,1.213-3.068,0-4.638,1.855-13.2,4.424-20.336,1.142-3.354,2.5-7.136,2.925-8.492l.858-2.356,6.564.427c7.207.5,8.776-.143,8.776-3.568,0-1.712-.143-1.712-6.207-1.712A75.987,75.987,0,0,1,21.763.028,52.99,52.99,0,0,0,14.27.316" transform="translate(0 0)" fill="#0d0d0d"/>
      <path id="Path_67848" data-name="Path 67848" d="M90.272.946c-1,.784-1.427,1.712-1.142,2.5,1.142,2.855,4.781,1.783,4.781-1.356,0-2.212-1.711-2.712-3.639-1.142" transform="translate(34.526 0.013)" fill="#0d0d0d"/>
      <path id="Path_67849" data-name="Path 67849" d="M77.879,4.212c-.286.286-.286,1.571-.071,2.925.357,2.212.284,2.427-1.285,2.283-2.212-.284-2.283,1.642-.143,2.641,1.427.572,1.571,1.213,1.785,9.491s.284,8.919,1.926,10.2c3,2.427,10.561,1.213,11.774-1.926.713-1.855-.214-2.5-2.066-1.285a6.641,6.641,0,0,1-3.711.856l-2-.214-.214-8.419-.214-8.35h2.212c2.782,0,4.994-1.141,4.994-2.5,0-.785-.927-1.071-3.425-1.071-3.211,0-3.5-.143-4.495-2.354-.931-2.14-3.857-3.5-5.069-2.283" transform="translate(29.01 1.456)" fill="#0d0d0d"/>
      <path id="Path_67850" data-name="Path 67850" d="M17.962,8.25c-1.213,1-3.425,7.422-5.137,14.77-1.142,4.852-.713,7.422,1.356,8.206,2.712,1,3.21.5,3.21-3.068,0-5.566,4.853-15.056,7.635-15.056.856,0,1,.5.713,2.5-.5,2.855-.357,2.925,2,1.356,1.855-1.213,3.354-4.711,2.712-6.421-1-2.712-5.137-2.569-8.206.214-1.142,1-1.213.927-1.07-.927.139-2.28-1.36-3-3.211-1.57" transform="translate(4.733 2.913)" fill="#0d0d0d"/>
      <path id="Path_67851" data-name="Path 67851" d="M40.228,8.273c-.643.5-2,3.637-3.068,6.993-2.212,6.85-4.281,10.7-5.78,10.7s-1.213-3.14.856-10.275c1.427-5.137,1.64-6.493.856-6.922a3.4,3.4,0,0,0-1.427-.643c-1.5,0-3.568,3.425-5.208,8.777-1.855,6.282-2.283,11.131-1.07,13.414,1.07,1.928,4.424,1.712,7.064-.5,1.712-1.427,2.212-1.571,2.212-.713,0,1.356,2.14,2.567,4.711,2.567s6.847-4.428,8.487-8.777c.713-1.855,1.071-3.568.785-3.854s-1.928,1.142-3.711,3.211-3.568,3.5-4,3.282c-.927-.57-.284-4.566,1.928-11.49,1.285-4.138,1.5-5.637.856-6.064a2.645,2.645,0,0,0-3.5.287" transform="translate(9.578 2.89)" fill="#0d0d0d"/>
      <path id="Path_67852" data-name="Path 67852" d="M43.575,7.968c-.429.286-.572,4.352-.357,10.917.357,11.345.927,12.986,4.21,12.63l1.783-.215L49,24.452c-.215-7.778.784-10.917,3.925-12.059,2.354-.927,2.639-.927,4.281.286,1.141.856,1.427,2.14,1.712,9.419.357,9.133.927,10.2,4.566,9.276,1.571-.357,1.785-.643,1.142-1.854-.357-.715-.713-5-.713-9.491,0-9.133-.927-11.345-4.924-12.273-2.5-.57-7.064,1.213-8.776,3.425C49,12.75,48.926,12.75,48.926,11.25c0-2.639-3.425-4.71-5.351-3.282" transform="translate(16.719 2.909)" fill="#0d0d0d"/>
      <path id="Path_67853" data-name="Path 67853" d="M66.568,8.045c-4.924,1.213-7.136,6.564-3.14,7.565,2.426.643,3.852-.143,3.852-2.068a3.039,3.039,0,0,1,3.211-3.353c2.354,0,3.211,1.427,3.211,5.137,0,3.354,0,3.425-2.284,3.425-8.776,0-14.2,6.421-9.489,11.06,2.212,2.212,6.207,2.354,9.56.284l2.355-1.427,1.07,1.427a3.838,3.838,0,0,0,5.208.785c.856-.5.856-.858.143-1.571q-.856-.858-.856-8.135c0-8.135-.57-10.416-3-11.986-2.137-1.429-6.7-1.93-9.845-1.145m6.779,15.484c-.572,2.5-1.5,3.354-4.424,4.352-2.782.928-3.782-.5-3.782-1.854,0-2.569,2.5-4.425,5.78-4.425C73.78,21.6,73.847,21.674,73.347,23.529Z" transform="translate(23.338 2.975)" fill="#0d0d0d"/>
      <path id="Path_67854" data-name="Path 67854" d="M89.354,7.827c-.927.357-.5,20.765.429,22.619.856,1.5,5.351,1.5,5.207-.071-.071-.427-.143-5.208-.143-10.489-.143-8.633-.284-9.775-1.57-11.06-1.354-1.356-2.424-1.642-3.923-1" transform="translate(34.446 2.907)" fill="#0d0d0d"/>
      <path id="Path_67855" data-name="Path 67855" d="M95.784,8.211c-1.142.643-1.142.927-.286,2.283a71.764,71.764,0,0,1,3.639,10.133c1.425,4.709,3.14,9.133,3.782,9.775,1.64,1.926,5.566,1.64,6.993-.5,1.712-2.567,7.42-17.481,7.42-19.265a2.954,2.954,0,0,0-2.807-3.093,2.987,2.987,0,0,0-.545.025c-.858.143-1.428,1.141-1.785,3.068A101.876,101.876,0,0,1,106.7,26.553c-.427.713-1.356-1.928-2.641-7.351C101.421,8.353,99.565,5.928,95.784,8.211" transform="translate(36.792 2.88)" fill="#0d0d0d"/>
    </g>
  </g>
</svg>
