<svg xmlns="http://www.w3.org/2000/svg" width="192" height="104" viewBox="0 0 192 104">
  <g id="Group_55430" data-name="Group 55430" transform="translate(-921 -3540)">
    <g id="Rectangle_27347" data-name="Rectangle 27347" transform="translate(921 3540)" fill="#fff" stroke="#eaeaea" stroke-width="1">
      <rect width="192" height="104" rx="4" stroke="none"/>
      <rect x="0.5" y="0.5" width="191" height="103" rx="3.5" fill="none"/>
    </g>
    <g id="toggle" transform="translate(1077.583 3569.045)">
      <path id="Path_67856" data-name="Path 67856" d="M15.3,42.56H5.985a5.985,5.985,0,0,0,0,11.971H15.3a5.985,5.985,0,0,0,0-11.971Zm0,10.641a4.655,4.655,0,1,1,4.655-4.655A4.655,4.655,0,0,1,15.3,53.2Z" transform="translate(0 -42.56)" fill="#0272d0"/>
    </g>
    <circle id="Ellipse_1375" data-name="Ellipse 1375" cx="26" cy="26" r="26" transform="translate(930 3552)" fill="#d8d8d8" opacity="0.68"/>
    <path id="Rectangle_27348" data-name="Rectangle 27348" d="M0,0H192a0,0,0,0,1,0,0V21a5,5,0,0,1-5,5H5a5,5,0,0,1-5-5V0A0,0,0,0,1,0,0Z" transform="translate(921 3618)" fill="#eaeaea"/>
    <text id="XpressBees" transform="translate(972 3633)" fill="#0d0d0d" font-size="11" font-family="Montserrat-SemiBold, Montserrat" font-weight="600"><tspan x="-32" y="0">XpressBees</tspan></text>
    <g id="Group_2089" data-name="Group 2089" transform="translate(938.777 3566.758)">
      <g id="Group_2085" data-name="Group 2085" transform="translate(0 0)">
        <path id="Path_1080" data-name="Path 1080" d="M211.729,143.094h-2.518c-1.072,0-2.144-.048-3.207.019-.613.038-.833-.22-1.005-.747-.412-1.245-.871-2.477-1.359-3.844-.622.756-1.177,1.427-1.723,2.1-.565.7-1.12,1.416-1.7,2.106a.87.87,0,0,1-.546.355c-1.905.029-3.81.019-5.868.019.364-.421.642-.747.919-1.063,2.144-2.392,4.271-4.784,6.433-7.16a.787.787,0,0,0,.125-1.053c-1.12-2.249-2.221-4.518-3.321-6.777-.067-.144-.134-.3-.249-.536h2.01c1.234,0,2.477.019,3.714-.009a.7.7,0,0,1,.794.584c.4,1.254.854,2.477,1.311,3.819.171-.182.287-.287.383-.412.919-1.2,1.828-2.4,2.757-3.588a.9.9,0,0,1,.584-.364c1.78-.029,3.57-.009,5.351-.009a1.225,1.225,0,0,1,.23.077c-.958,1.072-1.9,2.106-2.823,3.149-1.292,1.436-2.575,2.872-3.886,4.288a.718.718,0,0,0-.114.94c1.158,2.47,2.288,4.949,3.417,7.432A6.873,6.873,0,0,1,211.729,143.094Z" transform="translate(-180.945 -126.482)" fill="#db8b04"/>
        <path id="Path_1081" data-name="Path 1081" d="M59.5,143.075c2.288-2.489,4.442-4.834,6.6-7.17.622-.683,1.225-1.379,1.885-2.029a.891.891,0,0,0,.182-1.177c-.909-1.838-1.8-3.695-2.7-5.543-.085-.182-.171-.373-.307-.683.94,0,1.809-.009,2.67.009.105,0,.249.143.307.256Q69.785,130,71.4,133.267a.677.677,0,0,1-.114.594q-3.862,4.437-7.744,8.855a.939.939,0,0,1-.555.342C61.874,143.085,60.773,143.075,59.5,143.075Z" transform="translate(-59.5 -126.463)" fill="#121214"/>
        <path id="Path_1082" data-name="Path 1082" d="M108.235,126.355c.929,0,1.742-.019,2.556.019a.664.664,0,0,1,.46.325c1.158,2.278,2.307,4.566,3.427,6.863a.745.745,0,0,1-.125.642c-2.249,2.594-4.557,5.15-6.758,7.783a2.4,2.4,0,0,1-2.3,1c-.7-.067-1.407-.009-2.3-.009,1.006-1.1,1.879-2.067,2.766-3.025,1.8-1.965,3.6-3.915,5.418-5.868.364-.392.239-.756.048-1.149-.929-1.905-1.857-3.8-2.786-5.7C108.522,126.968,108.411,126.729,108.235,126.355Z" transform="translate(-99.017 -126.351)" fill="#121214"/>
        <path id="Path_1083" data-name="Path 1083" d="M148.2,142.953c1.474-1.608,2.814-3.075,4.154-4.537,1.264-1.367,2.527-2.747,3.8-4.107a.744.744,0,0,0,.105-.957q-1.58-3.216-3.139-6.442c-.077-.144-.134-.3-.256-.555.94,0,1.809-.019,2.67.019.125.009.287.22.364.373,1.177,2.336,2.354,4.681,3.5,7.026a.788.788,0,0,1-.1.7c-2.383,2.757-4.8,5.495-7.2,8.232a.684.684,0,0,1-.412.239C150.592,142.966,149.481,142.953,148.2,142.953Z" transform="translate(-139.709 -126.35)" fill="#121214"/>
      </g>
      <g id="Group_2088" data-name="Group 2088" transform="translate(0.986 17.955)">
        <g id="Group_2086" data-name="Group 2086" transform="translate(0 0.093)">
          <path id="Path_1084" data-name="Path 1084" d="M102.092,317.862h-.427c-.182,0-.373-.009-.555,0-.105.009-.144-.038-.171-.125-.067-.22-.153-.427-.23-.66-.105.134-.2.249-.3.364s-.191.249-.3.364a.128.128,0,0,1-.1.057H99c.067-.077.114-.134.162-.182.373-.412.737-.823,1.111-1.234a.135.135,0,0,0,.019-.182c-.191-.392-.383-.785-.574-1.168-.009-.029-.019-.048-.038-.1h.986a.119.119,0,0,1,.134.105c.067.22.144.427.23.66l.067-.067.478-.622a.157.157,0,0,1,.105-.067h.929c.009,0,.019.009.038.009l-.488.546c-.22.249-.45.5-.67.747a.131.131,0,0,0-.019.162c.2.427.392.854.594,1.281A.348.348,0,0,0,102.092,317.862Z" transform="translate(-96.205 -314.99)"/>
          <path id="Path_1085" data-name="Path 1085" d="M69.8,317.772c.392-.427.769-.833,1.139-1.245.105-.114.211-.239.325-.355a.15.15,0,0,0,.029-.2c-.153-.316-.316-.642-.469-.958-.019-.029-.029-.067-.057-.114h.46c.019,0,.048.029.057.048.191.373.383.747.565,1.129a.14.14,0,0,1-.019.1c-.44.508-.89,1.025-1.34,1.532a.171.171,0,0,1-.1.057C70.212,317.781,70.02,317.772,69.8,317.772Z" transform="translate(-69.8 -314.9)"/>
          <path id="Path_1086" data-name="Path 1086" d="M80.081,315h.44a.1.1,0,0,1,.077.057c.2.392.4.785.594,1.187a.165.165,0,0,1-.019.114c-.392.45-.785.89-1.168,1.35a.421.421,0,0,1-.4.171c-.125-.009-.239,0-.4,0,.171-.191.325-.355.478-.526.316-.335.622-.683.94-1.015.067-.067.038-.134.009-.2-.162-.325-.325-.66-.478-.986C80.129,315.105,80.109,315.057,80.081,315Z" transform="translate(-78.3 -314.991)"/>
          <path id="Path_1087" data-name="Path 1087" d="M89.1,317.862c.256-.278.488-.526.718-.785.22-.239.44-.478.66-.708a.131.131,0,0,0,.019-.162c-.182-.373-.364-.737-.546-1.111a.434.434,0,0,0-.048-.1h.46c.019,0,.048.038.067.067.2.4.412.8.6,1.216a.121.121,0,0,1-.019.125c-.412.478-.833.947-1.245,1.427a.121.121,0,0,1-.067.038C89.512,317.862,89.32,317.862,89.1,317.862Z" transform="translate(-87.252 -314.991)"/>
        </g>
        <g id="Group_2087" data-name="Group 2087" transform="translate(6.126 0)">
          <path id="Path_1088" data-name="Path 1088" d="M289.3,317.819c.22-1.006.421-1.943.622-2.9.67,0,1.311-.029,1.944.019a.48.48,0,0,1,.46.392.6.6,0,0,1-.191.66c-.144.105-.21.2-.077.4a.919.919,0,0,1-.689,1.367,13.147,13.147,0,0,1-1.5.057Zm1.388-.651a1.2,1.2,0,0,0,.316-.048c.171-.048.335-.1.326-.335s-.2-.182-.335-.2a1.634,1.634,0,0,0-.307,0c-.278,0-.342.077-.335.412.009.238.2.143.335.172Zm-.1-1.129a3.111,3.111,0,0,0,.6-.009c.1-.019.162-.162.239-.249-.085-.077-.171-.191-.268-.211-.335-.077-.488.057-.574.469Z" transform="translate(-274.415 -314.817)"/>
          <path id="Path_1089" data-name="Path 1089" d="M355.993,314.578c-.048.287-.085.526-.134.8h-1.34c-.278,0-.3.019-.268.335h1.379c-.048.23-.077.427-.125.622-.009.038-.125.057-.182.057-.335.009-.67,0-1.006,0-.316,0-.335.029-.287.383h1.57a4.794,4.794,0,0,1-.105.613c-.019.067-.153.134-.239.144-.728.009-1.452.009-2.192.009-.105,0-.162-.019-.134-.153.153-.7.287-1.407.44-2.106a3.934,3.934,0,0,1,.162-.574.2.2,0,0,1,.144-.125C354.414,314.568,355.171,314.578,355.993,314.578Z" transform="translate(-331.948 -314.514)"/>
          <path id="Path_1090" data-name="Path 1090" d="M167.276,317.805h-.756a.425.425,0,0,1-.1-.019c.009-.211.029-.412.029-.622,0-.249-.1-.342-.342-.364h-.46c-.1.326-.182.651-.278,1H164.5c.038-.2.077-.4.125-.6.057-.239.114-.469.162-.708l.171-.861c.038-.191.057-.392.105-.584a.232.232,0,0,1,.182-.125c.632-.009,1.264-.019,1.9.009a.61.61,0,0,1,.488.823,2.373,2.373,0,0,1-.162.46,1.635,1.635,0,0,1-.364.3C167.582,316.872,167.247,317.341,167.276,317.805Zm-1.512-1.6a3.218,3.218,0,0,1,.427,0,.48.48,0,0,0,.45-.162.456.456,0,0,0,.048-.307c0-.038-.1-.1-.153-.1-.211-.009-.427,0-.642,0-.044.178-.083.349-.131.56Z" transform="translate(-161.561 -314.808)"/>
          <path id="Path_1091" data-name="Path 1091" d="M322.95,316.011c.373,0,.737.009,1.1,0,.211-.009.287.039.239.268-.085.412-.077.412-.507.412-.278,0-.565.009-.842,0-.23-.009-.21.171-.249.307a.464.464,0,0,0,.23.105c.44.009.881.009,1.367.009-.067.249-.125.469-.191.7h-2.5c.125-.555.256-1.081.373-1.608.067-.3.105-.594.153-.89a2.234,2.234,0,0,0,.085-.23c.019-.2.162-.182.3-.182H324.7c-.048.268-.085.507-.125.769H323.3C322.979,315.653,322.979,315.653,322.95,316.011Z" transform="translate(-303.623 -314.804)"/>
          <path id="Path_1092" data-name="Path 1092" d="M199.911,314.9a5.769,5.769,0,0,1-.125.594.27.27,0,0,1-.22.134c-.44.009-.881.009-1.311.009-.048.105-.077.2-.125.316.4.211.881.009,1.34.114a2.071,2.071,0,0,1,0,.342c-.019.153-.085.256-.278.249-.3-.019-.594,0-.89,0s-.383.1-.373.45h1.56c-.048.239-.085.45-.134.683H196.8c.085-.278.171-.536.239-.8.038-.162.057-.325.085-.488.057-.287.125-.574.182-.861.038-.211.067-.421.114-.632a.181.181,0,0,1,.125-.1C198.332,314.9,199.126,314.9,199.911,314.9Z" transform="translate(-190.77 -314.807)"/>
          <path id="Path_1093" data-name="Path 1093" d="M386.219,315.243h-.728a.157.157,0,0,1-.105-.067.4.4,0,0,0-.555-.191.314.314,0,0,0-.144.191c-.009.048.077.125.134.171a.578.578,0,0,0,.182.057c.316.105.632.21.94.335.153.057.22.383.171.651a1.051,1.051,0,0,1-.813.871,2.221,2.221,0,0,1-1.474-.019.683.683,0,0,1-.4-.813.19.19,0,0,1,.153-.1c.144-.009.287-.009.427-.009.162,0,.326-.057.364.21.009.077.256.171.392.171s.249-.125.383-.2c-.038-.067-.067-.182-.134-.2q-.427-.171-.861-.316a.655.655,0,0,1-.326-.929,1.588,1.588,0,0,1,1.867-.7.678.678,0,0,1,.53.882Z" transform="translate(-359.505 -314.279)"/>
          <path id="Path_1094" data-name="Path 1094" d="M259.8,315.277h-.66c-.048,0-.114-.009-.125-.038-.162-.3-.421-.23-.708-.2-.009.105-.019.22-.029.354.316.067.613.134.909.2a.777.777,0,0,1,.507.613,1.076,1.076,0,0,1-1.005,1.129c-.239.019-.478.153-.7.115-.335-.057-.718-.105-.9-.469a2.067,2.067,0,0,1-.1-.584h.871c.077.134.115.307.182.316a2.118,2.118,0,0,0,.6-.009c.048-.009.105-.153.1-.23-.009-.057-.105-.125-.171-.153-.278-.1-.555-.171-.824-.268-.392-.143-.44-.526-.287-.929a1.111,1.111,0,0,1,.66-.642,2.762,2.762,0,0,1,.977-.1.9.9,0,0,1,.412.171C259.852,314.761,259.881,314.824,259.8,315.277Z" transform="translate(-245.206 -314.342)"/>
          <path id="Path_1095" data-name="Path 1095" d="M227.9,316.01h.632c.182-.009.342,0,.355.239a.1.1,0,0,0,.048.077.907.907,0,0,0,.651-.067.181.181,0,0,0-.038-.326,3.446,3.446,0,0,0-.708-.249c-.22-.057-.469-.105-.507-.342a.911.911,0,0,1,.171-.871,1.57,1.57,0,0,1,1.407-.507c.307.038.632.105.756.45a2.81,2.81,0,0,1,.085.46h-.737a.225.225,0,0,1-.125-.048c-.316-.278-.46-.287-.756-.019.153.373.536.3.813.373.46.125.776.44.66.871a1.025,1.025,0,0,1-.574.747,2.109,2.109,0,0,1-1.177.256,1.326,1.326,0,0,1-.909-.488C227.871,316.442,227.919,316.221,227.9,316.01Z" transform="translate(-218.892 -313.946)"/>
          <path id="Path_1096" data-name="Path 1096" d="M133.8,317.805a4.465,4.465,0,0,1,.153-.94,6.059,6.059,0,0,0,.239-1.063,7.051,7.051,0,0,1,.256-.89c.584,0,1.206-.029,1.819.019a.668.668,0,0,1,.478.354.735.735,0,0,1,.114.546,2.178,2.178,0,0,1-.342.66c-.316.469-.813.412-1.293.412a.437.437,0,0,0-.469.45c-.009.067,0,.125-.009.191-.009.171-.085.278-.287.268S134.049,317.805,133.8,317.805Zm1.7-2.211c-.364.038-.364.038-.427.373-.009.038-.038.077-.038.105a.2.2,0,0,0,.048.153c.114.114.66.038.728-.114.057-.115.114-.3.067-.364-.071-.073-.243-.091-.377-.149Z" transform="translate(-133.8 -314.816)"/>
        </g>
      </g>
    </g>
  </g>
</svg>
