<svg viewBox="0 0 34 34" fill="none" xmlns="http://www.w3.org/2000/svg" class="shrink-0 w-8">
                            <path fill-rule="evenodd" clip-rule="evenodd" d="M17 3C9.26801 3 3 9.26801 3 17C3 24.732 9.26801 31 17 31C24.732 31 31 24.732 31 17C31 16.2039 30.9337 15.424 30.8064 14.6655C30.715 14.1208 31.0825 13.6052 31.6271 13.5138C32.1718 13.4224 32.6874 13.7899 32.7788 14.3345C32.9244 15.202 33 16.0926 33 17C33 25.8366 25.8366 33 17 33C8.16344 33 1 25.8366 1 17C1 8.16344 8.16344 1 17 1C21.2002 1 25.0243 2.61974 27.8782 5.26683C28.2831 5.64241 28.3069 6.27513 27.9313 6.68004C27.5557 7.08496 26.923 7.10875 26.5181 6.73317C24.0194 4.41556 20.6761 3 17 3Z" fill="#1D2426"></path>
                            <path fill-rule="evenodd" clip-rule="evenodd" d="M30.749 8.83743C31.1149 9.25109 31.0762 9.88307 30.6626 10.249L17.6626 21.749C17.2667 22.0992 16.6666 22.0809 16.2929 21.7071L10.2929 15.7071C9.90237 15.3166 9.90237 14.6834 10.2929 14.2929C10.6834 13.9024 11.3166 13.9024 11.7071 14.2929L17.042 19.6278L29.3374 8.751C29.7511 8.38507 30.3831 8.42377 30.749 8.83743Z" fill="#1D2426"></path>
                        </svg>