<svg width="60" height="60" viewBox="0 0 60 60" fill="none" xmlns="http://www.w3.org/2000/svg">
<path d="M29.9999 53.715C38.5575 53.715 45.4949 48.9737 45.4949 43.125C45.4949 37.2763 38.5575 32.535 29.9999 32.535C21.4422 32.535 14.5049 37.2763 14.5049 43.125C14.5049 48.9737 21.4422 53.715 29.9999 53.715Z" fill="#FFD5D4"/>
<path d="M11.0395 23.355C10.8145 24.045 10.6495 24.765 10.4395 25.53C11.1445 25.065 11.7895 24.66 12.4045 24.24C12.8245 23.955 13.2145 23.955 13.6345 24.24C14.1295 24.585 14.6545 24.915 15.1645 25.245C15.2845 25.32 15.4045 25.395 15.5995 25.515C15.3745 24.705 15.2095 24 14.9995 23.295C14.8495 22.77 14.9695 22.395 15.4045 22.065C15.9895 21.63 16.5445 21.15 17.2045 20.625C16.3345 20.58 15.5695 20.52 14.8045 20.505C14.3395 20.49 14.0545 20.265 13.8895 19.845C13.6645 19.23 13.4245 18.615 13.1845 18C13.1395 17.895 13.0945 17.79 13.0195 17.625C12.7195 18.42 12.4345 19.14 12.1645 19.86C12.0145 20.28 11.7295 20.49 11.2795 20.505C10.6195 20.535 9.95953 20.565 9.29953 20.61C9.17953 20.61 9.07453 20.64 8.89453 20.67C9.50953 21.165 10.0495 21.63 10.6195 22.05C11.0695 22.38 11.2195 22.8 11.0395 23.355Z" fill="white"/>
<path d="M9.74956 43.89C6.58456 44.43 4.42456 46.305 3.28456 49.32C2.80456 50.565 3.32956 51.285 4.66456 51.285C8.54956 51.285 12.4196 51.285 16.3046 51.285C16.4846 51.285 16.6646 51.285 16.7546 51.285C17.1746 50.085 17.5346 48.945 17.9846 47.835C18.1196 47.49 18.1196 47.265 17.8796 46.995C15.7646 44.415 13.0346 43.32 9.74956 43.89Z" fill="white"/>
<path d="M45.0445 23.775C44.8945 24.33 44.7445 24.885 44.5645 25.53C45.2995 25.05 45.9445 24.63 46.5895 24.21C46.9645 23.97 47.3245 23.955 47.6845 24.195C47.8795 24.315 48.0595 24.45 48.2545 24.57C48.7195 24.87 49.1845 25.17 49.7245 25.515C49.5295 24.795 49.3945 24.15 49.1695 23.535C48.9145 22.83 49.0795 22.335 49.6945 21.9C50.2345 21.54 50.7145 21.09 51.2995 20.61C50.4595 20.565 49.7245 20.505 49.0045 20.49C48.4345 20.475 48.1195 20.22 47.9395 19.695C47.6995 19.02 47.4295 18.345 47.1595 17.655C47.1145 17.7 47.0845 17.7 47.0695 17.73C46.7995 18.42 46.5295 19.125 46.2745 19.815C46.1095 20.235 45.8245 20.46 45.3595 20.475C44.6695 20.505 43.9645 20.55 43.2745 20.58C43.1995 20.58 43.1245 20.61 43.0195 20.655C43.4995 21.045 43.9345 21.39 44.3695 21.735C45.3745 22.545 45.3745 22.545 45.0445 23.775Z" fill="white"/>
<path d="M48.9599 41.94C51.0449 41.94 52.7849 40.215 52.7999 38.115C52.7999 36.015 51.0749 34.29 48.9749 34.29C46.8599 34.29 45.1649 35.985 45.1499 38.1C45.1499 40.215 46.8449 41.94 48.9599 41.94Z" fill="white"/>
<path d="M27.1946 12.63C26.9246 13.56 26.6846 14.505 26.4296 15.45C26.3846 15.6 26.3696 15.75 26.3246 16.035C27.2846 15.405 28.1546 14.895 28.9646 14.295C29.7446 13.71 30.4346 13.725 31.2146 14.295C32.0246 14.88 32.8946 15.405 33.8546 16.035C33.7946 15.735 33.7796 15.585 33.7346 15.435C33.4796 14.49 33.2396 13.56 32.9696 12.615C32.7896 11.985 32.9546 11.475 33.4646 11.07C34.0796 10.59 34.6946 10.095 35.3096 9.6C35.5946 9.375 35.8646 9.135 36.2546 8.82C34.9946 8.745 33.8996 8.67 32.7896 8.64C32.0246 8.625 31.5746 8.28 31.3196 7.575C30.9446 6.54 30.5396 5.52 30.1496 4.5C30.1046 4.5 30.0596 4.5 30.0146 4.5C29.6246 5.55 29.2196 6.585 28.8296 7.635C28.5896 8.295 28.1396 8.625 27.4346 8.64C26.6546 8.655 25.8596 8.7 25.0796 8.745C24.7346 8.76 24.4046 8.805 23.9546 8.85C24.9446 9.645 25.7996 10.35 26.6846 11.04C27.2096 11.46 27.3896 11.97 27.1946 12.63Z" fill="#F0E2B4"/>
<path d="M11.2346 41.94C13.3346 41.925 15.0446 40.215 15.0296 38.1C15.0296 35.985 13.3346 34.29 11.2046 34.305C9.10463 34.305 7.37963 36.03 7.39463 38.13C7.39463 40.215 9.13463 41.955 11.2346 41.94Z" fill="white"/>
<path d="M30.0895 40.14C33.0745 40.14 35.5195 37.68 35.5045 34.68C35.4895 31.695 33.0595 29.295 30.0745 29.325C27.0595 29.34 24.6745 31.77 24.6895 34.8C24.7045 37.725 27.1345 40.14 30.0895 40.14Z" fill="white"/>
<path d="M55.9199 47.43C52.7699 42.705 45.7499 42.495 42.2999 47.01C42.1799 47.16 42.0599 47.43 42.1049 47.58C42.5099 48.795 42.9749 49.995 43.4399 51.285C44.0399 51.285 44.7449 51.285 45.4499 51.285C48.8399 51.285 52.2299 51.285 55.6199 51.285C56.8049 51.285 57.3449 50.52 56.9249 49.425C56.6549 48.735 56.3399 48.045 55.9199 47.43Z" fill="white"/>
<path d="M32.6848 42.225C28.0948 41.16 23.2198 43.05 20.5498 46.935C18.9898 49.2 18.4348 51.72 18.5698 54.45C18.6598 56.16 19.5598 57.135 21.2698 57.135C24.2098 57.135 27.1498 57.135 30.1048 57.135C33.1048 57.135 36.1048 57.135 39.1048 57.135C40.4098 57.135 41.4898 56.265 41.5648 55.065C41.6398 53.97 41.6848 52.845 41.5348 51.75C40.8898 47.1 37.3348 43.305 32.6848 42.225Z" fill="white"/>
<path d="M56.0548 44.79C55.0348 43.8 53.8498 43.08 52.4548 42.54C53.7598 41.4 54.5098 40.035 54.5698 38.355C54.6298 36.66 54.0448 35.19 52.7998 34.02C50.6998 32.025 47.3998 31.98 45.2398 33.9C44.1748 34.845 43.5298 36.045 43.3798 37.455C43.1548 39.48 43.8898 41.145 45.3898 42.465C44.5648 42.93 43.7548 43.32 43.0348 43.83C42.2998 44.355 41.6548 45.015 40.9648 45.615C38.3098 42.645 37.8598 42.33 34.1998 40.71C38.5198 37.47 37.7998 32.1 35.1298 29.565C32.2498 26.82 27.8248 26.835 24.9898 29.595C22.2598 32.25 21.7498 37.56 26.0098 40.74C23.2048 41.685 20.9398 43.32 19.1698 45.72C17.9548 44.25 16.4848 43.2 14.7148 42.525C17.6398 39.915 17.2048 36.18 15.2098 34.155C13.1248 32.04 9.68977 31.905 7.46977 33.885C6.31477 34.92 5.66977 36.225 5.57977 37.77C5.47477 39.675 6.22477 41.22 7.67977 42.51C7.48477 42.6 7.36477 42.66 7.22977 42.705C5.71477 43.335 4.43977 44.295 3.37477 45.54C2.38477 46.695 1.75477 48.045 1.25977 49.47C1.25977 49.845 1.25977 50.22 1.25977 50.595C1.30477 50.67 1.34977 50.76 1.37977 50.835C1.84477 52.245 2.92477 53.055 4.40977 53.055C8.26477 53.055 12.1348 53.055 15.9898 53.055C16.2148 53.055 16.4398 53.055 16.7548 53.055C16.7548 53.475 16.7548 53.85 16.7548 54.24C16.7548 56.745 17.7898 58.11 20.1898 58.845C20.2198 58.86 20.2498 58.89 20.2648 58.92C26.7898 58.92 33.3148 58.92 39.8398 58.92C39.8698 58.89 39.8848 58.86 39.9148 58.845C42.3448 58.11 43.3498 56.745 43.3498 54.18C43.3498 53.82 43.3498 53.445 43.3498 53.055C43.6648 53.055 43.8898 53.055 44.1148 53.055C47.9998 53.055 51.8698 53.07 55.7548 53.055C57.9148 53.04 59.3248 51.06 58.6648 49.02C58.1698 47.4 57.2848 45.99 56.0548 44.79ZM7.37977 38.13C7.36477 36.03 9.08977 34.305 11.1898 34.305C13.3048 34.305 15.0148 35.985 15.0148 38.1C15.0148 40.215 13.3198 41.94 11.2198 41.94C9.13477 41.955 7.39477 40.215 7.37977 38.13ZM17.9848 47.835C17.5498 48.945 17.1748 50.07 16.7548 51.285C16.6648 51.285 16.4848 51.285 16.3048 51.285C12.4198 51.285 8.54977 51.285 4.66477 51.285C3.32977 51.285 2.80477 50.565 3.28477 49.32C4.42477 46.305 6.58477 44.43 9.74977 43.89C13.0348 43.32 15.7498 44.415 17.8798 46.995C18.1198 47.265 18.1198 47.49 17.9848 47.835ZM45.1498 38.1C45.1498 35.985 46.8448 34.29 48.9748 34.29C51.0748 34.29 52.7998 36.015 52.7998 38.115C52.7998 40.2 51.0598 41.94 48.9598 41.94C46.8448 41.94 45.1498 40.215 45.1498 38.1ZM24.6748 34.785C24.6598 31.755 27.0448 29.325 30.0598 29.31C33.0448 29.295 35.4748 31.695 35.4898 34.665C35.5048 37.665 33.0748 40.125 30.0748 40.125C27.1348 40.14 24.7048 37.725 24.6748 34.785ZM41.5498 55.065C41.4748 56.265 40.3798 57.135 39.0898 57.135C36.0898 57.15 33.0898 57.135 30.0898 57.135C27.1498 57.135 24.2098 57.135 21.2548 57.135C19.5448 57.135 18.6448 56.16 18.5548 54.45C18.4198 51.72 18.9598 49.2 20.5348 46.935C23.2198 43.05 28.0798 41.145 32.6698 42.225C37.3198 43.305 40.8748 47.1 41.5198 51.75C41.6698 52.845 41.6248 53.97 41.5498 55.065ZM55.6198 51.285C52.2298 51.285 48.8398 51.285 45.4498 51.285C44.7448 51.285 44.0398 51.285 43.4398 51.285C42.9748 49.995 42.5098 48.795 42.1048 47.58C42.0598 47.43 42.1798 47.16 42.2998 47.01C45.7498 42.495 52.7698 42.705 55.9198 47.43C56.3248 48.045 56.6548 48.735 56.9248 49.425C57.3598 50.52 56.8048 51.285 55.6198 51.285Z" fill="#004D66"/>
<path d="M7.57467 21.165C8.18967 21.69 8.81967 22.2 9.47967 22.695C9.77967 22.92 9.85467 23.115 9.74967 23.475C9.49467 24.3 9.28467 25.14 9.05967 25.965C8.92467 26.475 9.01467 26.82 9.35967 27.045C9.73467 27.3 10.0947 27.225 10.4547 26.985C11.2197 26.475 11.9997 25.98 12.7797 25.455C12.9597 25.335 13.0947 25.335 13.2897 25.455C14.0547 25.965 14.8347 26.475 15.5997 26.985C15.9597 27.225 16.3197 27.3 16.6947 27.045C17.0247 26.82 17.1297 26.475 16.9947 25.995C16.7547 25.11 16.5297 24.225 16.2747 23.355C16.1997 23.1 16.2297 22.95 16.4547 22.785C17.2047 22.215 17.9247 21.615 18.6447 21.03C19.0047 20.73 19.1097 20.355 18.9447 19.98C18.7647 19.575 18.4347 19.455 18.0147 19.44C17.0997 19.395 16.1847 19.35 15.2847 19.32C15.0447 19.305 14.9397 19.23 14.8497 19.005C14.5347 18.15 14.2047 17.295 13.8897 16.44C13.6947 15.945 13.4247 15.72 13.0197 15.72C12.5547 15.735 12.2997 16.02 12.1497 16.44C11.8347 17.295 11.5047 18.15 11.1897 19.005C11.1147 19.215 11.0097 19.305 10.7847 19.305C9.92967 19.335 9.08967 19.395 8.23467 19.41C7.70967 19.425 7.30467 19.56 7.03467 20.025C7.03467 20.205 7.03467 20.385 7.03467 20.565C7.19967 20.76 7.36467 20.985 7.57467 21.165ZM9.28467 20.595C9.94467 20.565 10.6047 20.52 11.2647 20.49C11.7147 20.475 11.9997 20.265 12.1497 19.845C12.4197 19.125 12.7047 18.405 13.0047 17.61C13.0797 17.775 13.1397 17.88 13.1697 17.985C13.4097 18.6 13.6347 19.215 13.8747 19.83C14.0397 20.265 14.3247 20.475 14.7897 20.49C15.5547 20.52 16.3197 20.565 17.1897 20.61C16.5297 21.135 15.9747 21.615 15.3897 22.05C14.9547 22.38 14.8347 22.755 14.9847 23.28C15.1947 23.985 15.3747 24.69 15.5847 25.5C15.3897 25.38 15.2697 25.305 15.1497 25.23C14.6397 24.9 14.1297 24.57 13.6197 24.225C13.1997 23.94 12.8097 23.94 12.3897 24.225C11.7597 24.66 11.1147 25.065 10.4247 25.515C10.6347 24.735 10.7997 24.03 11.0247 23.34C11.2047 22.77 11.0697 22.365 10.5897 22.02C10.0197 21.6 9.47967 21.135 8.86467 20.64C9.05967 20.625 9.17967 20.61 9.28467 20.595Z" fill="#004D66"/>
<path d="M21.855 9.48001C22.92 10.335 23.97 11.205 25.05 12.045C25.335 12.27 25.395 12.465 25.29 12.81C25.005 13.77 24.75 14.76 24.48 15.735C24.345 16.245 24.21 16.74 24.03 17.43C24.225 17.7 24.42 18.105 24.75 18.36C25.17 18.69 25.68 18.615 26.115 18.315C27.24 17.58 28.38 16.86 29.49 16.095C29.895 15.81 30.195 15.78 30.63 16.08C31.71 16.845 32.85 17.55 33.96 18.285C34.455 18.615 34.98 18.66 35.49 18.33C35.97 18.015 36.135 17.49 35.97 16.845C35.61 15.495 35.25 14.13 34.86 12.78C34.77 12.45 34.83 12.27 35.1 12.075C36.165 11.25 37.215 10.395 38.25 9.54001C38.445 9.37501 38.655 9.19501 38.775 8.97001C39.255 8.11501 38.67 7.15501 37.605 7.08001C36.225 6.99001 34.83 6.93001 33.45 6.88501C33.075 6.87001 32.895 6.72001 32.775 6.37501C32.325 5.11501 31.815 3.85501 31.35 2.59501C31.125 1.98001 30.75 1.60501 30.09 1.57501C29.505 1.56001 29.085 1.89001 28.83 2.58001C28.335 3.85501 27.855 5.13001 27.375 6.40501C27.255 6.73501 27.075 6.87001 26.73 6.88501C25.365 6.93001 24 7.00501 22.635 7.06501C22.005 7.09501 21.51 7.33501 21.285 7.96501C21.105 8.55001 21.27 9.00001 21.855 9.48001ZM25.08 8.74501C25.86 8.70001 26.655 8.64001 27.435 8.64001C28.14 8.62501 28.59 8.29501 28.83 7.63501C29.22 6.58501 29.625 5.53501 30.015 4.50001C30.06 4.50001 30.105 4.50001 30.15 4.50001C30.54 5.52001 30.945 6.54001 31.32 7.57501C31.575 8.28001 32.025 8.62501 32.79 8.64001C33.9 8.67001 34.995 8.74501 36.255 8.82001C35.865 9.13501 35.595 9.37501 35.31 9.60001C34.695 10.095 34.08 10.59 33.465 11.07C32.955 11.475 32.79 11.985 32.97 12.615C33.24 13.545 33.48 14.49 33.735 15.435C33.78 15.585 33.795 15.75 33.855 16.035C32.895 15.405 32.025 14.895 31.215 14.295C30.435 13.725 29.745 13.71 28.965 14.295C28.155 14.895 27.285 15.405 26.325 16.035C26.37 15.75 26.4 15.6 26.43 15.45C26.685 14.505 26.925 13.575 27.195 12.63C27.39 11.97 27.21 11.46 26.67 11.04C25.8 10.35 24.93 9.64501 23.955 8.85001C24.405 8.80501 24.735 8.77501 25.08 8.74501Z" fill="#004D66"/>
<path d="M41.5796 21.06C42.2846 21.63 42.9746 22.2 43.6796 22.74C43.9196 22.92 43.9796 23.07 43.8896 23.37C43.6346 24.21 43.4246 25.05 43.1846 25.89C43.0646 26.325 43.0646 26.715 43.4546 27.015C43.7846 27.27 44.1446 27.24 44.6096 26.94C45.3446 26.46 46.0946 25.98 46.8296 25.485C47.0546 25.335 47.2046 25.32 47.4296 25.47C48.1796 25.98 48.9446 26.475 49.7096 26.97C49.8896 27.075 50.0996 27.15 50.1746 27.18C50.8946 27.165 51.2696 26.655 51.1046 26.04C50.8646 25.125 50.6246 24.21 50.3546 23.295C50.2796 23.055 50.3396 22.935 50.5196 22.785C51.2546 22.2 51.9896 21.615 52.7096 21.03C53.1596 20.67 53.2646 20.13 52.9046 19.77C52.7096 19.575 52.3796 19.455 52.1096 19.425C51.2396 19.35 50.3696 19.32 49.4996 19.305C49.1996 19.29 49.0346 19.2 48.9296 18.9C48.6446 18.06 48.3146 17.235 47.9996 16.41C47.8196 15.93 47.5196 15.69 47.1146 15.705C46.6646 15.72 46.4246 15.99 46.2746 16.395C45.9596 17.25 45.6146 18.09 45.3146 18.945C45.2246 19.185 45.1046 19.275 44.8496 19.275C43.9196 19.305 43.0046 19.35 42.0746 19.395C41.6546 19.41 41.3396 19.575 41.1896 19.995C41.0696 20.415 41.1896 20.745 41.5796 21.06ZM43.2896 20.61C43.9796 20.565 44.6846 20.52 45.3746 20.505C45.8396 20.49 46.1246 20.265 46.2896 19.845C46.5446 19.14 46.8146 18.45 47.0846 17.76C47.0996 17.745 47.1146 17.73 47.1746 17.685C47.4446 18.39 47.7146 19.05 47.9546 19.725C48.1346 20.25 48.4496 20.505 49.0196 20.52C49.7546 20.535 50.4746 20.595 51.3146 20.64C50.7296 21.12 50.2346 21.555 49.7096 21.93C49.0796 22.35 48.9296 22.845 49.1846 23.565C49.4096 24.18 49.5446 24.825 49.7396 25.545C49.1996 25.2 48.7346 24.9 48.2696 24.6C48.0746 24.48 47.8796 24.345 47.6996 24.225C47.3246 23.985 46.9646 23.985 46.6046 24.24C45.9596 24.66 45.3146 25.08 44.5796 25.56C44.7596 24.915 44.8946 24.36 45.0596 23.805C45.3896 22.59 45.3896 22.59 44.3996 21.795C43.9646 21.45 43.5296 21.09 43.0496 20.715C43.1546 20.64 43.2146 20.61 43.2896 20.61Z" fill="#004D66"/>
<path d="M43.2749 12.75C43.5449 12.495 43.7999 12.225 44.0699 11.955C44.3549 11.67 48.1199 7.92001 48.4049 7.62001C48.7349 7.27501 48.7649 6.87001 48.4799 6.58501C48.1949 6.28501 47.7749 6.30001 47.4449 6.63001C46.8749 7.18501 42.8399 11.22 42.2849 11.79C41.9399 12.135 41.9249 12.525 42.2249 12.825C42.5099 13.125 42.9149 13.095 43.2749 12.75Z" fill="#004D66"/>
<path d="M16.6049 11.955C16.8749 12.225 17.1299 12.495 17.3999 12.75C17.7599 13.11 18.1649 13.125 18.4649 12.825C18.7499 12.525 18.7349 12.135 18.4049 11.79C17.8499 11.22 13.8149 7.18501 13.2449 6.63001C12.9149 6.30001 12.4949 6.28501 12.2099 6.58501C11.9249 6.87001 11.9549 7.27501 12.2849 7.62001C12.5549 7.92001 16.3199 11.67 16.6049 11.955Z" fill="#004D66"/>
</svg>
