<svg width="60" height="60" viewBox="0 0 60 60" fill="none" xmlns="http://www.w3.org/2000/svg">
<path d="M26.8648 20.595H29.0248L33.8848 24.72L33.7348 20.595H39.9298C41.2498 20.595 42.3298 19.515 42.3298 18.195V10.665C42.3298 9.34501 41.2498 8.26501 39.9298 8.26501H26.8648C25.5448 8.26501 24.4648 9.34501 24.4648 10.665V18.195C24.4648 19.53 25.5298 20.595 26.8648 20.595Z" fill="#FFD5D4"/>
<path d="M42.1949 36.015C42.1949 37.725 36.9599 39.105 30.4949 39.105C24.0299 39.105 18.7949 37.725 18.7949 36.015C18.7949 34.305 24.0299 34.875 30.4949 34.875C36.9599 34.875 42.1949 34.305 42.1949 36.015Z" fill="#FFD5D4"/>
<path d="M33.9748 16.395H31.8148L26.9548 20.52L27.1048 16.395H20.9098C19.5898 16.395 18.5098 15.315 18.5098 13.995V6.465C18.5098 5.145 19.5898 4.065 20.9098 4.065H33.9748C35.2948 4.065 36.3748 5.145 36.3748 6.465V13.995C36.3748 15.33 35.2948 16.395 33.9748 16.395Z" fill="#F0E2B4"/>
<path d="M33.9748 2.565H20.9098C18.7648 2.565 17.0098 4.32 17.0098 6.465V13.995C17.0098 16.14 18.7648 17.895 20.9098 17.895H25.5598L25.4698 20.46L25.3498 23.85L27.9448 21.645L32.3848 17.88H33.9898C36.1348 17.88 37.8898 16.125 37.8898 13.98V6.465C37.8748 4.32 36.1198 2.565 33.9748 2.565ZM36.3748 13.995C36.3748 15.315 35.2948 16.395 33.9748 16.395H31.8148L26.9548 20.52L27.1048 16.395H20.9098C19.5898 16.395 18.5098 15.315 18.5098 13.995V6.465C18.5098 5.145 19.5898 4.065 20.9098 4.065H33.9748C35.2948 4.065 36.3748 5.145 36.3748 6.465V13.995Z" fill="white"/>
<path d="M50.1902 12.81C52.7552 12.825 54.8102 10.8 54.8252 8.23499C54.8402 5.68499 52.7702 3.61499 50.2352 3.61499C47.7152 3.61499 45.6752 5.66999 45.6602 8.18999C45.6452 10.74 47.6702 12.795 50.1902 12.81Z" fill="white"/>
<path d="M9.96004 12.8099C12.51 12.8249 14.58 10.7849 14.58 8.21994C14.58 5.66994 12.51 3.58494 9.97504 3.61494C7.45504 3.62994 5.41504 5.68494 5.41504 8.20494C5.41504 10.7549 7.44004 12.8099 9.96004 12.8099Z" fill="white"/>
<path d="M45.2551 47.625C45.2701 46.635 45.4501 46.41 46.4401 46.29C48.5551 46.035 50.6851 45.765 52.8001 45.555C55.1851 45.315 56.4451 43.83 56.3251 41.445C56.0851 36.9 55.8901 32.34 55.6951 27.795C55.6201 26.01 55.5451 24.24 55.4551 22.455C55.3801 20.955 54.4651 19.755 53.1001 19.365C51.6751 18.96 50.2201 19.515 49.4101 20.835C47.8501 23.355 46.3051 25.875 44.7751 28.41C44.4301 28.965 43.9501 29.25 43.3201 29.34C40.4401 29.745 37.5751 30.15 34.6951 30.57C33.2251 30.78 32.3401 31.92 32.4901 33.375C32.6251 34.71 33.8101 35.7 35.2201 35.535C37.5451 35.265 39.8551 34.905 42.1801 34.575C43.3801 34.41 44.5801 34.215 45.7951 34.065C46.8301 33.93 47.6101 33.45 48.1501 32.535C49.0051 31.095 49.8751 29.685 50.7451 28.26C51.1351 27.63 51.6451 27.45 52.1401 27.765C52.6051 28.065 52.6801 28.59 52.3051 29.19C51.4651 30.585 50.5951 31.965 49.7701 33.375C49.5901 33.69 49.4701 34.095 49.4551 34.47C49.4101 35.61 49.4401 36.75 49.4401 37.905C49.4401 38.73 49.1701 39.015 48.3601 39.105C46.0201 39.375 43.6651 39.645 41.3251 39.915C39.5251 40.125 38.2351 41.55 38.2351 43.395C38.2201 47.925 38.2351 47.97 38.2351 52.5C38.2351 52.665 38.2501 52.845 38.2351 53.01C38.2201 53.295 38.1001 53.55 37.9201 53.715C39.1501 54.585 40.3951 55.455 41.7451 55.83C43.0051 56.145 44.0551 56.76 45.1351 57.255C45.1351 57.195 45.1351 57.135 45.1351 57.075C45.1651 53.925 45.2101 50.775 45.2551 47.625Z" fill="white"/>
<path d="M21.9902 43.4249C21.9902 41.6549 20.8502 40.2899 19.1402 39.9599C18.8252 39.8999 18.5102 39.87 18.1952 39.84C16.1102 39.6 14.0252 39.3599 11.9402 39.1349C11.0552 39.0299 10.8002 38.76 10.7852 37.875C10.7852 36.735 10.8002 35.58 10.7702 34.44C10.7552 34.11 10.6652 33.735 10.4852 33.45C9.61524 31.98 8.71524 30.54 7.83024 29.085C7.60524 28.71 7.54524 28.29 7.87524 28.005C8.11524 27.81 8.50524 27.675 8.82024 27.72C9.06024 27.75 9.31524 28.05 9.46524 28.29C10.3502 29.7 11.2052 31.125 12.0752 32.55C12.9302 33.96 14.0252 34.38 15.5552 33.78C19.1852 32.37 22.8002 30.915 26.4002 29.46C27.7202 28.92 28.3052 27.48 27.8102 26.205C27.3002 24.9 25.8602 24.285 24.5102 24.825C21.8852 25.86 19.2602 26.91 16.6352 27.96C15.6002 28.38 15.3752 28.305 14.8052 27.36C13.3052 24.915 11.8202 22.47 10.3202 20.025C9.66024 18.945 8.53524 18.48 7.39524 18.78C6.30024 19.065 5.59524 19.89 5.49024 21.15C5.23524 24.27 5.01024 27.39 4.78524 30.51C4.50024 34.245 4.23024 37.98 3.93024 41.715C3.78024 43.5599 4.96524 45.195 6.81024 45.465C9.25524 45.825 11.7152 46.11 14.1602 46.44C14.8802 46.53 15.1352 46.83 15.1352 47.565C15.1352 50.82 15.1352 54.0899 15.1352 57.3449C15.1352 57.5099 15.1202 57.6599 15.0752 57.7949C17.1002 56.0249 19.7852 54.8999 22.0952 53.3249C22.0502 53.1749 22.0202 53.01 22.0202 52.83C21.9902 48.18 22.0052 48.0599 21.9902 43.4249Z" fill="white"/>
<path d="M57.345 24.045C57.3 22.98 57.285 21.87 56.97 20.88C56.34 18.855 54.825 17.685 52.725 17.46C50.685 17.25 49.035 18.045 47.94 19.785C46.455 22.125 45.03 24.495 43.605 26.88C43.32 27.36 42.975 27.585 42.435 27.645C39.75 28.005 37.05 28.38 34.365 28.77C32.37 29.055 30.84 30.645 30.705 32.67C30.66 33.345 30.81 34.02 30.87 34.725C30.69 34.725 30.495 34.725 30.285 34.725C27.3 34.725 25.83 34.725 22.845 34.725C22.47 34.725 22.095 34.71 21.72 34.74C21.24 34.785 20.88 35.19 20.895 35.655C20.91 36.12 21.255 36.48 21.75 36.525C21.915 36.54 22.08 36.54 22.26 36.54C24.45 36.54 26.64 36.54 28.845 36.54C29.04 36.54 29.235 36.54 29.49 36.54C29.49 36.84 29.49 37.065 29.49 37.275C29.49 43.86 29.49 50.43 29.49 57.015C29.49 57.225 29.49 57.435 29.505 57.63C29.55 58.11 29.865 58.38 30.315 58.425C30.78 58.47 31.11 58.23 31.245 57.78C31.305 57.555 31.305 57.3 31.305 57.06C31.305 50.46 31.305 43.86 31.305 37.26C31.305 37.02 31.305 36.795 31.305 36.54C31.35 36.54 31.395 36.54 31.425 36.54C31.455 36.54 31.485 36.54 31.545 36.54C32.085 36.525 32.565 36.6 33.045 36.885C33.765 37.32 34.59 37.455 35.43 37.35C36.615 37.2 37.8 37.035 39 36.87C41.865 36.465 44.73 36.06 47.655 35.64C47.655 35.985 47.625 36.42 47.67 36.84C47.7 37.245 47.55 37.395 47.145 37.44C45.39 37.62 43.65 37.905 41.895 38.01C38.28 38.25 36.315 40.83 36.42 44.115C36.555 47.91 36.45 47.22 36.45 51.03C36.45 51.69 36.435 52.35 36.45 52.995C36.465 53.565 36.825 53.955 37.335 53.955C37.83 53.955 38.22 53.565 38.25 53.01C38.265 52.845 38.25 52.68 38.25 52.5C38.25 47.97 38.25 47.925 38.25 43.395C38.25 41.55 39.54 40.125 41.34 39.915C43.68 39.645 46.035 39.375 48.375 39.105C49.185 39.015 49.455 38.715 49.455 37.905C49.455 36.765 49.425 35.61 49.47 34.47C49.485 34.095 49.59 33.69 49.785 33.375C50.61 31.965 51.48 30.585 52.32 29.19C52.695 28.575 52.62 28.065 52.155 27.765C51.66 27.45 51.15 27.63 50.76 28.26C49.89 29.685 49.005 31.095 48.165 32.535C47.625 33.435 46.86 33.93 45.81 34.065C44.61 34.215 43.41 34.41 42.195 34.575C39.87 34.905 37.56 35.265 35.235 35.535C33.81 35.7 32.64 34.71 32.505 33.375C32.355 31.92 33.24 30.78 34.71 30.57C37.59 30.15 40.455 29.76 43.335 29.34C43.95 29.25 44.445 28.965 44.79 28.41C46.32 25.875 47.865 23.355 49.425 20.835C50.235 19.515 51.69 18.975 53.115 19.365C54.48 19.755 55.395 20.955 55.47 22.455C55.545 24.24 55.62 26.01 55.71 27.795C55.92 32.34 56.115 36.9 56.34 41.445C56.46 43.83 55.2 45.315 52.815 45.555C50.685 45.765 48.57 46.02 46.455 46.29C45.465 46.41 45.285 46.635 45.27 47.625C45.225 50.775 45.18 53.925 45.15 57.075C45.15 57.285 45.135 57.495 45.165 57.69C45.285 58.38 46.08 58.725 46.575 58.26C46.8 58.05 46.935 57.645 46.95 57.33C47.01 54.465 47.04 51.6 47.085 48.72C47.085 48.495 47.085 48.285 47.085 48.03C49.14 47.79 51.135 47.535 53.13 47.34C55.755 47.07 57.51 45.57 58.095 43.035C58.125 42.93 58.155 42.825 58.2 42.72C58.2 42.09 58.2 41.445 58.2 40.8C58.17 40.56 58.11 40.32 58.11 40.095C57.825 34.77 57.6 29.4 57.345 24.045Z" fill="#004D66"/>
<path d="M31.425 36.5699C31.17 36.5849 31.77 36.5699 31.425 36.5699V36.5699Z" fill="#004D66"/>
<path d="M19.6352 38.235C18.1802 37.965 16.6952 37.86 15.2252 37.68C14.3552 37.575 13.5002 37.47 12.6452 37.365C12.6452 36.705 12.6452 36.135 12.6452 35.535C13.8152 35.985 14.9402 36.015 16.0802 35.55C17.5802 34.935 19.0952 34.335 20.6102 33.735C22.8302 32.835 25.0802 31.995 27.2702 31.035C29.1902 30.21 30.1652 28.095 29.6702 26.1C29.0102 23.49 26.3552 22.125 23.8052 23.115C21.4202 24.045 19.0352 25.005 16.6652 25.98C16.2902 26.13 16.1252 26.07 15.9152 25.725C14.6102 23.565 13.2902 21.405 11.9702 19.245C11.7602 18.915 11.5502 18.57 11.2802 18.285C9.9752 16.935 8.3852 16.515 6.6002 17.1C4.8302 17.67 3.7652 19.185 3.6302 21.135C3.4352 23.865 3.2252 26.595 3.0152 29.325C2.7002 33.495 2.3402 37.65 2.0702 41.82C1.8902 44.475 3.8252 46.83 6.4502 47.235C7.5602 47.415 8.6702 47.535 9.7952 47.685C10.9352 47.835 12.0902 47.985 13.2752 48.135C13.2752 48.39 13.2752 48.585 13.2752 48.795C13.2752 51.645 13.2752 54.495 13.2752 57.345C13.2752 58.05 13.6202 58.47 14.1902 58.455C14.7452 58.455 15.0902 58.02 15.0902 57.33C15.0902 54.075 15.0902 50.805 15.0902 47.55C15.0902 46.815 14.8352 46.53 14.1152 46.425C11.6702 46.095 9.2102 45.81 6.7652 45.45C4.9352 45.18 3.7502 43.545 3.9002 41.7C4.2152 37.965 4.4852 34.23 4.7552 30.495C4.9952 27.375 5.2052 24.255 5.4602 21.135C5.5652 19.89 6.2702 19.05 7.3652 18.765C8.5202 18.465 9.6302 18.93 10.2902 20.01C11.7902 22.455 13.2752 24.9 14.7752 27.345C15.3452 28.29 15.5702 28.35 16.6052 27.945C19.2302 26.895 21.8552 25.83 24.4802 24.81C25.8452 24.27 27.2702 24.9 27.7802 26.19C28.2902 27.465 27.7052 28.905 26.3702 29.445C22.7552 30.9 19.1402 32.355 15.5252 33.765C13.9952 34.365 12.9002 33.945 12.0452 32.535C11.1752 31.11 10.3202 29.685 9.4352 28.275C9.2852 28.035 9.0302 27.735 8.7902 27.705C8.4902 27.675 8.0852 27.795 7.8452 27.99C7.5152 28.275 7.5752 28.71 7.8002 29.07C8.6852 30.525 9.5852 31.965 10.4552 33.435C10.6202 33.72 10.7252 34.095 10.7402 34.425C10.7702 35.565 10.7552 36.705 10.7552 37.86C10.7552 38.745 11.0252 39.015 11.9102 39.12C13.9952 39.345 16.0802 39.585 18.1652 39.825C18.4802 39.855 18.7952 39.885 19.1102 39.945C20.8202 40.26 21.9602 41.625 21.9602 43.41C21.9752 48.045 21.9602 48.165 21.9602 52.8C21.9602 53.505 22.2902 53.925 22.8452 53.955C23.3852 53.985 23.7752 53.565 23.7752 52.92C23.7752 48.165 23.8052 47.895 23.7602 43.14C23.7602 40.71 22.0202 38.685 19.6352 38.235Z" fill="#004D66"/>
<path d="M50.2201 14.625C53.7751 14.625 56.6551 11.745 56.6401 8.18999C56.6251 4.66499 53.7301 1.79999 50.2201 1.79999C46.6951 1.81499 43.8151 4.70999 43.8301 8.21999C43.8301 11.775 46.6951 14.625 50.2201 14.625ZM50.2351 3.62999C52.7701 3.62999 54.8401 5.69999 54.8251 8.24999C54.8101 10.8 52.7551 12.84 50.1901 12.825C47.6701 12.81 45.6451 10.755 45.6601 8.21999C45.6601 5.68499 47.7151 3.62999 50.2351 3.62999Z" fill="#004D66"/>
<path d="M9.8101 14.625C13.4551 14.7 16.3801 11.88 16.4251 8.26497C16.4701 4.78497 13.6351 1.88997 10.1251 1.79997C6.6001 1.72497 3.67509 4.57497 3.60009 8.14497C3.52509 11.625 6.3451 14.55 9.8101 14.625ZM9.9751 3.62997C12.5101 3.59997 14.5801 5.68497 14.5801 8.23497C14.5801 10.785 12.5251 12.825 9.9601 12.825C7.4401 12.81 5.41509 10.755 5.41509 8.21997C5.41509 5.68497 7.4551 3.64497 9.9751 3.62997Z" fill="#004D66"/>
<path d="M22.8454 9.01495C24.1354 9.01495 25.4254 9.01495 26.7304 9.01495C28.0354 9.01495 30.8554 9.01495 32.1604 9.01495C32.8654 9.01495 33.2704 8.66995 33.2704 8.09995C33.2704 7.54495 32.8504 7.19995 32.1454 7.19995C29.5354 7.19995 25.4404 7.19995 22.8304 7.19995C22.1254 7.19995 21.7354 7.54495 21.7354 8.11495C21.7354 8.69995 22.1254 9.01495 22.8454 9.01495Z" fill="#004D66"/>
<path d="M22.7402 13.245C23.3702 13.26 24.0152 13.245 24.6452 13.245C25.2752 13.245 25.9202 13.26 26.5502 13.245C27.1652 13.23 27.5702 12.855 27.5702 12.345C27.5852 11.82 27.1952 11.43 26.5802 11.43C25.2902 11.415 24.0002 11.415 22.6952 11.43C22.0652 11.445 21.7052 11.79 21.7202 12.345C21.7352 12.885 22.1102 13.23 22.7402 13.245Z" fill="#004D66"/>
</svg>
