<svg width="60" height="60" viewBox="0 0 60 60" fill="none" xmlns="http://www.w3.org/2000/svg">
<path d="M34.9198 40.41C43.4775 40.41 50.4148 36.9715 50.4148 32.73C50.4148 28.4884 43.4775 25.05 34.9198 25.05C26.3622 25.05 19.4248 28.4884 19.4248 32.73C19.4248 36.9715 26.3622 40.41 34.9198 40.41Z" fill="#FFD5D4"/>
<path d="M20.6101 20.925C20.8951 19.92 21.4801 19.29 22.4851 19.005C21.4501 18.735 20.8951 18.075 20.5951 17.1C20.3401 18.12 19.7101 18.72 18.7051 19.035C19.7851 19.245 20.3101 19.95 20.6101 20.925Z" fill="#F0E2B4"/>
<path d="M34.6647 12.42C36.7947 12.42 38.5947 10.62 38.6097 8.49003C38.6097 7.44003 38.2047 6.45003 37.4547 5.70003C36.7047 4.95003 35.7147 4.53003 34.6497 4.53003H34.6347C32.4747 4.54503 30.7197 6.31503 30.7197 8.47503C30.7347 10.65 32.5047 12.405 34.6647 12.42Z" fill="white"/>
<path d="M46.8598 12C47.0848 10.95 47.7148 10.35 48.7498 10.065C47.7148 9.81003 47.1298 9.15003 46.8298 8.16003C46.5748 9.21003 45.9298 9.78003 44.9248 10.065C45.9598 10.335 46.5598 10.965 46.8598 12Z" fill="#F0E2B4"/>
<path d="M27.3301 28.23C29.1001 28.23 30.8551 28.23 32.6251 28.23H34.6351H36.7951C38.5651 28.23 40.3351 28.23 42.1051 28.23C42.6151 28.23 42.9901 28.11 43.2301 27.87C43.4701 27.63 43.5751 27.255 43.5751 26.775C43.5751 26.13 43.5301 25.575 43.4551 25.065C43.1551 22.83 41.8651 20.715 39.9151 19.29C37.9651 17.865 35.5651 17.265 33.3301 17.64C28.7851 18.42 25.7251 22.035 25.7251 26.655C25.7401 27.795 26.1751 28.23 27.3301 28.23Z" fill="white"/>
<path d="M54.1499 34.035C53.1749 33.405 51.9449 33.36 50.8799 33.915C47.1899 35.82 43.4399 37.785 39.8099 39.675C38.7449 40.23 37.6949 40.785 36.6299 41.34C36.4949 41.415 36.3749 41.505 36.2849 41.61C35.1449 43.02 33.6149 43.695 31.7399 43.605C30.4949 43.545 29.2499 43.485 28.0049 43.44C27.4199 43.41 26.8349 43.395 26.2349 43.365L25.7699 43.35C25.3049 43.335 24.8399 43.305 24.3749 43.29C24.0149 43.275 23.7149 43.14 23.5199 42.9C23.3699 42.72 23.2949 42.48 23.3249 42.24C23.3999 41.655 23.8049 41.31 24.4049 41.34L24.6449 41.355C25.0199 41.37 25.3799 41.385 25.7549 41.4C26.3999 41.43 27.0449 41.46 27.6899 41.49C29.0999 41.55 30.5549 41.625 31.9949 41.67C33.8849 41.73 35.3399 40.395 35.4149 38.565C35.4749 36.81 34.0649 35.37 32.2199 35.295L29.8649 35.19C27.0299 35.07 24.0899 34.95 21.2099 34.8C20.4299 34.755 19.7699 34.905 19.1549 35.235C17.5799 36.06 15.9749 36.9 14.4299 37.71C13.6799 38.1 12.9299 38.49 12.1949 38.88C12.1199 38.91 12.0599 38.955 11.9849 39L17.4749 49.53C18.1049 49.11 18.7649 48.975 19.3799 48.975C19.8299 48.975 20.2649 49.05 20.6549 49.14C21.7049 49.38 22.7849 49.605 23.8349 49.83C25.4249 50.175 27.0599 50.52 28.6649 50.895C30.4349 51.3 31.9199 51.12 33.3749 50.31C35.8799 48.93 38.4599 47.595 40.9649 46.305C41.9999 45.765 43.0349 45.24 44.0699 44.7L46.9799 43.185C49.2299 42.015 51.4799 40.845 53.7299 39.675C54.8999 39.06 55.5149 38.13 55.5749 36.9C55.6349 35.7 55.0949 34.65 54.1499 34.035Z" fill="white"/>
<path d="M13.4999 46.125L12.2699 43.755C11.1149 41.55 9.92994 39.27 8.75994 37.05C8.69994 36.945 8.62494 36.84 8.53494 36.735C8.47494 36.75 8.44494 36.765 8.41494 36.78C7.81494 37.095 7.21494 37.395 6.61494 37.71C6.01494 38.025 5.41494 38.325 4.81494 38.64C4.72494 38.685 4.69494 38.73 4.67994 38.745C4.67994 38.76 4.66494 38.835 4.76994 39.03C8.09994 45.405 10.7999 50.58 13.2749 55.35C13.3649 55.515 13.4249 55.56 13.4399 55.56C13.4549 55.56 13.5299 55.575 13.7099 55.47C14.4149 55.095 15.1349 54.72 15.8399 54.36C16.2149 54.165 16.5749 53.97 16.9499 53.79C17.0399 53.745 17.2649 53.625 17.3249 53.565C17.3099 53.49 17.1899 53.25 17.1449 53.175C15.9449 50.82 14.7299 48.465 13.4999 46.125Z" fill="#F0E2B4"/>
<path d="M54.4799 32.025C53.0249 31.395 51.3299 31.485 49.8149 32.265C47.0249 33.72 44.1899 35.19 41.4449 36.63C40.1099 37.32 38.7899 38.01 37.4549 38.715C37.4249 38.73 37.3949 38.745 37.3649 38.76C37.3949 37.335 36.9299 36.075 36.0299 35.07C35.0099 33.945 33.5099 33.285 31.9349 33.285C29.2649 33.27 26.5499 33.12 23.9099 32.985C23.0099 32.94 22.1099 32.895 21.2099 32.85C20.1299 32.805 19.1849 33 18.2999 33.465C16.4849 34.425 14.6399 35.385 12.8399 36.315L11.2499 37.14C11.1899 37.17 11.1299 37.2 11.0699 37.23L10.9499 36.99C10.7849 36.66 10.6199 36.345 10.4549 36.03C9.79491 34.785 8.69991 34.44 7.46991 35.085C6.40491 35.625 5.36991 36.18 4.12491 36.825C2.69991 37.575 2.38491 38.61 3.13491 40.05C4.13991 41.97 5.12991 43.89 6.13491 45.81L8.11491 49.59C9.28491 51.825 10.4399 54.06 11.6099 56.28C12.0449 57.105 12.7049 57.555 13.4399 57.555C13.7549 57.555 14.0999 57.48 14.4299 57.3C15.7799 56.625 17.0249 55.98 18.2249 55.32C19.2599 54.765 19.5899 53.655 19.0649 52.56C18.8849 52.2 18.7049 51.855 18.5099 51.48C18.4649 51.39 18.4199 51.3 18.3749 51.21C18.8699 50.88 19.3949 50.805 20.0699 50.955C21.3599 51.24 22.6799 51.525 23.9549 51.795C25.3949 52.095 26.8949 52.41 28.3499 52.755C30.5399 53.25 32.4149 53.01 34.2449 51.99C36.2699 50.85 38.3849 49.77 40.4099 48.735C41.2799 48.285 42.1649 47.835 43.0349 47.385C44.1749 46.785 45.3149 46.2 46.4699 45.6C49.1699 44.19 51.9599 42.75 54.6899 41.31C56.9249 40.14 58.0049 37.68 57.3299 35.325C56.9099 33.795 55.8899 32.625 54.4799 32.025ZM16.9649 53.79C16.5899 53.985 16.2299 54.18 15.8549 54.36C15.1499 54.72 14.4299 55.095 13.7249 55.47C13.5449 55.56 13.4699 55.56 13.4549 55.56C13.4399 55.56 13.3649 55.515 13.2899 55.35C10.8149 50.58 8.11491 45.39 4.78491 39.03C4.67991 38.835 4.69491 38.775 4.69491 38.745C4.69491 38.715 4.73991 38.685 4.82991 38.64C5.42991 38.325 6.02991 38.025 6.62991 37.71C7.22991 37.395 7.82991 37.095 8.42991 36.78C8.45991 36.765 8.48991 36.75 8.54991 36.735C8.63991 36.84 8.72991 36.945 8.77491 37.05C9.94491 39.285 11.1299 41.55 12.2699 43.755L13.4999 46.125C14.7299 48.48 15.9449 50.82 17.1749 53.175C17.2199 53.265 17.3399 53.49 17.3549 53.565C17.2949 53.625 17.0549 53.745 16.9649 53.79ZM55.5749 36.855C55.5149 38.085 54.8999 39.03 53.7299 39.63C51.4799 40.8 49.2299 41.97 46.9799 43.14L44.0699 44.655C43.0349 45.195 41.9999 45.735 40.9649 46.26C38.4599 47.55 35.8799 48.885 33.3749 50.265C31.9199 51.06 30.4349 51.255 28.6649 50.85C27.0599 50.475 25.4099 50.13 23.8349 49.785C22.7999 49.56 21.7199 49.335 20.6549 49.095C20.2649 49.005 19.8299 48.93 19.3799 48.93C18.7649 48.93 18.1049 49.065 17.4749 49.485L11.9849 38.955C12.0599 38.91 12.1199 38.865 12.1949 38.835C12.9449 38.445 13.6949 38.055 14.4299 37.665C15.9749 36.855 17.5799 36.03 19.1549 35.19C19.7849 34.86 20.4449 34.725 21.2099 34.755C24.0899 34.89 27.0299 35.025 29.8649 35.145L32.2199 35.25C34.0799 35.325 35.4899 36.765 35.4149 38.52C35.3549 40.35 33.8849 41.685 31.9949 41.625C30.5699 41.58 29.0999 41.505 27.6899 41.445C27.0449 41.415 26.3999 41.385 25.7549 41.355C25.3799 41.34 25.0199 41.325 24.6449 41.31L24.4049 41.295C23.7899 41.265 23.3849 41.61 23.3249 42.195C23.2949 42.435 23.3699 42.675 23.5199 42.855C23.7149 43.08 24.0149 43.215 24.3749 43.245C24.8399 43.275 25.3049 43.29 25.7699 43.305L26.2349 43.32C26.8199 43.35 27.4049 43.365 28.0049 43.395C29.2499 43.455 30.4949 43.5 31.7399 43.56C33.6149 43.65 35.1449 42.975 36.2849 41.565C36.3599 41.475 36.4799 41.37 36.6299 41.295C37.6949 40.74 38.7449 40.185 39.8099 39.63C43.4399 37.74 47.1749 35.775 50.8799 33.87C51.9449 33.315 53.1749 33.36 54.1499 33.99C55.0949 34.65 55.6349 35.7 55.5749 36.855Z" fill="#004D66"/>
<path d="M27.2697 29.88C29.0247 29.88 30.7797 29.88 32.5347 29.88H34.6347C35.3997 29.88 36.1647 29.88 36.9297 29.88C37.6647 29.88 38.4147 29.88 39.1647 29.88C40.1847 29.88 41.2197 29.88 42.2397 29.88C44.0397 29.865 45.2547 28.665 45.2547 26.865C45.2547 26.19 45.2247 25.545 45.1497 24.945C44.8197 22.26 43.3197 19.74 41.0397 18.03C38.7597 16.305 35.9097 15.57 33.2397 15.99C27.7797 16.86 24.1197 21.165 24.1197 26.685C24.0897 28.71 25.2447 29.88 27.2697 29.88ZM33.3597 17.625C35.5947 17.235 37.9947 17.835 39.9447 19.275C41.8947 20.7 43.1847 22.8 43.4847 25.05C43.5597 25.56 43.5897 26.13 43.6047 26.76C43.6047 27.255 43.4997 27.63 43.2597 27.855C43.0197 28.095 42.6447 28.215 42.1347 28.215C40.3647 28.215 38.5947 28.215 36.8247 28.215H34.6647H32.6547C30.8847 28.215 29.1147 28.215 27.3597 28.215C26.2047 28.215 25.7847 27.78 25.7847 26.625C25.7547 22.02 28.8147 18.405 33.3597 17.625Z" fill="#004D66"/>
<path d="M34.65 14.07C34.665 14.07 34.665 14.07 34.68 14.07C36.15 14.07 37.53 13.485 38.595 12.435C39.66 11.37 40.26 9.975 40.26 8.49C40.26 7.02 39.69 5.61 38.625 4.545C37.56 3.48 36.165 2.88 34.68 2.88H34.665C33.18 2.88 31.785 3.465 30.735 4.515C29.67 5.565 29.085 6.975 29.085 8.46C29.07 11.535 31.575 14.055 34.65 14.07ZM34.65 4.53H34.665C35.715 4.53 36.72 4.95 37.47 5.7C38.22 6.45 38.625 7.44 38.625 8.49C38.61 10.62 36.81 12.42 34.68 12.42C32.52 12.42 30.75 10.65 30.75 8.49C30.72 6.315 32.475 4.545 34.65 4.53Z" fill="#004D66"/>
<path d="M43.0498 10.74C43.6048 11.04 44.2198 11.235 44.7898 11.52C45.0298 11.64 45.2698 11.88 45.3898 12.12C45.6898 12.69 45.8698 13.305 46.1698 13.86C46.3048 14.1 46.6198 14.355 46.8598 14.37C47.0698 14.385 47.3548 14.1 47.5048 13.875C47.6998 13.605 47.8198 13.275 47.9098 12.96C48.1798 12.03 48.7348 11.415 49.6948 11.16C50.0548 11.07 50.3998 10.905 50.7148 10.71C50.9248 10.575 51.0748 10.35 51.3598 10.05C51.0598 9.78002 50.8648 9.46502 50.6098 9.40502C48.9748 8.97002 47.9548 7.96502 47.5198 6.31502C47.4598 6.07502 47.0848 5.77502 46.8598 5.77502C46.6348 5.77502 46.2448 6.06002 46.1848 6.30002C45.7348 7.96502 44.7148 8.98502 43.0498 9.42002C42.8248 9.48002 42.5398 9.84002 42.5548 10.05C42.5548 10.29 42.8098 10.605 43.0498 10.74ZM46.8298 8.17502C47.1448 9.16502 47.7148 9.82502 48.7498 10.08C47.7148 10.35 47.0848 10.95 46.8598 12C46.5748 10.965 45.9598 10.335 44.9248 10.065C45.9148 9.78002 46.5748 9.22502 46.8298 8.17502Z" fill="#004D66"/>
<path d="M16.815 19.665C18.495 20.1 19.485 21.15 19.935 22.8C19.995 23.025 20.37 23.295 20.625 23.31C20.835 23.325 21.135 23.025 21.255 22.8C21.555 22.245 21.75 21.63 22.05 21.06C22.17 20.82 22.41 20.58 22.635 20.46C23.22 20.16 23.85 19.95 24.42 19.65C24.645 19.53 24.885 19.23 24.9 18.99C24.915 18.795 24.675 18.48 24.465 18.36C23.745 17.985 22.845 17.85 22.305 17.325C21.765 16.785 21.6 15.87 21.225 15.135C21.12 14.91 20.865 14.76 20.58 14.49C20.31 14.775 19.995 14.94 19.935 15.165C19.5 16.86 18.465 17.88 16.785 18.345C16.56 18.405 16.29 18.765 16.29 18.975C16.32 19.23 16.59 19.62 16.815 19.665ZM20.595 17.1C20.895 18.075 21.45 18.735 22.485 19.005C21.48 19.29 20.895 19.92 20.61 20.925C20.31 19.95 19.8 19.245 18.705 19.035C19.71 18.72 20.34 18.12 20.595 17.1Z" fill="#004D66"/>
</svg>
