<svg width="60" height="60" viewBox="0 0 60 60" fill="none" xmlns="http://www.w3.org/2000/svg">
<path d="M30.0002 39.09C35.0204 39.09 39.0902 35.0202 39.0902 30C39.0902 24.9797 35.0204 20.91 30.0002 20.91C24.9799 20.91 20.9102 24.9797 20.9102 30C20.9102 35.0202 24.9799 39.09 30.0002 39.09Z" fill="#FFD5D4"/>
<path d="M12.8398 14.46C16.6348 10.32 21.3298 7.76998 26.8948 7.01998C34.1698 6.02998 40.5448 8.11498 45.9448 12.855C46.4098 12.45 46.8298 12.06 47.2498 11.685C37.4698 2.45998 21.2398 2.41498 11.4598 13.275C1.84483 23.94 3.68983 39.075 11.7448 47.25C12.1348 46.845 12.5248 46.455 12.9298 46.02C4.40983 36.75 5.09983 22.905 12.8398 14.46Z" fill="#F0E2B4"/>
<path d="M30.1802 31.935C31.1552 31.935 31.9652 31.11 31.9652 30.135C31.9652 29.145 31.1552 28.35 30.1802 28.335C29.1752 28.335 28.3502 29.16 28.3802 30.165C28.3802 31.155 29.1902 31.95 30.1802 31.935Z" fill="white"/>
<path d="M49.4399 25.635C48.7349 25.635 48.5249 25.44 48.2699 24.81C47.7749 23.565 47.2649 22.32 46.7249 21.075C46.4549 20.445 46.4699 20.16 46.9649 19.665C48.2099 18.42 49.4549 17.175 50.6999 15.93C50.8349 15.795 50.9699 15.645 51.0599 15.54C50.2049 14.685 49.3799 13.86 48.6149 13.095C45.6899 16.02 42.7349 18.975 39.7649 21.945C44.1599 27.225 43.3949 34.365 39.3299 38.745C35.3699 43.005 27.6899 44.58 21.9899 39.795C19.0199 42.765 16.0649 45.72 13.1699 48.615C13.9199 49.365 14.7449 50.19 15.5699 51.03C15.6599 50.94 15.7949 50.82 15.9299 50.685C17.1749 49.44 18.4199 48.195 19.6649 46.95C20.1749 46.44 20.4449 46.425 21.1199 46.725C22.3049 47.25 23.4899 47.745 24.6899 48.21C25.4699 48.51 25.6199 48.66 25.6349 49.515C25.6349 51.42 25.6349 53.34 25.6349 55.29C28.6649 55.29 31.6349 55.29 34.6349 55.29C34.6349 53.295 34.6349 51.36 34.6349 49.41C34.6349 48.72 34.8449 48.495 35.4599 48.255C36.6899 47.775 37.9199 47.265 39.1349 46.74C39.8099 46.455 40.0799 46.455 40.5899 46.965C41.8349 48.21 43.0799 49.455 44.3249 50.7C44.4599 50.835 44.6099 50.97 44.6999 51.045C46.8449 48.915 48.9299 46.83 51.0449 44.715C50.9549 44.625 50.8499 44.505 50.7449 44.385C49.4849 43.125 48.2249 41.865 46.9649 40.605C46.4549 40.08 46.4399 39.81 46.7249 39.15C47.2499 37.935 47.7599 36.705 48.2399 35.475C48.4949 34.83 48.7049 34.635 49.3949 34.635C50.3699 34.635 51.3449 34.635 52.3199 34.635C53.3099 34.635 54.2999 34.635 55.2899 34.635C55.2899 31.605 55.2899 28.635 55.2899 25.635C53.3399 25.635 51.3899 25.65 49.4399 25.635ZM31.0199 53.505C30.4649 53.505 29.8949 53.505 29.3099 53.505C29.3099 52.92 29.3099 52.335 29.3099 51.75C29.8949 51.75 30.4349 51.75 31.0199 51.75C31.0199 52.335 31.0199 52.905 31.0199 53.505ZM47.3099 46.05C46.8899 46.47 46.4849 46.86 46.0799 47.25C45.7049 46.83 45.3299 46.41 44.9249 45.96C45.2549 45.66 45.6899 45.27 46.0499 44.925C46.4699 45.3 46.8899 45.675 47.3099 46.05ZM53.5349 31.005C52.9799 31.005 52.4099 31.005 51.7949 31.005C51.7949 30.45 51.7949 29.88 51.7949 29.28C52.3949 29.28 52.9499 29.28 53.5349 29.28C53.5349 29.85 53.5349 30.405 53.5349 31.005Z" fill="white"/>
<path d="M55.95 23.835C53.94 23.835 51.945 23.835 49.935 23.835C49.515 22.86 49.155 21.945 48.735 21.045C48.585 20.73 48.645 20.55 48.87 20.325C50.22 18.99 51.555 17.655 52.89 16.305C53.49 15.705 53.49 15.285 52.875 14.67C51.585 13.365 50.28 12.06 48.975 10.77C40.62 2.47498 27.735 0.584983 17.31 6.11998C2.56501 13.95 -1.63499 33.27 8.64001 46.44C10.44 48.75 12.66 50.73 14.685 52.86C15.3 53.505 15.72 53.49 16.35 52.86C17.685 51.54 19.005 50.22 20.325 48.885C20.58 48.63 20.775 48.615 21.09 48.765C21.84 49.11 22.59 49.44 23.37 49.71C23.73 49.83 23.865 49.98 23.85 50.37C23.82 52.23 23.835 54.075 23.835 55.935C23.835 56.88 24.12 57.165 25.08 57.165C28.44 57.165 31.785 57.165 35.145 57.165C36.165 57.165 36.42 56.895 36.435 55.86C36.435 53.88 36.435 51.885 36.435 49.95C37.38 49.545 38.28 49.2 39.165 48.78C39.51 48.615 39.705 48.63 39.975 48.915C41.265 50.25 42.585 51.54 43.905 52.86C44.565 53.52 44.955 53.52 45.615 52.875C48.015 50.475 50.415 48.075 52.815 45.675C53.475 45.015 53.475 44.61 52.83 43.965C51.51 42.63 50.19 41.31 48.855 39.99C48.63 39.765 48.57 39.585 48.72 39.27C49.08 38.49 49.41 37.695 49.71 36.885C49.83 36.57 49.965 36.465 50.31 36.465C52.185 36.48 54.06 36.48 55.935 36.465C56.85 36.465 57.15 36.18 57.15 35.265C57.15 31.875 57.15 28.485 57.15 25.08C57.165 24.135 56.865 23.85 55.95 23.835ZM11.745 47.235C3.69001 39.06 1.84501 23.925 11.46 13.26C21.24 2.41498 37.47 2.44498 47.265 11.67C46.845 12.045 46.41 12.435 45.96 12.84C40.56 8.09998 34.185 6.02998 26.91 7.00498C21.345 7.75498 16.65 10.305 12.855 14.445C5.10001 22.905 4.41001 36.75 12.93 46.02C12.51 46.44 12.12 46.845 11.745 47.235ZM37.995 22.725C40.875 25.995 41.685 29.73 40.2 33.81C38.715 37.875 35.655 40.215 31.38 40.785C28.14 41.22 25.26 40.245 22.83 38.055C22.02 37.335 21.705 37.335 20.94 38.085C18.87 40.155 16.8 42.225 14.745 44.295C14.595 44.445 14.505 44.625 14.355 44.835C6.58501 36.435 6.55501 23.235 14.865 14.895C23.22 6.50998 36.465 6.56998 44.76 14.25C44.61 14.4 44.46 14.565 44.31 14.715C42.21 16.815 40.125 18.9 38.025 21C37.38 21.645 37.38 22.035 37.995 22.725ZM55.32 34.635C54.315 34.635 53.325 34.635 52.35 34.635C51.375 34.635 50.4 34.635 49.425 34.635C48.735 34.635 48.525 34.83 48.27 35.475C47.79 36.705 47.28 37.935 46.755 39.15C46.47 39.81 46.47 40.08 46.995 40.605C48.255 41.865 49.515 43.125 50.775 44.385C50.895 44.505 51 44.625 51.075 44.715C48.96 46.83 46.86 48.915 44.73 51.045C44.655 50.97 44.505 50.835 44.355 50.7C43.11 49.455 41.865 48.21 40.62 46.965C40.11 46.455 39.84 46.455 39.165 46.74C37.95 47.265 36.72 47.775 35.49 48.255C34.86 48.495 34.665 48.72 34.665 49.41C34.665 51.36 34.665 53.31 34.665 55.29C31.665 55.29 28.695 55.29 25.665 55.29C25.665 53.34 25.665 51.435 25.665 49.515C25.665 48.675 25.515 48.51 24.72 48.21C23.52 47.745 22.335 47.25 21.15 46.725C20.475 46.425 20.205 46.44 19.695 46.95C18.45 48.195 17.205 49.44 15.96 50.685C15.825 50.82 15.69 50.94 15.6 51.03C14.76 50.19 13.95 49.365 13.2 48.615C16.095 45.72 19.05 42.765 22.02 39.795C27.72 44.58 35.4 43.02 39.36 38.745C43.425 34.365 44.175 27.24 39.795 21.945C42.765 18.975 45.72 16.02 48.645 13.095C49.41 13.86 50.235 14.685 51.09 15.54C51 15.63 50.865 15.78 50.73 15.93C49.485 17.175 48.24 18.42 46.995 19.665C46.5 20.16 46.485 20.445 46.755 21.075C47.295 22.305 47.805 23.55 48.3 24.81C48.54 25.44 48.765 25.635 49.47 25.635C51.42 25.635 53.37 25.635 55.35 25.635C55.32 28.65 55.32 31.62 55.32 34.635Z" fill="#004D66"/>
<path d="M26.8801 31.545C27.4801 33.03 29.0401 33.915 30.5851 33.72C32.2351 33.51 33.4951 32.25 33.7351 30.6C33.9601 29.055 33.0451 27.45 31.5451 26.865C31.1251 26.7 31.0501 26.49 31.0501 26.085C31.0651 23.025 31.0651 19.98 31.0651 16.92C31.0651 16.17 30.7351 15.75 30.1501 15.75C29.5801 15.75 29.2651 16.17 29.2651 16.935C29.2651 18.45 29.2651 19.965 29.2651 21.495C29.2651 23.07 29.2651 24.645 29.2651 26.22C29.2651 26.535 29.1901 26.7 28.8601 26.835C27.9001 27.195 27.2101 27.87 26.8501 28.83C26.7151 29.175 26.5501 29.265 26.2051 29.265C24.3451 29.25 22.5001 29.25 20.6401 29.25C19.7851 29.25 19.3501 29.565 19.3651 30.165C19.3801 30.75 19.8001 31.05 20.6101 31.05C22.4251 31.05 24.2401 31.065 26.0701 31.035C26.4901 31.035 26.7151 31.11 26.8801 31.545ZM30.1651 28.35C31.1551 28.35 31.9501 29.16 31.9501 30.15C31.9501 31.125 31.1401 31.95 30.1651 31.95C29.1751 31.95 28.3651 31.17 28.3501 30.18C28.3501 29.175 29.1601 28.335 30.1651 28.35Z" fill="#004D66"/>
<path d="M35.6251 23.58C35.3851 23.625 35.0401 23.97 35.0251 24.21C35.0101 24.525 35.1751 24.945 35.4001 25.185C36.6901 26.61 37.3801 28.26 37.4401 30.18C37.3501 30.765 37.3051 31.38 37.1701 31.95C35.7901 37.29 29.2951 39.165 25.2301 35.385C24.6751 34.875 24.1501 34.815 23.7601 35.235C23.3551 35.655 23.4301 36.165 24.0001 36.69C25.6201 38.205 27.5551 39.045 29.7751 39.12C35.5201 39.3 39.8851 34.365 39.0151 28.68C38.7301 26.82 37.9051 25.185 36.5551 23.865C36.3601 23.655 35.9251 23.535 35.6251 23.58Z" fill="#004D66"/>
<path d="M30.1352 13.035C30.6152 13.05 31.0202 12.69 31.0502 12.165C31.0652 11.865 31.0502 11.565 31.0502 11.265C31.0502 10.95 31.0652 10.62 31.0502 10.305C31.0202 9.79496 30.6452 9.44996 30.1802 9.43496C29.6852 9.41996 29.2802 9.77996 29.2652 10.305C29.2352 10.92 29.2352 11.55 29.2652 12.165C29.2952 12.675 29.6702 13.02 30.1352 13.035Z" fill="#004D66"/>
<path d="M13.0498 30.15C13.0498 29.685 12.7198 29.28 12.2248 29.25C11.5948 29.22 10.9498 29.22 10.3198 29.25C9.82481 29.265 9.47981 29.655 9.46481 30.12C9.44981 30.615 9.80981 30.99 10.3498 31.02C10.6498 31.035 10.9498 31.02 11.2498 31.02C11.5648 31.02 11.8948 31.035 12.2098 31.02C12.7048 30.99 13.0498 30.615 13.0498 30.15Z" fill="#004D66"/>
<path d="M14.9851 20.355C14.4901 20.055 13.9951 19.77 13.4851 19.485C13.3351 19.41 13.1701 19.38 12.8551 19.275C12.6451 19.5 12.3151 19.71 12.1801 20.01C12.0001 20.4 12.1651 20.79 12.5551 21.03C13.0651 21.345 13.5751 21.645 14.1151 21.93C14.5951 22.185 15.0901 22.05 15.3451 21.63C15.5851 21.18 15.4651 20.64 14.9851 20.355Z" fill="#004D66"/>
<path d="M20.5051 15.105C20.6851 15.315 21.1951 15.42 21.4951 15.345C21.7651 15.27 21.9451 14.88 22.2301 14.55C21.6901 13.725 21.2551 12.96 20.7001 12.27C20.5801 12.12 20.0101 12.18 19.7401 12.315C19.3801 12.48 19.2451 12.915 19.4251 13.29C19.7401 13.92 20.0701 14.565 20.5051 15.105Z" fill="#004D66"/>
<path d="M38.7 15.315C39.12 15.585 39.66 15.45 39.96 14.97C40.275 14.475 40.545 13.98 40.83 13.47C40.905 13.32 40.935 13.155 41.04 12.84C40.815 12.63 40.62 12.3 40.32 12.165C39.93 11.985 39.54 12.15 39.3 12.525C38.985 13.035 38.685 13.545 38.4 14.07C38.145 14.565 38.28 15.045 38.7 15.315Z" fill="#004D66"/>
<path d="M14.2648 38.31C13.6498 38.625 13.0498 38.97 12.4798 39.345C12.1198 39.57 12.0298 39.99 12.1948 40.335C12.3298 40.62 12.6448 40.8 12.8998 41.04C13.8598 40.605 14.7448 40.275 15.3448 39.54C15.4948 39.36 15.4048 38.85 15.2548 38.58C15.0598 38.235 14.6398 38.13 14.2648 38.31Z" fill="#004D66"/>
<path d="M44.9248 45.96C45.3298 46.41 45.7048 46.83 46.0798 47.25C46.4848 46.86 46.8898 46.47 47.3098 46.05C46.8748 45.66 46.4698 45.3 46.0498 44.925C45.6898 45.27 45.2548 45.66 44.9248 45.96Z" fill="#004D66"/>
<path d="M51.7949 31.005C52.3949 31.005 52.9649 31.005 53.5349 31.005C53.5349 30.405 53.5349 29.85 53.5349 29.28C52.9499 29.28 52.3949 29.28 51.7949 29.28C51.7949 29.88 51.7949 30.435 51.7949 31.005Z" fill="#004D66"/>
<path d="M29.3101 53.505C29.8951 53.505 30.4651 53.505 31.0201 53.505C31.0201 52.905 31.0201 52.335 31.0201 51.75C30.4351 51.75 29.8951 51.75 29.3101 51.75C29.3101 52.335 29.3101 52.92 29.3101 53.505Z" fill="#004D66"/>
</svg>
