<svg viewBox="0 0 50 50" fill="none" xmlns="http://www.w3.org/2000/svg" class="size-[50px] shrink-0 text-black-L2">
    <path fill-rule="evenodd" clip-rule="evenodd" d="M24.8293 5.57657C24.5788 6.07754 24.408 6.82808 24.408 7.73187C24.408 8.64237 24.5814 9.16338 24.7804 9.44188C24.9561 9.68796 25.1858 9.79448 25.5 9.79448C25.8142 9.79448 26.0439 9.68796 26.2197 9.44188C26.4186 9.16338 26.592 8.64237 26.592 7.73187C26.592 6.95936 26.4247 6.20127 26.1656 5.65709C25.882 5.06151 25.6088 4.94128 25.5 4.94128C25.3548 4.94128 25.0909 5.05344 24.8293 5.57657ZM23.7441 5.03397C24.0892 4.3438 24.6745 3.72798 25.5 3.72798C26.3618 3.72798 26.938 4.45706 27.261 5.13545C27.6085 5.86524 27.8053 6.80577 27.8053 7.73187C27.8053 8.76266 27.6147 9.57628 27.207 10.1471C26.7761 10.7503 26.1565 11.0078 25.5 11.0078C24.8435 11.0078 24.2239 10.7503 23.7931 10.1471C23.3853 9.57628 23.1947 8.76266 23.1947 7.73187C23.1947 6.69438 23.3879 5.7463 23.7441 5.03397Z" fill="currentColor"></path>
    <path fill-rule="evenodd" clip-rule="evenodd" d="M25.5 11.2504C23.6134 11.2504 21.9709 11.4857 20.3281 11.9551C20.006 12.0471 19.6702 11.8606 19.5782 11.5384C19.4861 11.2163 19.6727 10.8805 19.9948 10.7885C21.7493 10.2872 23.5041 10.0371 25.5 10.0371C35.2988 10.0371 43.0929 17.8312 43.0929 27.63V38.7924C43.0929 39.3846 43.2906 39.8873 43.4983 40.2507C43.6013 40.4311 43.704 40.5719 43.7789 40.6656C43.8162 40.7122 43.8462 40.7466 43.8653 40.7678L43.8853 40.7893C43.8853 40.7893 43.8858 40.79 43.4569 41.219C43.0279 41.6479 43.0276 41.6476 43.0276 41.6476L43.0246 41.6447L43.02 41.64L43.0066 41.6261C42.996 41.6149 42.9819 41.5999 42.9649 41.5811C42.931 41.5435 42.8852 41.4906 42.8315 41.4235C42.7244 41.2897 42.5844 41.0969 42.4448 40.8526C42.402 40.7778 42.359 40.6976 42.3169 40.6123C42.0853 40.1441 41.8796 39.5231 41.8796 38.7924V27.63C41.8796 18.5013 34.6287 11.2504 25.5 11.2504ZM42.3169 40.6123H8.68314H42.3169ZM8.68314 40.6123C8.91466 40.1441 9.12044 39.5231 9.12044 38.7924V27.63C9.12044 22.9561 11.2261 18.5035 14.5078 15.4562C14.7533 15.2282 14.7675 14.8444 14.5395 14.5989C14.3115 14.3534 13.9277 14.3391 13.6822 14.5671C10.1693 17.829 7.90714 22.5975 7.90714 27.63V38.7924C7.90714 39.3846 7.70937 39.8873 7.50175 40.2507C7.39866 40.4311 7.29603 40.5719 7.2211 40.6656C7.18378 40.7122 7.15378 40.7466 7.13466 40.7678L7.11475 40.7893" fill="currentColor"></path>
    <path fill-rule="evenodd" clip-rule="evenodd" d="M35.7481 20.1639C35.985 19.927 36.3691 19.927 36.606 20.1639L36.8487 20.4066C37.0856 20.6435 37.0856 21.0276 36.8487 21.2645C36.6118 21.5014 36.2277 21.5014 35.9907 21.2645L35.7481 21.0218C35.5112 20.7849 35.5112 20.4008 35.7481 20.1639Z" fill="currentColor"></path>
    <path fill-rule="evenodd" clip-rule="evenodd" d="M4.55495 42.7804C4.65504 43.1047 4.75256 43.4927 4.75256 43.8882C4.75256 44.1241 4.97279 44.7519 5.75619 45.3462C6.51289 45.9203 7.77315 46.4362 9.72709 46.4362H41.2729C45.2582 46.4362 46.2474 44.6001 46.2474 43.8882C46.2474 43.4927 46.345 43.1047 46.445 42.7804C46.4934 42.6236 46.5461 42.4707 46.5933 42.3336L46.6004 42.313C46.6509 42.1662 46.6937 42.0409 46.7271 41.9274C46.7381 41.89 46.7474 41.8561 46.7551 41.8256H4.24492C4.25262 41.8561 4.26189 41.89 4.27292 41.9274C4.30629 42.0409 4.34908 42.1662 4.3996 42.313C4.40195 42.3198 4.4043 42.3267 4.40667 42.3335C4.45389 42.4707 4.50656 42.6236 4.55495 42.7804ZM3.52255 40.7432C3.72254 40.6415 3.9423 40.6123 4.14591 40.6123H46.8541C47.0577 40.6123 47.2775 40.6415 47.4774 40.7432C47.6971 40.8549 47.8545 41.0352 47.9357 41.257C48.0091 41.4576 48.0073 41.6566 47.9902 41.8106C47.9727 41.9685 47.9331 42.1268 47.8911 42.2698C47.8486 42.4142 47.7966 42.5656 47.7476 42.708L47.7425 42.7228C47.6938 42.8643 47.6469 43.0006 47.6044 43.1382C47.5149 43.4282 47.4607 43.6771 47.4607 43.8882C47.4607 45.6029 45.5381 47.6495 41.2729 47.6495H9.72709C7.5558 47.6495 6.02547 47.0734 5.02289 46.3128C4.047 45.5725 3.53926 44.6231 3.53926 43.8882C3.53926 43.6771 3.48511 43.4282 3.39562 43.1382C3.35315 43.0006 3.30623 42.8644 3.25754 42.7229L3.25238 42.708C3.20338 42.5656 3.15138 42.4142 3.10892 42.2698C3.06687 42.1268 3.02732 41.9685 3.00978 41.8106C2.99266 41.6566 2.99092 41.4576 3.06433 41.257C3.14547 41.0352 3.30292 40.8549 3.52255 40.7432Z" fill="currentColor"></path>
    <path fill-rule="evenodd" clip-rule="evenodd" d="M12.639 4.45596C12.9741 4.45596 13.2457 4.72757 13.2457 5.06261C13.2457 5.41626 13.1545 5.70852 13.004 5.95308C12.8618 6.18422 12.6801 6.34843 12.5532 6.45947C12.2718 6.70568 12.2729 6.72301 12.2747 6.75321L12.275 6.76123C12.275 6.8929 12.3052 6.96464 12.3367 7.01582C12.3764 7.08042 12.4374 7.14371 12.5532 7.24499C12.5686 7.25852 12.5866 7.27359 12.6064 7.29026C12.8176 7.46796 13.2457 7.82808 13.2457 8.45985C13.2457 9.04537 12.8716 9.45339 12.6637 9.68025C12.643 9.7028 12.624 9.72356 12.6071 9.74253C12.3784 9.99979 12.275 10.1555 12.275 10.4011C12.275 10.7362 12.0034 11.0078 11.6684 11.0078C11.3333 11.0078 11.0617 10.7362 11.0617 10.4011C11.0617 9.67617 11.4436 9.22519 11.7003 8.93646C11.9991 8.60024 12.0324 8.5441 12.0324 8.45985L12.0327 8.45184C12.0345 8.42163 12.0356 8.4043 11.7542 8.15809C11.6273 8.04705 11.4456 7.88284 11.3034 7.6517C11.1529 7.40714 11.0617 7.11488 11.0617 6.76123C11.0617 6.12946 11.4898 5.76934 11.701 5.59164C11.7208 5.57497 11.7387 5.5599 11.7542 5.54637C11.87 5.44508 11.9309 5.3818 11.9707 5.31719C12.0022 5.26602 12.0324 5.19428 12.0324 5.06261C12.0324 4.72757 12.304 4.45596 12.639 4.45596Z" fill="currentColor"></path>
    <path fill-rule="evenodd" clip-rule="evenodd" d="M38.361 3C38.696 3 38.9676 3.27161 38.9676 3.60665C38.9676 4.34404 38.5697 4.74155 38.3194 4.99152C38.3144 4.99649 38.3095 5.0014 38.3046 5.00626C38.0683 5.24255 37.997 5.32935 37.997 5.54793C37.997 5.76652 38.0683 5.85332 38.3046 6.08961C38.3095 6.09446 38.3144 6.09938 38.3194 6.10435C38.5697 6.35432 38.9676 6.75182 38.9676 7.48921C38.9676 8.2266 38.5697 8.62411 38.3194 8.87408C38.3144 8.87905 38.3095 8.88396 38.3046 8.88882C38.0683 9.12511 37.997 9.21191 37.997 9.43049C37.997 9.64908 38.0683 9.73588 38.3046 9.97217C38.3095 9.97702 38.3144 9.98194 38.3194 9.98691C38.5697 10.2369 38.9676 10.6344 38.9676 11.3718C38.9676 11.7068 38.696 11.9784 38.361 11.9784C38.0259 11.9784 37.7543 11.7068 37.7543 11.3718C37.7543 11.1532 37.683 11.0664 37.4467 10.8301C37.4418 10.8252 37.4369 10.8203 37.4319 10.8154C37.1817 10.5654 36.7837 10.1679 36.7837 9.43049C36.7837 8.6931 37.1817 8.2956 37.4319 8.04563C37.4369 8.04066 37.4418 8.03574 37.4467 8.03089C37.683 7.7946 37.7543 7.7078 37.7543 7.48921C37.7543 7.27063 37.683 7.18383 37.4467 6.94754C37.4418 6.94268 37.4369 6.93777 37.4319 6.9328C37.1817 6.68283 36.7837 6.28532 36.7837 5.54793C36.7837 4.81054 37.1817 4.41304 37.4319 4.16307C37.4369 4.15809 37.4418 4.15318 37.4467 4.14832C37.683 3.91204 37.7543 3.82524 37.7543 3.60665C37.7543 3.27161 38.0259 3 38.361 3Z" fill="currentColor"></path>
    <path fill-rule="evenodd" clip-rule="evenodd" d="M16.5216 9.30916C16.8566 9.30916 17.1282 9.58077 17.1282 9.91581C17.1282 10.1402 17.2 10.2209 17.4583 10.5115L17.4603 10.5138C17.5864 10.6557 17.7557 10.8515 17.8854 11.1163C18.0194 11.3899 18.0989 11.7094 18.0989 12.0998C18.0989 12.8371 17.7009 13.2347 17.4506 13.4846C17.4456 13.4896 17.4407 13.4945 17.4359 13.4994C17.1996 13.7357 17.1282 13.8225 17.1282 14.041C17.1282 14.2596 17.1996 14.3464 17.4359 14.5827C17.4407 14.5876 17.4456 14.5925 17.4506 14.5975C17.7009 14.8474 18.0989 15.2449 18.0989 15.9823C18.0989 16.7197 17.7009 17.1172 17.4506 17.3672C17.4456 17.3722 17.4407 17.3771 17.4359 17.3819C17.1996 17.6182 17.1282 17.705 17.1282 17.9236C17.1282 18.2586 16.8566 18.5303 16.5216 18.5303C16.1865 18.5303 15.9149 18.2586 15.9149 17.9236C15.9149 17.1862 16.3129 16.7887 16.5632 16.5387C16.5682 16.5338 16.5731 16.5288 16.5779 16.524C16.8142 16.2877 16.8856 16.2009 16.8856 15.9823C16.8856 15.7637 16.8142 15.6769 16.5779 15.4406C16.5731 15.4358 16.5682 15.4309 16.5632 15.4259C16.3129 15.1759 15.9149 14.7784 15.9149 14.041C15.9149 13.3036 16.3129 12.9061 16.5632 12.6562C16.5682 12.6512 16.5731 12.6463 16.5779 12.6414C16.8142 12.4051 16.8856 12.3183 16.8856 12.0998C16.8856 11.8835 16.8437 11.7479 16.7957 11.65C16.7434 11.5432 16.67 11.4509 16.5535 11.3198C16.5385 11.303 16.5227 11.2854 16.5062 11.2672C16.275 11.0109 15.9149 10.6119 15.9149 9.91581C15.9149 9.58077 16.1865 9.30916 16.5216 9.30916Z" fill="currentColor"></path>
</svg>