<svg viewBox="0 0 50 50" fill="none" xmlns="http://www.w3.org/2000/svg" class="size-[50px] shrink-0 text-black-L2">
    <path fill-rule="evenodd" clip-rule="evenodd" d="M39.1736 9.22205C30.7767 2.26461 18.3127 2.51217 10.4085 10.4164C3.22167 17.6032 2.25931 28.6233 7.77497 37.0167C7.96197 37.3012 7.88288 37.6835 7.59831 37.8705C7.31374 38.0575 6.93146 37.9784 6.74446 37.6938C0.915581 28.8238 1.92618 17.1548 9.53657 9.54443C17.9093 1.17167 31.0938 0.92599 39.9604 8.27253C40.2225 8.48979 40.259 8.87846 40.0417 9.14066C39.8245 9.40286 39.4358 9.4393 39.1736 9.22205Z" fill="currentColor"></path>
    <path fill-rule="evenodd" clip-rule="evenodd" d="M43.4141 12.9224C43.6961 12.7316 44.0794 12.8056 44.2702 13.0876C50.1077 21.717 49.0914 33.6386 41.2325 41.2475C32.8636 49.6127 19.683 49.8646 11.0603 42.7636C10.7975 42.5471 10.7599 42.1586 10.9763 41.8957C11.1928 41.6329 11.5814 41.5953 11.8442 41.8117C19.9905 48.5204 32.4559 48.2802 40.3641 40.372L40.3713 40.3648C47.7994 33.1763 48.755 21.9181 43.2488 13.7785C43.0581 13.4965 43.132 13.1132 43.4141 12.9224Z" fill="currentColor"></path>
    <path d="M41.0467 8.74729C41.2933 8.74729 41.7866 8.99391 42.0332 8.99391C42.2798 9.24053 42.2798 9.48715 42.2798 9.73377C42.2798 9.98039 42.0332 10.4736 41.7866 10.7203C41.5399 10.9669 41.2933 10.9669 40.8001 10.9669C40.3068 10.9669 40.3068 10.9669 40.0602 10.7203C39.8136 10.4736 39.8136 10.227 39.8136 9.98039C39.8136 9.73377 40.0602 9.24053 40.0602 9.24053C40.3068 8.74729 40.5535 8.74729 41.0467 8.74729ZM41.0467 7.51419C40.3068 7.51419 39.8136 7.76081 39.3204 8.25405C38.3339 9.24053 38.3339 10.7203 39.3204 11.7067C39.8136 12.2 40.5535 12.4466 41.0467 12.4466C41.5399 12.4466 42.2798 12.2 42.773 11.7067C43.7595 10.7203 43.7595 9.24053 42.773 8.25405C42.2798 7.76081 41.5399 7.51419 41.0467 7.51419Z" fill="currentColor"></path>
    <path d="M9.97254 39.5748C10.2192 39.5748 10.7124 39.8215 10.959 39.8215C11.2056 40.0681 11.2056 40.3147 11.2056 40.5613C11.2056 40.8079 10.959 41.3012 10.959 41.3012C10.7124 41.5478 10.4658 41.5478 9.97254 41.5478C9.72592 41.5478 9.23268 41.3012 8.98606 41.3012C8.73944 41.0546 8.73944 40.8079 8.73944 40.5613C8.73944 40.3147 8.98606 39.8215 8.98606 39.8215C9.4793 39.5748 9.72592 39.5748 9.97254 39.5748ZM9.97254 38.3417C9.23268 38.3417 8.73944 38.5884 8.2462 39.0816C7.25971 40.0681 7.25971 41.5478 8.2462 42.5343C8.73944 43.0275 9.4793 43.2741 9.97254 43.2741C10.4658 43.2741 11.2056 43.0275 11.6989 42.5343C12.6854 41.5478 12.6854 40.0681 11.6989 39.0816C11.2056 38.3417 10.7124 38.3417 9.97254 38.3417Z" fill="currentColor"></path>
    <path d="M25.5096 12.9398C32.415 12.9398 37.8406 18.6121 37.8406 25.2709C37.8406 31.9296 32.1684 37.6019 25.5096 37.6019C18.6042 37.6019 13.1786 31.9296 13.1786 25.2709C13.1786 18.6121 18.6042 12.9398 25.5096 12.9398ZM25.5096 11.7067C17.8644 11.7067 11.9455 17.8722 11.9455 25.2709C11.9455 32.6695 18.111 38.835 25.5096 38.835C32.9082 38.835 39.0737 32.6695 39.0737 25.2709C39.0737 17.8722 33.1549 11.7067 25.5096 11.7067Z" fill="currentColor"></path>
    <path d="M25.5096 12.9398C28.2224 12.9398 31.1819 18.1189 31.1819 25.2709C31.1819 32.4228 28.2224 37.6019 25.5096 37.6019C22.7968 37.6019 19.8373 32.6695 19.8373 25.2709C19.8373 17.8722 22.7968 12.9398 25.5096 12.9398ZM25.5096 11.7067C21.8103 11.7067 18.6042 17.8722 18.6042 25.2709C18.6042 32.6695 21.5637 38.835 25.5096 38.835C29.4555 38.835 32.415 32.6695 32.415 25.2709C32.415 17.8722 29.2089 11.7067 25.5096 11.7067Z" fill="currentColor"></path>
    <path fill-rule="evenodd" clip-rule="evenodd" d="M25.5096 19.2287C21.7389 19.2287 18.1869 18.4762 15.6157 17.1906L16.1672 16.0877C18.5284 17.2683 21.8818 17.9956 25.5096 17.9956C29.1375 17.9956 32.4908 17.2683 34.8521 16.0877L35.4035 17.1906C32.8324 18.4762 29.2804 19.2287 25.5096 19.2287Z" fill="currentColor"></path>
    <path fill-rule="evenodd" clip-rule="evenodd" d="M15.6157 33.3511C18.1869 32.0655 21.7389 31.3131 25.5096 31.3131C29.2804 31.3131 32.8324 32.0655 35.4035 33.3511L34.8521 34.454C32.4908 33.2734 29.1375 32.5462 25.5096 32.5462C21.8818 32.5462 18.5284 33.2734 16.1672 34.454L15.6157 33.3511Z" fill="currentColor"></path>
    <path fill-rule="evenodd" clip-rule="evenodd" d="M38.5805 25.6408H12.4387V24.4077H38.5805V25.6408Z" fill="currentColor"></path>
</svg>