<svg viewBox="0 0 50 50" fill="none" xmlns="http://www.w3.org/2000/svg" class="size-[50px] shrink-0 text-black-L2">
    <path fill-rule="evenodd" clip-rule="evenodd" d="M6.28378 39C5.16017 39 4.21622 39.944 4.21622 41.0676V45.0811H46.7838V41.0676C46.7838 39.944 45.8398 39 44.7162 39H34.5C34.1642 39 33.8919 38.7277 33.8919 38.3919C33.8919 38.056 34.1642 37.7838 34.5 37.7838H44.7162C46.5115 37.7838 48 39.2723 48 41.0676V45.6892C48 46.025 47.7277 46.2973 47.3919 46.2973H3.60811C3.27226 46.2973 3 46.025 3 45.6892V41.0676C3 39.2723 4.48848 37.7838 6.28378 37.7838H16.5C16.8358 37.7838 17.1081 38.056 17.1081 38.3919C17.1081 38.7277 16.8358 39 16.5 39H6.28378Z" fill="currentColor"></path>
    <path fill-rule="evenodd" clip-rule="evenodd" d="M25.5 4.21622C15.4842 4.21622 7.37838 12.2281 7.37838 22.0946C7.37838 31.9611 15.4842 39.973 25.5 39.973C35.5158 39.973 43.6216 31.9611 43.6216 22.0946C43.6216 12.2281 35.5158 4.21622 25.5 4.21622ZM6.16216 22.0946C6.16216 11.5415 14.8275 3 25.5 3C36.1725 3 44.8378 11.5415 44.8378 22.0946C44.8378 32.6477 36.1725 41.1892 25.5 41.1892C14.8275 41.1892 6.16216 32.6477 6.16216 22.0946Z" fill="currentColor"></path>
    <path fill-rule="evenodd" clip-rule="evenodd" d="M37.2322 11.6916C37.4696 11.4541 37.8547 11.4541 38.0922 11.6916C38.1897 11.7891 38.2601 11.8842 38.3126 11.9629C38.3307 11.9901 38.3471 12.016 38.3608 12.038C38.592 12.1241 38.7568 12.3469 38.7568 12.6081C38.7568 12.944 38.4845 13.2162 38.1486 13.2162C37.9752 13.2162 37.8052 13.1693 37.6555 13.0645C37.5228 12.9716 37.4418 12.8569 37.3994 12.7934C37.3608 12.7354 37.3367 12.6962 37.3185 12.6665C37.2871 12.6153 37.2732 12.5927 37.2322 12.5516C36.9947 12.3141 36.9947 11.9291 37.2322 11.6916ZM38.418 12.1281L38.4157 12.1251L38.418 12.1281Z" fill="currentColor"></path>
    <path fill-rule="evenodd" clip-rule="evenodd" d="M24.3742 14.8482C24.4804 15.1669 24.3082 15.5112 23.9896 15.6174C22.0466 16.2651 20.7568 17.9802 20.7568 20.1486C20.7568 22.7317 22.9169 24.8919 25.5 24.8919C28.0831 24.8919 30.2432 22.7317 30.2432 20.1486C30.2432 17.9675 28.9389 16.2499 27.2324 15.6099C26.918 15.492 26.7586 15.1415 26.8766 14.827C26.9945 14.5126 27.345 14.3532 27.6595 14.4712C29.8448 15.2907 31.4595 17.465 31.4595 20.1486C31.4595 23.4034 28.7548 26.1081 25.5 26.1081C22.2452 26.1081 19.5405 23.4034 19.5405 20.1486C19.5405 17.4523 21.1696 15.2754 23.605 14.4636C23.9236 14.3574 24.268 14.5296 24.3742 14.8482Z" fill="currentColor"></path>
    <path fill-rule="evenodd" clip-rule="evenodd" d="M25.5 12.784C20.2712 12.784 15.9461 17.1091 15.9461 22.3378C15.9461 27.0865 19.5652 30.9676 24.3775 31.6551C24.7396 31.7068 24.9912 32.0423 24.9395 32.4045C24.8877 32.7666 24.5522 33.0182 24.1901 32.9665C18.7862 32.1945 14.6214 27.8054 14.6214 22.3378C14.6214 16.3774 19.5396 11.4593 25.5 11.4593C31.4604 11.4593 36.3786 16.3774 36.3786 22.3378C36.3786 27.7835 32.4796 32.1913 27.0531 32.9665C26.691 33.0182 26.3555 32.7666 26.3038 32.4045C26.252 32.0423 26.5037 31.7068 26.8658 31.6551C31.6555 30.9709 35.0539 27.1084 35.0539 22.3378C35.0539 17.1091 30.7288 12.784 25.5 12.784Z" fill="currentColor"></path>
    <path fill-rule="evenodd" clip-rule="evenodd" d="M7.5 41.9189C7.43283 41.9189 7.37838 41.9734 7.37838 42.0405C7.37838 42.1077 7.43283 42.1622 7.5 42.1622C7.56717 42.1622 7.62162 42.1077 7.62162 42.0405C7.62162 41.9734 7.56717 41.9189 7.5 41.9189ZM6.16216 42.0405C6.16216 41.3017 6.76113 40.7027 7.5 40.7027C8.23887 40.7027 8.83784 41.3017 8.83784 42.0405C8.83784 42.7794 8.23886 43.3784 7.5 43.3784C6.76113 43.3784 6.16216 42.7794 6.16216 42.0405Z" fill="currentColor"></path>
</svg>