<svg width="50" height="50" viewBox="0 0 50 50" fill="none" xmlns="http://www.w3.org/2000/svg">
<g clip-path="url(#clip0_8776_568)">
<path d="M13.6953 29.7188L19.6953 26.7188V32.7188L13.6953 35.7188V29.7188Z" fill="#FFCC05"/>
<path d="M30.6953 29.7188L36.6953 26.7188V32.7188L30.6953 35.7188V29.7188Z" fill="#FFCC05"/>
<path d="M15.6953 45.7188L21.6953 42.7188V48.7188H15.6953V45.7188Z" fill="#FFCC05"/>
<path d="M35.6953 45.7188L41.6953 42.7188V48.7188H35.6953V45.7188Z" fill="#FFCC05"/>
<line x1="34.1944" y1="7.16674" x2="34.4991" y2="15.948" stroke="#FFCC05" stroke-width="3"/>
<line x1="17.1944" y1="7.16674" x2="17.4991" y2="15.948" stroke="#FFCC05" stroke-width="3"/>
<path d="M16.367 5.65953V6.32477L16.1076 6.43189C15.775 6.56719 15.3014 7.03512 15.1267 7.39593C15.0195 7.62144 14.9857 7.79057 14.9688 8.28105L14.9463 8.88992H14.1908H13.4354V9.48188V10.0738H14.1964H14.9575L14.9463 12.6221L14.9293 15.1759L14.1288 15.1928L13.3226 15.2098V16.7827V18.3612H12.7306H12.1387V18.925V19.4888H12.7306H13.3226V24.2301V28.9657L13.0576 28.6613C12.4995 28.0299 11.7215 27.4661 10.9773 27.156C10.6221 27.0094 10.0133 26.8516 9.33676 26.7276C9.21273 26.705 9.20709 26.6881 9.19582 25.6733L9.1789 24.6472H8.61513H8.05137L8.03445 25.6902L8.02318 26.7332L7.39176 26.8854C5.55951 27.3308 4.03733 28.6782 3.40028 30.4259C3.02255 31.4519 3.0451 31.0235 3.02255 37.8225L3 44.0127H25.5H48L47.9774 37.8225C47.9605 32.3652 47.9493 31.5929 47.8647 31.2715C47.5321 29.9241 46.8555 28.8079 45.8971 28.0242C45.1812 27.4323 44.1777 26.9587 43.3489 26.8121L42.9768 26.7501L42.9655 25.7015L42.9486 24.6472H42.3849H41.8211L41.8042 25.6733C41.7929 26.6881 41.7873 26.705 41.6632 26.7276C40.9867 26.8516 40.3778 27.0094 40.0227 27.156C39.2785 27.4661 38.5005 28.0299 37.948 28.6613L37.6774 28.9657V24.2301V19.4888H38.2694H38.8613V18.925V18.3612H38.2694H37.6774V16.7827V15.2041H36.8881H36.0988V12.639V10.0738H36.8317H37.5646V9.48188V8.88992H36.843H36.1214L36.065 8.28105C36.0256 7.84131 35.9748 7.59889 35.8733 7.39593C35.6929 7.02385 35.2363 6.57283 34.9037 6.43189L34.633 6.32477V5.65953V4.99992H34.0693H33.5055V5.64825V6.29659L33.1842 6.46008C32.767 6.67431 32.4231 7.02948 32.2314 7.44667C32.1074 7.71728 32.0735 7.89205 32.051 8.33743L32.0228 8.88992H31.521H31.0193L31.0362 9.46496L31.0531 10.0456L31.5492 10.0626L32.0397 10.0795V12.639V15.2041H31.4196H30.7994V16.7827V18.3612H30.292H29.7846V18.925V19.4888H30.292H30.7994V20.7121V21.9412L30.6472 21.7438C30.3259 21.3154 29.39 20.4641 28.9108 20.1709C28.1553 19.6974 27.1913 19.3535 26.3344 19.2351L26.0638 19.2012V18.5529V17.9102H25.5H24.9362V18.5585C24.9362 18.9137 24.9137 19.2069 24.8855 19.2069C24.8629 19.2069 24.6262 19.2463 24.3668 19.2914C22.8503 19.5564 21.5142 20.3457 20.4712 21.5916L20.2006 21.9186V20.7065V19.4888H20.708H21.2154V18.925V18.3612H20.708H20.2006V16.7827V15.2041H19.5804H18.9603V12.639V10.0738H19.4677H19.9751V9.48188V8.88992H19.4733H18.9772L18.949 8.33743C18.9265 7.89205 18.8926 7.71728 18.7686 7.44667C18.5769 7.02948 18.233 6.67431 17.8215 6.46008L17.4945 6.29659V5.64825V4.99992H16.9307H16.367V5.65953ZM17.3254 7.49177C17.6749 7.66654 17.8327 7.98789 17.8327 8.50656V8.88992H16.9589H16.0851V8.46709C16.0851 8.01044 16.1527 7.81876 16.3782 7.61016C16.6601 7.34519 16.9589 7.30573 17.3254 7.49177ZM34.3681 7.44667C34.4696 7.48613 34.6274 7.60453 34.7176 7.70037C34.8755 7.8695 34.8867 7.9146 34.9037 8.38816L34.9262 8.88992H34.0467H33.1672V8.50656C33.1672 7.98789 33.3251 7.66654 33.6746 7.49177C33.9622 7.34519 34.1144 7.33955 34.3681 7.44667ZM17.8215 12.6221L17.8046 15.1759L16.9476 15.1928L16.0851 15.2098V12.639V10.0738H16.9589H17.8327L17.8215 12.6221ZM34.9149 12.639V15.2098L34.058 15.1928L33.1954 15.1759L33.1785 12.6221L33.1672 10.0738H34.0411H34.9149V12.639ZM19.073 17.3464V18.3612H16.7898H14.5065V17.3464V16.3317H16.7898H19.073V17.3464ZM36.5499 17.3464V18.3612H34.2666H31.9833V17.3464V16.3317H34.2666H36.5499V17.3464ZM19.0449 21.4338V23.3506L16.7785 23.3675L14.5065 23.3788V21.4338V19.4888L16.7785 19.5L19.0449 19.517V21.4338ZM36.5217 21.4338V23.3506L34.2553 23.3675L31.9833 23.3788V21.4338V19.4888L34.2553 19.5L36.5217 19.517V21.4338ZM26.87 20.4979C28.4823 20.9264 29.8974 22.2174 30.4668 23.7734C30.557 24.0215 30.6303 24.2639 30.6303 24.309C30.6303 24.3823 29.9763 24.3936 25.4944 24.3936H20.3528L20.3866 24.2019C20.4768 23.655 21.0462 22.6177 21.5987 22.0201C22.3316 21.2195 23.493 20.5825 24.5698 20.3908C25.0659 20.3062 26.3738 20.3626 26.87 20.4979ZM19.0505 24.9404C19.0336 25.1772 19.0167 25.5887 19.0167 25.8594V26.3498L16.7954 27.483C15.5777 28.1088 14.5629 28.6218 14.5403 28.6218C14.5234 28.6218 14.5065 27.6972 14.5065 26.5641V24.5063H16.7954H19.09L19.0505 24.9404ZM36.5386 25.4196L36.5217 26.3273L34.2948 27.4717C33.0714 28.1031 32.051 28.6218 32.0284 28.6218C32.0003 28.6218 31.9833 27.6972 31.9833 26.5641V24.5063H34.2666H36.5499L36.5386 25.4196ZM30.7994 34.2031V42.8852H29.4464H28.099L28.0821 36.7232L28.0651 30.5668L27.9355 30.2342C27.7494 29.7324 27.5747 29.4731 27.2082 29.1236C26.667 28.6049 26.1314 28.3963 25.3534 28.3963C24.13 28.3963 23.0983 29.1687 22.7657 30.3357C22.6755 30.6401 22.6642 31.2152 22.6586 36.7626L22.653 42.857L21.4296 42.8739L20.2006 42.8852V34.2031V25.5211H25.5H30.7994V34.2031ZM19.0167 29.941V32.2243L18.2725 32.6133C17.8609 32.8275 16.8462 33.3518 16.0174 33.7747L14.5065 34.547V32.2412V29.9298L16.7221 28.7966C17.9342 28.1764 18.949 27.6634 18.9772 27.6634C18.9998 27.6634 19.0167 28.6895 19.0167 29.941ZM36.5499 29.6479C36.5499 30.7416 36.533 31.7733 36.516 31.9368L36.4766 32.2299L35.738 32.6189C35.3321 32.8332 34.323 33.3518 33.4942 33.7747L31.9833 34.547V32.2412V29.9298L34.1989 28.7966C35.411 28.1764 36.4427 27.6634 36.4822 27.6634C36.533 27.6634 36.5499 28.0975 36.5499 29.6479ZM9.4326 27.8889C10.3121 28.0299 11.1916 28.447 11.8399 29.039C12.15 29.3265 12.5897 29.8508 12.5897 29.941C12.5897 29.9579 12.1443 29.9749 11.6031 29.9749H10.6165V29.4675V28.9601H10.0527H9.49461L9.4777 29.4506L9.46079 29.9467L8.71661 29.9636L7.9668 29.9805V29.4675V28.9601H7.40303H6.8449L6.82799 29.4506L6.81107 29.9467L5.86958 29.9636C5.34528 29.9692 4.92245 29.9636 4.92245 29.941C4.92245 29.8621 5.32836 29.3604 5.61025 29.0954C6.64194 28.1257 8.06264 27.6747 9.4326 27.8889ZM43.3376 27.9735C44.1325 28.1821 44.7527 28.5147 45.3165 29.0334C45.6434 29.3265 46.0775 29.8508 46.0775 29.941C46.0775 29.9636 45.6547 29.9692 45.1361 29.9636L44.1889 29.9467L44.172 29.4506L44.1551 28.9601H43.597H43.0332V29.4675V29.9805L42.289 29.9636L41.5392 29.9467L41.5223 29.4506L41.5054 28.9601H40.9473H40.3835V29.4675V29.9749H39.3969C38.8557 29.9749 38.4103 29.9579 38.4103 29.941C38.4103 29.8508 38.85 29.3265 39.1601 29.039C39.7859 28.4696 40.5752 28.0806 41.4265 27.9115C41.9113 27.8156 42.8697 27.8495 43.3376 27.9735ZM26.1371 29.7099C26.4302 29.8847 26.6614 30.1384 26.8023 30.4541C26.9038 30.6683 26.9094 30.9953 26.9094 36.7232V42.7724H25.3591H23.8087V36.7795C23.8087 29.9918 23.7805 30.4484 24.2597 29.9692C24.6036 29.631 24.8968 29.5238 25.4493 29.5408C25.7932 29.5577 25.9285 29.5915 26.1371 29.7099ZM13.2211 31.311C13.2775 31.4801 13.2944 32.7824 13.3113 37.2024L13.3226 42.8852H12.7588H12.1951V39.542C12.1951 35.8268 12.1951 35.8268 11.8173 35.0488C11.5298 34.4568 10.8138 33.7408 10.2219 33.4533C9.4326 33.0699 8.76735 32.991 8.00063 33.1883C6.77161 33.4984 5.80757 34.423 5.39602 35.6689C5.30018 35.9508 5.2889 36.2834 5.27199 39.4349L5.25507 42.8908L4.70822 42.8739L4.16136 42.857V37.4166C4.16136 33.1602 4.17828 31.8917 4.23465 31.5872C4.27412 31.3674 4.32486 31.17 4.33613 31.1475C4.35304 31.1249 6.34315 31.1024 8.75608 31.1024H13.1478L13.2211 31.311ZM46.6921 31.2772C46.8443 31.7113 46.8725 32.8275 46.8555 37.7831L46.8386 42.857L46.32 42.8739L45.8013 42.8908L45.7844 39.3785L45.7675 35.8662L45.6378 35.4998C44.9726 33.6394 43.1572 32.6584 41.3419 33.1658C40.4568 33.4195 39.566 34.1467 39.1827 34.936C38.7993 35.7197 38.8049 35.6576 38.8049 39.4574V42.8852H38.2412H37.6774L37.6887 37.2024C37.7056 32.7824 37.7225 31.4801 37.7789 31.311L37.8522 31.1024H42.2383H46.63L46.6921 31.2772ZM19.0167 35.8211V38.1213L16.7954 39.2601C15.572 39.8915 14.5573 40.4046 14.5403 40.4046C14.5234 40.4046 14.5065 39.3729 14.5065 38.1044V35.8099L16.7221 34.6767C17.9342 34.0509 18.949 33.5379 18.9772 33.5322C18.9998 33.5322 19.0167 34.5583 19.0167 35.8211ZM36.4935 35.8211V38.1213L34.2722 39.2601C33.0489 39.8915 32.0341 40.4046 32.0172 40.4046C32.0002 40.4046 31.9833 39.3729 31.9833 38.1044V35.8099L34.1989 34.6767C35.411 34.0509 36.4258 33.5379 36.454 33.5322C36.4766 33.5322 36.4935 34.5583 36.4935 35.8211ZM42.7682 34.2313C43.7154 34.4286 44.437 35.1728 44.6118 36.1256C44.6456 36.3116 44.6625 37.6759 44.6569 39.6435L44.6399 42.857L42.2834 42.8739L39.9268 42.8852L39.9437 39.4011L39.9607 35.9226L40.1523 35.528C40.3948 35.0319 40.7894 34.6372 41.2517 34.423C41.838 34.1524 42.1819 34.1073 42.7682 34.2313ZM9.49461 34.3666C10.0978 34.5978 10.656 35.1503 10.9153 35.7817C11.0393 36.0917 11.0393 36.1143 11.0563 39.4913L11.0732 42.8852L8.7448 42.8739L6.41644 42.857L6.39952 39.6999C6.39389 37.7549 6.4108 36.4244 6.44463 36.2327C6.65322 35.0826 7.76384 34.158 8.84628 34.2313C9.03232 34.2426 9.32548 34.3046 9.49461 34.3666ZM19.0167 41.1375V42.8852H16.7616H14.5065V42.2988V41.7125L16.7503 40.5568C17.9793 39.9197 18.9941 39.4011 19.0054 39.3954C19.011 39.3898 19.0167 40.1734 19.0167 41.1375ZM36.4935 41.1375V42.8852H34.2384H31.9777L31.9946 42.2932L32.0115 41.6956L34.2384 40.5455C35.4618 39.9141 36.4709 39.3954 36.4822 39.3954C36.4879 39.3898 36.4935 40.1734 36.4935 41.1375Z" fill="#494949"/>
</g>
<defs>
<clipPath id="clip0_8776_568">
<rect width="45" height="39.0128" fill="white" transform="translate(3 5)"/>
</clipPath>
</defs>
</svg>
