<svg width="50" height="50" viewBox="0 0 50 50" fill="none" xmlns="http://www.w3.org/2000/svg">
<path d="M15.6004 44.1999H7.90039C7.60039 44.1999 7.40039 43.9999 7.40039 43.6999V27.8999C7.40039 27.5999 7.60039 27.3999 7.90039 27.3999H15.6004C15.9004 27.3999 16.1004 27.5999 16.1004 27.8999V43.5999C16.1004 43.8999 15.9004 44.1999 15.6004 44.1999ZM8.40039 43.1999H15.1004V28.3999H8.40039V43.1999Z" fill="#858585"/>
<path d="M35.1006 44.2002H15.6006C15.3006 44.2002 15.1006 44.0002 15.1006 43.7002V29.2002C15.1006 28.9002 15.3006 28.7002 15.6006 28.7002H35.1006C35.4006 28.7002 35.6006 28.9002 35.6006 29.2002V43.7002C35.6006 43.9002 35.4006 44.2002 35.1006 44.2002ZM16.1006 43.2002H34.6006V29.7002H16.1006V43.2002Z" fill="#858585"/>
<path d="M14.8002 28.4002H8.7002C8.4002 28.4002 8.2002 28.2002 8.2002 27.9002V25.2002C8.2002 24.9002 8.4002 24.7002 8.7002 24.7002H14.8002C15.1002 24.7002 15.3002 24.9002 15.3002 25.2002V27.9002C15.3002 28.2002 15.1002 28.4002 14.8002 28.4002ZM9.2002 27.4002H14.3002V25.7002H9.2002V27.4002Z" fill="#858585"/>
<path d="M14.1004 25.7001H9.40039C9.10039 25.7001 8.90039 25.5001 8.90039 25.2001V24.1001C8.90039 22.8001 9.40039 21.7001 10.3004 20.8001L11.4004 19.7001C11.5004 19.6001 11.6004 19.6001 11.8004 19.6001C11.9004 19.6001 12.1004 19.7001 12.2004 19.7001L13.3004 20.8001C14.2004 21.7001 14.7004 22.9001 14.7004 24.1001V25.2001C14.6004 25.5001 14.4004 25.7001 14.1004 25.7001ZM9.90039 24.7001H13.5004V24.1001C13.5004 23.1001 13.1004 22.2001 12.4004 21.5001L11.7004 20.8001L11.0004 21.5001C10.3004 22.2001 9.90039 23.1001 9.90039 24.1001V24.7001Z" fill="#858585"/>
<path d="M11.8008 20.4998C11.5008 20.4998 11.3008 20.2998 11.3008 19.9998V17.7998C11.3008 17.4998 11.5008 17.2998 11.8008 17.2998C12.1008 17.2998 12.3008 17.4998 12.3008 17.7998V19.9998C12.3008 20.2998 12.0008 20.4998 11.8008 20.4998Z" fill="#858585"/>
<path d="M42.8006 44.1999H35.1006C34.8006 44.1999 34.6006 43.9999 34.6006 43.6999V27.8999C34.6006 27.5999 34.8006 27.3999 35.1006 27.3999H42.8006C43.1006 27.3999 43.3006 27.5999 43.3006 27.8999V43.5999C43.3006 43.8999 43.1006 44.1999 42.8006 44.1999ZM35.6006 43.1999H42.3006V28.3999H35.6006V43.1999Z" fill="#858585"/>
<path d="M42.0004 28.4002H35.9004C35.6004 28.4002 35.4004 28.2002 35.4004 27.9002V25.2002C35.4004 24.9002 35.6004 24.7002 35.9004 24.7002H42.0004C42.3004 24.7002 42.5004 24.9002 42.5004 25.2002V27.9002C42.5004 28.2002 42.3004 28.4002 42.0004 28.4002ZM36.4004 27.4002H41.5004V25.7002H36.4004V27.4002Z" fill="#858585"/>
<path d="M41.3002 25.6998H36.7002C36.4002 25.6998 36.2002 25.4998 36.2002 25.1998V24.0998C36.2002 22.7998 36.7002 21.6998 37.6002 20.7998L38.7002 19.6998C38.9002 19.4998 39.2002 19.4998 39.4002 19.6998L40.5002 20.7998C41.4002 21.6998 41.9002 22.8998 41.9002 24.0998V25.1998C41.8002 25.4998 41.6002 25.6998 41.3002 25.6998ZM37.2002 24.6998H40.8002V24.0998C40.8002 23.0998 40.4002 22.1998 39.7002 21.4998L39.0002 20.7998L38.3002 21.4998C37.6002 22.1998 37.2002 23.0998 37.2002 24.0998V24.6998Z" fill="#858585"/>
<path d="M32.0002 19.5002H18.7002V18.2002C18.7002 15.3002 20.2002 12.6002 22.6002 11.0002L25.4002 9.2002L28.2002 11.0002C30.6002 12.6002 32.1002 15.3002 32.1002 18.2002V19.5002H32.0002Z" fill="#FFCC05"/>
<path d="M32.0002 20H18.7002C18.4002 20 18.2002 19.8 18.2002 19.5V18.2C18.2002 15.1 19.7002 12.3 22.3002 10.5L25.1002 8.7C25.3002 8.6 25.5002 8.6 25.7002 8.7L28.4002 10.6C31.0002 12.3 32.5002 15.2 32.5002 18.3V19.6C32.5002 19.8 32.3002 20 32.0002 20ZM19.2002 19H31.5002V18.2C31.5002 15.4 30.1002 12.9 27.8002 11.4L25.4002 9.8L22.9002 11.4C20.6002 12.9 19.2002 15.5 19.2002 18.2V19Z" fill="#858585"/>
<path d="M39 20.4998C38.7 20.4998 38.5 20.2998 38.5 19.9998V17.7998C38.5 17.4998 38.7 17.2998 39 17.2998C39.3 17.2998 39.5 17.4998 39.5 17.7998V19.9998C39.5 20.2998 39.3 20.4998 39 20.4998Z" fill="#858585"/>
<path d="M25.4004 9.7C25.1004 9.7 24.9004 9.5 24.9004 9.2V7C24.9004 6.7 25.1004 6.5 25.4004 6.5C25.7004 6.5 25.9004 6.7 25.9004 7V9.2C25.9004 9.5 25.6004 9.7 25.4004 9.7Z" fill="#858585"/>
<path d="M33.1002 32.7998H17.7002C17.4002 32.7998 17.2002 32.5998 17.2002 32.2998C17.2002 31.9998 17.4002 31.7998 17.7002 31.7998H33.1002C33.4002 31.7998 33.6002 31.9998 33.6002 32.2998C33.6002 32.5998 33.3002 32.7998 33.1002 32.7998Z" fill="#FFCC05"/>
<path d="M19.5 41.5999C19.2 41.5999 19 41.3999 19 41.0999V34.3999C19 34.0999 19.2 33.8999 19.5 33.8999C19.8 33.8999 20 34.0999 20 34.3999V41.0999C20 41.3999 19.8 41.5999 19.5 41.5999Z" fill="#858585"/>
<path d="M23.1006 41.5999C22.8006 41.5999 22.6006 41.3999 22.6006 41.0999V34.3999C22.6006 34.0999 22.8006 33.8999 23.1006 33.8999C23.4006 33.8999 23.6006 34.0999 23.6006 34.3999V41.0999C23.6006 41.3999 23.4006 41.5999 23.1006 41.5999Z" fill="#FFCC05"/>
<path d="M27.3008 41.5999C27.0008 41.5999 26.8008 41.3999 26.8008 41.0999V34.3999C26.8008 34.0999 27.0008 33.8999 27.3008 33.8999C27.6008 33.8999 27.8008 34.0999 27.8008 34.3999V41.0999C27.8008 41.3999 27.6008 41.5999 27.3008 41.5999Z" fill="#FFCC05"/>
<path d="M30.9004 41.5999C30.6004 41.5999 30.4004 41.3999 30.4004 41.0999V34.3999C30.4004 34.0999 30.6004 33.8999 30.9004 33.8999C31.2004 33.8999 31.4004 34.0999 31.4004 34.3999V41.0999C31.4004 41.3999 31.2004 41.5999 30.9004 41.5999Z" fill="#858585"/>
<path d="M40.5 34.8999H37.5C37.2 34.8999 37 34.6999 37 34.3999C37 34.0999 37.2 33.8999 37.5 33.8999H40.5C40.8 33.8999 41 34.0999 41 34.3999C41 34.6999 40.8 34.8999 40.5 34.8999Z" fill="#FFCC05"/>
<path d="M40.5 39.3999H37.5C37.2 39.3999 37 39.1999 37 38.8999C37 38.5999 37.2 38.3999 37.5 38.3999H40.5C40.8 38.3999 41 38.5999 41 38.8999C41 39.1999 40.8 39.3999 40.5 39.3999Z" fill="#858585"/>
<path d="M13.3008 34.8999H10.3008C10.0008 34.8999 9.80078 34.6999 9.80078 34.3999C9.80078 34.0999 10.0008 33.8999 10.3008 33.8999H13.3008C13.6008 33.8999 13.8008 34.0999 13.8008 34.3999C13.8008 34.6999 13.5008 34.8999 13.3008 34.8999Z" fill="#FFCC05"/>
<path d="M13.3008 39.3999H10.3008C10.0008 39.3999 9.80078 39.1999 9.80078 38.8999C9.80078 38.5999 10.0008 38.3999 10.3008 38.3999H13.3008C13.6008 38.3999 13.8008 38.5999 13.8008 38.8999C13.8008 39.1999 13.5008 39.3999 13.3008 39.3999Z" fill="#858585"/>
<path d="M32.7 29.6998H18C17.7 29.6998 17.5 29.4998 17.5 29.1998V22.2998C17.5 21.9998 17.7 21.7998 18 21.7998H32.7C33 21.7998 33.2 21.9998 33.2 22.2998V29.1998C33.2 29.4998 33 29.6998 32.7 29.6998ZM18.5 28.6998H32.2V22.7998H18.5V28.6998Z" fill="#858585"/>
<path d="M33.5008 22.8H17.3008C17.0008 22.8 16.8008 22.6 16.8008 22.3V19.5C16.8008 19.2 17.0008 19 17.3008 19H33.5008C33.8008 19 34.0008 19.2 34.0008 19.5V22.3C34.0008 22.6 33.7008 22.8 33.5008 22.8ZM17.8008 21.8H33.0008V20H17.8008V21.8Z" fill="#858585"/>
<path d="M45.8008 44.2002H42.8008C42.5008 44.2002 42.3008 44.0002 42.3008 43.7002C42.3008 43.4002 42.5008 43.2002 42.8008 43.2002H45.8008C46.1008 43.2002 46.3008 43.4002 46.3008 43.7002C46.3008 44.0002 46.1008 44.2002 45.8008 44.2002Z" fill="#858585"/>
<path d="M7.90039 44.2002H4.90039C4.60039 44.2002 4.40039 44.0002 4.40039 43.7002C4.40039 43.4002 4.60039 43.2002 4.90039 43.2002H7.90039C8.20039 43.2002 8.40039 43.4002 8.40039 43.7002C8.40039 44.0002 8.20039 44.2002 7.90039 44.2002Z" fill="#858585"/>
</svg>
