<svg width="50" height="50" viewBox="0 0 50 50" fill="none" xmlns="http://www.w3.org/2000/svg">
<g clip-path="url(#clip0_8776_1500)">
<path d="M25.6746 14.6492C25.3242 14.6492 25.0393 14.3641 25.0393 14.0138C25.0393 13.6634 25.3242 13.3785 25.6746 13.3785C26.025 13.3785 26.31 13.6634 26.31 14.0138C26.31 14.3641 26.025 14.6492 25.6746 14.6492ZM27.523 11.5901H23.8262L22.7588 15.936H28.5907L27.523 11.5901Z" fill="#FFCC05"/>
<path d="M25.6562 29.631H28.5535V38.4819H22.7588V29.631H25.6562Z" fill="#FFCC05"/>
<path d="M46.1342 24.2476H41.2243L40.185 23.0208H45.9921L47.0314 24.2476H46.1342ZM45.8275 38.5092H40.358V24.861H45.8275V38.5092ZM30.0919 43.1864V39.1226H32.2048V43.1864H30.0919ZM21.5214 42.6304H29.4785V43.1864H21.5214V42.6304ZM18.7951 40.1705V39.1226H20.908V43.1864H18.7951V40.1705ZM9.91769 24.861H10.6419V38.5092H5.17247V24.861H9.91769ZM5.00793 23.0208H10.8149L9.77558 24.2476H3.9685L5.00793 23.0208ZM6.04328 15.6773C6.25238 15.3792 6.44982 15.0977 6.65486 15.0977H9.91769H9.92628H13.1892C13.3942 15.0977 13.5916 15.3792 13.8007 15.6773C13.8619 15.7646 13.9257 15.8538 13.9921 15.9411H5.85183C5.91845 15.8538 5.9821 15.7646 6.04328 15.6773ZM7.48765 14.0154H8.36151C8.3639 14.0154 8.36639 14.0164 8.36887 14.0164C8.37165 14.0164 8.37445 14.0154 8.37733 14.0154H9.91789L9.92198 14.015L9.92607 14.0154H12.3564C12.4674 14.0154 12.6154 14.2262 12.7459 14.4125C12.7624 14.4358 12.7798 14.4601 12.797 14.4843H9.92628H9.91769H7.04709C7.06426 14.4601 7.08168 14.4358 7.09812 14.4125C7.22855 14.2262 7.37655 14.0154 7.48765 14.0154ZM8.729 13.0939C8.77365 13.0332 8.85712 12.9548 9.05183 12.9747C9.15351 12.9845 9.25239 12.9446 9.31772 12.8669C9.38297 12.7892 9.40566 12.6841 9.3781 12.5866C9.34001 12.4508 9.31085 12.2672 9.38896 12.164C9.46492 12.0636 9.65924 12.0061 9.92198 12.0053C10.1847 12.0061 10.3792 12.0636 10.455 12.164C10.5331 12.2672 10.5041 12.4508 10.4659 12.5866C10.4385 12.6841 10.461 12.7892 10.5264 12.8669C10.5918 12.9446 10.6906 12.9845 10.7922 12.9747C10.9868 12.954 11.0703 13.0332 11.115 13.0939C11.1825 13.1857 11.2091 13.3043 11.2159 13.402H9.92607L9.92198 13.4024L9.91789 13.402H8.62819C8.6349 13.3043 8.66142 13.1857 8.729 13.0939ZM14.2712 22.4074V20.4649C14.2712 20.4384 14.2667 20.4128 14.2604 20.3883C14.2473 20.0501 14.1608 18.6805 13.6214 18.2863C13.5689 18.2479 13.5055 18.2272 13.4405 18.2272L13.4321 18.043C13.4321 17.8737 13.2947 17.7363 13.1254 17.7363C12.9559 17.7363 12.8187 17.8737 12.8187 18.043V18.2272H12.8103C12.7451 18.2272 12.6819 18.2479 12.6291 18.2863C12.0155 18.7347 11.9879 20.4478 11.9879 20.4649V22.4074H11.8773H11.4768H5.17247V16.5545H14.6801V22.4074H14.2712ZM17.5911 20.1582L18.6305 18.9314H32.3694L33.4088 20.1582H32.2335C32.1067 19.9323 31.9556 19.7378 31.7724 19.6039C31.7199 19.5657 31.6565 19.5448 31.5914 19.5448H31.3359V19.3404C31.3359 19.1711 31.1987 19.0337 31.0292 19.0337C30.8599 19.0337 30.7225 19.1711 30.7225 19.3404V19.5448H30.4669C30.4019 19.5448 30.3385 19.5657 30.2859 19.6039C29.428 20.231 29.2401 22.1354 29.2401 22.8163V23.0463H28.0644V22.2285C28.0644 22.0592 27.9272 21.9218 27.7577 21.9218H26.9273C26.8664 20.7042 26.4385 20.3926 25.9999 20.184C25.814 20.0953 25.8067 20.092 25.8067 19.9538C25.8067 19.7845 25.6695 19.6471 25.5 19.6471C25.3307 19.6471 25.1933 19.7845 25.1933 19.9538C25.1933 20.092 25.1861 20.0953 25 20.184C24.5617 20.3926 24.1335 20.7042 24.0726 21.9218H23.2422C23.0729 21.9218 22.9355 22.0592 22.9355 22.2285V23.0463H21.7598V22.8163C21.7598 22.1354 21.5719 20.231 20.714 19.6039C20.6614 19.5657 20.5983 19.5448 20.533 19.5448H20.2774V19.3404C20.2774 19.1711 20.1402 19.0337 19.9707 19.0337C19.8014 19.0337 19.664 19.1711 19.664 19.3404V19.5448H19.4085C19.3434 19.5448 19.28 19.5657 19.2275 19.6039C19.0443 19.7378 18.8932 19.9323 18.7664 20.1582H17.5911ZM19.3142 12.4627H19.6921C19.8401 12.6735 19.9722 13.2675 20.0135 13.7805H18.9928C19.0341 13.2675 19.1662 12.6735 19.3142 12.4627ZM20.2774 14.3939V15.3532H18.7951V14.3939H20.2774ZM18.7951 18.318V15.9667H20.2774V18.318H18.7951ZM25.5 16.5545H30.1091V18.318H20.8908V16.5545H25.5ZM23.7172 11.7495H27.2827L28.3124 15.9411H22.6877L23.7172 11.7495ZM22.5695 11.1361C22.3348 11.1361 22.1436 10.9451 22.1436 10.7102C22.1436 10.4755 22.3348 10.2843 22.5695 10.2843C22.8045 10.2843 22.9954 10.4755 22.9954 10.7102C22.9954 10.9451 22.8045 11.1361 22.5695 11.1361ZM23.927 9.47481H27.0731V9.68194C27.0371 9.67805 27.0022 9.67089 26.9652 9.67089C26.6795 9.67089 26.4207 9.78682 26.2326 9.97411C26.0444 9.78682 25.7856 9.67089 25.5 9.67089C25.2143 9.67089 24.9555 9.78682 24.7673 9.97411C24.5792 9.78682 24.3204 9.67089 24.0347 9.67089C23.9977 9.67089 23.963 9.67805 23.927 9.68194V9.47481ZM24.9829 8.29912H26.017L26.2199 8.86141H24.7802L24.9829 8.29912ZM25.5 6.72942C25.7494 7.02651 25.8527 7.41746 25.8954 7.68572H25.5H25.1045C25.1472 7.41746 25.2505 7.02651 25.5 6.72942ZM28.4304 10.2843C28.6653 10.2843 28.8563 10.4755 28.8563 10.7102C28.8563 10.9451 28.6653 11.1361 28.4304 11.1361C28.1957 11.1361 28.0045 10.9451 28.0045 10.7102C28.0045 10.4755 28.1957 10.2843 28.4304 10.2843ZM26.5393 10.7102C26.5393 10.4755 26.7304 10.2843 26.9652 10.2843C27.2001 10.2843 27.3911 10.4755 27.3911 10.7102C27.3911 10.9451 27.2001 11.1361 26.9652 11.1361C26.7304 11.1361 26.5393 10.9451 26.5393 10.7102ZM25.074 10.7102C25.074 10.4755 25.2652 10.2843 25.5 10.2843C25.7349 10.2843 25.9259 10.4755 25.9259 10.7102C25.9259 10.9451 25.7349 11.1361 25.5 11.1361C25.2652 11.1361 25.074 10.9451 25.074 10.7102ZM23.6088 10.7102C23.6088 10.4755 23.8 10.2843 24.0347 10.2843C24.2697 10.2843 24.4606 10.4755 24.4606 10.7102C24.4606 10.9451 24.2697 11.1361 24.0347 11.1361C23.8 11.1361 23.6088 10.9451 23.6088 10.7102ZM31.3079 12.4627H31.6857C31.8339 12.6735 31.966 13.2675 32.0071 13.7805H30.9864C31.0277 13.2675 31.1598 12.6735 31.3079 12.4627ZM30.7225 16.2478V15.9667H32.2048V18.318H30.7225V16.2478ZM32.2048 14.3939V15.3532H30.7225V14.3939H32.2048ZM37.3421 20.7716H38.3986V22.4074H37.3421V20.7716ZM37.6858 18.8406H38.0635C38.2117 19.0512 38.3438 19.6452 38.3851 20.1582H37.3644C37.4055 19.6452 37.5376 19.0512 37.6858 18.8406ZM40.0513 24.2476H32.8182V23.0208H39.381L40.4203 24.2476H40.0513ZM39.7446 38.5092H38.8584V33.0225C38.8584 32.579 38.5642 32.3204 38.3491 32.1312C38.1581 31.9632 38.0745 31.8777 38.0745 31.7618C38.0745 31.3471 37.8026 31.1007 37.604 30.921C37.4705 30.7997 37.3973 30.7257 37.3713 30.6523C37.501 30.3491 37.2912 29.9993 37.1315 29.7341C37.0652 29.6241 36.9542 29.4398 36.9499 29.3762C36.9499 29.2069 36.8127 29.0695 36.6432 29.0695H36.2684H35.8936C35.7243 29.0695 35.5869 29.2055 35.5869 29.3748C35.5826 29.4398 35.4718 29.6241 35.4054 29.7341C35.2459 29.9993 35.0359 30.3491 35.1657 30.6523C35.1396 30.7257 35.0666 30.7997 34.9329 30.921C34.7343 31.1007 34.4624 31.3471 34.4624 31.7618C34.4624 31.8777 34.3787 31.9632 34.1878 32.1312C33.9729 32.3204 33.6784 32.579 33.6784 33.0225V38.5092H32.5115H32.2688V32.4692C32.8551 31.9405 32.5212 31.4015 32.3735 31.1631C32.3584 31.1388 32.3396 31.1083 32.3232 31.0803C32.5216 30.9376 32.6516 30.7464 32.7007 30.5233C32.7342 30.3718 32.7279 30.2082 32.6868 30.0451C32.7661 29.9896 32.8182 29.8978 32.8182 29.7938V28.1836H34.0706C34.1902 28.1836 34.2986 28.1143 34.3489 28.0059C34.3992 27.8975 34.3818 27.7699 34.3047 27.6785L32.8182 25.9242V24.861H39.1226H39.7446V38.5092ZM35.3449 31.3753C35.4833 31.25 35.6452 31.1032 35.7311 30.8977H36.2684H36.806C36.8916 31.1032 37.0536 31.25 37.1922 31.3753C37.364 31.5311 37.4611 31.6258 37.4611 31.7618C37.4611 32.1672 37.7289 32.4026 37.944 32.5919C38.1362 32.7608 38.245 32.8643 38.245 33.0225V38.5092H34.2918V33.0225C34.2918 32.8643 34.4006 32.7608 34.5928 32.5919C34.8081 32.4026 35.0758 32.1672 35.0758 31.7618C35.0758 31.6258 35.1729 31.5311 35.3449 31.3753ZM36.1304 29.6829H36.4064C36.4576 29.8042 36.5306 29.9254 36.606 30.0506C36.6455 30.1162 36.6978 30.2047 36.7385 30.2843H36.2684H35.7984C35.8391 30.2047 35.8914 30.1162 35.9311 30.0506C36.0063 29.9254 36.0793 29.8042 36.1304 29.6829ZM45.8275 39.8638H32.8182V39.1226H45.8275V39.8638ZM44.9896 40.4772H45.8275V41.1231L44.9896 40.4772ZM32.8182 42.7112L33.4347 43.1864H32.8182V42.7112ZM21.1464 25.73H18.7951V23.123H21.1464V25.73ZM25.5 25.73H21.7598V25.4488H29.2401V25.73H25.5ZM32.2048 24.5543V25.73H29.8535V23.123H32.2048V24.5543ZM25.5 24.5543H29.2401V24.8354H21.7598V24.5543H25.5ZM20.7631 29.4871H18.7951V28.1836H20.7631V29.4871ZM32.5115 27.5702H17.5911L18.6305 26.3434H32.3694L33.4088 27.5702H32.5115ZM32.2048 29.4871H30.2368V28.1836H32.2048V29.4871ZM31.0292 20.1582H31.4808C31.5867 20.2594 31.6808 20.4075 31.7642 20.5833L31.7661 20.5872C32.0116 21.1078 32.1576 21.8819 32.1948 22.5096H29.8635C29.9134 21.6678 30.1579 20.559 30.5777 20.1582H31.0292ZM25.5 23.6597H29.2401V23.9409H21.7598V23.6597H25.5ZM25.5 22.5352H27.451V23.0463H23.5489V22.5352H25.5ZM25.5 20.6042C25.5803 20.6618 25.6643 20.7035 25.7365 20.7379C25.9856 20.8565 26.264 20.9921 26.3135 21.9218H25.5H24.6864C24.7359 20.9921 25.0143 20.8565 25.2634 20.7379C25.3356 20.7035 25.4196 20.6618 25.5 20.6042ZM19.2338 20.5872L19.2357 20.5833C19.3191 20.4075 19.4134 20.2594 19.5193 20.1582H19.9707H20.4224C20.842 20.559 21.0865 21.6678 21.1364 22.5096H18.8051C18.8423 21.8819 18.9883 21.1078 19.2338 20.5872ZM12.2946 23.0208H18.1817V24.2476H10.5796L11.6189 23.0208H11.8773H12.2946ZM12.6013 20.7716H13.6578V22.4074H12.6013V20.7716ZM12.9364 18.8406H13.3141C13.4623 19.0512 13.5944 19.6452 13.6357 20.1582H12.615C12.6561 19.6452 12.7882 19.0512 12.9364 18.8406ZM18.4884 38.5092H17.3215V33.0225C17.3215 32.579 17.0272 32.3204 16.8121 32.1312C16.6212 31.9632 16.5375 31.8777 16.5375 31.7618C16.5375 31.3471 16.2656 31.1007 16.067 30.921C15.9335 30.7997 15.8603 30.7257 15.8344 30.6523C15.964 30.3491 15.7542 29.9993 15.5945 29.7341C15.5283 29.6241 15.4173 29.4398 15.413 29.3762C15.413 29.2069 15.2758 29.0695 15.1063 29.0695H14.7315H14.3567C14.1874 29.0695 14.05 29.2055 14.05 29.3748C14.0457 29.4398 13.9349 29.6241 13.8684 29.7341C13.7089 29.9993 13.4989 30.3491 13.6288 30.6523C13.6026 30.7257 13.5296 30.7997 13.3959 30.921C13.1973 31.1007 12.9254 31.3471 12.9254 31.7618C12.9254 31.8777 12.8418 31.9632 12.6508 32.1312C12.4359 32.3204 12.1415 32.579 12.1415 33.0225V38.5092H11.2553V24.861H11.8773H18.1817V25.9242L16.6954 27.6785C16.6181 27.7699 16.6009 27.8975 16.651 28.0059C16.7013 28.1143 16.8099 28.1836 16.9293 28.1836H18.1817V29.7938C18.1817 29.8978 18.234 29.9896 18.3131 30.0451C18.2722 30.2082 18.2657 30.3718 18.2992 30.5233C18.3483 30.7454 18.4771 30.9359 18.6769 31.0801C18.6605 31.1083 18.6417 31.1388 18.6264 31.1631C18.4787 31.4015 18.1448 31.9405 18.7313 32.4692V38.5092H18.4884ZM18.1817 42.7112V43.1864H17.5652L18.1817 42.7112ZM5.17247 40.4772H6.01029L5.17247 41.1231V40.4772ZM13.8079 31.3753C13.9463 31.25 14.1082 31.1032 14.1941 30.8977H14.7315H15.269C15.3547 31.1032 15.5166 31.25 15.6552 31.3753C15.827 31.5311 15.9241 31.6258 15.9241 31.7618C15.9241 32.1672 16.192 32.4026 16.4071 32.5919C16.5993 32.7608 16.7081 32.8643 16.7081 33.0225V38.5092H12.7549V33.0225C12.7549 32.8643 12.8637 32.7608 13.0559 32.5919C13.2712 32.4026 13.5388 32.1672 13.5388 31.7618C13.5388 31.6258 13.6359 31.5311 13.8079 31.3753ZM14.5934 29.6829H14.8695C14.9206 29.8042 14.9936 29.9254 15.069 30.0506C15.1085 30.1162 15.1608 30.2047 15.2015 30.2843H14.7315H14.2614C14.3021 30.2047 14.3544 30.1162 14.3941 30.0506C14.4693 29.9254 14.5423 29.8042 14.5934 29.6829ZM10.9486 39.1226H18.1817V39.8638H5.17247V39.1226H10.9486ZM5.17247 43.1864V41.8974L7.01482 40.4772H8.82301L5.30807 43.1864H5.17247ZM6.31309 43.1864L9.82793 40.4772H11.636L8.12109 43.1864H6.31309ZM9.12611 43.1864L12.641 40.4772H14.4491L10.9341 43.1864H9.12611ZM11.9391 43.1864L15.4541 40.4772H17.2622L13.7472 43.1864H11.9391ZM14.7521 43.1864L18.1817 40.543V41.9367L16.5602 43.1864H14.7521ZM19.7792 38.5092H19.3447V32.324C19.3447 32.2269 19.2987 32.1357 19.2208 32.0779C18.92 31.8542 18.9819 31.754 19.148 31.4861C19.249 31.3232 19.3633 31.1383 19.3113 30.9194C19.2901 30.8304 19.231 30.7038 19.0701 30.6055C18.9731 30.5464 18.9169 30.4763 18.8983 30.3912C18.8801 30.3088 18.8973 30.2047 18.9406 30.1005H20.6177C20.6608 30.2047 20.6782 30.3088 20.66 30.3912C20.6412 30.4763 20.585 30.5464 20.488 30.6055C20.3271 30.7038 20.268 30.8304 20.247 30.9194C20.1948 31.1383 20.3091 31.3232 20.4103 31.4861C20.5762 31.754 20.6383 31.8542 20.3374 32.0779C20.2594 32.1357 20.2136 32.2269 20.2136 32.324V38.5092H19.7792ZM25.5 40.8479H21.5214V40.2919H29.4785V40.8479H25.5ZM25.5 29.9727H28.2944V38.5092H22.7055V29.9727H25.5ZM21.5214 39.1226H29.4785V39.6785H21.5214V39.1226ZM25.5 42.017H21.5214V41.4613H29.4785V42.017H25.5ZM29.7852 38.5092H28.9078V29.666C28.9078 29.4967 28.7706 29.3593 28.6011 29.3593H25.5H22.3988C22.2295 29.3593 22.0921 29.4967 22.0921 29.666V38.5092H21.2147H20.827V32.4692C21.4133 31.9405 21.0794 31.4015 20.9317 31.1631C20.9166 31.1388 20.8978 31.1083 20.8814 31.0803C21.0798 30.9376 21.2098 30.7464 21.2589 30.5233C21.2924 30.3718 21.2861 30.2082 21.245 30.0451C21.3243 29.9896 21.3765 29.8978 21.3765 29.7938V28.1836H25.5H29.6234V29.7938C29.6234 29.8978 29.6758 29.9896 29.7549 30.0451C29.714 30.2082 29.7075 30.3718 29.741 30.5233C29.7901 30.7454 29.9189 30.9359 30.1187 31.0801C30.1023 31.1083 30.0835 31.1388 30.0682 31.1631C29.9205 31.4015 29.5866 31.9405 30.1731 32.4692V38.5092H29.7852ZM31.221 38.5092H30.7865V32.324C30.7865 32.2269 30.7405 32.1357 30.6625 32.0779C30.3616 31.8542 30.4237 31.754 30.5898 31.4861C30.6908 31.3232 30.8051 31.1383 30.7531 30.9194C30.7319 30.8304 30.6728 30.7038 30.5119 30.6055C30.4149 30.5464 30.3587 30.4763 30.3401 30.3912C30.3219 30.3088 30.3391 30.2047 30.3824 30.1005H32.0595C32.1026 30.2047 32.12 30.3088 32.1018 30.3912C32.083 30.4763 32.0268 30.5464 31.9298 30.6055C31.7689 30.7038 31.7098 30.8304 31.6888 30.9194C31.6366 31.1383 31.7509 31.3232 31.8521 31.4861C32.018 31.754 32.0801 31.8542 31.7791 32.0779C31.7012 32.1357 31.6554 32.2269 31.6554 32.324V38.5092H31.221ZM34.4397 43.1864L32.8182 41.9367V40.543L36.2478 43.1864H34.4397ZM37.2527 43.1864L33.7379 40.4772H35.5458L39.0608 43.1864H37.2527ZM40.0658 43.1864L36.551 40.4772H38.3589L41.8739 43.1864H40.0658ZM42.8789 43.1864L39.3639 40.4772H41.172L44.687 43.1864H42.8789ZM45.6919 43.1864L42.1769 40.4772H43.985L45.8275 41.8974V43.1864H45.6919ZM36.3198 16.5545H45.8275V22.4074H39.012V20.4649C39.012 20.4478 38.9844 18.7347 38.3708 18.2863C38.3182 18.2479 38.2548 18.2272 38.1898 18.2272H38.1814V18.043C38.1814 17.8737 38.044 17.7363 37.8747 17.7363C37.7052 17.7363 37.568 17.8737 37.568 18.043V18.2272H37.5596C37.4944 18.2272 37.4312 18.2479 37.3785 18.2863C36.8393 18.6805 36.7526 20.0501 36.7395 20.3883C36.7332 20.4128 36.7287 20.4384 36.7287 20.4649V22.4074H36.3198V16.5545ZM37.1992 15.6773C37.4083 15.3792 37.6059 15.0977 37.8107 15.0977H41.0736H41.0822H44.3451C44.5502 15.0977 44.7475 15.3792 44.9567 15.6773C45.0178 15.7646 45.0816 15.8538 45.148 15.9411H37.0078C37.0744 15.8538 37.138 15.7646 37.1992 15.6773ZM38.6435 14.0154H39.5174C39.5199 14.0154 39.5223 14.0164 39.5248 14.0164C39.5276 14.0164 39.5303 14.0154 39.5332 14.0154H41.0738L41.0779 14.015L41.082 14.0154H43.5123C43.6233 14.0154 43.7714 14.2262 43.9018 14.4125C43.9184 14.4358 43.9358 14.4601 43.9529 14.4843H41.0822H41.0736H38.2031C38.2203 14.4601 38.2377 14.4358 38.254 14.4125C38.3845 14.2262 38.5325 14.0154 38.6435 14.0154ZM39.8848 13.0939C39.9296 13.0332 40.0128 12.9548 40.2077 12.9747C40.3095 12.9845 40.4085 12.9446 40.4737 12.8669C40.5389 12.7892 40.5616 12.6841 40.534 12.5866C40.4958 12.4508 40.4668 12.2672 40.5449 12.164C40.6209 12.0636 40.8152 12.0061 41.0779 12.0053C41.3407 12.0061 41.5349 12.0636 41.611 12.164C41.6891 12.2672 41.66 12.4508 41.6218 12.5866C41.5944 12.6841 41.6169 12.7892 41.6823 12.8669C41.7475 12.9446 41.8467 12.9845 41.9481 12.9747C42.143 12.954 42.2262 13.0332 42.271 13.0939C42.3385 13.1857 42.365 13.3043 42.3718 13.402H41.082L41.0779 13.4024L41.0738 13.402H39.784C39.7908 13.3043 39.8174 13.1857 39.8848 13.0939ZM46.4409 22.6016V16.5545H47.3354C47.5049 16.5545 47.6421 16.4171 47.6421 16.2478C47.6421 16.0785 47.5049 15.9411 47.3354 15.9411H46.1342C45.8909 15.9411 45.6811 15.6417 45.4588 15.325C45.4061 15.2498 45.3513 15.1731 45.2944 15.0977H45.7336C45.9031 15.0977 46.0403 14.9603 46.0403 14.791C46.0403 14.6217 45.9031 14.4843 45.7336 14.4843H44.8413C44.7015 14.4843 44.5504 14.2685 44.404 14.0602C44.1983 13.7668 43.9423 13.402 43.5123 13.402H42.9854C42.978 13.1883 42.9183 12.9546 42.7867 12.7606C42.6591 12.5731 42.4828 12.448 42.273 12.3919C42.2824 12.1586 42.2248 11.9585 42.1001 11.7937C41.9027 11.5332 41.5525 11.395 41.0875 11.3923C41.0857 11.3921 41.0841 11.3917 41.0822 11.3917L41.0779 11.3919L41.0736 11.3917C41.0718 11.3917 41.0704 11.3921 41.0685 11.3923C40.6033 11.395 40.2531 11.5332 40.056 11.7937C39.9313 11.9585 39.8736 12.1586 39.8828 12.3919C39.6732 12.448 39.497 12.5731 39.3694 12.7606C39.2375 12.9546 39.1778 13.1883 39.1704 13.402H38.6435C38.2135 13.402 37.9575 13.7668 37.7518 14.0602C37.6057 14.2685 37.4543 14.4843 37.3145 14.4843H36.4222C36.2529 14.4843 36.1155 14.6217 36.1155 14.791C36.1155 14.9603 36.2529 15.0977 36.4222 15.0977H36.8614C36.8047 15.1731 36.7498 15.2498 36.697 15.325C36.4747 15.6417 36.265 15.9411 36.0216 15.9411H36.0131H34.8204C34.6511 15.9411 34.5137 16.0785 34.5137 16.2478C34.5137 16.4171 34.6511 16.5545 34.8204 16.5545H35.7064V22.4074H32.8015C32.769 21.9528 32.6825 21.3329 32.4979 20.7716H34.0706C34.1902 20.7716 34.2986 20.7023 34.3489 20.594C34.3992 20.4856 34.3818 20.358 34.3047 20.2666L32.8182 18.5123V15.6599V14.0872C32.8182 13.9561 32.7358 13.8451 32.6201 13.8011C32.5835 13.2906 32.4529 12.2445 31.993 11.9084C31.9403 11.8701 31.8771 11.8493 31.8119 11.8493H31.8035V11.6653C31.8035 11.496 31.6663 11.3586 31.4968 11.3586C31.3275 11.3586 31.1901 11.496 31.1901 11.6653V11.8493H31.1817C31.1167 11.8493 31.0533 11.8701 31.0007 11.9084C30.5454 12.241 30.4129 13.2687 30.3749 13.7846C30.225 13.8048 30.1091 13.9318 30.1091 14.0872V15.6599V15.9411H28.9438L27.8738 11.5849C28.0351 11.6878 28.2253 11.7495 28.4304 11.7495C29.0035 11.7495 29.4697 11.2833 29.4697 10.7102C29.4697 10.1371 29.0035 9.67089 28.4304 9.67089C28.1447 9.67089 27.8859 9.78682 27.6978 9.97411C27.6943 9.97064 27.69 9.96798 27.6865 9.96471V9.16811C27.6865 8.99881 27.5491 8.86141 27.3798 8.86141H26.8719L26.5376 7.93455C26.5274 7.68183 26.4393 6.65766 25.7044 6.07758C25.7016 6.07513 25.6987 6.07247 25.6958 6.07022C25.6926 6.06756 25.6899 6.0647 25.6866 6.06245C25.6813 6.05836 25.6756 6.05571 25.6701 6.05202C25.6611 6.04609 25.6521 6.03996 25.6425 6.03485C25.6331 6.02974 25.6232 6.02585 25.6132 6.02176C25.6053 6.0187 25.5971 6.01522 25.5887 6.01276C25.5776 6.00949 25.5664 6.00704 25.5552 6.005C25.5472 6.00357 25.5392 6.00214 25.531 6.00132C25.52 6.00009 25.5089 5.99988 25.4977 6.00009C25.4889 6.00009 25.4801 6.00009 25.4715 6.00091C25.4611 6.00193 25.4509 6.00397 25.4407 6.00581C25.4315 6.00765 25.4223 6.00949 25.4131 6.01236C25.4032 6.01522 25.3934 6.0191 25.3838 6.02298C25.3752 6.02666 25.3666 6.02994 25.3583 6.03444C25.348 6.03976 25.3386 6.0463 25.329 6.05264C25.3237 6.05611 25.3182 6.05857 25.3133 6.06245C25.3102 6.0647 25.3075 6.06756 25.3045 6.07001C25.3014 6.07247 25.2983 6.07513 25.2955 6.07779C24.5606 6.65765 24.4725 7.68183 24.4623 7.93455L24.1282 8.86141H23.6203C23.4508 8.86141 23.3136 8.99881 23.3136 9.16811V9.96471C23.3101 9.96798 23.3056 9.97064 23.3021 9.97411C23.114 9.78682 22.8552 9.67089 22.5695 9.67089C21.9964 9.67089 21.5302 10.1371 21.5302 10.7102C21.5302 11.2833 21.9964 11.7495 22.5695 11.7495C22.7746 11.7495 22.9648 11.6878 23.1261 11.5849L22.0561 15.9411H20.8908V15.6599V14.0872C20.8908 13.9318 20.7749 13.8048 20.625 13.7846C20.587 13.2687 20.4545 12.241 19.9992 11.9084C19.9466 11.8701 19.8832 11.8493 19.8182 11.8493L19.8098 11.6653C19.8098 11.496 19.6726 11.3586 19.5031 11.3586C19.3336 11.3586 19.1964 11.496 19.1964 11.6653V11.8493H19.188C19.123 11.8493 19.0596 11.8701 19.0071 11.9084C18.5472 12.2445 18.4164 13.2906 18.3798 13.8011C18.2641 13.8451 18.1817 13.9561 18.1817 14.0872V15.6599V18.5123L16.6954 20.2666C16.6181 20.358 16.6009 20.4856 16.651 20.594C16.7013 20.7023 16.8099 20.7716 16.9293 20.7716H18.5023C18.3176 21.3329 18.2309 21.9528 18.1986 22.4074H15.2935V16.5545H16.1795C16.349 16.5545 16.4862 16.4171 16.4862 16.2478C16.4862 16.0785 16.349 15.9411 16.1795 15.9411H14.9868H14.9783C14.7349 15.9411 14.5252 15.6417 14.3029 15.325C14.2501 15.2498 14.1954 15.1731 14.1385 15.0977H14.5777C14.7472 15.0977 14.8844 14.9603 14.8844 14.791C14.8844 14.6217 14.7472 14.4843 14.5777 14.4843H13.6854C13.5456 14.4843 13.3945 14.2685 13.2481 14.0602C13.0424 13.7668 12.7864 13.402 12.3564 13.402H11.8295C11.8221 13.1883 11.7624 12.9546 11.6307 12.7606C11.5031 12.5731 11.3269 12.448 11.1171 12.3919C11.1265 12.1586 11.0688 11.9585 10.9441 11.7937C10.7468 11.5332 10.3966 11.395 9.93159 11.3923C9.92975 11.3921 9.92812 11.3917 9.92628 11.3917L9.92198 11.3919L9.91769 11.3917C9.91585 11.3917 9.91442 11.3921 9.91258 11.3923C9.44743 11.395 9.09728 11.5332 8.89999 11.7937C8.77533 11.9585 8.71757 12.1586 8.72691 12.3919C8.51719 12.448 8.34098 12.5731 8.21335 12.7606C8.08165 12.9546 8.02191 13.1883 8.01457 13.402H7.48765C7.05756 13.402 6.80156 13.7668 6.59591 14.0602C6.44965 14.2685 6.29839 14.4843 6.15862 14.4843H5.2663C5.09682 14.4843 4.9596 14.6217 4.9596 14.791C4.9596 14.9603 5.09682 15.0977 5.2663 15.0977H5.70552C5.64871 15.1731 5.59386 15.2498 5.54114 15.325C5.31895 15.6417 5.10904 15.9411 4.86577 15.9411H3.66452C3.49502 15.9411 3.35782 16.0785 3.35782 16.2478C3.35782 16.4171 3.49502 16.5545 3.66452 16.5545H4.55907V22.6016L3.07267 24.3559C2.99552 24.4473 2.97819 24.5749 3.02842 24.6833C3.07866 24.7917 3.18721 24.861 3.3067 24.861H4.55907V38.8159V40.1705V43.4931C4.55907 43.6623 4.69626 43.7998 4.86577 43.7998H18.4884H21.2147H25.5H29.7852H32.5115H46.1342C46.3037 43.7998 46.4409 43.6623 46.4409 43.4931V40.1705V38.8159V24.861H47.6933C47.8129 24.861 47.9212 24.7917 47.9715 24.6833C48.0218 24.5749 48.0045 24.4473 47.9274 24.3559L46.4409 22.6016Z" fill="#858585"/>
</g>
<defs>
<clipPath id="clip0_8776_1500">
<rect width="45" height="37.7998" fill="white" transform="translate(3 6)"/>
</clipPath>
</defs>
</svg>
