<svg width="50" height="50" viewBox="0 0 50 50" fill="none" xmlns="http://www.w3.org/2000/svg">
<path d="M10.8721 30.7763C10.8721 30.7763 11.452 29.0894 12.8226 29.0894C14.1933 29.0894 14.8786 30.7763 14.8786 30.7763V34.0185H10.8721V30.7763Z" fill="#FFCC05"/>
<path d="M36.335 30.8017C36.335 30.8017 36.9149 29.1147 38.2855 29.1147C39.6562 29.1147 40.3415 30.8017 40.3415 30.8017V34.0439H36.335V30.8017Z" fill="#FFCC05"/>
<path d="M25.5452 13.0977C25.3846 13.2233 25.3777 13.2652 25.3916 13.9774L25.4056 14.7175L24.9029 15.0387C24.6236 15.2132 23.7997 15.7299 23.0596 16.1837L21.726 17.0076L19.9875 17.0007C19.0379 16.9937 18.1861 17.0146 18.1023 17.0425C17.8998 17.1054 17.8579 17.3498 17.844 18.5088L17.837 19.4234L16.1054 20.5057L14.3669 21.5879H12.1675H9.96815L9.83548 21.7555C9.72377 21.8881 9.70283 22.0348 9.70283 22.6282C9.70283 23.2846 9.68886 23.3544 9.54922 23.487C9.45845 23.5638 8.85799 23.878 8.20167 24.1992C7.55234 24.5134 6.96584 24.7997 6.90998 24.8346C6.85412 24.8695 6.61673 24.9882 6.38632 25.0999C3.42591 26.5382 3.26532 26.636 3.41893 27.027C3.50271 27.2504 3.63537 27.2713 5.12954 27.2644C6.21177 27.2644 6.39331 27.2783 6.46313 27.383C6.52597 27.4668 6.53993 28.5281 6.51898 31.8656C6.50502 34.2674 6.47709 36.2573 6.45614 36.2783C6.4352 36.2992 5.70208 36.3132 4.82233 36.3201C3.06284 36.3201 3 36.3341 3 36.7461C3 36.9136 3.04189 37.0044 3.16059 37.0672C3.28627 37.144 7.41968 37.165 24.6096 37.1789C36.3256 37.1929 46.317 37.1789 46.8267 37.158C47.3434 37.1301 47.7902 37.0742 47.8461 37.0323C48.0276 36.8927 48.0486 36.6693 47.9089 36.4877C47.7763 36.3271 47.7623 36.3271 46.1634 36.3201C45.2767 36.3201 44.5366 36.2992 44.5086 36.2783C44.4877 36.2503 44.4598 34.2674 44.4528 31.8586C44.4318 27.7252 44.4388 27.4808 44.5575 27.3691C44.6553 27.2853 44.8438 27.2574 45.4722 27.2574C45.912 27.2574 46.2961 27.2713 46.331 27.2853C46.3938 27.3202 46.6033 27.3132 47.1199 27.2574C47.5528 27.2155 47.7483 26.9152 47.5319 26.636C47.4551 26.5312 46.4706 26.0285 43.7057 24.66C43.3426 24.4785 42.9935 24.3039 42.9377 24.269C42.8818 24.2341 42.5257 24.0665 42.1557 23.892C41.7786 23.7105 41.4226 23.501 41.3667 23.4172C41.2899 23.3055 41.262 23.0821 41.262 22.5933C41.262 21.546 41.4086 21.6088 39.1045 21.5949L37.2054 21.5739L35.5157 20.5266L33.826 19.4793L33.819 18.4529C33.8051 17.2939 33.7771 17.1124 33.5886 17.0495C33.5188 17.0286 32.6391 17.0076 31.6266 16.9937L29.7973 16.9797L28.0099 15.8626L26.2155 14.7454V13.9983C26.2155 13.4258 26.1946 13.2233 26.1108 13.1465C25.9223 12.972 25.7198 12.951 25.5452 13.0977ZM26.5157 15.8975C26.8649 16.1069 27.1581 16.3164 27.1581 16.3653C27.1581 16.463 24.463 16.491 24.4002 16.3932C24.3583 16.3234 25.6849 15.4716 25.8036 15.4995C25.8455 15.5065 26.1666 15.688 26.5157 15.8975ZM24.8959 17.3288C24.9099 17.3637 24.6725 17.5732 24.3653 17.7896L23.8137 18.1806L22.8152 18.1876C22.2636 18.1946 21.7749 18.1736 21.726 18.1457C21.6143 18.0689 21.726 17.9642 22.4103 17.5453L22.9339 17.2241L23.9044 17.238C24.477 17.252 24.8889 17.2869 24.8959 17.3288ZM29.2527 17.6011C29.5809 17.8036 29.8602 18.027 29.8672 18.0899C29.8881 18.2016 29.8043 18.2086 28.8198 18.1876L27.7516 18.1667L27.2279 17.7896C26.9417 17.5802 26.6903 17.3986 26.6763 17.3916C26.6694 17.3777 26.6763 17.3428 26.7043 17.3009C26.7322 17.252 27.1022 17.2241 27.7027 17.2241H28.6593L29.2527 17.6011ZM20.2318 17.8664C20.1969 17.9712 18.8354 18.83 18.7656 18.7881C18.7028 18.7462 18.6888 17.8944 18.7516 17.8315C18.7796 17.8106 19.1217 17.7896 19.5267 17.7896C20.0433 17.7896 20.2458 17.8106 20.2318 17.8664ZM27.2908 18.8439C28.0029 19.3536 28.5894 19.8075 28.6034 19.8494C28.6313 19.9401 23.0526 19.9611 22.9968 19.8703C22.9828 19.8424 23.5972 19.3606 24.3722 18.802C25.4684 18.0131 25.8036 17.8036 25.8943 17.8525C25.9572 17.8874 26.5856 18.3342 27.2908 18.8439ZM32.9393 17.8664C33.044 17.9712 33.051 18.7043 32.9463 18.809C32.8904 18.8649 32.646 18.7462 32.0735 18.3971C31.6406 18.1248 31.2985 17.8734 31.3194 17.8455C31.3753 17.7477 32.8415 17.7687 32.9393 17.8664ZM22.5709 19.0115C22.5988 19.0394 22.4801 19.1651 22.3125 19.2908C22.1449 19.4165 21.9774 19.612 21.9355 19.7307L21.8657 19.9331L20.3156 19.9401C19.1426 19.9401 18.7726 19.9262 18.8005 19.8563C18.8145 19.8144 19.1217 19.591 19.4778 19.3746L20.1341 18.9696H21.328C21.9913 18.9696 22.5499 18.9906 22.5709 19.0115ZM32.1503 19.3955C32.4924 19.612 32.7857 19.8214 32.7996 19.8633C32.8346 19.968 29.8951 19.9611 29.7624 19.8563C29.7136 19.8214 29.6717 19.7307 29.6717 19.6608C29.6717 19.591 29.532 19.4374 29.3575 19.3117C29.1899 19.193 29.0642 19.0604 29.0852 19.0255C29.1061 18.9906 29.6647 18.9766 30.328 18.9906L31.5289 19.0115L32.1503 19.3955ZM34.9292 21.1271C35.2643 21.3296 35.5227 21.5181 35.5087 21.546C35.4598 21.6158 16.1264 21.5879 16.1403 21.5111C16.1473 21.4762 16.4057 21.2877 16.7129 21.0991L17.2784 20.7431L25.7966 20.75L34.3217 20.757L34.9292 21.1271ZM16.8106 22.712C16.8246 22.9494 16.8036 23.0262 16.664 23.1309C16.4894 23.2776 16.5662 23.2706 14.2272 23.1938C13.6198 23.1728 13.1241 23.1798 13.1241 23.2077C13.1241 23.2427 12.5864 23.2636 11.9231 23.2566C10.7641 23.2496 10.7222 23.2496 10.5965 23.096C10.4569 22.9145 10.4429 22.8237 10.5337 22.5794L10.5965 22.4188H13.6966L16.7897 22.4258L16.8106 22.712ZM18.4025 25.1837C18.4025 26.6988 18.4165 28.2139 18.4305 28.5421C18.4374 28.8772 18.4305 29.1775 18.4095 29.2124C18.3816 29.2543 18.3676 30.8392 18.3746 32.7383C18.3746 34.6375 18.3606 36.2294 18.3327 36.2783C18.2699 36.383 17.7532 36.376 17.6904 36.2713C17.6275 36.1735 17.6415 30.0223 17.6973 29.9245C17.7253 29.8896 17.7183 29.8268 17.6904 29.7779C17.6345 29.6871 17.6275 28.7446 17.6834 28.4513C17.7043 28.3466 17.6973 28.2418 17.6624 28.2209C17.6136 28.193 17.6136 27.802 17.6624 27.802C17.6973 27.802 17.6973 27.404 17.6624 27.383C17.6136 27.3551 17.6345 26.3637 17.6904 26.0844C17.7113 25.9796 17.7043 25.8749 17.6764 25.854C17.6066 25.7841 17.6066 25.3094 17.6694 25.1767C17.7043 25.1139 17.7043 25.044 17.6834 25.0161C17.6275 24.9603 17.6485 22.5444 17.7043 22.4467C17.7253 22.4118 17.8928 22.3908 18.0674 22.4048L18.3956 22.4258L18.4025 25.1837ZM31.7104 22.6352C31.7733 22.8656 31.7244 36.1875 31.6616 36.2922C31.6057 36.376 30.6003 36.376 30.5444 36.2852C30.5165 36.2433 30.4886 34.3512 30.4816 32.075C30.4676 29.2682 30.4327 27.795 30.3769 27.4878C29.93 25.0231 27.8703 23.2217 25.5173 23.2287C25.0565 23.2287 24.0231 23.3963 23.8276 23.501C23.7578 23.5359 23.4855 23.6686 23.2132 23.8012C22.6197 24.0875 21.7609 24.8695 21.3629 25.5049C21.0418 26.0146 20.8602 26.4544 20.6508 27.2434C20.5111 27.781 20.5041 27.9765 20.4832 32.0122C20.4692 34.3302 20.4413 36.2503 20.4204 36.2852C20.3575 36.39 19.3591 36.369 19.2962 36.2713C19.2404 36.1805 19.2544 30.4482 19.3172 29.757C19.3381 29.5196 19.3172 29.2193 19.2823 29.0727C19.2404 28.9331 19.2334 28.8004 19.2613 28.7865C19.2893 28.7655 19.3032 28.5979 19.2893 28.4164C19.2683 28.2349 19.2613 27.9695 19.2613 27.8369C19.2613 23.4312 19.2753 22.4816 19.3102 22.4467C19.3312 22.4188 22.117 22.4048 25.5033 22.4118L31.6546 22.4258L31.7104 22.6352ZM33.3024 22.5724C33.4141 22.8517 33.3861 28.8144 33.2814 28.947C33.2325 29.0029 33.2325 29.0308 33.2674 29.0099C33.3442 28.961 33.3442 36.1596 33.2674 36.2852C33.2046 36.383 32.6949 36.376 32.6321 36.2713C32.6041 36.2294 32.5832 34.5607 32.5902 32.5638C32.5972 30.5739 32.5832 28.9051 32.5553 28.8563C32.4854 28.7515 32.4645 28.6049 32.5204 28.6049C32.5692 28.6049 32.5553 24.7438 32.5064 24.5343C32.4924 24.4715 32.4994 24.4157 32.5204 24.4157C32.5483 24.4157 32.5623 24.0037 32.5483 23.501C32.5343 22.9983 32.5413 22.5375 32.5623 22.4886C32.5902 22.4258 32.7159 22.3908 32.9183 22.3908C33.1976 22.3908 33.2465 22.4118 33.3024 22.5724ZM40.3962 22.4746C40.4869 22.6143 40.4451 23.0262 40.3403 23.1309C40.2426 23.2287 40.0541 23.2427 39.0137 23.2217C37.4009 23.1938 36.7585 23.1938 35.4459 23.2217C34.6499 23.2357 34.3217 23.2217 34.2449 23.1589C34.1472 23.0751 34.0913 22.5305 34.1751 22.4467C34.2449 22.3769 40.3543 22.4048 40.3962 22.4746ZM13.927 24.0945C14.311 24.0945 15.0721 24.0805 15.6237 24.0735C16.3149 24.0665 16.657 24.0805 16.7268 24.1434C16.8735 24.269 16.8455 24.5832 16.671 24.7438C16.4964 24.8904 16.65 24.8904 14.0178 24.7927C13.522 24.7787 13.1241 24.7857 13.1241 24.8136C13.1241 24.8485 12.2513 24.8695 11.19 24.8695C9.66093 24.8695 9.25597 24.8485 9.22804 24.7787C9.19313 24.674 9.40259 24.4157 9.52129 24.4157C9.57017 24.4157 9.73075 24.3458 9.87738 24.262C10.1218 24.1294 10.2963 24.1015 11.3087 24.0735C11.9441 24.0456 12.6353 24.0456 12.8448 24.0665C13.0542 24.0805 13.543 24.0945 13.927 24.0945ZM35.4668 24.0665C35.5995 24.0665 35.9137 24.0526 36.165 24.0386C36.4164 24.0316 36.6538 24.0386 36.6887 24.0596C36.8074 24.1224 37.9385 24.1154 38.0711 24.0526C38.1549 24.0107 38.2317 24.0177 38.2946 24.0665C38.3504 24.1154 38.4272 24.1294 38.4691 24.1015C38.518 24.0735 39.0207 24.0526 39.5932 24.0526C40.5149 24.0526 40.6685 24.0665 40.9129 24.1992C41.0665 24.283 41.241 24.3458 41.2969 24.3458C41.3457 24.3458 41.4854 24.4296 41.6111 24.5274C41.9741 24.8416 41.8275 24.8835 40.6196 24.8555C39.3489 24.8206 37.2193 24.8136 35.5646 24.8485C34.629 24.8625 34.3497 24.8485 34.2589 24.7717C34.1193 24.66 34.0983 24.2551 34.231 24.1503C34.3217 24.0735 34.6918 24.0247 35.013 24.0456C35.1317 24.0596 35.3341 24.0665 35.4668 24.0665ZM26.0619 24.3458C27.3955 24.5413 28.6243 25.6375 29.1829 27.1317L29.3435 27.5716L29.3365 31.9005C29.3365 34.2814 29.3156 36.2503 29.2876 36.2713C29.2388 36.3201 21.7051 36.2992 21.6562 36.2503C21.6353 36.2294 21.6143 34.8749 21.6073 33.2271C21.6003 31.5863 21.5864 29.743 21.5794 29.1286C21.5584 28.2837 21.5864 27.8997 21.6702 27.5506C22.117 25.6934 23.6461 24.3598 25.4126 24.283C25.5103 24.283 25.8036 24.3109 26.0619 24.3458ZM10.2055 25.6724C11.211 25.6724 12.1186 25.6794 12.2164 25.6934C12.384 25.7004 13.6687 25.7004 15.6725 25.6864C16.273 25.6794 16.678 25.7073 16.7338 25.7562C16.8595 25.8609 16.8455 26.1612 16.7059 26.3148C16.6011 26.4335 16.3358 26.4405 11.19 26.4405C7.27305 26.4405 5.78586 26.4195 5.80681 26.3637C5.82077 26.3218 6.10006 26.1472 6.42123 25.9796C6.99377 25.6864 7.03566 25.6724 7.59423 25.6794C7.91541 25.6864 8.19469 25.6724 8.21564 25.6445C8.23658 25.6236 8.27847 25.6236 8.3064 25.6375C8.34131 25.6585 9.19313 25.6724 10.2055 25.6724ZM44.362 25.8819C44.8228 26.0914 45.0044 26.245 44.9276 26.3706C44.8996 26.4195 43.2239 26.4405 39.5793 26.4335C34.4893 26.4265 34.2729 26.4265 34.21 26.3008C34.1193 26.1333 34.1193 25.8609 34.21 25.7702C34.2449 25.7353 36.1301 25.7004 39.0975 25.6934L43.9221 25.6864L44.362 25.8819ZM7.96428 27.39C8.05505 27.4738 8.06901 27.9695 8.04807 31.8516C8.04108 34.2604 8.01315 36.2503 7.99221 36.2922C7.93635 36.376 7.4895 36.376 7.43364 36.2852C7.41269 36.2503 7.38476 34.2465 7.37778 31.8307L7.35684 27.4319L7.53139 27.3272C7.71292 27.2155 7.76878 27.2294 7.96428 27.39ZM16.7059 27.3412C16.8036 27.418 16.8106 27.9486 16.7827 31.8307C16.7687 34.2534 16.7408 36.2503 16.7268 36.2643C16.6919 36.3062 9.0116 36.3132 8.9697 36.2713C8.94876 36.2573 8.92083 34.2534 8.89988 31.8307C8.87195 27.5576 8.87195 27.418 9.00461 27.3272C9.19313 27.1945 16.5453 27.2085 16.7059 27.3412ZM35.4808 27.3132C35.5157 27.3551 35.5366 27.3621 35.5366 27.3132C35.5366 27.2644 36.6398 27.2434 38.7205 27.2504H41.9113L42.044 27.418C42.1627 27.5646 42.1696 27.6693 42.1277 28.9121C42.0998 29.6453 42.0719 31.5863 42.0649 33.2271C42.0579 34.8749 42.037 36.2364 42.016 36.2573C41.9602 36.3062 34.2868 36.3132 34.238 36.2643C34.217 36.2433 34.1891 34.2465 34.1751 31.8237C34.1542 28.4932 34.1681 27.411 34.231 27.3621C34.3916 27.2294 35.397 27.1876 35.4808 27.3132ZM43.4753 27.3621C43.6149 27.5227 43.6149 27.5855 43.594 31.8725C43.58 34.2604 43.5521 36.2503 43.5311 36.2852C43.4683 36.383 43.0284 36.369 42.9656 36.2713C42.9377 36.2294 42.9237 34.819 42.9446 33.1503C42.9586 31.4746 42.9726 29.4986 42.9726 28.7585C42.9726 27.5017 42.9796 27.397 43.1052 27.3062C43.2868 27.1806 43.3077 27.1806 43.4753 27.3621Z" fill="#858585"/>
<path d="M12.0213 28.1238C11.2254 28.3403 10.6738 28.7382 10.2968 29.3876C9.86386 30.1277 9.80801 30.4838 9.81499 32.6552C9.81499 34.7289 9.83594 34.8476 10.1781 34.9384C10.4224 35.0082 15.1912 35.0082 15.4495 34.9384C15.5682 34.9034 15.673 34.8127 15.7149 34.694C15.7568 34.5962 15.8056 33.8631 15.8266 33.0741C15.8755 31.3077 15.7637 30.2254 15.4775 29.6878C15.4356 29.611 15.3588 29.4644 15.3029 29.3597C15.1633 29.0734 14.6187 28.5497 14.2905 28.3822C13.8856 28.1797 13.1455 27.9772 12.8103 27.9842C12.6567 27.9842 12.3006 28.047 12.0213 28.1238ZM13.4666 29.213C13.9833 29.4225 14.507 29.9811 14.6187 30.4558C14.7164 30.8259 14.7234 33.7584 14.6326 33.8282C14.5419 33.898 11.0997 33.898 10.988 33.8282C10.8972 33.7723 10.9112 30.6234 11.0019 30.386C11.2184 29.8135 11.7909 29.2898 12.3635 29.1362C12.7614 29.0315 13.0756 29.0524 13.4666 29.213Z" fill="#858585"/>
<path d="M37.2487 28.1321C36.1456 28.4533 35.4473 29.2074 35.175 30.3664C35.0773 30.7714 35.0494 34.2834 35.1401 34.6255C35.2309 34.9746 35.3287 34.9886 37.7724 35.0165C40.3907 35.0444 40.7328 35.0095 40.9353 34.7302C41.0749 34.5487 41.0819 34.444 41.0889 32.6705C41.0889 30.6038 41.0261 30.1849 40.6281 29.4727C40.2301 28.7675 39.6506 28.3346 38.7918 28.1042C38.1843 27.9436 37.8701 27.9506 37.2487 28.1321ZM38.5963 29.1655C39.0711 29.2772 39.6157 29.7869 39.8251 30.3036C39.9299 30.548 40.0206 31.2252 39.9578 31.2881C39.9089 31.3299 39.9229 32.098 39.9787 32.9707C39.9997 33.278 39.9857 33.6061 39.9508 33.6969L39.8949 33.8575L38.0447 33.8714L36.2014 33.8784L36.1944 32.3074C36.1944 31.4417 36.2224 30.6248 36.2573 30.4921C36.4388 29.8358 37.0323 29.2842 37.7165 29.1306C37.9539 29.0817 38.2053 29.0538 38.2611 29.0747C38.317 29.0957 38.4706 29.1376 38.5963 29.1655Z" fill="#858585"/>
</svg>
