<svg id="Layer_1" data-name="Layer 1" xmlns="http://www.w3.org/2000/svg" viewBox="0 0 65 65"><defs><style>.cls-1{fill:#494949;}.cls-2{fill:#ffda66;}</style></defs><title>Icons for day pass and all the lists</title><path class="cls-1" d="M37.424,17.174a.75.75,0,0,1-.75-.75v-2.7a6.8,6.8,0,0,0-13.595,0v2.705a.75.75,0,0,1-1.5,0v-2.7a8.3,8.3,0,0,1,16.6,0v2.705A.75.75,0,0,1,37.424,17.174Z"/><rect class="cls-2" x="9.593" y="27.611" width="54.132" height="31.217" rx="6.47" ry="6.47"/><path class="cls-1" d="M51.521,52.088H8.232A7.716,7.716,0,0,1,.524,44.381V26.1A7.717,7.717,0,0,1,8.232,18.4H51.521A7.716,7.716,0,0,1,59.228,26.1V44.381A7.715,7.715,0,0,1,51.521,52.088ZM8.232,19.9A6.215,6.215,0,0,0,2.024,26.1V44.381a6.214,6.214,0,0,0,6.208,6.207H51.521a6.214,6.214,0,0,0,6.207-6.207V26.1A6.215,6.215,0,0,0,51.521,19.9Z"/><path class="cls-1" d="M37.424,24.166H22.329a.75.75,0,0,1,0-1.5h15.1a.75.75,0,0,1,0,1.5Z"/><path class="cls-1" d="M45.644,35.276h-20.6a.75.75,0,1,1,0-1.5h20.6a.75.75,0,0,1,0,1.5Z"/><path class="cls-1" d="M35.884,40.352H25.048a.75.75,0,1,1,0-1.5H35.884a.75.75,0,0,1,0,1.5Z"/><path class="cls-1" d="M13.674,34.96A3.954,3.954,0,0,1,9.94,30.827a3.954,3.954,0,0,1,3.734-4.134,3.954,3.954,0,0,1,3.735,4.134A3.954,3.954,0,0,1,13.674,34.96Zm0-7.067a2.759,2.759,0,0,0-2.533,2.934,2.759,2.759,0,0,0,2.533,2.934,2.759,2.759,0,0,0,2.534-2.934A2.759,2.759,0,0,0,13.674,27.893Z"/><path class="cls-1" d="M14.326,39.007h-1.3a.6.6,0,0,1-.555-.372l-.953-2.325a.6.6,0,0,1,.552-.828l3.142-.014h0a.6.6,0,0,1,.561.812l-.886,2.34A.6.6,0,0,1,14.326,39.007Zm-.9-1.2h.487l.43-1.136-1.38.006Z"/><path class="cls-1" d="M15.212,43.789H12.137a.6.6,0,0,1-.59-.709l.886-4.782a.6.6,0,0,1,.59-.49h1.3a.6.6,0,0,1,.59.49L15.8,43.08a.6.6,0,0,1-.59.709Zm-2.354-1.2h1.633l-.664-3.583h-.3Z"/><path class="cls-1" d="M20.96,43.789H6.389a.6.6,0,0,1-.6-.6,7.886,7.886,0,0,1,15.771,0A.6.6,0,0,1,20.96,43.789ZM7.015,42.59H20.333a6.686,6.686,0,0,0-13.318,0Z"/><path class="cls-1" d="M18.345,40.405H16.809a.6.6,0,1,1,0-1.2h1.536a.6.6,0,1,1,0,1.2Z"/></svg>