<?xml version="1.0" encoding="utf-8"?>
<!-- Generator: Adobe Illustrator 26.1.0, SVG Export Plug-In . SVG Version: 6.00 Build 0)  -->
<svg version="1.1" id="Layer_1" xmlns="http://www.w3.org/2000/svg" xmlns:xlink="http://www.w3.org/1999/xlink" x="0px" y="0px"
	 viewBox="0 0 100 100" style="enable-background:new 0 0 100 100;" xml:space="preserve">
<style type="text/css">
	.st0{fill:#FFDA66;}
	.st1{fill:none;stroke:#494949;stroke-width:2.75;stroke-linecap:round;stroke-miterlimit:10;}
</style>
<g>
	<path class="st0" d="M85.76,76.28H13.42C7.89,76.28,3.4,71.8,3.4,66.27V33.22c0-5.53,4.49-10.02,10.02-10.02h72.34
		c5.53,0,10.02,4.49,10.02,10.02v33.05C95.78,71.8,91.3,76.28,85.76,76.28z"/>
	<g>
		<path class="st1" d="M3.17,83.6V54.27c0-5.52,4.48-10,10-10h73.66c5.52,0,10,4.48,10,10V83.6"/>
		<path class="st1" d="M65.59,81.61c0,0.42-0.02,0.83-0.05,1.24H34.46c-0.03-0.41-0.05-0.82-0.05-1.24
			c0-8.61,6.98-15.59,15.59-15.59S65.59,73,65.59,81.61z"/>
		<line class="st1" x1="34.41" y1="60.83" x2="65.59" y2="60.83"/>
		<path class="st1" d="M66.51,44.27H33.49c-2.16,0-3.91-1.75-3.91-3.91v0c0-2.16,1.75-3.91,3.91-3.91h33.02
			c2.16,0,3.91,1.75,3.91,3.91v0C70.43,42.52,68.67,44.27,66.51,44.27z"/>
		<path class="st1" d="M64.78,36.39H35.22c-1.66,0-3-1.34-3-3V19.4c0-1.66,1.34-3,3-3h29.57c1.66,0,3,1.34,3,3v13.98
			C67.78,35.04,66.44,36.39,64.78,36.39z"/>
	</g>
</g>
</svg>
