<svg id="Layer_1" data-name="Layer 1" xmlns="http://www.w3.org/2000/svg" viewBox="0 0 65 65"><defs><style>.cls-1{fill:#ffda66;}.cls-2{fill:#494949;}</style></defs><title>Icons for day pass and all the lists</title><rect class="cls-1" x="1.438" y="16.993" width="56.662" height="32.676" rx="6.772" ry="6.772"/><path class="cls-2" d="M41.253,54.149H21.42a.785.785,0,0,1-.785-.785v-.829a10.7,10.7,0,0,1,21.4,0v.829A.785.785,0,0,1,41.253,54.149Zm-19.048-1.57,18.263-.044a9.132,9.132,0,0,0-18.263,0Z"/><path class="cls-2" d="M41.253,40.392H21.42a.785.785,0,0,1,0-1.57H41.253a.785.785,0,0,1,0,1.57Z"/><path class="cls-2" d="M62.777,54.149a.785.785,0,0,1-.785-.785V36.325a6.5,6.5,0,0,0-6.5-6.5H10.183a6.5,6.5,0,0,0-6.5,6.5V53.364a.785.785,0,0,1-1.57,0V36.325a8.076,8.076,0,0,1,8.067-8.067H55.5a8.076,8.076,0,0,1,8.067,8.067V53.364A.784.784,0,0,1,62.777,54.149Z"/><path class="cls-2" d="M42.261,25.059H23.418a2.594,2.594,0,0,1-2.591-2.592V13.442a2.594,2.594,0,0,1,2.591-2.591H42.261a2.594,2.594,0,0,1,2.591,2.591v9.025A2.594,2.594,0,0,1,42.261,25.059ZM23.418,12.421A1.022,1.022,0,0,0,22.4,13.442v9.025a1.023,1.023,0,0,0,1.021,1.022H42.261a1.023,1.023,0,0,0,1.021-1.022V13.442a1.022,1.022,0,0,0-1.021-1.021Z"/><path class="cls-2" d="M43.128,29.828H22.551a3.17,3.17,0,1,1,0-6.339H43.128a3.17,3.17,0,1,1,0,6.339ZM22.551,25.059a1.6,1.6,0,1,0,0,3.2H43.128a1.6,1.6,0,1,0,0-3.2Z"/></svg>