<svg width="50" height="50" viewBox="0 0 50 50" fill="none" xmlns="http://www.w3.org/2000/svg">
<g clip-path="url(#clip0_8776_617)">
<path d="M11.7188 19.8379L11.5781 45.237H19.0312V36.0885L19.2427 29.4825L20.4724 26.3888L22.7933 24.9004L25.7115 23.9621L29.262 24.9004L31.3005 27.4429L32.1094 30.6773V40.4153V45.237L39.4567 45.0919V33.5606L39.6334 23.4356V19.8379H11.7188Z" fill="white"/>
<path d="M39.6334 9.62061H11.5781V14.7765H39.6334V9.62061Z" fill="#FFCC05"/>
<path d="M42.0596 14.7764H9.15332V19.8366H42.0596V14.7764Z" fill="white"/>
<path d="M35.6387 4.604H15.248V9.66425H35.6387V4.604Z" fill="white"/>
<path d="M39.5387 15.2501H11.4014C11.2522 15.2501 11.1091 15.1908 11.0036 15.0853C10.8981 14.9798 10.8389 14.8367 10.8389 14.6876V9.70605C10.8389 9.55687 10.8981 9.4138 11.0036 9.30831C11.1091 9.20282 11.2522 9.14355 11.4014 9.14355H39.5387C39.6879 9.14355 39.831 9.20282 39.9365 9.30831C40.042 9.4138 40.1012 9.55687 40.1012 9.70605V14.6876C40.1012 14.8367 40.042 14.9798 39.9365 15.0853C39.831 15.1908 39.6879 15.2501 39.5387 15.2501ZM11.9639 14.1251H38.9762V10.2686H11.9639V14.1251Z" fill="#858585"/>
<path d="M41.9491 20.2371H8.99219C8.843 20.2371 8.69993 20.1779 8.59444 20.0724C8.48895 19.9669 8.42969 19.8238 8.42969 19.6746V14.6875C8.42969 14.5383 8.48895 14.3952 8.59444 14.2898C8.69993 14.1843 8.843 14.125 8.99219 14.125H41.9547C42.1039 14.125 42.2469 14.1843 42.3524 14.2898C42.4579 14.3952 42.5172 14.5383 42.5172 14.6875V19.6713C42.5176 19.7459 42.5032 19.8198 42.4748 19.8889C42.4464 19.9579 42.4045 20.0205 42.3517 20.0732C42.2988 20.1259 42.236 20.1675 42.1668 20.1956C42.0977 20.2238 42.0237 20.2379 41.9491 20.2371ZM9.55469 19.1121H41.3922V15.25H9.55469V19.1121Z" fill="#858585"/>
<path d="M39.539 45.7996H31.9037C31.7545 45.7996 31.6114 45.7403 31.5059 45.6348C31.4004 45.5293 31.3412 45.3862 31.3412 45.2371V30.3488C31.32 28.8278 30.7009 27.3763 29.6178 26.3082C28.5347 25.2402 27.0747 24.6414 25.5536 24.6414C24.0325 24.6414 22.5725 25.2402 21.4894 26.3082C20.4063 27.3763 19.7873 28.8278 19.766 30.3488L19.7885 45.2359C19.7885 45.3851 19.7293 45.5282 19.6238 45.6337C19.5183 45.7392 19.3752 45.7984 19.226 45.7984H11.5918C11.4426 45.7984 11.2995 45.7392 11.194 45.6337C11.0886 45.5282 11.0293 45.3851 11.0293 45.2359V19.6748C11.0293 19.5256 11.0886 19.3825 11.194 19.2771C11.2995 19.1716 11.4426 19.1123 11.5918 19.1123C11.741 19.1123 11.8841 19.1716 11.9895 19.2771C12.095 19.3825 12.1543 19.5256 12.1543 19.6748V44.6746H18.6624L18.6377 30.3499C18.6609 28.5319 19.3994 26.7962 20.6932 25.5187C21.987 24.2413 23.732 23.525 25.5502 23.525C27.3684 23.525 29.1134 24.2413 30.4073 25.5187C31.7011 26.7962 32.4396 28.5319 32.4628 30.3499V44.6746H38.9732V19.6748C38.9732 19.5256 39.0324 19.3825 39.1379 19.2771C39.2434 19.1716 39.3865 19.1123 39.5357 19.1123C39.6849 19.1123 39.8279 19.1716 39.9334 19.2771C40.0389 19.3825 40.0982 19.5256 40.0982 19.6748V45.2371C40.0982 45.3857 40.0394 45.5282 39.9346 45.6336C39.8299 45.739 39.6876 45.7987 39.539 45.7996Z" fill="#858585"/>
<path d="M35.5321 10.2685H15.4092C15.26 10.2685 15.1169 10.2092 15.0114 10.1037C14.9059 9.99826 14.8467 9.85518 14.8467 9.706V4.5625C14.8467 4.41332 14.9059 4.27024 15.0114 4.16475C15.1169 4.05926 15.26 4 15.4092 4H35.5321C35.6812 4 35.8243 4.05926 35.9298 4.16475C36.0353 4.27024 36.0946 4.41332 36.0946 4.5625V9.706C36.0946 9.85518 36.0353 9.99826 35.9298 10.1037C35.8243 10.2092 35.6812 10.2685 35.5321 10.2685ZM15.9717 9.1435H34.9696V5.125H15.9717V9.1435Z" fill="#858585"/>
<path d="M36.6893 28.4258H34.4922C34.343 28.4258 34.1999 28.3665 34.0944 28.261C33.989 28.1555 33.9297 28.0125 33.9297 27.8633C33.9297 27.7141 33.989 27.571 34.0944 27.4655C34.1999 27.36 34.343 27.3008 34.4922 27.3008H36.6893C36.8385 27.3008 36.9816 27.36 37.0871 27.4655C37.1925 27.571 37.2518 27.7141 37.2518 27.8633C37.2518 28.0125 37.1925 28.1555 37.0871 28.261C36.9816 28.3665 36.8385 28.4258 36.6893 28.4258Z" fill="#858585"/>
<path d="M36.6893 33.0181H34.4922C34.343 33.0181 34.1999 32.9588 34.0944 32.8533C33.989 32.7478 33.9297 32.6048 33.9297 32.4556C33.9297 32.3064 33.989 32.1633 34.0944 32.0578C34.1999 31.9523 34.343 31.8931 34.4922 31.8931H36.6893C36.8385 31.8931 36.9816 31.9523 37.0871 32.0578C37.1925 32.1633 37.2518 32.3064 37.2518 32.4556C37.2518 32.6048 37.1925 32.7478 37.0871 32.8533C36.9816 32.9588 36.8385 33.0181 36.6893 33.0181Z" fill="#FFCC05"/>
<path d="M36.6893 37.2134H34.4922C34.343 37.2134 34.1999 37.1541 34.0944 37.0486C33.989 36.9431 33.9297 36.8001 33.9297 36.6509C33.9297 36.5017 33.989 36.3586 34.0944 36.2531C34.1999 36.1476 34.343 36.0884 34.4922 36.0884H36.6893C36.8385 36.0884 36.9816 36.1476 37.0871 36.2531C37.1925 36.3586 37.2518 36.5017 37.2518 36.6509C37.2518 36.8001 37.1925 36.9431 37.0871 37.0486C36.9816 37.1541 36.8385 37.2134 36.6893 37.2134Z" fill="#FFCC05"/>
<path d="M36.6893 41.7998H34.4922C34.343 41.7998 34.1999 41.7405 34.0944 41.6351C33.989 41.5296 33.9297 41.3865 33.9297 41.2373C33.9297 41.0881 33.989 40.945 34.0944 40.8396C34.1999 40.7341 34.343 40.6748 34.4922 40.6748H36.6893C36.8385 40.6748 36.9816 40.7341 37.0871 40.8396C37.1925 40.945 37.2518 41.0881 37.2518 41.2373C37.2518 41.3865 37.1925 41.5296 37.0871 41.6351C36.9816 41.7405 36.8385 41.7998 36.6893 41.7998Z" fill="#FFCC05"/>
<path d="M16.5065 28.4258H14.3105C14.1614 28.4258 14.0183 28.3665 13.9128 28.261C13.8073 28.1555 13.748 28.0125 13.748 27.8633C13.748 27.7141 13.8073 27.571 13.9128 27.4655C14.0183 27.36 14.1614 27.3008 14.3105 27.3008H16.5065C16.6557 27.3008 16.7988 27.36 16.9043 27.4655C17.0098 27.571 17.069 27.7141 17.069 27.8633C17.069 28.0125 17.0098 28.1555 16.9043 28.261C16.7988 28.3665 16.6557 28.4258 16.5065 28.4258Z" fill="#858585"/>
<path d="M16.5065 33.0181H14.3105C14.1614 33.0181 14.0183 32.9588 13.9128 32.8533C13.8073 32.7478 13.748 32.6048 13.748 32.4556C13.748 32.3064 13.8073 32.1633 13.9128 32.0578C14.0183 31.9523 14.1614 31.8931 14.3105 31.8931H16.5065C16.6557 31.8931 16.7988 31.9523 16.9043 32.0578C17.0098 32.1633 17.069 32.3064 17.069 32.4556C17.069 32.6048 17.0098 32.7478 16.9043 32.8533C16.7988 32.9588 16.6557 33.0181 16.5065 33.0181Z" fill="#FFCC05"/>
<path d="M16.5065 37.2134H14.3105C14.1614 37.2134 14.0183 37.1541 13.9128 37.0486C13.8073 36.9431 13.748 36.8001 13.748 36.6509C13.748 36.5017 13.8073 36.3586 13.9128 36.2531C14.0183 36.1476 14.1614 36.0884 14.3105 36.0884H16.5065C16.6557 36.0884 16.7988 36.1476 16.9043 36.2531C17.0098 36.3586 17.069 36.5017 17.069 36.6509C17.069 36.8001 17.0098 36.9431 16.9043 37.0486C16.7988 37.1541 16.6557 37.2134 16.5065 37.2134Z" fill="#FFCC05"/>
<path d="M16.5065 41.7998H14.3105C14.1614 41.7998 14.0183 41.7405 13.9128 41.6351C13.8073 41.5296 13.748 41.3865 13.748 41.2373C13.748 41.0881 13.8073 40.945 13.9128 40.8396C14.0183 40.7341 14.1614 40.6748 14.3105 40.6748H16.5065C16.6557 40.6748 16.7988 40.7341 16.9043 40.8396C17.0098 40.945 17.069 41.0881 17.069 41.2373C17.069 41.3865 17.0098 41.5296 16.9043 41.6351C16.7988 41.7405 16.6557 41.7998 16.5065 41.7998Z" fill="#FFCC05"/>
<path d="M47.4371 45.7993H35.5908C35.4416 45.7993 35.2986 45.7401 35.1931 45.6346C35.0876 45.5291 35.0283 45.386 35.0283 45.2368C35.0283 45.0876 35.0876 44.9446 35.1931 44.8391C35.2986 44.7336 35.4416 44.6743 35.5908 44.6743H47.4371C47.5863 44.6743 47.7293 44.7336 47.8348 44.8391C47.9403 44.9446 47.9996 45.0876 47.9996 45.2368C47.9996 45.386 47.9403 45.5291 47.8348 45.6346C47.7293 45.7401 47.5863 45.7993 47.4371 45.7993Z" fill="#858585"/>
<path d="M15.4087 45.7993H3.5625C3.41332 45.7993 3.27024 45.7401 3.16475 45.6346C3.05926 45.5291 3 45.386 3 45.2368C3 45.0876 3.05926 44.9446 3.16475 44.8391C3.27024 44.7336 3.41332 44.6743 3.5625 44.6743H15.4087C15.5579 44.6743 15.701 44.7336 15.8065 44.8391C15.912 44.9446 15.9712 45.0876 15.9712 45.2368C15.9712 45.386 15.912 45.5291 15.8065 45.6346C15.701 45.7401 15.5579 45.7993 15.4087 45.7993Z" fill="#858585"/>
<path d="M43.9502 45.5294C43.801 45.5294 43.6579 45.4701 43.5524 45.3646C43.447 45.2591 43.3877 45.1161 43.3877 44.9669V40.6514C43.3877 40.5022 43.447 40.3591 43.5524 40.2536C43.6579 40.1481 43.801 40.0889 43.9502 40.0889C44.0994 40.0889 44.2425 40.1481 44.3479 40.2536C44.4534 40.3591 44.5127 40.5022 44.5127 40.6514V44.9669C44.5127 45.1161 44.4534 45.2591 44.3479 45.3646C44.2425 45.4701 44.0994 45.5294 43.9502 45.5294Z" fill="#858585"/>
<path d="M7.18359 45.5294C7.03441 45.5294 6.89134 45.4701 6.78585 45.3646C6.68036 45.2591 6.62109 45.1161 6.62109 44.9669V40.6514C6.62109 40.5022 6.68036 40.3591 6.78585 40.2536C6.89134 40.1481 7.03441 40.0889 7.18359 40.0889C7.33278 40.0889 7.47585 40.1481 7.58134 40.2536C7.68683 40.3591 7.74609 40.5022 7.74609 40.6514V44.9669C7.74609 45.1161 7.68683 45.2591 7.58134 45.3646C7.47585 45.4701 7.33278 45.5294 7.18359 45.5294Z" fill="#858585"/>
</g>
<defs>
<clipPath id="clip0_8776_617">
<rect width="45" height="41.7994" fill="white" transform="translate(3 4)"/>
</clipPath>
</defs>
</svg>
