<svg width="512" height="512" viewBox="0 0 512 512" fill="none" xmlns="http://www.w3.org/2000/svg">
<g clip-path="url(#clip0_3949_945)">
<circle cx="256" cy="547" r="200" fill="#FFE785"/>
<path d="M465.455 80.8181H46.545C20.839 80.8181 0 101.657 0 127.364V406.637C0 432.343 20.839 453.182 46.545 453.182H465.454C491.16 453.182 511.999 432.343 511.999 406.637V127.364C512 101.657 491.161 80.8181 465.455 80.8181ZM46.545 104.091H465.454C468.113 104.108 470.75 104.58 473.25 105.487L271.825 306.913C263.174 315.621 249.102 315.667 240.394 307.016C240.36 306.982 240.325 306.947 240.291 306.913L38.749 105.487C41.249 104.58 43.886 104.107 46.545 104.091ZM23.273 406.636V127.364C23.154 126.009 23.154 124.646 23.273 123.291L167.331 267L23.273 410.709C23.154 409.354 23.154 407.991 23.273 406.636ZM465.455 429.909H46.545C43.886 429.892 41.249 429.42 38.749 428.513L183.854 283.408L223.767 323.321C241.502 341.123 270.309 341.177 288.111 323.442C288.152 323.402 288.192 323.361 288.232 323.321L328.145 283.408L473.25 428.513C470.751 429.42 468.114 429.893 465.455 429.909ZM488.727 410.709L344.669 267L488.727 123.291C488.846 124.646 488.846 126.009 488.727 127.364V406.637C488.846 407.991 488.846 409.354 488.727 410.709Z" fill="#494949"/>
</g>
<defs>
<clipPath id="clip0_3949_945">
<rect width="512" height="512" fill="white"/>
</clipPath>
</defs>
</svg>
