<svg width="30" height="21" viewBox="0 0 30 21" fill="none" xmlns="http://www.w3.org/2000/svg">
<g clip-path="url(#clip0_7496_7985)">
<path d="M1.5 1.00098H28.5L27.5 2.00098L15 13.001L1.5 1.00098Z" fill="#FFDD2C"/>
<path d="M27.0464 20.7872H2.9536C2.17048 20.7864 1.4197 20.4748 0.86598 19.9211C0.312259 19.3673 0.000821697 18.6165 0 17.8334V2.95388C0.000821697 2.17077 0.312259 1.41995 0.86598 0.86618C1.4197 0.312406 2.17048 0.000896525 2.9536 0H27.0464C27.8295 0.000896525 28.5803 0.312406 29.134 0.86618C29.6877 1.41995 29.9992 2.17077 30 2.95388V17.8334C29.9992 18.6165 29.6877 19.3673 29.134 19.9211C28.5803 20.4748 27.8295 20.7864 27.0464 20.7872V20.7872ZM2.9536 1.12894C2.46978 1.12947 2.00594 1.32191 1.66385 1.66405C1.32177 2.00619 1.12939 2.47007 1.12894 2.95388V17.8334C1.12939 18.3172 1.32177 18.7811 1.66385 19.1232C2.00594 19.4653 2.46978 19.6578 2.9536 19.6583H27.0464C27.5302 19.6578 27.9941 19.4653 28.3361 19.1232C28.6782 18.7811 28.8706 18.3172 28.8711 17.8334V2.95388C28.8706 2.47007 28.6782 2.00619 28.3361 1.66405C27.9941 1.32191 27.5302 1.12947 27.0464 1.12894H2.9536Z" fill="#494949"/>
<path d="M15.0009 13.713C14.8633 13.713 14.7304 13.6629 14.6272 13.5718L1.02344 1.56326L1.77052 0.716553L15.0009 12.3966L28.2318 0.717964L28.9789 1.56467L15.3751 13.5733C15.2717 13.664 15.1385 13.7137 15.0009 13.713V13.713Z" fill="#494949"/>
<path d="M0.71875 19.0178L9.85763 8.60504L10.7066 9.35014L1.56772 19.7629L0.71875 19.0178Z" fill="#494949"/>
<path d="M19.3203 9.33447L20.1693 8.58937L29.3083 19.0024L28.4594 19.7475L19.3203 9.33447Z" fill="#494949"/>
</g>
<defs>
<clipPath id="clip0_7496_7985">
<rect width="30" height="21" fill="white"/>
</clipPath>
</defs>
</svg>
