<svg width="50" height="50" viewBox="0 0 50 50" fill="none" xmlns="http://www.w3.org/2000/svg">
<path d="M5.92611 24.6947C5.92611 24.6947 6.26802 23.6304 7.42318 23.6304C8.57835 23.6304 9.00912 24.6947 9.00912 24.6947L9.15593 25.5389H5.7793L5.92611 24.6947Z" fill="#FFCC05"/>
<path d="M15.0286 24.6947C15.0286 24.6947 15.3706 23.6304 16.5257 23.6304C17.6809 23.6304 18.1117 24.6947 18.1117 24.6947L18.2585 25.5389H14.8818L15.0286 24.6947Z" fill="#FFCC05"/>
<path d="M41.8949 24.6947C41.8949 24.6947 42.2368 23.6304 43.3919 23.6304C44.5471 23.6304 44.9779 24.6947 44.9779 24.6947L45.1247 25.5389H41.748L41.8949 24.6947Z" fill="#FFCC05"/>
<path d="M32.7923 24.6947C32.7923 24.6947 33.1342 23.6304 34.2894 23.6304C35.4446 23.6304 35.8753 24.6947 35.8753 24.6947L36.0221 25.5389H32.6455L32.7923 24.6947Z" fill="#FFCC05"/>
<path d="M20.791 19.1894C20.791 19.1894 22.3847 15.9229 25.1973 15.9229C28.0098 15.9229 30.0034 18.4553 30.0034 18.4553L30.297 19.1894L29.673 21.208H21.1947L20.791 19.1894Z" fill="#FFCC05"/>
<path d="M24.9432 13.1334C24.4734 13.3291 24.3266 13.7206 24.3266 14.7189V15.5802L22.8781 16.4708L21.4394 17.3615L21.3708 17.0679C21.2828 16.6274 21.0185 16.5002 20.764 16.7645C20.6564 16.8721 20.6074 17.107 20.6074 17.5475C20.6074 17.9292 20.5291 18.4185 20.4019 18.7904C20.2453 19.2407 20.2062 19.5343 20.2453 19.9258C20.304 20.513 20.7249 21.4526 21.0087 21.6288C21.1653 21.7267 21.1947 21.8637 21.1947 22.6369V23.5373L20.9011 23.6548C20.441 23.8407 20.2159 24.3007 20.2159 25.0348V25.6612L19.4623 26.1799C19.0415 26.4539 18.6695 26.6888 18.6304 26.6888C18.5815 26.6888 18.5521 26.5812 18.5521 26.4539C18.5521 26.2973 18.6206 26.1897 18.7478 26.1505C18.9827 26.0722 19.0219 25.6318 18.7968 25.5535C18.6989 25.5144 18.65 25.3578 18.65 25.1033C18.65 24.5454 18.4444 24.2322 17.6321 23.5667C17.0448 23.0871 16.898 22.9109 16.8687 22.6565C16.8099 22.0301 16.2031 22.079 16.2031 22.7152C16.2031 22.9794 16.1053 23.0969 15.4789 23.5862C14.7252 24.1833 14.4414 24.6237 14.4414 25.2109C14.4414 25.4165 14.3827 25.5046 14.2359 25.5437C13.9618 25.6122 14.0206 26.0135 14.324 26.1505C14.5197 26.2386 14.5393 26.3071 14.5393 27.0999V27.9612H12.0435H9.54773V27.0999C9.54773 26.3071 9.56731 26.2386 9.77284 26.1505C10.0665 26.0135 10.1252 25.6122 9.85114 25.5437C9.68476 25.5046 9.64561 25.4165 9.64561 25.0837C9.64561 24.5356 9.38135 24.1539 8.59836 23.5569C8.04048 23.136 7.92303 22.999 7.88389 22.7054C7.7958 22.0398 7.20856 22.0496 7.19877 22.7152C7.18898 22.9794 7.08132 23.0969 6.44515 23.596C5.66216 24.2126 5.43705 24.565 5.43705 25.1718C5.43705 25.4067 5.38811 25.5144 5.30003 25.5144C5.22173 25.5144 5.12385 25.6024 5.09449 25.7101C5.02598 25.9352 5.19237 26.1995 5.3979 26.1995C5.51535 26.1995 5.53492 27.0803 5.53492 31.5825V36.9655H4.41917C3.52852 36.9655 3.26426 36.9949 3.14681 37.1221C2.95106 37.3081 2.95106 37.406 3.14681 37.5919C3.28383 37.729 5.44684 37.7485 25.5011 37.7485C45.5554 37.7485 47.7184 37.729 47.8554 37.5919C48.0316 37.4158 48.0414 37.3668 47.9141 37.1613C47.8456 37.0438 47.5618 37.0047 46.6418 36.9851L45.4673 36.946V31.6119C45.4673 26.2876 45.4673 26.2778 45.6728 26.1114C45.8294 25.9939 45.8686 25.8863 45.8196 25.7297C45.7805 25.6122 45.7022 25.5144 45.6533 25.5144C45.6043 25.5144 45.5652 25.3773 45.5652 25.2012C45.5652 24.6531 45.2128 24.1343 44.4396 23.5275C43.7839 23.0284 43.7056 22.9305 43.7056 22.6369C43.7056 22.3824 43.6566 22.2845 43.5098 22.2356C43.226 22.1475 43.0205 22.353 43.0205 22.725C43.0205 22.999 42.9324 23.1067 42.3549 23.5471C41.5915 24.1246 41.3762 24.428 41.2979 25.0641C41.2587 25.3382 41.1804 25.5144 41.1021 25.5144C40.926 25.5144 40.8281 25.8863 40.9651 26.0527C41.0336 26.131 41.1706 26.1995 41.2685 26.1995C41.4349 26.1995 41.4545 26.2876 41.4545 27.0803V27.9612H38.9098H36.3651V27.0901C36.3651 26.3169 36.3846 26.2093 36.551 26.1505C36.8251 26.0624 36.874 25.8275 36.6587 25.6122C36.5314 25.485 36.4629 25.2795 36.4629 25.0446C36.4629 24.5258 36.1791 24.1343 35.3863 23.5373C34.7893 23.0871 34.7012 22.9794 34.7012 22.7152C34.7012 22.353 34.4957 22.1475 34.2118 22.2356C34.065 22.2845 34.0161 22.3824 34.0161 22.6271C34.0161 22.9207 33.928 23.0284 33.282 23.5569C32.4599 24.2224 32.2544 24.5356 32.2544 25.1033C32.2544 25.4067 32.2152 25.5046 32.0586 25.5437C31.7552 25.622 31.7944 26.082 32.1076 26.1603C32.2837 26.1995 32.3522 26.2876 32.3522 26.4539C32.3522 26.5812 32.3131 26.6888 32.2544 26.6888C32.2054 26.6888 31.8335 26.4539 31.4322 26.1799L30.708 25.6612L30.6688 24.9565C30.6395 24.3692 30.6003 24.2126 30.3948 23.9973C30.2578 23.8505 30.0522 23.6939 29.9348 23.645C29.7195 23.5667 29.7097 23.5079 29.7097 22.6565C29.7097 21.8343 29.7292 21.7267 29.9152 21.619C30.0229 21.5505 30.2382 21.2373 30.3752 20.9339C30.5807 20.4934 30.6395 20.239 30.6297 19.6909C30.6297 19.2896 30.571 18.8981 30.4927 18.7611C30.4144 18.6241 30.3263 18.1445 30.2969 17.6943C30.2578 17.0581 30.2088 16.8526 30.0816 16.7645C29.8467 16.6177 29.5824 16.7938 29.5139 17.1266C29.465 17.3811 29.4552 17.3811 28.0752 16.4806L26.6756 15.5802V14.7189C26.6756 13.701 26.5288 13.3291 26.0394 13.1236C25.6283 12.9572 25.3445 12.9572 24.9432 13.1334ZM25.8339 13.8283C25.9513 13.9359 25.9905 14.1806 25.9905 14.7091V15.4334H25.5011H25.0117V14.7287C25.0117 14.2198 25.0509 13.9849 25.1781 13.8478C25.3739 13.6325 25.6283 13.6227 25.8339 13.8283ZM27.6837 17.0189C29.416 18.0662 29.7488 18.3696 29.9641 19.1134C30.1305 19.6811 30.1012 20.0334 29.8369 20.6403L29.6803 21.0122H28.1731H26.6756V20.5717C26.6756 19.9747 26.4896 19.5637 26.0492 19.1722C25.6283 18.8002 25.5794 18.8002 25.1488 19.0645C24.679 19.3483 24.4147 19.8377 24.356 20.5228L24.2973 21.1101H22.8585C21.4394 21.1101 21.41 21.1101 21.2632 20.8752C20.9696 20.4347 20.8717 19.7985 20.9989 19.2602C21.1751 18.5262 21.6253 18.0858 23.1815 17.1266C24.5028 16.3045 24.6007 16.2653 25.2564 16.2066C25.6283 16.1772 26.0003 16.1479 26.0688 16.1381C26.1471 16.1283 26.8713 16.5198 27.6837 17.0189ZM25.736 19.8573C25.8241 19.9845 25.8926 20.2781 25.8926 20.5424V21.0122H25.5011H25.1096V20.5424C25.1096 20.102 25.3054 19.6419 25.5011 19.6419C25.55 19.6419 25.6577 19.7398 25.736 19.8573ZM29.1224 22.676V23.5569H28.5352H27.9479V23.1262C27.9479 22.725 27.7718 22.3824 27.5662 22.3824C27.3803 22.3824 27.2628 22.6565 27.2628 23.0871V23.5569H26.5777H25.8926V23.1262C25.8926 22.7152 25.7164 22.3824 25.5011 22.3824C25.2858 22.3824 25.1096 22.7152 25.1096 23.1262V23.5569H24.4734H23.8373V23.185C23.8373 22.8326 23.6219 22.3824 23.4458 22.3824C23.2304 22.3824 23.0543 22.7152 23.0543 23.1262V23.5569H22.467H21.8798V22.676V21.7952H25.5011H29.1224V22.676ZM8.12857 24.0756C8.89198 24.6335 8.98007 24.7509 8.94092 25.1424L8.91156 25.4654L7.57069 25.4948C6.23961 25.5241 6.22004 25.5144 6.1711 25.299C6.07323 24.9271 6.2494 24.6335 6.866 24.1343C7.1792 23.8799 7.46303 23.6645 7.49239 23.6645C7.53154 23.6548 7.81537 23.8505 8.12857 24.0756ZM17.2504 24.105C17.8963 24.565 18.1117 24.8978 18.0138 25.2892C17.9649 25.5144 17.9453 25.5241 16.6142 25.4948L15.2733 25.4654L15.244 25.1522C15.2244 24.9761 15.244 24.7705 15.2929 24.6922C15.3712 24.5552 16.487 23.6548 16.575 23.6548C16.5946 23.6548 16.898 23.8603 17.2504 24.105ZM34.8089 23.9582C35.6114 24.5258 35.7778 24.7314 35.7778 25.1424V25.5144H34.4076C33.0667 25.5144 33.0374 25.5144 32.9884 25.2892C32.8906 24.9271 33.0569 24.6629 33.6735 24.1539C33.9965 23.8799 34.2901 23.6645 34.3195 23.6645C34.3489 23.6548 34.574 23.7918 34.8089 23.9582ZM44.0579 24.105C44.7528 24.6041 44.9094 24.8097 44.8605 25.2012L44.8311 25.4654H43.4609H42.0907L42.0613 25.1033C42.0319 24.7705 42.0711 24.7118 42.6877 24.2029C43.0596 23.8994 43.3728 23.6548 43.3924 23.6548C43.4119 23.6548 43.7056 23.8603 44.0579 24.105ZM29.8173 24.3399C29.9543 24.4182 30.0033 24.5454 30.0033 24.8782V25.3186H25.5011H20.9989V24.8782C20.9989 24.5748 21.0479 24.4182 21.1751 24.3497C21.41 24.2126 29.5531 24.2029 29.8173 24.3399ZM30.4535 26.3169L30.9037 26.6399L28.5743 26.6693L26.2449 26.6888L25.9415 26.3952C25.7752 26.2386 25.5794 26.1016 25.5011 26.1016C25.4228 26.1016 25.2271 26.2386 25.0607 26.3952L24.7573 26.6888L22.4279 26.6693L20.0985 26.6399L20.5291 26.3267L20.95 26.0233L25.4717 26.0135L29.9935 26.0037L30.4535 26.3169ZM8.86262 27.9612V29.7229H7.59026H6.31791V27.9612V26.1995H7.59026H8.86262V27.9612ZM17.867 26.4246C17.867 26.5812 17.7789 26.6986 17.6223 26.7671C17.3776 26.8846 17.3678 26.9042 17.3972 27.7361C17.4265 28.5191 17.4461 28.6072 17.6517 28.6952C17.8278 28.7735 17.867 28.8714 17.867 29.2531V29.7229H16.5946H15.3223V27.9612V26.1995H16.5946C17.867 26.1995 17.867 26.1995 17.867 26.4246ZM35.6799 27.9612V29.7229H34.4076H33.1352V29.2433C33.1352 28.8127 33.1646 28.7638 33.3799 28.705C33.6148 28.6463 33.6246 28.6169 33.6246 27.7654C33.6246 26.9139 33.6148 26.8748 33.3799 26.7671C33.2233 26.6986 33.1352 26.5812 33.1352 26.4246C33.1352 26.1995 33.1352 26.1995 34.4076 26.1995H35.6799V27.9612ZM44.6843 27.9612V29.7229H43.4119H42.1396V27.9612V26.1995H43.4119H44.6843V27.9612ZM25.7458 27.2761C25.8241 27.4327 25.8926 27.6676 25.8926 27.8144C25.8926 28.0395 25.8535 28.0591 25.5011 28.0591C25.1488 28.0591 25.1096 28.0395 25.1096 27.8144C25.1096 27.5208 25.3641 26.9825 25.5011 26.9825C25.55 26.9825 25.6577 27.1097 25.7458 27.2761ZM24.4245 27.7654V28.0591H21.2436H18.0627V27.7654V27.4718H21.2436H24.4245V27.7654ZM32.9395 27.7654V28.0591H29.8075C27.165 28.0591 26.6756 28.0395 26.6756 27.922C26.6756 27.8437 26.6462 27.7165 26.6169 27.6284C26.5581 27.4914 26.8811 27.4718 29.7488 27.4718H32.9395V27.7654ZM14.6372 29.2335V29.7229H12.0924H9.54773V29.2335V28.7442H12.0924H14.6372V29.2335ZM19.2176 31.5531L19.1883 34.3719L18.924 34.4013L18.65 34.4306V31.5923V28.7442H18.9436H19.2372L19.2176 31.5531ZM22.2713 29.2335V29.7229H21.0968H19.9223V29.2335V28.7442H21.0968H22.2713V29.2335ZM23.6219 31.5531L23.5926 34.3719L23.3283 34.4013L23.0543 34.4306V31.5923V28.7442H23.3479H23.6415L23.6219 31.5531ZM26.6756 29.2335V29.7229H25.5011H24.3266V29.2335V28.7442H25.5011H26.6756V29.2335ZM28.0262 31.5531L27.9969 34.3719L27.7326 34.4013L27.4586 34.4306V31.5923V28.7442H27.7522H28.0458L28.0262 31.5531ZM31.0799 29.2335V29.7229H29.9054H28.7309V29.2335V28.7442H29.9054H31.0799V29.2335ZM32.3522 31.5825V34.4208H32.1076H31.8629V31.5825V28.7442H32.1076H32.3522V31.5825ZM41.4545 29.2335V29.7229H38.9098H36.3651V29.2335V28.7442H38.9098H41.4545V29.2335ZM8.86262 31.5336V32.6591H7.59026H6.31791V31.5336V30.408H7.59026H8.86262V31.5336ZM14.6372 31.5336V32.6591H12.0924H9.54773V31.5336V30.408H12.0924H14.6372V31.5336ZM17.867 31.5336V32.6591H16.5946H15.3223V31.5336V30.408H16.5946H17.867V31.5336ZM22.2713 30.9463V31.4846H21.0968H19.9223V30.9463V30.408H21.0968H22.2713V30.9463ZM26.6952 30.9463L26.656 31.4846H25.4913H24.3266V30.9463V30.408H25.5305H26.7245L26.6952 30.9463ZM31.0995 30.9072C31.1093 31.1812 31.1093 31.4259 31.0897 31.4455C31.0701 31.4651 30.522 31.4846 29.8858 31.4846H28.7309V30.9463V30.408H29.8956H31.0603L31.0995 30.9072ZM35.6799 31.5336V32.6591H34.4076H33.1352V31.5336V30.408H34.4076H35.6799V31.5336ZM41.4545 31.5336V32.6591H38.9098H36.3651V31.5336V30.408H38.9098H41.4545V31.5336ZM44.6843 31.5336V32.6591H43.4119H42.1396V31.5336V30.408H43.4119H44.6843V31.5336ZM22.2713 33.2953V34.4208H21.0968H19.9223V33.2953V32.1697H21.0968H22.2713V33.2953ZM26.7539 33.2659L26.7245 34.3719L25.5305 34.4013L24.3266 34.4306V33.2953V32.1697H25.55H26.7832L26.7539 33.2659ZM31.0799 33.2953V34.4208H29.9054H28.7309V33.2953V32.1697H29.9054H31.0799V33.2953ZM8.86262 34.5187V35.6932H8.37325H7.88389V35.1647C7.88389 34.5579 7.72729 34.3425 7.40431 34.5187C7.23792 34.6068 7.19877 34.7145 7.19877 35.1549V35.6932H6.75834H6.31791V34.5187V33.3442H7.59026H8.86262V34.5187ZM14.6372 34.5187V35.6932H13.5116H12.3861V35.1745C12.3861 34.7047 12.2686 34.4208 12.0827 34.4208C11.8673 34.4208 11.7009 34.7634 11.7009 35.2136V35.6932H10.6243H9.54773V34.5187V33.3442H12.0924H14.6372V34.5187ZM17.867 34.5187V35.6932H16.5946H15.3223V34.5872C15.3223 33.9706 15.3516 33.4421 15.3908 33.4127C15.4201 33.3736 15.9976 33.3442 16.6631 33.3442H17.867V34.5187ZM35.6799 34.5187V35.6932H34.4076H33.1352V34.5187V33.3442H34.4076H35.6799V34.5187ZM41.4545 34.5187V35.6932H40.3779H39.3013V35.2136C39.3013 34.7634 39.1349 34.4208 38.9196 34.4208C38.7336 34.4208 38.6161 34.7047 38.6161 35.1745V35.6932H37.4906H36.3651V34.5187V33.3442H38.9098H41.4545V34.5187ZM44.6843 34.5187V35.6932H44.2439H43.8132L43.7839 35.1255C43.7545 34.5774 43.7545 34.5676 43.4609 34.5676C43.1673 34.5676 43.1673 34.5774 43.1379 35.1255L43.1085 35.6932H42.629H42.1396V34.5187V33.3442H43.4119H44.6843V34.5187ZM32.3522 35.3996V35.6932H25.5011H18.65V35.3996V35.106H25.5011H32.3522V35.3996ZM16.2031 36.6719V36.9655H11.2605H6.31791V36.6719V36.3783H11.2605H16.2031V36.6719ZM44.6843 36.6719V36.9655H39.6928H34.7012V36.6719V36.3783H39.6928H44.6843V36.6719ZM34.0161 36.7209V36.9655H25.4522H16.8882V36.7209V36.4762H25.4522H34.0161V36.7209Z" fill="#858585"/>
<path d="M7.31569 27.2957C7.24718 27.3642 7.19824 27.6676 7.19824 27.971C7.19824 28.5778 7.34505 28.8029 7.68761 28.6953C7.86378 28.6365 7.88336 28.5485 7.88336 27.9612C7.88336 27.4425 7.84421 27.2859 7.72676 27.237C7.51144 27.1587 7.45271 27.1587 7.31569 27.2957Z" fill="#858585"/>
<path d="M16.428 27.2467C16.3399 27.2761 16.3008 27.5208 16.3008 27.9612C16.3008 28.5485 16.3204 28.6365 16.4965 28.6953C16.8391 28.8029 16.9859 28.5778 16.9859 27.971C16.9859 27.2859 16.8293 27.0804 16.428 27.2467Z" fill="#858585"/>
<path d="M34.1331 27.2957C34.0646 27.3642 34.0156 27.6676 34.0156 27.971C34.0156 28.5778 34.1624 28.8029 34.505 28.6953C34.6812 28.6365 34.7007 28.5485 34.7007 27.9612C34.7007 27.4425 34.6616 27.2859 34.5441 27.237C34.3288 27.1587 34.2701 27.1587 34.1331 27.2957Z" fill="#858585"/>
<path d="M43.2454 27.2467C43.1573 27.2761 43.1182 27.5208 43.1182 27.9612C43.1182 28.5485 43.1377 28.6365 43.3139 28.6953C43.6565 28.8029 43.8033 28.5778 43.8033 27.971C43.8033 27.2859 43.6467 27.0804 43.2454 27.2467Z" fill="#858585"/>
<path d="M7.2473 31.4944C7.15921 31.7783 7.39411 32.0132 7.67794 31.9251C7.84432 31.8761 7.88347 31.7978 7.8639 31.6021C7.82475 31.2497 7.34517 31.1617 7.2473 31.4944Z" fill="#858585"/>
<path d="M11.8188 31.4062C11.5643 31.6606 11.8286 32.0423 12.1907 31.9249C12.3473 31.876 12.3864 31.7879 12.3669 31.6019C12.3375 31.3083 12.0243 31.2006 11.8188 31.4062Z" fill="#858585"/>
<path d="M16.3105 31.4258C16.0561 31.7292 16.4476 32.1207 16.751 31.8662C16.9565 31.6998 16.888 31.3475 16.6335 31.3083C16.5259 31.2888 16.3791 31.3475 16.3105 31.4258Z" fill="#858585"/>
<path d="M34.1332 31.4062C33.8788 31.6606 34.143 32.0423 34.5052 31.9249C34.6617 31.876 34.7009 31.7879 34.6813 31.6019C34.652 31.3083 34.3388 31.2006 34.1332 31.4062Z" fill="#858585"/>
<path d="M38.685 31.3475C38.5382 31.5041 38.6165 31.8663 38.822 31.925C39.1156 32.0229 39.3897 31.739 39.2429 31.5041C39.1254 31.328 38.8024 31.2301 38.685 31.3475Z" fill="#858585"/>
<path d="M43.187 31.3475C43.0401 31.5041 43.1184 31.8663 43.324 31.925C43.6176 32.0229 43.8916 31.739 43.7448 31.5041C43.6274 31.328 43.3044 31.2301 43.187 31.3475Z" fill="#858585"/>
<path d="M16.3107 34.3623C16.1051 34.607 16.2715 34.9299 16.5749 34.8908C16.8 34.8712 16.8392 34.8125 16.8392 34.5678C16.8392 34.3427 16.7902 34.2644 16.6336 34.2448C16.526 34.2253 16.3792 34.284 16.3107 34.3623Z" fill="#858585"/>
<path d="M34.1137 34.372C33.9375 34.5873 34.1039 34.8613 34.4171 34.8613C34.6129 34.8613 34.652 34.8124 34.652 34.5677C34.652 34.3426 34.6031 34.2643 34.4465 34.2447C34.3388 34.2252 34.1822 34.2839 34.1137 34.372Z" fill="#858585"/>
</svg>
