<svg width="82" height="82" viewBox="0 0 82 82" fill="none" xmlns="http://www.w3.org/2000/svg">
<g clip-path="url(#clip0_12644_49)">
<circle cx="41" cy="89.207" r="32.0312" fill="#FFE785"/>
<path d="M71.8457 14.0167C71.7678 13.8967 71.6704 13.7906 71.5574 13.7028C67.7182 9.38974 63.0098 5.93798 57.7415 3.57436C52.4731 1.21074 46.7643 -0.0112305 40.99 -0.0112305C35.2158 -0.0112305 29.5069 1.21074 24.2386 3.57436C18.9703 5.93798 14.2618 9.38974 10.4226 13.7028C10.3153 13.7878 10.2223 13.8895 10.1471 14.0039V14.0359C4.96419 19.965 1.59844 27.2613 0.452244 35.0525C-0.693948 42.8437 0.427925 50.8001 3.68374 57.9707C6.93956 65.1412 12.1915 71.2223 18.8118 75.4871C25.4321 79.7519 33.1406 82.0199 41.0156 82.0199C48.8907 82.0199 56.5992 79.7519 63.2195 75.4871C69.8397 71.2223 75.0917 65.1412 78.3476 57.9707C81.6034 50.8001 82.7252 42.8437 81.5791 35.0525C80.4329 27.2613 77.0671 19.965 71.8842 14.0359L71.8457 14.0167ZM70.5645 65.5294C67.6536 63.8303 64.5642 62.4575 61.3523 61.4358C63.3441 55.2428 64.3957 48.7861 64.4721 42.2811H79.4051C79.1317 50.8012 76.0202 58.9858 70.5645 65.5358V65.5294ZM2.59417 42.2811H17.5271C17.6029 48.7882 18.6545 55.2471 20.647 61.4422C17.4351 62.4639 14.3457 63.8367 11.4348 65.5358C5.97906 58.9858 2.86754 50.8012 2.59417 42.2811ZM11.5309 16.3678C14.4274 18.0514 17.4993 19.4134 20.6918 20.4294C18.6703 26.6627 17.6034 33.166 17.5271 39.7186H2.59417C2.87336 31.1537 6.02047 22.9306 11.5309 16.3678ZM42.2809 23.4723C47.9085 23.3926 53.504 22.6092 58.9371 21.1405C60.8548 27.1496 61.8653 33.4112 61.9353 39.7186H42.2809V23.4723ZM42.2809 20.9098V2.63921C48.7768 3.36311 54.4528 9.55155 58.0403 18.7253C52.8964 20.0961 47.6036 20.8298 42.2809 20.9098ZM39.7184 20.9098C34.3956 20.8298 29.1028 20.0961 23.959 18.7253C27.5465 9.55155 33.2224 3.36311 39.7184 2.63921V20.9098ZM39.7184 23.4723V39.7186H20.0896C20.1513 33.4125 21.1532 27.1509 23.0621 21.1405C28.4953 22.6091 34.0908 23.3925 39.7184 23.4723ZM20.0896 42.2811H39.7184V58.3864C34.0902 58.4701 28.4947 59.2578 23.0621 60.7311C21.1672 54.7613 20.1655 48.544 20.0896 42.2811ZM39.7184 60.9489V79.3605C33.1968 78.6301 27.4696 72.3905 23.9078 63.1462C29.0676 61.7666 34.3779 61.0286 39.7184 60.9489ZM42.2809 60.9489C47.6214 61.0287 52.9317 61.7667 58.0915 63.1462C54.5296 72.3905 48.8024 78.6301 42.2809 79.3605V60.9489ZM42.2809 58.3864V42.2811H61.9096C61.8332 48.5418 60.8315 54.7569 58.9371 60.7247C53.5043 59.2536 47.9088 58.468 42.2809 58.3864ZM64.4721 39.7186C64.3959 33.166 63.3289 26.6627 61.3074 20.4294C64.5 19.4134 67.5719 18.0514 70.4684 16.3678C75.9788 22.9306 79.1259 31.1537 79.4051 39.7186H64.4721ZM68.7323 14.4267C66.0994 15.9036 63.3215 17.1058 60.4426 18.0142C58.0787 11.9411 54.7987 7.04671 50.9549 3.87561C57.7331 5.70323 63.8812 9.35225 68.7323 14.4267ZM31.0443 3.87561C27.2006 7.02749 23.927 11.9347 21.5631 18.0142C18.6841 17.1058 15.9063 15.9036 13.2734 14.4267C18.1227 9.35324 24.2685 5.7043 31.0443 3.87561ZM13.1773 67.4833C15.8203 65.9896 18.6113 64.7744 21.5054 63.8573C23.8757 69.9945 27.1685 74.953 31.0379 78.124C24.22 76.2851 18.0404 72.6035 13.1773 67.4833ZM50.9742 78.124C54.8179 74.9209 58.1363 69.9945 60.5067 63.8573C63.4007 64.7745 66.1917 65.9896 68.8348 67.4833C63.9664 72.6065 57.7798 76.2883 50.9549 78.124H50.9742Z" fill="#494949"/>
</g>
<defs>
<clipPath id="clip0_12644_49">
<rect width="82" height="82" fill="white"/>
</clipPath>
</defs>
</svg>
