<svg id="Layer_1" data-name="Layer 1" xmlns="http://www.w3.org/2000/svg" viewBox="0 0 65 65"><defs><style>.cls-1{fill:#ffda66;}.cls-2{fill:#494949;}</style></defs><title>Icons for day pass and all the lists</title><rect class="cls-1" x="1.518" y="20.065" width="56.515" height="32.591" rx="6.754" ry="6.754"/><path class="cls-2" d="M28.662,57.125H8.881a.784.784,0,0,1-.783-.783v-.828a10.674,10.674,0,0,1,21.347,0v.828A.783.783,0,0,1,28.662,57.125Zm-19-1.566,18.215-.045a9.108,9.108,0,0,0-18.215,0Z"/><path class="cls-2" d="M57.057,57.125H37.276a.783.783,0,0,1-.783-.783v-.828a10.674,10.674,0,0,1,21.347,0v.828A.784.784,0,0,1,57.057,57.125Zm-19-1.566,18.215-.045a9.108,9.108,0,0,0-18.215,0Z"/><path class="cls-2" d="M52.392,32.867H39.486a.784.784,0,0,1-.783-.783v-.54a7.236,7.236,0,1,1,14.472,0v.54A.783.783,0,0,1,52.392,32.867ZM40.274,31.3H51.6a5.67,5.67,0,0,0-11.33,0Z"/><path class="cls-2" d="M28.662,43.4H8.881a.783.783,0,1,1,0-1.566H28.662a.783.783,0,0,1,0,1.566Z"/><path class="cls-2" d="M57.057,43.4H37.276a.783.783,0,0,1,0-1.566H57.057a.783.783,0,0,1,0,1.566Z"/><path class="cls-2" d="M62.7,57.125a.784.784,0,0,1-.783-.783V39.347a6.487,6.487,0,0,0-6.48-6.48H10.241a6.487,6.487,0,0,0-6.48,6.48V56.342a.783.783,0,0,1-1.566,0V39.347A8.055,8.055,0,0,1,10.241,31.3h45.2a8.055,8.055,0,0,1,8.046,8.046V56.342A.784.784,0,0,1,62.7,57.125Z"/><path class="cls-2" d="M56.987,25.873h-22.1a4.339,4.339,0,0,1-4.334-4.334V12.21a4.339,4.339,0,0,1,4.334-4.335h22.1a4.339,4.339,0,0,1,4.334,4.335v9.329A4.339,4.339,0,0,1,56.987,25.873ZM34.891,9.441a2.772,2.772,0,0,0-2.768,2.769v9.329a2.771,2.771,0,0,0,2.768,2.768h22.1a2.77,2.77,0,0,0,2.768-2.768V12.21a2.771,2.771,0,0,0-2.768-2.769Z"/></svg>