<svg width="50" height="50" viewBox="0 0 50 50" fill="none" xmlns="http://www.w3.org/2000/svg">
<g clip-path="url(#clip0_8776_440)">
<path d="M28.8064 41.505C28.8064 39.7626 28.0022 38.0202 26.6619 36.9479L24.5175 35.2056L22.1049 36.9479C20.6306 38.1544 19.6924 39.8966 19.6924 41.6389V46.0622H28.8064V41.505Z" fill="#FFCC05"/>
<path d="M24.5175 26.8955C24.3785 26.905 24.2475 26.9645 24.149 27.063C24.0504 27.1616 23.9909 27.2925 23.9814 27.4316V30.1122C23.9909 30.2513 24.0504 30.3822 24.149 30.4808C24.2475 30.5793 24.3785 30.6388 24.5175 30.6483C24.6516 30.6483 25.0536 30.3802 25.0536 30.1122V27.4316C25.0442 27.2925 24.9847 27.1616 24.8861 27.063C24.7875 26.9645 24.6566 26.905 24.5175 26.8955Z" fill="#FFCC05"/>
<path d="M20.6308 26.8955C20.4918 26.905 20.3608 26.9645 20.2623 27.063C20.1637 27.1616 20.1042 27.2925 20.0947 27.4316V30.1122C20.1042 30.2513 20.1637 30.3822 20.2623 30.4808C20.3608 30.5793 20.4918 30.6388 20.6308 30.6483C21.033 30.6483 21.1669 30.3802 21.1669 30.1122V27.4316C21.1575 27.2925 21.0979 27.1616 20.9994 27.063C20.9008 26.9645 20.7699 26.905 20.6308 26.8955Z" fill="#FFCC05"/>
<path d="M17.2802 26.8955C17.1412 26.905 17.0102 26.9645 16.9117 27.063C16.8131 27.1616 16.7536 27.2925 16.7441 27.4316V30.1122C16.7536 30.2513 16.8131 30.3822 16.9117 30.4808C17.0102 30.5793 17.1412 30.6388 17.2802 30.6483C17.4143 30.6483 17.6824 30.3802 17.8163 30.1122V27.4316C17.8069 27.2925 17.7474 27.1616 17.6488 27.063C17.5502 26.9645 17.4193 26.905 17.2802 26.8955Z" fill="#FFCC05"/>
<path d="M10.9804 28.2358H13.661C13.9291 28.2358 14.1971 28.1017 14.1971 27.6997C14.1877 27.5606 14.1281 27.4297 14.0296 27.3311C13.931 27.2325 13.8001 27.173 13.661 27.1636H10.9804C10.8414 27.173 10.7104 27.2325 10.6119 27.3311C10.5133 27.4297 10.4538 27.5606 10.4443 27.6997C10.4538 27.8387 10.5133 27.9697 10.6119 28.0682C10.7104 28.1668 10.8414 28.2263 10.9804 28.2358Z" fill="#858585"/>
<path d="M35.6416 28.2358H38.3222C38.5902 28.2358 38.8583 28.1017 38.8583 27.6997C38.8488 27.5606 38.7893 27.4297 38.6907 27.3311C38.5922 27.2325 38.4612 27.173 38.3222 27.1636H35.6416C35.5025 27.173 35.3716 27.2325 35.273 27.3311C35.1744 27.4297 35.1149 27.5606 35.1055 27.6997C35.1149 27.8387 35.1744 27.9697 35.273 28.0682C35.3716 28.1668 35.5025 28.2263 35.6416 28.2358Z" fill="#858585"/>
<path d="M17.2802 34.4014C17.1412 34.4108 17.0102 34.4703 16.9117 34.5689C16.8131 34.6675 16.7536 34.7984 16.7441 34.9375V37.6181C16.7536 37.7571 16.8131 37.8881 16.9117 37.9866C17.0102 38.0852 17.1412 38.1447 17.2802 38.1542C17.4143 38.1542 17.6824 37.8861 17.8163 37.6181V34.9375C17.8069 34.7984 17.7474 34.6675 17.6488 34.5689C17.5502 34.4703 17.4193 34.4108 17.2802 34.4014Z" fill="#FFCC05"/>
<path d="M31.7548 38.1542C31.8889 38.1542 32.2909 37.8861 32.2909 37.6181V34.9375C32.2815 34.7984 32.222 34.6675 32.1234 34.5689C32.0248 34.4703 31.8939 34.4108 31.7548 34.4014C31.6158 34.4108 31.4848 34.4703 31.3863 34.5689C31.2877 34.6675 31.2282 34.7984 31.2188 34.9375V37.6181C31.2282 37.7571 31.2877 37.8881 31.3863 37.9866C31.4848 38.0852 31.6158 38.1447 31.7548 38.1542Z" fill="#FFCC05"/>
<path d="M28.1357 26.8955C27.9966 26.905 27.8657 26.9645 27.7671 27.063C27.6686 27.1616 27.6091 27.2925 27.5996 27.4316V30.1122C27.6091 30.2513 27.6686 30.3822 27.7671 30.4808C27.8657 30.5793 27.9966 30.6388 28.1357 30.6483C28.2748 30.6388 28.4057 30.5793 28.5043 30.4808C28.6028 30.3822 28.6623 30.2513 28.6718 30.1122V27.4316C28.6623 27.2925 28.6028 27.1616 28.5043 27.063C28.4057 26.9645 28.2748 26.905 28.1357 26.8955Z" fill="#FFCC05"/>
<path d="M24.5175 24.2153C24.6516 24.2153 25.0536 24.0812 25.0536 23.6792V22.3388C25.0442 22.1998 24.9847 22.0688 24.8861 21.9703C24.7875 21.8717 24.6566 21.8122 24.5175 21.8027C24.3785 21.8122 24.2475 21.8717 24.149 21.9703C24.0504 22.0688 23.9909 22.1998 23.9814 22.3388V23.6792C23.9909 23.8183 24.0504 23.9492 24.149 24.0477C24.2475 24.1463 24.3785 24.2058 24.5175 24.2153Z" fill="#FFCC05"/>
<path d="M20.6308 24.2153C21.033 24.2153 21.1669 24.0812 21.1669 23.6792V22.3388C21.1575 22.1998 21.0979 22.0688 20.9994 21.9703C20.9008 21.8717 20.7699 21.8122 20.6308 21.8027C20.4918 21.8122 20.3608 21.8717 20.2623 21.9703C20.1637 22.0688 20.1042 22.1998 20.0947 22.3388V23.6792C20.1042 23.8183 20.1637 23.9492 20.2623 24.0477C20.3608 24.1463 20.4918 24.2058 20.6308 24.2153Z" fill="#FFCC05"/>
<path d="M17.2802 24.2153C17.4143 24.2153 17.6824 24.0812 17.8163 23.6792V22.3388C17.8069 22.1998 17.7474 22.0688 17.6488 21.9703C17.5502 21.8717 17.4193 21.8122 17.2802 21.8027C17.1412 21.8122 17.0102 21.8717 16.9117 21.9703C16.8131 22.0688 16.7536 22.1998 16.7441 22.3388V23.6792C16.7536 23.8183 16.8131 23.9492 16.9117 24.0477C17.0102 24.1463 17.1412 24.2058 17.2802 24.2153Z" fill="#FFCC05"/>
<path d="M28.1357 24.2153C28.4038 24.2153 28.6718 24.0812 28.6718 23.6792V22.3388C28.6623 22.1998 28.6028 22.0688 28.5043 21.9703C28.4057 21.8717 28.2748 21.8122 28.1357 21.8027C27.9966 21.8122 27.8657 21.8717 27.7671 21.9703C27.6686 22.0688 27.6091 22.1998 27.5996 22.3388V23.6792C27.6091 23.8183 27.6686 23.9492 27.7671 24.0477C27.8657 24.1463 27.9966 24.2058 28.1357 24.2153Z" fill="#FFCC05"/>
<path d="M31.7548 24.2153C31.8889 24.2153 32.2909 24.0812 32.2909 23.6792V22.3388C32.2815 22.1998 32.222 22.0688 32.1234 21.9703C32.0248 21.8717 31.8939 21.8122 31.7548 21.8027C31.6158 21.8122 31.4848 21.8717 31.3863 21.9703C31.2877 22.0688 31.2282 22.1998 31.2188 22.3388V23.6792C31.2282 23.8183 31.2877 23.9492 31.3863 24.0477C31.4848 24.1463 31.6158 24.2058 31.7548 24.2153Z" fill="#FFCC05"/>
<path d="M31.7548 26.8955C31.6158 26.905 31.4848 26.9645 31.3863 27.063C31.2877 27.1616 31.2282 27.2925 31.2188 27.4316V30.1122C31.2282 30.2513 31.2877 30.3822 31.3863 30.4808C31.4848 30.5793 31.6158 30.6388 31.7548 30.6483C31.8889 30.6483 32.2909 30.3802 32.2909 30.1122V27.4316C32.2815 27.2925 32.222 27.1616 32.1234 27.063C32.0248 26.9645 31.8939 26.905 31.7548 26.8955Z" fill="#FFCC05"/>
<path d="M11.6504 5.04901H12.9906V4.37883C12.9906 4.11078 12.8565 3.70865 12.5885 3.57469L12.3206 3.30664L12.0525 3.57469C11.7844 3.84277 11.6504 4.11082 11.6504 4.37883V5.04901Z" fill="#FFCC05"/>
<path d="M36.1777 5.04901H37.518V4.37883C37.518 4.11078 37.3839 3.70865 37.1158 3.57469L36.8479 3.30664L36.5799 3.57469C36.3118 3.84277 36.1777 4.11082 36.1777 4.37883V5.04901Z" fill="#FFCC05"/>
<path d="M46.4985 46.0619H39.3946V31.8542H40.0647C40.3328 31.8542 40.6008 31.5862 40.7349 31.3181V25.6895C40.7255 25.5504 40.6659 25.4195 40.5674 25.3209C40.4688 25.2223 40.3379 25.1628 40.1988 25.1534H38.7244V21.4005H38.8585C38.9975 21.391 39.1285 21.3315 39.227 21.2329C39.3256 21.1344 39.3851 21.0034 39.3946 20.8644V16.1734C39.3851 16.0343 39.3256 15.9034 39.227 15.8048C39.1285 15.7062 38.9975 15.6467 38.8585 15.6373H38.3224V13.0906H38.4565C38.7245 13.0906 38.9925 12.9566 38.9925 12.6885V9.20388C38.9831 9.06482 38.9236 8.93388 38.825 8.83532C38.7265 8.73676 38.5955 8.67724 38.4565 8.66779H38.3224V6.1207C38.5904 5.98662 38.7245 5.85265 38.7245 5.45052V4.24471C38.7245 3.57454 38.5904 3.03844 38.0543 2.63631L37.3841 2.10056C37.1161 1.96648 36.982 1.96648 36.714 2.10056L36.0438 2.63666C35.5077 3.17275 35.2397 3.70885 35.2397 4.37902V5.58507C35.2397 5.71915 35.3737 5.9872 35.5077 5.9872V8.66767C35.3686 8.67713 35.2377 8.73665 35.1391 8.83521C35.0406 8.93377 34.9811 9.0647 34.9716 9.20377V12.5545C34.9811 12.6936 35.0406 12.8245 35.1391 12.9231C35.2377 13.0217 35.3686 13.0812 35.5077 13.0906V15.6371H34.9716C34.8325 15.6466 34.7016 15.7061 34.603 15.8047C34.5045 15.9032 34.445 16.0342 34.4355 16.1732V20.3282H14.8672V16.1734C14.8578 16.0343 14.7982 15.9034 14.6997 15.8048C14.6011 15.7062 14.4702 15.6467 14.3311 15.6373H13.795V13.0906C14.0631 13.0906 14.3311 12.9566 14.3311 12.6885V9.20388C14.3217 9.06482 14.2621 8.93388 14.1636 8.83532C14.065 8.73676 13.9341 8.67724 13.795 8.66779V5.98708C13.9291 5.853 14.0631 5.71903 14.0631 5.45099V4.24471C14.0631 3.57454 13.929 3.03844 13.3929 2.63631L12.7228 2.10056C12.4548 1.96648 12.3207 1.96648 12.0527 2.10056L11.3825 2.63643C10.8464 3.17252 10.5783 3.70862 10.5783 4.37879V5.58507C10.5783 5.85311 10.7124 5.9872 10.9805 6.12116V8.80176H10.8464C10.5783 8.66767 10.3103 8.93584 10.3103 9.20388V12.5545C10.3197 12.6936 10.3793 12.8245 10.4778 12.9231C10.5764 13.0217 10.7073 13.0812 10.8464 13.0906H10.9805V15.6371H10.4439C10.3048 15.6466 10.1739 15.7061 10.0753 15.8047C9.97678 15.9032 9.91727 16.0342 9.90781 16.1732V20.8643C9.91727 21.0033 9.97678 21.1343 10.0753 21.2328C10.1739 21.3314 10.3048 21.3909 10.4439 21.4003H10.578V25.1531H9.2381C9.09903 25.1626 8.9681 25.2221 8.86953 25.3207C8.77097 25.4192 8.71145 25.5502 8.702 25.6892V31.3185C8.702 31.4525 8.83608 31.7206 8.97005 31.7206H9.90827V45.9278H2.5361C2.39391 45.9278 2.25756 45.9843 2.15702 46.0848C2.05648 46.1854 2 46.3217 2 46.4639C2 46.6061 2.05648 46.7424 2.15702 46.843C2.25756 46.9435 2.39391 47 2.5361 47H46.4985C46.9006 47 47.0346 46.732 47.0346 46.4639C47.0342 46.3299 46.7662 46.0619 46.4985 46.0619ZM19.6926 41.6386C19.6926 39.8962 20.6309 38.1539 22.1052 36.9476L24.5177 35.2052L26.6622 36.9476C28.0025 38.0198 28.8067 39.7621 28.8067 41.5046V46.0617H19.6923L19.6926 41.6386ZM27.3323 36.0094L24.7851 33.8652C24.517 33.7311 24.383 33.7311 24.1149 33.8652L21.4343 36.0097C19.692 37.3499 18.6198 39.4944 18.6198 41.6389V46.0622H14.8672V32.6589H34.4355V46.0619H29.8786V41.5049C29.8828 40.4582 29.6569 39.4235 29.2168 38.4739C28.7767 37.5242 28.1333 36.683 27.332 36.0097L27.3323 36.0094ZM9.77419 26.2256H14.8672V30.7829H9.77419V26.2256ZM13.2589 9.6059V12.1525H11.3825V9.6059H13.2589ZM11.9183 13.2247H12.5888V15.6373H11.9183V13.2247ZM35.6418 20.3283V16.7095H38.4563V20.3283H35.6418ZM36.848 3.3066L37.1161 3.57465C37.3841 3.70873 37.5182 4.11075 37.5182 4.37879V5.04943H36.1774V4.37879C36.1774 4.11071 36.3115 3.84266 36.5795 3.57465L36.848 3.3066ZM36.58 6.25547H37.2502V8.66767H36.58V6.25547ZM37.9202 9.6059V12.1525H36.0438V9.6059H37.9202ZM36.58 13.2247H37.2502V15.6373H36.58V13.2247ZM38.4565 46.0619H35.7759V32.1228C35.7759 31.9888 35.7759 31.9888 35.6418 31.8548H38.4563L38.4565 46.0619ZM34.9716 21.4005H35.2397V24.7512H14.0631V21.4005H34.9716ZM15.9394 31.3183V25.8234H33.4973V31.3186C33.4973 31.4527 33.4973 31.4527 33.6314 31.5866H15.8054C15.9395 31.4527 15.9395 31.4527 15.9395 31.3187L15.9394 31.3183ZM39.5286 30.7829H34.4355V26.2256H39.5286V30.7829ZM37.5182 25.0193H36.1774V21.4005H37.5182V25.0193ZM13.527 20.3283H10.8464V16.7095H13.6609V20.3283H13.527ZM11.6505 21.4005H12.9909V25.0193H11.6505V21.4005ZM10.8464 31.8542H13.6609V46.0619H10.8464V31.8542ZM12.3207 3.3066L12.5888 3.575C12.8568 3.70908 12.9909 4.11109 12.9909 4.37914V5.04943H11.6505V4.37879C11.6505 4.11071 11.7846 3.84266 12.0527 3.57465L12.3207 3.3066ZM11.9183 6.25524H12.5888V8.66767H11.9183V6.25524Z" fill="#858585"/>
</g>
<defs>
<clipPath id="clip0_8776_440">
<rect width="45.0346" height="45" fill="white" transform="translate(2 2)"/>
</clipPath>
</defs>
</svg>
