<svg width="90" height="90" viewBox="0 0 90 90" fill="none" xmlns="http://www.w3.org/2000/svg">
<g clip-path="url(#clip0_4156_2567)">
<circle cx="45.1758" cy="97.9102" r="35.1562" fill="#FFE785"/>
<path d="M84.7884 65.4679H82.4288V22.7278C82.4265 20.4161 81.5072 18.1998 79.8726 16.5652C78.238 14.9306 76.0217 14.0113 73.71 14.009H16.527C14.2153 14.0113 11.9989 14.9306 10.3643 16.5652C8.72973 18.1998 7.81044 20.4161 7.8082 22.7278V65.4679H5.44922C5.12288 65.4679 4.8099 65.5976 4.57915 65.8283C4.34839 66.0591 4.21875 66.3721 4.21875 66.6984V71.3643C4.22061 72.9955 4.8694 74.5593 6.02279 75.7126C7.17617 76.866 8.73996 77.5148 10.3711 77.5167H79.8666C81.4977 77.5148 83.0615 76.866 84.2149 75.7126C85.3683 74.5593 86.0171 72.9955 86.0189 71.3643V66.6984C86.0189 66.3721 85.8893 66.0591 85.6585 65.8283C85.4278 65.5976 85.1148 65.4679 84.7884 65.4679V65.4679ZM10.2698 22.7278C10.2715 21.0686 10.9314 19.4779 12.1046 18.3047C13.2778 17.1315 14.8685 16.4716 16.5277 16.47H73.7114C75.3706 16.4716 76.9613 17.1315 78.1345 18.3047C79.3077 19.4779 79.9676 21.0686 79.9692 22.7278V65.4679H10.2698V22.7278ZM55.3711 67.9929C55.1159 68.7121 54.6444 69.3348 54.0212 69.7754C53.3981 70.216 52.6538 70.453 51.8906 70.4538H38.347C37.5838 70.453 36.8396 70.216 36.2164 69.7754C35.5933 69.3348 35.1217 68.7121 34.8666 67.9929H55.3711ZM83.558 71.3679C83.5569 72.3465 83.1676 73.2848 82.4756 73.9768C81.7835 74.6689 80.8452 75.0581 79.8666 75.0593H10.3711C9.39236 75.0583 8.45398 74.6691 7.7619 73.977C7.06983 73.285 6.68062 72.3466 6.67969 71.3679V67.9289C7.44188 67.9211 30.8095 67.9345 32.3093 67.9289C32.5814 69.3311 33.3325 70.5952 34.4339 71.5047C35.5353 72.4142 36.9186 72.9127 38.347 72.9147H51.8906C53.319 72.9127 54.7023 72.4142 55.8037 71.5047C56.9052 70.5952 57.6562 69.3311 57.9284 67.9289H83.558V71.3679Z" fill="#494949"/>
<path d="M84.7884 65.4679H82.4288V22.7278C82.4265 20.4161 81.5072 18.1998 79.8726 16.5652C78.238 14.9306 76.0217 14.0113 73.71 14.009H16.527C14.2153 14.0113 11.9989 14.9306 10.3643 16.5652C8.72973 18.1998 7.81044 20.4161 7.8082 22.7278V65.4679H5.44922C5.12288 65.4679 4.8099 65.5976 4.57915 65.8283C4.34839 66.0591 4.21875 66.3721 4.21875 66.6984V71.3643C4.22061 72.9955 4.8694 74.5593 6.02279 75.7126C7.17617 76.866 8.73996 77.5148 10.3711 77.5167H79.8666C81.4977 77.5148 83.0615 76.866 84.2149 75.7126C85.3683 74.5593 86.0171 72.9955 86.0189 71.3643V66.6984C86.0189 66.3721 85.8893 66.0591 85.6585 65.8283C85.4278 65.5976 85.1148 65.4679 84.7884 65.4679V65.4679ZM10.2698 22.7278C10.2715 21.0686 10.9314 19.4779 12.1046 18.3047C13.2778 17.1315 14.8685 16.4716 16.5277 16.47H73.7114C75.3706 16.4716 76.9613 17.1315 78.1345 18.3047C79.3077 19.4779 79.9676 21.0686 79.9692 22.7278V65.4679H10.2698V22.7278ZM55.3711 67.9929C55.1159 68.7121 54.6444 69.3348 54.0212 69.7754C53.3981 70.216 52.6538 70.453 51.8906 70.4538H38.347C37.5838 70.453 36.8396 70.216 36.2164 69.7754C35.5933 69.3348 35.1217 68.7121 34.8666 67.9929H55.3711ZM83.558 71.3679C83.5569 72.3465 83.1676 73.2848 82.4756 73.9768C81.7835 74.6689 80.8452 75.0581 79.8666 75.0593H10.3711C9.39236 75.0583 8.45398 74.6691 7.7619 73.977C7.06983 73.285 6.68062 72.3466 6.67969 71.3679V67.9289C7.44188 67.9211 30.8095 67.9345 32.3093 67.9289C32.5814 69.3311 33.3325 70.5952 34.4339 71.5047C35.5353 72.4142 36.9186 72.9127 38.347 72.9147H51.8906C53.319 72.9127 54.7023 72.4142 55.8037 71.5047C56.9052 70.5952 57.6562 69.3311 57.9284 67.9289H83.558V71.3679Z" fill="#494949"/>
<path d="M62.8879 30.7867L27.3581 30.7099C27.1965 30.7096 27.0365 30.741 26.887 30.8025C26.7376 30.864 26.6017 30.9543 26.4872 31.0683C26.3727 31.1823 26.2817 31.3177 26.2195 31.4669C26.1573 31.616 26.1251 31.7759 26.1247 31.9375C26.1243 32.0991 26.1558 32.2592 26.2173 32.4086C26.2788 32.5581 26.3691 32.6939 26.4831 32.8085C26.5971 32.923 26.7325 33.014 26.8816 33.0762C27.0308 33.1384 27.1907 33.1706 27.3523 33.1709L62.882 33.2477C63.2084 33.2485 63.5217 33.1196 63.753 32.8894C63.9843 32.6592 64.1147 32.3465 64.1154 32.0202C64.1162 31.6938 63.9873 31.3805 63.7571 31.1492C63.5269 30.9179 63.2142 30.7875 62.8879 30.7867V30.7867Z" fill="#494949"/>
<path d="M26.8225 39.184C27.0454 39.3781 27.331 39.4851 27.6265 39.4851L43.5463 39.5197C43.8685 39.5142 44.1756 39.3825 44.4018 39.153C44.6279 38.9234 44.755 38.6143 44.7557 38.2921C44.7564 37.9699 44.6307 37.6603 44.4055 37.4297C44.1804 37.1992 43.8738 37.0662 43.5517 37.0593L27.6315 37.0252C27.3828 37.0294 27.1411 37.1083 26.9379 37.2517C26.7347 37.3951 26.5793 37.5963 26.492 37.8292C26.4048 38.0621 26.3896 38.3159 26.4485 38.5575C26.5075 38.7991 26.6378 39.0174 26.8225 39.184V39.184Z" fill="#494949"/>
<path d="M64.4162 41.3536C64.3129 40.6803 63.8309 40.1335 63.1582 39.9269L54.5946 37.2968C54.051 37.1294 53.4693 37.2129 52.9992 37.5244C52.5289 37.836 52.24 38.3297 52.2067 38.8789L51.6829 47.5292C51.6418 48.2086 51.9981 48.8385 52.613 49.1728C53.228 49.5071 53.9713 49.4752 54.5531 49.0901L56.2485 47.967L58.3307 50.8888C58.6024 51.2701 59.0119 51.5266 59.4839 51.6108C59.5943 51.6307 59.7051 51.6403 59.8152 51.6403C60.1749 51.6403 60.5259 51.5359 60.8286 51.3354L63.5647 49.523C64.3808 48.9821 64.5886 47.9018 64.0278 47.1149L61.9453 44.1928L63.6405 43.0699C64.2222 42.6845 64.5195 42.0267 64.4162 41.3536V41.3536ZM59.9338 49.2702L57.4776 45.8237C57.3068 45.5842 57.0446 45.4199 56.7483 45.367C56.6796 45.3546 56.6103 45.3486 56.5413 45.3486C56.3131 45.3486 56.0885 45.4149 55.8979 45.5411L54.0032 46.7964L54.4421 39.5491L61.6164 41.7526L59.7219 43.0077C59.4734 43.1723 59.303 43.4251 59.2482 43.7107C59.1932 43.9962 59.2582 44.2914 59.4288 44.5306L61.8853 47.9774L59.9338 49.2702Z" fill="#494949"/>
</g>
<defs>
<clipPath id="clip0_4156_2567">
<rect width="90" height="90" fill="white"/>
</clipPath>
</defs>
</svg>
