<svg width="512" height="512" viewBox="0 0 512 512" fill="none" xmlns="http://www.w3.org/2000/svg">
<g clip-path="url(#clip0_55_2)">
<circle cx="256" cy="557" r="200" fill="#ffda66"/>
<path d="M256.984 40.0052C251.454 39.9652 246.944 44.4152 246.904 49.9352C246.864 55.4552 251.304 59.9651 256.834 60.0051C262.354 60.0452 266.864 55.6051 266.904 50.0851C266.944 44.5651 262.504 40.0552 256.984 40.0052Z" fill="#494949"/>
<path d="M256.529 100.004C217.918 99.7302 186.297 130.879 186.005 169.478C185.714 208.075 216.88 239.711 255.479 240.002C255.658 240.003 255.836 240.004 256.015 240.004C294.368 240.004 325.713 208.948 326.003 170.528C326.294 131.933 295.129 100.295 256.529 100.004ZM256.013 220.005C255.887 220.005 255.755 220.004 255.629 220.003C228.058 219.795 205.796 197.197 206.004 169.628C206.211 142.183 228.599 120.001 255.995 120.001C256.121 120.001 256.253 120.002 256.379 120.003C283.95 120.211 306.212 142.809 306.004 170.378C305.796 197.823 283.409 220.005 256.013 220.005Z" fill="#494949"/>
<path d="M299.635 47.5889C294.433 45.7429 288.714 48.4679 286.868 53.6739C285.023 58.8799 287.748 64.5949 292.953 66.4409C337 82.0519 366.355 124.003 366.003 170.83C365.962 176.352 370.405 180.863 375.928 180.905C375.953 180.905 375.979 180.905 376.005 180.905C381.491 180.905 385.961 176.477 386.003 170.98C386.419 115.633 351.71 66.0459 299.635 47.5889Z" fill="#494949"/>
<path d="M317.361 376.442C383.874 290.827 425.441 246.182 426.002 171.278C426.706 77.035 350.224 0 255.988 0C162.852 0 86.7137 75.428 86.0057 168.728C85.4337 245.663 127.773 290.247 194.745 376.428C128.12 386.384 86.0057 411.401 86.0057 442C86.0057 462.497 104.952 480.89 139.355 493.79C170.668 505.532 212.095 511.999 256.004 511.999C299.913 511.999 341.34 505.532 372.653 493.79C407.056 480.889 426.002 462.496 426.002 441.999C426.002 411.417 383.927 386.406 317.361 376.442ZM106.005 168.879C106.629 86.55 173.804 20 255.99 20C339.149 20 406.623 87.988 406.003 171.129C405.471 242.263 361.389 286.1 291.012 377.843C278.459 394.199 266.931 409.663 256.019 424.79C245.139 409.654 233.841 394.467 221.1 377.837C147.814 282.253 105.463 241.729 106.005 168.879ZM256.004 492C170.153 492 106.005 465.603 106.005 442C106.005 424.496 144.353 402.384 208.831 394.727C223.084 413.428 235.58 430.418 247.836 447.77C249.708 450.42 252.75 451.998 255.995 452C255.998 452 256.001 452 256.004 452C259.246 452 262.287 450.428 264.162 447.783C276.302 430.657 289.14 413.248 303.271 394.738C367.689 402.403 406.003 424.508 406.003 442.001C406.002 465.603 341.855 492 256.004 492Z" fill="#494949"/>
</g>
<defs>
<clipPath id="clip0_55_2">
<rect width="512" height="512" fill="white"/>
</clipPath>
</defs>
</svg>
