<svg id="Layer_1" data-name="Layer 1" xmlns="http://www.w3.org/2000/svg" viewBox="0 0 22 22"><defs><style>.cls-1{fill:#ffda66;}.cls-2{fill:#494949;}.cls-3{fill:#fff;}</style></defs><title>Iconset for Detail page</title><path class="cls-1" d="M11.591,13.679a5.552,5.552,0,0,0,6.551-8.966l-.375-.274-6.551,8.966Z"/><path class="cls-2" d="M16.084,13.934a5.886,5.886,0,0,1-3.4-1.082.383.383,0,0,1-.091-.532L18.969,3.3A.382.382,0,0,1,19.5,3.2a5.906,5.906,0,0,1-3.417,10.73Zm-2.643-1.5a5.145,5.145,0,0,0,5.923-8.38Z"/><path class="cls-3" d="M13.517,18.485a3.118,3.118,0,0,1,6.236,0Z"/><path class="cls-2" d="M19.753,18.866H13.517a.382.382,0,0,1-.381-.381,3.5,3.5,0,0,1,7,0A.382.382,0,0,1,19.753,18.866ZM13.925,18.1h5.42a2.737,2.737,0,0,0-5.42,0Z"/><path class="cls-2" d="M1.084,11.437A5.909,5.909,0,0,1,2.5,3.2a.382.382,0,0,1,.532.091L9.41,12.32a.383.383,0,0,1-.091.532,5.912,5.912,0,0,1-8.235-1.415ZM2.636,4.058a5.145,5.145,0,0,0,5.923,8.38Z"/><path class="cls-3" d="M8.483,18.485a3.118,3.118,0,0,0-6.236,0Z"/><path class="cls-2" d="M1.866,18.485a3.5,3.5,0,0,1,7,0,.382.382,0,0,1-.381.381H2.247A.382.382,0,0,1,1.866,18.485Zm3.5-2.737A2.74,2.74,0,0,0,2.655,18.1h5.42A2.741,2.741,0,0,0,5.365,15.748Z"/></svg>