<svg width="50" height="50" viewBox="0 0 50 50" fill="none" xmlns="http://www.w3.org/2000/svg">
<path d="M24.9069 3.2251C23.7806 5.15467 21.7253 8.0499 21.5662 10.3065C21.4357 12.1518 22.8708 15.6448 21.3315 17.1845C19.662 18.8537 13.0319 17.725 10.7442 17.725V18.0623C13.3622 18.0623 17.7284 17.2145 20.1361 18.2656C21.5746 18.8938 21.7914 23.2431 20.6166 24.2156C20.2315 24.5343 19.7857 24.3863 19.5156 24.0049C18.8894 23.12 19.5126 21.8073 18.8277 20.9649C17.5787 19.4286 16.528 21.7736 16.4831 22.7818C16.4534 23.4542 16.4767 24.1333 16.4767 24.8064C13.4291 24.5741 15.1022 22.6449 13.7699 20.9636C12.4352 19.2792 11.458 21.721 11.4238 22.7818C11.4021 23.4556 11.4186 24.1323 11.4186 24.8064H4V29.1901H14.1162L17.9594 29.7307L18.4999 34.2482C15.7615 32.8718 14.245 33.3054 11.7558 34.9227C10.4435 32.6185 8.02013 33.2444 6.02325 34.2482V30.5389H5.34883V42.004C5.34883 43.1263 4.95258 45.2463 5.69542 46.1844C6.77934 47.5528 11.8187 46.7249 13.4418 46.7249H36.372C38.0911 46.7249 43.6563 47.6192 44.7927 46.1844C45.5356 45.2463 45.1394 43.1263 45.1394 42.004V30.5389H44.465V34.2482C42.468 33.2444 40.0448 32.6185 38.7324 34.9227C36.2432 33.3054 34.7267 32.8718 31.9883 34.2482L32.5288 29.7307L36.372 29.1901H46.4882V24.8064H39.0696C39.0696 24.2426 39.0828 23.6758 39.0646 23.1119C39.0508 22.6871 39.0703 22.1978 38.9233 21.7914C37.4058 17.5898 36.112 24.5919 35.0231 24.5919C33.9343 24.5919 32.6404 17.5895 31.123 21.7914C30.976 22.1978 30.9955 22.6871 30.9817 23.1119C30.9635 23.6758 30.9766 24.2426 30.9766 24.8064L29.2906 24.4692V18.3995L39.7441 18.0623V17.725H28.6162L28.8775 9.96926L25.5813 3.2251H24.9069Z" fill="#858585"/>
<path d="M24.9073 4.91113L22.5469 9.96925H27.9422L25.5817 4.91113H24.9073Z" fill="#FEFEFE"/>
<path d="M23.2207 9.96924V10.3064H27.2672L23.2207 9.96924Z" fill="#858585"/>
<path d="M21.5352 10.9805V17.3874H21.8724L21.5352 10.9805ZM22.5468 10.9805V17.3874H22.884L22.5468 10.9805Z" fill="#858585"/>
<path d="M22.8838 10.9805V17.3874H27.6047V10.9805H22.8838Z" fill="#FFDD2C"/>
<path d="M27.6046 10.9805V17.3874H27.9418L27.6046 10.9805ZM28.6162 10.9805V17.3874H28.9534L28.6162 10.9805Z" fill="#858585"/>
<path d="M7.37176 12.3296C5.16396 16.0733 5.34851 19.2191 5.34851 23.4575H6.02293V16.3761H9.0578V23.4575H9.73222C9.73222 19.5603 10.4012 15.3267 7.37176 12.3296Z" fill="#858585"/>
<path d="M42.7789 12.3296C40.5938 16.0699 40.7556 19.238 40.7556 23.4575H41.43V16.3761H44.4649V23.4575H45.1393C45.1393 19.5327 45.8599 15.3169 42.7789 12.3296Z" fill="#858585"/>
<path d="M7.37168 14.0156L6.69727 15.7017H8.38331L7.37168 14.0156Z" fill="#FEFEFE"/>
<path d="M42.7789 14.0156L42.1045 15.7017H43.7905L42.7789 14.0156Z" fill="#FEFEFE"/>
<path d="M45.1395 15.7017V23.7947H45.4767L45.1395 15.7017ZM5.01172 16.0389V23.7947H5.34893L5.01172 16.0389ZM9.73263 16.0389V23.7947H10.0698L9.73263 16.0389ZM40.4186 16.0389V23.4574H40.7558L40.4186 16.0389Z" fill="#858585"/>
<path d="M7.03516 16.376V16.7132H8.38399L7.03516 16.376Z" fill="#858585"/>
<path d="M8.38379 16.376L8.721 23.7946H9.05821C9.05821 21.6219 9.73303 18.1568 8.38379 16.376Z" fill="#858585"/>
<path d="M42.1045 16.376V16.7132H43.7905L42.1045 16.376Z" fill="#858585"/>
<path d="M43.791 16.376L44.1282 23.4573H44.4654C44.4654 21.3542 45.0987 18.1021 43.791 16.376Z" fill="#858585"/>
<path d="M6.02344 16.7134V23.7947H6.36065L6.02344 16.7134ZM41.4303 16.7134V23.7947H41.7675L41.4303 16.7134Z" fill="#858585"/>
<path d="M10.7441 17.3877V17.7249H21.5348L10.7441 17.3877ZM22.5464 17.3877V17.7249H27.6045L22.5464 17.3877ZM28.6162 17.3877V17.7249H39.744L28.6162 17.3877Z" fill="#858585"/>
<path d="M39.7441 17.3877V18.3993H40.0813L39.7441 17.3877Z" fill="#858585"/>
<path d="M10.7441 18.062V18.3992H20.8604L10.7441 18.062Z" fill="#858585"/>
<path d="M21.5347 24.4689H21.8719V18.3992H28.6161V24.4689C29.129 23.2469 29.4911 19.7194 28.6066 18.6025C27.8189 17.6078 22.6691 17.6078 21.8813 18.6025C20.9311 19.8023 21.5347 22.9977 21.5347 24.4689Z" fill="#858585"/>
<path d="M29.9648 18.062V18.3992H39.7439L29.9648 18.062Z" fill="#858585"/>
<path d="M20.8604 18.3994V24.132H21.1976L20.8604 18.3994Z" fill="#858585"/>
<path d="M21.8721 18.3994V24.4692H28.6162V18.3994H21.8721Z" fill="#FEFEFE"/>
<path d="M17.4883 20.0854V20.4227H18.4999L17.4883 20.0854Z" fill="#858585"/>
<path d="M31.9883 20.0854V20.4227H32.9999L31.9883 20.0854Z" fill="#858585"/>
<path d="M37.0469 20.0854V20.4227H38.0585L37.0469 20.0854Z" fill="#858585"/>
<path d="M11.0811 21.0972V24.4692H11.4183L11.0811 21.0972Z" fill="#858585"/>
<path d="M12.4307 21.0972V24.4692H13.4423L13.1051 21.0972H12.4307Z" fill="#FEFEFE"/>
<path d="M17.4883 21.0972V24.4692H18.4999L18.1627 21.0972H17.4883Z" fill="#FEFEFE"/>
<path d="M31.9883 21.0972V24.4692H32.9999V21.0972H31.9883Z" fill="#FEFEFE"/>
<path d="M33.6738 21.0972V24.4692H34.011L33.6738 21.0972Z" fill="#858585"/>
<path d="M37.3841 21.0972L37.0469 24.4692H38.0585V21.0972H37.3841Z" fill="#FEFEFE"/>
<path d="M12.0928 21.4341V24.469H12.43L12.0928 21.4341Z" fill="#858585"/>
<path d="M14.1162 21.4341V24.469H14.4534L14.1162 21.4341Z" fill="#858585"/>
<path d="M16.1396 21.4341V24.469H16.4769L16.1396 21.4341ZM17.1513 21.4341V24.469H17.4885L17.1513 21.4341Z" fill="#858585"/>
<path d="M18.5 21.4341V24.469H18.8372L18.5 21.4341ZM19.1744 21.4341V24.469H19.5116L19.1744 21.4341Z" fill="#858585"/>
<path d="M31.6514 21.4341V24.469H31.9886L31.6514 21.4341ZM33.0002 21.4341V24.469H33.3374L33.0002 21.4341Z" fill="#858585"/>
<path d="M36.0352 21.4341V24.469H36.3724L36.0352 21.4341Z" fill="#858585"/>
<path d="M36.709 21.4341V24.469H37.0462L36.709 21.4341Z" fill="#858585"/>
<path d="M38.0576 21.4341V24.469H38.3948L38.0576 21.4341Z" fill="#858585"/>
<path d="M4.33691 24.4692V24.8064H11.4183L4.33691 24.4692ZM12.0927 24.4692V24.8064H13.4415L12.0927 24.4692ZM14.4532 24.4692V24.8064H16.4764L14.4532 24.4692ZM17.1508 24.4692V24.8064H18.4997L17.1508 24.4692ZM19.5113 24.4692V24.8064H20.8601L19.5113 24.4692ZM21.8717 24.4692V24.8064H28.6159L21.8717 24.4692ZM29.6275 24.4692V24.8064H30.9763L29.6275 24.4692ZM31.6508 24.4692V24.8064H32.9996L31.6508 24.4692ZM34.0112 24.4692V24.8064H36.0345L34.0112 24.4692ZM37.0461 24.4692V24.8064H38.3949L37.0461 24.4692ZM39.0693 24.4692V24.8064H46.1507L39.0693 24.4692Z" fill="#858585"/>
<path d="M46.4883 24.8062V29.1899H46.8255L46.4883 24.8062Z" fill="#858585"/>
<path d="M5.34863 25.1435V25.4807H19.1742C15.5492 23.9596 9.29252 25.1435 5.34863 25.1435Z" fill="#858585"/>
<path d="M20.5234 25.1436V25.4808H30.6397L20.5234 25.1436ZM31.3141 25.1436V25.4808H32.6629L31.3141 25.1436Z" fill="#858585"/>
<path d="M33 25.1436V25.4808H34.686L33 25.1436Z" fill="#858585"/>
<path d="M35.0234 25.1436V25.4808H40.0816L35.0234 25.1436Z" fill="#858585"/>
<path d="M40.4189 25.1436V25.4808H45.8143L40.4189 25.1436Z" fill="#858585"/>
<path d="M4.6748 25.4805V28.5153H5.01201L4.6748 25.4805Z" fill="#858585"/>
<path d="M5.01172 25.4805V28.5153H19.1745V25.4805H5.01172Z" fill="#FFDD2C"/>
<path d="M19.8486 25.4805V28.5153H20.1858L19.8486 25.4805Z" fill="#858585"/>
<path d="M20.1855 25.4805V28.5153H30.3018V25.4805H20.1855Z" fill="#FFDD2C"/>
<path d="M30.3018 25.4805V28.5153H30.639L30.3018 25.4805ZM31.3134 25.4805V28.5153H31.6506L31.3134 25.4805Z" fill="#858585"/>
<path d="M31.6514 25.4805V28.5153H45.4769V25.4805H31.6514Z" fill="#FFDD2C"/>
<path d="M45.4763 25.4805V28.5153H45.8136L45.4763 25.4805Z" fill="#858585"/>
<path d="M5.01172 28.5156V28.8528H18.8372C15.2123 27.3316 8.9556 28.5156 5.01172 28.5156Z" fill="#858585"/>
<path d="M20.1855 28.5156V28.8528H30.3018L20.1855 28.5156Z" fill="#858585"/>
<path d="M31.6514 28.5156V28.8528H45.4769C41.8519 27.3316 35.5954 28.5156 31.6514 28.5156Z" fill="#858585"/>
<path d="M4.33691 29.1899V29.5271H18.1624C14.5375 28.0059 8.2808 29.1899 4.33691 29.1899ZM19.5113 32.2247L19.1741 29.5271L21.8717 29.8643C20.2356 27.9921 17.6391 30.5886 19.5113 32.2247ZM24.5694 29.1899V29.5271H25.581L24.5694 29.1899ZM28.6159 29.8643L31.3136 29.5271L30.9763 32.2247C32.8485 30.5886 30.252 27.9921 28.6159 29.8643ZM32.3252 29.1899V29.5271H46.1507C42.5257 28.0059 36.2692 29.1899 32.3252 29.1899Z" fill="#858585"/>
<path d="M18.1631 29.5271V34.2481H18.5003L18.1631 29.5271Z" fill="#858585"/>
<path d="M19.1748 29.5273V31.5506L21.1981 29.5273H19.1748Z" fill="#FEFEFE"/>
<path d="M19.1741 45.713H20.8601C20.8601 42.3834 19.8226 36.9398 21.3046 33.911C23.0439 30.3558 27.9368 30.4833 29.3773 34.2479C30.5711 37.3677 29.6275 42.3844 29.6275 45.713H31.3136C31.3136 41.9001 32.3107 36.409 30.6223 32.9004C28.6233 28.7467 22.2845 28.4796 20.0404 32.5669C18.1183 36.0671 19.1741 41.8435 19.1741 45.713Z" fill="#FEFEFE"/>
<path d="M29.291 29.5273L31.3143 31.5506V29.5273H29.291Z" fill="#FEFEFE"/>
<path d="M31.9883 29.5273V34.2483H32.3255L31.9883 29.5273Z" fill="#858585"/>
<path d="M5.01172 30.2017V46.3876H5.34893C5.34893 41.8266 6.76834 34.3878 5.01172 30.2017Z" fill="#858585"/>
<path d="M45.1396 30.2017V46.7249H45.4768C45.4768 42.0754 46.9298 34.468 45.1396 30.2017ZM6.02344 30.5389V34.2482H6.36065L6.02344 30.5389Z" fill="#858585"/>
<path d="M44.1279 30.5386V34.2479H44.4651L44.1279 30.5386Z" fill="#858585"/>
<path d="M24.5693 31.8877V32.2249H25.9182L24.5693 31.8877Z" fill="#858585"/>
<path d="M21.872 45.713H28.6161C28.6161 42.603 29.8877 35.79 27.7684 33.3132C26.2307 31.5162 23.1156 32.1603 22.2122 34.2625C20.9042 37.3071 21.872 42.4246 21.872 45.713Z" fill="#FFDD2C"/>
<path d="M8.38379 32.8994V33.2366H9.39541L8.38379 32.8994Z" fill="#858585"/>
<path d="M14.791 32.8994V33.2366H16.1398L14.791 32.8994Z" fill="#858585"/>
<path d="M41.0928 32.8994V33.2366H42.1044L41.0928 32.8994Z" fill="#858585"/>
<path d="M6.3599 45.7133H11.7552C11.7552 42.8332 12.5266 38.6403 11.4539 35.9406C10.7883 34.2651 8.60398 33.3974 7.18053 34.7591C5.19781 36.6555 6.3599 43.1306 6.3599 45.7133Z" fill="#FEFEFE"/>
<path d="M12.7679 45.7133H18.1633C18.1633 43.0814 19.3189 36.7483 17.2956 34.8056C15.85 33.4173 13.7102 34.1848 13.0182 35.9393C11.9684 38.6016 12.7679 42.8683 12.7679 45.7133Z" fill="#FEFEFE"/>
<path d="M32.3255 45.7129H37.7208C37.7208 43.087 38.8771 36.7398 36.8532 34.8055C35.441 33.4554 33.2545 34.2319 32.5757 35.9402C31.5216 38.5937 32.3255 42.8739 32.3255 45.7129Z" fill="#FEFEFE"/>
<path d="M38.7331 45.7133H44.1285C44.1285 43.1306 45.2905 36.6555 43.3077 34.7591C41.8843 33.3974 39.6999 34.2651 39.0346 35.9406C37.9619 38.6403 38.7331 42.8332 38.7331 45.7133Z" fill="#FEFEFE"/>
<path d="M29.2909 34.5854V35.5971H29.6281L29.2909 34.5854Z" fill="#858585"/>
<path d="M20.8604 34.9224V35.934H21.1976L20.8604 34.9224Z" fill="#858585"/>
<path d="M21.5353 34.9224V42.6781C21.5356 43.5606 21.2823 45.0754 22.0758 45.7036C22.8419 46.3106 24.3364 46.0502 25.2445 46.0502C26.1897 46.0502 27.9338 46.3598 28.6072 45.5097C30.0862 43.6422 28.9538 37.2859 28.9538 34.9224H28.6166V45.713H21.8725L21.5353 34.9224Z" fill="#858585"/>
<path d="M18.8369 35.2598V41.3295H19.1741L18.8369 35.2598ZM31.3136 35.2598V45.7132H31.6508L31.3136 35.2598Z" fill="#858585"/>
<path d="M8.38379 35.5967V35.9339H9.39541L8.38379 35.5967ZM14.7907 35.5967V35.9339H16.1396L14.7907 35.5967ZM34.3488 35.5967V35.9339H35.6976L34.3488 35.5967Z" fill="#858585"/>
<path d="M41.0928 35.5967V35.9339H42.1044L41.0928 35.5967Z" fill="#858585"/>
<path d="M6.02344 35.9341V45.7131H6.36065L6.02344 35.9341Z" fill="#858585"/>
<path d="M7.37207 41.3293H10.4069C10.4069 40.0341 10.8205 37.8359 10.0604 36.717C7.77743 33.3564 7.37207 40.4168 7.37207 41.3293Z" fill="#858585"/>
<path d="M14.8661 36.3C12.8733 37.3238 13.4259 42.5505 16.3692 41.1254C18.0721 40.3006 17.1327 35.1356 14.8661 36.3Z" fill="#858585"/>
<path d="M34.4249 36.3003C32.4283 37.3174 32.983 42.5512 35.9269 41.1258C37.6254 40.3033 36.7581 35.1124 34.4249 36.3003Z" fill="#858585"/>
<path d="M40.082 41.3293H43.1168C43.1168 40.4168 42.7115 33.3564 40.4286 36.717C39.6685 37.8359 40.082 40.0341 40.082 41.3293Z" fill="#858585"/>
<path d="M44.1274 35.9341V45.7131H44.4647L44.1274 35.9341Z" fill="#858585"/>
<path d="M11.7559 36.2715V45.7133H12.0931L11.7559 36.2715Z" fill="#858585"/>
<path d="M12.4304 36.2715C12.4304 38.3831 11.4463 43.8297 12.777 45.51C13.5637 46.5031 17.709 46.4633 18.2968 45.2689C19.3644 43.0986 18.5001 38.6818 18.5001 36.2715H18.1629V45.7133H12.7676L12.4304 36.2715Z" fill="#858585"/>
<path d="M20.8603 36.2715V45.7133H21.1975L20.8603 36.2715Z" fill="#858585"/>
<path d="M31.9879 36.2715C31.9879 38.3831 31.004 43.8297 32.3346 45.51C33.1213 46.5031 37.2666 46.4633 37.8543 45.2689C38.9219 43.0986 38.0577 38.6818 38.0577 36.2715H37.7205V45.7133H32.3251L31.9879 36.2715Z" fill="#858585"/>
<path d="M8.72129 36.6084L8.04688 40.3177H9.73292L8.72129 36.6084Z" fill="#FEFEFE"/>
<path d="M41.4303 36.6084L40.7559 40.3177H42.4419L41.4303 36.6084Z" fill="#FEFEFE"/>
<path d="M7.03516 36.9456V41.3293H7.37236L7.03516 36.9456Z" fill="#858585"/>
<path d="M14.791 36.9458V40.3179H16.1398V36.9458H14.791Z" fill="#FEFEFE"/>
<path d="M34.3486 36.9458V40.3179H35.6975V36.9458H34.3486Z" fill="#FEFEFE"/>
<path d="M39.7441 36.9458V41.3295H40.0813L39.7441 36.9458Z" fill="#858585"/>
<path d="M9.73242 37.2827V40.6548H10.0696L9.73242 37.2827ZM10.4068 37.2827V40.992H10.744L10.4068 37.2827Z" fill="#858585"/>
<path d="M14.4531 37.2827C14.456 40.996 16.4733 40.996 16.4764 37.2827H16.1392V40.3176H14.7903L14.4531 37.2827Z" fill="#858585"/>
<path d="M34.0117 37.2827V40.6548H34.3489L34.0117 37.2827Z" fill="#858585"/>
<path d="M35.6975 37.2827V40.3176H34.3486V40.6548C36.1335 40.357 36.3405 38.816 35.6975 37.2827ZM36.7091 37.2827V40.6548H37.0463L36.7091 37.2827Z" fill="#858585"/>
<path d="M40.4189 37.2827V40.6548H40.7562L40.4189 37.2827Z" fill="#858585"/>
<path d="M43.1162 37.6201V40.9922H43.4534L43.1162 37.6201Z" fill="#858585"/>
<path d="M8.04688 40.3179V40.6551H9.73292L8.04688 40.3179Z" fill="#858585"/>
<path d="M40.7559 40.3179V40.6551H42.4419L40.7559 40.3179Z" fill="#858585"/>
<path d="M7.70898 41.3294V41.6666H10.4066L7.70898 41.3294ZM14.1159 41.3294V41.6666H16.8136L14.1159 41.3294ZM33.674 41.3294V41.6666H36.3717L33.674 41.3294ZM40.081 41.3294V41.6666H42.7786L40.081 41.3294Z" fill="#858585"/>
<path d="M18.8369 41.6665V45.713H19.1741L18.8369 41.6665Z" fill="#858585"/>
<path d="M6.02344 45.7129V46.0501H11.756L6.02344 45.7129Z" fill="#858585"/>
<path d="M19.1748 45.7129V46.0501H20.8608L19.1748 45.7129Z" fill="#858585"/>
<path d="M29.6279 45.7129V46.0501H31.314L29.6279 45.7129Z" fill="#858585"/>
<path d="M38.7324 45.7129V46.0501H44.465L38.7324 45.7129Z" fill="#858585"/>
</svg>
