<svg width="48" height="48" viewBox="0 0 48 48" fill="none" xmlns="http://www.w3.org/2000/svg">
<g clip-path="url(#clip0_5566_80)">
<circle cx="24" cy="52.2188" r="18.75" fill="#FFDD2C"/>
<path d="M38.1007 36.4386V36.9386H38.6007H46.3204C46.6411 36.9386 46.9013 37.1986 46.9013 37.5194C46.9013 37.8402 46.6411 38.1003 46.3204 38.1003H38.6007H38.1007V38.6003V46.3205C38.1007 46.6413 37.8405 46.9014 37.5198 46.9014C37.199 46.9014 36.9389 46.6413 36.9389 46.3205V38.6004V38.1004H36.4389H28.7185C28.3977 38.1004 28.1375 37.8404 28.1375 37.5195C28.1375 37.1987 28.3978 36.9386 28.7185 36.9386H36.4389H36.9389V36.4386V28.7189C36.9389 28.398 37.1991 28.138 37.5198 28.138C37.8405 28.138 38.1007 28.398 38.1007 28.7189V36.4386ZM41.9954 19.8287H33.0449C30.3409 19.8287 28.1405 17.6282 28.1404 14.9242V5.96737C28.1404 3.2633 30.3408 1.06288 33.0449 1.06288H41.9954C44.6995 1.06288 46.8999 3.2633 46.8999 5.96737V7.40119C46.8999 7.72205 46.6397 7.98212 46.319 7.98212C45.9982 7.98212 45.7381 7.72205 45.7381 7.40119V5.96737C45.7381 3.90303 44.0596 2.22466 41.9953 2.22466H33.0448C30.9805 2.22466 29.3021 3.90315 29.3021 5.96737V14.9242C29.3021 16.9885 30.9806 18.6669 33.0448 18.6669H41.9953C44.0597 18.6669 45.7381 16.9884 45.7381 14.9242V12.6111C45.7381 12.2902 45.9982 12.0301 46.319 12.0301C46.6397 12.0301 46.8999 12.2902 46.8999 12.6111V14.9242C46.8999 17.6282 44.6995 19.8287 41.9954 19.8287ZM14.9217 19.8261H5.967C3.26292 19.8261 1.0625 17.6257 1.0625 14.9217V5.967C1.0625 3.26292 3.26292 1.0625 5.967 1.0625H14.9217C17.6258 1.0625 19.8262 3.26292 19.8262 5.967V14.9216C19.8262 17.6257 17.6258 19.8261 14.9217 19.8261ZM5.967 2.22428C3.90266 2.22428 2.22428 3.90277 2.22428 5.967V14.9217C2.22428 16.9861 3.90277 18.6644 5.967 18.6644H14.9217C16.9861 18.6644 18.6644 16.9859 18.6644 14.9217V5.967C18.6644 3.90266 16.986 2.22428 14.9217 2.22428H5.967ZM14.9217 46.9013H5.967C3.26292 46.9013 1.0625 44.7009 1.0625 41.9968V33.0425C1.0625 30.3384 3.26292 28.138 5.967 28.138H14.9217C17.6258 28.138 19.8262 30.3384 19.8262 33.0425V41.9968C19.8262 44.7009 17.6258 46.9013 14.9217 46.9013ZM5.967 29.2997C3.90266 29.2997 2.22428 30.9782 2.22428 33.0425V41.9968C2.22428 44.0611 3.90277 45.7395 5.967 45.7395H14.9217C16.9861 45.7395 18.6644 44.061 18.6644 41.9968V33.0425C18.6644 30.9781 16.986 29.2997 14.9217 29.2997H5.967Z" stroke="#494949"/>
</g>
<defs>
<clipPath id="clip0_5566_80">
<rect width="48" height="48" fill="white"/>
</clipPath>
</defs>
</svg>
