<svg width="50" height="50" viewBox="0 0 50 50" fill="none" xmlns="http://www.w3.org/2000/svg">
<path d="M25.5015 37.8271C24.5157 37.8271 23.7158 38.627 23.7158 39.61V42.2998H21.3076V36.9343H25.5015H29.6925V42.2998H27.2843V39.61C27.2843 38.627 26.4844 37.8271 25.5015 37.8271Z" fill="#FFCC05"/>
<path d="M21.3076 31.7462C21.8287 31.4674 23.3722 30.752 25.5015 30.752C27.628 30.752 29.1714 31.4674 29.6925 31.7462V32.8672H25.5015H21.3076V31.7462Z" fill="#FFCC05"/>
<path d="M47.1547 36.0894H30.5371V33.7122H47.1547V36.0894Z" fill="#FFCC05"/>
<path d="M25.5006 14.9086C28.1988 14.9086 30.7591 15.5001 33.0714 16.5479H25.5006H17.9297C20.2393 15.5001 22.8023 14.9086 25.5006 14.9086Z" fill="#FFCC05"/>
<path d="M19.9922 11.7881H31.0077V12.4443H19.9922V11.7881Z" fill="#FFCC05"/>
<path d="M20.4624 33.7122V36.0894H3.84473V33.7122H20.4624Z" fill="#FFCC05"/>
<path d="M3.84473 40.1254H20.4624V42.2998H3.84473V40.1254Z" fill="#FFCC05"/>
<path d="M30.5371 42.2998V40.1254H47.1547V42.2998H30.5371Z" fill="#FFCC05"/>
<path d="M25.8591 26.1524C25.8591 26.3496 25.6985 26.5129 25.5014 26.5129C25.3014 26.5129 25.1409 26.3496 25.1409 26.1524C25.1409 25.9524 25.3014 25.7919 25.5014 25.7919C25.6985 25.7919 25.8591 25.9524 25.8591 26.1524ZM25.5014 27.3579C26.1661 27.3579 26.7069 26.8171 26.7069 26.1524C26.7069 25.4877 26.1661 24.9469 25.5014 24.9469C24.8367 24.9469 24.2959 25.4877 24.2959 26.1524C24.2959 26.8171 24.8367 27.3579 25.5014 27.3579Z" fill="#858585"/>
<path d="M5.39416 35.7031C5.62794 35.7031 5.81664 35.5144 5.81664 35.2806V34.5765C5.81664 34.3455 5.62794 34.154 5.39416 34.154C5.16039 34.154 4.97168 34.3455 4.97168 34.5765V35.2806C4.97168 35.5144 5.16039 35.7031 5.39416 35.7031Z" fill="#858585"/>
<path d="M7.64709 35.7031C7.88087 35.7031 8.06957 35.5144 8.06957 35.2806V34.5765C8.06957 34.3455 7.88087 34.154 7.64709 34.154C7.41332 34.154 7.22461 34.3455 7.22461 34.5765V35.2806C7.22461 35.5144 7.41332 35.7031 7.64709 35.7031Z" fill="#858585"/>
<path d="M9.90002 35.7031C10.1338 35.7031 10.3225 35.5144 10.3225 35.2806V34.5765C10.3225 34.3455 10.1338 34.154 9.90002 34.154C9.66625 34.154 9.47754 34.3455 9.47754 34.5765V35.2806C9.47754 35.5144 9.66625 35.7031 9.90002 35.7031Z" fill="#858585"/>
<path d="M12.1539 35.7031C12.3877 35.7031 12.5764 35.5144 12.5764 35.2806V34.5765C12.5764 34.3455 12.3877 34.154 12.1539 34.154C11.9202 34.154 11.7314 34.3455 11.7314 34.5765V35.2806C11.7314 35.5144 11.9202 35.7031 12.1539 35.7031Z" fill="#858585"/>
<path d="M14.4069 35.7031C14.6406 35.7031 14.8293 35.5144 14.8293 35.2806V34.5765C14.8293 34.3455 14.6406 34.154 14.4069 34.154C14.1731 34.154 13.9844 34.3455 13.9844 34.5765V35.2806C13.9844 35.5144 14.1731 35.7031 14.4069 35.7031Z" fill="#858585"/>
<path d="M16.6598 35.7031C16.8936 35.7031 17.0823 35.5144 17.0823 35.2806V34.5765C17.0823 34.3455 16.8936 34.154 16.6598 34.154C16.426 34.154 16.2373 34.3455 16.2373 34.5765V35.2806C16.2373 35.5144 16.426 35.7031 16.6598 35.7031Z" fill="#858585"/>
<path d="M18.9137 35.7031C19.1475 35.7031 19.3362 35.5144 19.3362 35.2806V34.5765C19.3362 34.3455 19.1475 34.154 18.9137 34.154C18.6799 34.154 18.4912 34.3455 18.4912 34.5765V35.2806C18.4912 35.5144 18.6799 35.7031 18.9137 35.7031Z" fill="#858585"/>
<path d="M5.39416 40.4914C5.16039 40.4914 4.97168 40.683 4.97168 40.9139V41.618C4.97168 41.8518 5.16039 42.0405 5.39416 42.0405C5.62794 42.0405 5.81664 41.8518 5.81664 41.618V40.9139C5.81664 40.683 5.62794 40.4914 5.39416 40.4914Z" fill="#858585"/>
<path d="M7.64709 40.4914C7.41332 40.4914 7.22461 40.683 7.22461 40.9139V41.618C7.22461 41.8518 7.41332 42.0405 7.64709 42.0405C7.88087 42.0405 8.06957 41.8518 8.06957 41.618V40.9139C8.06957 40.683 7.88087 40.4914 7.64709 40.4914Z" fill="#858585"/>
<path d="M9.90002 40.4914C9.66625 40.4914 9.47754 40.683 9.47754 40.9139V41.618C9.47754 41.8518 9.66625 42.0405 9.90002 42.0405C10.1338 42.0405 10.3225 41.8518 10.3225 41.618V40.9139C10.3225 40.683 10.1338 40.4914 9.90002 40.4914Z" fill="#858585"/>
<path d="M12.1539 40.4914C11.9202 40.4914 11.7314 40.683 11.7314 40.9139V41.618C11.7314 41.8518 11.9202 42.0405 12.1539 42.0405C12.3877 42.0405 12.5764 41.8518 12.5764 41.618V40.9139C12.5764 40.683 12.3877 40.4914 12.1539 40.4914Z" fill="#858585"/>
<path d="M14.4069 40.4914C14.1731 40.4914 13.9844 40.683 13.9844 40.9139V41.618C13.9844 41.8518 14.1731 42.0405 14.4069 42.0405C14.6406 42.0405 14.8293 41.8518 14.8293 41.618V40.9139C14.8293 40.683 14.6406 40.4914 14.4069 40.4914Z" fill="#858585"/>
<path d="M16.6598 40.4914C16.426 40.4914 16.2373 40.683 16.2373 40.9139V41.618C16.2373 41.8518 16.426 42.0405 16.6598 42.0405C16.8936 42.0405 17.0823 41.8518 17.0823 41.618V40.9139C17.0823 40.683 16.8936 40.4914 16.6598 40.4914Z" fill="#858585"/>
<path d="M18.9137 40.4914C18.6799 40.4914 18.4912 40.683 18.4912 40.9139V41.618C18.4912 41.8518 18.6799 42.0405 18.9137 42.0405C19.1475 42.0405 19.3362 41.8518 19.3362 41.618V40.9139C19.3362 40.683 19.1475 40.4914 18.9137 40.4914Z" fill="#858585"/>
<path d="M24.5944 10.2837H26.4054C26.6392 10.2837 26.8279 10.095 26.8279 9.86121C26.8279 9.63025 26.6392 9.43873 26.4054 9.43873H24.5944C24.3634 9.43873 24.1719 9.63025 24.1719 9.86121C24.1719 10.095 24.3634 10.2837 24.5944 10.2837Z" fill="#858585"/>
<path d="M24.9528 8.21949C24.719 8.21949 24.5303 8.4082 24.5303 8.64197C24.5303 8.87574 24.719 9.06445 24.9528 9.06445H26.0484C26.2822 9.06445 26.4709 8.87574 26.4709 8.64197C26.4709 8.4082 26.2822 8.21949 26.0484 8.21949H24.9528Z" fill="#858585"/>
<path d="M25.2819 7.84521H25.7184C25.9522 7.84521 26.1409 7.65369 26.1409 7.42273C26.1409 7.18896 25.9522 7.00025 25.7184 7.00025H25.2819C25.0481 7.00025 24.8594 7.18896 24.8594 7.42273C24.8594 7.65369 25.0481 7.84521 25.2819 7.84521Z" fill="#858585"/>
<path d="M30.5374 42.2996V40.1252H47.155V42.2996H30.5374ZM25.5014 42.2996H24.5607V39.6098C24.5607 39.0915 24.9832 38.6718 25.5014 38.6718C26.0168 38.6718 26.4393 39.0915 26.4393 39.6098V42.2996H25.5014ZM3.84496 40.1252H20.4626V42.2996H3.84496V40.1252ZM20.4626 33.7119V36.0891H3.84496V33.7119H20.4626ZM13.2213 19.6264H37.7788C41.4234 22.9048 43.7498 27.6169 43.8709 32.8669H30.5374V31.9262H31.4303C31.664 31.9262 31.8527 31.7347 31.8527 31.5037C31.8527 31.27 31.664 31.0812 31.4303 31.0812H30.5374V30.1546H31.4303C31.664 30.1546 31.8527 29.9659 31.8527 29.7321C31.8527 29.5012 31.664 29.3096 31.4303 29.3096H30.5374V27.4197C30.5374 27.186 30.3487 26.9973 30.1149 26.9973C29.884 26.9973 29.6924 27.186 29.6924 27.4197V29.0336C28.901 28.6647 27.4279 28.138 25.5014 28.138C23.5721 28.138 22.1018 28.6647 21.3076 29.0336V27.4197C21.3076 27.186 21.1189 26.9973 20.8851 26.9973C20.6513 26.9973 20.4626 27.186 20.4626 27.4197V29.3096H19.5698C19.336 29.3096 19.1473 29.5012 19.1473 29.7321C19.1473 29.9659 19.336 30.1546 19.5698 30.1546H20.4626V31.0812H19.5698C19.336 31.0812 19.1473 31.27 19.1473 31.5037C19.1473 31.7347 19.336 31.9262 19.5698 31.9262H20.4626V32.8669H7.13188C7.25018 27.6169 9.57665 22.9048 13.2213 19.6264ZM21.2512 13.2891H29.7516V14.5425C28.3828 14.2327 26.9604 14.0637 25.5014 14.0637C24.0396 14.0637 22.6173 14.2327 21.2512 14.5425V13.2891ZM19.9923 11.7879H31.0078V12.4442H19.9923V11.7879ZM25.5014 14.9086C28.1997 14.9086 30.7599 15.5001 33.0723 16.5479H25.5014H17.9305C20.2401 15.5001 22.8032 14.9086 25.5014 14.9086ZM25.5014 18.7814H14.2352C14.8858 18.2744 15.5731 17.8097 16.2913 17.3928H25.5014H34.7087C35.4269 17.8097 36.1142 18.2744 36.7648 18.7814H25.5014ZM47.155 36.0891H30.5374V33.7119H47.155V36.0891ZM30.5374 36.934H47.155V39.2802H30.5374V36.934ZM25.5014 33.7119H29.6924V36.0891H21.3076V33.7119H25.5014ZM21.3076 31.746C21.8286 31.4671 23.3721 30.7517 25.5014 30.7517C27.6279 30.7517 29.1714 31.4671 29.6924 31.746V32.8669H25.5014H21.3076V31.746ZM25.5014 28.9829C27.6279 28.9829 29.1714 29.6983 29.6924 29.9772V30.8024C28.901 30.4334 27.4279 29.9068 25.5014 29.9068C23.5721 29.9068 22.1018 30.4334 21.3076 30.8024V29.9772C21.8286 29.6983 23.3721 28.9829 25.5014 28.9829ZM3.84496 36.934H20.4626V39.2802H3.84496V36.934ZM25.5014 37.8269C24.5156 37.8269 23.7157 38.6268 23.7157 39.6098V42.2996H21.3076V36.934H25.5014H29.6924V42.2996H27.2843V39.6098C27.2843 38.6268 26.4844 37.8269 25.5014 37.8269ZM47.5775 32.8669H44.7159C44.5948 27.3465 42.1388 22.3922 38.297 18.956C38.2576 18.9053 38.2097 18.8631 38.1534 18.8349C37.2239 18.0181 36.2127 17.2914 35.1368 16.6633C35.0889 16.6211 35.0326 16.5873 34.9707 16.5676C33.6046 15.793 32.14 15.179 30.5966 14.7537V13.2891H31.4303C31.664 13.2891 31.8527 13.1004 31.8527 12.8666V11.3654C31.8527 11.1316 31.664 10.9429 31.4303 10.9429H25.5014H19.5698C19.336 10.9429 19.1473 11.1316 19.1473 11.3654V12.8666C19.1473 13.1004 19.336 13.2891 19.5698 13.2891H20.4063V14.7537C18.86 15.179 17.3954 15.793 16.0322 16.5676C15.9674 16.5873 15.9111 16.6211 15.866 16.6633C14.7873 17.2886 13.7789 18.0181 12.8467 18.8349C12.7903 18.8631 12.7425 18.9053 12.7058 18.956C8.86125 22.3922 6.40521 27.3465 6.28692 32.8669H3.42248C3.18871 32.8669 3 33.0557 3 33.2894V42.722C3 42.9558 3.18871 43.1445 3.42248 43.1445H24.1382H25.5014H26.8618H47.5775C47.8113 43.1445 48 42.9558 48 42.722V33.2894C48 33.0557 47.8113 32.8669 47.5775 32.8669Z" fill="#858585"/>
<path d="M45.6061 35.7031C45.8398 35.7031 46.0286 35.5144 46.0286 35.2806V34.5765C46.0286 34.3455 45.8398 34.154 45.6061 34.154C45.3751 34.154 45.1836 34.3455 45.1836 34.5765V35.2806C45.1836 35.5144 45.3751 35.7031 45.6061 35.7031Z" fill="#858585"/>
<path d="M43.3531 34.154C43.1222 34.154 42.9307 34.3455 42.9307 34.5765V35.2806C42.9307 35.5144 43.1222 35.7031 43.3531 35.7031C43.5869 35.7031 43.7756 35.5144 43.7756 35.2806V34.5765C43.7756 34.3455 43.5869 34.154 43.3531 34.154Z" fill="#858585"/>
<path d="M41.0992 34.154C40.8683 34.154 40.6768 34.3455 40.6768 34.5765V35.2806C40.6768 35.5144 40.8683 35.7031 41.0992 35.7031C41.333 35.7031 41.5217 35.5144 41.5217 35.2806V34.5765C41.5217 34.3455 41.333 34.154 41.0992 34.154Z" fill="#858585"/>
<path d="M38.8463 34.154C38.6154 34.154 38.4238 34.3455 38.4238 34.5765V35.2806C38.4238 35.5144 38.6154 35.7031 38.8463 35.7031C39.0801 35.7031 39.2688 35.5144 39.2688 35.2806V34.5765C39.2688 34.3455 39.0801 34.154 38.8463 34.154Z" fill="#858585"/>
<path d="M36.5934 34.154C36.3624 34.154 36.1709 34.3455 36.1709 34.5765V35.2806C36.1709 35.5144 36.3624 35.7031 36.5934 35.7031C36.8272 35.7031 37.0159 35.5144 37.0159 35.2806V34.5765C37.0159 34.3455 36.8272 34.154 36.5934 34.154Z" fill="#858585"/>
<path d="M34.3395 34.154C34.1085 34.154 33.917 34.3455 33.917 34.5765V35.2806C33.917 35.5144 34.1085 35.7031 34.3395 35.7031C34.5732 35.7031 34.762 35.5144 34.762 35.2806V34.5765C34.762 34.3455 34.5732 34.154 34.3395 34.154Z" fill="#858585"/>
<path d="M32.0865 34.154C31.8556 34.154 31.6641 34.3455 31.6641 34.5765V35.2806C31.6641 35.5144 31.8556 35.7031 32.0865 35.7031C32.3203 35.7031 32.509 35.5144 32.509 35.2806V34.5765C32.509 34.3455 32.3203 34.154 32.0865 34.154Z" fill="#858585"/>
<path d="M45.6061 40.4914C45.3751 40.4914 45.1836 40.683 45.1836 40.9139V41.618C45.1836 41.8518 45.3751 42.0405 45.6061 42.0405C45.8398 42.0405 46.0286 41.8518 46.0286 41.618V40.9139C46.0286 40.683 45.8398 40.4914 45.6061 40.4914Z" fill="#858585"/>
<path d="M43.3531 40.4914C43.1222 40.4914 42.9307 40.683 42.9307 40.9139V41.618C42.9307 41.8518 43.1222 42.0405 43.3531 42.0405C43.5869 42.0405 43.7756 41.8518 43.7756 41.618V40.9139C43.7756 40.683 43.5869 40.4914 43.3531 40.4914Z" fill="#858585"/>
<path d="M41.0992 40.4914C40.8683 40.4914 40.6768 40.683 40.6768 40.9139V41.618C40.6768 41.8518 40.8683 42.0405 41.0992 42.0405C41.333 42.0405 41.5217 41.8518 41.5217 41.618V40.9139C41.5217 40.683 41.333 40.4914 41.0992 40.4914Z" fill="#858585"/>
<path d="M38.8463 40.4914C38.6154 40.4914 38.4238 40.683 38.4238 40.9139V41.618C38.4238 41.8518 38.6154 42.0405 38.8463 42.0405C39.0801 42.0405 39.2688 41.8518 39.2688 41.618V40.9139C39.2688 40.683 39.0801 40.4914 38.8463 40.4914Z" fill="#858585"/>
<path d="M36.5934 40.4914C36.3624 40.4914 36.1709 40.683 36.1709 40.9139V41.618C36.1709 41.8518 36.3624 42.0405 36.5934 42.0405C36.8272 42.0405 37.0159 41.8518 37.0159 41.618V40.9139C37.0159 40.683 36.8272 40.4914 36.5934 40.4914Z" fill="#858585"/>
<path d="M34.3395 40.4914C34.1085 40.4914 33.917 40.683 33.917 40.9139V41.618C33.917 41.8518 34.1085 42.0405 34.3395 42.0405C34.5732 42.0405 34.762 41.8518 34.762 41.618V40.9139C34.762 40.683 34.5732 40.4914 34.3395 40.4914Z" fill="#858585"/>
<path d="M32.0865 40.4914C31.8556 40.4914 31.6641 40.683 31.6641 40.9139V41.618C31.6641 41.8518 31.8556 42.0405 32.0865 42.0405C32.3203 42.0405 32.509 41.8518 32.509 41.618V40.9139C32.509 40.683 32.3203 40.4914 32.0865 40.4914Z" fill="#858585"/>
</svg>
