<svg width="50" height="50" viewBox="0 0 50 50" fill="none" xmlns="http://www.w3.org/2000/svg">
<g clip-path="url(#clip0_8776_587)">
<path d="M15.915 26.2183H7.19336V44.1343H15.915V26.2183Z" fill="white"/>
<path d="M39.2488 18.251H29.0469V44.1353H39.2488V18.251Z" fill="white"/>
<path d="M29.1834 5.81543H16.3223V44.1353H29.1834V5.81543Z" fill="white"/>
<path d="M26.6508 10.5957H18.9229V15.8795H26.6508V10.5957Z" fill="#FFCC05"/>
<path d="M47.4249 44.7092H3.57508C3.42256 44.7092 3.27629 44.6487 3.16844 44.5408C3.06059 44.433 3 44.2867 3 44.1342C3 43.9816 3.06059 43.8354 3.16844 43.7275C3.27629 43.6197 3.42256 43.5591 3.57508 43.5591H47.4249C47.5774 43.5591 47.7237 43.6197 47.8316 43.7275C47.9394 43.8354 48 43.9816 48 44.1342C48 44.2867 47.9394 44.433 47.8316 44.5408C47.7237 44.6487 47.5774 44.7092 47.4249 44.7092Z" fill="#858585"/>
<path d="M43.6141 44.4333C43.4616 44.4333 43.3153 44.3727 43.2075 44.2648C43.0997 44.157 43.0391 44.0107 43.0391 43.8582V39.4462C43.0391 39.2937 43.0997 39.1474 43.2075 39.0395C43.3153 38.9317 43.4616 38.8711 43.6141 38.8711C43.7667 38.8711 43.9129 38.9317 44.0208 39.0395C44.1286 39.1474 44.1892 39.2937 44.1892 39.4462V43.8582C44.1892 44.0107 44.1286 44.157 44.0208 44.2648C43.9129 44.3727 43.7667 44.4333 43.6141 44.4333Z" fill="#858585"/>
<path d="M29.2374 44.7093H16.2118C16.0593 44.7093 15.913 44.6487 15.8052 44.5408C15.6973 44.433 15.6367 44.2867 15.6367 44.1342V5.57508C15.6367 5.42256 15.6973 5.27629 15.8052 5.16844C15.913 5.06059 16.0593 5 16.2118 5H29.2374C29.3899 5 29.5362 5.06059 29.644 5.16844C29.7518 5.27629 29.8124 5.42256 29.8124 5.57508V44.1342C29.8124 44.2867 29.7518 44.433 29.644 44.5408C29.5362 44.6487 29.3899 44.7093 29.2374 44.7093ZM16.7869 43.5591H28.6623V6.15016H16.7869V43.5591Z" fill="#858585"/>
<path d="M39.4449 44.7094H29.2372C29.0847 44.7094 28.9384 44.6488 28.8305 44.541C28.7227 44.4331 28.6621 44.2869 28.6621 44.1343V17.997C28.6621 17.8444 28.7227 17.6982 28.8305 17.5903C28.9384 17.4825 29.0847 17.4219 29.2372 17.4219H39.4449C39.5974 17.4219 39.7437 17.4825 39.8515 17.5903C39.9593 17.6982 40.0199 17.8444 40.0199 17.997V44.1343C40.0199 44.2869 39.9593 44.4331 39.8515 44.541C39.7437 44.6488 39.5974 44.7094 39.4449 44.7094ZM29.8123 43.5593H38.8698V18.572H29.8123V43.5593Z" fill="#858585"/>
<path d="M16.2116 44.7091H7.19324C7.04072 44.7091 6.89445 44.6486 6.7866 44.5407C6.67875 44.4329 6.61816 44.2866 6.61816 44.1341V26.0409C6.61816 25.8884 6.67875 25.7421 6.7866 25.6343C6.89445 25.5264 7.04072 25.4658 7.19324 25.4658H16.2116C16.3642 25.4658 16.5104 25.5264 16.6183 25.6343C16.7261 25.7421 16.7867 25.8884 16.7867 26.0409V44.1341C16.7867 44.2866 16.7261 44.4329 16.6183 44.5407C16.5104 44.6486 16.3642 44.7091 16.2116 44.7091ZM7.76832 43.559H15.6366V26.616H7.76832V43.559Z" fill="#858585"/>
<path d="M26.5586 16.6337H18.8905C18.738 16.6337 18.5917 16.5731 18.4839 16.4652C18.376 16.3574 18.3154 16.2111 18.3154 16.0586V10.4999C18.3154 10.3474 18.376 10.2011 18.4839 10.0932C18.5917 9.98539 18.738 9.9248 18.8905 9.9248H26.5586C26.7111 9.9248 26.8574 9.98539 26.9653 10.0932C27.0731 10.2011 27.1337 10.3474 27.1337 10.4999V16.0586C27.1337 16.2111 27.0731 16.3574 26.9653 16.4652C26.8574 16.5731 26.7111 16.6337 26.5586 16.6337ZM19.4656 15.4835H25.9835V11.075H19.4656V15.4835Z" fill="#858585"/>
<path d="M35.4649 22.242H33.2186C33.0661 22.242 32.9198 22.1814 32.812 22.0735C32.7041 21.9657 32.6436 21.8194 32.6436 21.6669C32.6436 21.5144 32.7041 21.3681 32.812 21.2602C32.9198 21.1524 33.0661 21.0918 33.2186 21.0918H35.4649C35.6174 21.0918 35.7637 21.1524 35.8715 21.2602C35.9794 21.3681 36.04 21.5144 36.04 21.6669C36.04 21.8194 35.9794 21.9657 35.8715 22.0735C35.7637 22.1814 35.6174 22.242 35.4649 22.242Z" fill="#FFCC05"/>
<path d="M35.4649 31.6433H33.2186C33.0661 31.6433 32.9198 31.5827 32.812 31.4749C32.7041 31.367 32.6436 31.2208 32.6436 31.0682C32.6436 30.9157 32.7041 30.7694 32.812 30.6616C32.9198 30.5538 33.0661 30.4932 33.2186 30.4932H35.4649C35.6174 30.4932 35.7637 30.5538 35.8715 30.6616C35.9794 30.7694 36.04 30.9157 36.04 31.0682C36.04 31.2208 35.9794 31.367 35.8715 31.4749C35.7637 31.5827 35.6174 31.6433 35.4649 31.6433Z" fill="#FFCC05"/>
<path d="M12.8262 34.8699H10.58C10.4274 34.8699 10.2812 34.8093 10.1733 34.7014C10.0655 34.5936 10.0049 34.4473 10.0049 34.2948C10.0049 34.1423 10.0655 33.996 10.1733 33.8882C10.2812 33.7803 10.4274 33.7197 10.58 33.7197H12.8262C12.9787 33.7197 13.125 33.7803 13.2329 33.8882C13.3407 33.996 13.4013 34.1423 13.4013 34.2948C13.4013 34.4473 13.3407 34.5936 13.2329 34.7014C13.125 34.8093 12.9787 34.8699 12.8262 34.8699Z" fill="#FFCC05"/>
<path d="M12.8262 41.0437H10.58C10.4274 41.0437 10.2812 40.9831 10.1733 40.8753C10.0655 40.7674 10.0049 40.6212 10.0049 40.4686C10.0049 40.3161 10.0655 40.1698 10.1733 40.062C10.2812 39.9541 10.4274 39.8936 10.58 39.8936H12.8262C12.9787 39.8936 13.125 39.9541 13.2329 40.062C13.3407 40.1698 13.4013 40.3161 13.4013 40.4686C13.4013 40.6212 13.3407 40.7674 13.2329 40.8753C13.125 40.9831 12.9787 41.0437 12.8262 41.0437Z" fill="#FFCC05"/>
<path d="M35.4649 34.8054H33.2186C33.0661 34.8054 32.9198 34.7448 32.812 34.637C32.7041 34.5291 32.6436 34.3829 32.6436 34.2304C32.6436 34.0778 32.7041 33.9316 32.812 33.8237C32.9198 33.7159 33.0661 33.6553 33.2186 33.6553H35.4649C35.6174 33.6553 35.7637 33.7159 35.8715 33.8237C35.9794 33.9316 36.04 34.0778 36.04 34.2304C36.04 34.3829 35.9794 34.5291 35.8715 34.637C35.7637 34.7448 35.6174 34.8054 35.4649 34.8054Z" fill="#858585"/>
<path d="M35.4649 40.9783H33.2186C33.0661 40.9783 32.9198 40.9177 32.812 40.8098C32.7041 40.702 32.6436 40.5557 32.6436 40.4032C32.6436 40.2507 32.7041 40.1044 32.812 39.9966C32.9198 39.8887 33.0661 39.8281 33.2186 39.8281H35.4649C35.6174 39.8281 35.7637 39.8887 35.8715 39.9966C35.9794 40.1044 36.04 40.2507 36.04 40.4032C36.04 40.5557 35.9794 40.702 35.8715 40.8098C35.7637 40.9177 35.6174 40.9783 35.4649 40.9783Z" fill="#858585"/>
<path d="M21.1368 22.242H18.8905C18.738 22.242 18.5917 22.1814 18.4839 22.0735C18.376 21.9657 18.3154 21.8194 18.3154 21.6669C18.3154 21.5144 18.376 21.3681 18.4839 21.2602C18.5917 21.1524 18.738 21.0918 18.8905 21.0918H21.1368C21.2893 21.0918 21.4356 21.1524 21.5434 21.2602C21.6513 21.3681 21.7119 21.5144 21.7119 21.6669C21.7119 21.8194 21.6513 21.9657 21.5434 22.0735C21.4356 22.1814 21.2893 22.242 21.1368 22.242Z" fill="#FFCC05"/>
<path d="M21.1368 25.4729H18.8905C18.738 25.4729 18.5917 25.4123 18.4839 25.3045C18.376 25.1966 18.3154 25.0504 18.3154 24.8978C18.3154 24.7453 18.376 24.599 18.4839 24.4912C18.5917 24.3833 18.738 24.3228 18.8905 24.3228H21.1368C21.2893 24.3228 21.4356 24.3833 21.5434 24.4912C21.6513 24.599 21.7119 24.7453 21.7119 24.8978C21.7119 25.0504 21.6513 25.1966 21.5434 25.3045C21.4356 25.4123 21.2893 25.4729 21.1368 25.4729Z" fill="#FFCC05"/>
<path d="M21.1368 38.0315H18.8905C18.738 38.0315 18.5917 37.9709 18.4839 37.8631C18.376 37.7552 18.3154 37.6089 18.3154 37.4564C18.3154 37.3039 18.376 37.1576 18.4839 37.0498C18.5917 36.9419 18.738 36.8813 18.8905 36.8813H21.1368C21.2893 36.8813 21.4356 36.9419 21.5434 37.0498C21.6513 37.1576 21.7119 37.3039 21.7119 37.4564C21.7119 37.6089 21.6513 37.7552 21.5434 37.8631C21.4356 37.9709 21.2893 38.0315 21.1368 38.0315Z" fill="#FFCC05"/>
<path d="M21.1368 40.9783H18.8905C18.738 40.9783 18.5917 40.9177 18.4839 40.8098C18.376 40.702 18.3154 40.5557 18.3154 40.4032C18.3154 40.2507 18.376 40.1044 18.4839 39.9966C18.5917 39.8887 18.738 39.8281 18.8905 39.8281H21.1368C21.2893 39.8281 21.4356 39.8887 21.5434 39.9966C21.6513 40.1044 21.7119 40.2507 21.7119 40.4032C21.7119 40.5557 21.6513 40.702 21.5434 40.8098C21.4356 40.9177 21.2893 40.9783 21.1368 40.9783Z" fill="#858585"/>
<path d="M26.5586 22.242H24.3124C24.1599 22.242 24.0136 22.1814 23.9057 22.0735C23.7979 21.9657 23.7373 21.8194 23.7373 21.6669C23.7373 21.5144 23.7979 21.3681 23.9057 21.2602C24.0136 21.1524 24.1599 21.0918 24.3124 21.0918H26.5586C26.7112 21.0918 26.8574 21.1524 26.9653 21.2602C27.0731 21.3681 27.1337 21.5144 27.1337 21.6669C27.1337 21.8194 27.0731 21.9657 26.9653 22.0735C26.8574 22.1814 26.7112 22.242 26.5586 22.242Z" fill="#858585"/>
<path d="M26.5586 28.4163H24.3124C24.1599 28.4163 24.0136 28.3557 23.9057 28.2478C23.7979 28.14 23.7373 27.9937 23.7373 27.8412C23.7373 27.6887 23.7979 27.5424 23.9057 27.4346C24.0136 27.3267 24.1599 27.2661 24.3124 27.2661H26.5586C26.7112 27.2661 26.8574 27.3267 26.9653 27.4346C27.0731 27.5424 27.1337 27.6887 27.1337 27.8412C27.1337 27.9937 27.0731 28.14 26.9653 28.2478C26.8574 28.3557 26.7112 28.4163 26.5586 28.4163Z" fill="#FFCC05"/>
<path d="M26.5586 31.6433H24.3124C24.1599 31.6433 24.0136 31.5827 23.9057 31.4749C23.7979 31.367 23.7373 31.2208 23.7373 31.0682C23.7373 30.9157 23.7979 30.7694 23.9057 30.6616C24.0136 30.5538 24.1599 30.4932 24.3124 30.4932H26.5586C26.7112 30.4932 26.8574 30.5538 26.9653 30.6616C27.0731 30.7694 27.1337 30.9157 27.1337 31.0682C27.1337 31.2208 27.0731 31.367 26.9653 31.4749C26.8574 31.5827 26.7112 31.6433 26.5586 31.6433Z" fill="#858585"/>
<path d="M26.5586 34.8054H24.3124C24.1599 34.8054 24.0136 34.7448 23.9057 34.637C23.7979 34.5291 23.7373 34.3829 23.7373 34.2304C23.7373 34.0778 23.7979 33.9316 23.9057 33.8237C24.0136 33.7159 24.1599 33.6553 24.3124 33.6553H26.5586C26.7112 33.6553 26.8574 33.7159 26.9653 33.8237C27.0731 33.9316 27.1337 34.0778 27.1337 34.2304C27.1337 34.3829 27.0731 34.5291 26.9653 34.637C26.8574 34.7448 26.7112 34.8054 26.5586 34.8054Z" fill="#858585"/>
</g>
<defs>
<clipPath id="clip0_8776_587">
<rect width="45" height="39.7093" fill="white" transform="translate(3 5)"/>
</clipPath>
</defs>
</svg>
