<svg width="50" height="50" viewBox="0 0 50 50" fill="none" xmlns="http://www.w3.org/2000/svg">
<g clip-path="url(#clip0_8776_1626)">
<path d="M25.5 39.9823H4.02336C4.02733 39.6626 4.04237 39.3498 4.05366 39.0369H24.2129H25.5H26.7868H46.9462C46.9577 39.3498 46.9727 39.6626 46.9768 39.9823H25.5ZM26.2767 34.8441V38.0168H24.723V34.8441C24.723 34.4156 25.0716 34.0654 25.5 34.0654C25.9282 34.0654 26.2767 34.4156 26.2767 34.8441ZM11.363 18.8004C11.8248 19.4023 12.4532 20.0586 13.2585 20.7761C16.911 24.0372 22.4957 26.812 27.8964 29.4951C33.6498 32.3549 39.0841 35.0549 41.2319 37.9114C41.255 37.9454 41.2768 37.9828 41.3003 38.0168H39.414V37.4523C39.414 37.17 39.1855 36.9422 38.9039 36.9422C38.6224 36.9422 38.3938 37.17 38.3938 37.4523V38.0168H36.311V36.3777C36.311 36.0989 36.0828 35.8676 35.8009 35.8676C35.519 35.8676 35.2909 36.0989 35.2909 36.3777V38.0168H33.208V36.932C33.208 36.6498 32.9799 36.4219 32.698 36.4219C32.416 36.4219 32.1879 36.6498 32.1879 36.932V38.0168H30.105V34.9767C30.105 34.6945 29.8769 34.4666 29.595 34.4666C29.3131 34.4666 29.0849 34.6945 29.0849 34.9767V38.0168H27.2969V34.8441C27.2969 33.8511 26.491 33.0452 25.5 33.0452C24.5091 33.0452 23.7029 33.8511 23.7029 34.8441V38.0168H22.4539V37.0918C22.4539 36.8096 22.2257 36.5818 21.9438 36.5818C21.6619 36.5818 21.4337 36.8096 21.4337 37.0918V38.0168H19.3509V35.6568C19.3509 35.3746 19.1227 35.1467 18.8408 35.1467C18.5589 35.1467 18.3307 35.3746 18.3307 35.6568V38.0168H16.2479V36.932C16.2479 36.6498 16.0197 36.4219 15.7378 36.4219C15.4559 36.4219 15.2277 36.6498 15.2277 36.932V38.0168H13.1449V34.9767C13.1449 34.6945 12.9167 34.4666 12.6348 34.4666C12.3529 34.4666 12.1247 34.6945 12.1247 34.9767V38.0168H10.0419V33.0962C10.0419 32.814 9.81374 32.5861 9.53184 32.5861C9.24994 32.5861 9.02176 32.814 9.02176 33.0962V38.0168H6.93894V37.0918C6.93894 36.8096 6.71076 36.5818 6.42886 36.5818C6.14695 36.5818 5.91878 36.8096 5.91878 37.0918V38.0168H4.10147C4.55999 30.5526 7.09468 23.8264 11.363 18.8004ZM11.4793 16.3962C11.6439 15.9643 12.3754 15.6685 13.4972 15.5597C13.4812 15.6209 13.468 15.6821 13.4581 15.7467C13.335 16.5594 13.7961 17.481 14.8292 18.4909C17.6693 21.259 21.7153 23.6087 25.9989 26.0979C29.5773 28.1756 33.2298 30.2942 36.2784 32.7357C33.9296 31.3551 31.1776 29.9881 28.3504 28.5837C23.0102 25.9279 17.4881 23.1871 13.9379 20.0178C11.3532 17.7088 11.3576 16.7159 11.4793 16.3962ZM14.465 15.9133C14.5055 15.6039 14.7578 15.4611 14.7605 15.4577C14.7772 15.4508 14.7884 15.4373 14.8037 15.427C14.8169 15.4168 14.8319 15.4135 14.8445 15.4033C18.1665 12.7746 21.9506 11.3294 25.5 11.3294C35.3745 11.3294 45.9076 21.9493 46.8986 38.0168H42.5163C42.383 37.7855 42.2368 37.5509 42.0637 37.3197C38.6587 32.2699 32.4834 28.6823 26.5114 25.2138C22.2838 22.7586 18.2909 20.4394 15.5413 17.7598C14.5238 16.7669 14.43 16.1786 14.465 15.9133ZM23.7454 9.02726C25.3076 8.96265 30.5767 9.06125 34.2704 12.8732C31.4551 11.2104 28.45 10.3093 25.5 10.3093C24.9196 10.3093 24.3337 10.3501 23.7454 10.4181V9.02726ZM47.9527 38.5269C47.9527 38.4929 47.9493 38.4555 47.9425 38.4248C47.4107 27.8254 42.8309 19.4703 36.9115 14.7095C32.533 7.06514 23.27 8.03429 23.1768 8.04449C22.9197 8.0751 22.7252 8.29275 22.7252 8.55119V10.5745C19.8609 11.1118 16.9688 12.4584 14.3521 14.4987C12.1938 14.5259 10.9053 15.0394 10.5262 16.0324C10.3218 16.5696 10.4078 17.1919 10.7822 17.906C6.15988 23.2313 3.45496 30.4438 3.05727 38.4282C3.05087 38.4588 3.0473 38.4929 3.0473 38.5269C3.0473 38.5371 3.04941 38.5439 3.04968 38.5507C3.01966 39.1934 3 39.8395 3 40.4924C3 40.7712 3.22835 41.0024 3.51008 41.0024H25.5H47.4899C47.7718 41.0024 48 40.7712 48 40.4924C48 39.8361 47.9803 39.19 47.95 38.5507C47.9503 38.5439 47.9527 38.5371 47.9527 38.5269Z" fill="#858585"/>
<path d="M6.42902 33.8921C6.71093 33.8921 6.9391 33.6643 6.9391 33.382V32.8073C6.9391 32.5285 6.71093 32.2972 6.42902 32.2972C6.14712 32.2972 5.91895 32.5285 5.91895 32.8073V33.382C5.91895 33.6643 6.14712 33.8921 6.42902 33.8921Z" fill="#858585"/>
<path d="M9.53156 29.0532C9.81347 29.0532 10.0416 28.8254 10.0416 28.5431V25.8295C10.0416 25.5473 9.81347 25.3194 9.53156 25.3194C9.24966 25.3194 9.02148 25.5473 9.02148 25.8295V28.5431C9.02148 28.8254 9.24966 29.0532 9.53156 29.0532Z" fill="#858585"/>
<path d="M12.6351 30.9609C12.917 30.9609 13.1452 30.7331 13.1452 30.4509V29.5361C13.1452 29.2539 12.917 29.026 12.6351 29.026C12.3532 29.026 12.125 29.2539 12.125 29.5361V30.4509C12.125 30.7331 12.3532 30.9609 12.6351 30.9609Z" fill="#858585"/>
<path d="M15.7376 32.1714C16.0195 32.1714 16.2477 31.9436 16.2477 31.6613V27.1862C16.2477 26.904 16.0195 26.6761 15.7376 26.6761C15.4557 26.6761 15.2275 26.904 15.2275 27.1862V31.6613C15.2275 31.9436 15.4557 32.1714 15.7376 32.1714Z" fill="#858585"/>
<path d="M15.7376 35.147C16.0195 35.147 16.2477 34.9191 16.2477 34.6369V33.9568C16.2477 33.6745 16.0195 33.4467 15.7376 33.4467C15.4557 33.4467 15.2275 33.6745 15.2275 33.9568V34.6369C15.2275 34.9191 15.4557 35.147 15.7376 35.147Z" fill="#858585"/>
<path d="M18.8411 31.7021C19.123 31.7021 19.3512 31.4743 19.3512 31.1921V30.4508C19.3512 30.1685 19.123 29.9407 18.8411 29.9407C18.5592 29.9407 18.3311 30.1685 18.3311 30.4508V31.1921C18.3311 31.4743 18.5592 31.7021 18.8411 31.7021Z" fill="#858585"/>
<path d="M21.9437 34.0352C22.2256 34.0352 22.4538 33.8073 22.4538 33.5251V31.1923C22.4538 30.9135 22.2256 30.6822 21.9437 30.6822C21.6618 30.6822 21.4336 30.9135 21.4336 31.1923V33.5251C21.4336 33.8073 21.6618 34.0352 21.9437 34.0352Z" fill="#858585"/>
<path d="M29.595 33.3413C29.8769 33.3413 30.1051 33.1135 30.1051 32.8312V31.9165C30.1051 31.6342 29.8769 31.4064 29.595 31.4064C29.3131 31.4064 29.085 31.6342 29.085 31.9165V32.8312C29.085 33.1135 29.3131 33.3413 29.595 33.3413Z" fill="#858585"/>
<path d="M14.4648 15.9136C14.5053 15.6042 14.7576 15.4614 14.7603 15.458C14.777 15.4512 14.7882 15.4376 14.8035 15.4274C14.8168 15.4172 14.8318 15.4138 14.8443 15.4036C18.1663 12.775 21.9504 11.3297 25.4999 11.3297C35.3744 11.3297 45.9075 21.9496 46.8984 38.0171H42.5162C42.3829 37.7859 42.2366 37.5512 42.0635 37.32C38.6586 32.2702 32.4832 28.6826 26.5112 25.2141C22.2837 22.7589 18.2908 20.4397 15.5411 17.7601C14.5237 16.7672 14.4298 16.1789 14.4648 15.9136Z" fill="#FFCC05"/>
<path d="M11.3631 18.8007C11.8249 19.4026 12.4533 20.0589 13.2586 20.7764C16.9111 24.0375 22.4958 26.8123 27.8965 29.4954C33.6499 32.3552 39.0842 35.0552 41.232 37.9117C41.2551 37.9457 41.2769 37.9831 41.3004 38.0171H39.4141V37.4526C39.4141 37.1704 39.1856 36.9425 38.904 36.9425C38.6224 36.9425 38.3939 37.1704 38.3939 37.4526V38.0171H36.3111V36.378C36.3111 36.0992 36.0829 35.8679 35.801 35.8679C35.5191 35.8679 35.2909 36.0992 35.2909 36.378V38.0171H33.2081V36.9323C33.2081 36.6501 32.9799 36.4222 32.698 36.4222C32.4161 36.4222 32.188 36.6501 32.188 36.9323V38.0171H30.1051V34.977C30.1051 34.6948 29.877 34.4669 29.5951 34.4669C29.3132 34.4669 29.085 34.6948 29.085 34.977V38.0171H27.297V34.8444C27.297 33.8514 26.4911 33.0455 25.5001 33.0455C24.5092 33.0455 23.703 33.8514 23.703 34.8444V38.0171H22.4539V37.0921C22.4539 36.8099 22.2258 36.5821 21.9439 36.5821C21.662 36.5821 21.4338 36.8099 21.4338 37.0921V38.0171H19.351V35.6571C19.351 35.3749 19.1228 35.147 18.8409 35.147C18.559 35.147 18.3308 35.3749 18.3308 35.6571V38.0171H16.248V36.9323C16.248 36.6501 16.0198 36.4222 15.7379 36.4222C15.456 36.4222 15.2278 36.6501 15.2278 36.9323V38.0171H13.145V34.977C13.145 34.6948 12.9168 34.4669 12.6349 34.4669C12.353 34.4669 12.1248 34.6948 12.1248 34.977V38.0171H10.042V33.0965C10.042 32.8143 9.81384 32.5864 9.53194 32.5864C9.25003 32.5864 9.02186 32.8143 9.02186 33.0965V38.0171H6.93903V37.0921C6.93903 36.8099 6.71086 36.5821 6.42895 36.5821C6.14705 36.5821 5.91887 36.8099 5.91887 37.0921V38.0171H4.10156C4.56009 30.5529 7.09477 23.8267 11.3631 18.8007Z" fill="#FFCC05"/>
</g>
<defs>
<clipPath id="clip0_8776_1626">
<rect width="45" height="33.0027" fill="white" transform="translate(3 8)"/>
</clipPath>
</defs>
</svg>
