<svg width="512" height="512" viewBox="0 0 512 512" fill="none" xmlns="http://www.w3.org/2000/svg">
<g clip-path="url(#clip0_3949_952)">
<circle cx="256" cy="557" r="200" fill="#FFE785"/>
<g clip-path="url(#clip1_3949_952)">
<path d="M404.64 317.166C394.158 306.252 381.515 300.416 368.115 300.416C354.824 300.416 342.073 306.144 331.159 317.058L297.011 351.097C294.202 349.584 291.392 348.179 288.691 346.775C284.8 344.83 281.126 342.992 277.993 341.047C246.006 320.732 216.938 294.257 189.058 260.002C175.551 242.928 166.473 228.556 159.882 213.968C168.743 205.863 176.955 197.434 184.952 189.33C187.978 186.304 191.003 183.17 194.029 180.144C216.722 157.452 216.722 128.059 194.029 105.366L164.528 75.8654C161.178 72.5155 157.72 69.0575 154.479 65.5996C147.995 58.8998 141.187 51.9839 134.163 45.5002C123.681 35.1263 111.146 29.6152 97.9627 29.6152C84.7792 29.6152 72.028 35.1263 61.2219 45.5002C61.1138 45.6083 61.1139 45.6083 61.0058 45.7163L24.265 82.7813C10.4332 96.6131 2.54473 113.471 0.815749 133.03C-1.77772 164.584 7.51554 193.976 14.6476 213.211C32.1535 260.434 58.3043 304.199 97.3143 351.097C144.645 407.613 201.593 452.242 266.646 483.688C291.5 495.467 324.675 509.407 361.74 511.784C364.009 511.892 366.386 512 368.548 512C393.51 512 414.474 503.031 430.899 485.201C431.007 484.985 431.223 484.877 431.331 484.661C436.95 477.853 443.434 471.693 450.242 465.102C454.889 460.671 459.643 456.024 464.29 451.162C474.988 440.031 480.607 427.064 480.607 413.773C480.607 400.373 474.88 387.514 463.966 376.708L404.64 317.166ZM443.326 430.954C443.218 430.954 443.218 431.062 443.326 430.954C439.112 435.493 434.789 439.599 430.143 444.138C423.119 450.837 415.987 457.861 409.287 465.75C398.373 477.421 385.513 482.932 368.656 482.932C367.035 482.932 365.306 482.932 363.685 482.824C331.591 480.77 301.766 468.235 279.397 457.537C218.235 427.929 164.528 385.893 119.899 332.619C83.0503 288.205 58.4123 247.142 42.0951 203.053C32.0454 176.146 28.3713 155.182 29.9922 135.407C31.0729 122.764 35.9356 112.282 44.9047 103.313L81.7535 66.4641C87.0485 61.4933 92.6677 58.7917 98.1788 58.7917C104.987 58.7917 110.498 62.8981 113.956 66.356C114.064 66.4641 114.172 66.5721 114.28 66.6802C120.872 72.8397 127.139 79.2153 133.731 86.0231C137.081 89.4811 140.539 92.9391 143.997 96.5051L173.497 126.006C184.952 137.46 184.952 148.05 173.497 159.505C170.364 162.638 167.338 165.772 164.204 168.798C155.127 178.091 146.482 186.736 137.081 195.165C136.865 195.381 136.649 195.489 136.541 195.705C127.247 204.998 128.976 214.076 130.921 220.235C131.029 220.559 131.137 220.883 131.246 221.208C138.918 239.794 149.724 257.3 166.149 278.156L166.257 278.264C196.082 315.005 227.528 343.641 262.216 365.577C266.646 368.387 271.185 370.656 275.507 372.817C279.397 374.762 283.071 376.599 286.205 378.545C286.637 378.761 287.07 379.085 287.502 379.301C291.176 381.138 294.634 382.003 298.2 382.003C307.169 382.003 312.788 376.383 314.625 374.546L351.582 337.589C355.256 333.915 361.091 329.485 367.899 329.485C374.599 329.485 380.11 333.699 383.46 337.373C383.568 337.481 383.568 337.481 383.676 337.589L443.218 397.131C454.348 408.153 454.348 419.5 443.326 430.954Z" fill="#494949"/>
<path d="M276.695 121.791C305.008 126.546 330.726 139.946 351.258 160.477C371.789 181.009 385.081 206.727 389.944 235.039C391.132 242.171 397.292 247.142 404.316 247.142C405.18 247.142 405.937 247.034 406.801 246.926C414.798 245.629 420.093 238.065 418.796 230.069C412.961 195.813 396.751 164.584 372.005 139.838C347.259 115.092 316.03 98.8824 281.774 93.0471C273.778 91.7504 266.322 97.0454 264.917 104.934C263.512 112.822 268.699 120.495 276.695 121.791Z" fill="#494949"/>
<path d="M511.404 225.854C501.787 169.446 475.204 118.117 434.357 77.2702C393.51 36.4231 342.181 9.84009 285.773 0.22265C277.884 -1.18214 270.428 4.22091 269.023 12.1094C267.727 20.1059 273.022 27.5621 281.018 28.9669C331.375 37.5037 377.301 61.3852 413.825 97.8018C450.35 134.327 474.123 180.252 482.66 230.609C483.849 237.741 490.008 242.712 497.032 242.712C497.897 242.712 498.653 242.604 499.518 242.496C507.406 241.307 512.809 233.743 511.404 225.854Z" fill="#494949"/>
</g>
</g>
<defs>
<clipPath id="clip0_3949_952">
<rect width="512" height="512" fill="white"/>
</clipPath>
<clipPath id="clip1_3949_952">
<rect width="512" height="512" fill="white"/>
</clipPath>
</defs>
</svg>
