<svg id="Layer_1" data-name="Layer 1" xmlns="http://www.w3.org/2000/svg" viewBox="0 0 65 65"><defs><style>.cls-1{fill:#ffda66;}.cls-2{fill:#494949;}</style></defs><title>Icons for day pass and all the lists</title><rect class="cls-1" x="6.381" y="17.856" width="56.24" height="32.433" rx="6.722" ry="6.722"/><path class="cls-2" d="M57.681,53.993H40.739a.78.78,0,0,1-.78-.779v-.708a9.251,9.251,0,0,1,18.5,0v.708A.78.78,0,0,1,57.681,53.993ZM41.518,52.435H56.9a7.692,7.692,0,0,0-15.384,0Z"/><path class="cls-2" d="M45.687,42.4a16.67,16.67,0,0,1-8.2-2.152h0L36.326,39.6a.781.781,0,0,1-.368-.47.77.77,0,0,1,.071-.592L51.712,10.661a.778.778,0,0,1,1.06-.3l1.167.657A16.768,16.768,0,0,1,45.687,42.4Zm-7.431-3.509A15.212,15.212,0,1,0,53.174,12.378l-.486-.274L37.769,38.619Z"/><path class="cls-2" d="M24.381,27.143H11.44a4.57,4.57,0,0,1-4.359-3.168L2.961,11.284A.779.779,0,1,1,4.443,10.8l4.12,12.691a3.017,3.017,0,0,0,2.877,2.091H24.381a.779.779,0,1,1,0,1.558Z"/><path class="cls-2" d="M31.159,54.737a.78.78,0,0,1-.779-.78V37.045A6.457,6.457,0,0,0,23.93,30.6H10.387a6.457,6.457,0,0,0-6.45,6.449V53.957a.779.779,0,1,1-1.558,0V37.045a8.017,8.017,0,0,1,8.008-8.007H23.93a8.017,8.017,0,0,1,8.008,8.007V53.957A.78.78,0,0,1,31.159,54.737Z"/></svg>