<?xml version="1.0" encoding="utf-8"?>
<!-- Generator: Adobe Illustrator 26.1.0, SVG Export Plug-In . SVG Version: 6.00 Build 0)  -->
<svg version="1.1" id="Layer_1" xmlns="http://www.w3.org/2000/svg" xmlns:xlink="http://www.w3.org/1999/xlink" x="0px" y="0px"
	 viewBox="0 0 100 100" style="enable-background:new 0 0 100 100;" xml:space="preserve">
<style type="text/css">
	.st0{fill:#FFDA66;}
	.st1{fill:none;stroke:#494949;stroke-width:2.75;stroke-linecap:round;stroke-miterlimit:10;}
</style>
<g>
	<path class="st0" d="M86.4,76.53H14.35c-5.52,0-10-4.48-10-10V33.45c0-5.52,4.48-10,10-10H86.4c5.52,0,10,4.48,10,10v33.08
		C96.4,72.06,91.92,76.53,86.4,76.53z"/>
	<path class="st1" d="M3.2,85.57V56.09c0-5.43,4.4-9.83,9.83-9.83h25c5.43,0,9.83,4.4,9.83,9.83v29.48"/>
	<path class="st1" d="M91.01,81.8c0,0.39-0.02,0.79-0.05,1.18H63.8c-0.03-0.39-0.05-0.79-0.05-1.18c0-7.53,6.1-13.63,13.63-13.63
		C84.91,68.18,91.01,74.28,91.01,81.8z"/>
	<path class="st1" d="M97.2,38.67c0,14.14-11.46,25.61-25.6,25.61c-5.45,0-10.51-1.71-14.67-4.62l25.75-44.07
		C91.28,19.72,97.2,28.5,97.2,38.67z"/>
	<path class="st1" d="M3.2,14.66l7.72,19.04c1.5,3.71,5.11,6.14,9.11,6.14h18.05"/>
</g>
</svg>
