<svg width="50" height="50" viewBox="0 0 50 50" fill="none" xmlns="http://www.w3.org/2000/svg">
<path d="M19.6074 12.1376L28.8106 11.1187V13.1565V16.0818L19.6074 16.8706V14.044V12.1376Z" fill="#FFDD2C"/>
<path d="M19.0156 35.9998L23.3213 35.2109L28.5474 35.3095V36.4599L28.6789 37.9062L26.2466 38.0048H23.3213L20.9219 38.1034L18.8184 38.3334L18.917 37.0516L19.0156 35.9998Z" fill="#FFDD2C"/>
<path d="M19.2793 27.1257L23.4536 26.2383L29.2713 26.6327L29.3042 27.1915L29.4028 29.3279L23.4536 28.9335L19.2793 29.7223V28.5391V27.1257Z" fill="#FFDD2C"/>
<path d="M24.2486 3.06136C24.1434 3.16653 24.1873 3.4996 24.3187 3.61354C24.3976 3.6749 24.4502 3.86773 24.4502 4.08685V4.44622L23.9418 4.59522C23.2406 4.80558 22.4518 5.34901 22.0223 5.93626C21.8207 6.1992 21.6454 6.46215 21.6279 6.50597C21.6104 6.5498 21.0231 6.65498 20.3131 6.73386L19.0335 6.89164L18.9984 7.24223C18.9721 7.549 19.0247 7.68048 19.3841 8.2239C19.7434 8.76733 19.8048 8.91634 19.8048 9.29323V9.72271L19.4016 9.78407C19.1737 9.81036 18.8757 9.83665 18.7442 9.83665H18.49V10.4327V11.0287L19.0598 11.5896L19.6295 12.1506V14.2279C19.6295 15.3673 19.6032 16.4279 19.5769 16.5769C19.5331 16.7873 19.4104 16.9187 19.0072 17.1641L18.49 17.4709V18.0319V18.5841L18.9721 18.996L19.4542 19.408V20.4598C19.4542 21.494 19.4542 21.5116 19.1562 22.0199C18.8582 22.5283 18.8494 22.5809 18.5689 24.9562C18.4112 26.2797 18.306 27.3841 18.3323 27.4104C18.3498 27.4367 18.5602 27.3928 18.7968 27.3227C19.0335 27.2526 19.2526 27.2175 19.2789 27.2351C19.3139 27.2614 19.3227 27.8223 19.3052 28.4797L19.2614 29.6892L18.8845 30.0837L18.5076 30.4781L18.3235 32.8884C18.2183 34.212 18.1044 35.5092 18.0781 35.7721L18.0255 36.2454L18.3498 36.1841C18.5339 36.149 18.7442 36.0964 18.8143 36.0701C18.9371 36.0175 18.9458 36.0789 18.8932 36.5259C18.8669 36.7976 18.8143 37.3235 18.7793 37.6741L18.7267 38.3227L18.4287 38.3753C18.2271 38.4104 18.1219 38.4892 18.0956 38.6207C18.0781 38.7171 17.894 40.0494 17.7012 41.5657C17.4996 43.0821 17.2629 44.8964 17.1753 45.5976C17.0789 46.29 17 46.8948 17 46.9299C17 46.9649 20.6375 47 25.0725 47H33.145L33.0837 46.4916C33.0486 46.2199 32.812 44.2741 32.5665 42.1793L32.1195 38.3665L31.506 38.2789L30.8924 38.1912L30.8311 37.7968C30.761 37.2972 30.7434 35.6056 30.8135 35.6056C30.8398 35.6056 31.2167 35.6669 31.6462 35.7458C32.0757 35.8247 32.4438 35.8773 32.4614 35.8598C32.4789 35.8422 32.4088 34.6327 32.3036 33.1689C32.1546 31.0829 32.0845 30.4956 31.988 30.4343C31.9179 30.3904 31.655 30.259 31.4096 30.1538L30.9625 29.9522L30.9012 29.251C30.8749 28.8653 30.8486 28.243 30.8486 27.8749V27.2L31.4797 27.4191C31.8303 27.5331 32.1371 27.6207 32.1633 27.612C32.1896 27.5944 32.0757 26.3235 31.9004 24.7896L31.5936 21.9936L31.1378 21.7745L30.6733 21.5466V20.9243C30.6733 20.5912 30.6295 19.9163 30.5769 19.4343C30.5331 18.9522 30.4892 17.6112 30.4892 16.4542V14.3506L30.8924 13.9825L31.2956 13.6056L31.3482 11.8263L31.4008 10.047L30.5418 7.88207C30.0685 6.69004 29.6653 5.6996 29.6303 5.68207C29.604 5.66454 29.1745 5.69084 28.6837 5.74343L27.7896 5.83107L27.6056 5.61195C27.3602 5.28765 26.5888 4.80558 26.0717 4.63905C25.8351 4.56016 25.388 4.48128 25.09 4.47251L24.5378 4.45498V4.06932C24.5378 3.82391 24.5817 3.6749 24.6606 3.64861C24.9849 3.5259 24.8622 3 24.5028 3C24.3976 3 24.2749 3.0263 24.2486 3.06136ZM24.7044 3.2016C24.8359 3.36813 24.6167 3.66614 24.4151 3.58725C24.2749 3.53466 24.2223 3.25419 24.3363 3.14901C24.4239 3.05259 24.5992 3.07889 24.7044 3.2016ZM26.396 4.86694C26.8869 5.11235 27.6845 5.74342 27.6056 5.83107C27.5705 5.8749 25.0637 6.19044 22.9602 6.42709C22.5482 6.47092 22.1275 6.52351 22.0223 6.5498C21.7155 6.61992 21.7681 6.4008 22.1976 5.8749C22.9251 4.98088 23.8805 4.56893 25.1163 4.60398C25.7649 4.62151 25.9928 4.66534 26.396 4.86694ZM30.4016 7.82072C31.1378 9.67888 31.3745 10.4502 31.2167 10.4502C31.1817 10.4502 30.8223 9.56494 30.4191 8.48685C30.0159 7.40877 29.6566 6.47968 29.6215 6.41833C29.5689 6.32191 28.8151 6.39203 26.0104 6.7251C24.0733 6.95299 21.847 7.21594 21.0757 7.30359C20.3044 7.39123 19.5418 7.48765 19.3841 7.51395C19.0948 7.56654 19.0948 7.56653 19.1211 7.27729L19.1474 6.98805L21.1195 6.75139C22.2064 6.61992 23.8016 6.43586 24.6693 6.33068C25.5371 6.23427 26.9745 6.05896 27.8685 5.94502C28.7625 5.83984 29.5163 5.76096 29.5514 5.77849C29.5865 5.79602 29.9633 6.71633 30.4016 7.82072ZM30.1474 8.17132C31.1028 10.6781 31.208 11.0287 31.1817 11.5195L31.1554 11.9841L30.8749 11.3267C30.7171 10.9673 30.3753 10.1873 30.1036 9.59124C29.6303 8.53944 29.6215 8.49562 29.6215 7.71554C29.6215 7.27729 29.639 6.93546 29.6653 6.95299C29.6829 6.97929 29.902 7.52271 30.1474 8.17132ZM29.4462 9.39841C29.4462 9.87172 29.4287 9.92431 29.2534 9.95937C29.1394 9.98566 27.5968 10.1259 25.8088 10.2749C22.5394 10.5466 20.1291 10.757 19.1299 10.8534L18.5777 10.906V10.459C18.5777 9.9506 18.455 10.0032 20.0677 9.83665C20.5761 9.78407 21.3211 9.70518 21.7331 9.66136C22.145 9.61753 22.8725 9.53865 23.3546 9.48606C25.651 9.2494 27.6143 9.03028 28.1315 8.96893C28.447 8.9251 28.8677 8.89004 29.0781 8.88128L29.4462 8.87251V9.39841ZM30.4542 10.6956C31.1116 12.1769 31.208 12.4486 31.1817 12.7992L31.1466 13.2112L30.349 11.5809C29.5952 10.0558 29.5514 9.92431 29.5426 9.39841C29.5426 9.08287 29.5777 8.88128 29.6215 8.9251C29.6653 8.96893 30.0335 9.76653 30.4542 10.6956ZM29.2534 10.3187C29.1394 10.5729 29.1219 10.5729 27.1235 10.757C26.3084 10.8271 25.239 10.9323 24.757 10.9761C24.2749 11.0287 22.8199 11.1602 21.5227 11.2829L19.1562 11.5108L18.902 11.2566L18.6478 11.0024L19.2088 10.9498C19.5068 10.9147 20.9618 10.792 22.4343 10.6606C23.9068 10.5378 25.8789 10.3626 26.8167 10.2749C27.7546 10.1873 28.71 10.1171 28.9378 10.1084C29.3498 10.0996 29.3498 10.0996 29.2534 10.3187ZM30.7347 13.9386L30.3227 14.3506L30.3052 15.9984L30.2789 17.6462L29.604 16.7873L28.9203 15.9371V13.553V11.1689L29.2096 10.6693L29.49 10.1697L30.3139 11.8526L31.1378 13.5267L30.7347 13.9386ZM28.9291 10.8797C28.859 10.9936 28.6924 11.055 28.2892 11.0988C27.9825 11.1339 27.0096 11.2303 26.1155 11.3267C25.2215 11.4231 23.4072 11.6159 22.0837 11.7562L19.6733 12.0191L19.4542 11.8C19.2526 11.6072 19.2526 11.5896 19.4104 11.5809C19.5068 11.5809 21.5402 11.388 23.9243 11.1602C26.3084 10.9235 28.4295 10.7307 28.6398 10.7219C28.9817 10.7131 29.008 10.7307 28.9291 10.8797ZM24.1084 12.4398L24.1259 12.6853L24.161 12.4398C24.196 12.247 24.2486 12.2032 24.4327 12.2032C24.7833 12.2032 24.9147 12.3259 24.8534 12.5625L24.8008 12.7729L24.8972 12.5713C25.0287 12.3259 25.0813 12.3259 25.4143 12.6151L25.6948 12.843L25.4845 13.0096L25.2829 13.1761L25.4932 13.0797C25.7299 12.957 25.7912 13.0096 25.9227 13.404C26.0191 13.702 25.9928 13.7371 25.7036 13.702C25.6422 13.6932 25.5896 13.7283 25.5896 13.7809C25.5896 13.8247 25.6948 13.8685 25.8175 13.8685C26.0367 13.8685 26.0454 13.8861 25.9841 14.1928C25.9052 14.6311 25.8701 14.6749 25.6773 14.5697C25.4143 14.4295 25.3793 14.4645 25.5984 14.6486L25.7912 14.8064L25.5984 15.0869C25.3618 15.4112 25.3092 15.4199 25.1163 15.157C24.9761 14.9729 24.9761 15.043 25.1076 15.3849C25.1602 15.5163 24.8096 15.7092 24.5378 15.7092C24.4239 15.7092 24.3625 15.6303 24.3363 15.4637C24.3012 15.2359 24.3012 15.2446 24.2837 15.5076C24.2749 15.7793 24.2661 15.788 23.9506 15.7355C23.5474 15.6741 23.4159 15.5689 23.5562 15.4287C23.6175 15.3673 23.6614 15.2797 23.6614 15.2271C23.6614 15.1833 23.5825 15.2359 23.4861 15.3586L23.3195 15.5777L23.0566 15.3235C22.741 15.0167 22.7235 14.9554 22.9602 14.8765C23.0566 14.8502 23.1355 14.7801 23.1355 14.7275C23.1355 14.6749 23.039 14.7012 22.9251 14.7713C22.6709 14.9379 22.5745 14.859 22.4781 14.412C22.4255 14.149 22.4343 14.1315 22.6709 14.1227L22.9163 14.1052L22.6622 14.0701C22.4255 14.0351 22.4167 14.0088 22.4606 13.6757C22.5219 13.2462 22.5745 13.1849 22.7936 13.3339C22.8988 13.3952 22.9952 13.4215 23.0215 13.404C23.0478 13.3777 22.9777 13.3163 22.8813 13.255C22.6446 13.1323 22.6534 13.0534 22.9076 12.7554L23.1179 12.51L23.3195 12.6853L23.5124 12.8606L23.4072 12.659C23.2845 12.4223 23.2845 12.4135 23.5737 12.2996C23.9594 12.1506 24.0996 12.1857 24.1084 12.4398ZM28.7976 16.3227C28.7976 16.5243 28.9291 16.5068 25.5896 16.8048C24.2135 16.9275 22.2502 17.1116 21.2335 17.208C20.208 17.3044 19.2789 17.3745 19.1737 17.357C18.9896 17.3307 19.0072 17.3131 19.3139 17.1291C19.6295 16.9363 19.9888 16.9012 24.0908 16.5418C26.5275 16.3402 28.5873 16.1649 28.6574 16.1562C28.7363 16.1474 28.7976 16.2175 28.7976 16.3227ZM29.7004 17.1378C30.0773 17.6112 30.3315 18.0231 30.3578 18.1896C30.4542 18.7944 30.498 19.3904 30.4629 19.3904C30.4367 19.3904 30.0861 18.961 29.6741 18.4351L28.9203 17.4797V16.8398C28.9203 16.4454 28.9554 16.2351 28.9992 16.2789C29.043 16.3315 29.3586 16.7171 29.7004 17.1378ZM28.8327 17.0239C28.8327 17.2343 28.7888 17.392 28.7275 17.4183C28.6661 17.4359 27.588 17.5586 26.3347 17.6813C25.0813 17.8127 22.9339 18.0231 21.5578 18.1721C18.2972 18.5052 18.5777 18.5227 18.5777 18.0056V17.5849L22.7673 17.208C25.0637 16.9976 27.2024 16.796 27.5179 16.761C27.8335 16.7259 28.2542 16.6908 28.4645 16.6821L28.8327 16.6733V17.0239ZM28.8327 18.0319C28.8327 18.5665 28.8502 18.5578 27.9825 18.6279L27.5179 18.663V18.1546V17.6462L27.8948 17.6112C28.0964 17.5936 28.3944 17.5761 28.5522 17.5673L28.8327 17.5498V18.0319ZM26.9044 18.1984C26.9044 18.7418 26.8956 18.7506 26.0717 18.7944L25.5458 18.8207L25.5195 18.3649C25.4932 17.8566 25.4932 17.8478 26.247 17.7865C26.4398 17.7689 26.6677 17.7514 26.7554 17.7426C26.8781 17.7251 26.9044 17.804 26.9044 18.1984ZM27.4127 18.1809C27.3865 18.5841 27.3602 18.6454 27.1936 18.6717C27.0008 18.698 26.992 18.6717 26.992 18.2159C26.992 17.7514 27.0008 17.7251 27.2199 17.7251C27.4303 17.7251 27.439 17.7426 27.4127 18.1809ZM29.5689 19.0311C29.5952 19.3904 29.6215 19.9777 29.6215 20.3458V21.0207L29.2709 20.9857L28.9203 20.9506V19.3116V17.6813L29.2183 18.0319C29.4725 18.3299 29.5163 18.4614 29.5689 19.0311ZM24.9761 18.4263C24.9761 18.9084 25.0199 18.8821 23.9506 18.9873L23.4861 19.0311V18.5578V18.0845L23.9944 18.0319C24.2661 18.0056 24.5729 17.9705 24.6693 17.953C24.941 17.9267 24.9761 17.9705 24.9761 18.4263ZM25.4143 18.3825C25.4143 18.8032 25.3968 18.8645 25.239 18.8645C25.0813 18.8645 25.0637 18.8032 25.0637 18.3825C25.0637 17.9618 25.0813 17.9004 25.239 17.9004C25.3968 17.9004 25.4143 17.9618 25.4143 18.3825ZM23.3984 18.5578C23.3984 19.0135 23.3896 19.0398 23.1793 19.0398C22.9777 19.0398 22.9602 19.0135 22.9602 18.6191C22.9602 18.1546 22.9952 18.0757 23.2406 18.0757C23.3721 18.0757 23.3984 18.1458 23.3984 18.5578ZM22.8287 18.6191C22.7936 18.8733 22.7586 19.0924 22.7498 19.0924C22.7498 19.1012 22.4518 19.1275 22.11 19.1538L21.4701 19.2064V18.7331V18.2598L21.847 18.2247C22.0486 18.2072 22.3641 18.1896 22.5482 18.1809L22.89 18.1633L22.8287 18.6191ZM20.7689 18.7769C20.7689 19.2677 20.7777 19.2677 20.059 19.3379C19.5769 19.3904 19.5506 19.3817 19.1562 19.0311C18.9371 18.8382 18.753 18.6454 18.753 18.6104C18.753 18.549 19.4016 18.4614 20.6199 18.3562C20.7426 18.3386 20.7689 18.4088 20.7689 18.7769ZM21.3825 18.7769C21.3825 19.2064 21.3737 19.2151 21.1195 19.2151C20.8653 19.2151 20.8566 19.2064 20.8566 18.7769C20.8566 18.3474 20.8653 18.3386 21.1195 18.3386C21.3737 18.3386 21.3825 18.3474 21.3825 18.7769ZM28.8327 19.7849V20.8805H28.596C28.4558 20.8805 28.1402 20.8542 27.8948 20.8279L27.4303 20.7665V20.1004C27.4303 19.7323 27.4566 19.2853 27.4829 19.11C27.5442 18.7506 27.6056 18.7243 28.3769 18.698L28.8327 18.6892V19.7849ZM30.1124 19.1538C30.4629 19.6008 30.4717 19.6271 30.5243 20.5036C30.5681 21.1084 30.5594 21.4064 30.498 21.4064C30.4454 21.4064 30.2526 21.3275 30.0598 21.2311L29.7179 21.0558L29.6916 19.8725C29.6741 19.2239 29.6829 18.6892 29.7092 18.698C29.7355 18.698 29.9108 18.8996 30.1124 19.1538ZM27.3426 19.741C27.3426 20.6438 27.3339 20.7052 27.1673 20.7052C27.0008 20.7052 26.992 20.6438 26.992 19.741C26.992 18.8382 27.0008 18.7769 27.1673 18.7769C27.3339 18.7769 27.3426 18.8382 27.3426 19.741ZM26.8869 19.7323C26.8781 20.2143 26.843 20.6175 26.8167 20.6438C26.7904 20.6614 26.4837 20.6614 26.1418 20.6351L25.502 20.6V19.7849V18.961L25.7474 18.9259C25.8789 18.9084 26.1944 18.8821 26.4486 18.8733L26.9219 18.8645L26.8869 19.7323ZM25.3968 19.7586C25.3705 20.5211 25.3618 20.5737 25.1952 20.5474C25.0988 20.5299 25.0199 20.5036 25.0199 20.5036C25.0199 20.4948 25.0287 20.1442 25.0462 19.7147C25.0725 19.0223 25.09 18.9522 25.2478 18.9522C25.4056 18.9522 25.4231 19.0048 25.3968 19.7586ZM24.941 19.3641C24.9147 19.5482 24.8884 19.8813 24.8884 20.1092V20.5299H24.1873H23.4861V19.8375C23.4861 19.0398 23.4335 19.0837 24.4853 19.0486L25.0024 19.0398L24.941 19.3641ZM23.3809 19.8462C23.3546 20.5737 23.3546 20.5737 23.1092 20.6L22.8637 20.6263L22.8813 20.0303C22.8988 19.3378 22.9865 19.1275 23.2319 19.1275C23.3896 19.1275 23.4072 19.1801 23.3809 19.8462ZM22.7849 19.9514V20.6877L22.1801 20.8279C21.3474 21.0207 21.3562 21.0207 21.4175 20.6351C21.4438 20.4598 21.4614 20.0829 21.4701 19.8112C21.4701 19.3203 21.4701 19.3116 21.7594 19.2765C21.9084 19.259 22.2064 19.2327 22.4167 19.2327L22.7849 19.2151V19.9514ZM21.3036 20.1793C21.2948 20.6351 21.2773 21.012 21.2685 21.0207C21.2598 21.0295 21.1633 21.0645 21.0582 21.0908C20.8566 21.1522 20.8566 21.1434 20.8566 20.2757C20.8566 19.5219 20.8741 19.3992 21.0143 19.3641C21.2948 19.294 21.3211 19.3554 21.3036 20.1793ZM20.7514 20.2845L20.7251 21.1785L20.1729 21.3012C19.8661 21.3626 19.5944 21.3976 19.5681 21.3713C19.5418 21.345 19.5506 20.9155 19.5857 20.4072C19.6558 19.3817 19.6032 19.4343 20.4446 19.3992L20.7777 19.3904L20.7514 20.2845ZM23.5562 21.7745L23.5299 22.9402L23.1793 23.0454C22.7936 23.1506 19.1386 23.8606 18.9371 23.8606C18.8406 23.8606 18.8319 23.7378 18.8757 23.2207C18.9283 22.7299 19.0072 22.4757 19.2438 22.0637L19.5506 21.5378L21.4964 21.0821C22.5657 20.8367 23.4773 20.6351 23.5124 20.6263C23.5474 20.6175 23.5649 21.1434 23.5562 21.7745ZM25.2653 20.6789L26.2032 20.7315V21.941V23.1594L25.7036 23.1155C25.4231 23.0892 24.8534 23.0542 24.4327 23.0191L23.6614 22.9665V21.792V20.6175H23.9944C24.1873 20.6175 24.757 20.6438 25.2653 20.6789ZM27.8422 20.9155C28.3418 20.9769 28.7625 21.047 28.7888 21.0645C28.8151 21.0908 28.859 21.5904 28.9028 22.1777L28.9641 23.247H28.561C28.3418 23.247 27.7371 23.2207 27.2287 23.1857L26.2908 23.1331V21.9586V20.7928H26.6239C26.7992 20.8016 27.3514 20.8542 27.8422 20.9155ZM30.6032 21.6255L31.5235 22.1076L31.5761 22.7474C31.6112 23.0892 31.6637 23.5801 31.69 23.8343L31.7514 24.29L30.4279 23.7904L29.1044 23.2996L29.0606 22.8526C29.0343 22.6159 28.9904 22.0988 28.9641 21.7219L28.9116 21.0295L29.2972 21.0821C29.5163 21.1171 30.0861 21.3538 30.6032 21.6255ZM25.5721 23.212C26.1769 23.2558 26.2032 23.2733 26.2032 23.4837V23.7028L25.2653 23.6502C23.6789 23.5538 23.5912 23.5363 23.6351 23.2996C23.6789 23.0805 23.7578 23.0717 25.5721 23.212ZM23.4948 23.3522C23.4335 23.5363 23.2319 23.5888 21.2861 23.9657C20.1116 24.1936 19.0598 24.404 18.9546 24.4303C18.788 24.4653 18.753 24.439 18.753 24.255C18.753 24.1323 18.7618 24.0359 18.7793 24.0359C18.788 24.0271 19.7434 23.8343 20.9004 23.6064C22.0574 23.3697 23.1267 23.1769 23.2845 23.1681C23.5386 23.1594 23.5649 23.1769 23.4948 23.3522ZM28.9028 23.3873C28.9554 23.4048 29.008 23.5187 29.008 23.6502V23.8781L28.1578 23.8255C26.3697 23.7116 26.2908 23.694 26.2908 23.4574V23.247L27.5442 23.2996C28.2279 23.3259 28.8414 23.361 28.9028 23.3873ZM30.4191 23.8956C31.1028 24.1586 31.6988 24.4215 31.7339 24.4916C31.804 24.5968 31.8478 24.9123 31.7952 24.9123C31.7777 24.9123 31.1817 24.6845 30.4542 24.404C29.2446 23.9307 29.1394 23.8781 29.1131 23.659C29.0956 23.5275 29.1044 23.4223 29.1307 23.4223C29.1482 23.4223 29.7355 23.6327 30.4191 23.8956ZM23.4861 24.9562C23.4861 25.6574 23.4685 26.2271 23.4422 26.2271C23.2932 26.2271 19.4892 27.0335 19.0335 27.1562C18.7355 27.2438 18.4725 27.2876 18.4462 27.2614C18.4199 27.2351 18.455 26.753 18.5339 26.192C18.604 25.6311 18.6653 25.0526 18.6653 24.9036C18.6653 24.7458 18.7179 24.6231 18.8056 24.588C19.0159 24.5092 23.0566 23.7028 23.2932 23.694C23.4861 23.6853 23.4861 23.694 23.4861 24.9562ZM25.353 23.7466L26.2032 23.7992V25.0438C26.2032 25.7275 26.1857 26.306 26.1681 26.3235C26.1506 26.341 25.5633 26.3147 24.8709 26.2709L23.6175 26.1833L23.6 24.9299L23.5825 23.6853H24.0382C24.2924 23.6853 24.8797 23.7116 25.353 23.7466ZM28.9904 23.9833C29.0255 24.0271 29.2008 26.4988 29.1657 26.5339C29.1482 26.5514 28.4908 26.5251 27.7108 26.4725L26.2908 26.3673V25.1315C26.2908 24.4478 26.3084 23.8693 26.3259 23.8518C26.361 23.8167 28.9466 23.9482 28.9904 23.9833ZM30.5068 24.5267L31.804 25.0175L31.8478 25.3418C31.9705 26.157 32.0845 27.3841 32.0406 27.4279C32.0143 27.4542 31.3833 27.2614 30.6295 27.0072L29.2709 26.5339L29.2622 26.1394C29.2534 25.9203 29.2271 25.3594 29.192 24.8861C29.1657 24.4215 29.157 24.0359 29.1745 24.0359C29.192 24.0359 29.788 24.255 30.5068 24.5267ZM30.0598 26.9633L30.6295 27.1737L30.6996 27.945C30.7347 28.3745 30.7522 28.9705 30.7434 29.2685L30.7171 29.812L30.0948 29.5315L29.4725 29.251L29.4112 28.4709C29.341 27.4279 29.341 26.753 29.4287 26.753C29.4637 26.753 29.7442 26.8494 30.0598 26.9633ZM23.3371 30.3904L23.2845 31.7139L20.9968 32.0908C19.7347 32.3012 18.6566 32.494 18.5865 32.5203C18.49 32.5554 18.4813 32.3888 18.5339 31.5649L18.5952 30.5657L18.9984 30.145L19.4104 29.7331L21.3386 29.3562C22.3992 29.1458 23.2932 28.9968 23.3283 29.0231C23.3633 29.0494 23.3633 29.6717 23.3371 30.3904ZM26.4223 29.1195C27.3426 29.1633 28.3506 29.2335 28.6661 29.2598L29.2446 29.3124L29.306 29.9697C29.3323 30.3378 29.3586 30.89 29.3586 31.2056V31.7753L26.4223 31.7315C24.8096 31.7052 23.4685 31.6701 23.4422 31.6438C23.4159 31.6263 23.4247 31.004 23.4598 30.2677L23.5124 28.9267L24.1347 28.9793C24.4765 29.0056 25.5108 29.0669 26.4223 29.1195ZM31.9968 30.7147C32.0231 30.8287 32.0757 31.302 32.102 31.7753C32.1458 32.4414 32.1371 32.6255 32.0494 32.5992C31.9968 32.5817 31.3833 32.3888 30.6996 32.1785L29.4462 31.7928V30.592V29.4L30.6908 29.9522C31.6813 30.3992 31.953 30.557 31.9968 30.7147ZM30.6996 32.2837C32.0494 32.7044 32.1633 32.757 32.1633 32.9498C32.1633 33.055 32.1458 33.1514 32.1283 33.1514C32.1108 33.1514 31.4359 32.9498 30.6207 32.7131L29.1482 32.2749H26.2032H23.2669L20.8566 32.7131C19.5331 32.9498 18.4375 33.1514 18.4287 33.1514C18.3586 33.1514 18.4199 32.7131 18.49 32.6693C18.5426 32.6343 19.5769 32.4414 20.7952 32.2311L23.004 31.8542L26.1155 31.8454L29.2271 31.8367L30.6996 32.2837ZM23.2757 33.7912C23.2406 34.5187 23.1968 35.1323 23.1793 35.1586C23.153 35.1761 22.259 35.3426 21.1896 35.5267C20.1116 35.7108 18.9984 35.9211 18.7092 35.9912C18.4199 36.0614 18.1833 36.1139 18.1745 36.1052C18.157 36.0789 18.4024 33.3004 18.4287 33.2741C18.4813 33.2215 23.188 32.3976 23.2582 32.4327C23.302 32.459 23.3108 33.0375 23.2757 33.7912ZM28.7976 32.4151L29.2534 32.4765L29.306 33.1426C29.3323 33.5108 29.3673 34.1243 29.3761 34.51L29.3849 35.2112L28.9554 35.2374C28.7187 35.255 27.3689 35.2462 25.9665 35.2112L23.3984 35.1498V33.7562V32.3626H25.8789C27.2375 32.3626 28.5522 32.3888 28.7976 32.4151ZM32.2948 34.5012C32.3474 35.1673 32.3649 35.7195 32.3386 35.7371C32.2773 35.7721 29.6215 35.2813 29.5602 35.2287C29.5076 35.1673 29.3673 32.6167 29.4112 32.5291C29.4287 32.494 30.0685 32.6606 30.8223 32.8797L32.2072 33.2916L32.2948 34.5012ZM30.4279 35.5618C30.5681 35.6231 30.6733 36.4295 30.6733 37.5514C30.6733 38.0861 30.6558 38.1562 30.5243 38.1124C30.4367 38.0948 30.0072 38.0247 29.5689 37.9633L28.7626 37.8582L28.71 37.4112C28.6837 37.1657 28.6574 36.6135 28.6574 36.1841V35.404L29.4725 35.4566C29.9195 35.4829 30.349 35.5355 30.4279 35.5618ZM29.5426 38.1386C29.5777 38.1649 29.6303 38.8398 29.6653 39.6287L29.7267 41.0661L29.4462 41.0048C29.2884 40.9785 28.6311 40.9522 27.9912 40.9522H26.8167V39.506V38.0685L27.588 38.0335C28.447 37.9984 29.4637 38.051 29.5426 38.1386ZM23.4861 38.3841C23.4861 38.8661 23.3195 40.8032 23.2757 40.847C23.2582 40.8645 22.6534 40.9171 21.9434 40.961C21.2247 41.0135 20.0151 41.1363 19.2614 41.2502L17.8765 41.443V41.259C17.8765 41.0311 18.2183 38.5681 18.2534 38.5331C18.2622 38.5155 18.7092 38.4367 19.2351 38.3578C20.2869 38.2 21.5315 38.0948 22.7235 38.0773L23.4861 38.0598V38.3841ZM26.6853 39.4534C26.6853 40.2247 26.659 40.8733 26.6327 40.8996C26.6064 40.9347 25.8614 40.9259 24.9849 40.8996L23.3809 40.8382L23.4335 40.5665C23.451 40.4175 23.5036 39.9004 23.5299 39.4183C23.5562 38.9363 23.6088 38.4367 23.6263 38.2964L23.6789 38.0598H25.1777H26.6853V39.4534ZM31.1378 38.3315C31.8829 38.4279 31.9968 38.4629 32.0319 38.6207C32.102 38.9363 32.3562 41.2239 32.3211 41.259C32.2861 41.294 29.8845 41.0661 29.8494 41.0311C29.8319 41.0135 29.7968 40.3474 29.7618 39.5586L29.7092 38.1299L29.9896 38.1737C30.1474 38.2 30.6645 38.2701 31.1378 38.3315ZM26.6239 41.0924C26.7028 41.11 26.7291 41.557 26.7291 42.9243V44.7211H24.9323H23.1355V44.5195C23.1355 44.4143 23.1968 43.6343 23.2669 42.7928C23.3371 41.9514 23.3984 41.1888 23.3984 41.11C23.3984 40.9785 23.5299 40.9697 24.9586 41.0048C25.8088 41.0311 26.5625 41.0661 26.6239 41.0924ZM23.2757 41.3641C23.2494 41.5482 23.188 42.3458 23.1267 43.1434C23.0741 43.941 23.004 44.6159 22.9689 44.651C22.9076 44.7211 17.447 45.1944 17.3857 45.1331C17.3418 45.0892 17.7801 41.6446 17.8414 41.5833C17.8765 41.5307 20.1729 41.2151 21.0319 41.1363C21.4438 41.0924 22.1275 41.0574 22.5482 41.0486L23.3283 41.0398L23.2757 41.3641ZM29.6741 41.1538C29.6916 41.1713 29.7355 42.0127 29.7705 43.0295L29.8231 44.8701L29.043 44.8351C28.6135 44.8175 27.9386 44.7825 27.5442 44.7562L26.8167 44.7036V42.8629V41.0135L28.2279 41.0661C29.008 41.1012 29.6653 41.1363 29.6741 41.1538ZM31.243 41.3028C31.8215 41.3641 32.3123 41.4255 32.3299 41.443C32.3737 41.4869 32.7681 44.5546 32.7769 44.8876V45.098L31.9705 45.0367C29.9108 44.8876 29.9809 44.9052 29.9371 44.5984C29.9108 44.4494 29.8757 43.608 29.8494 42.7315L29.8143 41.1275L29.9984 41.1713C30.1036 41.1888 30.6645 41.2502 31.243 41.3028Z" stroke="#858585" stroke-width="0.2"/>
<path d="M24.242 13.9599C24.2773 13.9646 24.3185 13.969 24.3644 13.973C24.2973 13.9356 24.242 13.8922 24.1971 13.8398C24.1962 13.8645 24.1951 13.8879 24.1938 13.9094C24.1929 13.9239 24.192 13.9383 24.1908 13.9522C24.2055 13.9547 24.2225 13.9573 24.242 13.9599Z" stroke="#858585" stroke-width="0.2"/>
<path d="M19.082 7.60172L29.5342 6.41846V7.60172V8.78499L19.838 9.80392V8.91646L19.082 7.60172Z" fill="#FFDD2C"/>
</svg>
