<svg id="Layer_1" data-name="Layer 1" xmlns="http://www.w3.org/2000/svg" viewBox="0 0 22 22"><defs><style>.cls-1{fill:#ffda66;}.cls-2{fill:#494949;}</style></defs><title>Iconset for Detail page</title><path class="cls-1" d="M20.642,21.076a8.807,8.807,0,0,0-17.613,0v.736H20.642Z"/><path class="cls-2" d="M11,10A4.677,4.677,0,0,1,6.606,5.1,4.677,4.677,0,0,1,11,.188,4.678,4.678,0,0,1,15.394,5.1,4.678,4.678,0,0,1,11,10ZM11,.938A3.931,3.931,0,0,0,7.356,5.1,3.931,3.931,0,0,0,11,9.252,3.931,3.931,0,0,0,14.644,5.1,3.931,3.931,0,0,0,11,.938Z"/><path class="cls-2" d="M11.835,13.689h-1.67a.375.375,0,0,1-.375-.375V11.035a.375.375,0,0,1,.375-.375h1.67a.375.375,0,0,1,.375.375v2.279A.375.375,0,0,1,11.835,13.689Zm-1.3-.75h.92V11.41h-.92Z"/><path class="cls-2" d="M12.971,20.577H9.028a.374.374,0,0,1-.286-.133.369.369,0,0,1-.084-.3l1.136-6.889a.376.376,0,0,1,.371-.313h1.67a.376.376,0,0,1,.371.314l1.135,6.889a.368.368,0,0,1-.084.3A.374.374,0,0,1,12.971,20.577Zm-3.5-.75h3.06l-1.013-6.138H10.483Z"/><path class="cls-2" d="M20.344,20.577H1.656a.375.375,0,0,1-.375-.375,9.719,9.719,0,0,1,19.438,0A.375.375,0,0,1,20.344,20.577Zm-18.3-.75H19.961a8.969,8.969,0,0,0-17.922,0Z"/><path class="cls-2" d="M16.991,16.236H15.019a.375.375,0,0,1,0-.75h1.972a.375.375,0,0,1,0,.75Z"/></svg>