<svg width="50" height="50" viewBox="0 0 50 50" fill="none" xmlns="http://www.w3.org/2000/svg">
<g clip-path="url(#clip0_8776_1507)">
<path d="M24.9649 29.0063H13.2715V26.6398H36.6582V29.0063H24.9649Z" fill="#FFCC05"/>
<path d="M24.9655 5.44669C27.0995 5.44669 30.6376 6.15386 30.837 10.8062H24.9655H19.0938C19.2934 6.15386 22.8315 5.44669 24.9655 5.44669Z" fill="#FFCC05"/>
<path d="M19.084 14.0777H30.847V21.2803H30.5858V16.2744C30.5858 15.2944 29.7898 14.4981 28.8109 14.4981C27.832 14.4981 27.036 15.2944 27.036 16.2744V21.2803H26.7404V16.2744C26.7404 15.2944 25.9441 14.4981 24.9655 14.4981C23.9866 14.4981 23.1906 15.2944 23.1906 16.2744V21.2803H22.8946V16.2744C22.8946 15.2944 22.0987 14.4981 21.1197 14.4981C20.1408 14.4981 19.3449 15.2944 19.3449 16.2744V21.2803H19.084V14.0777Z" fill="#FFCC05"/>
<path d="M13.2715 22.1154H36.6582V24.4819H36.2058V23.6133C36.2058 22.9785 35.6905 22.4634 35.0574 22.4634C34.424 22.4634 33.9089 22.9785 33.9089 23.6133V24.4819H33.3457V23.6133C33.3457 22.9785 32.8306 22.4634 32.1972 22.4634C31.5641 22.4634 31.0488 22.9785 31.0488 23.6133V24.4819H30.4858V23.6133C30.4858 22.9785 29.9705 22.4634 29.3373 22.4634C28.704 22.4634 28.1889 22.9785 28.1889 23.6133V24.4819H27.6257V23.6133C27.6257 22.9785 27.1106 22.4634 26.4772 22.4634C25.8441 22.4634 25.3287 22.9785 25.3287 23.6133V24.4819H24.9649H24.6007V23.6133C24.6007 22.9785 24.0853 22.4634 23.4522 22.4634C22.8191 22.4634 22.3038 22.9785 22.3038 23.6133V24.4819H21.7408V23.6133C21.7408 22.9785 21.2255 22.4634 20.5924 22.4634C19.959 22.4634 19.4439 22.9785 19.4439 23.6133V24.4819H18.8807V23.6133C18.8807 22.9785 18.3653 22.4634 17.7322 22.4634C17.0991 22.4634 16.5838 22.9785 16.5838 23.6133V24.4819H16.0208V23.6133C16.0208 22.9785 15.5055 22.4634 14.8724 22.4634C14.239 22.4634 13.7239 22.9785 13.7239 23.6133V24.4819H13.2715V22.1154Z" fill="#FFCC05"/>
<path d="M30.8643 33.9842H32.3348V42.4062H30.8643V33.9842Z" fill="#FFCC05"/>
<path d="M26.4414 33.9842H27.9123V42.4062H26.4414V33.9842Z" fill="#FFCC05"/>
<path d="M22.0186 33.9842H23.4891V42.4062H22.0186V33.9842Z" fill="#FFCC05"/>
<path d="M17.5957 33.9842H19.0663V42.4062H17.5957V33.9842Z" fill="#FFCC05"/>
<path d="M13.2715 33.9842H14.6429V42.4062H13.2715V33.9842Z" fill="#FFCC05"/>
<path d="M36.6589 42.4062H35.2871V33.9842H36.6589V42.4062Z" fill="#FFCC05"/>
<path d="M15.8475 27.405H14.1422C13.9114 27.405 13.7246 27.5915 13.7246 27.8226C13.7246 28.0537 13.9114 28.2402 14.1422 28.2402H15.8475C16.078 28.2402 16.2651 28.0537 16.2651 27.8226C16.2651 27.5915 16.078 27.405 15.8475 27.405Z" fill="#858585"/>
<path d="M19.7616 27.405H18.0563C17.8258 27.405 17.6387 27.5915 17.6387 27.8226C17.6387 28.0537 17.8258 28.2402 18.0563 28.2402H19.7616C19.9921 28.2402 20.1792 28.0537 20.1792 27.8226C20.1792 27.5915 19.9921 27.405 19.7616 27.405Z" fill="#858585"/>
<path d="M23.6776 27.405H21.9723C21.7415 27.405 21.5547 27.5915 21.5547 27.8226C21.5547 28.0537 21.7415 28.2402 21.9723 28.2402H23.6776C23.9081 28.2402 24.0952 28.0537 24.0952 27.8226C24.0952 27.5915 23.9081 27.405 23.6776 27.405Z" fill="#858585"/>
<path d="M35.7889 27.405H34.0836C33.8528 27.405 33.666 27.5915 33.666 27.8226C33.666 28.0537 33.8528 28.2402 34.0836 28.2402H35.7889C36.0194 28.2402 36.2065 28.0537 36.2065 27.8226C36.2065 27.5915 36.0194 27.405 35.7889 27.405Z" fill="#858585"/>
<path d="M31.8729 27.405H30.1676C29.9371 27.405 29.75 27.5915 29.75 27.8226C29.75 28.0537 29.9371 28.2402 30.1676 28.2402H31.8729C32.1034 28.2402 32.2905 28.0537 32.2905 27.8226C32.2905 27.5915 32.1034 27.405 31.8729 27.405Z" fill="#858585"/>
<path d="M27.9579 27.405H26.2526C26.0218 27.405 25.835 27.5915 25.835 27.8226C25.835 28.0537 26.0218 28.2402 26.2526 28.2402H27.9579C28.1884 28.2402 28.3755 28.0537 28.3755 27.8226C28.3755 27.5915 28.1884 27.405 27.9579 27.405Z" fill="#858585"/>
<path d="M36.6586 42.4062H35.2868V33.9842H36.6586V42.4062ZM36.6586 46.1648H35.2868V43.2414H36.6586V46.1648ZM33.1697 46.1648V43.2331C33.363 43.1941 33.5089 43.027 33.5089 42.8238C33.5089 42.6178 33.363 42.4507 33.1697 42.4117V33.9758C33.363 33.9368 33.5089 33.7698 33.5089 33.5665C33.5089 33.3605 33.363 33.1935 33.1697 33.1545V32.3276C33.1697 31.974 33.4573 31.6872 33.8107 31.6872C34.1642 31.6872 34.4516 31.974 34.4516 32.3276V33.174C34.289 33.2297 34.1715 33.3828 34.1715 33.5665C34.1715 33.7475 34.289 33.9006 34.4516 33.9591V42.4312C34.289 42.4869 34.1715 42.64 34.1715 42.8238C34.1715 43.0048 34.289 43.1579 34.4516 43.2163V46.1648H33.1697ZM28.7471 46.1648V43.2331C28.9409 43.1969 29.0876 43.027 29.0876 42.8238C29.0876 42.6178 28.9409 42.4479 28.7471 42.4117V33.9758C28.9409 33.9396 29.0876 33.7698 29.0876 33.5665C29.0876 33.3605 28.9409 33.1907 28.7471 33.1545V32.3276C28.7471 31.974 29.0345 31.6872 29.3878 31.6872C29.7414 31.6872 30.0287 31.974 30.0287 32.3276V33.174C29.8669 33.2297 29.7503 33.3828 29.7503 33.5665C29.7503 33.7475 29.8669 33.9006 30.0287 33.9563V42.4312C29.8669 42.4869 29.7503 42.64 29.7503 42.8238C29.7503 43.0048 29.8669 43.1579 30.0287 43.2136V46.1648H28.7471ZM24.9652 46.1648H24.3243V43.2136C24.4852 43.1551 24.601 43.0048 24.601 42.8238C24.601 42.6428 24.4852 42.4897 24.3243 42.4312V33.9563C24.4852 33.8979 24.601 33.7475 24.601 33.5665C24.601 33.3856 24.4852 33.2325 24.3243 33.174V32.3276C24.3243 31.974 24.6116 31.6872 24.9652 31.6872C25.3185 31.6872 25.6058 31.974 25.6058 32.3276V33.174C25.4449 33.2325 25.3291 33.3856 25.3291 33.5665C25.3291 33.7475 25.4449 33.8979 25.6058 33.9563V42.4312C25.4449 42.4897 25.3291 42.6428 25.3291 42.8238C25.3291 43.0048 25.4449 43.1551 25.6058 43.2136V46.1648H24.9652ZM19.9014 46.1648V43.2136C20.0631 43.1579 20.1798 43.0048 20.1798 42.8238C20.1798 42.64 20.0631 42.4869 19.9014 42.4312V33.9563C20.0631 33.9006 20.1798 33.7475 20.1798 33.5665C20.1798 33.3828 20.0631 33.2297 19.9014 33.174V32.3276C19.9014 31.974 20.1887 31.6872 20.5423 31.6872C20.8956 31.6872 21.1832 31.974 21.1832 32.3276V33.1545C20.9892 33.1907 20.8424 33.3605 20.8424 33.5665C20.8424 33.7698 20.9892 33.9396 21.1832 33.9758V42.4117C20.9892 42.4479 20.8424 42.6178 20.8424 42.8238C20.8424 43.027 20.9892 43.1969 21.1832 43.2331V46.1648H19.9014ZM15.4785 46.1648V43.2163C15.6411 43.1579 15.7586 43.0048 15.7586 42.8238C15.7586 42.64 15.6411 42.4869 15.4785 42.4312V33.9591C15.6411 33.9006 15.7586 33.7475 15.7586 33.5665C15.7586 33.3828 15.6411 33.2297 15.4785 33.174V32.3276C15.4785 31.974 15.7661 31.6872 16.1194 31.6872C16.473 31.6872 16.7603 31.974 16.7603 32.3276V33.1545C16.5674 33.1935 16.4212 33.3605 16.4212 33.5665C16.4212 33.7698 16.5674 33.9368 16.7603 33.9758V42.4117C16.5674 42.4507 16.4212 42.6178 16.4212 42.8238C16.4212 43.027 16.5674 43.1941 16.7603 43.2331V46.1648H15.4785ZM13.2718 43.2414H14.6433V46.1648H13.2718V43.2414ZM13.2718 33.9842H14.6433V42.4062H13.2718V33.9842ZM17.5956 43.2414H19.0661V46.1648H17.5956V43.2414ZM17.5956 33.9842H19.0661V42.4062H17.5956V33.9842ZM22.0184 43.2414H23.489V46.1648H22.0184V43.2414ZM22.0184 33.9842H23.489V42.4062H22.0184V33.9842ZM26.441 43.2414H27.9119V46.1648H26.441V43.2414ZM26.441 33.9842H27.9119V42.4062H26.441V33.9842ZM30.8639 43.2414H32.3345V46.1648H30.8639V43.2414ZM30.8639 33.9842H32.3345V42.4062H30.8639V33.9842ZM13.2718 29.8414H36.6586V33.1489H35.2868V32.3276C35.2868 31.5118 34.6247 30.852 33.8107 30.852C32.9966 30.852 32.3345 31.5118 32.3345 32.3276V33.1489H30.8639V32.3276C30.8639 31.5118 30.2019 30.852 29.3878 30.852C28.574 30.852 27.9119 31.5118 27.9119 32.3276V33.1489H26.441V32.3276C26.441 31.5118 25.779 30.852 24.9652 30.852C24.1511 30.852 23.489 31.5118 23.489 32.3276V33.1489H22.0184V32.3276C22.0184 31.5118 21.3564 30.852 20.5423 30.852C19.7282 30.852 19.0661 31.5118 19.0661 32.3276V33.1489H17.5956V32.3276C17.5956 31.5118 16.9335 30.852 16.1194 30.852C15.3053 30.852 14.6433 31.5118 14.6433 32.3276V33.1489H13.2718V29.8414ZM13.2718 22.1154H36.6586V24.4819H36.2061V23.6133C36.2061 22.9785 35.6908 22.4634 35.0577 22.4634C34.4243 22.4634 33.9092 22.9785 33.9092 23.6133V24.4819H33.346V23.6133C33.346 22.9785 32.8309 22.4634 32.1975 22.4634C31.5644 22.4634 31.0491 22.9785 31.0491 23.6133V24.4819H30.4861V23.6133C30.4861 22.9785 29.9708 22.4634 29.3377 22.4634C28.7043 22.4634 28.1892 22.9785 28.1892 23.6133V24.4819H27.626V23.6133C27.626 22.9785 27.1109 22.4634 26.4775 22.4634C25.8444 22.4634 25.3291 22.9785 25.3291 23.6133V24.4819H24.9652H24.601V23.6133C24.601 22.9785 24.0857 22.4634 23.4526 22.4634C22.8194 22.4634 22.3041 22.9785 22.3041 23.6133V24.4819H21.7411V23.6133C21.7411 22.9785 21.2258 22.4634 20.5927 22.4634C19.9593 22.4634 19.4442 22.9785 19.4442 23.6133V24.4819H18.881V23.6133C18.881 22.9785 18.3656 22.4634 17.7325 22.4634C17.0994 22.4634 16.5841 22.9785 16.5841 23.6133V24.4819H16.0211V23.6133C16.0211 22.9785 15.5058 22.4634 14.8727 22.4634C14.2393 22.4634 13.7242 22.9785 13.7242 23.6133V24.4819H13.2718V22.1154ZM22.0591 21.2801H20.1798V16.2743C20.1798 15.7564 20.6013 15.3332 21.1194 15.3332C21.6376 15.3332 22.0591 15.7564 22.0591 16.2743V21.2801ZM24.9652 21.2801H24.0255V16.2743C24.0255 15.7564 24.4468 15.3332 24.9652 15.3332C25.4833 15.3332 25.9048 15.7564 25.9048 16.2743V21.2801H24.9652ZM29.7503 21.2801H27.871V16.2743C27.871 15.7564 28.2925 15.3332 28.8106 15.3332C29.3288 15.3332 29.7503 15.7564 29.7503 16.2743V21.2801ZM19.0837 14.0776H30.8467V21.2801H30.5855V16.2743C30.5855 15.2943 29.7895 14.498 28.8106 14.498C27.8317 14.498 27.0357 15.2943 27.0357 16.2743V21.2801H26.7401V16.2743C26.7401 15.2943 25.9438 14.498 24.9652 14.498C23.9863 14.498 23.1903 15.2943 23.1903 16.2743V21.2801H22.8943V16.2743C22.8943 15.2943 22.0984 14.498 21.1194 14.498C20.1405 14.498 19.3446 15.2943 19.3446 16.2743V21.2801H19.0837V14.0776ZM19.0837 11.6415H30.8467V13.2423H19.0837V11.6415ZM24.9652 5.44676C27.0992 5.44676 30.6373 6.15393 30.8366 10.8062H24.9652H19.0934C19.2931 6.15393 22.8311 5.44676 24.9652 5.44676ZM24.8507 2.83524H25.0793L25.2801 4.61709C25.1757 4.61431 25.0729 4.61152 24.9652 4.61152C24.8572 4.61152 24.7544 4.61431 24.65 4.61709L24.8507 2.83524ZM35.3709 24.4819H34.7445V23.6133C34.7445 23.4406 34.8851 23.2986 35.0577 23.2986C35.2303 23.2986 35.3709 23.4406 35.3709 23.6133V24.4819ZM32.5107 24.4819H31.8843V23.6133C31.8843 23.4406 32.0249 23.2986 32.1975 23.2986C32.3701 23.2986 32.5107 23.4406 32.5107 23.6133V24.4819ZM29.6509 24.4819H29.0244V23.6133C29.0244 23.4406 29.165 23.2986 29.3377 23.2986C29.5103 23.2986 29.6509 23.4406 29.6509 23.6133V24.4819ZM26.7907 24.4819H26.1643V23.6133C26.1643 23.4406 26.3049 23.2986 26.4775 23.2986C26.6501 23.2986 26.7907 23.4406 26.7907 23.6133V24.4819ZM23.7658 24.4819H23.1393V23.6133C23.1393 23.4406 23.2799 23.2986 23.4526 23.2986C23.6252 23.2986 23.7658 23.4406 23.7658 23.6133V24.4819ZM20.9059 24.4819H20.2795V23.6133C20.2795 23.4406 20.4198 23.2986 20.5927 23.2986C20.7653 23.2986 20.9059 23.4406 20.9059 23.6133V24.4819ZM18.0458 24.4819H17.4193V23.6133C17.4193 23.4406 17.5599 23.2986 17.7325 23.2986C17.9052 23.2986 18.0458 23.4406 18.0458 23.6133V24.4819ZM14.1418 25.3171H36.6586V25.8044H13.2718V25.3171H14.1418ZM15.1859 24.4819H14.5595V23.6133C14.5595 23.4406 14.7001 23.2986 14.8727 23.2986C15.0453 23.2986 15.1859 23.4406 15.1859 23.6133V24.4819ZM24.9652 29.0061H13.2718V26.6396H36.6586V29.0061H24.9652ZM37.5124 33.9842C37.743 33.9842 37.9301 33.7948 37.9301 33.5665C37.9301 33.3355 37.743 33.1489 37.5124 33.1489H37.4938V29.4237V26.222V24.8995V21.6978C37.4938 21.4667 37.3067 21.2801 37.0762 21.2801H31.6819V14.0776H31.8732C32.1037 14.0776 32.2908 13.8883 32.2908 13.66C32.2908 13.4289 32.1037 13.2423 31.8732 13.2423H31.6819V11.2238C31.6819 9.36961 31.1114 5.2296 26.127 4.67277L25.8672 2.37029C25.8436 2.15869 25.6648 2 25.4524 2H24.9652H24.478C24.2652 2 24.0865 2.15869 24.0628 2.37029L23.8031 4.67277C18.8186 5.2296 18.2484 9.36961 18.2484 11.2238V13.2423H18.0569C17.8264 13.2423 17.6393 13.4289 17.6393 13.66C17.6393 13.8883 17.8264 14.0776 18.0569 14.0776H18.2484V21.2801H12.8542C12.6234 21.2801 12.4366 21.4667 12.4366 21.6978V24.8995V26.222V29.4237V33.1489H12.4176C12.1871 33.1489 12 33.3355 12 33.5665C12 33.7948 12.1871 33.9842 12.4176 33.9842H12.4366V42.4062H12.4176C12.1871 42.4062 12 42.5927 12 42.8238C12 43.0521 12.1871 43.2414 12.4176 43.2414H12.4366V46.5824C12.4366 46.8107 12.6234 47 12.8542 47H15.0609H17.1779H19.4838H21.6008H23.9066H24.9652H26.0234H28.3295H30.4463H32.7521H34.8692H37.0762C37.3067 47 37.4938 46.8107 37.4938 46.5824V43.2414H37.5124C37.743 43.2414 37.9301 43.0521 37.9301 42.8238C37.9301 42.5927 37.743 42.4062 37.5124 42.4062H37.4938V33.9842H37.5124Z" fill="#858585"/>
</g>
<defs>
<clipPath id="clip0_8776_1507">
<rect width="25.9301" height="45" fill="white" transform="translate(12 2)"/>
</clipPath>
</defs>
</svg>
