<svg width="50" height="50" viewBox="0 0 50 50" fill="none" xmlns="http://www.w3.org/2000/svg">
<path d="M8.26735 38.5498C6.97366 38.6375 5.64996 38.4402 4.35989 38.5957C4.07247 38.6304 3.14663 38.5505 3.20691 39.0355C3.25922 39.4563 4.80373 39.3721 5.1423 39.3721C7.23213 39.3723 9.30889 39.3471 11.3924 39.3718C20.2395 39.4771 29.1046 39.3721 37.9553 39.3721C39.3842 39.3721 40.8032 39.2561 42.2316 39.2911C43.3204 39.3178 44.4288 39.4551 45.5212 39.3384C46.2089 39.265 47.7917 39.6927 47.8238 38.7142C46.4411 38.6124 45.0925 38.6123 43.7119 38.5754C43.3622 38.5661 42.5426 38.7663 42.2577 38.6013C41.6773 38.2653 42.2582 37.1596 41.9004 36.7079C41.6065 36.3369 40.8946 36.7705 40.5543 36.3759C40.338 36.1251 40.4629 35.5718 40.4595 35.2602C40.4481 34.2125 40.2371 32.913 40.3773 31.8897C40.4584 31.2979 41.1054 31.4977 41.487 31.3455C41.9702 31.1526 41.9015 30.5615 41.7713 30.1615C40.7095 26.9008 39.3856 23.6608 38.1671 20.4574C37.6451 19.0853 36.7305 17.4793 36.5715 16.0166C36.4543 14.9374 36.965 14.012 37.394 13.056C37.5932 12.6122 37.9868 12.0113 37.837 11.5024C37.6951 11.0195 37.1297 11.1974 36.8039 11.3505C35.9487 11.7527 34.5025 12.7971 34.5013 11.2468H33.9256C33.9256 11.5468 33.9934 11.9535 33.8411 12.2246C33.6068 12.6415 32.2109 12.9358 31.8147 12.652C31.2455 12.2445 32.0672 11.2802 31.0473 11.2468C31.0003 11.6908 31.1898 12.5924 30.6334 12.7597C30.3737 12.8376 30.0804 12.7239 29.8137 12.7356C29.5278 12.7482 29.1837 12.885 28.9352 12.6774C28.5692 12.3714 28.9994 11.3823 28.4873 11.2778C27.8586 11.1493 28.2025 12.3247 27.9549 12.6186C27.6862 12.9375 26.6623 12.855 26.279 12.7968C25.5473 12.6857 26.1785 11.1281 25.4636 11.2778C25.0075 11.3732 25.3017 12.2371 25.1114 12.5492C24.9186 12.8653 23.916 12.8131 23.5636 12.8065C22.5804 12.788 23.1805 11.1364 22.5117 11.2778C21.891 11.4088 22.6027 12.6139 21.8351 12.7799C21.517 12.8487 20.3697 12.8668 20.1592 12.6186C19.9185 12.3347 20.2404 11.1489 19.6247 11.2778C19.0908 11.3894 19.5863 12.3679 19.1788 12.652C18.7779 12.9316 17.3879 12.6455 17.1514 12.2246C16.999 11.9535 17.0668 11.5468 17.0668 11.2468C16.2316 11.2503 16.7684 12.1062 16.1622 12.1719C15.56 12.2372 14.6388 11.5532 14.1062 11.3153C13.8101 11.183 13.3816 11.0687 13.1788 11.4181C12.9257 11.8538 13.3705 12.5716 13.5306 12.9737C13.9722 14.0829 14.4603 15.1156 14.2525 16.3455C14.0251 17.6912 13.2479 19.1895 12.7402 20.4574C11.8606 22.6539 11.0879 24.9596 10.3667 27.2009C10.0104 28.3083 9.15905 29.5582 9.13997 30.7372C9.12122 31.8941 10.7865 30.9144 10.7597 31.9707C10.7323 33.0429 10.6223 34.099 10.6522 35.178C10.6616 35.5142 10.8584 36.0984 10.6226 36.391C10.2608 36.8399 9.52131 36.3298 9.13085 36.6354C8.69975 36.9729 9.21366 38.0137 8.94811 38.4584C8.81949 38.6737 8.40263 38.7554 8.26735 38.5498Z" fill="#858585"/>
<path d="M14.2707 12.3159L14.1885 12.3982L14.9286 14.2074C15.9693 14.0141 17.1047 14.1183 18.1359 14.2896C18.0784 14.0023 18.3463 14.1062 18.3004 14.2896H19.7807H19.8629H20.603L20.5208 14.1252H20.603L23.1524 14.128L24.386 14.1849L25.2084 13.5495H19.205L16.9846 13.385L14.2707 12.3159Z" fill="#FEFEFE"/>
<path d="M36.6402 12.3159C33.4652 14.1229 29.4283 13.5495 25.9492 13.5495L27.0183 14.2896L28.4986 14.1252H32.2815L32.1993 14.2896H32.6105L32.6927 14.1252L32.775 14.2896C33.1658 14.0737 33.7795 14.0962 34.173 14.2896L35.5711 14.1252L35.4888 14.2896C36.1113 14.1865 36.8541 12.9344 36.6402 12.3159Z" fill="#FEFEFE"/>
<path d="M24.9619 15.9344C25.1586 15.9925 25.3311 16.0153 25.5377 16.0163C27.1704 16.0243 25.3838 13.6885 24.9997 15.1946C24.9396 15.4302 24.99 15.6925 24.9619 15.9344Z" fill="#FEFEFE"/>
<path d="M15.0938 15.9343C16.0858 16.2276 17.4255 15.9343 18.4655 15.9343H20.7682C21.2067 15.9343 21.6455 15.93 22.084 15.9347C22.5794 15.9399 23.2331 16.1316 23.7169 15.9902C23.9914 15.9099 24.0716 15.4594 23.8436 15.2787C23.438 14.9574 22.3175 15.2741 21.8373 15.2764C20.1947 15.2843 18.545 15.3154 16.903 15.2752C16.024 15.2537 15.2063 14.8524 15.0938 15.9343Z" fill="#FFDD2C"/>
<path d="M27.2323 15.2859C26.4497 15.8217 27.8994 16.0231 28.1623 16.0086C30.0252 15.9062 31.8935 15.9334 33.7618 15.9342C34.1883 15.9343 35.4353 16.262 35.7332 15.8846C36.2416 15.2405 35.1785 15.1776 34.8309 15.2013C33.0012 15.3267 31.1573 15.2763 29.3209 15.2763C28.8267 15.2763 27.6453 15.0032 27.2323 15.2859Z" fill="#FFDD2C"/>
<path d="M14.6006 17.9079C15.5504 18.188 16.9628 17.9079 17.9723 17.9079H20.275C21.0758 17.9079 22.1305 18.1516 22.9021 17.9628C23.2357 17.8812 23.4997 17.2533 23.1862 17.0065C22.8353 16.7301 21.5404 17.0033 21.0974 17.0033C19.6761 17.0033 18.2409 17.0618 16.821 17.0001C16.3591 16.9799 15.443 16.7819 15.0303 17.0088C14.7404 17.1681 14.6683 17.6154 14.6006 17.9079Z" fill="#FFDD2C"/>
<path d="M24.4286 17.0054C24.0565 17.2712 24.1345 18.0941 24.7105 17.9623C25.1053 17.872 25.0665 17.2406 25.5364 17.2882C25.9794 17.3331 26.0759 18.3138 26.6596 17.9054C26.9322 17.7147 26.7721 17.0962 26.5016 16.9705C26.1555 16.8097 24.7419 16.7817 24.4286 17.0054Z" fill="#FEFEFE"/>
<path d="M36.3103 17.9081C36.2179 17.6244 36.1475 17.1758 35.8762 17.0058C35.4398 16.7323 34.6499 16.9794 34.1721 17.0003C32.7524 17.0625 31.317 17.0035 29.8957 17.0035C29.4359 17.0035 28.1603 16.7256 27.8071 17.0058C27.4946 17.2539 27.7561 17.8811 28.091 17.963C28.8242 18.1424 29.9438 17.9081 30.7181 17.9081H33.0208C34.0654 17.9081 35.2976 18.1465 36.3103 17.9081Z" fill="#FFDD2C"/>
<path d="M13.6133 20.4573C14.6545 20.765 16.134 20.4573 17.2318 20.4573H19.6989C20.4478 20.4573 21.8838 20.7972 22.5543 20.4899C22.8631 20.3483 23.1356 19.2102 22.8554 18.9793C22.4646 18.6573 21.3252 18.9763 20.8502 18.977H16.1627C15.6364 18.977 14.8573 18.7364 14.3644 18.9444C13.9264 19.1291 13.7533 20.0436 13.6133 20.4573Z" fill="#FFDD2C"/>
<path d="M24.0997 18.9793C23.3166 19.535 23.7423 20.8212 24.7856 20.5134C25.1479 20.4065 25.0687 19.7875 25.5375 19.8473C26.0344 19.9106 26.3398 21.0951 27.1327 20.455C27.4077 20.233 27.1512 19.1621 26.8937 18.9793C26.7269 18.861 26.4703 18.8951 26.278 18.8948C25.7572 18.8939 24.5266 18.6764 24.0997 18.9793Z" fill="#FEFEFE"/>
<path d="M37.2974 20.4572C37.1392 20.047 36.9763 19.135 36.5397 18.9442C36.0563 18.7331 35.2667 18.9769 34.7481 18.9769H30.1427C29.6713 18.9762 28.5301 18.654 28.1373 18.9794C27.8583 19.2107 28.1074 20.3573 28.4345 20.4865C29.1084 20.7527 30.5437 20.4572 31.2941 20.4572H33.7612C34.8446 20.4572 36.2645 20.7625 37.2974 20.4572Z" fill="#FFDD2C"/>
<path d="M12.709 22.9246L15.0129 22.9409L19.2058 22.9249L22.3308 22.9246C22.3243 22.5628 22.7099 21.8034 22.3635 21.5288C21.9756 21.2214 20.7593 21.5265 20.2749 21.5265H15.4228C14.8691 21.5265 13.966 21.2861 13.4578 21.4939C12.9918 21.6845 12.8674 22.5005 12.709 22.9246Z" fill="#FFDD2C"/>
<path d="M23.6684 21.53C23.3443 21.7243 23.199 22.6732 23.4591 22.9572C23.6829 23.2016 24.5075 23.1408 24.7846 23.0156C25.1881 22.833 24.9454 21.9975 25.5366 22.0582C26.0119 22.1071 25.8384 22.6116 26.0326 22.8823C26.2345 23.1637 27.2699 23.2169 27.5318 23.0045C27.8448 22.7506 27.6109 21.6333 27.2521 21.4971C26.5333 21.2244 25.2381 21.4697 24.4678 21.5093C24.2155 21.5223 23.8997 21.3913 23.6684 21.53Z" fill="#FEFEFE"/>
<path d="M28.6629 22.9248L31.3767 22.928L35.3241 22.9248H38.2025C38.0868 22.5251 37.9481 21.6779 37.527 21.4941C37.0522 21.2869 36.1741 21.5267 35.6531 21.5267H30.7188C30.2121 21.5267 29.0317 21.2223 28.6141 21.529C28.2682 21.7831 28.6509 22.5814 28.6629 22.9248Z" fill="#FFDD2C"/>
<path d="M12.4848 24.1603C12.1841 24.3487 11.7737 25.2941 12.2242 25.4906C12.7307 25.7116 13.4589 25.4484 13.9893 25.469C15.7863 25.5387 17.6467 25.5076 19.4521 25.5517C19.9715 25.5644 21.2444 25.7085 21.6476 25.3527C21.894 25.1353 22.1093 24.3126 21.7287 24.1254C21.221 23.8756 20.1997 24.0787 19.6401 24.0872C17.9889 24.1121 16.3504 24.1144 14.6985 24.0913C14.127 24.0834 12.9801 23.85 12.4848 24.1603ZM29.9786 25.3916C30.6834 25.7752 31.8529 25.4808 32.6102 25.3984C34.0213 25.245 35.8384 25.2253 37.2155 25.5218C37.5178 25.5869 39.0218 25.6434 38.9905 25.2248C38.9673 24.9148 38.6731 24.2099 38.3669 24.1032C37.7917 23.9028 36.9901 24.158 36.3932 24.158C34.7505 24.158 33.1008 24.2037 31.4589 24.158C30.9246 24.1432 29.552 23.7813 29.1014 24.1352C28.5947 24.5332 29.5855 26.1411 29.9786 25.3916Z" fill="#FFDD2C"/>
<path d="M22.6592 26.9545C23.2177 26.8263 24.2999 26.294 24.689 25.8667C24.9952 25.5305 24.8527 24.6696 25.4582 24.608C26.1192 24.5408 25.9995 25.4545 26.245 25.7923C26.5812 26.2545 27.7203 26.7341 28.2514 26.9545C28.2513 26.3583 28.2077 24.7878 27.7979 24.3491C27.5489 24.0825 27.0999 24.1585 26.7711 24.1585H24.2217C23.8883 24.1585 23.4445 24.0849 23.1883 24.3491C22.7643 24.7863 22.7075 26.3416 22.6592 26.9545Z" fill="#FEFEFE"/>
<path d="M13.0373 27.9408C13.1511 28.1503 13.4135 28.1453 13.5307 27.9408C14.9397 28.3265 16.5992 27.9904 18.0538 28.0243C18.4575 28.0337 19.2408 28.2771 19.5341 27.9408C19.8344 28.1376 20.8543 28.2038 21.1527 27.9702C21.3724 27.7982 21.5772 26.9786 21.3727 26.7569C20.9957 26.3486 19.4718 26.6459 18.9583 26.6934C17.3361 26.8433 15.57 26.7754 13.9419 26.7041C13.2752 26.6749 12.2862 26.4104 11.6482 26.6746C11.3529 26.797 10.8063 27.7701 11.1732 28.0022C11.5846 28.2624 12.6063 28.0715 13.0373 27.9408Z" fill="#FFDD2C"/>
<path d="M29.5964 26.7101C29.2079 26.986 29.6284 28.0008 30.0385 28.0736C32.3533 28.4842 34.8593 27.7492 37.2152 28.0585C37.7034 28.1226 39.5145 28.3639 39.8603 27.9626C40.2346 27.5281 39.4569 26.6564 39.0244 26.6292C36.7488 26.4861 34.3797 26.6671 32.0933 26.636C31.5042 26.6279 30.0755 26.3698 29.5964 26.7101Z" fill="#FFDD2C"/>
<path d="M25.209 26.939C24.3998 27.2133 23.524 27.7776 22.9067 28.3596C22.7311 28.5251 22.2414 28.9277 22.4714 29.2073C22.7045 29.4904 23.5632 29.3391 23.8932 29.3391H27.0182C27.4147 29.3391 28.0362 29.4557 28.4028 29.2895C28.9029 29.0627 28.2025 28.4602 28.005 28.2777C27.4231 27.7397 26.0603 26.6502 25.209 26.939Z" fill="#FEFEFE"/>
<path d="M31.8702 29.1743C31.4079 29.5245 30.3067 28.9161 30.0008 29.4472C29.2382 30.7714 31.3981 30.5722 32.0347 30.5724C33.6509 30.5729 35.3684 30.3518 36.9689 30.5041C37.8186 30.5849 38.664 30.5724 39.5183 30.5724C39.8529 30.5724 40.3456 30.6615 40.6571 30.5228C41.0412 30.3516 40.7236 29.6735 40.5276 29.4472C40.1536 29.0153 38.8936 29.2736 38.367 29.2504C36.3755 29.1628 33.7789 29.8785 31.8702 29.1743Z" fill="#FFDD2C"/>
<path d="M10.5896 29.3413C10.3401 29.4925 9.90484 30.33 10.2779 30.523C10.8672 30.8279 12.0656 30.5369 12.709 30.5153C14.615 30.4515 16.5507 30.5726 18.4657 30.5726C19.005 30.5726 20.5609 30.8373 20.9528 30.4293C21.2096 30.1619 21.0695 29.3351 20.6812 29.2689C19.9968 29.1523 19.2402 29.339 18.5479 29.339H13.2024C12.5036 29.3378 11.2165 28.9609 10.5896 29.3413Z" fill="#FFDD2C"/>
<path d="M22.1659 33.5332C22.6115 33.2905 22.9518 32.9009 23.3994 32.6544C24.7049 31.9354 26.0899 31.9019 27.4291 32.5373C27.9754 32.7966 28.3691 33.2827 28.9094 33.5332C28.9094 32.8701 28.8445 32.2185 28.8284 31.5595C28.821 31.2584 28.8974 30.8421 28.6365 30.6223C28.1449 30.2081 26.5736 30.4904 25.9488 30.4904H23.4817C23.1748 30.4904 22.7002 30.405 22.428 30.575C22.1535 30.7464 22.2468 31.1238 22.2477 31.3951C22.2502 32.1127 21.9549 32.8197 22.1659 33.5332Z" fill="#FEFEFE"/>
<path d="M11.5573 36.4114C12.7183 36.3875 13.8473 36.2902 15.0113 36.3973C15.2857 36.4227 16.0528 36.5202 16.2425 36.2796C16.4231 36.0506 16.4153 34.8027 16.2425 34.5662C16.0623 34.3195 15.6013 34.3542 15.6318 33.9443C15.6592 33.5776 16.0772 33.5971 16.2425 33.3429C16.4119 33.0825 16.2661 32.738 16.4589 32.4758C16.709 32.1358 17.1979 32.0622 17.4784 31.7238C16.5217 31.441 15.0127 31.6032 14.0265 31.739C13.7252 31.7805 13.2647 31.6076 13.0376 31.8061C12.6723 31.5551 11.7589 31.581 11.5883 32.0565C11.3283 32.7803 11.6031 33.9244 11.6363 34.6844C11.6616 35.2628 11.5025 35.8401 11.5573 36.4114Z" fill="#FEFEFE"/>
<path d="M33.5146 31.8061C33.8591 32.0167 34.448 32.1919 34.6513 32.5551C34.7876 32.7987 34.6819 33.1112 34.8328 33.3429C34.9981 33.597 35.522 33.6118 35.4265 34.0233C35.3537 34.3377 34.9953 34.3402 34.8328 34.566C34.6581 34.8086 34.6718 35.9559 34.7981 36.2208C34.9452 36.5292 35.623 36.423 35.8996 36.4041C37.0213 36.3272 38.5526 36.636 39.6003 36.3292C39.4127 35.3188 39.518 34.2296 39.518 33.2042C39.518 32.8502 39.6642 32.2299 39.4887 31.9167C39.2936 31.5687 38.4738 31.6545 38.12 31.647C37.2606 31.6287 36.3996 31.8093 35.5357 31.7279C34.9444 31.6722 34.0355 31.4503 33.5146 31.8061Z" fill="#FEFEFE"/>
<path d="M20.6848 32.0106C19.8246 32.0612 18.8707 32.5142 18.0535 32.7794C17.8343 32.8506 17.2557 32.9446 17.3069 33.2787C17.354 33.5859 17.8368 33.5337 18.0535 33.533C18.8531 33.5308 20.0861 33.7147 20.8448 33.5069C21.3941 33.3566 21.3607 31.9708 20.6848 32.0106Z" fill="#FEFEFE"/>
<path d="M30.0045 32.0583C29.668 32.2632 29.709 33.3248 30.0727 33.4835C30.7232 33.7672 32.0576 33.5097 32.7817 33.529C33.0343 33.5356 33.4309 33.6008 33.6513 33.4489C34.0275 33.1898 33.4767 32.9342 33.2678 32.866C32.5043 32.6166 31.7339 32.3825 30.9652 32.1497C30.709 32.0721 30.2569 31.9046 30.0045 32.0583Z" fill="#FEFEFE"/>
<path d="M24.9619 33.0773C23.2678 33.3087 21.9756 34.9662 22.1456 36.6584C22.1861 37.0624 21.8036 38.4597 22.4347 38.512C23.0836 38.5657 22.7841 36.8871 22.8031 36.4939C22.8817 34.8691 24.2954 33.3181 26.031 33.7813C27.51 34.1761 28.0382 35.3346 28.1425 36.7406C28.1733 37.1558 27.7737 38.5858 28.5443 38.5204C28.8797 38.492 28.9041 38.16 28.9089 37.892C28.9213 37.2163 28.968 36.4105 28.8259 35.7538C28.4348 33.9468 26.7774 32.8293 24.9619 33.0773Z" fill="#FEFEFE"/>
<path d="M17.3638 34.5224C17.059 34.7638 17.2995 35.4338 17.2995 35.7537C17.2995 36.3357 16.9089 37.9656 17.364 38.4069C17.594 38.6297 18.0195 38.524 18.3052 38.5174C18.5614 38.5115 18.9503 38.6 19.1561 38.4044C19.4833 38.0934 19.2259 37.2931 19.2089 36.905C19.1876 36.4172 19.5354 34.8385 19.1447 34.5224C18.9206 34.3412 18.4061 34.4379 18.1366 34.4379C17.9151 34.4379 17.5507 34.3744 17.3638 34.5224ZM20.1925 38.4675L20.9327 38.5498C21.5883 37.9078 21.0703 36.5608 21.1057 35.7537C21.1207 35.4142 21.2897 34.9537 21.1298 34.6285C21.0166 34.3986 20.5882 34.3867 20.3832 34.4875C20.0549 34.6489 20.2273 35.2339 20.2554 35.5143C20.3534 36.4924 20.2143 37.4892 20.1925 38.4675Z" fill="#FEFEFE"/>
<path d="M30.472 38.3851C30.5801 38.5202 30.8137 38.6128 30.9654 38.3851C31.1131 38.1637 30.9331 37.4335 30.8832 37.2338C30.7584 36.7346 30.8525 35.8763 30.9654 35.4246C30.9995 35.2883 31.0395 34.631 30.9654 34.5199C30.8626 34.3657 29.9169 34.3657 29.8141 34.5199C29.74 34.631 29.7801 35.2883 29.8141 35.4246C29.9176 35.8382 30.0116 36.6082 29.8963 37.0693C29.8333 37.3216 29.6622 38.1067 29.8141 38.3851C30.0096 38.7434 30.4451 38.5198 30.472 38.3851Z" fill="#FEFEFE"/>
<path d="M32.0021 34.5222C31.6917 34.768 31.9349 35.5078 31.9493 35.8357C31.9739 36.399 31.6036 38.0062 31.9989 38.4136C32.1918 38.6123 32.6534 38.5366 32.9045 38.5342C33.1437 38.532 33.5241 38.5926 33.7124 38.4108C33.9715 38.1609 33.844 37.4795 33.844 37.1515C33.844 36.4807 33.7922 35.8463 33.8367 35.1778C33.8489 34.9925 33.8923 34.6527 33.7122 34.5295C33.5323 34.4067 33.1528 34.5102 32.9394 34.4847C32.6795 34.4536 32.23 34.3417 32.0021 34.5222Z" fill="#FEFEFE"/>
<path d="M25.044 38.3853C25.4178 38.5219 26.7338 38.7539 27.0726 38.4356C27.2661 38.2537 27.1844 37.8027 27.1822 37.5629C27.175 36.793 27.318 35.879 26.7642 35.2603C25.7604 34.139 23.9001 34.7296 23.735 36.2471C23.6848 36.7091 23.5431 37.9854 23.7876 38.3762C23.952 38.6391 24.9129 38.6352 25.044 38.3853Z" fill="#FEFEFE"/>
<path d="M10.8993 38.5498L10.8171 38.3853C11.8445 38.6299 13.053 38.4676 14.1066 38.4675C14.6901 38.4675 15.3657 38.6089 15.9377 38.5163C16.3541 38.449 16.5334 37.5598 16.1364 37.3658C15.7464 37.1753 14.9481 37.3679 14.5165 37.3919C13.4457 37.4516 12.3791 37.3166 11.3105 37.3162C10.9485 37.316 10.3517 37.203 10.0208 37.3658C9.75472 37.4969 9.75776 38.2215 9.96228 38.4075C10.1768 38.6026 10.6303 38.5337 10.8993 38.5498Z" fill="#FEFEFE"/>
<path d="M36.0642 38.55L35.982 38.3855H36.0642C37.1413 38.6768 39.0109 38.6433 40.0939 38.3855C40.4833 39.1021 41.8403 38.0625 41.131 37.4192C40.8624 37.1755 40.1072 37.3164 39.7649 37.3164C38.6173 37.3164 37.4672 37.4633 36.3109 37.3963C35.9255 37.374 35.2799 37.153 34.922 37.3758C34.6552 37.5419 34.6502 38.3045 34.9197 38.4677C35.2012 38.6382 35.7389 38.5079 36.0642 38.55Z" fill="#FEFEFE"/>
</svg>
