<svg width="50" height="50" viewBox="0 0 50 50" fill="none" xmlns="http://www.w3.org/2000/svg">
<path d="M10.0645 5V6.25806H10.1612L10.0645 5Z" fill="#858585"/>
<path d="M10.1612 5L10.0617 6.14098L8.94129 7.51613L9.17284 8.96774L9.19345 10.7097H6.7741V14.9677H6.09668V15.6452H6.7741V18.4516H6.09668V19.129H6.7741V21.7419H6.09668V22.5161H6.7741V27.2581H3.09668V45.6452H47.4193V26.3871H47.9031V25.7097H47.3225L47.3266 22.9032L47.4778 21.5484L46.4515 19.6129H45.7741C45.7697 20.8476 44.465 21.1336 44.9031 22.5161C43.4251 21.168 40.4583 20.8395 39.387 22.9032H39.2902L39.4133 21.4517L38.4193 19.6129H37.7418C37.7415 20.072 37.7764 20.4187 37.3547 20.6774V19.2258H36.6773V15.7419H35.9999V19.2258C34.5187 19.2206 34.5483 17.8518 34.5483 16.7097C34.5483 16.2728 34.4308 15.6283 34.7726 15.2889C35.3005 14.7647 36.0554 15.6378 36.6773 15.6452C36.6773 12.7852 35.8944 9.66026 32.516 9.16129C32.766 7.81429 31.5493 7.48826 31.5483 6.25806H30.8709C30.87 7.42371 29.4126 7.93913 29.9999 9.16129C26.6862 9.65068 25.8386 12.8207 25.8386 15.6452H26.3225V15.7419H25.8386V19.2258H24.8709V20.7742C24.4014 20.4515 24.3874 20.1567 24.387 19.6129H23.7096L22.7414 21.4517L22.8386 22.9032H22.7418C21.5835 20.6717 18.4335 21.2357 17.0322 22.8065C17.6267 21.2626 16.259 20.995 16.258 19.6129H15.5806L14.5384 21.6452L14.7054 22.9032L14.7096 25.7097H14.2257V26.3871H14.7096V27.2581H14.0322V10.7097H11.9031L11.9235 8.87097L12.1156 7.51613L10.9381 6.13583L10.8386 5H10.1612Z" fill="#858585"/>
<path d="M10.8379 5V6.25806H10.9347L10.8379 5Z" fill="#858585"/>
<path d="M30.8711 6.16162V6.2584H31.5485L30.8711 6.16162Z" fill="#858585"/>
<path d="M30.7742 6.25781V7.12878H30.8709L30.7742 6.25781ZM31.5484 6.25781V7.12878H31.6451L31.5484 6.25781Z" fill="#858585"/>
<path d="M10.3545 6.93555V7.03232H10.6448L10.3545 6.93555Z" fill="#858585"/>
<path d="M10.2594 7.10477C9.09651 7.54084 10.0169 8.75652 11.0191 8.32897C11.8207 7.98687 10.9605 6.84186 10.2594 7.10477Z" fill="white"/>
<path d="M8.80664 7.70947V7.9998H8.90341L8.80664 7.70947Z" fill="#858585"/>
<path d="M31.0645 7.90332V8.00009H31.3548L31.0645 7.90332Z" fill="#858585"/>
<path d="M30.9044 8.09961C30.2103 8.53287 31.066 9.23971 31.614 8.86829C32.1606 8.49793 31.3974 7.79187 30.9044 8.09961Z" fill="white"/>
<path d="M10.0645 8.38672V8.48349H11.0322L10.0645 8.38672Z" fill="#858585"/>
<path d="M29.709 8.38672V8.77382H29.8058L29.709 8.38672Z" fill="#858585"/>
<path d="M32.6133 8.38672V8.67704H32.7101L32.6133 8.38672Z" fill="#858585"/>
<path d="M9.09668 8.77441V10.7099H9.19345L9.09668 8.77441Z" fill="#858585"/>
<path d="M9.87109 10.7098H9.96787V9.2582H11.1292C9.86545 8.72797 9.87109 9.79326 9.87109 10.7098Z" fill="#858585"/>
<path d="M9.96777 9.25781V10.7094H11.1291V9.25781H9.96777Z" fill="white"/>
<path d="M26.71 13.5164C27.4968 13.3011 28.2255 12.948 29.0325 12.7856C31.4739 12.2945 33.6457 12.7711 35.9035 13.7099C35.6156 12.226 34.8844 10.9626 33.4842 10.2625C30.8071 8.92394 27.1294 10.4041 26.71 13.5164Z" fill="#FFDD2C"/>
<path d="M6.67676 10.71V14.8713H6.77353C6.77353 13.6888 7.13261 11.7963 6.67676 10.71ZM14.0316 10.71V27.1616H14.1284C14.1969 23.3281 14.1284 19.4822 14.1284 15.6454C14.1284 14.2616 14.5644 11.9797 14.0316 10.71Z" fill="#858585"/>
<path d="M7.45215 11.4839V14.9678H7.54892C7.54892 13.9626 7.84035 12.409 7.45215 11.4839Z" fill="#858585"/>
<path d="M7.54883 11.4839V14.871H13.2585V11.4839H7.54883Z" fill="#FFDD2C"/>
<path d="M13.2578 11.4839V14.9678H13.3546C13.3546 13.9626 13.646 12.409 13.2578 11.4839Z" fill="#858585"/>
<path d="M30.3867 12.5483V12.6451H30.9674L30.3867 12.5483Z" fill="#858585"/>
<path d="M30.9678 12.5483V12.6451H31.3549L30.9678 12.5483Z" fill="#858585"/>
<path d="M31.3545 12.5483V12.6451H31.9351L31.3545 12.5483Z" fill="#858585"/>
<path d="M8.22559 12.8389V14.0969H8.32236L8.22559 12.8389Z" fill="#858585"/>
<path d="M8.32227 12.8389V14.0969H8.99968V12.8389H8.32227Z" fill="#858585"/>
<path d="M9 12.8389V14.0969H9.09677L9 12.8389Z" fill="#858585"/>
<path d="M9.87109 12.8389V14.0969H9.96787L9.87109 12.8389Z" fill="#858585"/>
<path d="M9.96777 12.8389V14.0969H10.6452V12.8389H9.96777Z" fill="#858585"/>
<path d="M10.6455 12.8389V14.0969H10.7423L10.6455 12.8389Z" fill="#858585"/>
<path d="M11.5156 12.8389V14.0969H12.2898V12.8389H11.5156Z" fill="#858585"/>
<path d="M30.3869 13.3228V13.4195H30.9676L30.3869 13.3228Z" fill="#858585"/>
<path d="M30.9678 13.3228V13.4195H31.3549L30.9678 13.3228Z" fill="#858585"/>
<path d="M31.3545 13.3228V13.4195H31.8384L31.3545 13.3228Z" fill="#858585"/>
<path d="M26.6123 13.4194V13.613H26.8059L26.6123 13.4194Z" fill="#858585"/>
<path d="M27.1934 14.1936V14.2904C27.7162 14.3443 28.0288 14.5624 28.3546 14.9678L29.7685 14.4546L31.0643 13.5162C29.9355 13.0425 28.2817 13.8965 27.1934 14.1936Z" fill="white"/>
<path d="M31.0645 13.4194V13.5162H31.3548L31.0645 13.4194Z" fill="#858585"/>
<path d="M31.3545 13.4194V13.5162L33.9674 14.9678L35.0319 14.2904C34.1237 13.5573 32.4826 13.4225 31.3545 13.4194Z" fill="white"/>
<path d="M32.1289 13.4194V13.5162H32.4192L32.1289 13.4194Z" fill="#858585"/>
<path d="M25.8389 13.5161V13.8064H25.9356L25.8389 13.5161Z" fill="#858585"/>
<path d="M35.9034 13.6128L35.8066 13.8063H36.0002L35.9034 13.6128Z" fill="#858585"/>
<path d="M36.6777 13.6128V13.9031H36.7745L36.6777 13.6128Z" fill="#858585"/>
<path d="M36.6782 13.9033V17.8711C36.6782 18.5394 36.5186 19.1984 37.3556 19.2259V19.1291H36.775V15.6453L36.6782 13.9033Z" fill="#858585"/>
<path d="M8.32227 14.0967V14.1935H8.99968L8.32227 14.0967Z" fill="#858585"/>
<path d="M9.96777 14.0967V14.1935H10.6452L9.96777 14.0967ZM11.5162 14.0967V14.1935H12.2904L11.5162 14.0967Z" fill="#858585"/>
<path d="M30.6778 16.9032H31.8391C31.8391 16.2717 32.0038 15.3683 31.7673 14.776C31.6284 14.4284 31.2347 14.1933 30.9021 14.4594C30.4135 14.8503 30.6778 16.3306 30.6778 16.9032Z" fill="white"/>
<path d="M25.7422 14.3872V14.8711H25.839L25.7422 14.3872Z" fill="#858585"/>
<path d="M6.09668 14.8712V14.968H6.7741L6.09668 14.8712ZM7.54829 14.8712V14.968H13.258L11.4193 14.8712H7.54829ZM25.7418 14.8712V15.3551H25.8386L25.7418 14.8712Z" fill="#858585"/>
<path d="M30.5811 14.8706V15.2577H30.6779L30.5811 14.8706Z" fill="#858585"/>
<path d="M26.6123 19.1294C27.9804 19.1131 28.2122 16.4425 27.6595 15.4625C27.0156 14.3207 26.6123 15.9099 26.6123 16.4197V17.4842V19.1294Z" fill="white"/>
<path d="M35.9032 19.1292V17.484V16.3227C35.9029 15.7526 35.412 14.463 34.7169 15.3772C34.452 15.7257 34.5483 16.2999 34.5483 16.7098C34.5483 17.7935 34.4942 19.1242 35.9032 19.1292Z" fill="white"/>
<path d="M29.6133 15.2583V15.3551L29.8068 17.1938H29.9036V15.2583H29.6133Z" fill="#858585"/>
<path d="M30.5803 15.2583C30.5803 15.7033 30.3576 16.8903 30.8707 17.0002V16.9035L30.5803 15.2583Z" fill="#858585"/>
<path d="M31.8389 15.2583V17.0002H31.9356L31.8389 15.2583Z" fill="#858585"/>
<path d="M25.7422 15.355V19.2259H25.839V15.7421H26.3228V15.6453L25.7422 15.355Z" fill="#858585"/>
<path d="M28.548 17.6776C29.8481 17.1362 29.806 16.6768 29.806 15.355C28.3816 15.5685 28.548 16.4974 28.548 17.6776Z" fill="white"/>
<path d="M32.6133 15.355V17.0969H32.7101L32.6133 15.355Z" fill="#858585"/>
<path d="M32.71 15.355V17.1937L33.7745 17.5808C33.7745 16.4495 33.9215 15.7682 32.71 15.355Z" fill="white"/>
<path d="M26.5156 15.5484V19.1291H26.6124C26.6124 18.0985 26.9135 16.4966 26.5156 15.5484Z" fill="#858585"/>
<path d="M35.9038 15.5483V15.6451L36.678 15.7419V15.6451L35.9038 15.5483Z" fill="#858585"/>
<path d="M6.09668 15.6455V15.7423H6.7741L6.09668 15.6455Z" fill="#858585"/>
<path d="M7.45215 15.6455V18.452H7.54892L7.45215 15.6455Z" fill="#858585"/>
<path d="M7.54883 15.6455V15.7423H13.2585L11.4198 15.6455H7.54883Z" fill="#858585"/>
<path d="M13.2578 15.6455V18.452H13.3546L13.2578 15.6455Z" fill="#858585"/>
<path d="M35.9028 15.6455V19.1294H35.2253V19.2262L35.9 19.071L35.9995 18.1616L35.9028 15.6455Z" fill="#858585"/>
<path d="M6.67732 15.7417V18.3546H6.09668V18.4514C7.06811 18.4194 6.97912 16.4609 6.67732 15.7417Z" fill="#858585"/>
<path d="M7.54883 15.7417V18.3546H13.2585V15.7417H7.54883Z" fill="white"/>
<path d="M30.8711 16.9033V17.0001H31.5485L30.8711 16.9033Z" fill="#858585"/>
<path d="M31.5477 16.9033V17.0001H31.838L31.5477 16.9033Z" fill="#858585"/>
<path d="M30.6777 17.6772V17.774H30.9681L30.6777 17.6772Z" fill="#858585"/>
<path d="M30.9678 17.6772V17.774H31.4516L30.9678 17.6772Z" fill="#858585"/>
<path d="M31.4524 17.6772V17.774H31.7427L31.4524 17.6772Z" fill="#858585"/>
<path d="M27.5801 20.7741C28.2172 20.5097 28.7533 20.076 29.4188 19.8566C31.4916 19.1735 33 19.9048 34.8381 20.7741C34.2878 16.6905 28.3275 16.9333 27.5801 20.7741Z" fill="white"/>
<path d="M7.54883 18.3545V18.4513H13.2585L11.4198 18.3545H7.54883Z" fill="#858585"/>
<path d="M6.09668 19.129V19.2258H6.7741L6.09668 19.129ZM7.45152 21.7419H7.54829V19.2258H13.258V27.0645H7.54829V22.5161C7.16045 23.4404 7.45152 24.9962 7.45152 26C7.45152 26.2884 7.3477 26.8567 7.60669 27.0618C7.87584 27.275 8.48428 27.1613 8.80636 27.1613H11.9999C12.3358 27.1613 13.1143 27.3071 13.2964 26.9369C13.509 26.5047 13.3547 25.7001 13.3547 25.2258V21.0645C13.3547 20.6546 13.5527 19.5082 13.1996 19.2285C12.9304 19.0153 12.322 19.129 11.9999 19.129H8.80636C8.4855 19.129 7.77742 18.9983 7.55098 19.2841C7.19052 19.7393 7.45152 21.1722 7.45152 21.7419Z" fill="#858585"/>
<path d="M24.8701 19.1294V19.2262H25.7411L24.8701 19.1294ZM26.5153 19.1294V19.2262H27.1927L26.5153 19.1294Z" fill="#858585"/>
<path d="M6.67676 19.2262V21.7423H6.77353L6.67676 19.2262Z" fill="#858585"/>
<path d="M7.54883 19.2256V21.7417H13.2585V19.2256H7.54883Z" fill="white"/>
<path d="M24.7744 19.2256V20.6772H24.8712L24.7744 19.2256Z" fill="#858585"/>
<path d="M37.3549 19.2256V20.6772H37.4516L37.3549 19.2256Z" fill="#858585"/>
<path d="M15.5811 19.5161V19.6129H16.2585L15.5811 19.5161Z" fill="#858585"/>
<path d="M23.71 19.5161V19.6129H24.3874V20.4839C24.6584 19.8377 24.3471 19.5237 23.71 19.5161Z" fill="#858585"/>
<path d="M30.8711 19.5161V19.6129H31.5485L30.8711 19.5161Z" fill="#858585"/>
<path d="M37.7425 19.5161V19.6129H38.4199L37.7425 19.5161Z" fill="#858585"/>
<path d="M45.7744 19.5161V19.6129H46.4518L45.7744 19.5161Z" fill="#858585"/>
<path d="M15.4844 19.6128V20.4838H15.5811L15.4844 19.6128Z" fill="#858585"/>
<path d="M16.2578 19.6128V20.4838H16.3546L16.2578 19.6128Z" fill="#858585"/>
<path d="M23.6133 19.6128V20.4838H23.7101L23.6133 19.6128Z" fill="#858585"/>
<path d="M37.6455 19.6128V20.4838H37.7423L37.6455 19.6128Z" fill="#858585"/>
<path d="M38.4189 19.6128V20.4838H38.5157L38.4189 19.6128Z" fill="#858585"/>
<path d="M45.6777 19.6128V20.4838H45.7745L45.6777 19.6128Z" fill="#858585"/>
<path d="M46.4512 19.6128V20.4838H46.5479L46.4512 19.6128Z" fill="#858585"/>
<path d="M25.5482 37.0325H25.645V20.0002H26.903C24.9109 19.1643 25.5482 22.5557 25.5482 23.6777V37.0325Z" fill="#858585"/>
<path d="M35.5159 19.9033V20.0001H36.6772L35.5159 19.9033Z" fill="#858585"/>
<path d="M25.6455 20V36.9355H36.581V20H35.5165L35.71 21.2581H36.2907V22.129H35.71V30.4516C36.4699 30.6823 36.1939 31.9359 36.1939 32.5806H26.1294V30.4516H26.71V22.129C25.9192 22.0687 25.9192 21.3184 26.71 21.2581L26.9036 20H25.6455Z" fill="white"/>
<path d="M36.5808 20V21.7419H36.6776L36.5808 20Z" fill="#858585"/>
<path d="M30.8706 20.29V20.3868H31.548L30.8706 20.29Z" fill="#858585"/>
<path d="M27.5806 26.0003H34.8387C34.8387 24.917 35.2275 22.9009 34.7112 21.9395C33.5245 19.73 28.994 19.9525 27.7358 21.9358C27.1742 22.8211 27.5806 24.9626 27.5806 26.0003Z" fill="white"/>
<path d="M26.71 20.6772V21.2579H26.8067L26.71 20.6772Z" fill="#858585"/>
<path d="M35.6131 20.7744C35.646 21.1968 35.7713 21.3222 36.1937 21.3551V21.2583H35.7098L35.6131 20.7744Z" fill="#858585"/>
<path d="M29.7095 22.2259C27.5712 21.887 27.8708 24.4451 27.8708 25.8065H34.5482C34.5482 24.896 34.7831 23.6085 34.2584 22.8107C33.913 22.2855 33.3827 22.3815 32.9408 22.0461C32.6216 21.8039 32.4957 21.4231 32.1274 21.2153C31.1075 20.64 30.1182 21.2517 29.7095 22.2259Z" fill="#858585"/>
<path d="M45.9678 21.1611V21.2579H46.2581L45.9678 21.1611Z" fill="#858585"/>
<path d="M15.7762 21.3403C14.9837 21.5672 15.429 22.3947 16.1562 22.1949C16.7917 22.0202 16.2995 21.1905 15.7762 21.3403Z" fill="white"/>
<path d="M23.9074 21.3403C23.1294 21.5677 23.5576 22.3948 24.2849 22.1949C24.919 22.0206 24.429 21.1879 23.9074 21.3403Z" fill="white"/>
<path d="M26.1289 21.2583V21.3551H26.8063L26.1289 21.2583Z" fill="#858585"/>
<path d="M37.9445 21.3404C37.125 21.5837 37.7028 22.4023 38.405 22.195C39.009 22.0167 38.4425 21.1925 37.9445 21.3404Z" fill="white"/>
<path d="M45.8767 21.3579C45.1384 21.7507 45.964 22.5009 46.5172 22.1263C47.0387 21.7732 46.3653 21.0981 45.8767 21.3579Z" fill="white"/>
<path d="M19.4512 21.3545V21.4513H19.7415L19.4512 21.3545Z" fill="#858585"/>
<path d="M19.7422 21.3545V21.4513H20.2261L19.7422 21.3545Z" fill="#858585"/>
<path d="M20.2256 21.3545V21.4513H20.5159L20.2256 21.3545Z" fill="#858585"/>
<path d="M26.0322 21.3545V22.0319H26.129L26.0322 21.3545Z" fill="#858585"/>
<path d="M36.1934 21.3545V22.0319H36.2901L36.1934 21.3545Z" fill="#858585"/>
<path d="M41.6123 21.3545V21.4513H41.9026L41.6123 21.3545Z" fill="#858585"/>
<path d="M41.9033 21.3545V21.4513H42.3872L41.9033 21.3545Z" fill="#858585"/>
<path d="M42.3867 21.3545V21.4513H42.677L42.3867 21.3545Z" fill="#858585"/>
<path d="M14.4199 21.645V22.1289H14.5167L14.4199 21.645Z" fill="#858585"/>
<path d="M44.6122 21.645V21.9353H44.709L44.6122 21.645Z" fill="#858585"/>
<path d="M47.5156 21.645V22.0321H47.6124L47.5156 21.645Z" fill="#858585"/>
<path d="M17.3223 21.7422V22.0325H17.419L17.3223 21.7422Z" fill="#858585"/>
<path d="M22.5488 21.7422V22.0325H22.6456L22.5488 21.7422Z" fill="#858585"/>
<path d="M30.4839 25.0327H32.129C32.129 24.244 32.3503 23.0624 32.0572 22.3248C31.8187 21.7244 31.0222 21.6152 30.639 22.1423C30.1929 22.7562 30.4839 24.2941 30.4839 25.0327Z" fill="white"/>
<path d="M36.5801 21.9355V25.7097H36.6769C36.6769 24.6286 36.9973 22.9298 36.5801 21.9355Z" fill="#858585"/>
<path d="M26.1294 22.0322V22.129H26.8069L26.1294 22.0322Z" fill="#858585"/>
<path d="M35.709 22.0322V22.129H36.1929L35.709 22.0322Z" fill="#858585"/>
<path d="M19.5479 22.1289V22.2257H19.8382L19.5479 22.1289Z" fill="#858585"/>
<path d="M19.8389 22.1289V22.2257H20.226L19.8389 22.1289Z" fill="#858585"/>
<path d="M26.7092 22.1289V30.4515H26.806V24.7418L26.7092 22.1289Z" fill="#858585"/>
<path d="M27.4844 22.1289V25.9999H27.5811C27.5811 24.8934 27.9112 23.1462 27.4844 22.1289Z" fill="#858585"/>
<path d="M34.8389 22.1289V25.9999H34.9356C34.9356 24.8934 35.2657 23.1462 34.8389 22.1289ZM35.6131 22.1289V28.516C35.6131 29.12 35.3268 30.4197 36.0969 30.5483V30.4515H35.7098V24.7418L35.6131 22.1289Z" fill="#858585"/>
<path d="M41.9033 22.1289V22.2257H42.3872L41.9033 22.1289Z" fill="#858585"/>
<path d="M15.4844 22.2256V22.3224H16.2586L15.4844 22.2256Z" fill="#858585"/>
<path d="M17.3223 24.4519H17.419C18.8268 22.4536 20.716 22.8794 22.4513 24.0648C21.6997 21.4606 17.5692 21.6412 17.3223 24.4519Z" fill="white"/>
<path d="M23.6133 22.2256V22.3224H24.3875L23.6133 22.2256Z" fill="#858585"/>
<path d="M37.7422 22.2256V22.3224H38.5164L37.7422 22.2256Z" fill="#858585"/>
<path d="M39.6777 24.1616H39.7745C41.0744 22.3968 43.5423 22.7943 44.71 24.4519C45.0454 23.5063 43.8663 22.533 43.0648 22.3158C41.5493 21.9053 40.0519 22.5871 39.6777 24.1616Z" fill="white"/>
<path d="M32.1287 22.4189V22.7093H32.2254L32.1287 22.4189Z" fill="#858585"/>
<path d="M6.67676 22.5161V27.1613H6.77353C6.77353 25.8523 7.18088 23.7175 6.67676 22.5161Z" fill="#858585"/>
<path d="M7.54883 22.5161V27.0645H13.2585V22.5161H7.54883Z" fill="white"/>
<path d="M17.0322 22.6129V22.8064L17.2258 22.6129H17.0322Z" fill="#858585"/>
<path d="M30.3867 22.7095V25.0321H30.4835L30.3867 22.7095Z" fill="#858585"/>
<path d="M32.1289 22.7095V23.1933H32.2257L32.1289 22.7095Z" fill="#858585"/>
<path d="M28.6446 25.0324H29.6124C29.6124 24.5973 29.8223 23.4097 29.5129 23.081C29.3017 22.8567 28.945 23.1191 28.8132 23.3034C28.5001 23.7414 28.6446 24.5214 28.6446 25.0324Z" fill="white"/>
<path d="M32.9033 22.9033V25.0324H33.0001L32.9033 22.9033Z" fill="#858585"/>
<path d="M33 22.9033V25.0324H33.7742C33.7742 24.1671 33.9521 23.2804 33 22.9033Z" fill="white"/>
<path d="M15.4844 23V23.0968H16.3553L15.4844 23Z" fill="#858585"/>
<path d="M23.6129 23V23.0968H24.4839L23.6129 23Z" fill="#858585"/>
<path d="M29.613 23V25.0323H29.7097L29.613 23Z" fill="#858585"/>
<path d="M37.6448 23V23.0968H38.5158L37.6448 23Z" fill="#858585"/>
<path d="M45.6776 23V24.7419H45.7744L45.6776 23Z" fill="#858585"/>
<path d="M45.7747 23V25.6129H46.5489V23H45.7747ZM15.4844 23.0968V25.6129H16.2586V23.0968H15.4844Z" fill="white"/>
<path d="M16.2578 23.0967V25.6128H16.3546L16.2578 23.0967Z" fill="#858585"/>
<path d="M23.6133 23.0967V25.6128H24.3875V23.0967H23.6133Z" fill="white"/>
<path d="M24.3867 23.0967V25.6128H24.4835L24.3867 23.0967ZM37.6448 23.0967V25.6128H37.7416L37.6448 23.0967Z" fill="#858585"/>
<path d="M37.7422 23.0967V25.6128H38.5164V23.0967H37.7422Z" fill="white"/>
<path d="M32.129 23.1938V25.0326H32.2257L32.129 23.1938Z" fill="#858585"/>
<path d="M33.7739 23.4839V25.0323H33.8707L33.7739 23.4839Z" fill="#858585"/>
<path d="M34.5488 23.4839V25.0323H34.6456L34.5488 23.4839Z" fill="#858585"/>
<path d="M27.7743 23.5806V25.0322H27.8711L27.7743 23.5806Z" fill="#858585"/>
<path d="M28.548 23.6777V25.0326H28.6448L28.548 23.6777Z" fill="#858585"/>
<path d="M15.4844 26.4841L15.6779 32.6777L19.936 32.3874L24.6779 32.6777V26.4841H22.2586C22.2573 24.5445 20.24 22.8243 18.4934 24.3869C17.9327 24.8887 18.0634 26.0638 17.5826 26.3846C17.1199 26.6934 16.0274 26.4841 15.4844 26.4841Z" fill="white"/>
<path d="M39.8705 26.4841H37.4512V32.6776L42.1931 32.3874L46.6447 32.6776V26.4841H44.4189C44.4067 25.8929 44.3193 25.2373 43.969 24.7425C42.4595 22.6104 39.8764 24.3541 39.8705 26.4841Z" fill="white"/>
<path d="M19.8389 24.5483V24.6451H20.226L19.8389 24.5483ZM41.9034 24.5483V24.6451H42.2905L41.9034 24.5483Z" fill="#858585"/>
<path d="M18.1938 28.3226H21.7745C21.7745 27.6502 21.9218 26.7784 21.7019 26.1378C21.2706 24.8823 19.6495 23.9579 18.6905 25.3316C18.0534 26.2445 18.1938 27.2656 18.1938 28.3226Z" fill="#858585"/>
<path d="M40.3553 28.3227H43.9359C43.9359 27.2737 44.0756 26.2433 43.4526 25.3317C42.5045 23.9446 40.8573 24.8925 40.4278 26.1379C40.2072 26.7777 40.3553 27.6509 40.3553 28.3227Z" fill="#858585"/>
<path d="M45.6774 24.7422V25.2261H45.7742L45.6774 24.7422Z" fill="#858585"/>
<path d="M27.7744 25.0322V25.8064H27.8712L27.7744 25.0322ZM34.5486 25.0322V25.8064H34.6454L34.5486 25.0322Z" fill="#858585"/>
<path d="M45.6776 25.2256V25.6127H45.7744L45.6776 25.2256Z" fill="#858585"/>
<path d="M19.8389 25.3228V25.4195H20.1292L19.8389 25.3228ZM42.0002 25.3228V25.4195H42.2905L42.0002 25.3228Z" fill="#858585"/>
<path d="M18.9678 27.5485H21C21 26.9634 21.0409 26.2333 20.6383 25.7479C19.5227 24.4026 18.9678 26.848 18.9678 27.5485Z" fill="white"/>
<path d="M41.129 27.5487H43.1613C43.1613 26.9416 43.1859 26.3325 42.8009 25.8169C42.1469 24.9411 41.3573 25.7723 41.1731 26.5118C41.0907 26.843 41.129 27.2099 41.129 27.5487Z" fill="white"/>
<path d="M14.2256 25.6128V25.7096H14.7095L14.2256 25.6128Z" fill="#858585"/>
<path d="M15.4844 25.6133V25.7101H16.2586L15.4844 25.6133Z" fill="#858585"/>
<path d="M23.6133 25.6133V25.7101H24.3875L23.6133 25.6133ZM37.7423 25.6133V25.7101H38.5165L37.7423 25.6133Z" fill="#858585"/>
<path d="M47.4199 25.6133V25.7101H47.9038L47.4199 25.6133Z" fill="#858585"/>
<path d="M14.1289 25.7095V26.3869H14.2257L14.1289 25.7095Z" fill="#858585"/>
<path d="M17.71 25.7095V26.3869H17.8067L17.71 25.7095Z" fill="#858585"/>
<path d="M36.5811 25.7095V37.0321H36.6778V29.0966L36.5811 25.7095Z" fill="#858585"/>
<path d="M47.9028 25.7095V26.3869H47.9996L47.9028 25.7095Z" fill="#858585"/>
<path d="M22.2578 25.8066V26.3873H22.3546L22.2578 25.8066Z" fill="#858585"/>
<path d="M39.7744 25.9033V26.3872H39.8712L39.7744 25.9033Z" fill="#858585"/>
<path d="M21.5811 26V26.0968C21.98 26.6233 21.7746 27.6793 21.7746 28.3226H21.8714C21.8714 27.7195 22.1319 26.3571 21.5811 26Z" fill="#858585"/>
<path d="M27.5801 26V26.0968H34.9349L32.6123 26H27.5801Z" fill="#858585"/>
<path d="M18.0967 26.0967V28.3225H18.1935L18.0967 26.0967Z" fill="#858585"/>
<path d="M19.0645 26.0967V26.387H19.1612L19.0645 26.0967ZM40.258 26.0967V28.3225H40.3548L40.258 26.0967Z" fill="#858585"/>
<path d="M41.2256 26.0967V26.387H41.3224L41.2256 26.0967Z" fill="#858585"/>
<path d="M42.9678 26.0967V26.387H43.0645L42.9678 26.0967Z" fill="#858585"/>
<path d="M43.9355 26.0967V28.3225H44.0323L43.9355 26.0967Z" fill="#858585"/>
<path d="M14.2256 26.3872V26.484H14.7095L14.2256 26.3872Z" fill="#858585"/>
<path d="M15.4844 26.3872V26.484H17.1295L15.4844 26.3872Z" fill="#858585"/>
<path d="M17.1289 26.3872V26.484H17.7096L17.1289 26.3872ZM18.8708 26.3872V27.5485H18.9676L18.8708 26.3872Z" fill="#858585"/>
<path d="M21 26.3872V27.5485H21.0968L21 26.3872Z" fill="#858585"/>
<path d="M22.3545 26.3872V26.484H22.7416L22.3545 26.3872Z" fill="#858585"/>
<path d="M22.7412 26.3872V26.484H24.6767L22.7412 26.3872ZM37.4509 26.3872V26.484H39.3864L37.4509 26.3872Z" fill="#858585"/>
<path d="M39.3877 26.3872V26.484H39.7748L39.3877 26.3872Z" fill="#858585"/>
<path d="M41.0325 26.3872V27.5485H41.1293L41.0325 26.3872Z" fill="#858585"/>
<path d="M43.1621 26.3872V27.5485H43.2589L43.1621 26.3872ZM44.4202 26.3872V26.484H45.0976L44.4202 26.3872Z" fill="#858585"/>
<path d="M45.0967 26.3872V26.484H46.6451L45.0967 26.3872Z" fill="#858585"/>
<path d="M47.4199 26.3872V26.484H47.9038L47.4199 26.3872Z" fill="#858585"/>
<path d="M14.1289 26.4839V27.1613H14.7096V26.4839H14.1289Z" fill="white"/>
<path d="M24.6777 26.4839V32.7742H24.7745V28.5161L24.6777 26.4839ZM46.6455 26.4839V32.7742H46.7422V28.5161L46.6455 26.4839Z" fill="#858585"/>
<path d="M47.4199 26.4839V45.6452H47.5167V32.1936V28.3226L47.4199 26.4839Z" fill="#858585"/>
<path d="M27.4844 26.7739V30.5481H27.5811C27.5811 29.467 27.9016 27.7682 27.4844 26.7739Z" fill="#858585"/>
<path d="M27.5801 26.7739V26.8707H34.8381L32.6123 26.7739H27.5801Z" fill="#858585"/>
<path d="M34.8381 26.7739V30.4513H27.5801V30.5481H32.8059L34.7798 30.4486L34.9349 29.5804L34.8381 26.7739Z" fill="#858585"/>
<path d="M27.5801 26.8711V30.4517H34.8381V26.8711H27.5801Z" fill="#FFDD2C"/>
<path d="M3 27.1611V45.645H3.09677V32.6773V28.9031L3 27.1611Z" fill="#858585"/>
<path d="M3.09668 27.1612V27.258H6.7741C5.80287 26.8505 4.15254 27.1612 3.09668 27.1612ZM14.0322 27.1612V27.258H14.7096L14.0322 27.1612ZM15.4838 27.1612C15.8944 28.886 15.5806 31.0021 15.5806 32.7741H15.6773V28.8064L15.4838 27.1612Z" fill="#858585"/>
<path d="M3.77441 27.9355V32.3872H3.87119C3.87119 31.1288 4.25923 29.0909 3.77441 27.9355Z" fill="#858585"/>
<path d="M3.87012 27.9355V28.0323H14.7088L11.4185 27.9355H3.87012Z" fill="#858585"/>
<path d="M3.87012 28.0322V32.3871H14.7088V28.0322H3.87012Z" fill="white"/>
<path d="M17.6133 29.3871V29.4838H22.452V30.258C22.5557 30.0102 22.628 29.5948 22.3244 29.4454C21.9563 29.2643 21.3057 29.3871 20.9036 29.3871H17.6133ZM39.6778 29.3871V29.4838H44.5165C43.2691 28.9604 41.0374 29.3871 39.6778 29.3871Z" fill="#858585"/>
<path d="M17.6133 29.4839L17.8376 30.1997L19.2584 30.2581H22.452V30.1613H17.7101L17.6133 29.4839Z" fill="#858585"/>
<path d="M17.71 29.4839V30.1613H22.4519V29.4839H17.71ZM39.6777 29.4839V30.1613H44.5164V29.4839H39.6777Z" fill="#858585"/>
<path d="M39.6777 30.161V30.2578H44.5164C43.269 29.7343 41.0373 30.161 39.6777 30.161Z" fill="#858585"/>
<path d="M26.2256 30.4517V30.5484H26.8062L26.2256 30.4517Z" fill="#858585"/>
<path d="M26.1289 30.5484L26.284 32.4812L28.9354 32.5807H36.0966V32.4839H26.2257L26.1289 30.5484Z" fill="#858585"/>
<path d="M36.0967 30.5483V32.5806H36.1935L36.0967 30.5483Z" fill="#858585"/>
<path d="M16.4512 30.8384V30.9352H17.1286L16.4512 30.8384Z" fill="#858585"/>
<path d="M18.5801 30.8384V30.9352H19.3543L18.5801 30.8384Z" fill="#858585"/>
<path d="M20.8066 30.8384V30.9352H21.4841L20.8066 30.8384Z" fill="#858585"/>
<path d="M22.9939 30.9382C22.563 31.2757 22.9762 32.3536 23.5546 31.9003C23.9854 31.5628 23.5723 30.4849 22.9939 30.9382Z" fill="#858585"/>
<path d="M38.574 30.9382C38.1431 31.2757 38.5563 32.3536 39.1347 31.9003C39.5655 31.5628 39.1524 30.4849 38.574 30.9382Z" fill="#858585"/>
<path d="M40.6445 30.8384V30.9352H41.322L40.6445 30.8384Z" fill="#858585"/>
<path d="M42.7744 30.8384V30.9352H43.5486L42.7744 30.8384Z" fill="#858585"/>
<path d="M45 30.8384V30.9352H45.6774L45 30.8384Z" fill="#858585"/>
<path d="M16.3545 30.9355V31.9033H16.4513L16.3545 30.9355Z" fill="#858585"/>
<path d="M16.4512 30.9355V31.9033H17.1286V30.9355H16.4512Z" fill="#858585"/>
<path d="M17.1289 30.9355V31.9033H17.2257L17.1289 30.9355Z" fill="#858585"/>
<path d="M18.5801 30.9355V31.9033H19.3543V30.9355H18.5801Z" fill="#858585"/>
<path d="M20.71 30.9355V31.9033H20.8067L20.71 30.9355Z" fill="#858585"/>
<path d="M20.8066 30.9355V31.9033H21.4841V30.9355H20.8066Z" fill="#858585"/>
<path d="M21.4844 30.9355V31.9033H21.5811L21.4844 30.9355Z" fill="#858585"/>
<path d="M22.9355 30.9355V31.9033H23.613V30.9355H22.9355ZM38.5162 30.9355V31.9033H39.1936V30.9355H38.5162Z" fill="#858585"/>
<path d="M40.5479 30.9355V31.9033H40.6446L40.5479 30.9355Z" fill="#858585"/>
<path d="M40.6445 30.9355V31.9033H41.322V30.9355H40.6445Z" fill="#858585"/>
<path d="M41.3223 30.9355V31.9033H41.419L41.3223 30.9355Z" fill="#858585"/>
<path d="M42.7744 30.9355V31.9033H43.5486V30.9355H42.7744Z" fill="#858585"/>
<path d="M44.9033 30.9355V31.9033H45.0001L44.9033 30.9355Z" fill="#858585"/>
<path d="M45 30.9355V31.9033H45.6774V30.9355H45Z" fill="#858585"/>
<path d="M45.6777 30.9355V31.9033H45.7745L45.6777 30.9355Z" fill="#858585"/>
<path d="M26.9033 31.2261V31.3228H35.3227L32.7098 31.2261H26.9033Z" fill="#858585"/>
<path d="M35.3223 31.2261V31.8067H35.419L35.3223 31.2261Z" fill="#858585"/>
<path d="M26.9033 31.3223C27.0318 32.0924 28.3316 31.8061 28.9356 31.8061H35.3227V31.7094H27.0001L26.9033 31.3223Z" fill="#858585"/>
<path d="M27 31.3223V31.7094H35.3226V31.3223H27Z" fill="white"/>
<path d="M16.4512 31.903V31.9998H17.1286L16.4512 31.903Z" fill="#858585"/>
<path d="M18.5801 31.9033V32.0001H19.3543L18.5801 31.9033Z" fill="#858585"/>
<path d="M20.8066 31.9033V32.0001H21.4841L20.8066 31.9033Z" fill="#858585"/>
<path d="M40.6445 31.9033V32.0001H41.322L40.6445 31.9033Z" fill="#858585"/>
<path d="M42.7744 31.9033V32.0001H43.5486L42.7744 31.9033Z" fill="#858585"/>
<path d="M45 31.9033V32.0001H45.6774L45 31.9033Z" fill="#858585"/>
<path d="M15.6777 32.6773V32.7741H18.3874L15.6777 32.6773Z" fill="#858585"/>
<path d="M21.5811 32.6772V32.774H24.6778L21.5811 32.6772ZM37.452 32.6772V32.774H40.5488L37.452 32.6772Z" fill="#858585"/>
<path d="M43.7412 32.6772V32.774H46.6444L43.7412 32.6772Z" fill="#858585"/>
<path d="M3.77441 33.1616V34.2261H3.87119L3.77441 33.1616Z" fill="#858585"/>
<path d="M3.87012 33.1616V34.1294H14.7088V33.1616H3.87012Z" fill="white"/>
<path d="M17.8066 34.8065H17.9034C18.7781 32.9837 21.1885 33.2765 22.1615 34.8065C22.3529 34.1505 21.6357 33.6176 21.097 33.4012C19.9064 32.9229 17.8921 33.2449 17.8066 34.8065Z" fill="white"/>
<path d="M39.8711 34.8064H39.9679C40.7248 33.699 42.0886 33.1231 43.3546 33.8295C43.8031 34.0798 44.0072 34.5422 44.4195 34.8064C43.8338 32.8062 40.2375 32.4901 39.8711 34.8064Z" fill="white"/>
<path d="M15.5811 33.4518V38.1937H15.6778C15.6778 36.8594 16.0948 34.6761 15.5811 33.4518Z" fill="#858585"/>
<path d="M15.6777 33.4517V33.5484H17.4197L15.6777 33.4517Z" fill="#858585"/>
<path d="M22.6455 33.4517V33.5484H24.6778L22.6455 33.4517Z" fill="#858585"/>
<path d="M24.6777 33.4517V38.1936H24.7745C24.7745 36.8593 25.1915 34.676 24.6777 33.4517Z" fill="#858585"/>
<path d="M37.4512 33.4517V33.5484H39.5802L37.4512 33.4517Z" fill="#858585"/>
<path d="M44.7092 33.4517V33.5484H46.6447L44.7092 33.4517Z" fill="#858585"/>
<path d="M46.6455 33.4517V38.1936H46.7423C46.7423 36.8593 47.1593 34.676 46.6455 33.4517Z" fill="#858585"/>
<path d="M15.6777 33.5483V38.0967H17.5164V35.5806H16.3552V34.8064H16.9358L17.3229 33.5483H15.6777Z" fill="white"/>
<path d="M22.7423 33.5483L23.1294 34.8064H23.71V35.5806H22.6455V38.0967H24.6778V33.5483H22.7423ZM37.452 33.5483V38.0967H39.4842V35.5806H38.4197V34.8064C39.1623 34.7817 39.189 34.1262 39.4842 33.5483H37.452Z" fill="white"/>
<path d="M44.8068 33.5483L45.1939 34.8064H45.7746V35.5806H44.6133V38.0967H46.6455V33.5483H44.8068Z" fill="white"/>
<path d="M3.87012 34.129V34.2258H14.7088L11.4185 34.129H3.87012Z" fill="#858585"/>
<path d="M18.677 35.5807H18.3867V38.9678H21.8706V35.5807H21.3867C21.3016 33.943 18.6966 33.9277 18.677 35.5807Z" fill="white"/>
<path d="M40.7417 35.5804H40.2578L40.3546 38.9675H43.7417V35.5804H43.4514C43.4316 33.9077 40.831 33.949 40.7417 35.5804Z" fill="white"/>
<path d="M16.9355 34.5161V34.8064H17.0323L16.9355 34.5161Z" fill="#858585"/>
<path d="M23.0322 34.5161V34.8064H23.129L23.0322 34.5161Z" fill="#858585"/>
<path d="M16.3545 34.8062V35.5803H16.4513L16.3545 34.8062Z" fill="#858585"/>
<path d="M3.77441 34.9033V38.1936H3.87119L3.77441 34.9033Z" fill="#858585"/>
<path d="M3.87012 34.9033V35.0001H14.7088L11.4185 34.9033H3.87012Z" fill="#858585"/>
<path d="M3.87012 35V38.0968H14.7088V35H3.87012Z" fill="white"/>
<path d="M18.5801 35V35.5806H18.6769L18.5801 35Z" fill="#858585"/>
<path d="M43.4512 35.0967V35.5806H43.5479L43.4512 35.0967Z" fill="#858585"/>
<path d="M17.5156 35.5811V38.194H17.6124L17.5156 35.5811Z" fill="#858585"/>
<path d="M18.291 35.5811V38.194H18.3878L18.291 35.5811ZM43.7426 35.5811V38.194H43.8394L43.7426 35.5811Z" fill="#858585"/>
<path d="M44.5156 35.5811V38.194H44.6124L44.5156 35.5811Z" fill="#858585"/>
<path d="M4.35449 37.323H4.45127V36.2585H5.22546C4.35644 35.8947 4.35449 36.691 4.35449 37.323ZM7.25772 37.323H7.35449V36.2585H8.12869C7.25966 35.8947 7.25772 36.691 7.25772 37.323ZM10.1609 37.323H10.2577V36.2585H11.0319C10.1629 35.8947 10.1609 36.691 10.1609 37.323ZM13.0642 37.323H13.1609V36.2585H13.9351C13.0661 35.8947 13.0642 36.691 13.0642 37.323Z" fill="#858585"/>
<path d="M4.45117 36.2578V37.3223H5.12859V36.2578H4.45117Z" fill="#858585"/>
<path d="M5.12891 36.2578V37.3223H5.22568L5.12891 36.2578Z" fill="#858585"/>
<path d="M7.35449 36.2578V37.3223H8.03191V36.2578H7.35449Z" fill="#858585"/>
<path d="M8.03223 36.2578V37.3223H8.129L8.03223 36.2578Z" fill="#858585"/>
<path d="M10.2588 36.2578V37.3223H10.9362V36.2578H10.2588Z" fill="#858585"/>
<path d="M10.9355 36.2578V37.3223H11.0323L10.9355 36.2578Z" fill="#858585"/>
<path d="M13.1611 36.2578V37.3223H13.8386V36.2578H13.1611Z" fill="#858585"/>
<path d="M13.8389 36.2578V37.3223H13.9356L13.8389 36.2578Z" fill="#858585"/>
<path d="M25.6455 36.9355V37.0323H36.581L33.2907 36.9355H25.6455Z" fill="#858585"/>
<path d="M25.5479 37.71V37.8067H36.6769L33.2898 37.71H25.5479Z" fill="#858585"/>
<path d="M25.5489 37.8062V43.2255C25.5489 43.7587 25.3438 44.743 25.8393 45.0642V44.9674L25.6457 43.032V39.5481L25.5489 37.8062Z" fill="#858585"/>
<path d="M25.6455 37.8062V44.9674H25.8391L25.8872 42.5645L26.5829 41.29L26.6132 38.6771H33.0003C33.6214 38.6771 34.9586 38.4248 35.4857 38.7766C35.8007 38.9868 35.71 39.5151 35.71 39.8384C35.7101 40.6409 35.526 42.007 36.4842 42.3545V44.9674H36.581V37.8062H25.6455Z" fill="white"/>
<path d="M36.5803 37.8062V42.9352L36.3867 44.9674V45.0642C36.8698 44.7511 36.677 43.8414 36.677 43.3223V39.5481C36.677 39.0043 36.7921 38.3109 36.5803 37.8062Z" fill="#858585"/>
<path d="M3.87012 38.0967V38.1935H14.7088L11.4185 38.0967H3.87012ZM15.6766 38.0967V38.1935H17.5153L15.6766 38.0967ZM22.6443 38.0967V38.1935H24.6766L22.6443 38.0967ZM37.4508 38.0967V38.1935H39.483L37.4508 38.0967ZM44.6121 38.0967V38.1935H46.6443L44.6121 38.0967Z" fill="#858585"/>
<path d="M18.291 38.1934V38.5805H18.3878L18.291 38.1934Z" fill="#858585"/>
<path d="M40.2578 38.1934V38.9676H40.3546L40.2578 38.1934Z" fill="#858585"/>
<path d="M43.7412 38.1934V38.5805H43.838L43.7412 38.1934Z" fill="#858585"/>
<path d="M18.291 38.5806V38.9677H18.3878L18.291 38.5806ZM43.7426 38.5806V38.9677H43.8394L43.7426 38.5806Z" fill="#858585"/>
<path d="M26.71 38.6772V38.774H35.6132L32.9035 38.6772H26.71Z" fill="#858585"/>
<path d="M26.6123 38.7744V41.4841H26.7091L26.6123 38.7744Z" fill="#858585"/>
<path d="M35.6133 38.7744V41.4841H35.7101L35.6133 38.7744Z" fill="#858585"/>
<path d="M3.77451 45.0645H3.87129V38.9677H14.71C13.994 38.6672 12.872 38.8709 12.0971 38.8709H6.38742C5.88038 38.8709 4.2076 38.6049 3.87398 39.0261C3.60232 39.3691 3.77451 40.2916 3.77451 40.7097V45.0645ZM15.581 45.0645H15.6777V38.9677H17.5164V39.7419C17.9427 38.7235 16.1078 38.4866 15.6804 39.0261C15.4088 39.3691 15.581 40.2916 15.581 40.7097V45.0645ZM22.6455 38.8709V38.9677H24.6777V45.0645C25.1815 43.8638 24.7745 41.7272 24.7745 40.4193C24.7745 40.0678 24.9293 39.2159 24.6194 38.9704C24.2328 38.6642 23.1236 38.8709 22.6455 38.8709ZM37.4519 38.8709V38.9677H39.4842V39.7419C39.9862 38.5427 38.1331 38.8709 37.4519 38.8709ZM44.5164 39.7419H44.6132V38.9677H46.6455V45.0645C47.1397 43.8868 46.7423 41.7987 46.7423 40.5161C46.7423 40.1359 46.8917 39.3403 46.6428 39.0261C46.4153 38.7389 44.9488 38.751 44.6716 38.9704C44.4618 39.1364 44.5173 39.5073 44.5164 39.7419Z" fill="#858585"/>
<path d="M3.87012 38.9678V44.9678H14.7088V38.9678H3.87012ZM15.6766 38.9678V44.9678H24.6766V38.9678H22.6443V39.8387H17.5153V38.9678H15.6766Z" fill="#FFDD2C"/>
<path d="M18.291 38.9676V39.0643H21.8717C20.9235 38.6665 19.3216 38.9676 18.291 38.9676Z" fill="#858585"/>
<path d="M37.4512 38.9678V44.9678H46.6447V38.9678H44.6125V39.8387H39.4834V38.9678H37.4512Z" fill="#FFDD2C"/>
<path d="M40.2578 38.9676V39.0643H43.8385C42.8903 38.6665 41.2884 38.9676 40.2578 38.9676Z" fill="#858585"/>
<path d="M27.3877 39.4517V39.5484H34.8393L32.5167 39.4517H27.3877Z" fill="#858585"/>
<path d="M34.8389 39.4517V41.2904H34.9356L34.8389 39.4517Z" fill="#858585"/>
<path d="M27.3877 39.5483L27.4845 41.2903H27.5812L27.3877 39.5483Z" fill="#858585"/>
<path d="M27.4844 39.5483L27.5839 41.1394L28.9433 42.4791L29.0328 44.9677H29.2263C29.2263 43.926 28.888 42.1606 29.3549 41.2211C30.199 39.5226 32.2721 39.2395 32.9474 41.3067C33.2843 42.3382 33.0005 43.8827 33.0005 44.9677H33.2908L33.3697 42.4791L34.7397 41.1259L34.8392 39.5483H27.4844Z" fill="white"/>
<path d="M17.5156 39.7417V39.8385H22.6447L20.9995 39.7417H17.5156Z" fill="#858585"/>
<path d="M30.8711 39.7417V39.8385H31.355L30.8711 39.7417Z" fill="#858585"/>
<path d="M39.4834 39.7417V39.8385H44.6125L42.9673 39.7417H39.4834Z" fill="#858585"/>
<path d="M30.9678 40.5161V40.6129H31.3549L30.9678 40.5161Z" fill="#858585"/>
<path d="M30.3875 41.9681C29.8141 42.091 30.0972 44.4085 30.0972 44.9681H32.1295C32.1295 43.8062 32.4147 42.0631 31.8218 41.0109C31.2042 39.9149 30.1818 41.0936 30.3875 41.9681Z" fill="white"/>
<path d="M32.7102 41L33.0006 41.1935V41.0968L32.7102 41Z" fill="#858585"/>
<path d="M29.2264 41.1935V43.9031C29.2264 44.3102 29.3066 44.7275 28.9361 44.9676V45.0644C29.3601 44.9237 29.3223 44.5975 29.3232 44.1935C29.325 43.318 29.5652 42.0009 29.2264 41.1935Z" fill="#858585"/>
<path d="M32.9033 41.1938V45.0648H33.0001C33.0001 43.9583 33.3302 42.2111 32.9033 41.1938Z" fill="#858585"/>
<path d="M30.1943 41.29V41.5804H30.2911L30.1943 41.29Z" fill="#858585"/>
<path d="M31.9355 41.4839V41.7742H32.0323L31.9355 41.4839Z" fill="#858585"/>
<path d="M31.9355 41.7744L32.2259 41.968V41.8712L31.9355 41.7744Z" fill="#858585"/>
<path d="M30 41.8706V41.9674H30.2903L30 41.8706Z" fill="#858585"/>
<path d="M27.29 41.9678V42.0645H27.5804L27.29 41.9678Z" fill="#858585"/>
<path d="M30.0001 41.9678C30.0001 42.5465 29.6867 44.5939 30.1552 44.9651C30.5557 45.2822 31.7293 45.0645 32.2259 45.0645V44.9678H30.0969L30.0001 41.9678Z" fill="#858585"/>
<path d="M32.1289 41.9678V44.9678H32.2257L32.1289 41.9678Z" fill="#858585"/>
<path d="M26.71 44.9681H28.1616C28.1616 44.4052 28.3077 41.7431 27.2044 42.1409C26.4817 42.4015 26.71 44.3503 26.71 44.9681Z" fill="white"/>
<path d="M34.3552 43.1288C33.8645 43.4827 34.0649 44.4153 34.0649 44.9675H35.6133C35.6133 44.2016 35.7408 43.0599 35.3203 42.3767C34.8124 41.5514 34.22 42.5383 34.3552 43.1288Z" fill="white"/>
<path d="M28.9355 42.355V44.9679H29.0323L28.9355 42.355Z" fill="#858585"/>
<path d="M36.3867 42.355V44.9679H36.4835L36.3867 42.355Z" fill="#858585"/>
<path d="M25.8389 42.4517V45.0646H25.9356L25.8389 42.4517Z" fill="#858585"/>
<path d="M27.9678 42.4517V42.9355H28.0645L27.9678 42.4517Z" fill="#858585"/>
<path d="M35.4199 42.5483V42.8387H35.5167L35.4199 42.5483Z" fill="#858585"/>
<path d="M28.1611 43.1294V45.0649H28.2579L28.1611 43.1294Z" fill="#858585"/>
<path d="M35.6133 43.1294V45.0649H35.7101L35.6133 43.1294Z" fill="#858585"/>
<path d="M26.6123 43.2256V44.9675H26.7091L26.6123 43.2256Z" fill="#858585"/>
<path d="M3.87012 44.9678V45.0645H14.7088L11.4185 44.9678H3.87012ZM15.6766 44.9678V45.0645H24.6766L21.8701 44.9678H15.6766Z" fill="#858585"/>
<path d="M26.6123 44.9678V45.0645H28.1607L26.6123 44.9678Z" fill="#858585"/>
<path d="M33 44.9678V45.0645H33.2903L33 44.9678ZM34.0645 44.9678V45.0645H35.6129L34.0645 44.9678Z" fill="#858585"/>
<path d="M37.4512 44.9678V45.0645H46.6447L43.8383 44.9678H37.4512Z" fill="#858585"/>
</svg>
