<svg width="80" height="80" viewBox="0 0 80 80" fill="none" xmlns="http://www.w3.org/2000/svg">
<g clip-path="url(#clip0_2353_52207)">
<path d="M0 15.4659C0 8.20929 7.48622 3.3688 14.1036 6.34664L74.1036 33.3466C77.6921 34.9615 80 38.5308 80 42.4659V43.07C80 47.2384 77.4143 50.9696 73.5112 52.4333L13.5112 74.9333C6.97374 77.3848 0 72.5521 0 65.57V15.4659Z" fill="url(#paint0_linear_2353_52207)"/>
<path d="M63.2311 69.0905C63.3421 71.2081 61.9712 73.5964 59.613 73.7199L15.3364 76.0404C13.0744 76.1589 11.0003 74.3373 10.8742 71.9309L9.43043 72.0066C9.60699 75.3755 12.3319 77.6456 15.4121 77.4842L59.6887 75.1637C62.6244 75.0099 64.8439 72.2393 64.6749 69.0148L64.3823 63.4321C63.9668 63.7917 63.4982 64.0576 62.9738 64.1816L63.2311 69.0905Z" fill="#1D2426"/>
<path d="M64.1655 59.2933L61.9309 16.6531C61.9208 16.4606 61.8144 16.2731 61.7106 16.1338L48.2886 4.04856C48.1392 3.95987 47.9417 3.87371 47.7492 3.8838L11.6541 5.77546C8.47775 5.94193 6.00249 8.43633 6.15635 11.3721L6.3329 14.7409L7.77671 14.6653L7.60015 11.2964C7.48917 9.17882 9.32344 7.34537 11.7298 7.21926L46.8623 5.37804L47.2406 12.5971C47.3945 15.5328 50.3828 18.2234 53.3185 18.0696L60.5375 17.6913L62.8378 61.5828C63.2988 61.1726 63.7372 60.3292 64.1655 59.2933ZM48.2032 12.5466L47.84 5.61636L60.1983 16.7439L53.268 17.1071C50.8617 17.2332 48.3293 14.9529 48.2032 12.5466Z" fill="#1D2426"/>
<path d="M76.7223 56.7527C76.6717 56.7071 76.621 56.6615 76.5223 56.6184C75.6738 56.0838 75.0759 56.646 74.9366 56.7498C74.5262 57.2056 74.5159 57.9301 74.878 58.3937C75.0324 58.5786 75.1819 58.6673 75.3313 58.756C75.5314 58.8903 75.7745 58.9258 76.0152 58.9132C76.352 58.8955 76.6814 58.7335 76.8613 58.4828C77.3173 57.9763 77.2288 57.2088 76.7223 56.7527Z" fill="#1D2426"/>
<path d="M72.1846 60.3691C72.0934 60.4704 72.0022 60.5717 71.954 60.5742C71.8046 60.4856 71.0043 59.9484 69.9411 57.1568C69.3816 55.6901 68.6753 54.1829 67.3252 54.2054C65.927 54.2304 65.4277 55.7526 64.7585 57.718C64.5482 58.3081 64.3834 58.8476 64.168 59.3415C63.7397 60.3774 63.3013 61.2208 62.8402 61.631C62.5616 61.8386 62.326 61.9475 62.0322 61.8664C61.1026 61.6255 61.1562 59.8854 61.3113 57.3196C61.5069 54.6068 61.733 51.5546 59.9427 49.6216C58.9703 48.5626 57.5418 48.0101 55.7029 47.9134C55.1228 47.8956 54.5453 47.9258 53.9703 48.0042C52.2258 45.1036 49.5361 43.5072 46.2154 43.6813C40.4402 43.9839 35.8617 50.5458 36.2501 57.9573C36.4594 61.9519 38.8746 67.5198 42.9623 70.0081C43.1623 70.1424 43.4055 70.1779 43.6461 70.1653C44.0311 70.1451 44.4061 69.9324 44.629 69.5829C44.9863 69.0334 44.8016 68.2709 44.2039 67.9162C40.9647 65.9625 38.8355 61.2482 38.6564 57.8312C38.3361 51.7191 41.8657 46.3222 46.3415 46.0876C48.6516 45.9665 50.3484 47.0358 51.5436 48.6623C48.8052 49.8192 46.9937 52.0858 46.0484 54.307C44.5481 57.9085 45.0411 61.7917 47.2747 63.8945C48.8499 65.4045 50.7546 65.8355 52.4037 65.0735C54.9014 63.9291 56.3536 60.3301 56.1266 55.9987C56.0156 53.8811 55.6285 52.0193 55.059 50.3601C55.2515 50.35 55.444 50.3399 55.5909 50.3805C56.7991 50.4137 57.6349 50.7077 58.1464 51.26C59.2227 52.4583 59.0144 54.9305 58.8898 57.1569C58.7068 60.1103 58.4477 63.4537 61.3832 64.2168C61.9708 64.379 62.5002 64.3513 62.979 64.278C63.5033 64.154 63.972 63.8881 64.3874 63.5285C65.7251 62.3485 66.4804 60.1855 67.0203 58.5164C67.147 58.1719 67.2712 57.7793 67.3979 57.4349C67.4562 57.6249 67.5625 57.8123 67.6739 58.0961C68.9017 61.2651 70.1425 62.8408 71.6014 63.0539C72.1358 63.1224 73.1465 63.0695 74.051 61.9121C74.4589 61.4081 74.3705 60.6406 73.8184 60.2352C73.3094 59.7311 72.59 59.817 72.1846 60.3691ZM51.3682 62.8113C50.4259 63.2468 49.5268 62.6665 48.9165 62.0711C47.4426 60.6524 47.1494 57.8205 48.2645 55.156C49.1642 52.9855 50.7248 51.4559 52.6652 50.7269C53.2804 52.3354 53.6194 54.1998 53.7127 55.9805C53.917 59.8787 52.6399 62.2138 51.3682 62.8113Z" fill="#BF8C15"/>
<path d="M18.2348 20.8733L41.8169 19.6375C42.1057 19.6223 42.2881 19.4197 42.273 19.131C42.2578 18.8422 42.0552 18.6598 41.7665 18.6749L18.1844 19.9108C17.8956 19.9259 17.7132 20.1285 17.7283 20.4173C17.7435 20.7061 17.9461 20.8885 18.2348 20.8733Z" fill="#BF8C15"/>
<path d="M18.688 29.5359L51.8954 27.7956C52.1842 27.7805 52.3666 27.5779 52.3514 27.2891C52.3363 27.0004 52.1337 26.8179 51.845 26.8331L18.6375 28.5734C18.3488 28.5885 18.1663 28.7911 18.1815 29.0799C18.1966 29.3687 18.3992 29.5511 18.688 29.5359Z" fill="#BF8C15"/>
<path d="M19.1684 38.68L52.3759 36.9397C52.6646 36.9245 52.847 36.7219 52.8319 36.4332C52.8168 36.1444 52.6142 35.962 52.3254 35.9771L19.118 37.7175C18.8292 37.7326 18.6468 37.9352 18.6619 38.2239C18.6771 38.5127 18.8797 38.6951 19.1684 38.68Z" fill="#BF8C15"/>
<path d="M19.6489 47.824L29.7555 47.2944C30.0443 47.2792 30.2267 47.0766 30.2116 46.7879C30.1964 46.4991 29.9938 46.3167 29.7051 46.3318L19.5985 46.8615C19.3097 46.8766 19.1273 47.0792 19.1424 47.368C19.1575 47.6567 19.3601 47.8392 19.6489 47.824Z" fill="#BF8C15"/>
<path d="M5.22369 14.7986C2.76923 14.9272 2.57127 16.6749 2.61162 17.445L4.76055 58.4489C4.82108 59.604 7.26191 63.8194 8.74062 66.2513C8.90013 66.5325 9.24963 66.7555 9.63464 66.7353C9.97153 66.7177 10.2983 66.5075 10.4732 66.1605C11.5958 63.6405 13.4864 59.1981 13.4259 58.0431L11.2744 16.991C11.2341 16.2209 10.9026 14.501 8.44818 14.6296L7.77441 14.6649L6.33061 14.7406L5.22369 14.7986ZM9.42257 63.6096C8.25533 61.5956 7.13621 59.5792 6.79953 58.6799C7.27323 58.5103 7.93691 58.2825 8.70442 58.194C8.8488 58.1864 8.99318 58.1789 9.13756 58.1713C9.28194 58.1637 9.42632 58.1562 9.5707 58.1486C10.2951 58.1589 10.9283 58.2705 11.369 58.3922C11.227 59.3648 10.3248 61.4872 9.42257 63.6096ZM9.34937 17.0919L11.4378 56.9408C10.802 56.7811 10.0244 56.677 9.11002 56.725C8.14749 56.7754 7.29129 57.0133 6.62509 57.193L4.53669 17.3441C4.51652 16.9591 4.50643 16.7666 5.32458 16.7237L8.54907 16.5547C9.3191 16.5143 9.32919 16.7068 9.34937 17.0919Z" fill="#1D2426"/>
</g>
<defs>
<linearGradient id="paint0_linear_2353_52207" x1="-1.40965e-06" y1="46" x2="80" y2="40" gradientUnits="userSpaceOnUse">
<stop stop-color="#9CF0C6"/>
<stop offset="1" stop-color="#EBFCF4"/>
</linearGradient>
<clipPath id="clip0_2353_52207">
<rect width="80" height="80" fill="white"/>
</clipPath>
</defs>
</svg>
