<svg viewBox="0 0 100 100" fill="none" xmlns="http://www.w3.org/2000/svg" class="size-full">
    <path d="M95.5859 84.9414C95.4297 84.8633 95.2734 84.7852 95.0586 84.668C95.0977 84.7461 95.1367 84.8047 95.1563 84.8438C95.0195 84.8047 94.8633 84.7656 94.7461 84.6875C94.4336 84.4922 94.1602 84.2578 93.8672 84.043C93.7109 83.9258 93.5156 83.8477 93.3789 83.7109C93.2422 83.5742 93.1445 83.3984 93.0078 83.2617C93.8281 83.8867 94.7656 84.3555 95.6445 84.9023C95.6055 84.9023 95.6055 84.9219 95.5859 84.9414Z" fill="#1D2426"></path>
    <path d="M7.38281 82.8711C6.89453 83.0664 6.42578 83.2617 5.9375 83.4375C5.9375 83.418 5.91797 83.3984 5.91797 83.3789C6.40625 83.1836 6.875 83.0078 7.36328 82.8125C7.36328 82.832 7.36328 82.8516 7.38281 82.8711Z" fill="#1D2426"></path>
    <path d="M95.1563 84.8438C95.1758 84.8633 95.1953 84.8633 95.2344 84.8828C95.2149 84.8633 95.1953 84.8633 95.1563 84.8438Z" fill="#1D2426"></path>
    <path d="M96.0547 85.2148L96.0156 85.293C95.7422 85.1562 95.4883 85.0195 95.2148 84.8828C95.5078 85 95.7812 85.0977 96.0547 85.2148Z" fill="#1D2426"></path>
    <path d="M42.168 73.8086L47.168 71.5234L48.125 71.3477L48.6914 74.9023L47.4609 75.8789L42.5195 78.3984L42.4219 78.0078L42.168 73.8086Z" fill="#8CCFFF"></path>
    <path d="M90.3906 81.8164C89.6484 81.3867 88.8867 80.9766 88.1445 80.5273C87.3242 80.0391 86.543 79.5117 85.7422 78.9844C84.9805 78.4766 84.2188 77.9492 83.457 77.4219C82.4805 76.7383 81.543 76.0156 80.5664 75.3711C79.5508 74.6875 78.4961 74.1016 77.4805 73.4375C76.2695 72.6758 75.0977 71.8945 73.8867 71.1133C73.125 70.6055 72.3633 70.1172 71.6016 69.6094C70.3906 68.8086 69.1797 68.0273 67.8711 67.3828C67.5195 67.207 67.1484 67.0313 66.7578 66.8359C67.0508 66.6797 67.168 66.4844 67.1484 66.1914C67.1484 66.0742 67.168 65.957 67.1875 65.8398C67.3242 65.0195 67.4609 64.1797 67.6172 63.3398C67.8125 62.3633 68.0469 61.3672 68.2617 60.3906C68.4375 59.5703 68.6133 58.75 68.8281 57.9297C68.9844 57.3242 69.1797 56.7188 69.3359 56.1133C69.4531 55.6641 69.4336 55.625 69.043 55.3906C69.0234 55.3711 69.0039 55.3516 68.9844 55.3516C68.8281 55.293 68.6523 55.1562 68.5156 55.1758C68.0664 55.2344 67.5977 55.3125 67.168 55.4492C66.6406 55.625 66.1523 55.8594 65.6445 56.0742C65.5273 56.1328 65.3906 56.1719 65.3125 56.2109C65.332 56.0352 65.3516 55.8594 65.3711 55.7031C65.3711 55.6641 65.3711 55.625 65.3906 55.5859C65.4883 55.3125 65.4102 54.8633 65.1758 54.707C64.7266 54.4141 64.2773 54.1211 63.8086 53.8672C63.0469 53.457 62.2461 53.0664 61.4844 52.6562C60.7617 52.2461 60.0391 51.8164 59.3359 51.3477C58.5938 50.8594 57.9492 50.1953 57.1875 49.7266C56.8164 49.4922 56.4844 49.2383 56.1133 49.0234C55.1367 48.4375 54.1797 47.8711 53.2031 47.3047C53.0078 47.207 52.9492 47.0898 52.9297 46.875C52.8906 46.1719 52.4805 45.7812 51.7773 45.7812C51.6406 45.7812 51.5039 45.7422 51.3672 45.7031C51.3672 45.6836 51.3672 45.6641 51.3672 45.625C51.4453 45.5859 51.543 45.5273 51.6211 45.4883C52.0703 45.3125 52.4023 44.9805 52.5977 44.5508C53.0078 43.6523 53.3594 42.7344 53.6914 41.8359C53.75 41.6602 53.75 41.4258 53.7305 41.2305C53.7109 41.0156 53.5547 40.8594 53.3398 40.8594C53.0078 40.8789 52.6758 40.8789 52.3828 40.9766C51.3867 41.3477 50.8398 42.0898 50.6836 43.125C50.625 43.5547 50.5469 44.0039 50.5078 44.375C50.293 44.3945 50.0977 44.4141 49.9219 44.3945C49.8438 44.3945 49.707 44.3164 49.707 44.2578C49.6875 44.1406 49.7266 44.0039 49.7461 43.8672C49.7852 43.8477 49.8047 43.8477 49.8438 43.8281C49.9023 43.9062 49.9609 43.9844 50.0391 44.1016V43.2031C50.0391 41.7383 50.0391 40.2539 50.0391 38.7695C50.0391 37.1289 50.0781 35.4883 50.0781 33.8281C50.0781 32.2852 50.0391 30.7422 50.0195 29.1992C50.0195 28.3984 50 27.6172 49.9805 26.8164C49.9805 25.7422 49.9805 24.6875 49.9609 23.6133C49.9414 22.1289 49.9414 20.6445 49.9219 19.1797C49.9219 18.7695 49.9023 18.3594 49.9023 17.9297C49.9023 17.8516 49.8633 17.7539 49.8242 17.6758C49.7852 17.6758 49.7656 17.6758 49.7266 17.6758C49.707 17.7734 49.6875 17.8711 49.6875 17.9492C49.6875 18.8867 49.6875 19.8242 49.668 20.7617C49.6484 22.1094 49.5898 23.4375 49.5898 24.7852C49.5703 26.4453 49.6094 28.125 49.5898 29.7852C49.5898 30.8594 49.5312 31.9531 49.5117 33.0273C49.4922 34.082 49.4727 35.1367 49.4531 36.1719C49.4336 36.8555 49.3945 37.5586 49.3945 38.2422C49.375 39.3164 49.375 40.4102 49.375 41.4844C49.375 41.7383 49.3945 41.9922 49.3945 42.2461C49.3945 42.5977 49.3555 42.9492 49.375 43.3203C49.375 43.5742 49.4141 43.8477 49.4336 44.082C48.9648 43.7305 48.4961 43.3984 48.0273 43.0273C48.1836 42.9297 48.3398 42.8125 48.5742 42.6562C48.457 42.6172 48.418 42.6172 48.3789 42.6172C48.1055 42.5977 47.9688 42.793 47.7734 42.9297C47.5781 43.0664 47.5586 43.2812 47.7344 43.4375C47.8516 43.5547 48.0078 43.6328 48.1641 43.7305C48.3594 43.8672 48.5547 43.9844 48.75 44.1016C48.75 44.1406 48.7305 44.1602 48.7305 44.1992C48.3008 44.0234 47.9297 44.2187 47.5586 44.3359C47.4023 44.375 47.2461 44.4531 47.1094 44.5508C46.8555 44.7266 46.8359 45.0391 47.0117 45.293C47.4219 45.8398 47.9297 46.1914 48.6133 46.3086C48.6914 46.3281 48.7695 46.3477 48.9062 46.4063C48.75 46.5234 48.6328 46.6016 48.5352 46.6602C48.0664 46.9727 47.5781 47.2656 47.1094 47.5781C46.6211 47.9102 46.1328 48.2422 45.625 48.5547C45.293 48.7695 44.9414 48.9453 44.6094 49.1406C44.4922 49.1992 44.375 49.3359 44.2773 49.3164C43.9648 49.2773 43.7695 49.4141 43.5547 49.6094C43.4961 49.668 43.3984 49.7266 43.3203 49.7656C42.6953 49.9609 42.1094 50.2734 41.543 50.625C41.1914 50.8398 40.8398 51.0156 40.4688 51.2109C39.8828 51.5039 39.2578 51.7187 38.8281 52.2266C38.7891 52.2656 38.75 52.2656 38.7109 52.3047C38.6523 52.3633 38.5352 52.4414 38.5156 52.5195C38.4766 52.6562 38.4961 52.793 38.5156 52.9297C38.5352 53.0664 38.5156 53.1641 38.3789 53.2422C37.8711 53.5352 37.3633 53.8672 36.8555 54.1406C36.0547 54.5898 35.2344 55.0391 34.4336 55.4883C34.2773 55.5859 34.1211 55.6836 33.9648 55.7617C33.2227 56.1328 32.4609 56.5039 31.7383 56.875C30.8398 57.3438 29.9609 57.832 29.082 58.3008C28.5352 58.5938 27.9883 58.8672 27.4609 59.1992C26.9531 59.5312 26.4648 59.9023 25.9766 60.2734C25.8594 60.3711 25.7227 60.5078 25.7031 60.625C25.6445 61.0937 25.5469 61.5625 25.8008 62.0117C25.8203 62.0508 25.8203 62.1094 25.8398 62.168C25.8594 62.2461 25.8594 62.3242 25.8789 62.4023C25.918 62.5 25.9766 62.5977 25.9766 62.6953C25.9961 63.1641 25.9766 63.6523 25.9961 64.1211C26.0156 65.2734 26.0352 66.4453 26.0547 67.5977C26.0742 68.9063 26.0742 70.2148 26.0742 71.5234C26.0742 71.6016 26.0352 71.7383 25.957 71.7773C25.6836 71.9727 25.3906 72.1484 25.1172 72.3047C24.4531 72.6758 23.7695 73.0273 23.1055 73.3984C22.0703 73.9844 21.0352 74.5898 20 75.1758C19.3359 75.5469 18.6328 75.8984 17.9688 76.2695C16.6211 77.0508 15.3125 77.8516 13.9648 78.6328C13.3789 78.9844 12.793 79.3359 12.1875 79.668C11.1719 80.2539 10.1367 80.8203 9.12109 81.4062C8.26172 81.8945 7.40234 82.3828 6.54297 82.8711C6.46484 82.9102 6.38672 82.9688 6.30859 83.0078C6.62109 82.9297 6.91406 82.8516 7.1875 82.7148C7.89063 82.3633 8.57422 81.9727 9.27734 81.582C9.78516 81.2891 10.293 80.9766 10.7813 80.6641C11.2305 80.3711 11.6992 80.1562 12.207 80C12.6953 79.8438 13.1836 79.668 13.6523 79.4531C14.1602 79.1992 14.6289 78.8672 15.1172 78.5938C16.0352 78.0664 16.9727 77.5391 17.8906 77.0117C18.8281 76.4648 19.7852 75.918 20.7227 75.3906C22.1289 74.5898 23.5156 73.8086 24.9219 73.0273C25.332 72.793 25.7227 72.5391 26.1133 72.3047C26.1719 72.3828 26.2305 72.4219 26.2695 72.4805C26.5234 72.7148 26.7383 72.7148 26.9336 72.4219C27.0117 72.3047 27.0508 72.1484 27.0898 71.9922C27.1289 71.8555 27.1484 71.6797 27.2266 71.6211C27.8906 71.2109 28.5742 70.8008 29.2578 70.4102C30.1562 69.9219 31.0742 69.4727 31.9727 69.0039C32.3047 68.8281 32.6172 68.6328 32.9688 68.4375C32.9688 68.5352 32.9883 68.6133 32.9883 68.6719C32.9883 70.0391 33.0078 71.4258 32.9688 72.793C32.9492 73.3008 33.0664 73.6133 33.5352 73.7891C33.5547 73.7891 33.5742 73.8086 33.5938 73.8281C34.5117 74.1797 35.2734 74.8242 36.0547 75.3906C37.207 76.25 38.418 76.9531 39.7461 77.5C39.8242 77.5391 39.8828 77.6367 39.9023 77.7148C39.9219 78.1055 39.9023 78.5156 39.9219 78.9062C39.9414 79.3555 39.9805 79.8047 40.0391 80.2539C40.0391 80.3516 40.0977 80.4688 40.1758 80.5078C40.5273 80.7031 40.918 80.4492 40.918 80.0977C40.9375 79.6289 40.957 79.1797 40.9766 78.7109C40.9766 78.5352 40.9766 78.3594 40.9766 78.1445C41.2695 78.3203 41.5234 78.4766 41.7773 78.6133C42.0898 78.7891 42.4023 78.8086 42.7148 78.6328C43.2617 78.3203 43.8086 77.9883 44.3555 77.6758C44.5898 77.5391 44.8242 77.4414 45.0586 77.2852C46.0938 76.6406 47.1289 75.9961 48.1641 75.332C48.2422 75.293 48.2812 75.1758 48.3398 75.0977C48.2227 75.0781 48.0859 75 48.0078 75.0586C47.4609 75.332 46.9141 75.625 46.3867 75.918C45.9961 76.1328 45.625 76.4258 45.2148 76.6016C44.5703 76.8555 43.9453 77.168 43.3594 77.5C43.1055 77.6562 42.8125 77.7539 42.5 77.8906C42.4805 77.5 42.4805 77.1289 42.4414 76.7578C42.3828 75.8984 42.3242 75.0391 42.2461 74.1992C42.2266 73.9453 42.2852 73.7891 42.5586 73.6914C43.8281 73.1445 45.0781 72.5586 46.3477 72.0117C46.9531 71.7578 47.5586 71.5039 48.2031 71.25C48.2812 72.5781 48.3398 73.8672 48.418 75.1562C48.6719 75.1758 48.7891 75.0977 48.7891 74.8047C48.7891 74.043 48.7891 73.2812 48.75 72.5391C48.6914 71.3477 48.6133 70.1758 48.5547 68.9844C48.5156 68.4961 48.5352 68.0078 48.3203 67.5391C48.2812 67.4414 48.2227 67.3242 48.125 67.2656C47.832 67.0898 47.5391 66.9141 47.2266 66.7578C47.168 66.7188 47.0898 66.6797 47.0117 66.6211C47.2266 66.4844 47.4219 66.3672 47.6172 66.2695C48.0664 66.0352 48.5352 65.8008 48.9844 65.5664C49.375 65.3711 49.7852 65.1367 50.1953 64.9414C50.7031 64.707 51.25 64.5508 51.6602 64.1016C51.7578 63.9844 51.9727 63.9648 52.1289 63.8867C52.3047 63.8086 52.4609 63.7109 52.6367 63.6328C53.1641 63.3594 53.7109 63.1055 54.2383 62.8125C54.6094 62.6172 54.9805 62.4023 55.332 62.1875C55.6641 61.9727 55.957 61.9141 56.2891 62.1484C56.3672 62.207 56.4844 62.168 56.6016 62.1875C56.6016 62.168 56.6211 62.1289 56.6211 62.1094C57.3242 62.4219 58.0273 62.7148 58.7891 63.0469C58.457 63.2617 58.2031 63.457 57.9492 63.5938C57.4219 63.8867 56.875 64.1406 56.3477 64.4336C56.2305 64.5117 56.1328 64.5117 55.9961 64.4336C55.7422 64.2773 55.4688 64.1602 55.2148 64.0039C54.5898 63.5938 53.9258 63.8867 53.5156 64.2578C53.2812 64.4727 53.3203 64.8242 53.5938 64.9805C53.7695 65.0781 53.9648 65.1758 54.1406 65.2734C54.5898 65.5273 55.0195 65.8008 55.4688 66.0547C55.5469 66.0938 55.6445 66.1328 55.6641 66.2109C55.7422 66.4453 55.8398 66.6602 55.8789 66.8945C55.957 67.4023 56.0156 67.8906 56.2305 68.3789C56.4258 68.7891 56.6797 68.9844 57.1289 68.8672C57.4219 68.7891 57.7344 68.6914 58.0273 68.6328C58.1055 68.6133 58.2227 68.6328 58.3008 68.6719C58.5938 68.8477 58.8477 69.0625 59.1406 69.2188C59.3945 69.3555 59.6875 69.4531 59.9609 69.5312C60.1172 69.5703 60.1563 69.6094 60.1953 69.7656C60.2734 70.2344 60.3125 70.7422 60.5078 71.1719C60.7422 71.7383 60.7031 72.3047 60.7422 72.8711L60.7227 72.8906C60.5273 72.7734 60.3125 72.6562 60.1367 72.5195C59.9414 72.3633 59.7852 72.168 59.6094 71.9922C59.4727 71.8555 59.3359 71.7188 59.1797 71.6016C59.1211 71.5625 58.9258 71.5625 58.9063 71.6016C58.8477 71.7188 58.8281 71.8555 58.8477 71.9922C58.8477 72.0508 59.0039 72.0898 59.082 72.1094C59.2188 72.168 59.4141 72.168 59.4922 72.2656C59.8438 72.6562 60.1367 73.0859 60.4688 73.5156C60.4297 73.5352 60.4102 73.5547 60.3711 73.5547C59.7852 73.6914 59.2188 73.8281 58.6523 73.9453C58.0664 74.082 57.4609 74.1797 56.875 74.3164C56.7383 74.3555 56.6016 74.4531 56.4844 74.5508C56.3281 74.668 56.2305 74.8438 56.3672 75.0195C56.5039 75.1953 56.6797 75.0586 56.8359 74.9805C56.9531 74.9219 57.0508 74.8047 57.168 74.7852C57.7148 74.668 58.2422 74.5703 58.7891 74.4727C59.1016 74.4141 59.4141 74.3945 59.7266 74.3359C60.1172 74.2578 60.4883 74.1406 60.8789 74.0234C60.8984 74.1016 60.918 74.1406 60.918 74.1992C60.957 74.9219 60.9961 75.6641 61.0156 76.3867C61.0352 76.6797 61.0156 76.9727 61.0156 77.2852C61.0156 77.3242 61.0742 77.4023 61.1133 77.4023C61.2305 77.4219 61.3672 77.4414 61.4453 77.3828C61.5039 77.3438 61.5039 77.207 61.5039 77.1094C61.5039 77.0312 61.5039 76.9531 61.5039 76.875C61.5039 76.0938 61.5039 75.3125 61.5039 74.5312V73.9453C62.1289 74.1016 62.7148 74.2578 63.3008 74.4141C63.7109 74.5117 64.1211 74.5898 64.5312 74.707C64.6875 74.7461 64.8438 74.8047 65 74.8828C65.1562 74.9805 65.2734 75 65.3906 74.8828C65.5273 74.7461 65.4688 74.5898 65.3516 74.4922C65.1563 74.3555 64.9609 74.1992 64.7266 74.1406C64.1602 73.9844 63.5938 73.8867 63.0273 73.7305C62.5391 73.6133 62.0508 73.457 61.5039 73.3008C61.8555 72.9297 62.168 72.5586 62.5 72.2266C62.5195 72.2266 62.5391 72.2461 62.5586 72.2461C62.5195 72.4414 62.6172 72.5391 62.7734 72.5586C62.9492 72.5781 63.125 72.5 63.1445 72.3047C63.2031 72.0117 62.9297 72.0313 62.7148 71.9141C62.7734 71.8555 62.832 71.8164 62.9102 71.7773C63.0078 71.6992 63.125 71.6211 63.0078 71.5039C62.9492 71.4453 62.7539 71.4453 62.6758 71.5039C62.207 71.7969 61.7578 72.1289 61.4453 72.5977C61.4062 72.6562 61.3477 72.6953 61.2695 72.7734C61.2305 72.6953 61.2109 72.6562 61.2109 72.6172C61.2109 72.2266 61.2109 71.8359 61.2109 71.4453V71.4258C61.2695 70.9766 61.3477 70.5273 61.3867 70.0586C61.4258 69.7461 61.4062 69.4336 61.8164 69.3555C61.8359 69.3555 61.875 69.3359 61.8945 69.3164C62.6367 68.7305 63.5352 68.4961 64.3555 68.0469C64.668 67.8906 64.9805 67.7539 65.293 67.5977C65.6055 67.4414 65.8984 67.2461 66.2109 67.0898C66.3086 67.0312 66.4844 67.0117 66.582 67.0508C67.6172 67.5781 68.6719 68.0859 69.668 68.6719C70.5469 69.1797 71.3672 69.7852 72.207 70.332C72.9102 70.8008 73.6328 71.25 74.3555 71.6992C75.0391 72.1484 75.7031 72.6172 76.3867 73.0664C77.6172 73.8477 78.8672 74.6094 80.0977 75.3906C80.9961 75.9766 81.875 76.6016 82.7539 77.207C83.6328 77.8125 84.5117 78.457 85.4102 79.043C86.4062 79.707 87.4414 80.332 88.457 80.957C89.1992 81.4062 89.9414 81.8359 90.6836 82.2656C90.7812 82.3242 90.918 82.3242 91.0352 82.3242C91.1719 82.3047 91.2891 82.2266 91.4062 82.1875C91.0547 82.168 90.7227 81.9922 90.3906 81.8164ZM50.9766 44.082C51.0156 43.0664 51.3281 42.1484 52.2461 41.6016C52.5391 41.4258 52.8906 41.3477 53.2227 41.2109C53.2617 41.1914 53.3008 41.2109 53.3398 41.2305C53.5742 42.3242 51.9727 45.0977 50.9961 45.332C50.9766 44.9023 50.957 44.4922 50.9766 44.082ZM50.4492 44.9219C50.4883 45.1562 50.4688 45.4102 50.7812 45.4688C50.7227 45.5469 50.6836 45.6055 50.6445 45.6641C50.4883 45.4102 50.332 45.1758 50.1562 44.9219C50.2539 44.9219 50.3516 44.9219 50.4492 44.9219ZM49.4141 44.6289C49.4727 44.668 49.5508 44.707 49.6094 44.7852C49.9023 45.1758 50.1953 45.5859 50.4883 45.9766C50.5078 45.9961 50.5469 46.0156 50.5469 45.957C50.7227 45.8789 50.8984 45.8008 51.0938 45.7422C51.0938 45.8008 51.1133 45.8203 51.0938 45.8203C51.0352 45.9375 50.9766 46.0352 50.918 46.1523C51.0547 46.1914 51.1914 46.25 51.3086 46.25C51.4844 46.25 51.6406 46.2109 51.8164 46.1914C52.168 46.1719 52.4023 46.3672 52.5391 46.6406C52.6758 46.9141 52.6562 47.2266 52.4805 47.4609C52.1094 47.9688 51.7188 48.457 51.3086 48.9258C51.0938 49.1797 51.0352 49.1406 50.8203 48.8867C50.5273 48.5742 50.4297 48.1836 50.293 47.793C50.1562 47.3633 50.3516 46.9922 50.5664 46.6602C50.5859 46.6211 50.6836 46.6211 50.7227 46.582C50.8008 46.5234 50.8594 46.4453 50.918 46.3867C50.8398 46.3281 50.7812 46.2109 50.7031 46.2109C50.5469 46.1914 50.3906 46.2305 50.1758 46.25C50.0195 45.6836 49.8047 45.1172 49.3555 44.6875C49.375 44.668 49.3945 44.6484 49.4141 44.6289ZM50.7812 49.5313C50.4297 49.7461 49.9609 49.6289 49.8242 49.2773C49.668 48.8672 49.5508 48.418 49.4141 48.0078C49.4336 47.9883 49.4727 47.9688 49.5117 47.9492C49.5703 47.9883 49.668 48.0273 49.6875 48.1055C49.9023 48.6914 50.2148 49.1992 50.7812 49.5313ZM48.4375 45.8398C48.125 45.7227 47.8516 45.5859 47.5586 45.4297C47.3633 45.332 47.2656 45.1367 47.3242 44.9219C47.3633 44.7461 47.6562 44.5898 47.8711 44.5703C48.5938 44.5312 49.1406 44.7852 49.4531 45.4688C49.5703 45.7031 49.7266 45.918 49.8633 46.1328C49.8828 46.1523 49.8633 46.1914 49.8633 46.2695C49.375 46.1328 48.9062 46.0156 48.4375 45.8398ZM39.0234 52.6367C39.7461 52.0898 40.5859 51.7383 41.4062 51.3477C42.207 50.9766 43.0078 50.6055 43.7891 50.2344C43.9453 50.1758 44.0039 50.1758 44.0625 50.3516C44.1016 50.4492 44.1797 50.5469 44.2578 50.5664C44.4531 50.6055 44.4336 50.7422 44.4531 50.8594C44.5898 51.6602 44.7266 52.4609 44.8828 53.2617C44.9219 53.418 44.9609 53.5938 45 53.7891C43.1641 54.4531 41.6406 55.7227 39.8047 56.4648C39.7656 56.2891 39.7266 56.0938 39.668 55.8984C39.4141 54.9023 39.1602 53.9062 38.8867 52.9297C38.8477 52.7734 38.9258 52.7148 39.0234 52.6367ZM32.9883 66.7773C32.9102 67.0703 32.9492 67.4023 32.9688 67.7148C32.9688 67.8711 32.9102 67.9688 32.7734 68.0273C31.7188 68.5742 30.6445 69.1211 29.5898 69.668C29.1602 69.8828 28.75 70.1562 28.3398 70.3906C27.9492 70.625 27.5586 70.8594 27.0898 71.1328C27.2656 68.3984 26.7187 65.7422 26.7969 63.0469C26.9531 63.125 27.1094 63.2031 27.2461 63.2617C27.7539 63.4961 28.2617 63.7109 28.7695 63.9648C29.5508 64.3555 30.3711 64.707 31.0742 65.2344C31.6016 65.6055 32.168 65.918 32.7148 66.2695C32.9297 66.3867 33.0859 66.4648 32.9883 66.7773ZM39.8242 74.4922C39.8242 75.3711 39.8242 76.2305 39.8242 77.1094C39.8242 77.168 39.8047 77.2266 39.8047 77.3438C39.4141 77.1484 39.043 76.9531 38.6914 76.7578C37.2656 76.0352 35.9375 75.1367 34.6094 74.2578C34.2773 74.043 33.9062 73.8477 33.5547 73.6523C33.3789 73.5547 33.2812 73.457 33.3008 73.2031C33.3398 71.9727 33.3594 70.7227 33.3594 69.4922C33.3594 68.6523 33.3008 67.8125 33.2617 66.9727C33.2422 66.6992 33.3008 66.6602 33.5156 66.7969C33.8086 66.9531 34.1016 67.1289 34.3945 67.2852C34.9414 67.5781 35.5078 67.8516 36.0547 68.125C37.1094 68.6328 38.1641 69.1406 39.1992 69.6484C39.3359 69.707 39.5117 69.7266 39.668 69.7852C39.7461 69.8242 39.8438 69.9414 39.8438 70.0391C39.8633 70.5273 39.8633 70.9961 39.8633 71.4844C39.8633 72.0312 39.8633 72.5977 39.8633 73.1445C39.8438 73.5742 39.8242 74.043 39.8242 74.4922ZM41.9141 78.2422C41.6211 78.1445 41.3281 78.0664 41.0742 77.9492C40.9961 77.9102 40.918 77.793 40.8984 77.7148C40.8398 76.0156 40.7812 74.3164 40.8789 72.6172C40.918 71.8555 40.8984 71.0742 40.8984 70.3125V70.0977C40.918 70.0781 40.9375 70.0781 40.957 70.0586C41.1914 70.2344 41.4258 70.4102 41.6406 70.5859C41.6797 70.625 41.6797 70.7031 41.6797 70.7617C41.6797 72.2266 41.6602 73.6914 41.6992 75.1562C41.7188 76.1328 41.8359 77.0898 41.9141 78.0664C41.9336 78.1055 41.9141 78.1641 41.9141 78.2422ZM46.9531 68.5547C47.2461 68.418 47.5391 68.2812 47.8906 68.125C47.9297 68.2617 47.9883 68.3789 48.0078 68.4961C48.0469 69.2188 48.0664 69.9414 48.1055 70.6641C48.1055 70.8008 48.0664 70.8594 47.9492 70.8984C47.207 71.1914 46.4453 71.4648 45.7031 71.7773C44.9805 72.0898 44.2578 72.4414 43.5547 72.7734C43.125 72.9883 42.6953 73.1836 42.207 73.418C42.207 73.2031 42.207 73.0469 42.207 72.8906C42.207 72.2266 42.207 71.5625 42.2266 70.8984C42.2266 70.8203 42.2852 70.7031 42.3438 70.6836C43.125 70.293 43.9062 69.9023 44.6875 69.5312C44.9414 69.4141 45.2344 69.3359 45.5078 69.2188C45.9766 69.0234 46.4648 68.7891 46.9531 68.5547ZM55.9961 60.1367C55.5274 60.4297 55.0195 60.6641 54.5312 60.918C54.4141 60.9766 54.3164 61.0352 54.1992 61.1133C53.5938 61.4844 53.0078 61.875 52.4023 62.2266C51.8164 62.5781 51.1914 62.8906 50.5859 63.2422C50.2344 63.457 49.9023 63.7305 49.5312 63.9258C49.1406 64.1406 48.7109 64.3164 48.3203 64.5117C47.5391 64.9219 46.7578 65.332 45.9766 65.7227C45.293 66.0742 44.6094 66.4258 43.9453 66.7578C43.5156 66.9727 43.0859 67.2266 42.6562 67.4219C42.1875 67.6367 41.7187 67.832 41.25 68.0469C40.9375 68.1836 40.6445 68.3594 40.332 68.5156C40.2539 68.5547 40.1562 68.5742 40.0781 68.5547C39.3164 68.2422 38.5352 67.9297 37.793 67.5586C36.9141 67.1289 36.0547 66.6016 35.1953 66.1523C34.5898 65.8398 33.9648 65.5859 33.3789 65.2344C32.1094 64.4922 30.8594 63.7305 29.6289 62.9492C29.2383 62.6953 28.9062 62.3633 28.5156 62.0898C28.125 61.8164 27.7148 61.582 27.3047 61.3477C26.875 61.1133 26.4258 60.8984 25.918 60.6445C26.6992 60.1562 27.4023 59.6875 28.125 59.2773C28.8672 58.8477 29.6289 58.4961 30.3906 58.1055C31.5234 57.5391 32.6367 56.9531 33.7695 56.3867C34.1797 56.1914 34.5898 55.9961 34.9805 55.7812C35.3711 55.5664 35.7227 55.332 36.1133 55.1172C36.875 54.668 37.6367 54.2188 38.418 53.7695C38.457 53.75 38.4961 53.75 38.5742 53.7109C38.6523 54.0234 38.7305 54.2969 38.7891 54.5898C38.7891 54.6289 38.75 54.7266 38.7109 54.7461C38.3594 54.9609 38.0273 55.1953 37.6562 55.3906C36.6992 55.918 35.7422 56.4453 34.8047 56.9727C34.4531 57.168 34.1211 57.4023 33.8086 57.6367C33.7305 57.6953 33.7109 57.8516 33.6719 57.9492C33.7695 57.9688 33.8867 58.0078 33.9844 57.9883C34.1016 57.9687 34.2187 57.9102 34.3359 57.8516C35.0977 57.4609 35.8789 57.0898 36.6211 56.6797C37.3437 56.2695 38.0469 55.7812 38.75 55.332C38.8281 55.293 38.9062 55.2344 39.0234 55.1758C39.0625 55.3125 39.082 55.4102 39.1211 55.5273C39.1992 55.8789 39.2969 56.2305 39.375 56.6016C39.5117 57.1484 39.8633 57.4609 40.3516 57.6758C40.7227 57.832 41.0547 58.0273 41.4258 58.2031C41.9336 58.4375 42.4414 58.6914 42.9688 58.9258C43.1445 59.0039 43.3594 59.1016 43.5352 59.1016C43.7109 59.1016 43.9062 59.0039 44.082 58.9258C44.4727 58.75 44.8633 58.5742 45.2344 58.3789C45.4297 58.2812 45.625 58.1445 45.8203 58.0469C46.4648 57.7148 47.0703 57.3047 47.7539 57.0312C48.125 56.875 48.4375 56.6211 48.7695 56.4062C48.9258 56.2891 48.9453 56.1328 48.7891 55.9961C48.7109 55.918 48.6133 55.8594 48.5156 55.8008C47.7539 55.3906 47.0117 55 46.25 54.5703C46.0547 54.4727 45.918 54.3164 45.7422 54.1797C45.6641 54.1211 45.5664 54.082 45.5078 54.0625C45.4297 53.6719 45.3711 53.3008 45.293 52.9297C45.1953 52.5195 45.0781 52.1094 44.9609 51.7187C44.9219 51.5625 44.9414 51.4648 45.0977 51.3867C45.3906 51.2305 45.7031 51.0547 45.9961 50.8789C46.1523 50.7812 46.2891 50.6836 46.4258 50.5859C46.7188 50.3906 47.0117 50.1758 47.3047 49.9805C47.4219 49.9023 47.5391 49.8242 47.6172 49.707C47.6758 49.6289 47.6758 49.4727 47.6367 49.3945C47.5977 49.3359 47.4414 49.3164 47.3633 49.3555C47.2266 49.3945 47.0898 49.4727 46.9727 49.5703C46.3281 50.0391 45.6055 50.4102 44.8828 50.7422C44.8438 50.7617 44.8047 50.7617 44.7656 50.7812C44.707 50.6641 44.6484 50.5469 44.6094 50.4297C44.5117 50.1367 44.5312 50.0781 44.8242 49.9023C45.6055 49.3945 46.3672 48.8867 47.1484 48.3789C47.6562 48.0664 48.1836 47.793 48.75 47.4609C48.9062 47.9102 49.0039 48.3398 49.1797 48.75C49.3164 49.0625 49.4531 49.375 49.6875 49.6289C49.9805 49.9414 50.4102 49.8828 50.8008 49.8242C51.3672 49.7266 51.7578 49.3359 52.0703 48.9062C52.2461 48.6719 52.4023 48.3984 52.5391 48.125C52.6367 47.9492 52.7344 47.9102 52.9102 48.0078C53.5352 48.3789 54.1797 48.7305 54.8242 49.1016C55.1367 49.2773 55.4492 49.4336 55.7617 49.6289C55.918 49.7266 56.0547 49.8828 56.2109 50C56.8164 50.4297 57.4219 50.8398 58.0273 51.2695C58.418 51.543 58.7891 51.7969 59.1797 52.0508C59.5898 52.3047 60 52.5586 60.4102 52.793C60.918 53.0664 61.4258 53.3203 61.9336 53.6133C62.5586 53.9648 63.1641 54.3164 63.7695 54.668C63.9648 54.7852 64.1602 54.9023 64.4141 55.0586C64.2188 55.1758 64.043 55.293 63.8867 55.3906C63.5352 55.5859 63.1641 55.7422 62.8125 55.9375C61.9727 56.4258 61.1523 56.9336 60.3125 57.4219C59.5312 57.8711 58.7305 58.2812 57.9492 58.7695C57.2461 59.2188 56.6406 59.707 55.9961 60.1367ZM56.2695 61.6992C56.5625 61.4844 56.8164 61.2891 57.0508 61.1133C57.6172 60.7031 58.2031 60.293 58.7891 59.8828C58.9258 59.7852 59.082 59.7461 59.1992 59.6289C59.7656 59.1016 60.5469 58.9062 61.1523 58.4375C61.2305 58.3789 61.3086 58.3594 61.4062 58.3203C61.4062 58.3398 61.4258 58.3398 61.4258 58.3594C61.3086 58.4375 61.2109 58.5156 61.0938 58.5938C60.6641 58.9453 60.2344 59.2969 59.8242 59.6484C59.3359 60.0391 59.082 60.5664 58.9844 61.1719C58.9258 61.6406 58.9453 62.1094 58.9258 62.5977C58.9258 62.6758 58.9258 62.7539 58.9258 62.8711C58.0469 62.5 57.1875 62.1094 56.2695 61.6992ZM57.0117 68.5742C56.9727 68.5742 56.875 68.5352 56.8555 68.4766C56.7773 68.2617 56.6992 68.0273 56.6211 67.793C56.6602 67.7734 56.6797 67.7734 56.7188 67.7539C57.0313 67.9688 57.3633 68.1641 57.7344 68.418C57.4609 68.4961 57.2266 68.5547 57.0117 68.5742ZM59.5703 69.1211C59.0625 69.0039 58.6524 68.7305 58.2422 68.3984C57.8711 68.1055 57.4609 67.832 57.0313 67.6172C56.6602 67.4219 56.7188 67.1484 56.7188 66.7969C57.1484 66.9531 57.4805 66.7188 57.8516 66.582C57.9297 66.543 58.0078 66.5039 58.0664 66.4648C58.3984 66.2305 58.3984 65.8984 58.0664 65.6836C57.5977 65.3711 57.0898 65.0977 56.6016 64.8047C57.3828 64.375 58.1836 63.9258 58.9844 63.4961C59.3359 65.3711 59.6875 67.2656 60.0586 69.1992C59.9023 69.1797 59.7266 69.1602 59.5703 69.1211ZM64.9023 67.1094C64.4727 67.3633 64.0625 67.6172 63.6328 67.8516C63.0078 68.2031 62.3633 68.5547 61.7383 68.9258C61.5039 69.0625 61.2891 69.2578 61.0352 69.375C60.8203 69.4922 60.7031 69.4141 60.6641 69.1797C60.5273 68.418 60.4102 67.6367 60.2734 66.875C60.1367 66.1133 60.0195 65.3711 59.8633 64.6289C59.8047 64.3164 59.6875 64.0234 59.5898 63.7109C59.6094 63.6914 59.6289 63.6719 59.6484 63.6719C59.9023 63.7891 60.1367 63.9258 60.3906 64.043C61.0938 64.3945 61.7969 64.7461 62.5 65.0977C62.4805 65.1367 62.4414 65.1953 62.4023 65.2539C63.3008 65.6836 64.1797 66.1133 65.1172 66.5625C65.2344 66.6211 65.3516 66.6797 65.4883 66.7383C65.2734 66.875 65.0977 66.9922 64.9023 67.1094ZM66.4453 66.0938C66.4453 66.1133 66.4453 66.1133 66.4453 66.0938C66.3867 66.3281 66.0938 66.4844 65.8984 66.3867C65.0391 65.957 64.1992 65.5469 63.3594 65.0977C62.7734 64.7852 62.1875 64.4531 61.6016 64.1602C61.0156 63.8672 60.4297 63.5938 59.8242 63.3203C59.6484 63.2422 59.5703 63.125 59.5508 62.9102C59.5117 62.4805 59.3945 62.0703 59.375 61.6602C59.3555 61.3086 59.3945 60.9375 59.4336 60.5859C59.4336 60.5078 59.5117 60.4102 59.5703 60.3516C60.0586 60 60.5469 59.6484 61.0352 59.3164C61.6602 58.9062 62.2852 58.4766 62.9297 58.125C63.6719 57.7148 64.4531 57.3438 65.2344 56.9922C65.6641 56.7969 66.1328 56.6211 66.582 56.4648C67.3242 56.1914 68.0469 55.9375 68.7891 55.6836C68.8281 55.6641 68.8672 55.6641 68.9648 55.6445C68.9453 55.8008 68.9648 55.957 68.9258 56.0742C68.3789 57.5586 68.0274 59.082 67.6172 60.5859C67.3633 61.5625 67.1094 62.5391 66.8945 63.5352C66.7188 64.3945 66.582 65.2539 66.4453 66.0938Z" fill="#1D2426"></path>
    <path d="M46.3867 43.6914C46.3477 43.3984 46.2695 43.125 46.2695 42.832C46.25 42.1484 46.2695 41.4844 46.2695 40.8008C46.25 39.375 46.2109 37.9297 46.1719 36.5039C46.1523 35.5859 46.1328 34.668 46.1133 33.75C46.1133 33.4766 46.0742 33.2031 45.9961 32.9492C45.8984 32.6367 45.6836 32.5195 45.3711 32.5977C45.0586 32.6758 44.7461 32.7539 44.4727 32.8906C43.3594 33.3594 42.2656 33.8672 41.1523 34.3359C39.8242 34.9219 38.4766 35.4688 37.168 36.0742C35.918 36.6406 34.6875 37.2656 33.4375 37.8711C32.7344 38.2031 32.0508 38.5547 31.3281 38.8281C30.4102 39.1992 29.4922 39.5703 28.6719 40.1563C28.2422 40.4688 28.0078 40.8594 28.0078 41.3672C27.9883 42.1289 27.9883 42.8906 28.0273 43.6523C28.0859 44.8438 28.2031 46.0156 28.2422 47.207C28.2812 48.4766 28.2422 49.7656 28.2422 51.0352H28.2812C28.2812 51.0547 28.2812 51.0742 28.2812 51.1133C28.3594 51.9922 28.418 52.8906 28.4961 53.7695C28.5352 54.1602 29.0234 54.3945 29.375 54.2383C29.7656 54.082 30.1758 53.9063 30.5859 53.75C32.1484 53.1445 33.6523 52.4023 35.1367 51.6211C35.6445 51.3672 36.1328 51.0938 36.6406 50.8203C37.6562 50.293 38.6914 49.7656 39.707 49.2188C40.3516 48.8672 40.957 48.457 41.6211 48.1445C43.125 47.3828 44.6289 46.6602 46.0547 45.8008C46.3281 45.625 46.6016 45.4102 46.6016 45.0586C46.5625 44.5703 46.4648 44.1406 46.3867 43.6914ZM45.0586 45.6445C44.1211 46.2109 43.125 46.6211 42.1484 47.0703C41.4648 47.3828 40.8203 47.7734 40.1562 48.1445C39.4336 48.5352 38.7109 48.9453 37.9687 49.3164C37.168 49.7461 36.3672 50.1562 35.5664 50.5664C34.8633 50.918 34.1406 51.25 33.418 51.6016C32.9297 51.8359 32.4414 52.0898 31.9531 52.3438C31.2695 52.6758 30.5664 52.9883 29.8828 53.3008C29.6484 53.418 29.3164 53.2617 29.2773 53.0078C29.2383 52.5195 29.1797 52.0117 29.1797 51.5234C29.1406 50.1172 29.1406 48.7109 29.1016 47.3047C29.082 46.6211 28.9844 45.9375 28.9453 45.2539C28.8867 44.1016 28.8281 42.9297 28.7891 41.7773C28.7891 41.5234 28.8086 41.2109 28.9258 41.0156C29.1016 40.7617 29.375 40.5664 29.6484 40.4297C30.293 40.0977 30.957 39.8242 31.6211 39.5312C32.2266 39.2578 32.8516 39.0039 33.457 38.7109C34.1992 38.3594 34.9414 37.9883 35.6836 37.6367C37.1094 36.9531 38.5352 36.2695 39.9805 35.625C41.3281 35.0195 42.6953 34.4727 44.043 33.8867C44.2383 33.8086 44.3945 33.6914 44.5898 33.6133C44.9609 33.457 45.1562 33.5547 45.1953 33.9453C45.2539 34.5898 45.293 35.2539 45.3125 35.8984C45.332 36.8164 45.3125 37.7344 45.3125 38.6328H45.4297C45.4297 39.8242 45.4102 40.9961 45.4297 42.1875C45.4492 43.0078 45.5078 43.8281 45.5664 44.6484C45.5859 45.1367 45.4883 45.3711 45.0586 45.6445Z" fill="#1D2426"></path>
    <path d="M63.7305 54.707C63.125 54.3555 62.5 53.9844 61.8945 53.6523C61.3867 53.3789 60.8789 53.125 60.3711 52.832C59.9609 52.5977 59.5508 52.3438 59.1406 52.0898C58.75 51.8359 58.3594 51.5625 57.9883 51.3086C57.3828 50.8789 56.7773 50.4688 56.1719 50.0391C56.0156 49.9219 55.8789 49.7656 55.7227 49.668C55.4102 49.4922 55.0977 49.3164 54.7852 49.1406C54.1406 48.7891 53.5156 48.418 52.8711 48.0469C52.6953 47.9492 52.5977 47.9883 52.5 48.1641C52.3633 48.4375 52.207 48.6914 52.0312 48.9453C51.6992 49.375 51.3281 49.7656 50.7617 49.8633C50.3711 49.9414 49.9414 50 49.6484 49.668C49.4336 49.4336 49.2773 49.1016 49.1406 48.7891C48.9648 48.3789 48.8672 47.9492 48.7109 47.5C48.1445 47.832 47.6172 48.1055 47.1094 48.418C46.3281 48.9062 45.5469 49.4336 44.7852 49.9414C44.4922 50.1367 44.4727 50.1758 44.5703 50.4688C44.6094 50.5859 44.668 50.6836 44.7266 50.8203C44.7656 50.8008 44.8047 50.8008 44.8438 50.7812C45.5859 50.4492 46.2891 50.0977 46.9336 49.6094C47.0508 49.5117 47.1875 49.4336 47.3242 49.3945C47.4023 49.375 47.5781 49.3945 47.5977 49.4336C47.6367 49.5117 47.6367 49.668 47.5781 49.7461C47.5 49.8633 47.3828 49.9414 47.2656 50.0195C46.9727 50.2344 46.6797 50.4297 46.3867 50.625C46.25 50.7227 46.1133 50.8203 45.957 50.918C45.6641 51.0938 45.3711 51.2695 45.0586 51.4258C44.9023 51.5039 44.8828 51.6211 44.9219 51.7578C45.0391 52.168 45.1562 52.5586 45.2539 52.9688C45.332 53.3398 45.3906 53.7109 45.4688 54.1016C45.5273 54.1406 45.625 54.1602 45.7031 54.2188C45.8789 54.3359 46.0352 54.4922 46.2109 54.6094C46.9531 55.0195 47.7148 55.4297 48.4766 55.8398C48.5742 55.8984 48.6523 55.957 48.75 56.0352C48.9062 56.1719 48.9062 56.3281 48.7305 56.4453C48.3984 56.6602 48.0859 56.9141 47.7148 57.0703C47.0312 57.3633 46.4258 57.7734 45.7812 58.0859C45.5859 58.1836 45.3906 58.3203 45.1953 58.418C44.8047 58.6133 44.4336 58.7891 44.043 58.9648C43.8672 59.043 43.6914 59.1406 43.4961 59.1406C43.3008 59.1406 43.1055 59.043 42.9297 58.9648C42.4219 58.7305 41.9141 58.4766 41.3867 58.2422C41.0352 58.0664 40.6836 57.8711 40.3125 57.7148C39.8242 57.5 39.4531 57.1875 39.3359 56.6406C39.2578 56.2891 39.1602 55.9375 39.082 55.5664C39.0625 55.4492 39.0234 55.3516 38.9844 55.2148C38.8672 55.2734 38.7891 55.3125 38.7109 55.3711C38.0078 55.8203 37.3047 56.2891 36.582 56.7188C35.8398 57.1484 35.0586 57.5 34.2969 57.8906C34.1797 57.9492 34.0625 58.0078 33.9453 58.0273C33.8477 58.0469 33.7305 58.0078 33.6328 57.9883C33.6719 57.8906 33.6914 57.7344 33.7695 57.6758C34.082 57.4414 34.4141 57.207 34.7656 57.0117C35.7031 56.4648 36.6797 55.957 37.6172 55.4297C37.9688 55.2344 38.3203 55 38.6719 54.7852C38.7109 54.7461 38.7695 54.668 38.75 54.6289C38.6914 54.3359 38.6133 54.043 38.5352 53.75C38.457 53.7891 38.418 53.7891 38.3789 53.8086C37.6172 54.2578 36.8359 54.707 36.0742 55.1562C35.7031 55.3711 35.332 55.6055 34.9414 55.8203C34.5508 56.0352 34.1406 56.2305 33.7305 56.4258C32.5977 56.9922 31.4844 57.5586 30.3516 58.1445C29.5898 58.5352 28.8281 58.9063 28.0859 59.3164C27.3438 59.7461 26.6406 60.2148 25.8789 60.6836C26.3867 60.9375 26.8164 61.1523 27.2656 61.3867C27.6758 61.6211 28.0859 61.8555 28.4766 62.1289C28.8672 62.4023 29.1992 62.7344 29.5898 62.9883C30.8203 63.7695 32.0703 64.5313 33.3398 65.2734C33.9258 65.625 34.5508 65.8594 35.1562 66.1914C36.0352 66.6602 36.875 67.168 37.7539 67.5977C38.4961 67.9688 39.2773 68.2617 40.0391 68.5938C40.1172 68.6328 40.2148 68.5938 40.293 68.5547C40.6055 68.3984 40.8984 68.2227 41.2109 68.0859C41.6797 67.8711 42.1484 67.6758 42.6172 67.4609C43.0469 67.2461 43.4766 67.0117 43.9062 66.7969C44.5898 66.4453 45.2734 66.1133 45.9375 65.7617C46.7188 65.3516 47.5 64.9414 48.2812 64.5508C48.6719 64.3555 49.1016 64.1797 49.4922 63.9648C49.8633 63.7695 50.1758 63.4961 50.5469 63.2812C51.1523 62.9297 51.7578 62.6172 52.3633 62.2656C52.9688 61.9141 53.5742 61.5234 54.1602 61.1523C54.2773 61.0938 54.375 61.0156 54.4922 60.957C54.9805 60.7031 55.4883 60.4688 55.957 60.1758C56.6211 59.7656 57.207 59.2578 57.8711 58.8477C58.6328 58.3789 59.4531 57.9688 60.2344 57.5C61.0742 57.0117 61.8945 56.5039 62.7344 56.0156C63.0859 55.8203 63.457 55.6445 63.8086 55.4688C63.9844 55.3711 64.1406 55.2734 64.3359 55.1367C64.1406 54.9414 63.9453 54.8242 63.7305 54.707Z" fill="#8CCFFF"></path>
    <path d="M39.8047 77.3438C39.4141 77.1289 39.043 76.9531 38.6914 76.7578C37.2656 76.0352 35.9375 75.1367 34.6094 74.2578C34.2773 74.043 33.9062 73.8477 33.5547 73.6523C33.3789 73.5547 33.2812 73.457 33.3008 73.2031C33.3398 71.9727 33.3594 70.7227 33.3594 69.4922C33.3594 68.6523 33.3008 67.8125 33.2617 66.9727C33.2422 66.6992 33.3008 66.6602 33.5352 66.7969C33.8281 66.9531 34.1211 67.1289 34.4141 67.2852C34.9609 67.5781 35.5273 67.8516 36.0742 68.125C37.1289 68.6328 38.1641 69.1406 39.2188 69.6484C39.3555 69.7266 39.5313 69.7266 39.6875 69.7852C39.7656 69.8242 39.8633 69.9414 39.8633 70.0391C39.8828 70.5273 39.8828 70.9961 39.8828 71.4844C39.8828 72.0312 39.8828 72.5977 39.8828 73.1445C39.8828 73.5938 39.8633 74.043 39.8633 74.4922C39.8633 75.3711 39.8633 76.2305 39.8633 77.1094C39.8242 77.168 39.8047 77.2266 39.8047 77.3438Z" fill="#F7FBFC"></path>
    <path d="M39.8047 56.4648C39.7656 56.2891 39.7266 56.0938 39.668 55.8984C39.4141 54.9023 39.1602 53.9062 38.8867 52.9297C38.8477 52.7734 38.9258 52.7148 39.0234 52.6367C39.7461 52.0898 40.5859 51.7383 41.4062 51.3477C42.207 50.9766 43.0078 50.6055 43.7891 50.2344C43.9453 50.1563 44.0039 50.1758 44.0625 50.3516C44.082 50.4297 44.1797 50.5469 44.2578 50.5664C44.4531 50.6055 44.4336 50.7422 44.4531 50.8594C44.5898 51.6602 44.7266 52.4609 44.8828 53.2617C44.9219 53.4375 44.9609 53.5938 45 53.7891C43.1445 54.4531 41.6406 55.7227 39.8047 56.4648Z" fill="#F7FBFC"></path>
    <path d="M42.168 73.457C42.168 73.2422 42.168 73.0859 42.168 72.9297C42.168 72.2656 42.168 71.6016 42.1875 70.9375C42.1875 70.8594 42.2461 70.7422 42.3047 70.7227C43.0859 70.332 43.8672 69.9414 44.6484 69.5703C44.9023 69.4531 45.1953 69.375 45.4688 69.2578C45.957 69.043 46.4453 68.8086 46.9336 68.5742C47.2266 68.4375 47.5195 68.3008 47.8711 68.1445C47.9102 68.2812 47.9688 68.3984 47.9883 68.5156C48.0273 69.2383 48.0469 69.9609 48.0859 70.6836C48.0859 70.8203 48.0469 70.8789 47.9297 70.918C47.1875 71.2109 46.4258 71.4844 45.6836 71.7969C44.9609 72.1094 44.2383 72.4609 43.5352 72.793C43.0859 73.0078 42.6562 73.2227 42.168 73.457Z" fill="#8CCFFF"></path>
    <path d="M68.7891 55.6836C68.0469 55.9375 67.3047 56.2109 66.582 56.4648C66.1328 56.6211 65.6836 56.7969 65.2344 56.9922C64.4531 57.3633 63.6719 57.7148 62.9297 58.125C62.2852 58.4766 61.6602 58.9062 61.0352 59.3164C60.5273 59.6484 60.0586 60 59.5703 60.3516C59.5117 60.4102 59.4336 60.4883 59.4336 60.5859C59.3945 60.9375 59.3555 61.3086 59.375 61.6602C59.3945 62.0703 59.5117 62.5 59.5508 62.9102C59.5703 63.125 59.6289 64.2187 59.8242 64.3164C59.8633 64.4141 59.8828 64.5312 59.9023 64.6484C60.0586 65.3906 60.1758 66.1523 60.3125 66.8945C60.4492 67.6562 60.5664 68.4375 60.7031 69.1992C60.7422 69.4141 60.8594 69.4922 61.0742 69.3945C61.3086 69.2578 61.5234 69.082 61.7773 68.9453C62.4023 68.5742 63.0469 68.2422 63.6719 67.8711C64.1016 67.6367 64.5117 67.3828 64.9414 67.1289C65.1172 67.0313 65.293 66.9141 65.5078 66.7773C65.918 66.6016 66.4453 66.2695 66.4844 66.1328C66.6211 65.2734 66.7578 64.4336 66.9336 63.5742C67.1484 62.5781 67.3828 61.6016 67.6562 60.625C68.0664 59.1016 68.418 57.5781 68.9648 56.1133C69.0039 55.9961 68.9844 55.8398 69.0039 55.6641C68.8477 55.6641 68.8086 55.6641 68.7891 55.6836Z" fill="#8CCFFF"></path>
    <path d="M56.6016 64.8047C57.3828 64.375 58.1836 63.9453 58.9844 63.4961C59.3359 65.3711 59.6875 67.2656 60.0586 69.1992C59.8828 69.1797 59.7266 69.1602 59.5703 69.1211C59.0625 69.0039 58.6524 68.7305 58.2422 68.3984C57.8711 68.1055 57.4609 67.832 57.0313 67.6172C56.6602 67.4219 56.7188 67.1484 56.7188 66.7969C57.1484 66.9531 57.4805 66.7188 57.8516 66.582C57.9297 66.543 58.0078 66.5039 58.0664 66.4648C58.3789 66.2305 58.3984 65.8984 58.0664 65.6836C57.5977 65.3711 57.1094 65.0977 56.6016 64.8047Z" fill="#8CCFFF"></path>
    <path d="M41.9141 78.2422C41.6016 78.1445 41.3281 78.0664 41.0742 77.9492C40.9961 77.9102 40.8984 77.793 40.8984 77.7148C40.8398 76.0156 40.7812 74.3164 40.8789 72.6172C40.918 71.8555 40.8984 71.0742 40.8984 70.3125C40.8984 70.2344 40.8984 70.1562 40.8984 70.0977C40.918 70.0781 40.9375 70.0781 40.957 70.0586C41.1914 70.2344 41.4258 70.4102 41.6406 70.5859C41.6797 70.625 41.6797 70.7031 41.6797 70.7617C41.6797 72.2266 41.6602 73.6914 41.6992 75.1562C41.7188 76.1328 41.8359 77.0898 41.9141 78.0664C41.9336 78.1055 41.9141 78.1641 41.9141 78.2422Z" fill="#F7FBFC"></path>
    <path d="M50.1758 46.25C50.0195 45.6836 49.8047 45.1172 49.3555 44.6875C49.375 44.668 49.3945 44.6484 49.4141 44.6289C49.4727 44.668 49.5508 44.707 49.6094 44.7656C49.9023 45.1562 50.1953 45.5664 50.4883 45.957C50.5078 45.9766 50.5469 45.9766 50.5469 45.9375C50.7227 45.8594 50.8984 45.8008 51.0742 45.7227C51.0742 45.7813 51.0938 45.8008 51.0742 45.8008C51.0156 45.918 50.957 46.0156 50.8984 46.1328C51.0352 46.1719 51.1719 46.2305 51.2891 46.2305C51.4648 46.2305 51.6211 46.1914 51.7969 46.1719C52.1484 46.1523 52.3828 46.3477 52.5195 46.6211C52.6562 46.8945 52.6367 47.207 52.4609 47.4414C52.0898 47.9492 51.6992 48.4375 51.2891 48.9062C51.0742 49.1602 51.0156 49.1211 50.8008 48.8672C50.5078 48.5547 50.4102 48.1641 50.2734 47.7734C50.1367 47.3438 50.332 46.9727 50.5469 46.6406C50.5664 46.6016 50.6641 46.6016 50.7031 46.5625C50.7812 46.5039 50.8398 46.4258 50.8984 46.3672C50.8203 46.3086 50.7617 46.1914 50.6836 46.1914C50.5469 46.1914 50.3711 46.2305 50.1758 46.25Z" fill="#8CCFFF"></path>
    <path d="M50.9766 45.332C50.9766 44.9023 50.957 44.4922 50.9766 44.082C51.0156 43.0664 51.3281 42.1484 52.2461 41.6016C52.5391 41.4258 52.8906 41.3477 53.2227 41.2109C53.2617 41.1914 53.3008 41.2109 53.3398 41.2305C53.5547 42.3242 51.9531 45.0977 50.9766 45.332Z" fill="#8CCFFF"></path>
    <path d="M49.8633 46.2695C49.375 46.1133 48.8867 45.9961 48.4375 45.8398C48.125 45.7422 47.8516 45.5859 47.5586 45.4297C47.3633 45.332 47.2656 45.1367 47.3242 44.9219C47.3633 44.7461 47.6562 44.5898 47.8711 44.5703C48.5938 44.5312 49.1406 44.7852 49.4531 45.4688C49.5703 45.7031 49.7266 45.918 49.8633 46.1328C49.8633 46.1719 49.8633 46.1914 49.8633 46.2695Z" fill="#8CCFFF"></path>
    <path d="M49.4922 47.9492C49.5508 48.0078 49.6484 48.0273 49.668 48.1055C49.8828 48.6914 50.2148 49.1992 50.7617 49.5313C50.3906 49.7266 49.9414 49.6289 49.8047 49.2773C49.6484 48.8672 49.5312 48.418 49.3945 48.0078C49.4336 47.9883 49.4727 47.9688 49.4922 47.9492Z" fill="#F7FBFC"></path>
    <path d="M50.4492 44.9219C50.4883 45.1562 50.4687 45.4102 50.7812 45.4492C50.7227 45.5273 50.6836 45.5859 50.6445 45.6445C50.4883 45.3906 50.332 45.1562 50.1562 44.9023C50.2539 44.9219 50.3516 44.9219 50.4492 44.9219Z" fill="#F7FBFC"></path>
    <path d="M45.5469 44.6094C45.4688 43.7891 45.4297 42.9688 45.4102 42.1484C45.3906 40.957 45.4102 39.7852 45.4102 38.5938H45.293C45.293 37.6758 45.3125 36.7773 45.293 35.8594C45.2734 35.2148 45.2344 34.5508 45.1758 33.9063C45.1367 33.5156 44.9414 33.418 44.5703 33.5742C44.375 33.6523 44.2188 33.7695 44.0234 33.8477C42.6758 34.4336 41.3086 34.9805 39.9609 35.5859C38.5156 36.2305 37.0898 36.9141 35.6641 37.5977C34.9219 37.9492 34.1797 38.3398 33.4375 38.6719C32.832 38.9648 32.207 39.2188 31.6016 39.4922C30.9375 39.7852 30.2734 40.0781 29.6289 40.3906C29.3555 40.5273 29.082 40.7422 28.9062 40.9766C28.7695 41.1719 28.75 41.4844 28.7695 41.7383C28.8086 42.8906 28.8672 44.0625 28.9258 45.2148C28.9648 45.8984 29.0625 46.582 29.082 47.2656C29.1211 48.6719 29.1211 50.0781 29.1602 51.4844C29.1797 51.9727 29.2188 52.4805 29.2578 52.9688C29.2773 53.2227 29.6094 53.3789 29.8633 53.2617C30.5469 52.9492 31.25 52.6367 31.9336 52.3047C32.4219 52.0703 32.9102 51.8164 33.3984 51.5625C34.1211 51.2109 34.8438 50.8789 35.5469 50.5273C36.3477 50.1172 37.1484 49.707 37.9492 49.2773C38.6719 48.8867 39.4141 48.4961 40.1367 48.1055C40.8008 47.7539 41.4453 47.3438 42.1289 47.0313C43.1055 46.582 44.1211 46.1719 45.0391 45.6055C45.4883 45.3711 45.5859 45.1367 45.5469 44.6094ZM33.7891 46.1133C33.7695 46.1328 33.6914 46.1328 33.6523 46.1328C33.5742 46.1328 33.4961 46.1328 33.4375 46.1719C32.6172 46.6602 31.7969 47.168 30.9766 47.6758C30.8984 47.7148 30.8203 47.7734 30.7227 47.8125C30.4492 47.9297 30.3516 47.9102 30.2734 47.6172C30.1758 47.2266 30.0977 46.8164 30.0391 46.4063C29.9219 45.7227 29.8047 45.0586 29.707 44.375C29.6484 43.9648 29.6289 43.5547 29.5898 43.0664C29.5703 42.9492 29.6289 42.793 29.8047 42.7148C30.0977 42.5977 30.3906 42.4805 30.6836 42.3633C30.8398 42.3047 31.0156 42.2656 31.1719 42.207C31.6602 42.0117 32.1484 41.8164 32.6562 41.6406C32.8906 41.5625 33.0664 41.6797 33.1055 41.9336C33.1836 42.4219 33.2227 42.9297 33.3008 43.418C33.418 44.1992 33.5547 44.9805 33.6914 45.7422C33.7109 45.8203 33.7695 45.8984 33.7891 45.9766C33.8086 45.9961 33.8086 46.0547 33.7891 46.1133ZM35.4297 41.4648C35.1562 41.5625 34.8633 41.6602 34.5898 41.7578C34.4141 41.8164 34.2383 41.8945 34.0625 41.9922C33.9258 42.0703 33.8672 41.9727 33.8477 41.875C33.8086 41.7187 33.7695 41.5625 33.7305 41.4062C33.6719 41.1719 33.5937 40.9375 33.5352 40.6836C33.5156 40.625 33.5742 40.5078 33.6328 40.4883C34.1016 40.293 34.5898 40.1172 35.0781 39.9414C35.1367 39.9219 35.293 40.0195 35.3125 40.0977C35.4102 40.4883 35.4688 40.8789 35.5469 41.2891C35.5859 41.3281 35.625 41.3477 35.6836 41.3867C35.5859 41.3867 35.5078 41.4258 35.4297 41.4648ZM35.9961 40.7031C35.9766 40.625 36.0938 40.4688 36.1914 40.4297C36.543 40.2539 36.8945 40.1172 37.2656 39.9609C37.4219 39.8828 37.5 39.9609 37.5391 40.1172C37.6172 40.5469 37.7148 40.9766 37.793 41.4062C37.8125 41.5039 37.8711 41.6016 37.9297 41.7578C37.4023 41.9531 36.8945 42.1289 36.3281 42.3438C36.2109 41.7773 36.0742 41.25 35.9961 40.7031ZM39.9414 47.4609C39.5117 47.7344 39.082 47.9688 38.6523 48.2422C38.4375 48.3789 38.418 48.3789 38.3398 48.1445C38.1836 47.7148 38.0273 47.2852 37.8516 46.875C37.7734 46.6797 37.8516 46.6016 38.0078 46.543C38.418 46.3477 38.8477 46.1719 39.2578 45.9766C39.375 45.918 39.4727 45.8594 39.6484 45.7617C39.707 45.957 39.7461 46.1523 39.8047 46.3281C39.8828 46.6406 39.9609 46.9531 40.0391 47.2656C40.0391 47.3047 40 47.4219 39.9414 47.4609ZM43.2813 45.332C43.1445 45.3906 42.9883 45.4102 42.8516 45.4688C42.0703 45.8008 41.2695 46.1328 40.4883 46.4648C40.2344 46.582 40.1758 46.582 40.1172 46.3086C40.0391 45.957 40.0195 45.6055 39.9805 45.2539C40 45.2539 40.0391 45.2539 40.0586 45.2344C39.9609 44.6094 39.8438 43.9844 39.7656 43.3398C39.6875 42.793 39.6484 42.2461 39.6094 41.6992C39.6094 41.6406 39.668 41.543 39.7266 41.5234C40.5078 41.1914 41.2891 40.8594 42.0703 40.5273C42.3438 40.4102 42.5977 40.3125 42.8711 40.1953C43.0078 40.1367 43.0664 40.1953 43.0664 40.3125C43.0859 40.4297 43.1055 40.5469 43.1055 40.6641C43.1641 41.3672 43.2422 42.0703 43.2813 42.7539C43.3203 43.418 43.3203 44.1016 43.3594 44.7852C43.3594 44.8438 43.3594 44.9219 43.3789 44.9609C43.5742 45.1758 43.418 45.2539 43.2813 45.332Z" fill="#F7FBFC"></path>
    <path d="M43.3984 44.9805C43.3594 44.9414 43.3789 44.8633 43.3789 44.8047C43.3594 44.1211 43.3398 43.457 43.3008 42.7734C43.2617 42.0703 43.1836 41.3867 43.125 40.6836C43.1055 40.5664 43.0859 40.4492 43.0859 40.332C43.0664 40.2148 43.0078 40.1562 42.8906 40.2148C42.6172 40.332 42.3633 40.4297 42.0898 40.5469C41.3086 40.8789 40.5273 41.2109 39.7461 41.543C39.6875 41.5625 39.6289 41.6602 39.6289 41.7188C39.668 42.2656 39.7266 42.8125 39.7852 43.3594C39.8633 43.9844 39.9805 44.6094 40.0781 45.2539C40.0586 45.2539 40.0195 45.2539 40 45.2734C40.0391 45.625 40.0586 45.9766 40.1367 46.3281C40.1953 46.582 40.2539 46.582 40.5078 46.4844C41.2891 46.1523 42.0703 45.8203 42.8711 45.4883C43.0078 45.4297 43.1641 45.4102 43.3008 45.3516C43.418 45.2539 43.5742 45.1758 43.3984 44.9805ZM43.125 44.9609C43.125 45.0195 43.0664 45.0977 43.0273 45.1172C42.0508 45.293 41.2695 45.8984 40.3906 46.3086C40.3711 46.3086 40.3711 46.3086 40.3125 46.3281C40.293 46.1719 40.2539 46.0156 40.2539 45.8594C40.2734 45.0586 40.0977 44.2773 39.9805 43.4961C39.9023 42.9492 39.8438 42.3828 39.8047 41.8164C39.8047 41.7578 39.9219 41.6406 40 41.6211C40.7422 41.2891 41.5039 40.9766 42.2656 40.6641C42.4609 40.5859 42.6563 40.5078 42.832 40.4297C42.9297 41.4453 43.0273 42.4414 43.1055 43.457C43.1445 43.9648 43.125 44.4727 43.125 44.9609Z" fill="#1D2426"></path>
    <path d="M33.7891 45.9375C33.7695 45.8594 33.6914 45.7812 33.6914 45.7031C33.5547 44.9219 33.418 44.1406 33.3008 43.3789C33.2227 42.8906 33.1641 42.3828 33.1055 41.8945C33.0664 41.6406 32.8906 41.5234 32.6562 41.6016C32.1484 41.7773 31.6602 41.9727 31.1719 42.168C31.0156 42.2266 30.8398 42.2656 30.6836 42.3242C30.3906 42.4414 30.0977 42.5586 29.8047 42.6758C29.6289 42.7539 29.5508 42.9102 29.5898 43.0273C29.6289 43.5156 29.6484 43.9258 29.707 44.3359C29.8047 45.0195 29.9219 45.6836 30.0391 46.3672C30.1172 46.7773 30.1758 47.1875 30.2734 47.5781C30.3516 47.8711 30.4492 47.9102 30.7227 47.7734C30.8008 47.7344 30.8789 47.6953 30.9766 47.6367C31.7969 47.1289 32.6172 46.6406 33.4375 46.1328C33.4961 46.0938 33.5938 46.1133 33.6523 46.0938C33.6914 46.0938 33.7695 46.0937 33.7891 46.0742C33.8086 46.0547 33.8086 45.9961 33.7891 45.9375ZM33.3984 45.957C32.4805 46.5234 31.5625 47.0703 30.6055 47.6562C30.5273 47.4219 30.4297 47.2266 30.3906 47.0117C30.2539 46.2109 30.1367 45.4102 30.0391 44.6094C29.9609 44.0625 29.9023 43.5156 29.8438 42.9688C29.8438 42.9102 29.8828 42.8125 29.9414 42.793C30.1563 42.6953 30.3906 42.5977 30.6055 42.5195C31.0352 42.3633 31.4844 42.207 31.9336 42.0508C32.2461 41.9531 32.5586 41.8359 32.8906 41.7383C33.0273 42.6758 33.1641 43.5938 33.3008 44.4922C33.3594 44.9023 33.4375 45.3125 33.4961 45.7422C33.4766 45.8203 33.4375 45.918 33.3984 45.957Z" fill="#1D2426"></path>
    <path d="M40.0195 47.2461C39.9609 46.9336 39.8633 46.6211 39.7852 46.3086C39.7461 46.1133 39.6875 45.9375 39.6289 45.7422C39.4531 45.8398 39.3555 45.918 39.2383 45.957C38.8281 46.1523 38.418 46.3477 37.9883 46.5234C37.832 46.6016 37.7539 46.6797 37.832 46.8555C38.0078 47.2656 38.1641 47.7148 38.3203 48.125C38.3984 48.3594 38.418 48.3594 38.6328 48.2227C39.0625 47.9687 39.4922 47.7148 39.9219 47.4414C40 47.4219 40.0391 47.3047 40.0195 47.2461ZM38.5742 48.0664C38.3594 47.5977 38.1641 47.1484 37.9297 46.6406C38.4375 46.4453 38.9648 46.2305 39.5508 46.0156C39.6484 46.4453 39.7266 46.8555 39.8047 47.2266C39.375 47.5 38.9648 47.793 38.5742 48.0664Z" fill="#1D2426"></path>
    <path d="M35.5469 41.2695C35.4688 40.8789 35.4102 40.4688 35.3125 40.0781C35.293 40 35.1367 39.9023 35.0781 39.9219C34.5898 40.0781 34.1016 40.2734 33.6328 40.4688C33.5937 40.4883 33.5352 40.6055 33.5352 40.6641C33.5937 40.8984 33.6523 41.1523 33.7305 41.3867C33.7695 41.543 33.7891 41.6992 33.8477 41.8555C33.8867 41.9531 33.9258 42.0508 34.0625 41.9727C34.2383 41.875 34.4141 41.8164 34.5898 41.7383C34.8633 41.6406 35.1367 41.543 35.4297 41.4453C35.5078 41.4258 35.5859 41.3867 35.6641 41.3477C35.625 41.3281 35.5859 41.3086 35.5469 41.2695ZM35.1953 41.3672C34.8047 41.5039 34.4336 41.6211 34.043 41.7578C33.9453 41.3867 33.8477 41.0156 33.75 40.625C34.1797 40.4688 34.6289 40.293 35.0781 40.1172C35.1562 40.4687 35.2148 40.8008 35.293 41.1133C35.3516 41.2695 35.332 41.3281 35.1953 41.3672Z" fill="#1D2426"></path>
    <path d="M37.793 41.4258C37.6953 40.9961 37.6172 40.5664 37.5391 40.1367C37.5 39.9609 37.4219 39.9023 37.2656 39.9805C36.9141 40.1367 36.543 40.2734 36.1914 40.4492C36.0938 40.4883 35.9961 40.6445 35.9961 40.7227C36.0938 41.2695 36.2109 41.7969 36.3281 42.3828C36.8945 42.168 37.4023 41.9922 37.9297 41.7969C37.8516 41.6211 37.8125 41.5234 37.793 41.4258ZM36.4648 42.1875C36.3477 41.6406 36.2305 41.1133 36.0938 40.5664C36.4648 40.4297 36.8555 40.2734 37.2266 40.1367C37.3633 40.6445 37.4805 41.1523 37.6172 41.6797C37.2266 41.8555 36.875 42.0117 36.4648 42.1875Z" fill="#1D2426"></path>
    <path d="M42.832 40.4297C42.9297 41.4453 43.0273 42.4414 43.1055 43.457C43.1445 43.9648 43.125 44.4727 43.125 44.9805C43.125 45.0391 43.0664 45.1172 43.0273 45.1367C42.0508 45.3125 41.2695 45.918 40.3906 46.3281C40.3711 46.3281 40.3711 46.3281 40.3125 46.3477C40.293 46.1914 40.2539 46.0352 40.2539 45.8789C40.2734 45.0781 40.1172 44.2969 39.9805 43.5156C39.8828 42.9688 39.8438 42.4023 39.8047 41.8359C39.8047 41.7773 39.9219 41.6797 40 41.6406C40.7422 41.3086 41.5039 40.9961 42.2656 40.6836C42.4609 40.5664 42.6758 40.4883 42.832 40.4297Z" fill="#8CCFFF"></path>
    <path d="M32.8711 41.7578C33.0078 42.6953 33.1445 43.6133 33.2812 44.5117C33.3398 44.9219 33.418 45.332 33.4766 45.7617C33.4766 45.8203 33.457 45.9375 33.3984 45.957C32.4805 46.5234 31.5625 47.0703 30.6055 47.6562C30.5273 47.4219 30.4297 47.2266 30.3906 47.0117C30.2539 46.2109 30.1367 45.4102 30.0391 44.6094C29.9609 44.0625 29.9023 43.5156 29.8438 42.9688C29.8438 42.9102 29.8828 42.8125 29.9414 42.793C30.1563 42.6953 30.3906 42.5977 30.6055 42.5195C31.0352 42.3633 31.4844 42.207 31.9336 42.0508C32.2266 41.9531 32.5391 41.8555 32.8711 41.7578Z" fill="#8CCFFF"></path>
    <path d="M38.5742 48.0664C38.3594 47.5977 38.1641 47.1484 37.9297 46.6406C38.4375 46.4453 38.9648 46.2305 39.5508 45.9961C39.6484 46.4258 39.7266 46.8359 39.8047 47.207C39.375 47.5 38.9648 47.793 38.5742 48.0664Z" fill="#8CCFFF"></path>
    <path d="M35.0977 40.1172C35.1758 40.4687 35.2344 40.8008 35.3125 41.1133C35.3516 41.25 35.332 41.3086 35.1953 41.3672C34.8047 41.4844 34.4336 41.6211 34.043 41.7578C33.9453 41.3867 33.8477 41.0156 33.75 40.625C34.1992 40.4688 34.6484 40.293 35.0977 40.1172Z" fill="#8CCFFF"></path>
    <path d="M37.6172 41.6797C37.2266 41.8555 36.875 42.0117 36.4648 42.1875C36.3477 41.6406 36.2305 41.1133 36.0938 40.5664C36.4648 40.4297 36.8555 40.293 37.2266 40.1367C37.3438 40.6641 37.4805 41.1523 37.6172 41.6797Z" fill="#8CCFFF"></path>
</svg>