<svg width="80" height="80" viewBox="0 0 80 80" fill="none" xmlns="http://www.w3.org/2000/svg">
<g clip-path="url(#clip0_2353_52088)">
<path d="M17.4254 56.717C10.0547 53.4528 9.37739 43.2564 16.2515 39.0459L64.7769 9.32416C71.4402 5.2429 80 10.0379 80 17.8517V71.7459C80 76.3045 76.3045 80 71.7459 80C70.5947 80 69.4562 79.7592 68.4036 79.293L17.4254 56.717Z" fill="url(#paint0_linear_2353_52088)"/>
<path d="M45.6396 40.3372L57.0613 28.9155H55.7119L44.8203 39.8071C45.0613 39.9999 45.3504 40.1926 45.6396 40.3372Z" fill="#BF8C15"/>
<path d="M42.4585 37.7348L51.2778 28.9155H49.9284L41.832 37.0119C42.0248 37.2529 42.2176 37.4938 42.4585 37.7348Z" fill="#BF8C15"/>
<path d="M40.1447 34.3131L45.4941 28.9155H44.1447L39.7109 33.3493C39.8555 33.6866 39.9519 33.9758 40.1447 34.3131Z" fill="#BF8C15"/>
<path d="M49.736 42.024L62.8445 28.9155H61.4951L48.6758 41.7348C49.0131 41.8312 49.3987 41.9276 49.736 42.024Z" fill="#BF8C15"/>
<path d="M55.3234 42.2167L67.1306 30.4095C67.227 29.9276 67.2752 29.3975 67.2752 28.9155L53.7812 42.4095C54.3114 42.3613 54.8415 42.3131 55.3234 42.2167Z" fill="#BF8C15"/>
<path d="M30.5548 73.7348H31.3259V70.3131L20.4343 51.8071L31.3259 33.4457V29.8794H30.6512L19.0849 49.3975L7.56683 29.8794H6.26562V32.3854L17.6391 51.7589L6.36201 70.7469C6.60297 71.6143 7.13309 72.3854 7.85599 72.9155L18.9885 54.1204L30.5548 73.7348Z" fill="#BF8C15"/>
<path d="M4.91406 73.6387C4.91406 74.0242 5.15503 74.4098 5.49238 74.6507C5.63695 74.7471 5.78153 74.7953 5.9743 74.7953C5.58876 74.458 5.25141 74.0242 4.91406 73.6387Z" fill="#BF8C15"/>
<path d="M74.9398 27.4699H68.9639C69.1085 27.6627 69.2049 27.8555 69.2049 28.0964C69.2049 28.3856 69.2049 28.6266 69.2049 28.9157H74.2169V70.3615C74.2169 72.7711 72.482 74.6988 70.3615 74.6988H33.735V74.5543V28.9157H36.8193C36.8193 28.6266 36.8193 28.3856 36.8193 28.0964C36.8193 27.8555 36.9157 27.6145 37.0603 27.4699H32.5302H5.30125V9.63861C5.30125 7.51812 7.22896 5.78319 9.6386 5.78319H52.0482V12.482C52.0964 12.482 52.0964 12.482 52.1446 12.482C52.4338 12.482 52.7229 12.5302 53.0121 12.5302H53.1085C53.2531 12.5302 53.3976 12.5784 53.494 12.7229V5.06029C53.494 4.67475 53.1567 4.3374 52.7711 4.3374H9.6386C6.45788 4.3374 3.85547 6.69885 3.85547 9.63861V28.6747V69.8796V70.3615C3.85547 71.5663 4.24101 72.6747 4.91571 73.6386C5.20487 74.0723 5.59041 74.4579 5.97595 74.7952C6.988 75.6627 8.2892 76.1928 9.6386 76.1928H10.1205H32.5302H70.3615C73.3013 76.1928 75.6627 73.5904 75.6627 70.4097V28.1928C75.6627 27.8073 75.3254 27.4699 74.9398 27.4699ZM6.40969 70.7952C6.3133 70.5061 6.26511 70.2169 6.26511 69.8796V32.3856V29.8796H7.56631H30.6025H31.3253V33.4458V70.3133V73.735H30.5543H10.1205C9.34945 73.735 8.57836 73.4458 7.90366 72.9639C7.18077 72.3856 6.65065 71.6145 6.40969 70.7952Z" fill="#1D2426"/>
<path d="M53.1076 13.494H53.0112C52.7221 13.494 52.4811 13.3977 52.192 13.4458C52.192 13.4458 52.192 13.3495 52.1438 13.3495C52.0956 13.3495 52.0474 13.3495 52.0474 13.3495V27.4699H38.457C38.6016 27.6627 38.698 27.8555 38.698 28.0965C38.698 28.3856 38.698 28.6266 38.698 28.9157H44.0956H45.445H49.8787H51.2281H55.6618H57.0112H61.445H62.7944H67.2281C67.2281 28.6266 67.2281 28.3856 67.2281 28.0965C67.2281 27.8555 67.3245 27.6145 67.4691 27.4699H53.4932V13.3013C53.3968 13.3977 53.2522 13.494 53.1076 13.494Z" fill="#1D2426"/>
<path d="M67.1319 23.7107C67.18 23.9035 67.3728 24.048 67.6138 24.048C67.662 24.048 67.7102 24.048 67.7584 24.048C67.9993 23.9517 68.1439 23.7107 68.0957 23.4697C67.9993 23.1324 67.903 22.8432 67.7584 22.5059C67.662 22.2649 67.3728 22.1203 67.1319 22.2167C66.8909 22.3131 66.7463 22.6023 66.8427 22.8432C66.9391 23.1324 67.0355 23.4215 67.1319 23.7107Z" fill="#BF8C15"/>
<path d="M65.5892 20.3372C65.6855 20.4818 65.8301 20.5782 66.0229 20.5782C66.1193 20.5782 66.2157 20.5782 66.2638 20.4818C66.5048 20.3372 66.553 20.048 66.4084 19.8071C66.2157 19.5179 66.0711 19.2288 65.8783 18.9878C65.7337 18.7468 65.4446 18.6986 65.2036 18.8914C64.9627 19.036 64.9145 19.3251 65.1072 19.5661C65.2518 19.8071 65.4446 20.0962 65.5892 20.3372Z" fill="#BF8C15"/>
<path d="M39.4209 21.1567C39.5172 21.2049 39.5654 21.2049 39.6618 21.2049C39.8546 21.2049 39.9992 21.1086 40.0956 20.964C40.2401 20.6748 40.3847 20.4339 40.5775 20.1447C40.7221 19.9037 40.6739 19.6146 40.4329 19.47C40.1919 19.3254 39.9028 19.3736 39.7582 19.6146C39.5654 19.9037 39.4209 20.1929 39.2281 20.482C39.0835 20.723 39.1799 21.0122 39.4209 21.1567Z" fill="#BF8C15"/>
<path d="M41.9286 18.1205C42.0731 18.1205 42.1695 18.0723 42.2659 17.9759C42.4587 17.7349 42.6996 17.5422 42.9406 17.3012C43.1334 17.1084 43.1334 16.8193 42.9406 16.6265C42.7478 16.4337 42.4587 16.4337 42.2659 16.6265C42.0249 16.8675 41.784 17.1084 41.543 17.3494C41.3502 17.5422 41.3502 17.8313 41.543 18.0241C41.6876 18.0723 41.784 18.1205 41.9286 18.1205Z" fill="#BF8C15"/>
<path d="M38.1212 24.7709C38.1694 24.7709 38.2176 24.7709 38.2176 24.7709C38.4104 24.7709 38.6514 24.6263 38.6995 24.3853C38.7959 24.0962 38.8441 23.807 38.9405 23.4697C39.0369 23.2287 38.8923 22.9396 38.6514 22.8432C38.4104 22.7468 38.1212 22.8914 38.0249 23.1323C37.9285 23.4697 37.8321 23.7588 37.7357 24.0962C37.6875 24.4335 37.8321 24.7227 38.1212 24.7709Z" fill="#BF8C15"/>
<path d="M63.2284 17.4457C63.3248 17.5421 63.4212 17.5903 63.5658 17.5903C63.7103 17.5903 63.8067 17.5421 63.9031 17.4457C64.0959 17.253 64.0959 16.9638 63.9031 16.771C63.6621 16.5301 63.4212 16.3373 63.1802 16.0964C62.9875 15.9036 62.6501 15.9518 62.5055 16.1445C62.3128 16.3373 62.361 16.6747 62.5537 16.8192C62.7947 17.012 63.0356 17.253 63.2284 17.4457Z" fill="#BF8C15"/>
<path d="M44.9174 15.6626C45.0138 15.6626 45.1102 15.6626 45.1584 15.5663C45.3993 15.4217 45.6885 15.2289 45.9776 15.0843C46.2186 14.9397 46.315 14.6506 46.1704 14.4096C46.0258 14.1687 45.7367 14.0723 45.4957 14.2169C45.2066 14.3614 44.9174 14.5542 44.6283 14.6988C44.4355 14.9397 44.3391 15.2289 44.4837 15.4217C44.5801 15.5663 44.7246 15.6626 44.9174 15.6626Z" fill="#BF8C15"/>
<path d="M48.3857 14.0721C48.4339 14.0721 48.4821 14.0721 48.5303 14.0721C48.8194 13.9757 49.1086 13.8793 49.4459 13.8311C49.6869 13.783 49.8797 13.4938 49.7833 13.2528C49.7351 13.0119 49.4459 12.8191 49.205 12.9155C48.8676 13.0119 48.5785 13.1083 48.2411 13.2046C48.0001 13.301 47.8556 13.542 47.9038 13.8311C48.0002 13.9275 48.1929 14.0721 48.3857 14.0721Z" fill="#BF8C15"/>
<path d="M59.4209 14.7954C59.71 14.94 59.9992 15.0845 60.2401 15.2291C60.3365 15.2773 60.3847 15.2773 60.4811 15.2773C60.6257 15.2773 60.8184 15.1809 60.9148 15.0363C61.0594 14.7954 60.963 14.5062 60.7221 14.3616C60.4329 14.2171 60.1437 14.0243 59.8546 13.8797C59.6136 13.7833 59.3245 13.8797 59.2281 14.1207C59.0835 14.4098 59.1799 14.699 59.4209 14.7954Z" fill="#BF8C15"/>
<path d="M55.9018 13.6385C56.1909 13.6867 56.5283 13.7831 56.8174 13.8313C56.8656 13.8313 56.9138 13.8313 56.962 13.8313C57.1548 13.8313 57.3475 13.6867 57.4439 13.4939C57.4921 13.253 57.3475 12.9638 57.1066 12.9156C56.7692 12.8192 56.4801 12.771 56.1427 12.6747C55.9018 12.6265 55.6126 12.771 55.5644 13.0602C55.468 13.3012 55.6608 13.5421 55.9018 13.6385Z" fill="#BF8C15"/>
<path d="M53.1099 12.5301H53.0135C52.7243 12.5301 52.4352 12.4819 52.146 12.4819C52.0978 12.4819 52.0978 12.4819 52.0496 12.4819C51.8086 12.5301 51.6641 12.6747 51.6641 12.9157C51.6641 13.1084 51.8086 13.3012 52.0496 13.3494C52.0978 13.3494 52.146 13.3494 52.146 13.3494C52.146 13.3494 52.146 13.4458 52.1942 13.4458C52.4833 13.4458 52.7243 13.494 53.0135 13.494H53.1099C53.2544 13.494 53.399 13.3976 53.4954 13.3012C53.5436 13.2048 53.5918 13.1084 53.5918 13.0121C53.5918 12.9157 53.5436 12.7711 53.4954 12.7229C53.399 12.5783 53.3026 12.5301 53.1099 12.5301Z" fill="#BF8C15"/>
<path d="M67.2768 28.9157C67.2286 29.4458 67.1804 29.9277 67.1323 30.4097C66.1684 36.4338 61.3973 41.2048 55.325 42.2169C54.8431 42.3133 54.313 42.3615 53.7829 42.3615C53.5419 42.3615 53.2527 42.3615 53.0118 42.3615C51.9033 42.3615 50.7949 42.2169 49.7347 41.9759C49.3491 41.8795 49.0118 41.7832 48.6744 41.6868C47.6142 41.3494 46.6021 40.8675 45.6383 40.2892C45.3491 40.0964 45.1082 39.9518 44.819 39.7591C43.9515 39.1326 43.1804 38.4579 42.4575 37.6868C42.2166 37.4458 42.0238 37.2048 41.831 36.9639C41.1563 36.1446 40.578 35.2289 40.1443 34.2651C39.9997 33.9759 39.8551 33.6386 39.7106 33.3012C39.1804 31.9036 38.8431 30.4097 38.7467 28.8675C38.7467 28.5783 38.7467 28.3374 38.7467 28.0482C38.7467 27.8073 38.6503 27.5663 38.5057 27.4217C38.4575 27.3735 38.3612 27.2771 38.313 27.2289C38.313 27.1807 38.313 27.1326 38.313 27.1326C38.313 26.8434 38.1202 26.6506 37.8792 26.6024C37.5901 26.6024 37.3973 26.7952 37.3491 27.0362C37.3491 27.0844 37.3491 27.1326 37.3491 27.1807C37.2527 27.2289 37.1563 27.2771 37.1082 27.3735C36.9636 27.5663 36.8672 27.7591 36.8672 28C36.8672 28.2892 36.8672 28.5301 36.8672 28.8193C37.2045 37.494 44.3371 44.3374 53.0118 44.3374C61.6865 44.3374 68.819 37.494 69.2045 28.9157C69.2045 28.6265 69.2045 28.3856 69.2045 28.0964C69.2045 27.8554 69.1082 27.6145 68.9636 27.4699C68.8672 27.3735 68.819 27.3253 68.7226 27.2771C68.7226 26.988 68.6744 26.6506 68.6744 26.3615C68.6262 26.1205 68.4335 25.9277 68.1443 25.9277C67.9033 25.9759 67.7106 26.2169 67.7106 26.4579C67.7588 26.6988 67.7588 26.988 67.7588 27.2771C67.6624 27.3253 67.6142 27.3735 67.566 27.4699C67.4214 27.6627 67.325 27.8554 67.325 28.0964C67.325 28.3856 67.2768 28.6265 67.2768 28.9157Z" fill="#BF8C15"/>
</g>
<defs>
<linearGradient id="paint0_linear_2353_52088" x1="40" y1="0" x2="40" y2="80" gradientUnits="userSpaceOnUse">
<stop stop-color="#EBFCF4"/>
<stop offset="1" stop-color="#9CF0C6"/>
</linearGradient>
<clipPath id="clip0_2353_52088">
<rect width="80" height="80" fill="white"/>
</clipPath>
</defs>
</svg>
