<svg width="80" height="80" viewBox="0 0 80 80" fill="none" xmlns="http://www.w3.org/2000/svg">
<g clip-path="url(#clip0_2353_51975)">
<path d="M0 68.8063C0 65.7684 1.3809 62.8953 3.75305 60.9976L63.753 12.9976C70.3007 7.75946 80 12.4212 80 20.8062V70C80 75.5229 75.5229 80 70 80H10C4.47715 80 0 75.5229 0 70V68.8063Z" fill="url(#paint0_linear_2353_51975)"/>
<path d="M48.1885 48.7686C47.8423 49.2343 47.544 49.6958 47.1977 50.1615C52.8424 50.5384 55.939 52.2026 56.0692 53.6909C56.2666 55.9473 50.4797 58.9208 41.934 59.6685C33.3883 60.4161 27.1687 58.4447 26.9755 56.2362C26.8453 54.7479 29.6059 52.5714 35.0514 51.2242C34.6775 50.8215 34.2598 50.471 33.8337 50.0245C27.5013 51.7396 25.3108 54.3501 25.4872 56.3664C25.7476 59.343 31.642 62.0202 42.012 61.1129C52.382 60.2057 57.7219 56.5456 57.4615 53.5691C57.2431 51.0726 53.7498 49.298 48.1885 48.7686Z" fill="#1D2426"/>
<path d="M39.998 38.0721C43.1787 38.0721 45.7811 35.4697 45.7811 32.289C45.7811 29.1083 43.1787 26.5059 39.998 26.5059C36.8173 26.5059 34.2148 29.1083 34.2148 32.289C34.2148 35.4697 36.8173 38.0721 39.998 38.0721ZM39.998 28.4336C42.1185 28.4336 43.8534 30.1685 43.8534 32.289C43.8534 34.4095 42.1185 36.1444 39.998 36.1444C37.8775 36.1444 36.1426 34.4095 36.1426 32.289C36.1426 30.1685 37.8775 28.4336 39.998 28.4336Z" fill="#BF8C15"/>
<path d="M73.2019 39.0359H74.1658C73.6838 20.9154 59.0332 6.31298 40.9609 5.83105V6.79491C58.5513 7.27684 72.72 21.4455 73.2019 39.0359Z" fill="#BF8C15"/>
<path d="M6.79198 41.4458H5.82812C6.55102 59.1807 20.8643 73.4458 38.551 74.1687V73.2048C21.3462 72.4819 7.51487 58.6506 6.79198 41.4458Z" fill="#BF8C15"/>
<path d="M38.551 6.79491V5.83105C20.6715 6.55395 6.31005 21.1082 5.82812 39.0359H6.79198C7.27391 21.6383 21.2016 7.5178 38.551 6.79491Z" fill="#BF8C15"/>
<path d="M40.9609 73.2048V74.1687C58.8887 73.6868 73.4429 59.2771 74.1658 41.4458H73.2019C72.479 58.7952 58.3585 72.7229 40.9609 73.2048Z" fill="#BF8C15"/>
<path d="M38.5508 8.67449C38.5508 9.34919 39.0809 9.87931 39.7556 9.87931C40.4303 9.87931 40.9604 9.34919 40.9604 8.67449V6.79497V5.83111V3.85521C40.9604 3.18051 40.4303 2.65039 39.7556 2.65039C39.0809 2.65039 38.5508 3.18051 38.5508 3.85521V5.83111V6.79497V8.67449Z" fill="#1D2426"/>
<path d="M40.9604 71.3249C40.9604 70.6502 40.4303 70.1201 39.7556 70.1201C39.0809 70.1201 38.5508 70.6502 38.5508 71.3249V73.2045V74.1683V76.1442C38.5508 76.8189 39.0809 77.349 39.7556 77.349C40.4303 77.349 40.9604 76.8189 40.9604 76.1442V74.1683V73.2045V71.3249Z" fill="#1D2426"/>
<path d="M76.1413 39.0361H74.1654H73.2015H71.322C70.6473 39.0361 70.1172 39.5663 70.1172 40.241C70.1172 40.9157 70.6473 41.4458 71.322 41.4458H73.2015H74.1654H76.1413C76.816 41.4458 77.3461 40.9157 77.3461 40.241C77.3461 39.5663 76.816 39.0361 76.1413 39.0361Z" fill="#1D2426"/>
<path d="M8.67253 41.4458C9.34723 41.4458 9.87735 40.9157 9.87735 40.241C9.87735 39.5663 9.34723 39.0361 8.67253 39.0361H6.79302H5.82916H3.85326C3.17856 39.0361 2.64844 39.5663 2.64844 40.241C2.64844 40.9157 3.17856 41.4458 3.85326 41.4458H5.82916H6.79302H8.67253Z" fill="#1D2426"/>
<path d="M39.5637 57.59C39.7083 57.6382 39.8528 57.6864 39.9974 57.6864C40.2866 57.6864 40.5757 57.59 40.8167 57.3491C41.0577 57.1081 43.3709 54.9876 46.1179 51.8551C46.4552 51.4214 46.8408 51.0358 47.2263 50.5539C51.3709 45.59 56.0456 38.7949 56.0456 33.0599C56.0456 24.1924 48.8649 17.0117 39.9974 17.0117C31.1299 17.0117 23.9492 24.2406 23.9492 33.1081C23.9492 38.6985 28.5757 45.59 32.7685 50.6021C33.154 51.0358 33.4914 51.4696 33.8769 51.9033C36.8167 55.2286 39.3227 57.4937 39.5637 57.59ZM39.9974 19.4696C47.5155 19.4696 53.636 25.59 53.636 33.1081C53.636 40.9153 43.0817 51.8551 39.9974 54.8431C38.6962 53.59 36.0938 50.9394 33.4914 47.6623C28.8649 41.831 26.407 36.819 26.407 33.1081C26.3589 25.59 32.4793 19.4696 39.9974 19.4696Z" fill="#1D2426"/>
</g>
<defs>
<linearGradient id="paint0_linear_2353_51975" x1="40" y1="0" x2="40" y2="80" gradientUnits="userSpaceOnUse">
<stop stop-color="#9CF0C6"/>
<stop offset="1" stop-color="#EBFCF4"/>
</linearGradient>
<clipPath id="clip0_2353_51975">
<rect width="80" height="80" fill="white"/>
</clipPath>
</defs>
</svg>
