<svg viewBox="0 0 100 100" fill="none" xmlns="http://www.w3.org/2000/svg" class="size-full">
    <path d="M90.7812 77.2266C90.6641 77.2852 90.5664 77.3633 90.4297 77.3828C90.332 77.4023 90.1953 77.3633 90.0976 77.3242C89.5508 77.0117 89.0039 76.6797 88.4375 76.3477C87.9297 76.0547 87.4219 75.7617 86.9141 75.4297C86.1328 74.9219 85.3711 74.4141 84.5898 73.9062C84.0039 73.5156 83.418 73.1445 82.832 72.7344C82.1289 72.2461 81.4648 71.7383 80.7617 71.25C80.3906 70.9961 80 70.7422 79.6094 70.4883C79.0039 70.0977 78.3789 69.6875 77.7734 69.2969C77.1875 68.9258 76.6016 68.5937 76.0156 68.2226C75.2539 67.7344 74.5312 67.2266 73.7695 66.7383C73.2422 66.3867 72.6953 66.0547 72.168 65.7031C71.4648 65.2539 70.7617 64.7852 70.0781 64.3359C69.1601 63.7305 68.2227 63.125 67.2266 62.6562C66.1719 62.168 65.1172 61.6602 64.082 61.1719C62.9102 60.625 61.7578 60.0781 60.6055 59.5117C59.9805 59.2188 59.375 58.8672 58.75 58.5742C58.125 58.2617 57.5 57.9883 56.8945 57.6953C56.0742 57.3047 55.2539 56.9336 54.4141 56.543C54.1211 56.4062 53.8086 56.2891 53.5156 56.1328C52.7148 55.7227 51.9141 55.3125 51.1328 54.8828C50.5664 54.5703 50.0195 54.2383 49.375 54.1016C49.3164 54.082 49.2578 54.043 49.1992 54.043C49.1211 54.0234 49.043 54.0039 48.8867 53.9844C48.8867 53.8867 48.8672 53.7109 48.8477 53.4961C48.418 53.7695 48.0273 54.0234 47.6172 54.2578C47.207 54.4922 46.7969 54.7266 46.3867 54.9609C46.1914 55.0781 45.9961 55.2148 45.8203 55.3711C45.4883 55.6445 45.1758 55.9766 44.8242 56.2305C44.4922 56.4648 44.1211 56.6406 43.7695 56.8359C43.5742 56.9336 43.3984 57.0508 43.2031 57.168C42.8711 57.3633 42.5586 57.5391 42.2266 57.7148C41.2305 58.2617 40.2344 58.7891 39.2578 59.3359C37.9687 60.0586 36.6797 60.8203 35.4297 61.6406C34.4727 62.2461 33.4961 62.793 32.5 63.3594C31.6406 63.8477 30.7812 64.3164 29.9023 64.7852C29.1406 65.1953 28.3789 65.5469 27.6367 65.9766C26.3281 66.7383 25.0586 67.5391 23.7695 68.3008C22.5586 69.0039 21.3086 69.668 20.0781 70.3711C19.1211 70.918 18.1641 71.4844 17.207 72.0312C16.2109 72.5976 15.2148 73.1641 14.2383 73.75C13.8477 73.9844 13.4766 74.2383 13.0664 74.4336C12.5977 74.6484 12.1094 74.8633 11.6211 75C11.0547 75.1562 10.5664 75.4297 10.0781 75.7422C9.45312 76.1328 8.80859 76.5234 8.16406 76.875C7.65625 77.168 7.10937 77.4414 6.58203 77.7148C6.36719 77.8125 6.13281 77.8711 5.89844 77.9492V77.9102C6.75781 77.4219 7.63672 76.9336 8.49609 76.4453C9.51172 75.8789 10.5273 75.293 11.543 74.7266C12.1484 74.375 12.7734 74.0234 13.3789 73.6523C14.707 72.8516 16.0352 72.0508 17.3828 71.2695C18.0469 70.8789 18.7305 70.5469 19.3945 70.1758C20.2539 69.707 21.1328 69.2188 21.9922 68.7305C22.6953 68.3203 23.3984 67.9102 24.082 67.5C25.1953 66.8359 26.2891 66.1523 27.4023 65.5078C28.3203 64.9805 29.2383 64.4922 30.1758 64.0039C30.9766 63.5742 31.7969 63.1641 32.5977 62.7148C33.7305 62.0703 34.8242 61.3672 35.9375 60.6836C36.4844 60.3516 36.9922 60 37.5391 59.6875C37.9297 59.4531 38.3594 59.2578 38.7695 59.043C39.2773 58.7695 39.7852 58.4961 40.293 58.2227C40.6641 58.0273 41.0352 57.832 41.4062 57.6172C42.2461 57.1484 43.1055 56.6797 43.9453 56.1914C44.2383 56.0156 44.5117 55.7422 44.7852 55.5273C44.8242 55.4883 44.8438 55.4492 44.8828 55.4297C45.625 54.9414 46.2695 54.3359 47.1289 54.0039C47.5977 53.8281 48.0078 53.5156 48.457 53.2812C48.5547 53.2227 48.6719 53.2031 48.7109 53.1836V51.3477C48.7109 50.3711 48.7109 49.4141 48.7109 48.4375C48.7109 48.3203 48.7891 48.2227 48.8281 48.1055C48.8672 48.1055 48.8867 48.1055 48.9258 48.0859C48.9648 48.1836 49.0625 48.3008 49.0625 48.3984C49.0625 48.8672 49.043 49.3555 49.0625 49.8242C49.082 50.7812 49.1016 51.7383 49.1211 52.6953C49.1211 52.9492 49.1211 53.2031 49.1211 53.4766C49.8828 53.4375 50.4687 53.8086 51.0547 54.1406C51.6992 54.5117 52.3437 54.8828 53.0078 55.2344C54.1602 55.8203 55.3125 56.4062 56.4648 56.9727C57.0117 57.2461 57.5391 57.5195 58.0859 57.793C59.0625 58.2617 60.0391 58.7305 61.0156 59.1992C62.207 59.7852 63.3984 60.3711 64.5898 60.957C65.7031 61.5039 66.8555 61.9922 67.9297 62.6367C69.4726 63.5352 70.957 64.5312 72.4609 65.4883C73.2031 65.9766 73.9453 66.4648 74.6875 66.9531C76.1914 67.9101 77.7344 68.8476 79.2383 69.8242C80.4492 70.625 81.6406 71.4844 82.832 72.3047C83.5742 72.8125 84.3164 73.3398 85.0586 73.8477C85.8594 74.3945 86.6797 74.9219 87.5195 75.4297C88.2812 75.8984 89.0625 76.3086 89.8242 76.7578C90.1758 76.8945 90.4883 77.0703 90.7812 77.2266Z" fill="#1D2426"></path>
    <path d="M63.9062 83.2422C63.7695 82.5977 63.6328 81.9727 63.4766 81.3281C63.3398 80.7812 63.1836 80.2539 63.0664 79.707C62.9687 79.2773 62.9297 78.8281 62.832 78.3984C62.7539 78.0273 62.6562 77.6562 62.5976 77.2852C62.4805 76.5234 62.3828 75.7422 62.2852 74.9805C62.2266 74.4922 62.1875 74.0234 62.1875 73.5352C62.1484 72.2266 62.1094 70.8984 62.0703 69.5898C62.0703 69.4531 62.0508 69.3164 62.0312 69.1797C61.9922 68.9648 61.7383 68.8672 61.6602 69.0234C61.543 69.2383 61.4648 69.4727 61.3672 69.707C61.3477 69.7656 61.3477 69.8828 61.3086 69.8828C61.0547 69.9805 60.7812 70.0586 60.4883 70.1367C60.4883 69.9805 60.4688 69.8828 60.4688 69.7852C60.4688 69.4727 60.4883 69.1602 60.4688 68.8477C60.4102 67.8711 60.332 66.8945 60.293 65.918C60.2734 65.6641 60.2344 65.3711 60.5664 65.2539C60.7617 65.1758 60.957 65.0781 60.918 64.8047C61.0156 64.7656 61.1133 64.707 61.1328 64.6094C61.2109 64.3945 61.0547 64.2969 60.918 64.1992C60.7617 64.1016 60.6055 64.0234 60.4492 63.9258C59.4336 63.2227 58.4375 62.4805 57.3438 61.8945C57.0703 61.7578 56.8164 61.6016 56.543 61.4844C55.8594 61.1914 55.1953 60.8398 54.6094 60.3711C54.2578 60.0977 53.8672 59.9023 53.4766 59.668C52.9297 59.3164 52.3828 58.9844 51.8359 58.6523C51.7383 58.5937 51.543 58.5937 51.4453 58.6719C51.1328 58.9062 50.8203 59.1211 50.4492 59.2578C50 59.4141 49.5703 59.6484 49.1406 59.8437C48.9062 59.9609 48.6719 60.0781 48.4375 60.2148C48.1055 60.3906 47.7539 60.5664 47.4414 60.7617C47.0312 61.0156 46.6406 61.2891 46.2109 61.5234C45.6055 61.875 44.9805 62.168 44.375 62.5195C43.7695 62.8711 43.1836 63.2422 42.5586 63.5938C42.0508 63.8672 41.5039 64.0625 41.0156 64.375C40.2148 64.8828 39.375 65.332 38.4766 65.6641C37.8906 65.8984 37.3047 66.1523 36.7383 66.4648C36.3477 66.6797 35.9961 67.0312 35.625 67.2852C34.707 67.9102 33.75 68.4766 32.7148 68.9258C32.6172 68.9648 32.5195 69.0234 32.4414 69.1016C32.0898 69.3359 32.0898 69.6875 32.4609 69.9219C32.5391 69.9805 32.6562 70.0586 32.6758 70.1367C32.6953 70.3516 32.6758 70.5859 32.6758 70.8008C32.6758 71.6602 32.6562 72.5195 32.6562 73.3789C32.6562 74.2969 32.6758 75.1953 32.6953 76.1133L32.7344 78.8281C32.7344 79.3359 32.7344 79.8242 32.7539 80.332C32.7539 80.5273 32.9883 80.7812 33.1445 80.7617C33.3594 80.7422 33.4375 80.5664 33.4375 80.3711C33.4375 80.2148 33.457 80.0391 33.4766 79.8828C33.5156 78.7305 33.6133 77.5781 33.457 76.4258C33.3789 75.8594 33.3984 75.293 33.3789 74.7266C33.3594 73.8672 33.3398 73.0273 33.3398 72.1875C33.3398 71.875 33.3398 71.5625 33.3398 71.2109C33.4766 71.2891 33.5742 71.3477 33.6719 71.4062C34.4531 71.8359 35.2539 72.2461 36.0352 72.6758C36.7187 73.0469 37.4023 73.4375 38.1055 73.8086C38.5352 74.043 39.0039 74.2578 39.4336 74.4922C39.8633 74.707 40.293 74.9414 40.7031 75.1758C40.7617 75.2148 40.8008 75.293 40.8203 75.3516C40.8398 75.5469 40.8398 75.7422 40.8203 75.9375C40.7227 77.5195 40.7227 79.1211 40.8008 80.7031C40.8789 82.1875 40.9375 83.6719 40.9961 85.1562C40.9961 85.2148 41.0156 85.3125 41.0547 85.3516C41.2305 85.4883 41.4258 85.625 41.6602 85.7812C41.7188 85.5664 41.7969 85.4102 41.7969 85.2344C41.7773 84.0039 41.7383 82.7734 41.6797 81.543C41.6406 80.3516 41.543 79.1797 41.5234 77.9883C41.5039 77.2266 41.5625 76.4648 41.582 75.7031C41.582 75.4883 41.582 75.2539 41.582 75.0195C41.6406 75.0391 41.6797 75.0391 41.7188 75.0586C41.9141 75.1758 42.0703 75.1953 42.2266 75C42.2461 74.9609 42.3047 74.9609 42.3438 74.9414C42.6562 74.7852 42.9883 74.6484 43.3008 74.4922C43.8086 74.2383 44.2969 73.9648 44.7852 73.7109C45.6445 73.2617 46.4844 72.793 47.3242 72.3242C47.793 72.0508 48.2227 71.7383 48.6914 71.4844C49.3164 71.1328 49.9609 70.8008 50.6055 70.4883C51.4648 70.0586 52.3242 69.6484 53.1836 69.2383C53.7109 68.9844 54.2773 68.8086 54.7852 68.5352C55.5469 68.1445 56.2891 67.6953 57.0508 67.2656C57.7539 66.875 58.457 66.4844 59.1602 66.0938C59.2578 66.0352 59.3555 65.9961 59.4726 65.957C59.4922 66.0352 59.5117 66.0938 59.5117 66.1328C59.5508 66.9336 59.6094 67.7148 59.6289 68.5156C59.6484 69.1016 59.668 69.668 59.668 70.2539C59.668 70.332 59.6094 70.4687 59.5508 70.4883C58.9648 70.7812 58.3789 71.0742 57.793 71.3477C57.4414 71.5039 57.0898 71.6797 56.8164 71.9531C56.7383 72.0312 56.6211 72.1094 56.5625 72.1484C56.4258 72.1094 56.3281 72.0508 56.25 72.0508C55.9766 72.0703 55.6836 72.1094 55.4102 72.1484C54.6094 72.2852 53.8672 72.5977 53.1641 72.9883C52.0703 73.6133 51.0156 74.2773 50.4492 75.4687C50.4102 75.5273 50.332 75.5859 50.2734 75.625C50.1953 75.6836 50.0977 75.7031 50.0586 75.7812C49.9805 75.9961 49.9219 76.2109 49.9023 76.4258C49.8438 77.0117 49.8047 77.5977 49.7852 78.2031C49.7461 78.8672 49.7266 79.5312 49.707 80.1953C49.6875 80.8008 49.668 81.3867 49.6484 81.9922C49.6484 82.1875 49.6289 82.3828 49.6289 82.5781C49.5898 83.0664 49.5508 83.5547 49.5312 84.043C49.5312 84.1406 49.6484 84.2969 49.7461 84.3164C49.8437 84.3359 50.0391 84.2578 50.0586 84.1602C50.1953 83.8477 50.3125 83.5352 50.3711 83.2227C50.4492 82.6367 50.4883 82.0508 50.5273 81.4844C50.5469 81.2695 50.5664 81.0547 50.6055 80.8398C50.6445 80.5273 50.7031 80.2344 50.7617 79.9219C50.7812 79.8633 50.8008 79.7852 50.8203 79.7266C50.9375 79.043 51.0352 78.3789 51.1523 77.6953C51.1914 77.4219 51.2109 77.1484 51.25 76.8555C51.5039 76.9727 51.7383 77.0898 51.9531 77.1875C52.1094 77.2461 52.3047 77.2656 52.4023 77.3633C52.7344 77.7148 53.2031 77.7344 53.6133 77.9492C54.043 78.1641 54.4922 78.3398 54.9414 78.4766C55.4102 78.6328 55.5859 78.8867 55.5664 79.375C55.5469 79.8633 55.625 80.3711 55.6445 80.8594C55.6836 82.1875 55.7031 83.5351 55.7227 84.8633C55.7227 85.2344 55.7617 85.6055 55.7617 85.9766C55.7812 86.3867 55.7813 86.7773 55.8008 87.1875C55.8008 87.3633 55.8984 87.4609 56.0938 87.4609C56.2891 87.4609 56.3477 87.3438 56.3477 87.1875C56.3672 86.9141 56.3867 86.6406 56.3867 86.3672C56.4063 86.0156 56.3867 85.6641 56.4258 85.3125C56.4648 84.9414 56.543 84.5703 56.5625 84.1992C56.6211 83.418 56.6602 82.6367 56.7188 81.8555C56.7578 81.4258 56.875 80.9961 56.9141 80.5664C56.9531 80.0977 56.9531 79.6289 56.9727 79.1601C56.9922 78.7109 57.0703 78.6133 57.5195 78.4766C57.9883 78.3398 58.4375 78.1836 58.8867 78.0273C59.043 77.9883 59.1797 77.9102 59.3164 77.8516C59.5312 77.7539 59.7656 77.6953 59.9805 77.5781C60.1953 77.4609 60.3516 77.2461 60.5664 77.1289C60.7617 77.0117 60.9961 76.9336 61.25 76.8359C61.2695 76.8945 61.3086 76.9531 61.3281 77.0117C61.4844 77.5977 61.6211 78.2031 61.8164 78.7891C62.0117 79.4531 62.2461 80.0977 62.4609 80.7422C62.4805 80.8008 62.4609 80.8594 62.4609 80.8984C62.4805 81.0547 62.4609 81.2109 62.5195 81.3477C62.793 81.9922 63.0859 82.6172 63.3789 83.2617C63.418 83.3398 63.457 83.418 63.5156 83.4766C63.5742 83.5156 63.6719 83.5742 63.7305 83.5547C63.7891 83.5351 63.8281 83.4375 63.8672 83.3594C63.9258 83.3594 63.9258 83.3008 63.9062 83.2422ZM55.4688 74.5703C55.4883 75.4883 55.5078 76.4258 55.5273 77.3438C55.5273 77.4219 55.5273 77.5 55.5273 77.6758C55.2734 77.5586 55.0781 77.5 54.8828 77.3828C54.5898 77.207 54.3164 76.9922 54.0234 76.8359C53.1055 76.3867 52.168 75.957 51.25 75.5078C51.1523 75.4688 51.0547 75.4492 50.957 75.3906C51.3477 74.375 54.2969 72.5586 55.5469 72.5391C55.5273 72.6562 55.4883 72.7734 55.4883 72.8711C55.4688 73.2812 55.4492 73.6719 55.4492 74.082C55.4297 74.2578 55.4688 74.4141 55.4688 74.5703ZM59.5508 65.1367C58.418 65.7617 57.2852 66.3672 56.1719 66.9922C55.2344 67.5 54.3359 68.0664 53.3984 68.5547C52.5781 68.9844 51.7188 69.3164 50.8789 69.7266C50.1953 70.0586 49.5117 70.4297 48.8477 70.7812C47.4219 71.543 46.0156 72.3242 44.5703 73.0664C43.7305 73.5156 42.8711 73.9062 42.0117 74.3359C41.9336 74.375 41.8164 74.375 41.7383 74.3359C41.1133 74.043 40.4883 73.7109 39.8633 73.418C39.0234 73.0078 38.1641 72.6562 37.3437 72.207C36.5234 71.7578 35.7422 71.25 34.9414 70.7617C34.3359 70.3906 33.7305 70.0195 33.125 69.6484C33.0273 69.5898 32.9297 69.5117 32.7734 69.4141C32.9102 69.3555 32.9883 69.2969 33.0664 69.2578C34.2969 68.7305 35.4297 68.0273 36.4648 67.1875C37.0117 66.7383 37.6758 66.5039 38.2812 66.2109C38.7305 65.9961 39.2188 65.8594 39.668 65.6445C39.9805 65.4883 40.2734 65.293 40.5859 65.1172C41.1328 64.8242 41.6797 64.5508 42.207 64.2578C42.6758 64.0039 43.125 63.7305 43.5742 63.4375C44.5117 62.832 45.4492 62.207 46.4648 61.7383C46.7383 61.6211 46.9922 61.4648 47.2266 61.2891C47.8711 60.7617 48.5742 60.3516 49.3359 60.0195C49.8047 59.8242 50.2734 59.6289 50.7422 59.4336C50.9961 59.3359 51.2109 59.1602 51.4258 59.0039C51.543 58.9258 51.6406 58.9062 51.7578 58.9844C51.9922 59.1406 52.2266 59.2969 52.4609 59.4531C52.6758 59.5898 52.8906 59.707 53.1055 59.8242C53.457 60.0391 53.8281 60.2148 54.1406 60.4492C55.1172 61.2109 56.25 61.7188 57.3242 62.3438C58.2226 62.8711 59.082 63.457 59.9609 64.0039C60.0781 64.082 60.1953 64.1211 60.3125 64.1992C60.4492 64.2773 60.5664 64.3555 60.7422 64.4336C60.3125 64.6875 59.9414 64.9219 59.5508 65.1367ZM61.0742 75.7031C60.7812 75.8984 60.4883 76.0742 60.1758 76.2305C60 76.3281 59.7852 76.3086 59.5898 76.3867C59.2188 76.543 58.8477 76.7188 58.4766 76.8945C58.0078 77.1094 57.5586 77.3242 57.0898 77.5195C56.9727 77.5781 56.8164 77.5781 56.6797 77.5977C56.4063 77.5977 56.4062 77.5781 56.4258 77.3047C56.4453 77.0312 56.4453 76.7578 56.4648 76.4844C56.4648 76.4062 56.543 76.2891 56.6016 76.25C57.1875 75.8984 57.7539 75.5273 58.3594 75.2148C58.8867 74.9414 59.4531 74.7266 60 74.4727C60.3125 74.3359 60.6055 74.3555 60.8594 74.6094C60.957 74.707 61.0547 74.7852 61.1523 74.8828C61.3867 75.1172 61.3477 75.5273 61.0742 75.7031ZM61.2891 74.4336C61.1914 74.375 61.0937 74.3359 60.9961 74.2773C60.9961 74.2578 60.9961 74.2383 60.9961 74.1992C61.0937 74.1797 61.1914 74.1406 61.2695 74.1602C61.3086 74.1602 61.3086 74.2969 61.3281 74.375C61.3281 74.4141 61.3086 74.4141 61.2891 74.4336ZM61.4062 70.625C61.3867 71.1523 61.3281 71.6602 61.3086 72.1875C61.2891 72.5586 61.3086 72.9297 61.3281 73.3008C61.3476 73.4961 61.3086 73.5742 61.0937 73.6328C60.6641 73.7305 60.2344 73.8867 59.8242 74.0234C59.3555 74.1797 58.8672 74.3359 58.3984 74.5508C57.7734 74.8438 57.1094 75.1172 56.582 75.5859C56.543 75.6055 56.5039 75.625 56.4258 75.6641C56.4062 75.3906 56.4063 75.1562 56.3867 74.9219C56.3477 74.2969 56.3086 73.6719 56.2891 73.0469C56.2891 72.9688 56.3281 72.8711 56.3672 72.8125C56.5625 72.5977 56.7578 72.3633 56.9922 72.1875C57.7734 71.582 58.6719 71.1719 59.6094 70.8594C60.1172 70.7031 60.6055 70.5469 61.1133 70.3906C61.3672 70.3516 61.4062 70.3711 61.4062 70.625Z" fill="#1D2426"></path>
    <path d="M60.293 36.6406C60.0391 36.5234 59.7656 36.4453 59.5117 36.3867C59.2773 36.3281 58.9844 36.3672 58.7695 36.2695C58.1836 35.9766 57.5195 36.0547 56.9141 35.7812C56.3281 35.5273 55.6641 35.4492 55.0195 35.3516C53.6719 35.1562 52.3242 34.9805 50.957 34.8047C50.8594 34.7852 50.7812 34.7656 50.6445 34.7461C50.9375 34.375 51.2109 34.0625 51.4844 33.7305C51.7383 33.418 52.0117 33.1055 52.2461 32.793C52.5391 32.4023 52.832 31.9922 53.125 31.6016C53.4961 31.1328 53.8672 30.6836 54.2383 30.2148C54.707 29.6289 55.1758 29.043 55.6445 28.457C55.8594 28.1836 56.1133 27.9102 56.3281 27.6172C56.5625 27.3047 56.4844 27.0703 56.1328 26.9727C56.0938 26.9531 56.0352 26.9141 55.957 26.8555C56.0938 26.8164 56.1719 26.7773 56.3281 26.7383C56.2305 26.6992 56.2109 26.6992 56.1719 26.6992C55.4883 26.6992 54.8242 26.6797 54.1406 26.6992C53.3594 26.7187 52.5781 26.7969 51.7969 26.8555C51.543 26.875 51.3086 26.8555 51.0547 26.8555C50.6055 26.875 50.1367 26.9336 49.6875 26.9727C49.2578 26.9922 48.8281 26.9922 48.3984 27.0312C48.1836 27.0508 47.9102 27.0508 47.9688 27.4023C47.9688 27.4219 47.9492 27.4414 47.9297 27.4609C47.793 27.6562 47.6562 27.832 47.5195 28.0273C47.207 28.457 46.8555 28.8477 46.543 29.2773C46.1523 29.8047 45.7812 30.332 45.4297 30.8789C45.0391 31.4648 44.6484 32.0508 44.2773 32.6367C43.8672 33.3008 43.4766 34.0039 43.0664 34.6875C42.7734 35.1758 42.5 35.6836 42.2266 36.1914C42.0117 36.6016 41.7773 37.0117 41.6016 37.4414C41.3477 38.0859 41.5039 38.3008 42.207 38.3594C42.8516 38.418 43.5156 38.4375 44.1211 38.6133C45.1953 38.9258 46.2305 39.2969 47.3242 39.5117C48.0273 39.6484 48.75 39.7266 49.4727 39.7656C49.5703 39.7656 49.668 39.7656 49.8242 39.7656C49.6875 39.9609 49.5898 40.0977 49.4531 40.2344C49.1602 40.5664 48.8477 40.8594 48.5742 41.2109C47.9883 41.9922 47.4023 42.793 46.8359 43.5937C46.4062 44.2187 45.9961 44.8438 45.5664 45.4688C45.0586 46.2305 44.5312 47.0117 44.0234 47.7734C43.8867 47.9883 43.7305 48.2031 43.5937 48.3984C43.3789 48.6914 43.1055 48.9844 42.9297 49.2969C42.3438 50.2734 41.7969 51.2695 41.2305 52.2656C40.9766 52.7344 40.7227 53.2031 40.4883 53.6914C40.4492 53.7695 40.4883 53.8867 40.4883 53.9844C40.5859 53.9453 40.7031 53.9258 40.7812 53.8672C41.1523 53.4961 41.5234 53.125 41.8945 52.7539C42.5977 52.0898 43.2812 51.4062 44.0234 50.7812C44.7461 50.1562 45.5273 49.5898 46.2305 48.9453C47.2656 47.9883 48.418 47.207 49.5312 46.3867C50.4688 45.7031 51.3672 44.9805 52.1875 44.1797C52.9297 43.4766 53.6328 42.7344 54.3555 42.0117C55.1367 41.2305 55.9961 40.5078 56.875 39.8242C57.6563 39.2383 58.3984 38.6133 59.1602 38.0078C59.1992 37.9688 59.2578 37.9492 59.2969 37.9297C59.8047 37.8125 60.1172 37.4609 60.3906 37.0312C60.4883 36.8555 60.4492 36.6992 60.293 36.6406ZM58.8281 37.5195C58.7695 37.5586 58.6719 37.5977 58.6133 37.6562C58.125 38.0469 57.6563 38.457 57.168 38.8477C56.3281 39.5312 55.4492 40.1758 54.6094 40.8984C54.082 41.3281 53.6328 41.8359 53.1445 42.3242C52.793 42.6758 52.4805 43.0469 52.1094 43.3594C50.8984 44.4336 49.6875 45.5078 48.457 46.543C47.3438 47.4805 46.1719 48.3594 45.0586 49.2969C44.1992 50.0195 43.3984 50.8203 42.5781 51.582C42.3242 51.8164 42.0898 52.0508 41.7969 52.2461C41.9141 52.0508 42.0117 51.8555 42.1289 51.6602C42.8125 50.6641 43.5156 49.6875 44.1797 48.6914C44.668 47.9688 45.1367 47.2266 45.625 46.5039C46.1719 45.6836 46.7383 44.8437 47.3047 44.0234C47.9297 43.125 48.5742 42.2266 49.2383 41.3477C49.5703 40.8984 49.9414 40.4883 50.3125 40.0781C50.5078 39.8633 50.6055 39.6094 50.6445 39.3359C50.6445 39.2578 50.5273 39.1211 50.4492 39.1016C50.1172 39.0234 49.7852 38.9648 49.4531 38.9453C48.5352 38.9453 47.6367 38.8281 46.7578 38.5547C46.2891 38.3984 45.8203 38.3398 45.3516 38.2227C44.6289 38.0078 43.8867 37.8906 43.1445 37.8906C42.832 37.8906 42.5 37.8906 42.1875 37.8906C42.1094 37.8906 42.0312 37.8906 41.9531 37.8711C42.3438 37.2656 42.6953 36.6992 43.0469 36.1133C43.6328 35.1562 44.1992 34.1797 44.8047 33.2227C45.7227 31.7383 46.6602 30.2734 47.5977 28.7891C47.793 28.457 48.0078 28.1445 48.2227 27.832C48.2617 27.7734 48.3008 27.6953 48.3203 27.6367C48.3203 27.3047 48.5547 27.3437 48.7695 27.3437C49.4531 27.3242 50.1172 27.3047 50.8008 27.2656C51.2695 27.2461 51.7383 27.1484 52.207 27.1484C53.2422 27.168 54.2773 27.2266 55.3125 27.2656C55.332 27.2656 55.3516 27.2852 55.4102 27.3047C55.2148 27.5195 55.0195 27.7344 54.8437 27.9492C54.2969 28.6328 53.75 29.2969 53.2031 29.9805C53.0273 30.1953 52.8125 30.4102 52.6953 30.6445C52.5391 30.9766 52.2656 31.2305 52.0898 31.5234C51.9531 31.7383 51.8555 31.9922 51.6797 32.1289C51.4844 32.2852 51.3477 32.4805 51.2109 32.6953C50.8398 33.2617 50.4492 33.8086 50.0781 34.375C49.9609 34.5508 49.8633 34.7266 49.668 34.8437C49.5117 34.9414 49.5898 35.1562 49.8242 35.2148C50.1367 35.2734 50.4492 35.332 50.7422 35.3906C51.875 35.6055 53.0078 35.8203 54.1406 36.0156C54.5898 36.0937 55.0781 36.1133 55.5273 36.2109C56.0742 36.3477 56.6602 36.3672 57.168 36.6406C57.3438 36.7188 57.5586 36.7383 57.7539 36.7773C57.9883 36.8164 58.2031 36.8555 58.4375 36.875C58.5742 36.8945 58.7305 36.8555 58.8672 36.875C59.0625 36.8945 59.2773 36.9531 59.4727 36.9922C59.4727 37.0117 59.4727 37.0312 59.4922 37.0508C59.2578 37.207 59.043 37.3633 58.8281 37.5195Z" fill="#1D2426"></path>
    <path d="M49.4141 24.1406C49.4141 24.3945 49.3945 24.668 49.375 24.9219C49.375 24.9609 49.2969 25 49.2383 25.0195C49.1797 25.0391 49.1016 25.0195 48.9648 25.0195C49.0234 20.8984 49.0625 16.7969 49.1211 12.6953C49.1211 12.6563 49.1602 12.6367 49.2187 12.5391C49.2578 12.6758 49.2969 12.7539 49.2969 12.832C49.3164 13.2617 49.3164 13.6914 49.3164 14.1211C49.3359 15.4688 49.3555 16.8164 49.3555 18.1641C49.3555 19.3945 49.3555 20.6445 49.375 21.875C49.3945 22.6367 49.4141 23.3789 49.4141 24.1406Z" fill="#1D2426"></path>
    <path d="M95.0391 79.7852C95.0391 79.7852 95.0391 79.8047 95.0195 79.8047C94.8437 79.707 94.6484 79.6094 94.4726 79.5117C94.4531 79.5312 94.4531 79.5508 94.4336 79.5703C94.4922 79.6094 94.5703 79.6289 94.6289 79.668C94.6094 79.6875 94.5898 79.7266 94.5508 79.7656C93.8476 79.3359 93.1641 78.8477 92.5391 78.3008C92.5586 78.2812 92.5586 78.2617 92.5781 78.2422C92.793 78.3984 92.9883 78.5547 93.2031 78.6914C93.2812 78.75 93.3398 78.8086 93.3984 78.8477C93.5742 78.9648 93.7305 79.082 93.9453 79.1406C94.3359 79.2383 94.668 79.5312 95.0391 79.7461C95.0391 79.7656 95.0391 79.7852 95.0391 79.7852Z" fill="#1D2426"></path>
    <path d="M60.3125 64.1797C60.1953 64.1211 60.0781 64.0625 59.9609 63.9844C59.082 63.4375 58.2226 62.8516 57.3242 62.3242C56.25 61.6992 55.1367 61.1719 54.1406 60.4297C53.8281 60.1953 53.457 60 53.1055 59.8047C52.8906 59.668 52.6758 59.5508 52.4609 59.4336C52.2266 59.2773 51.9922 59.1211 51.7578 58.9648C51.6406 58.8867 51.543 58.8867 51.4258 58.9844C51.2109 59.1406 50.9766 59.2969 50.7422 59.4141C50.2734 59.6094 49.8047 59.8047 49.3359 60C48.5742 60.332 47.8711 60.7617 47.2266 61.2695C46.9922 61.4453 46.7383 61.6016 46.4648 61.7187C45.4492 62.1875 44.5117 62.8125 43.5742 63.418C43.125 63.7109 42.6758 63.9648 42.207 64.2383C41.6797 64.5312 41.1328 64.8047 40.5859 65.0976C40.2734 65.2734 40 65.4883 39.668 65.625C39.2188 65.8398 38.7305 65.9766 38.2812 66.1914C37.6562 66.4844 37.0117 66.7187 36.4648 67.168C35.4297 68.0078 34.2969 68.7109 33.0664 69.2383C32.9883 69.2773 32.9102 69.3164 32.7734 69.3945C32.9102 69.4922 33.0078 69.5703 33.125 69.6289C33.7305 70 34.3359 70.3711 34.9414 70.7422C35.7422 71.2305 36.5234 71.7383 37.3437 72.1875C38.1641 72.6172 39.0234 72.9883 39.8633 73.3984C40.4883 73.6914 41.1133 74.0234 41.7383 74.3164C41.8164 74.3555 41.9336 74.3555 42.0117 74.3164C42.8711 73.9062 43.7305 73.4961 44.5703 73.0469C45.9961 72.3047 47.4219 71.5234 48.8477 70.7617C49.5312 70.4101 50.1953 70.0391 50.8789 69.707C51.7187 69.2969 52.5781 68.9648 53.3984 68.5351C54.3359 68.0469 55.2344 67.5 56.1719 66.9726C57.3047 66.3476 58.4375 65.7422 59.5508 65.1172C59.9414 64.9023 60.332 64.668 60.7422 64.4141C60.5859 64.3359 60.4492 64.2578 60.3125 64.1797ZM51.9141 66.2305C51.6016 66.4258 51.2891 66.6406 50.9766 66.8359C50.5859 67.0703 50.1758 67.2656 49.7656 67.4609C49.4336 67.6367 49.1016 67.793 48.7695 67.9492C48.7305 67.9687 48.6914 67.9687 48.6719 67.9883C48.3594 68.2812 48.0273 68.1641 47.7148 68.0273C47.3242 67.8516 46.9336 67.6562 46.543 67.4609C46.3477 67.3633 46.1719 67.2656 45.9766 67.1875C45.4492 66.9726 45.3125 66.5039 45.1953 66.0156C45.0781 65.5664 44.9414 65.1172 44.8438 64.668C44.7656 64.375 44.7266 64.082 44.6875 63.7695C44.6875 63.6914 44.7266 63.5937 44.7656 63.5351C45.1172 63.2031 45.5078 62.9492 45.957 62.7539C46.25 62.6172 46.5234 62.4414 46.8164 62.2852C47.207 62.0898 47.5781 61.9141 47.9688 61.7383C48.0469 61.6992 48.125 61.6406 48.2031 61.582C48.4766 61.3672 48.7109 61.4062 48.7891 61.7383C49.043 62.6758 49.2773 63.5937 49.5117 64.5312C49.5312 64.5703 49.5117 64.6289 49.5117 64.707C50.3125 65.1562 51.1328 65.625 51.9531 66.0937V66.2305H51.9141Z" fill="#F7FBFC"></path>
    <path d="M56.4062 75.6836C56.3867 75.4297 56.3867 75.1758 56.3672 74.9414C56.3281 74.3164 56.2891 73.6914 56.2695 73.0664C56.2695 72.9883 56.3086 72.8906 56.3476 72.832C56.543 72.6172 56.7383 72.3828 56.9727 72.207C57.7539 71.6016 58.6523 71.1914 59.5898 70.8789C60.0977 70.7227 60.5859 70.5664 61.0937 70.4102C61.3476 70.332 61.3867 70.3516 61.3867 70.625C61.3672 71.1523 61.3086 71.6602 61.2891 72.1875C61.2695 72.5586 61.2891 72.9297 61.3086 73.3008C61.3281 73.4961 61.2891 73.5742 61.0547 73.6328C60.625 73.7305 60.1953 73.8867 59.7852 74.0234C59.3164 74.1797 58.8281 74.3359 58.3594 74.5508C57.7344 74.8438 57.0703 75.1172 56.543 75.5859C56.5234 75.625 56.4844 75.6445 56.4062 75.6836Z" fill="#FAC3CC"></path>
    <path d="M50.9375 75.4101C51.3281 74.3945 54.2773 72.5781 55.5273 72.5586C55.5078 72.6758 55.4687 72.793 55.4687 72.8906C55.4492 73.3008 55.4297 73.6914 55.4297 74.1016C55.4297 74.2578 55.4492 74.4141 55.4688 74.5703C55.4883 75.4883 55.5078 76.4258 55.5273 77.3438C55.5273 77.4219 55.5273 77.5 55.5273 77.6562C55.2734 77.5391 55.0781 77.4805 54.8828 77.3633C54.5898 77.1875 54.3164 76.9726 54.0234 76.8164C53.1055 76.3672 52.168 75.9375 51.25 75.4883C51.1523 75.4687 51.0547 75.4492 50.9375 75.4101Z" fill="#FAC3CC"></path>
    <path d="M56.6797 77.5977C56.4063 77.5977 56.4062 77.5781 56.4258 77.3047C56.4453 77.0312 56.4453 76.7578 56.4648 76.4844C56.4648 76.4062 56.5234 76.2891 56.6016 76.25C57.1875 75.8984 57.7539 75.5273 58.3594 75.2148C58.8867 74.9414 59.4531 74.7266 60 74.4727C60.3125 74.3359 60.6055 74.3555 60.8594 74.6094C60.957 74.707 61.0547 74.7852 61.1523 74.8828C61.3867 75.1172 61.3477 75.5078 61.0742 75.6836C60.7812 75.8594 60.4883 76.0547 60.1758 76.2109C60 76.2891 59.7852 76.2891 59.5898 76.3672C59.2187 76.5234 58.8476 76.6992 58.4766 76.875C58.0078 77.0898 57.5586 77.3047 57.0898 77.5C56.9726 77.5586 56.8164 77.5781 56.6797 77.5977Z" fill="#FAC3CC"></path>
    <path d="M41.9727 37.8906C42.3633 37.2852 42.7148 36.7187 43.0664 36.1328C43.6523 35.1758 44.2187 34.1992 44.8242 33.2617C45.7422 31.7773 46.6797 30.293 47.6172 28.8281C47.8125 28.4961 48.0273 28.1836 48.2422 27.8711C48.2812 27.8125 48.3203 27.7539 48.3203 27.6758C48.3203 27.3437 48.5547 27.3828 48.7695 27.3828C49.4531 27.3633 50.1172 27.3438 50.8008 27.3047C51.2695 27.2852 51.7383 27.1875 52.207 27.1875C53.2422 27.207 54.2773 27.2656 55.3125 27.3047C55.332 27.3047 55.3516 27.3242 55.4102 27.3437C55.2148 27.5586 55.0195 27.7734 54.8437 27.9883C54.2969 28.6523 53.75 29.3359 53.2031 30.0195C53.0273 30.2344 52.8125 30.4492 52.6953 30.6836C52.5391 31.0156 52.2656 31.2695 52.0898 31.5625C51.9531 31.7773 51.8555 32.0312 51.6797 32.168C51.4648 32.3242 51.3477 32.5195 51.2109 32.7344C50.8398 33.3008 50.4492 33.8477 50.0781 34.4141C49.9609 34.5898 49.8633 34.7656 49.668 34.8828C49.5117 34.9805 49.5898 35.1953 49.8242 35.2539C50.1367 35.3125 50.4297 35.3711 50.7422 35.4297C51.875 35.6445 53.0078 35.8594 54.1406 36.0547C54.5898 36.1328 55.0781 36.1523 55.5273 36.25C56.0742 36.3867 56.6406 36.4062 57.168 36.6797C57.3437 36.7773 57.5586 36.7773 57.7539 36.8164C57.9883 36.8555 58.2227 36.8945 58.4375 36.9141C58.5742 36.9336 58.7305 36.8945 58.8672 36.9141C59.0625 36.9336 59.2773 36.9922 59.4726 37.0312C59.4726 37.0508 59.4727 37.0703 59.4922 37.0898C59.2773 37.2461 59.0625 37.4023 58.8476 37.5586C58.7695 37.6172 58.6914 37.6367 58.6328 37.6953C58.1445 38.0859 57.6758 38.4961 57.1875 38.8867C56.3281 39.5703 55.4688 40.2148 54.6289 40.918C54.1211 41.3477 53.6523 41.8555 53.1641 42.3437C52.8125 42.6953 52.5 43.0664 52.1289 43.3789C50.918 44.4531 49.707 45.5273 48.4766 46.5625C47.3633 47.5 46.1914 48.3789 45.0781 49.3164C44.2188 50.0391 43.418 50.8398 42.5977 51.6016C42.3438 51.8359 42.1094 52.0703 41.8164 52.2656C41.9336 52.0703 42.0312 51.875 42.1484 51.6797C42.832 50.6836 43.5156 49.707 44.1992 48.7305C44.6875 48.0078 45.1562 47.2656 45.6445 46.543C46.1914 45.7227 46.7578 44.8828 47.3242 44.0625C47.9492 43.1641 48.5937 42.2656 49.2578 41.3867C49.5898 40.9375 49.9609 40.5273 50.332 40.1367C50.5273 39.9219 50.625 39.668 50.6641 39.3945C50.6641 39.3164 50.5469 39.1797 50.4687 39.1602C50.1367 39.082 49.8047 39.0234 49.4727 39.0234C48.5547 39.0234 47.6562 38.9062 46.7773 38.6133C46.3086 38.4766 45.8398 38.3984 45.3711 38.2812C44.6484 38.0859 43.9062 37.9492 43.1641 37.9492C42.8516 37.9492 42.5195 37.9492 42.207 37.9492C42.1484 37.9102 42.0703 37.9102 41.9727 37.8906Z" fill="#FAC3CC"></path>
    <path d="M49.4922 64.7656C49.4922 64.6875 49.5117 64.6289 49.4922 64.5898C49.2578 63.6523 49.0234 62.7148 48.7695 61.7969C48.6719 61.4648 48.457 61.4258 48.1836 61.6406C48.1055 61.6992 48.0469 61.7578 47.9492 61.7969C47.5586 61.9922 47.168 62.168 46.7969 62.3438C46.5039 62.5 46.2305 62.6758 45.9375 62.8125C45.4883 63.0078 45.0977 63.2617 44.7461 63.5938C44.6875 63.6523 44.6484 63.75 44.668 63.8281C44.707 64.1211 44.7656 64.4336 44.8242 64.7266C44.9414 65.1758 45.0586 65.625 45.1758 66.0742C45.293 66.5625 45.4297 67.0312 45.957 67.2461C46.1523 67.3242 46.3281 67.4219 46.5234 67.5195C46.9141 67.7148 47.3047 67.9102 47.6953 68.0859C48.0078 68.2227 48.3398 68.3398 48.6523 68.0469C48.6719 68.0273 48.7305 68.0273 48.75 68.0078C49.082 67.8516 49.4141 67.6758 49.7461 67.5195C50.1562 67.3047 50.5664 67.1094 50.957 66.8945C51.2891 66.7188 51.582 66.4844 51.8945 66.2891V66.1914C51.1133 65.6836 50.293 65.2148 49.4922 64.7656ZM49.043 64.5898C48.2617 64.8242 47.6367 65.332 46.9336 65.7031C46.5039 65.9375 46.0742 66.1523 45.6055 66.3867C45.4492 65.7812 45.293 65.1953 45.1367 64.6094C45.0781 64.3945 45.0391 64.1797 44.9805 63.9844C44.9414 63.8477 44.9609 63.7695 45.0781 63.6914C45.4492 63.4766 45.8008 63.2617 46.1719 63.0664C46.9141 62.6953 47.6953 62.3437 48.418 61.9922C48.5352 62.1094 48.6523 62.207 48.7305 62.3047C48.75 62.3437 48.7695 62.3828 48.7891 62.4219C48.9062 63.0469 49.0234 63.6914 49.1406 64.3164C49.1992 64.4727 49.1797 64.5508 49.043 64.5898Z" fill="#1D2426"></path>
    <path d="M45.625 66.3867C45.4688 65.7812 45.3125 65.1953 45.1562 64.6094C45.0977 64.3945 45.0586 64.1797 45 63.9844C44.9609 63.8477 44.9805 63.7695 45.1172 63.6914C45.4883 63.4766 45.8398 63.2617 46.2109 63.0664C46.9727 62.6953 47.7344 62.3437 48.457 61.9922C48.5742 62.1094 48.6914 62.207 48.7695 62.3047C48.7891 62.3437 48.8086 62.3828 48.8281 62.4219C48.9453 63.0469 49.0625 63.6914 49.1797 64.3164C49.1992 64.4336 49.1992 64.5312 49.0625 64.5703C48.2812 64.8047 47.6562 65.3125 46.9531 65.6836C46.5039 65.9375 46.0742 66.1523 45.625 66.3867Z" fill="#F7FBFC"></path>
</svg>