<svg width="80" height="80" viewBox="0 0 80 80" fill="none" xmlns="http://www.w3.org/2000/svg">
<path d="M0 36.728C0 29.1645 8.07235 24.3389 14.7344 27.9198L74.7344 60.1698C77.9772 61.9127 80 65.2965 80 68.978V70C80 75.5228 75.5229 80 70 80H10C4.47715 80 0 75.5228 0 70V36.728Z" fill="url(#paint0_linear_2353_52146)"/>
<path d="M59.7941 67.0331C59.5053 67.018 59.2165 67.0028 58.8797 66.9852C58.7353 66.9776 58.5909 66.9701 58.4465 66.9625C58.3021 66.9549 58.1578 66.9474 58.0159 66.8917C57.9678 66.8891 57.9197 66.8866 57.9197 66.8866L57.6901 71.2662C57.5918 73.1431 56.1839 75.1444 54.1144 75.036L8.39405 72.6399C6.42086 72.5365 4.64228 70.5612 4.74569 68.588L7.67398 12.7128C7.78244 10.6434 9.87186 9.4499 11.7007 9.54575L21.326 10.0502L21.4017 8.60639C21.4193 8.2695 21.4826 7.98326 21.5484 7.6489C21.5003 7.64638 21.5003 7.64638 21.4521 7.64385L11.8268 7.13941C8.36166 6.95781 5.43411 9.41037 5.26765 12.5867L2.34188 68.4137C2.16784 71.7345 4.94972 74.8241 8.27046 74.9981L53.9908 77.3942C57.1672 77.5607 59.9149 74.8574 60.099 71.3441L60.326 67.0127C60.2779 67.0102 60.2297 67.0077 60.1816 67.0052C60.0854 67.0001 59.941 66.9926 59.7941 67.0331Z" fill="#1D2426"/>
<path d="M47.8256 9.0257L26.7461 7.92097C26.0724 7.88565 25.5152 8.3873 25.4799 9.06108C25.4446 9.73485 25.9463 10.292 26.62 10.3273L47.7958 11.4371L47.8714 9.99328C47.8891 9.65639 47.8586 9.31698 47.8256 9.0257Z" fill="#1D2426"/>
<path d="M59.964 40.7889C60.1083 40.7964 60.2046 40.8015 60.349 40.809C60.4934 40.8166 60.5896 40.8217 60.734 40.8292L60.8784 40.8368C61.0228 40.8444 61.1671 40.8519 61.3115 40.8595C61.4559 40.8671 61.6003 40.8746 61.7421 40.9303L63.0688 15.6157C63.2454 12.2468 60.9651 9.71434 57.5963 9.53778L53.7461 9.336C53.0724 9.30069 52.5152 9.80234 52.4799 10.4761C52.4446 11.1499 52.9463 11.707 53.62 11.7423L57.4702 11.9441C59.4434 12.0475 60.7659 13.5163 60.6625 15.4895L59.3358 40.8042C59.3839 40.8067 59.432 40.8092 59.4802 40.8118C59.6271 40.7712 59.8196 40.7813 59.964 40.7889Z" fill="#1D2426"/>
<path d="M21.3266 10.0502L21.2509 11.494C21.2307 11.8791 21.55 12.2336 21.935 12.2538C22.32 12.274 22.6745 11.9547 22.6947 11.5697L22.846 8.68211C22.957 6.56453 24.9729 4.93286 27.3792 5.05897L44.2236 5.94174C46.1487 6.04263 47.5319 7.27334 47.8261 9.02608C47.8591 9.31736 47.8896 9.65677 47.8719 9.99366L47.7963 11.4375L47.7206 12.8813C47.7004 13.2663 48.0197 13.6208 48.4047 13.641C48.7897 13.6612 49.1442 13.3419 49.1644 12.9569L49.3158 10.0693C49.4772 6.98921 47.3794 4.65936 44.2993 4.49794L27.4549 3.61517C24.6154 3.46636 22.1588 5.21971 21.5489 7.64895C21.4857 7.93519 21.4199 8.26955 21.4022 8.60644L21.3266 10.0502Z" fill="#1D2426"/>
<path d="M75.9425 53.5947C75.9196 53.1109 75.8967 52.6271 75.8257 52.1408C75.7648 51.462 75.6506 50.8769 75.5365 50.2918C75.4985 50.0968 75.3617 49.9448 75.2223 49.841C75.083 49.7372 74.8424 49.7246 74.6955 49.7651L72.692 50.2392C72.6945 50.1911 72.6515 50.0923 72.654 50.0442C72.6134 49.8973 72.5729 49.7504 72.5323 49.6035C72.4917 49.4566 72.403 49.3072 72.3625 49.1603C72.3219 49.0134 72.2332 48.8639 72.1927 48.717C72.1521 48.5701 72.0634 48.4207 72.0204 48.3219C71.9317 48.1725 71.8911 48.0256 71.8024 47.8762C71.7593 47.7774 71.6707 47.628 71.6276 47.5292C71.5389 47.3798 71.4502 47.2304 71.364 47.0328C71.3209 46.934 71.2297 46.8327 71.1867 46.734C71.098 46.5845 70.9612 46.4326 70.875 46.235C70.8319 46.1363 70.7407 46.035 70.6951 45.9843C70.6951 45.9843 70.6951 45.9843 70.6495 45.9337L72.2171 44.5681C72.369 44.4312 72.4754 44.2438 72.4829 44.0994C72.493 43.9069 72.455 43.7119 72.3182 43.5599C71.9989 43.2054 71.6341 42.8002 71.2668 42.4431L71.2211 42.3925C71.173 42.3899 71.1755 42.3418 71.1299 42.2912C71.0818 42.2886 71.0843 42.2405 71.0387 42.1899C70.8538 42.0354 70.6714 41.8328 70.4864 41.6783L70.3952 41.577C70.2103 41.4226 70.0253 41.2681 69.8404 41.1136C69.7948 41.063 69.7492 41.0123 69.6529 41.0073L69.6073 40.9566C69.468 40.8528 69.2805 40.7465 69.1412 40.6427C69.0475 40.5895 68.9537 40.5363 68.8625 40.435L68.6751 40.3287C68.5813 40.2755 68.4876 40.2223 68.442 40.1717C68.3027 40.0679 68.1608 40.0122 68.0215 39.9084L67.6922 39.7463C67.5047 39.64 67.3147 39.5818 67.1272 39.4754L66.8917 39.3666C66.8435 39.364 66.846 39.3159 66.7979 39.3134L66.7498 39.3109C66.2786 39.0931 65.8049 38.9235 65.3312 38.7539C65.1412 38.6957 64.9487 38.6856 64.7993 38.7743C64.6499 38.863 64.4979 38.9998 64.4397 39.1898L63.8044 41.1834C63.7107 41.1302 63.5663 41.1226 63.47 41.1176C63.3282 41.0619 63.1357 41.0518 62.9938 40.9961C62.8494 40.9885 62.7076 40.9329 62.5632 40.9253C62.4188 40.9177 62.2769 40.862 62.1326 40.8545L62.0844 40.8519C61.9401 40.8444 61.7957 40.8368 61.6538 40.7811C61.5094 40.7735 61.3651 40.766 61.2207 40.7584L61.0763 40.7508C60.9319 40.7433 60.8357 40.7382 60.6913 40.7307C60.5469 40.7231 60.4506 40.7181 60.3063 40.7105C60.1138 40.7004 59.9669 40.741 59.7744 40.7309C59.7262 40.7283 59.6781 40.7258 59.63 40.7233C59.5337 40.7183 59.4856 40.7157 59.3868 40.7588C59.1943 40.7487 59.0474 40.7893 58.8524 40.8273L58.7561 40.8223C58.708 40.8198 58.6599 40.8172 58.6117 40.8147L58.2364 38.7682C58.1984 38.5731 58.1097 38.4237 57.9222 38.3174C57.7829 38.2136 57.5448 38.1528 57.3979 38.1934C56.9116 38.2644 56.4227 38.3836 55.8351 38.5458C55.8351 38.5458 55.787 38.5433 55.7845 38.5914C55.5388 38.6751 55.245 38.7562 54.9993 38.8398C54.9993 38.8398 54.9993 38.8398 54.9512 38.8373C54.7055 38.9209 54.4598 39.0046 54.1635 39.1338L54.1129 39.1794C53.9153 39.2656 53.7177 39.3518 53.5202 39.4379L53.272 39.5697C53.1732 39.6128 53.0238 39.7015 52.925 39.7445L52.7756 39.8332C52.6768 39.8763 52.578 39.9194 52.4768 40.0106L52.1779 40.188C52.0285 40.2767 51.8309 40.3628 51.679 40.4996C51.6283 40.5453 51.5802 40.5427 51.5296 40.5883L51.4789 40.6339C51.2788 40.7682 51.1294 40.8569 50.9268 41.0393L50.8762 41.0849C50.4254 41.3991 50.0708 41.7184 49.6656 42.0832C49.5137 42.22 49.4555 42.41 49.4454 42.6025C49.4353 42.795 49.5215 42.9926 49.6101 43.142L51.0264 44.664L50.9758 44.7096C50.8719 44.8489 50.72 44.9857 50.6162 45.1251C50.5149 45.2163 50.4111 45.3556 50.3072 45.4949C50.2034 45.6343 50.0996 45.7736 49.9958 45.9129C49.892 46.0523 49.7881 46.1916 49.6868 46.2828C49.583 46.4222 49.5273 46.564 49.426 46.6552C49.3222 46.7946 49.2184 46.9339 49.1627 47.0758C49.107 47.2176 49.0057 47.3088 48.95 47.4507C48.8462 47.59 48.788 47.78 48.6841 47.9193C48.631 48.0131 48.5753 48.1549 48.5221 48.2487L48.5196 48.2968C48.4614 48.4868 48.3576 48.6261 48.2993 48.8161C48.2993 48.8161 48.2993 48.8161 48.2968 48.8642L46.3589 48.087C46.1689 48.0288 45.9764 48.0187 45.7789 48.1049C45.5813 48.1911 45.4775 48.3304 45.4193 48.5204L45.3104 48.756C45.194 49.1359 45.0877 49.3234 44.9662 49.7996L44.8699 49.7946C44.8699 49.7946 44.7104 50.0758 44.7079 50.1239C44.7003 50.2683 44.7865 50.4658 44.7283 50.6558L44.7638 50.899C44.7613 50.9471 44.7588 50.9952 44.7562 51.0433L44.7537 51.0915C44.6955 51.2815 44.6829 51.5221 44.6703 51.7627L44.6577 52.0034C44.6501 52.1477 44.6425 52.2921 44.635 52.4365L44.6274 52.5809C44.6223 52.6771 44.6173 52.7734 44.6123 52.8696C44.6072 52.9659 44.6047 53.014 44.5996 53.1103L44.5921 53.2547C44.5845 53.399 44.5744 53.5915 44.5669 53.7359L44.5568 53.9284C44.5442 54.1691 44.5822 54.3641 44.5671 54.6529L44.5595 54.7972C44.5494 54.9897 44.5925 55.0885 44.5824 55.281L44.5748 55.4254C44.5723 55.4735 44.5698 55.5217 44.6179 55.5242C44.6459 55.9117 44.76 56.4968 44.8766 57.0338C44.9527 57.4238 45.3251 57.6846 45.7177 57.5604L47.7186 57.1344C47.7592 57.2813 47.7997 57.4282 47.8403 57.5752C47.8834 57.6739 47.9265 57.7727 47.967 57.9196C48.0532 58.1172 48.0912 58.3122 48.1774 58.5097C48.2205 58.6085 48.2661 58.6592 48.261 58.7554L48.3041 58.8542C48.3903 59.0517 48.479 59.2012 48.5651 59.3987C48.6082 59.4975 48.6513 59.5963 48.6969 59.6469L48.74 59.7457C48.8287 59.8951 48.9174 60.0445 49.006 60.194C49.0947 60.3434 49.1378 60.4422 49.2265 60.5916C49.3152 60.741 49.4064 60.8423 49.4951 60.9917C49.5838 61.1412 49.675 61.2425 49.7637 61.3919C49.8549 61.4932 49.9436 61.6426 50.0348 61.7439C50.0348 61.7439 50.0348 61.7439 50.0804 61.7946L48.5128 63.1602C48.2089 63.4338 48.1862 63.8669 48.4598 64.1708C48.779 64.5254 49.1464 64.8824 49.5138 65.2395L49.5594 65.2901L49.8355 65.5459C50.0204 65.7004 50.1573 65.8523 50.3447 65.9587L50.5753 66.1638C50.7146 66.2676 50.8539 66.3714 51.0389 66.5259C51.1326 66.5791 51.1782 66.6297 51.2719 66.6829L51.505 66.8399C51.5987 66.8931 51.6443 66.9437 51.7381 66.9969C51.9255 67.1032 52.0649 67.207 52.2523 67.3134L52.2979 67.364C52.3436 67.4147 52.3917 67.4172 52.4373 67.4679C52.6729 67.5767 52.8578 67.7312 53.1415 67.8426L53.1871 67.8932C53.4227 68.0021 53.6583 68.1109 53.942 68.2223L54.1295 68.3287C54.1776 68.3312 54.1776 68.3312 54.2232 68.3818C54.6944 68.5996 55.1681 68.7692 55.6443 68.8907C55.6924 68.8932 55.7406 68.8957 55.8368 68.9007C56.1737 68.9184 56.4751 68.6929 56.5865 68.4092L57.2218 66.4156C57.3181 66.4206 57.4118 66.4738 57.508 66.4789C57.6499 66.5346 57.8424 66.5446 57.9868 66.5522C58.083 66.5573 58.1793 66.5623 58.273 66.6155C58.3211 66.618 58.3693 66.6205 58.3693 66.6205C58.5137 66.6281 58.6555 66.6838 58.7999 66.6913C58.9443 66.6989 59.0887 66.7065 59.233 66.714C59.5218 66.7292 59.8106 66.7443 60.1474 66.762C60.2918 66.7695 60.3881 66.7746 60.5325 66.7821C60.5806 66.7847 60.6287 66.7872 60.6768 66.7897C60.8212 66.7973 60.9175 66.8023 61.0644 66.7618C61.1606 66.7668 61.3075 66.7262 61.4038 66.7313C61.5963 66.7414 61.7432 66.7008 61.9382 66.6628L61.9863 66.6653C62.0345 66.6678 62.0826 66.6703 62.1307 66.6729C62.1789 66.6754 62.227 66.6779 62.2776 66.6323L62.6074 68.6282C62.6454 68.8232 62.7316 69.0208 62.919 69.1271C63.1065 69.2335 63.2965 69.2917 63.4915 69.2537C63.7853 69.1725 63.9322 69.132 64.0816 69.0433C64.2285 69.0027 64.3298 68.9115 64.768 68.838L64.8161 68.8405C64.9124 68.8455 64.9605 68.848 65.0593 68.805L65.1074 68.8075C65.2062 68.7644 65.2543 68.7669 65.3531 68.7238C65.5481 68.6858 65.6976 68.5971 65.8926 68.5591C65.9407 68.5616 65.9914 68.516 66.0395 68.5185C66.2852 68.4349 66.4827 68.3487 66.7284 68.2651L66.779 68.2195C66.8272 68.222 66.8778 68.1764 66.9259 68.1789C67.1235 68.0927 67.2729 68.0041 67.4705 67.9179L67.5693 67.8748C67.6199 67.8292 67.7162 67.8343 67.7668 67.7886C67.8656 67.7456 67.9644 67.7025 68.0657 67.6113L68.1163 67.5657C68.2657 67.477 68.4152 67.3883 68.5646 67.2996L68.7646 67.1653C68.9647 67.031 69.1623 66.9449 69.3142 66.808C69.3623 66.8106 69.3649 66.7624 69.4155 66.7168L69.6156 66.5825C69.765 66.4939 69.8663 66.4027 70.0157 66.314L70.0664 66.2684C70.5147 66.0023 70.8186 65.7287 71.0768 65.4044C71.1781 65.3132 71.2313 65.2195 71.3301 65.1764C71.482 65.0396 71.5402 64.8496 71.5503 64.6571C71.5604 64.4646 71.4743 64.267 71.3374 64.1151L69.9212 62.5931C69.9212 62.5931 69.9237 62.5449 69.9718 62.5475C70.0757 62.4081 70.2276 62.2713 70.3314 62.132C70.4327 62.0408 70.5365 61.9014 70.5897 61.8077C70.6935 61.6684 70.7974 61.529 70.9012 61.3897C71.005 61.2504 71.1063 61.1592 71.162 61.0173C71.2658 60.878 71.3215 60.7361 71.4253 60.5968C71.5291 60.4574 71.5848 60.3156 71.6887 60.1762C71.7418 60.0825 71.7975 59.9407 71.8507 59.8469L71.9013 59.8013C72.0052 59.662 72.0634 59.472 72.1672 59.3327C72.2229 59.1908 72.2786 59.0489 72.3343 58.9071C72.39 58.7652 72.4963 58.5778 72.552 58.4359C72.5545 58.3878 72.5545 58.3878 72.6052 58.3422L74.5987 58.9775C74.9787 59.0939 75.3763 58.8735 75.4928 58.4935C75.6117 58.0654 75.7332 57.5892 75.8572 57.0648C75.8597 57.0167 75.9104 56.9711 75.9129 56.923C75.857 56.1479 75.9707 54.8991 75.9425 53.5947ZM71.0954 57.6839L71.0397 57.8258C70.984 57.9677 70.9308 58.0614 70.8751 58.2033C70.8194 58.3451 70.7637 58.487 70.7081 58.6288C70.6524 58.7707 70.5992 58.8644 70.5435 59.0063C70.4878 59.1481 70.384 59.2875 70.3283 59.4293L70.2776 59.4749C70.2245 59.5687 70.1713 59.6624 70.1181 59.7561C70.0624 59.898 69.9611 59.9892 69.8573 60.1285C69.8016 60.2704 69.7003 60.3616 69.5965 60.5009C69.4952 60.5921 69.4395 60.734 69.3382 60.8252C69.2344 60.9645 69.1331 61.0557 69.0774 61.1976C68.9761 61.2888 68.9229 61.3825 68.8191 61.5219C68.7153 61.6612 68.614 61.7524 68.5102 61.8918C68.4089 61.983 68.3557 62.0767 68.2544 62.1679C68.2038 62.2135 68.1531 62.2591 68.1025 62.3047C68.0518 62.3503 68.0518 62.3503 68.0012 62.3959C67.8492 62.5327 67.791 62.7227 67.7809 62.9152C67.7708 63.1077 67.857 63.3053 67.9938 63.4572L69.4101 64.9792C69.2581 65.116 69.1568 65.2073 68.9567 65.3415C68.9061 65.3871 68.858 65.3846 68.8073 65.4302C68.706 65.5214 68.5566 65.6101 68.4072 65.6988L68.2071 65.8331L68.1083 65.8762C67.9564 66.013 67.7588 66.0992 67.6069 66.236L67.4575 66.3247C67.308 66.4134 67.1586 66.502 67.0598 66.5451L67.0092 66.5907C66.9104 66.6338 66.8116 66.6769 66.761 66.7225C66.7103 66.7681 66.6622 66.7656 66.6116 66.8112L66.4647 66.8517C66.3152 66.9404 66.1658 67.0291 66.0189 67.0697L65.8213 67.1558C65.6238 67.242 65.4262 67.3282 65.2312 67.3662C65.1831 67.3637 65.1324 67.4093 65.0843 67.4068C64.9374 67.4473 64.7905 67.4879 64.6411 67.5766C64.593 67.5741 64.4942 67.6171 64.4461 67.6146C64.3979 67.6121 64.3498 67.6096 64.3017 67.6071C64.0104 67.64 63.8154 67.6781 63.6178 67.7642L63.3286 65.9152C63.2906 65.7202 63.2019 65.5708 63.017 65.4163C62.8776 65.3125 62.6395 65.2518 62.4445 65.2898L62.2976 65.3304C62.1026 65.3684 61.9557 65.409 61.7606 65.447L61.4694 65.48C61.3225 65.5206 61.1299 65.5105 60.983 65.551C60.8868 65.546 60.788 65.5891 60.6436 65.5815C60.4993 65.5739 60.3524 65.6145 60.1598 65.6044C60.0636 65.5994 59.9192 65.5918 59.823 65.5867C59.5342 65.5716 59.2936 65.559 59.0048 65.5439C58.8604 65.5363 58.7642 65.5313 58.6198 65.5237C58.4754 65.5161 58.331 65.5086 58.2373 65.4554C58.141 65.4503 57.9992 65.3946 57.9029 65.3896C57.7586 65.382 57.6167 65.3263 57.4723 65.3188C57.3761 65.3137 57.2342 65.258 57.138 65.253C56.9961 65.1973 56.8517 65.1897 56.7099 65.134L56.568 65.0783C56.188 64.9619 55.7904 65.1824 55.674 65.5623L55.0893 67.5103C54.8512 67.4496 54.6156 67.3407 54.38 67.2318L54.3319 67.2293L54.2838 67.2268C54.2356 67.2243 54.2356 67.2243 54.1875 67.2218L54.19 67.1736C53.9544 67.0648 53.767 66.9584 53.4833 66.847L53.4376 66.7964C53.2502 66.6901 53.0146 66.5812 52.8271 66.4748L52.6397 66.3685C52.5003 66.2647 52.3129 66.1583 52.1735 66.0545C52.1279 66.0039 52.0342 65.9507 51.9886 65.9L51.7555 65.7431C51.6618 65.6899 51.6162 65.6392 51.5225 65.5861C51.3831 65.4822 51.2438 65.3784 51.1045 65.2746L50.9195 65.1201C50.7802 65.0163 50.6434 64.8644 50.4559 64.758L50.271 64.6036C50.271 64.6036 50.271 64.6036 50.2228 64.601L50.1772 64.5504C49.9923 64.3959 49.8099 64.1933 49.6249 64.0389L51.1419 62.7188C51.2938 62.582 51.352 62.3921 51.3621 62.1995C51.3722 62.007 51.2861 61.8095 51.1974 61.6601L51.1518 61.6094C51.1062 61.5588 51.1062 61.5588 51.0606 61.5081C50.9693 61.4068 50.8807 61.2574 50.7895 61.1561C50.6982 61.0548 50.607 60.9535 50.564 60.8547C50.4727 60.7534 50.3841 60.604 50.2928 60.5027C50.2016 60.4014 50.113 60.252 50.0699 60.1532C49.9787 60.0519 49.9381 59.905 49.8469 59.8037C49.7582 59.6543 49.7176 59.5074 49.6264 59.4061L49.5834 59.3073C49.5403 59.2085 49.4947 59.1579 49.4516 59.0591C49.3629 58.9097 49.3223 58.7628 49.2337 58.6134L49.1906 58.5146C49.145 58.4639 49.15 58.3677 49.1044 58.317C49.0157 58.1676 48.9777 57.9726 48.8915 57.775C48.8484 57.6762 48.8535 57.58 48.8079 57.5293C48.7698 57.3343 48.6811 57.1849 48.6431 56.9899L48.5645 56.6479C48.5645 56.6479 48.567 56.5998 48.5696 56.5517C48.4935 56.1616 48.1211 55.9008 47.731 55.9769L45.7326 56.3547C45.6996 56.0635 45.6666 55.7722 45.6336 55.4809C45.6361 55.4328 45.6387 55.3846 45.5931 55.334C45.5981 55.2377 45.555 55.139 45.5626 54.9946L45.5702 54.8502C45.5802 54.6577 45.5447 54.4145 45.5548 54.222L45.5649 54.0295C45.5725 53.8851 45.58 53.7408 45.5876 53.5964L45.5977 53.4039C45.6002 53.3557 45.6053 53.2595 45.6078 53.2114C45.6128 53.1151 45.6179 53.0189 45.6204 52.9707L45.6305 52.7782C45.6381 52.6338 45.6456 52.4895 45.6507 52.3932L45.6633 52.1526C45.6734 51.9601 45.7316 51.7701 45.7417 51.5776L45.81 51.1951C45.8201 51.0026 45.7314 50.8532 45.7871 50.7113C45.7921 50.615 45.6984 50.5619 45.7034 50.4656C46.1923 50.3465 45.9136 50.1388 45.9693 49.997L47.9553 50.7767C48.1453 50.8349 48.3859 50.8475 48.5353 50.7588C48.7329 50.6727 48.8848 50.5358 48.943 50.3459C48.9456 50.2977 48.9962 50.2521 49.0013 50.1559L49.057 50.014C49.1101 49.9203 49.1658 49.7784 49.1709 49.6822C49.2266 49.5403 49.3329 49.3528 49.3886 49.211L49.3911 49.1629C49.4443 49.0691 49.4975 48.9754 49.5506 48.8817C49.6063 48.7398 49.7101 48.6005 49.7684 48.4105C49.8215 48.3168 49.8772 48.1749 49.9785 48.0837C50.0823 47.9444 50.138 47.8025 50.2393 47.7113C50.3432 47.572 50.3963 47.4782 50.5001 47.3389C50.604 47.1996 50.6571 47.1058 50.761 46.9665C50.8648 46.8271 50.9661 46.7359 51.0218 46.5941C51.1231 46.5029 51.2269 46.3635 51.2801 46.2698C51.3839 46.1305 51.4852 46.0393 51.589 45.8999C51.6903 45.8087 51.7409 45.7631 51.8422 45.6719L51.9942 45.5351C52.0448 45.4895 52.0955 45.4439 52.098 45.3958C52.25 45.2589 52.3082 45.069 52.3183 44.8764C52.3283 44.6839 52.2422 44.4864 52.1535 44.337L50.7854 42.8175C50.9854 42.6832 51.188 42.5008 51.3881 42.3665C51.3881 42.3665 51.4362 42.369 51.4388 42.3209C51.5907 42.1841 51.7401 42.0954 51.9377 42.0092L52.1377 41.8749C52.2872 41.7862 52.4366 41.6976 52.586 41.6089L52.8342 41.4771C52.933 41.434 53.0318 41.3909 53.0824 41.3453L53.28 41.2592C53.3787 41.2161 53.4775 41.173 53.5763 41.1299L53.7739 41.0438C53.9714 40.9576 54.1208 40.8689 54.3665 40.7853L54.4146 40.7878C54.6603 40.7041 54.8579 40.618 55.0554 40.5318C55.0554 40.5318 55.1035 40.5343 55.1061 40.4862C55.3517 40.4026 55.5974 40.3189 55.8431 40.2353L55.8912 40.2378C56.1369 40.1542 56.3801 40.1187 56.5776 40.0325L56.9555 42.0309C56.9935 42.2259 57.0822 42.3754 57.2697 42.4817C57.409 42.5855 57.6471 42.6463 57.794 42.6057L58.4753 42.4966C58.5235 42.4991 58.5716 42.5017 58.6197 42.5042C58.7666 42.4636 58.9591 42.4737 59.1035 42.4813C59.1998 42.4863 59.3467 42.4458 59.4429 42.4508C59.5873 42.4584 59.7823 42.4203 59.9267 42.4279C60.023 42.433 60.1673 42.4405 60.2636 42.4456C60.3598 42.4506 60.5042 42.4582 60.6005 42.4632L60.6967 42.4683C60.8411 42.4758 60.9374 42.4809 61.0818 42.4884C61.2261 42.496 61.3705 42.5036 61.5124 42.5593C61.6568 42.5668 61.8011 42.5744 61.8949 42.6276C62.0392 42.6351 62.133 42.6883 62.2773 42.6959C62.4217 42.7034 62.5636 42.7591 62.708 42.7667C62.8042 42.7718 62.9461 42.8274 63.0423 42.8325C63.1842 42.8882 63.3286 42.8958 63.4704 42.9514L63.6604 43.0097C64.0404 43.1261 64.438 42.9056 64.5544 42.5257L65.1872 40.5802C65.4228 40.6891 65.6609 40.7498 65.8965 40.8587L65.9447 40.8612L65.9928 40.8637L66.2284 40.9726C66.4184 41.0308 66.5577 41.1346 66.7452 41.241L67.0264 41.4005C67.1682 41.4562 67.3075 41.56 67.4013 41.6132C67.495 41.6663 67.5406 41.717 67.5887 41.7195L67.7762 41.8259C67.8699 41.879 67.9637 41.9322 68.0093 41.9828C68.1486 42.0867 68.2879 42.1905 68.4273 42.2943L68.521 42.3475C68.5666 42.3981 68.6147 42.4006 68.6603 42.4513C68.8453 42.6058 68.9846 42.7096 69.1696 42.8641L69.2608 42.9654C69.4457 43.1198 69.6306 43.2743 69.7675 43.4262L69.8131 43.4769L69.9068 43.5301L69.9524 43.5807C70.1373 43.7352 70.3198 43.9378 70.4566 44.0897L68.8915 45.4072C68.7396 45.544 68.6332 45.7315 68.6231 45.924C68.613 46.1165 68.6511 46.3115 68.7879 46.4635L68.8791 46.5648C68.9678 46.7142 69.1071 46.818 69.1958 46.9674C69.2389 47.0662 69.3326 47.1194 69.3757 47.2182C69.4644 47.3676 69.5531 47.517 69.6924 47.6208C69.7355 47.7196 69.8267 47.8209 69.8723 47.8715C69.961 48.021 70.0497 48.1704 70.1409 48.2717C70.184 48.3705 70.2752 48.4718 70.3183 48.5705C70.4069 48.72 70.45 48.8187 70.5387 48.9682C70.5818 49.0669 70.6705 49.2164 70.7136 49.3151C70.7541 49.462 70.8453 49.5633 70.8859 49.7102C70.9265 49.8572 70.9695 49.9559 71.0582 50.1054C71.0988 50.2523 71.1419 50.351 71.1824 50.4979C71.223 50.6448 71.2635 50.7917 71.3041 50.9386L71.3447 51.0855C71.3422 51.1337 71.3878 51.1843 71.3878 51.1843L71.4283 51.3312C71.4664 51.5262 71.6032 51.6782 71.7425 51.782C71.93 51.8884 72.1225 51.8984 72.3175 51.8604L74.2728 51.3838C74.3058 51.6751 74.3844 52.017 74.4174 52.3083C74.491 52.7465 74.5164 53.1821 74.4937 53.6153C74.5319 54.7272 74.4258 55.8316 74.2285 56.8347C74.2259 56.8828 74.1753 56.9284 74.1728 56.9766C74.112 57.2147 74.0513 57.4528 73.9906 57.6909L72.0451 57.0581C71.6651 56.9417 71.2675 57.1621 71.1511 57.5421C71.1004 57.5877 71.0979 57.6358 71.0954 57.6839Z" fill="#BF8C15"/>
<path d="M18.1503 19.9697C17.8767 19.6658 17.3929 19.6887 17.1372 19.9649L14.8985 22.164L14.0295 21.2498C13.7559 20.9459 13.3227 20.9232 13.0188 21.1968C12.7149 21.4704 12.6897 21.9517 12.9634 22.2556L14.329 23.8232C14.4658 23.9751 14.6482 24.1777 14.8407 24.1878C15.0584 23.7166 15.2358 24.0155 15.3878 23.8787L18.1911 21.0335C18.4494 20.7093 18.424 20.2736 18.1503 19.9697Z" fill="#1D2426"/>
<path d="M51.951 24.2026L23.075 22.6893C22.7863 22.6742 22.5837 22.8566 22.5685 23.1453C22.5534 23.4341 22.7358 23.6367 23.0246 23.6518L51.9006 25.1651C52.1894 25.1803 52.392 24.9979 52.4071 24.7091C52.4222 24.4203 52.2398 24.2177 51.951 24.2026Z" fill="#BF8C15"/>
<path d="M17.7246 28.1513C17.4509 27.8474 16.9671 27.8703 16.7114 28.1465L14.4727 30.3456L13.6037 29.4314C13.3301 29.1275 12.897 29.1048 12.5931 29.3784C12.2892 29.6521 12.2639 30.1333 12.5376 30.4372L13.9032 32.0048C14.04 32.1568 14.2224 32.3594 14.4149 32.3694C14.6326 31.8983 14.81 32.1971 14.962 32.0603L17.7653 29.2152C18.0236 28.8909 17.9982 28.4552 17.7246 28.1513Z" fill="#1D2426"/>
<path d="M51.9813 32.8903C51.9964 32.6015 51.814 32.3989 51.5253 32.3838L22.6492 30.8704C22.3605 30.8553 22.1579 31.0377 22.1427 31.3265C22.1276 31.6152 22.31 31.8178 22.5988 31.833L51.4748 33.3463C51.7636 33.3614 51.9662 33.179 51.9813 32.8903Z" fill="#BF8C15"/>
<path d="M17.2675 36.8144C16.9939 36.5105 16.5101 36.5334 16.2543 36.8096L14.0157 39.0087L13.1467 38.0945C12.8731 37.7906 12.4399 37.7679 12.136 38.0415C11.8321 38.3151 11.8069 38.7964 12.0805 39.1003L13.4462 40.6679C13.583 40.8199 13.7654 41.0224 13.9579 41.0325C14.1756 40.5614 14.353 40.8602 14.5049 40.7234L17.3083 37.8783C17.5666 37.554 17.5411 37.1183 17.2675 36.8144Z" fill="#1D2426"/>
<path d="M41.4177 41.0237C41.4328 40.7349 41.2504 40.5323 40.9616 40.5172L22.1922 39.5335C21.9034 39.5184 21.7008 39.7008 21.6857 39.9896C21.6706 40.2783 21.853 40.4809 22.1418 40.4961L40.9112 41.4797C41.1999 41.4949 41.4025 41.3124 41.4177 41.0237Z" fill="#BF8C15"/>
<path d="M16.8144 45.477C16.5408 45.1731 16.057 45.196 15.8012 45.4722L13.56 47.7194L12.6936 46.7571C12.4199 46.4532 11.9868 46.4305 11.6829 46.7041C11.379 46.9778 11.3538 47.459 11.6274 47.7629L12.993 49.3305C13.1298 49.4825 13.3123 49.6851 13.5048 49.6951C13.7225 49.224 13.8999 49.5228 14.0518 49.386L16.8552 46.5409C17.1134 46.2166 17.088 45.7809 16.8144 45.477Z" fill="#1D2426"/>
<path d="M37.1396 49.0032L21.7391 48.1961C21.4503 48.181 21.2477 48.3634 21.2326 48.6522C21.2175 48.9409 21.3999 49.1435 21.6886 49.1587L37.0892 49.9658C37.3779 49.9809 37.5805 49.7985 37.5957 49.5097C37.6108 49.221 37.4284 49.0184 37.1396 49.0032Z" fill="#BF8C15"/>
<path d="M15.3485 54.1349L13.1073 56.3822L12.2408 55.4198C11.9672 55.1159 11.534 55.0932 11.2302 55.3669C10.9263 55.6405 10.901 56.1218 11.1747 56.4257L12.5403 57.9933C12.6771 58.1452 12.8595 58.3478 13.052 58.3579C13.2697 57.8867 13.4471 58.1856 13.5991 58.0487L16.4024 55.2036C16.7063 54.93 16.6834 54.4462 16.4072 54.1904C16.088 53.8359 15.6524 53.8613 15.3485 54.1349Z" fill="#1D2426"/>
<path d="M36.6865 57.6663L21.286 56.8592C20.9972 56.8441 20.7946 57.0265 20.7795 57.3152C20.7643 57.604 20.9468 57.8066 21.2355 57.8217L36.6361 58.6288C36.9248 58.644 37.1274 58.4616 37.1425 58.1728C37.1577 57.884 36.9753 57.6814 36.6865 57.6663Z" fill="#BF8C15"/>
<path d="M60.2931 49.2034C57.6462 49.0647 55.367 51.1169 55.2282 53.7638C55.0895 56.4108 57.1417 58.69 59.7887 58.8287C62.4357 58.9675 64.7149 56.9153 64.8536 54.2683C64.9923 51.6213 62.9401 49.3421 60.2931 49.2034ZM59.8391 57.8662C57.7216 57.7552 56.0798 55.9319 56.1908 53.8143C56.3018 51.6967 58.1251 50.055 60.2427 50.1659C62.3603 50.2769 64.002 52.1003 63.8911 54.2178C63.7801 56.3354 61.9567 57.9772 59.8391 57.8662Z" fill="#BF8C15"/>
<path d="M60.4706 45.8345C55.9467 45.5975 52.0974 49.0634 51.8603 53.5873C51.6232 58.1112 55.0891 61.9605 59.6131 62.1976C64.137 62.4347 67.9863 58.9688 68.2234 54.4449C68.4605 49.9209 64.9945 46.0716 60.4706 45.8345ZM59.6635 61.2351C55.669 61.0258 52.6135 57.6323 52.8228 53.6378C53.0322 49.6432 56.4256 46.5877 60.4202 46.7971C64.4147 47.0064 67.4702 50.3999 67.2608 54.3944C67.0515 58.3889 63.658 61.4444 59.6635 61.2351Z" fill="#1D2426"/>
<defs>
<linearGradient id="paint0_linear_2353_52146" x1="40" y1="20" x2="40" y2="80" gradientUnits="userSpaceOnUse">
<stop stop-color="#9CF0C6"/>
<stop offset="1" stop-color="#EBFCF4"/>
</linearGradient>
</defs>
</svg>
