<svg width="80" height="80" viewBox="0 0 80 80" fill="none" xmlns="http://www.w3.org/2000/svg">
<g clip-path="url(#clip0_2353_52016)">
<path d="M0 7.90161C0 3.53767 3.53767 0 7.90161 0H70C75.5229 0 80 4.47715 80 10V24.5988C80 26.8042 79.2709 28.9478 77.9262 30.6959L49.1572 68.0956C44.8034 73.7556 36.0913 73.1599 32.5485 66.9599L1.04109 11.8219C0.358855 10.628 0 9.27671 0 7.90161Z" fill="url(#paint0_linear_2353_52016)"/>
<path d="M6.02513 21.9278C6.69983 21.9278 7.22995 21.3977 7.22995 20.723V11.0844C7.22995 9.01211 9.25405 7.71091 11.0854 7.71091H20.7239C21.3986 7.71091 21.9287 7.18079 21.9287 6.50609C21.9287 5.83139 21.3986 5.30127 20.7239 5.30127H11.0854C7.61549 5.30127 4.82031 7.90368 4.82031 11.0844V20.723C4.82031 21.3977 5.35043 21.9278 6.02513 21.9278Z" fill="#1D2426"/>
<path d="M68.9176 5.30127H59.279C58.6043 5.30127 58.0742 5.83139 58.0742 6.50609C58.0742 7.18079 58.6043 7.71091 59.279 7.71091H68.9176C70.8935 7.71091 72.2911 9.1085 72.2911 11.0844V20.723C72.2911 21.3977 72.8212 21.9278 73.4959 21.9278C74.1706 21.9278 74.7007 21.3977 74.7007 20.723V11.0844C74.7007 7.71091 72.2911 5.30127 68.9176 5.30127Z" fill="#1D2426"/>
<path d="M73.4959 58.0723C72.8212 58.0723 72.2911 58.6024 72.2911 59.2771V68.9156C72.2911 70.747 70.9899 72.7711 68.9176 72.7711H59.279C58.6043 72.7711 58.0742 73.3012 58.0742 73.9759C58.0742 74.6506 58.6043 75.1807 59.279 75.1807H68.9176C72.0983 75.1807 74.7007 72.3855 74.7007 68.9156V59.2771C74.7007 58.6024 74.1706 58.0723 73.4959 58.0723Z" fill="#1D2426"/>
<path d="M20.7239 72.7711H11.0854C9.10947 72.7711 7.22995 70.8915 7.22995 68.9156V59.2771C7.22995 58.6024 6.69983 58.0723 6.02513 58.0723C5.35043 58.0723 4.82031 58.6024 4.82031 59.2771V68.9156C4.82031 72.2409 7.76007 75.1807 11.0854 75.1807H20.7239C21.3986 75.1807 21.9287 74.6506 21.9287 73.9759C21.9287 73.3012 21.3986 72.7711 20.7239 72.7711Z" fill="#1D2426"/>
<path d="M28.5381 23.1499C29.988 20.9547 32.2492 19.9915 36.0318 19.887C36.6487 21.6825 38.4413 22.7585 38.4893 22.7627C38.8127 22.9362 39.1968 22.9698 39.5455 22.8551C39.5455 22.8551 41.6375 22.1674 42.6048 20.5105C45.0239 21.0607 46.61 21.7316 47.7827 22.705C47.8745 22.7614 47.9621 22.8658 48.0539 22.9223C48.2334 23.0831 48.5694 23.1125 48.7345 22.885C48.8953 22.7056 48.9247 22.3695 48.6973 22.2045C47.4016 20.9785 45.5838 20.1906 42.8809 19.5671L42.9721 16.8659C44.7346 15.5205 45.8694 13.0558 46.0752 10.7033C46.3608 7.43866 44.8785 3.9226 40.9417 3.57817C37.005 3.23375 34.9346 6.439 34.649 9.70364C34.4474 12.0081 35.0973 14.5322 36.4992 16.2029L36.1116 18.9748C32.2288 19.1189 29.7275 20.0611 28.1336 22.2437C28.2129 22.4442 28.3755 22.7971 28.5381 23.1499ZM40.7701 4.43394C44.0828 4.72376 45.2752 7.68232 45.0316 10.4669C44.7502 13.6835 42.6234 16.9806 39.6948 16.7243C36.7663 16.4681 35.2443 12.8518 35.5257 9.63521C35.7214 6.84647 37.4575 4.14412 40.7701 4.43394ZM39.594 17.8766C40.4102 17.948 41.1993 17.7751 41.9051 17.4499L41.7995 19.7627C41.0932 21.2006 39.1932 21.9052 39.1452 21.901C39.045 21.9406 38.9489 21.9322 38.9051 21.88C38.9051 21.88 37.3442 20.921 36.8941 19.4303L37.2566 16.9464C37.8909 17.4373 38.6819 17.7968 39.594 17.8766Z" fill="#BF8C15"/>
<path d="M48.6018 34.4381C48.585 34.6302 48.5682 34.8222 48.5514 35.0143C50.0049 33.8836 51.984 33.3795 54.75 33.2828C55.5175 34.4627 57.2165 34.9499 58.5692 34.9715C59.9698 34.9973 61.116 34.6138 61.7594 33.8961C67.5013 35.1725 69.4727 37.5219 69.6576 43.1498C67.7222 43.7061 63.1229 44.8518 56.9777 44.3142C55.9695 44.226 55.0136 44.0939 54.0618 43.9139C53.7299 43.8365 53.3728 44.0472 53.2474 44.3748C53.2432 44.4228 53.239 44.4708 53.239 44.4708C53.1574 44.8507 53.4119 45.26 53.8439 45.2978C54.8437 45.482 55.8477 45.6182 56.9039 45.7106C63.6253 46.2987 68.4856 44.934 70.3207 44.4172L70.6172 44.3464C70.9137 44.2756 71.1351 43.9563 71.1645 43.6203C71.0762 36.8882 68.6751 33.9206 62.1776 32.433L62.252 29.9239C64.167 28.495 65.4146 25.8467 65.6414 23.2542C66.0698 18.3572 63.1508 15.7798 60.0302 15.5067C56.9096 15.2337 53.5916 17.2171 53.1632 22.1141C52.9489 24.5626 53.6385 27.1869 55.0758 29.0058L54.6924 31.7297C52.2145 31.8516 50.2917 32.2639 48.7674 33.0981C48.6252 33.6178 48.6396 34.0061 48.6018 34.4381ZM59.7518 17.0304C63.3045 17.3413 64.2839 20.5231 64.0571 23.1156C63.7715 26.3802 61.6363 29.7733 58.6597 29.5129C55.6831 29.2525 54.1696 25.5401 54.4552 22.2755C54.682 19.683 56.1991 16.7196 59.7518 17.0304ZM60.6305 32.9749C60.3089 33.3338 59.5155 33.5546 58.5991 33.5228C57.3947 33.4659 56.3199 33.0332 55.9382 32.4193L56.219 30.3153C56.9056 30.7623 57.6527 31.0696 58.5169 31.1452C59.285 31.2124 59.974 31.0792 60.6713 30.8499L60.6305 32.9749Z" fill="#BF8C15"/>
<path d="M31.0542 39.7686C30.0754 39.3443 28.8001 38.9908 27.2368 38.6122L27.3046 36.7314C29.4242 35.1753 30.793 32.2473 31.0408 29.4147C31.0534 29.2707 31.066 29.1267 31.0786 28.9827C31.1692 27.3941 30.8986 26.0643 30.4149 24.9577C30.2522 24.6048 30.0896 24.2519 29.8706 23.9909C28.7255 22.1492 26.8285 21.1608 24.8601 20.9886C21.4515 20.6904 17.8286 22.8406 17.3582 28.2177C17.1104 31.0502 17.9457 34.2194 19.7629 36.12L19.5073 37.9359C13.2949 38.1664 8.86425 40.1493 7.42166 48.3439C7.34425 48.6757 7.51109 48.9806 7.79074 49.1018C7.88256 49.1582 8.02239 49.2188 8.16222 49.2795C9.64391 50.038 13.0664 51.8371 18.4537 52.7438L18.5017 52.748C18.8857 52.7816 19.199 52.5188 19.2806 52.1389C19.3016 51.8988 19.2224 51.6984 19.091 51.5418C19.0033 51.4374 18.8635 51.3767 18.6757 51.3119C13.6245 50.4346 10.3814 48.7963 8.94776 48.042C10.3207 41.1959 13.8974 39.5737 19.5775 39.345C19.6087 39.5412 19.6357 39.7855 19.6669 39.9817C19.8812 41.4034 20.1267 43.0213 22.9112 43.2649C25.6958 43.5085 26.2184 41.9578 26.6763 40.595C26.7411 40.4071 26.8101 40.1713 26.8749 39.9834C28.2024 40.2931 29.2898 40.5817 30.1288 40.9454C30.2206 41.0018 30.3166 41.0102 30.4084 41.0666C30.7361 41.192 31.0848 41.0774 31.2498 40.85C31.1832 40.5055 31.1166 40.161 31.0542 39.7686C31.1502 39.777 31.1022 39.7728 31.0542 39.7686ZM23.1332 41.833C21.5009 41.6902 21.4031 41.1495 21.1846 39.7759C21.118 39.4314 21.0598 38.9909 20.9494 38.5942L21.1234 37.1582C21.8141 37.5572 22.5655 37.8165 23.4297 37.8921C24.2938 37.9677 25.0788 37.8428 25.8283 37.5698L25.7461 39.0623C25.5643 39.4818 25.4347 39.8574 25.3092 40.1851C24.9516 41.5084 24.7656 41.9758 23.1332 41.833ZM24.8386 22.3412C28.5833 22.6689 29.9384 25.9803 29.6612 29.1489C29.3419 32.7976 26.9331 36.5538 23.6205 36.264C20.3078 35.9741 18.5878 31.8568 18.9071 28.208C19.1363 25.0352 21.0938 22.0136 24.8386 22.3412Z" fill="#BF8C15"/>
<path d="M57.0798 66.0735C57.6248 65.9277 57.959 65.4248 57.9572 64.8925C57.8077 55.5426 54.4158 51.1822 45.3594 49.0837L45.3425 45.4056C45.9648 44.9279 46.5037 44.2978 47.0426 43.6677C48.5153 41.7647 49.5061 39.2874 49.8163 36.8473C49.8331 36.6553 49.8499 36.4632 49.8667 36.2712C49.9003 35.8871 49.9381 35.455 49.9237 35.0667C49.8864 30.5161 47.4403 25.8514 41.8232 25.36C40.9591 25.2843 40.1825 25.3132 39.4456 25.4422C39.0051 25.5004 38.6084 25.6108 38.2117 25.7213C34.3764 26.9822 32.3432 30.8679 32.0072 34.7087C31.9106 35.8129 31.9538 36.9777 32.0973 38.1029C32.1639 38.4474 32.2305 38.7919 32.2929 39.1843C32.7406 41.2553 33.6372 43.1721 34.9119 44.6382L34.409 48.1741C26.6351 48.5582 21.4297 51.1022 19.5893 61.6325C19.4951 62.1564 19.7411 62.6617 20.2524 62.8999C20.3923 62.9605 20.5321 63.0211 20.7157 63.1339C22.8924 64.2435 28.6271 67.2608 37.8449 68.0673C47.2548 68.8906 54.3949 66.9029 56.727 66.2361L57.0798 66.0735ZM38.0591 65.6188C29.7535 64.8922 24.4173 62.2967 22.1488 61.1307C23.6808 53.5728 26.8698 50.8525 34.6395 50.5163C35.5379 52.9654 37.5153 55.7991 38.1184 56.0938C38.3021 56.2066 38.5379 56.2756 39.3061 56.3428C40.1222 56.4142 40.3185 56.383 40.5189 56.3038C41.116 56.1141 43.5555 53.6668 44.9135 51.4152C52.5944 53.1998 55.3148 56.3888 55.6197 63.9623C52.7428 64.7749 46.4608 66.3539 38.0591 65.6188ZM41.6174 27.7124C46.4664 28.1366 47.7813 32.4605 47.4662 36.0612C46.9622 41.8223 43.2427 45.0768 40.1221 44.8038C36.9535 44.5265 33.9037 40.6798 34.4077 34.9187C34.7227 31.318 36.8165 27.2924 41.6174 27.7124ZM39.9121 47.2042C41.0163 47.3008 41.9975 47.1448 42.9475 46.7925L42.9751 49.7943C42.0996 51.5076 40.343 53.3374 39.6121 53.9507C39.5161 53.9423 39.3721 53.9297 39.228 53.9171C38.6189 53.1382 37.1588 51.027 36.6421 49.1918L37.0381 46.3239C37.9605 46.84 38.9039 47.116 39.9121 47.2042Z" fill="#1D2426"/>
</g>
<defs>
<linearGradient id="paint0_linear_2353_52016" x1="0" y1="0" x2="66.5" y2="49.5" gradientUnits="userSpaceOnUse">
<stop stop-color="#9CF0C6"/>
<stop offset="1" stop-color="#EBFCF4"/>
</linearGradient>
<clipPath id="clip0_2353_52016">
<rect width="80" height="80" fill="white"/>
</clipPath>
</defs>
</svg>
