<svg viewBox="0 0 50 50" fill="none" xmlns="http://www.w3.org/2000/svg" class="size-[50px] shrink-0 text-black-L1">
    <path fill-rule="evenodd" clip-rule="evenodd" d="M42.75 3.875C43.0952 3.875 43.375 4.15482 43.375 4.5V5C43.375 5.34518 43.0952 5.625 42.75 5.625C42.4048 5.625 42.125 5.34518 42.125 5V4.5C42.125 4.15482 42.4048 3.875 42.75 3.875ZM8.37496 6.25715C8.37422 6.32191 8.36342 6.38618 8.34293 6.44764L8.10519 7.16084C7.86017 8.38118 7.5928 9.47068 6.8004 10.5569L6.37946 11.6092C6.42875 12.2065 6.88219 12.625 7.5 12.625H13.25C13.5968 12.625 13.8566 12.4959 14.0042 12.3319C14.136 12.1854 14.2136 11.9749 14.1522 11.6884L13.6791 10.5056C13.2321 9.60177 12.9718 8.51474 12.76 7.6306C12.7218 7.4713 12.6852 7.31859 12.6494 7.17472L12.4071 6.44764C12.3858 6.38391 12.375 6.31718 12.375 6.25C12.375 6.10265 12.3063 5.96057 12.1475 5.8371C11.982 5.70836 11.7438 5.625 11.5 5.625H9.25C9.07346 5.625 8.84003 5.72148 8.63398 5.90463C8.53615 5.99159 8.46342 6.08212 8.41877 6.15867C8.38146 6.22262 8.37496 6.25715 8.37496 6.25715ZM7.80352 4.97037C8.15997 4.65352 8.67654 4.375 9.25 4.375H11.5C12.0062 4.375 12.518 4.54164 12.915 4.8504C13.2934 5.14471 13.5861 5.58734 13.6214 6.13786L13.8429 6.80236C13.848 6.81753 13.8525 6.8329 13.8563 6.84842C13.9 7.02287 13.9427 7.20017 13.9857 7.37878C14.2015 8.27443 14.4253 9.20304 14.809 9.97049C14.8168 9.98599 14.8239 10.0018 14.8303 10.0179L15.3303 11.2679C15.3408 11.2941 15.3495 11.321 15.3563 11.3484C15.53 12.043 15.3584 12.6958 14.9333 13.1681C14.5184 13.6291 13.9032 13.875 13.25 13.875H10.875V21.2225C11.483 21.1528 12.1134 21.125 12.75 21.125H22.25C23.3762 21.125 24.3849 21.6949 25 22.5585C25.6151 21.6949 26.6238 21.125 27.75 21.125H37.25C38.9057 21.125 40.52 21.313 41.8047 21.938C42.9928 22.516 43.8796 23.4606 44.2564 24.8833C44.6132 24.9063 44.9722 24.9782 45.2946 25.1072C45.6577 25.2524 46.0306 25.4941 46.2573 25.8758C46.8762 26.5409 46.8756 27.2533 46.875 27.9378C46.875 27.9585 46.875 27.9793 46.875 28C46.875 28.0428 46.8706 28.0855 46.8619 28.1275L44.3619 40.1275C44.3509 40.1802 44.3331 40.2313 44.309 40.2795C44.1169 40.6637 43.768 40.993 43.3841 41.2234C42.994 41.4575 42.5091 41.625 42 41.625H41.8539L42.7859 43.1784C42.9635 43.4744 42.8675 43.8583 42.5716 44.0359C42.2756 44.2135 41.8917 44.1175 41.7141 43.8216L40.3961 41.625H38.75C38.7078 41.625 38.666 41.6207 38.6253 41.6124C38.5848 41.6207 38.5429 41.625 38.5 41.625H11.5C11.4571 41.625 11.4152 41.6207 11.3747 41.6124C11.334 41.6207 11.2922 41.625 11.25 41.625H9.60387L8.28593 43.8216C8.10834 44.1175 7.72443 44.2135 7.42844 44.0359C7.13245 43.8583 7.03647 43.4744 7.21407 43.1784L8.14613 41.625H8C7.4909 41.625 7.00602 41.4575 6.61594 41.2234C6.23196 40.993 5.88306 40.6637 5.69098 40.2795C5.66689 40.2313 5.64913 40.1802 5.63814 40.1275L3.13814 28.1275C3.1294 28.0855 3.125 28.0428 3.125 28C3.125 27.9793 3.12498 27.9585 3.12497 27.9377C3.12439 27.2533 3.1238 26.5409 3.74271 25.8758C3.96942 25.4941 4.34226 25.2524 4.70538 25.1072C5.02778 24.9782 5.38682 24.9063 5.74363 24.8833C6.12044 23.4606 7.00719 22.516 8.19533 21.938C8.63685 21.7232 9.11731 21.56 9.625 21.4383V13.875H8.625V15C8.625 15.3452 8.34518 15.625 8 15.625C7.65482 15.625 7.375 15.3452 7.375 15V13.872C6.09155 13.8104 5.125 12.8032 5.125 11.5C5.125 11.4205 5.14017 11.3417 5.1697 11.2679L5.6697 10.0179C5.69008 9.96694 5.71708 9.9189 5.75 9.875C6.40988 8.99516 6.63942 8.116 6.88714 6.87743C6.89222 6.85201 6.89888 6.82694 6.90707 6.80236L7.13129 6.12972C7.15472 5.9039 7.24067 5.69747 7.33904 5.52883C7.45845 5.32413 7.6201 5.13341 7.80352 4.97037ZM6.21002 26.125C8.04451 26.3673 9.125 27.4679 9.125 28.5C9.125 28.5208 9.12604 28.5415 9.1281 28.5622L9.8781 36.0622L10.5243 40.375H9.26144C9.2542 40.3749 9.24697 40.3749 9.23974 40.375H8C7.7591 40.375 7.49398 40.2925 7.25906 40.1516C7.05474 40.029 6.91504 39.8877 6.84195 39.7769L4.37506 27.9359C4.37642 27.2132 4.40466 26.9792 4.69194 26.6919C4.73944 26.6444 4.77898 26.5896 4.80902 26.5295C4.84054 26.4665 4.93691 26.3609 5.16962 26.2678C5.39473 26.1778 5.68847 26.125 6 26.125H6.21002ZM11.7882 40.375H38.2118L38.7099 37.0538C38.6553 37.0252 38.604 36.9879 38.5581 36.9419C38.4992 36.883 38.3823 36.7992 38.2226 36.7307C38.0655 36.6634 37.8995 36.625 37.75 36.625H12.25C12.1005 36.625 11.9345 36.6634 11.7775 36.7307C11.6177 36.7992 11.5008 36.883 11.4419 36.9419C11.396 36.9879 11.3447 37.0252 11.2901 37.0538L11.7882 40.375ZM11.3342 35.5613L10.6219 28.4378L10.6187 28.4116C10.3556 26.5698 8.75577 25.2565 7.02982 24.9456C7.33864 24.042 7.93626 23.4541 8.74217 23.062C9.76999 22.562 11.1557 22.375 12.75 22.375H22.25C23.4048 22.375 24.375 23.3452 24.375 24.5C24.375 24.8452 24.6548 25.125 25 25.125C25.3452 25.125 25.625 24.8452 25.625 24.5C25.625 23.3452 26.5952 22.375 27.75 22.375H37.25C38.8443 22.375 40.23 22.562 41.2578 23.062C42.0637 23.4541 42.6613 24.042 42.9702 24.9456C41.2442 25.2565 39.6444 26.5698 39.3813 28.4116L38.6658 35.5613C38.3845 35.4472 38.0695 35.375 37.75 35.375H26.25C26.017 35.375 25.8715 35.3001 25.7857 35.2143C25.6999 35.1285 25.625 34.983 25.625 34.75C25.625 34.4048 25.3452 34.125 25 34.125C24.6548 34.125 24.375 34.4048 24.375 34.75C24.375 34.983 24.3001 35.1285 24.2143 35.2143C24.1285 35.3001 23.983 35.375 23.75 35.375H12.25C11.9305 35.375 11.6155 35.4472 11.3342 35.5613ZM43.79 26.125C41.9555 26.3673 40.875 27.4679 40.875 28.5C40.875 28.5208 40.874 28.5415 40.8719 28.5622L40.1188 36.0928L39.4757 40.375H40.7386C40.7458 40.3749 40.753 40.3749 40.7603 40.375H42C42.2409 40.375 42.506 40.2925 42.7409 40.1516C42.9453 40.029 43.0849 39.8877 43.158 39.7769L45.6249 27.9359C45.6236 27.2132 45.5953 26.9792 45.3081 26.6919C45.2606 26.6444 45.221 26.5896 45.191 26.5295C45.1595 26.4665 45.0631 26.3609 44.8304 26.2678C44.6053 26.1778 44.3115 26.125 44 26.125H43.79ZM39.875 6.75C39.875 6.40482 40.1548 6.125 40.5 6.125H41C41.3452 6.125 41.625 6.40482 41.625 6.75C41.625 7.09518 41.3452 7.375 41 7.375H40.5C40.1548 7.375 39.875 7.09518 39.875 6.75ZM43.875 6.75C43.875 6.40482 44.1548 6.125 44.5 6.125H45C45.3452 6.125 45.625 6.40482 45.625 6.75C45.625 7.09518 45.3452 7.375 45 7.375H44.5C44.1548 7.375 43.875 7.09518 43.875 6.75ZM42.75 7.875C43.0952 7.875 43.375 8.15482 43.375 8.5V9C43.375 9.34518 43.0952 9.625 42.75 9.625C42.4048 9.625 42.125 9.34518 42.125 9V8.5C42.125 8.15482 42.4048 7.875 42.75 7.875ZM2.375 45.5C2.375 45.1548 2.65482 44.875 3 44.875H47C47.3452 44.875 47.625 45.1548 47.625 45.5C47.625 45.8452 47.3452 46.125 47 46.125H3C2.65482 46.125 2.375 45.8452 2.375 45.5Z" fill="currentColor"></path>
    <path fill-rule="evenodd" clip-rule="evenodd" d="M25 26.9C25.3314 26.9 25.6 27.1686 25.6 27.5V28C25.6 28.3314 25.3314 28.6 25 28.6C24.6686 28.6 24.4 28.3314 24.4 28V27.5C24.4 27.1686 24.6686 26.9 25 26.9ZM25 30.9C25.3314 30.9 25.6 31.1686 25.6 31.5V32C25.6 32.3314 25.3314 32.6 25 32.6C24.6686 32.6 24.4 32.3314 24.4 32V31.5C24.4 31.1686 24.6686 30.9 25 30.9Z" fill="currentColor"></path>
</svg>