<svg viewBox="0 0 50 50" fill="none" xmlns="http://www.w3.org/2000/svg" class="size-[50px] shrink-0 text-black-L1">
    <path fill-rule="evenodd" clip-rule="evenodd" d="M8.8999 18.5004C8.8999 10.169 15.6685 2.90039 24.9999 2.90039C34.3313 2.90039 41.0999 10.169 41.0999 18.5004C41.0999 21.445 40.0878 24.4646 38.6106 27.3119C37.131 30.1636 35.1652 32.8798 33.2111 35.2279C32.1573 36.4942 31.104 37.6568 30.1275 38.6797C34.0984 38.8355 37.1196 39.2591 39.1982 39.8616C40.3079 40.1833 41.1876 40.5667 41.8029 41.0158C42.4153 41.4628 42.8499 42.0422 42.8499 42.7504C42.8499 43.1874 42.6562 43.5689 42.3797 43.8825C42.1063 44.1926 41.7291 44.4646 41.2883 44.7062C40.4061 45.1897 39.1577 45.611 37.6339 45.9602C34.5768 46.6608 30.2792 47.1004 25.2499 47.1004C20.2207 47.1004 15.923 46.6608 12.8659 45.9602C11.3421 45.611 10.0937 45.1897 9.21153 44.7062C8.77069 44.4646 8.39349 44.1926 8.12015 43.8825C7.84361 43.5689 7.6499 43.1874 7.6499 42.7504C7.6499 42.0422 8.08449 41.4628 8.69694 41.0158C9.31218 40.5667 10.1919 40.1833 11.3016 39.8616C13.2956 39.2836 16.1568 38.8703 19.8917 38.7001C18.9098 37.6723 17.8495 36.5026 16.7887 35.2279C14.8346 32.8798 12.8688 30.1636 11.3892 27.3119C9.91196 24.4646 8.8999 21.445 8.8999 18.5004ZM21.0219 39.8575C16.7944 39.991 13.6825 40.4209 11.6357 41.0142C10.5891 41.3175 9.8595 41.6529 9.40443 41.985C8.94656 42.3192 8.8499 42.5836 8.8499 42.7504C8.8499 42.8133 8.87494 42.9241 9.02028 43.089C9.16882 43.2574 9.41661 43.4502 9.78828 43.6539C10.5311 44.061 11.6577 44.4523 13.1339 44.7906C16.0768 45.465 20.2792 45.9004 25.2499 45.9004C30.2207 45.9004 34.423 45.465 37.3659 44.7906C38.8421 44.4523 39.9687 44.061 40.7115 43.6539C41.0832 43.4502 41.331 43.2574 41.4795 43.089C41.6249 42.9241 41.6499 42.8133 41.6499 42.7504C41.6499 42.5836 41.5532 42.3192 41.0954 41.985C40.6403 41.6529 39.9107 41.3175 38.8641 41.0142C36.7779 40.4095 33.5853 39.9745 29.2328 39.8501C29.1603 39.8481 29.0911 39.8332 29.0275 39.8078C28.6049 40.232 28.2056 40.6227 27.8372 40.9763C27.1047 41.6793 26.4937 42.2361 26.065 42.6179C25.8506 42.8088 25.6817 42.956 25.566 43.0559C25.5081 43.1059 25.4635 43.144 25.4331 43.1698L25.3983 43.1993L25.3891 43.2071L25.3866 43.2092C25.3866 43.2092 25.3855 43.2101 24.9999 42.7504C24.6143 43.2101 24.614 43.2098 24.614 43.2098L24.6107 43.2071L24.6016 43.1993L24.5667 43.1698C24.5363 43.144 24.4917 43.1059 24.4338 43.0559C24.3181 42.956 24.1492 42.8088 23.9349 42.6179C23.5061 42.2361 22.8951 41.6793 22.1626 40.9763C21.8086 40.6366 21.4261 40.2626 21.0219 39.8575ZM24.9999 42.7504L24.614 43.2098C24.837 43.3968 25.1625 43.3972 25.3855 43.2101L24.9999 42.7504ZM24.9999 41.9577C25.0781 41.8891 25.1674 41.8103 25.2669 41.7217C25.6858 41.3487 26.2858 40.802 27.0063 40.1105C28.4482 38.7267 30.3693 36.7667 32.2887 34.4603C34.2096 32.1522 36.1188 29.509 37.5454 26.7592C38.9745 24.0049 39.8999 21.1808 39.8999 18.5004C39.8999 10.8318 33.6685 4.10039 24.9999 4.10039C16.3313 4.10039 10.0999 10.8318 10.0999 18.5004C10.0999 21.1808 11.0253 24.0049 12.4544 26.7592C13.881 29.509 15.7902 32.1522 17.7111 34.4603C19.6305 36.7667 21.5516 38.7267 22.9935 40.1105C23.714 40.802 24.314 41.3487 24.7329 41.7217C24.8324 41.8103 24.9217 41.8891 24.9999 41.9577ZM24.9999 11.1504C25.3313 11.1504 25.5999 11.419 25.5999 11.7504V12.9322C28.2134 13.2105 30.2897 15.2869 30.5681 17.9004H31.7499C32.0813 17.9004 32.3499 18.169 32.3499 18.5004C32.3499 18.8318 32.0813 19.1004 31.7499 19.1004H30.5681C30.2897 21.7139 28.2134 23.7902 25.5999 24.0686V25.2504C25.5999 25.5818 25.3313 25.8504 24.9999 25.8504C24.6685 25.8504 24.3999 25.5818 24.3999 25.2504V24.0686C21.7864 23.7902 19.7101 21.7139 19.4317 19.1004H18.2499C17.9185 19.1004 17.6499 18.8318 17.6499 18.5004C17.6499 18.169 17.9185 17.9004 18.2499 17.9004H19.4317C19.7101 15.2869 21.7864 13.2105 24.3999 12.9322V11.7504C24.3999 11.419 24.6685 11.1504 24.9999 11.1504ZM24.3999 14.141C22.4499 14.4068 20.9064 15.9504 20.6405 17.9004H21.9999C22.3313 17.9004 22.5999 18.169 22.5999 18.5004C22.5999 18.8318 22.3313 19.1004 21.9999 19.1004H20.6405C20.9064 21.0504 22.4499 22.5939 24.3999 22.8598V21.5004C24.3999 21.169 24.6685 20.9004 24.9999 20.9004C25.3313 20.9004 25.5999 21.169 25.5999 21.5004V22.8598C27.5499 22.5939 29.0934 21.0504 29.3593 19.1004H27.9999C27.6685 19.1004 27.3999 18.8318 27.3999 18.5004C27.3999 18.169 27.6685 17.9004 27.9999 17.9004H29.3593C29.0934 15.9504 27.5499 14.4068 25.5999 14.141V15.5004C25.5999 15.8318 25.3313 16.1004 24.9999 16.1004C24.6685 16.1004 24.3999 15.8318 24.3999 15.5004V14.141Z" fill="currentColor"></path>
</svg>