<svg viewBox="0 0 50 50" fill="none" xmlns="http://www.w3.org/2000/svg" class="size-[50px] shrink-0 text-black-L1">
    <path fill-rule="evenodd" clip-rule="evenodd" d="M24.9999 4.10039C13.3132 4.10039 3.5999 13.3496 3.5999 25.0004C3.5999 36.6556 13.0677 45.9004 24.9999 45.9004C36.9321 45.9004 46.3999 36.6556 46.3999 25.0004C46.3999 24.669 46.6685 24.4004 46.9999 24.4004C47.3313 24.4004 47.5999 24.669 47.5999 25.0004C47.5999 37.3452 37.5677 47.1004 24.9999 47.1004C12.4321 47.1004 2.3999 37.3452 2.3999 25.0004C2.3999 12.6512 12.6866 2.90039 24.9999 2.90039C31.865 2.90039 38.0294 5.94464 42.1499 10.6933V5.25039C42.1499 4.91902 42.4185 4.65039 42.7499 4.65039C43.0813 4.65039 43.3499 4.91902 43.3499 5.25039V10.7504C43.3499 12.0818 42.3313 13.1004 40.9999 13.1004H35.4999C35.1685 13.1004 34.8999 12.8318 34.8999 12.5004C34.8999 12.169 35.1685 11.9004 35.4999 11.9004H40.9999C41.187 11.9004 41.3594 11.8627 41.5107 11.7938C37.6124 7.11941 31.6554 4.10039 24.9999 4.10039ZM24.9999 5.65039C25.3313 5.65039 25.5999 5.91902 25.5999 6.25039V7.50039C25.5999 7.83176 25.3313 8.10039 24.9999 8.10039C24.6685 8.10039 24.3999 7.83176 24.3999 7.50039V6.25039C24.3999 5.91902 24.6685 5.65039 24.9999 5.65039ZM25.4999 13.9004C25.8313 13.9004 26.0999 14.169 26.0999 14.5004V24.2561L36.1792 34.5813C36.4107 34.8184 36.4061 35.1983 36.169 35.4297C35.9319 35.6612 35.552 35.6566 35.3206 35.4195L25.0706 24.9195C24.9611 24.8074 24.8999 24.657 24.8999 24.5004V14.5004C24.8999 14.169 25.1685 13.9004 25.4999 13.9004ZM5.1499 25.0004C5.1499 24.669 5.41853 24.4004 5.7499 24.4004H7.2499C7.58127 24.4004 7.8499 24.669 7.8499 25.0004C7.8499 25.3318 7.58127 25.6004 7.2499 25.6004H5.7499C5.41853 25.6004 5.1499 25.3318 5.1499 25.0004ZM24.9999 41.9004C25.3313 41.9004 25.5999 42.169 25.5999 42.5004V43.7504C25.5999 44.0818 25.3313 44.3504 24.9999 44.3504C24.6685 44.3504 24.3999 44.0818 24.3999 43.7504V42.5004C24.3999 42.169 24.6685 41.9004 24.9999 41.9004Z" fill="currentColor"></path>
</svg>