<svg viewBox="0 0 150 113" fill="none" xmlns="http://www.w3.org/2000/svg" class="aspect-[15/11] mb-5 w-[150px]">
    <path d="M90.7257 107.447H16.9354C10.258 107.447 4.83862 102.038 4.83862 95.3739V63.9851C4.83862 47.9767 17.8306 35.0107 33.8709 35.0107H107.661C114.339 35.0107 119.758 40.4193 119.758 47.0834V78.4722C119.758 94.4805 106.766 107.447 90.7257 107.447Z" fill="#F5EDD0"></path>
    <path d="M59.0323 80.3791C58.863 79.8961 58.6936 79.4132 58.5485 78.9545C58.6694 78.6889 58.5968 78.4233 58.5485 78.1818C58.3791 77.3367 58.3549 76.4917 58.4275 75.6707C58.5727 73.9806 58.742 72.3145 58.9598 70.6485C59.371 67.244 59.8065 63.8637 60.242 60.4592C60.6291 57.4652 60.992 54.4953 61.4275 51.5013C61.9114 48.2417 62.2743 44.9821 62.6856 41.6983C62.9517 39.5494 63.0968 37.3763 63.4839 35.2516C63.9194 32.8853 64.4033 30.5191 65.0323 28.2012C65.1049 27.8873 65.1775 27.6217 64.6936 27.67C64.863 27.2595 65.0323 26.849 65.5888 26.9215C65.0565 27.5734 65.2501 28.2253 65.5888 28.8772C65.8791 29.4326 66.2904 29.8672 66.8227 30.1811C67.3065 30.4708 67.3307 30.8088 67.113 31.2676C66.7259 32.0402 66.7259 32.9095 66.5565 33.7304C66.5081 33.996 66.6049 34.3582 66.8227 34.3099C67.4033 34.2133 67.1614 34.5996 67.1372 34.7928C66.7743 36.5554 66.7501 38.318 67.0646 40.0565C67.6452 43.3885 68.9033 46.3584 71.4436 48.7246C73.4033 50.5597 75.5565 52.105 77.9033 53.4088C80.2501 54.7126 82.7178 55.7509 85.3065 56.427C87.5323 57.0064 89.8307 57.1272 92.1291 57.1755C93.5081 57.1996 94.863 57.0064 96.1694 56.5718C96.7985 56.3545 97.4275 56.0889 97.5001 55.268C97.621 55.2921 97.7662 55.3163 97.8872 55.3163C97.9356 55.6785 97.8872 56.0406 97.8146 56.3787C97.5001 57.6584 97.1614 58.9381 96.871 60.2419C96.5807 61.594 96.1452 62.8737 95.2985 63.9844C94.9597 64.4432 94.742 64.9744 94.6694 65.5297C94.5243 66.7128 94.2339 67.896 94.5001 69.1032C94.5727 69.4171 94.5001 69.7068 94.4275 69.9966C93.1936 74.5842 91.9356 79.1718 90.7017 83.7594C90.242 84.4113 89.7097 84.9908 89.1533 85.5461C88.9597 85.8842 88.6452 86.1015 88.2823 86.2464C85.6936 87.3329 82.9839 87.9607 80.1775 88.2504C77.0565 88.5884 73.9598 88.5643 70.8872 87.7192C66.4598 86.4637 62.4678 84.5562 59.5646 80.8137C59.4436 80.6688 59.2259 80.5481 59.0323 80.3791ZM81.0485 84.532C82.5243 84.6045 84.1936 84.2664 85.863 83.9767C87.0727 83.7594 88.2581 83.4214 89.3468 82.866C89.5646 82.7694 89.8549 82.6246 89.7097 82.3348C89.5888 82.0934 89.2985 82.2141 89.0807 82.3107C89.0323 82.3348 89.0081 82.3348 88.9598 82.359C87.0485 83.2282 85.0404 83.5662 82.9839 83.5662C80.6856 83.5662 78.3872 83.3972 76.113 83.204C72.3388 82.9143 68.8307 81.7312 65.4678 80.0893C63.6533 79.1959 62.1533 77.8197 60.5081 76.6365C60.2904 76.4917 60.0968 76.2985 59.8307 76.2502C59.7098 76.2261 59.5888 76.1536 59.5162 76.2744C59.4194 76.3951 59.5162 76.4917 59.5888 76.5882C59.8791 77.0229 60.2904 77.3609 60.6775 77.6989C63.0968 79.7513 65.613 81.6346 68.6614 82.6729C72.6049 84.0491 76.6936 84.4113 81.0485 84.532Z" fill="#4184A7"></path>
    <path d="M59.0323 33.0787C59.371 33.6341 59.5162 34.2136 59.5162 34.8655C59.6372 40.0567 59.0807 45.1755 57.6775 50.1736C56.7823 53.3849 55.5726 56.4996 53.4678 59.1315C52.8388 59.9041 52.5968 60.5802 52.6936 61.5943C52.9114 63.9847 51.4114 65.9163 49.0888 66.5441C48.871 66.6165 48.6291 66.6889 48.4114 66.858C48.9194 66.9062 49.4033 66.9545 49.9114 66.9787C51.6533 67.0753 52.621 68.3067 52.3065 70.021C52.0646 71.4214 51.3872 72.3389 49.863 73.3047C51.2662 74.2706 51.3872 75.6468 51.121 77.1438C51.0485 77.6267 50.8549 78.1096 50.4194 78.3752C49.9597 78.665 50.0323 78.9547 50.2017 79.3652C50.8549 81.0312 50.7339 81.4658 49.3549 82.649C49.0646 82.9146 48.9194 83.2526 48.9678 83.6148C49.0646 84.4116 49.1855 85.2084 49.2823 86.0051C49.3065 86.319 49.4517 86.4156 49.742 86.3915C51.8468 86.3432 53.9275 86.5846 56.0081 86.7536C56.6855 86.8019 57.3388 86.971 57.992 87.2366C58.5485 87.478 58.9114 87.8402 58.9355 88.4438C58.9597 89.0957 58.6452 89.6269 58.0404 89.8925C56.1049 90.8101 54.0968 91.3654 51.9678 91.6068C48.7501 91.969 45.5323 91.9207 42.3146 91.7034C41.0081 91.6068 39.7017 91.4861 38.5888 90.6893C37.5726 89.965 37.5485 89.144 38.5888 88.4438C40.3549 87.2366 42.3872 86.7537 44.492 86.5363C45.2904 86.4398 45.2904 86.4881 45.2904 85.7154C45.2904 85.4257 45.2904 85.1601 45.2904 84.7737C43.9839 85.4257 42.6049 85.5947 41.3952 86.3915C40.1372 87.2366 38.6372 87.6712 37.1372 88.0092C35.2985 88.4438 33.4355 88.4197 31.5484 88.3472C28.2581 88.2265 24.9436 88.1058 21.6533 87.9851C21.2662 87.9609 20.8791 87.9126 20.5162 87.8643C19.6936 87.7677 18.8468 87.7436 18.0001 87.7436C15.4839 87.7195 13.4275 86.5122 12.9194 83.8562C12.242 80.3793 12.0485 76.9265 12.871 73.4496C13.1614 72.1941 13.8872 71.2524 15.0243 70.6005C18.9436 68.355 22.5485 65.6748 26.4194 63.3569C29.0807 61.7633 31.8146 60.3146 34.863 59.5661C36.4597 59.1798 38.0807 58.9866 39.7017 59.2039C39.9194 59.2281 40.1372 59.2763 40.3791 59.1315C40.1614 58.8176 39.9436 58.5037 39.7259 58.214C37.5001 55.0992 36.2178 51.5982 35.3952 47.9039C34.6694 44.765 34.0162 41.602 33.6533 38.3907C33.5081 37.2076 33.4597 36.0245 33.5323 34.8414C33.5565 34.4309 33.7259 34.1894 34.0888 33.9963C34.621 33.6824 35.2017 33.4651 35.7823 33.2236C40.1372 32.0405 44.5888 31.8715 49.0646 31.7749C51.6775 31.7025 54.2904 31.8956 56.8791 32.2337C57.7017 32.3302 58.3791 32.6441 59.0323 33.0787ZM30.992 87.2366C31.9114 87.2366 32.8549 87.2366 33.7743 87.2366C34.5968 87.2366 35.4194 87.3573 36.242 87.1641C36.3388 87.14 36.5807 87.1641 36.4839 87.0434C36.2178 86.6329 36.6533 86.6571 36.7743 86.6088C38.6614 85.9086 40.5485 85.2084 42.4597 84.5806C43.4517 84.2425 44.5404 84.1701 45.5081 83.6872C46.621 83.1319 47.7581 82.6007 48.871 82.0936C49.863 81.6107 50.0807 81.2002 49.8146 80.1378C49.7662 79.8964 49.6452 79.6791 49.5968 79.4618C49.4759 79.0996 49.2823 79.0272 48.9194 79.0996C47.8307 79.3169 46.9597 80.0896 45.8468 80.2344C45.4597 80.2827 45.0243 80.331 44.7097 80.5966C44.1533 81.0554 43.5001 81.1037 42.8468 81.1278C42.1936 81.152 41.9517 80.8381 41.9033 79.7757C41.8791 79.3169 42.3146 79.3652 42.6049 79.2928C43.7662 78.9547 44.9759 79.4859 46.1372 78.9789C46.863 78.665 47.7097 78.665 48.4597 78.4477C50.4194 77.8682 50.5162 77.7233 50.4678 75.671C50.4436 74.3913 49.7178 73.6669 48.4355 73.6186C47.371 73.5945 46.3065 73.7877 45.2662 73.9325C44.7823 74.005 44.3226 74.0774 43.8388 74.1257C43.6452 74.1498 43.4759 74.0774 43.4517 73.8359C43.4275 73.6186 43.5726 73.5462 43.742 73.4979C43.9839 73.4496 44.2017 73.4013 44.4436 73.353C46.1855 73.0391 47.9275 72.7977 49.6452 72.4114C50.3468 72.2424 50.8307 71.8319 51.1694 71.2524C51.3872 70.8661 51.5323 70.4556 51.6775 70.0451C52.0888 68.693 51.4114 67.7272 49.9839 67.6789C49.4033 67.6548 48.8226 67.6789 48.242 67.6306C46.113 67.4857 43.9597 67.6548 41.8549 67.365C41.6614 67.3409 41.3226 67.3892 41.3226 67.0753C41.3226 66.7372 41.6614 66.8097 41.8791 66.8097C44.2743 66.7614 46.621 66.5682 48.9194 65.8439C50.7581 65.2644 52.0646 63.6466 52.0646 61.715C52.0646 60.0249 51.6291 59.6627 49.9597 59.8075C46.6452 60.1214 43.3549 60.0249 40.0646 59.6868C37.5968 59.4212 35.2017 59.5902 32.9517 60.7251C31.5485 61.4494 30.0968 62.0289 28.742 62.8257C23.6855 65.7473 18.871 69.0552 13.9839 72.2424C13.742 72.4114 13.621 72.6528 13.5243 72.9184C13.1855 74.0291 12.9678 75.1398 12.9678 76.2988C13.0162 78.9064 13.5726 81.4417 14.3226 83.9045C14.613 84.8703 15.2662 85.6671 16.1855 86.0051C18.0485 86.6571 19.9355 87.2848 21.9678 87.2366C24.9678 87.2848 27.9678 87.0675 30.992 87.2366ZM51.0726 58.552C50.8791 59.059 51.1694 59.1315 51.5081 59.3005C51.9678 59.4937 52.1855 59.3005 52.4275 58.9625C54.0968 56.5962 55.4033 54.0368 56.3468 51.3084C57.4355 48.1454 58.2339 44.9341 58.5968 41.602C58.621 41.4813 58.7178 41.3123 58.5726 41.2157C58.4275 41.1191 58.3065 41.2881 58.2097 41.3606C57.3146 42.0849 56.2985 42.5195 55.2339 42.8817C51.1452 44.3063 46.9597 45.2238 42.6049 45.2721C40.4759 45.2962 38.2985 45.755 36.1936 45.0548C36.1452 45.0306 36.0726 45.0548 36.0243 45.0306C35.7097 44.9582 35.6855 45.1031 35.7339 45.3687C35.8549 45.8033 35.9759 46.2621 36.0726 46.6967C37.0404 50.9945 38.371 55.1234 41.2017 58.6244C41.5646 59.0832 41.9033 59.3005 42.4839 59.3005C44.8065 59.3246 47.1049 59.2039 49.4275 59.1798C50.0323 59.1556 50.5888 59.0832 51.0726 58.552ZM34.2581 35.5657C34.2581 35.7106 34.2581 35.783 34.2581 35.8796C34.4275 38.6322 35.0081 41.3123 35.4194 44.0407C35.492 44.4753 35.7097 44.5719 36.0726 44.6685C37.4033 45.0065 38.7581 44.8858 40.0888 44.8858C42.121 44.9099 44.0323 44.4512 45.8952 43.5578C49.0646 42.0366 52.2823 40.5879 55.4517 39.0426C56.4436 38.5597 57.4597 38.2217 58.5726 38.608C58.8388 38.7046 58.9597 38.608 58.9597 38.2941C58.9355 37.28 58.9355 36.2901 58.9597 35.276C58.9839 34.7931 58.8872 34.6723 58.3791 34.8172C53.0807 36.3142 47.6855 36.8454 42.1936 36.7005C39.5323 36.6522 36.871 36.5798 34.2581 35.5657ZM49.6694 87.6712C49.2581 87.1883 49.113 86.7537 48.992 86.2949C48.7743 85.4257 48.7501 84.5081 48.6291 83.6148C48.5807 83.156 48.4355 83.1077 48.0726 83.3492C47.6855 83.5906 47.2985 83.7838 46.9114 83.9769C46.5485 84.146 46.4033 84.3874 46.4275 84.7737C46.5001 85.5222 46.3549 86.2466 46.0888 86.9468C45.9436 87.2848 45.8226 87.6953 45.3388 87.2366C45.121 87.0434 44.7823 87.1641 44.5162 87.2124C43.9355 87.309 43.3791 87.4297 42.7984 87.5504C41.5888 87.8402 40.4517 88.2748 39.3872 88.8784C39.0968 89.0475 38.8065 89.2648 38.8307 89.6752C38.8549 90.0133 39.1694 90.134 39.4355 90.1823C40.863 90.4237 42.2904 90.7376 43.742 90.8101C46.2581 90.9066 48.7743 91.0757 51.2904 90.7135C53.4194 90.3996 55.5485 90.134 57.5323 89.2165C57.7743 89.0957 58.0888 89.0233 58.0646 88.6611C58.0404 88.3231 57.7743 88.2024 57.5081 88.0816C57.363 88.0092 57.1936 87.9851 57.0485 87.9368C54.871 87.4539 52.6452 87.1883 50.4436 86.9468C49.6936 86.8261 49.6936 86.8261 49.6694 87.6712ZM39.7017 33.6099C39.4597 33.4892 39.242 33.5375 39.0484 33.5858C37.863 33.8273 36.6291 33.9963 35.4678 34.3826C35.1775 34.4792 34.6452 34.3826 34.6452 34.7689C34.6452 35.0587 35.1775 35.1552 35.492 35.2035C38.2985 35.7589 41.1049 36.2176 43.9839 36.1935C47.7097 36.1693 51.363 35.6623 55.0162 35.0828C56.0807 34.9138 57.1452 34.6723 58.1372 34.2136C58.3065 34.1411 58.5485 34.0446 58.5001 33.8031C58.4759 33.6099 58.2823 33.4651 58.0646 33.4168C57.9678 33.3926 57.871 33.3443 57.7743 33.3443C56.8065 33.1995 55.8388 33.0546 54.8468 32.958C52.2339 32.7166 49.621 32.8131 47.0081 32.8373C46.9114 32.8373 46.7904 32.789 46.6936 33.0063C47.2501 33.0063 47.7581 33.0063 48.2904 33.0063C50.9033 33.0305 53.5162 33.2719 56.0807 33.7548C56.4194 33.8272 56.6614 33.948 56.613 34.2619C56.5646 34.5275 56.2259 34.4067 56.0323 34.3826C54.0968 33.9721 52.1372 33.8755 50.1775 33.779C46.3549 33.5858 42.5323 33.6099 38.7581 34.5033C38.1533 34.6482 37.5485 34.8655 36.8468 34.7448C37.6452 33.8755 38.7339 33.9238 39.7017 33.6099ZM45.5565 44.3304C45.5565 44.3546 45.5807 44.3787 45.5807 44.427C45.6775 44.427 45.7743 44.4512 45.8468 44.427C48.1936 43.8717 50.5888 43.4612 52.9114 42.7851C54.8468 42.2298 56.6614 41.4089 58.3065 40.2257C58.7662 39.8877 58.8146 39.4772 58.4275 39.1392C58.1614 38.9219 57.871 38.8495 57.5323 38.946C56.6614 39.1634 55.863 39.5014 55.0888 39.936C53.5888 40.7569 52.0888 41.5537 50.5162 42.2057C48.871 42.9059 47.2259 43.6302 45.5565 44.3304ZM44.1291 33.0063C44.9033 33.0063 45.6775 33.0063 46.4517 33.0063C46.4517 32.958 46.4517 32.8856 46.4517 32.8373C45.6775 32.9339 44.8791 32.958 44.1291 33.0063ZM42.3872 33.1512C42.8226 33.2236 43.1614 33.1995 43.5485 33.127C43.1855 33.0787 42.8468 33.0546 42.3872 33.1512ZM42.0485 33.2961C42.0726 33.2719 42.121 33.2719 42.1452 33.2478C42.121 33.2236 42.0968 33.1995 42.0485 33.1995C42.0001 33.1995 41.9759 33.2236 41.9275 33.2478C41.9759 33.2719 42.0001 33.2961 42.0485 33.2961Z" fill="#060606"></path>
    <path d="M59.0323 80.3795C59.2258 80.5243 59.4436 80.6692 59.5888 80.8382C62.492 84.5807 66.4839 86.5124 70.9113 87.7438C73.9597 88.613 77.0565 88.613 80.2017 88.275C83.0081 87.9852 85.7178 87.3574 88.3065 86.2709C88.6694 86.126 88.9839 85.9087 89.1775 85.5707C90 85.4741 90.8226 84.5325 90.7258 83.784C91.9597 79.1964 93.2178 74.6088 94.4517 70.0212C94.5242 69.7314 94.5968 69.4417 94.5242 69.1278C94.2581 67.9205 94.5484 66.7374 94.6936 65.5543C94.7662 64.9989 94.9839 64.4436 95.3226 64.009C96.1694 62.8983 96.5807 61.5945 96.8952 60.2665C97.1855 58.9626 97.5242 57.6829 97.8387 56.4032C97.9355 56.0411 97.9839 55.703 97.9113 55.3408C98.0807 54.8579 98.0565 54.3267 98.2017 53.8197C99.75 49.1355 101.056 44.3789 102.073 39.5498C102.29 38.5116 102.677 37.5216 102.653 36.4351C102.653 36.411 102.677 36.411 102.677 36.3868C102.677 36.3627 102.653 36.3385 102.629 36.3144C102.919 36.2661 103.089 36.3385 103.04 36.6766C102.992 37.1836 102.992 37.6907 102.919 38.1736C102.677 39.574 102.387 40.9744 102.121 42.3507C102.073 42.6404 102.048 42.7612 102.411 42.737C103.79 42.6646 105.145 42.8095 106.5 42.9302C107.323 43.0026 108.145 43.0751 109.04 43.1716C108.944 43.0268 108.895 42.9302 108.847 42.8577C107.589 41.409 106.839 39.6706 106.089 37.9563C105.726 37.1353 106.016 35.8798 106.694 35.59C107.444 35.252 108.194 34.9381 109.065 34.9622C110.419 34.9864 111.726 35.2037 112.984 35.7349C113.879 36.1212 114.823 36.4351 115.742 36.7731C118.089 37.6907 120.436 38.6082 122.782 39.5498C124.573 40.2742 126.411 40.9503 128.081 41.9644C130.331 43.3407 132.218 45.0791 133.911 47.059C136.065 49.5943 138.218 52.1295 139.96 55.0028C140.734 56.2825 141.363 57.6105 141.992 58.9385C142.427 59.856 143.056 60.6287 143.855 61.2564C144.29 61.5945 144.702 61.9325 145.065 62.343C146.347 63.7192 146.081 65.4336 144.508 66.4235C143.806 66.8581 143.056 67.172 142.306 67.4859C141.532 67.7998 141.436 68.0171 141.46 68.8622C141.484 70.335 141.968 71.6872 142.548 73.0393C143.032 74.1983 143.468 75.3814 143.637 76.6611C143.782 77.8925 143.444 78.8825 142.355 79.6068C141.315 80.307 140.25 80.959 139.427 81.9248C139.186 82.2145 138.798 82.1421 138.532 82.3835C137.831 83.0596 137.71 83.9047 137.927 84.7739C138.194 85.8846 138.581 86.947 138.895 88.0577C139.403 89.8686 138.895 90.8102 137.129 91.4863C136.065 91.8968 134.903 92.0658 133.936 92.7177C133.815 92.7901 133.621 92.7901 133.476 92.766C133.258 92.7177 133.113 92.6936 132.992 92.935C132.871 93.2006 132.581 93.1523 132.339 93.1523C127.863 92.935 123.411 92.8626 118.96 92.2106C118.403 92.1382 117.847 92.0899 117.29 92.0416C115.96 91.8485 114.605 91.7036 113.298 91.438C110.347 90.8344 107.371 90.3032 104.516 89.3615C101.177 88.2508 98.492 86.1743 96.4113 83.3493C95.7097 82.4077 95.5646 81.297 95.371 80.1863C95.371 80.138 95.371 80.0656 95.3468 80.0173C95.2742 79.631 95.3226 79.1722 95.1291 78.9066C94.8871 78.5927 94.4275 78.8825 94.0646 78.9066C93.6775 78.9308 93.4597 78.7135 93.242 78.3513C93 79.2205 92.7581 80.0897 92.492 80.959C92.2984 81.635 92.1049 82.3111 91.9113 82.9872C91.7904 83.4218 91.6452 83.8322 91.3065 84.1461C91.2581 84.1944 91.1613 84.2669 91.1613 84.3152C91.3791 85.1844 90.6775 85.5224 90.1936 85.9329C88.6936 87.2367 86.8065 87.7921 84.9436 88.3716C80.3952 89.8203 75.75 90.0617 71.1291 88.9028C67.7178 88.0577 64.621 86.4882 61.8388 84.3152C60.7258 83.4459 59.8549 82.3111 58.9597 81.2487C58.4517 80.7899 58.5484 80.4761 59.0323 80.3795ZM100.282 50.1013C100.887 50.0047 101.395 49.6667 101.976 49.4494C101.879 49.377 101.831 49.3528 101.806 49.3528C101.565 49.2562 101.129 49.3045 101.177 48.9423C101.226 48.5319 101.637 48.6768 101.927 48.6768C103.548 48.6285 105.194 48.7975 106.815 48.9665C107.54 49.0389 108.29 49.1355 108.919 49.6184C109.21 49.8357 109.524 49.9323 109.863 50.0047C111.048 50.2462 112.258 50.4635 113.468 50.705C113.855 50.7774 114 50.6567 114 50.2945C114 48.9423 114.024 47.5902 112.597 46.7934C112.379 46.6727 112.161 46.4795 112.016 46.2622C111.097 44.9101 109.766 44.4272 108.194 44.234C106.186 43.9926 104.202 43.4372 102.145 43.5821C101.806 43.6062 101.661 43.6545 101.589 44.0167C101.347 45.224 101.032 46.4071 100.79 47.5902C100.621 48.4112 100.258 49.2321 100.282 50.1013C100.258 50.0772 100.234 50.0772 100.21 50.1255C100.21 50.1496 100.21 50.1496 100.21 50.1738C100.258 50.1496 100.258 50.1255 100.282 50.1013ZM98.9758 57.5381C98.9275 58.0934 98.8791 58.5522 98.8307 59.0109C98.7339 60.3389 98.4436 61.5703 97.6452 62.681C97.0646 63.5019 96.5807 64.3712 96.0968 65.2645C95.4436 66.4477 95.5162 67.7032 95.6129 68.9346C95.6613 69.5865 96.0242 70.2626 96.2178 70.9387C96.6533 72.3874 96.8952 73.8844 96.5081 75.3814C96.0484 77.1923 96.121 78.9791 96.4113 80.8141C96.7017 82.6491 97.4033 84.1944 98.9033 85.3293C99.2178 85.5707 99.6291 85.7397 99.8952 86.0053C101.105 87.2609 102.702 87.8404 104.25 88.4681C106.331 89.2891 108.532 89.772 110.758 90.11C113.129 90.4963 115.5 90.8827 117.871 91.2448C119.903 91.5587 121.936 91.7277 123.992 91.8726C126.823 92.0658 129.653 92.3555 132.484 92.3314C132.677 92.3314 132.798 92.3555 132.871 92.1141C133.113 91.3897 133.718 91.0758 134.395 90.8827C135.024 90.7136 135.653 90.6654 136.306 90.6171C137.661 90.5446 138.097 89.9169 137.734 88.6372C137.516 87.8645 137.226 87.116 136.96 86.3675C135.919 83.3493 136.645 81.1038 139.282 79.3171C140.153 78.7376 141.048 78.2305 141.919 77.6511C142.79 77.0716 142.911 76.6611 142.597 75.6711C142.089 74.1259 141.556 72.5564 141.048 71.0111C140.516 69.3209 140.782 67.7757 141.895 66.3752C142.016 66.2304 142.161 66.1338 142.331 66.0855C143.032 65.8682 143.686 65.4818 144.29 65.0714C144.992 64.5885 145.065 64.178 144.508 63.5502C143.879 62.8259 143.25 62.1498 142.573 61.4737C142.258 61.1357 142.089 60.6528 141.629 60.4596C141.315 60.3389 141.169 60.1216 141.048 59.8319C139.887 57.3208 138.508 54.9787 136.863 52.7332C134.492 49.5218 131.806 46.5761 129.145 43.6304C129.048 43.5097 128.903 43.3165 128.782 43.3165C128.177 43.3648 127.863 42.8819 127.452 42.6163C126.968 42.3024 126.46 41.9885 125.927 41.7712C123.629 40.8537 121.355 39.9362 119.056 39.0428C116.806 38.1494 114.46 37.4975 112.282 36.3627C111 35.7107 109.694 35.7832 108.363 36.2419C108.048 36.3627 107.927 36.5558 107.952 36.8939C108 37.5458 108.048 38.2219 108.048 38.8738C108.048 39.8154 108.387 40.6122 108.919 41.3849C109.815 42.6646 111.097 43.558 111.992 44.8618C112.984 46.2864 114.532 47.1797 115.984 48.1214C117.024 48.7975 117.556 49.715 118.016 50.7532C118.186 51.1637 118.306 51.5742 118.427 52.0088C118.5 52.2985 118.379 52.5641 118.137 52.7573C118.016 52.8539 117.871 52.9022 117.75 52.7814C117.121 52.202 116.298 52.2502 115.548 52.1295C112.113 51.6466 108.726 51.0188 105.46 49.8357C105.266 49.7633 105.073 49.715 104.831 49.7633C104.129 49.9323 103.403 49.9806 102.702 50.1738C101.347 50.5359 100.186 51.1637 99.6533 52.6124C99.3871 53.3609 99.4597 54.0853 99.4597 54.8096C99.4597 55.9686 99.7017 57.0793 100.379 58.0693C100.5 58.2383 100.573 58.4314 100.694 58.6005C100.669 58.6246 100.645 58.6246 100.621 58.6487C100.089 58.3107 99.5565 57.9485 98.9758 57.5381ZM93.2178 78.2788C93.2662 78.303 93.3146 78.3513 93.3629 78.3754C93.5323 78.2064 93.75 78.0615 93.992 78.0615C94.9355 78.0374 95.25 77.5062 95.2984 76.6128C95.3468 75.7919 95.5646 74.9951 95.6855 74.1741C95.7581 73.7637 95.492 73.5705 95.1533 73.5222C94.8387 73.4739 94.5 73.3773 94.4033 73.9085C94.2823 74.5846 94.0646 75.2124 93.871 75.8885C93.6533 76.6852 93.4355 77.482 93.2178 78.2788ZM116.976 51.3327C116.782 49.9565 116.177 49.2562 114.823 48.7975C114.774 49.3287 114.75 49.884 114.702 50.4152C114.677 50.6808 114.774 50.8257 115.04 50.874C115.669 51.0188 116.298 51.1637 116.976 51.3327ZM95.1775 71.2767C95.0565 71.6872 94.9597 72.0011 94.8629 72.2908C94.7662 72.6047 94.6936 72.9427 94.621 73.2566C95.5404 73.3532 95.9275 72.8944 95.1775 71.2767ZM98.0323 58.9868C97.9355 59.3248 97.8629 59.687 97.742 60.0975C98.1049 59.7353 98.2742 59.4214 98.0323 58.9868Z" fill="#060606"></path>
    <path d="M97.5001 55.2922C97.4276 56.1131 96.8227 56.3787 96.1695 56.5961C94.863 57.0307 93.5082 57.2238 92.1292 57.1997C89.8308 57.1514 87.5324 57.0307 85.3066 56.4512C82.7179 55.7751 80.2501 54.7369 77.9034 53.433C75.5566 52.1292 73.4034 50.5839 71.4437 48.7488C68.9034 46.3826 67.6453 43.4127 67.0647 40.0807C66.7501 38.3181 66.7743 36.5555 67.1372 34.817C67.1856 34.6239 67.4276 34.2617 66.8227 34.3341C66.605 34.3583 66.5082 33.9961 66.5566 33.7546C66.7018 32.9337 66.7259 32.0645 67.113 31.2918C67.355 30.8331 67.3066 30.495 66.8227 30.2053C66.3147 29.8914 65.8792 29.4568 65.5889 28.9014C65.2501 28.2495 65.0566 27.5976 65.5889 26.9457C66.5808 26.4628 67.6695 26.2696 68.734 26.2213C74.6372 26.004 80.5163 26.2696 86.2985 27.5735C90.0727 28.4185 93.7259 29.5775 97.355 30.9055C98.8066 31.4367 100.137 32.2576 101.419 33.1027C102.363 33.9961 103.234 34.8895 102.557 36.3382C102.436 36.2657 102.436 36.3865 102.387 36.4348C101.419 36.7728 100.476 37.1591 99.4356 37.1833C96.4598 37.2316 93.484 37.0625 90.5082 36.6762C84.7743 35.9036 79.0888 34.7446 73.5485 33.0544C72.5808 32.7647 71.613 32.4991 70.5243 32.1852C71.4921 34.3824 72.3872 36.4589 73.2824 38.5354C74.5647 41.5294 75.8227 44.5476 77.9518 47.107C79.4034 48.8696 81.1211 50.27 83.2985 50.9461C86.855 52.0809 90.4598 53.0226 94.0647 53.9642C95.2743 54.2781 96.484 54.5437 97.5001 55.2922ZM99.1211 36.314C99.8953 36.314 100.694 36.3382 101.468 36.314C102.121 36.2899 102.266 36.0001 101.976 35.3965C101.734 34.8653 101.371 34.4066 100.887 34.0444C99.8711 33.2717 98.7824 32.644 97.6453 32.1128C95.6856 31.2194 93.6292 30.664 91.5969 30.0121C87.6534 28.7566 83.613 27.9598 79.4759 27.5252C77.5647 27.3079 75.6776 27.2113 73.7663 27.0905C71.4437 26.9457 69.1453 27.163 66.8469 27.4527C66.2421 27.5252 66.1211 27.7908 66.3872 28.3702C66.605 28.829 67.0889 29.0946 67.4034 29.4568C67.6937 29.7948 68.0324 29.9155 68.4679 29.8431C68.9759 29.7707 69.363 29.9638 69.6776 30.3502C69.9921 30.7606 70.4276 31.0021 70.9356 31.147C76.4034 32.7888 81.8953 34.2858 87.5324 35.2275C91.3792 35.8553 95.2259 36.3623 99.1211 36.314ZM97.0888 55.4854C96.8711 55.3888 96.7743 55.3405 96.6534 55.2922C95.2501 54.8093 93.7985 54.6644 92.3711 54.3264C89.5405 53.6745 86.734 53.0708 83.9276 52.274C81.1453 51.5014 78.6534 50.2458 76.9598 47.7589C76.6211 47.2518 76.1614 46.8655 75.8227 46.3585C74.6372 44.5234 73.863 42.4952 73.0647 40.4912C71.9759 37.7869 70.984 35.0585 69.9437 32.3301C69.7985 31.9196 68.4921 31.0987 68.105 31.1228C68.0566 31.1228 68.0324 31.147 67.984 31.147C67.8389 31.2194 67.4276 32.7164 67.5001 32.8613C67.5243 32.8854 67.5485 32.9337 67.5727 32.9337C68.105 32.9337 67.9598 33.32 67.9356 33.5856C67.9114 33.9961 67.8389 34.3824 67.7905 34.7687C67.6453 36.2175 67.4759 37.642 67.6695 39.0907C68.2985 43.5335 71.0324 46.5758 74.3469 49.2317C75.6776 50.2941 77.1776 51.1392 78.5808 52.0809C79.984 53.0467 81.5324 53.5779 83.0324 54.254C84.2663 54.8093 85.6211 55.099 86.9518 55.4129C89.4437 56.0166 91.984 56.4029 94.5485 55.9441C95.3953 55.8717 96.2179 55.8958 97.0888 55.4854Z" fill="#060606"></path>
    <path d="M80.8792 19.4127C83.5163 16.5394 86.5647 14.3422 90.3147 13.1591C94.5002 11.8552 98.7582 10.8411 103.089 10.2375C103.742 10.1409 104.395 9.99606 104.952 9.58559C105.823 8.93367 105.871 7.89543 105.097 7.14692C104.347 6.39842 103.403 6.25355 102.411 6.32598C100.355 6.495 98.4679 7.2435 96.6292 8.13688C96.097 8.40248 95.5647 8.69222 95.0082 8.93367C94.5244 9.15098 94.0163 9.17512 93.605 8.81294C93.1695 8.42662 93.1937 7.89543 93.3389 7.36423C93.4599 6.88132 93.7744 6.51915 94.0889 6.13282C94.2341 5.93966 94.3792 5.7465 94.5002 5.55334C94.6937 5.2153 94.7663 4.87727 94.5002 4.53923C94.2099 4.2012 93.8712 4.29778 93.5566 4.44265C91.9115 5.2153 90.5082 6.30184 89.226 7.58154C88.6211 8.18517 88.0889 8.83709 87.605 9.51316C87.4841 9.68217 87.3389 9.82705 87.1937 9.94777C87.0244 10.0926 86.8066 10.2375 86.5889 10.0926C86.3711 9.97192 86.5405 9.73046 86.5647 9.5373C86.6615 8.7888 86.6857 8.06444 86.4921 7.31594C86.2502 6.35013 85.5486 5.69821 84.6534 5.67406C83.8066 5.62577 83.0808 6.18111 82.7421 7.14692C82.4276 8.01615 82.4034 8.95782 82.2582 9.87534C82.1131 10.817 82.0163 11.7828 81.847 12.7245C81.5808 14.149 80.7824 15.308 79.7905 16.3463C79.6937 16.467 79.5244 16.5394 79.3792 16.5877C79.2824 16.636 79.1615 16.636 79.0647 16.5153C78.9679 16.3946 78.9679 16.298 79.0405 16.1772C79.0889 16.0807 79.1373 15.9841 79.2099 15.9358C80.5405 14.6078 80.8308 12.8935 81.0244 11.1309C81.1695 9.92363 81.2179 8.69222 81.6292 7.5091C82.1373 6.08453 83.0808 5.07043 84.5808 4.63582C86.105 4.2012 87.4115 5.16701 87.6776 6.88132C87.726 7.19521 87.7502 7.5091 87.7744 7.84713C87.9921 7.89543 88.0405 7.70226 88.1373 7.58154C89.6373 5.93966 91.355 4.61167 93.3147 3.59757C93.605 3.4527 93.9195 3.28368 94.2582 3.21125C95.2502 2.94565 95.9518 3.62171 95.7582 4.65996C95.6373 5.2153 95.3228 5.64992 94.9599 6.06039C94.7421 6.30184 94.5486 6.54329 94.4276 6.85718C94.3066 7.19521 94.355 7.5091 94.597 7.75055C94.8147 7.96786 95.105 7.94372 95.3953 7.82299C95.7582 7.65397 96.1212 7.48496 96.4599 7.29179C98.4437 6.20526 100.549 5.52919 102.774 5.19116C103.67 5.07043 104.541 5.16701 105.363 5.57748C106.96 6.42256 107.274 8.18517 106.065 9.51316C105.097 10.5755 103.815 11.0585 102.436 11.2758C98.5405 11.9518 94.7663 13.0625 90.9679 14.0766C87.9195 14.8734 85.2099 16.3221 83.0082 18.6159C82.6937 18.9298 82.355 19.2196 82.0405 19.5093C81.6776 19.2678 81.2663 19.4851 80.8792 19.4127Z" fill="#060606"></path>
    <path d="M64.6937 27.6707C65.1776 27.6224 65.105 27.888 65.0324 28.2019C64.4034 30.5199 63.9437 32.8861 63.484 35.2523C63.0728 37.3771 62.9518 39.5502 62.6857 41.6991C62.2744 44.9587 61.9115 48.2425 61.4276 51.5021C60.9921 54.472 60.6292 57.466 60.2421 60.46C59.8066 63.8645 59.3711 67.2448 58.9599 70.6493C58.7663 72.3153 58.5728 74.0055 58.4276 75.6715C58.355 76.5166 58.3792 77.3617 58.5486 78.1826C58.597 78.4241 58.6453 78.6897 58.5486 78.9553C57.9679 78.8345 57.8711 78.3033 57.726 77.8687C57.4599 77.0478 57.5082 76.2027 57.5808 75.3576C57.9437 72.0014 58.3066 68.6452 58.6937 65.3132C58.9599 62.9711 59.2018 60.6532 59.4921 58.3111C59.8308 55.6551 60.2421 52.9991 60.605 50.319C60.9679 47.7354 61.3308 45.1519 61.6695 42.5684C62.0808 39.4778 62.5889 36.3872 63.2179 33.3207C63.2421 33.2483 63.2179 33.1517 63.2421 33.0793C63.6292 31.5581 63.9921 30.037 64.3792 28.4917C64.476 28.2019 64.476 27.888 64.6937 27.6707Z" fill="#060606"></path>
    <path d="M72.8227 17.3125C72.6775 18.2058 72.3872 19.0992 71.9275 19.9443C71.0324 21.5137 70.0888 23.059 69.1936 24.6043C69.0485 24.8699 68.8549 25.0631 68.5162 24.9665C68.2259 24.8941 68.0324 24.7492 67.9356 24.387C67.6211 23.2039 67.9356 22.0932 68.2259 20.9584C68.5888 19.6063 69.0485 18.2783 69.8711 17.1193C70.2824 16.5157 70.8146 16.0811 71.613 16.0811C72.3388 16.0811 72.8227 16.5398 72.8227 17.3125ZM68.9275 22.8176C70.0162 21.224 71.0082 19.6304 71.6372 17.8195C71.6856 17.6505 71.8307 17.409 71.613 17.2642C71.3711 17.0952 71.2259 17.3608 71.0566 17.4815C70.984 17.5539 70.9114 17.6264 70.863 17.6988C69.7501 19.2441 69.1453 20.9584 68.9275 22.8176Z" fill="#060606"></path>
    <path d="M80.226 21.3925C79.4276 22.3342 78.6292 23.3 77.8066 24.2175C77.4195 24.6522 77.2986 24.6039 77.105 24.0244C76.8631 23.2759 77.226 22.6481 77.4437 21.9962C77.5405 21.7306 77.855 21.3684 77.6131 21.1752C77.3953 20.9821 77.105 21.3684 76.8389 21.5133C75.7018 22.141 74.8066 23.0827 73.7179 23.7829C73.476 23.9278 73.2098 24.2658 72.9195 24.0727C72.605 23.8554 72.8711 23.469 72.9679 23.1793C73.6695 20.9579 75.0969 19.2919 77.0324 18.0605C77.2018 17.9639 77.3953 17.819 77.5647 18.0122C77.7824 18.2295 77.6373 18.4468 77.4679 18.5917C77.2744 18.7849 77.0324 18.9539 76.7905 19.0987C75.605 19.9197 74.734 20.9821 74.1534 22.4308C74.5405 22.3101 74.734 22.0928 74.9518 21.9237C75.4598 21.5616 75.9437 21.1752 76.4518 20.8131C76.7421 20.6199 77.0324 20.4509 77.3711 20.3543C77.734 20.2336 78.1937 20.0887 78.484 20.4509C78.7502 20.7889 78.4598 21.1269 78.2905 21.4408C78.0969 21.803 77.8792 22.141 77.6856 22.4791C77.5889 22.6722 77.4195 22.8895 77.6131 23.2034C78.4598 22.2618 79.1373 21.1752 80.0324 20.306C80.1534 20.6682 79.9115 21.0545 80.226 21.3925Z" fill="#060606"></path>
    <path d="M80.2258 21.3922C79.9113 21.0783 80.1532 20.6678 80.0565 20.3056C80.0565 20.2815 80.0807 20.2574 80.0565 20.2574C79.9597 19.6296 80.2258 19.364 80.8549 19.4364C81.242 19.5089 81.6532 19.2915 82.0161 19.5813C82.0161 20.04 81.9678 20.4988 81.9919 20.9576C81.9919 21.2715 81.9194 21.3922 81.5807 21.368C81.1452 21.3439 80.6855 21.368 80.2258 21.3922ZM81.7742 20.3781C81.9436 19.7745 81.6532 19.6537 81.0968 19.6537C80.492 19.6296 80.2984 19.7986 80.2984 20.4264C80.2742 21.0783 80.5403 21.1266 81.0968 21.1749C81.7258 21.199 81.9194 20.9576 81.7742 20.3781Z" fill="#4184A7"></path>
    <path d="M97.5002 55.2926C96.484 54.5441 95.2986 54.2785 94.1131 53.9646C90.5082 53.0229 86.9034 52.0812 83.3469 50.9464C81.1695 50.2462 79.476 48.8699 78.0002 47.1073C75.8711 44.5238 74.6131 41.5298 73.3308 38.5357C72.4357 36.4593 71.5405 34.3828 70.5728 32.1855C71.6615 32.4994 72.6292 32.765 73.5969 33.0548C79.1373 34.7449 84.7986 35.9039 90.5566 36.6766C93.5082 37.087 96.484 37.2319 99.484 37.1836C100.549 37.1595 101.468 36.7731 102.436 36.4351C102.508 36.4351 102.557 36.4351 102.629 36.4593C102.653 37.5458 102.266 38.5357 102.049 39.574C101.032 44.403 99.726 49.1597 98.1776 53.8438C98.0082 54.3509 98.0324 54.8821 97.8873 55.365C97.7421 55.3408 97.6211 55.3167 97.5002 55.2926Z" fill="#FDFDFD"></path>
    <path d="M81.0484 84.5328C76.6694 84.412 72.6049 84.074 68.6613 82.6977C65.6129 81.6353 63.0968 79.7762 60.6774 77.7238C60.2903 77.3858 59.8791 77.0477 59.5887 76.6131C59.5161 76.5165 59.4436 76.42 59.5161 76.2992C59.6129 76.1785 59.7339 76.2509 59.8307 76.2751C60.0968 76.3234 60.2903 76.5165 60.5081 76.6614C62.1532 77.8204 63.6291 79.2208 65.4678 80.1142C68.8307 81.7561 72.3387 82.915 76.1129 83.2289C78.4113 83.4221 80.6855 83.5911 82.9839 83.5911C85.0645 83.5911 87.0726 83.2531 88.9597 82.3838C89.0081 82.3597 89.0323 82.3597 89.0807 82.3356C89.2984 82.239 89.5887 82.1182 89.7097 82.3597C89.8549 82.6494 89.5645 82.7702 89.3468 82.8909C88.2339 83.4462 87.0726 83.8084 85.8629 84.0016C84.1936 84.2672 82.5242 84.5811 81.0484 84.5328Z" fill="#060606"></path>
    <path d="M90.7017 83.8086C90.7985 84.5571 89.9759 85.4988 89.1533 85.5953C89.7098 85.04 90.242 84.4605 90.7017 83.8086Z" fill="#CDE3ED"></path>
    <path d="M30.9919 87.2366C27.9919 87.0675 24.9919 87.2849 21.9919 87.3331C19.9596 87.3814 18.0725 86.7537 16.2096 86.1017C15.2661 85.7637 14.6371 84.9428 14.3467 84.0011C13.5967 81.5141 13.0161 79.003 12.9919 76.3953C12.9677 75.2364 13.2096 74.1257 13.5484 73.015C13.6451 72.7253 13.7661 72.4838 14.008 72.3389C18.8951 69.1518 23.7096 65.8439 28.7661 62.9223C30.1209 62.1496 31.5725 61.546 32.9758 60.8216C35.2258 59.6627 37.5967 59.5178 40.0887 59.7834C43.379 60.1214 46.6935 60.218 49.9838 59.9041C51.6532 59.7351 52.0887 60.1214 52.0887 61.8116C52.0887 63.7191 50.7822 65.361 48.9435 65.9404C46.6451 66.6648 44.2742 66.8338 41.9032 66.9063C41.6854 66.9063 41.3467 66.8338 41.3467 67.1719C41.3467 67.4616 41.6613 67.4133 41.879 67.4616C44.008 67.7513 46.1371 67.6065 48.2661 67.7272C48.8467 67.7755 49.4274 67.7513 50.008 67.7755C51.4354 67.8238 52.1371 68.7654 51.7016 70.1417C51.5806 70.5522 51.4113 70.9868 51.1935 71.349C50.8548 71.9526 50.3709 72.3389 49.6693 72.508C47.9516 72.8943 46.2096 73.1357 44.4677 73.4496C44.2258 73.4979 43.9838 73.5221 43.7661 73.5945C43.5967 73.6428 43.4758 73.7152 43.4758 73.9325C43.5 74.174 43.6693 74.2464 43.8629 74.2223C44.3467 74.174 44.8306 74.1015 45.2903 74.0291C46.3548 73.8601 47.3951 73.6911 48.4596 73.7152C49.7419 73.7635 50.4677 74.4879 50.4919 75.7676C50.5403 77.8199 50.4435 77.9648 48.4838 78.5443C47.7096 78.7616 46.8629 78.7616 46.1613 79.0755C45 79.6067 43.7661 79.0755 42.629 79.3893C42.3387 79.4618 41.9032 79.4135 41.9274 79.8723C41.9758 80.9105 42.1935 81.2485 42.8709 81.2244C43.5242 81.2002 44.1774 81.152 44.7338 80.6932C45.0483 80.4276 45.4838 80.3793 45.8709 80.331C46.9838 80.1861 47.8548 79.4135 48.9435 79.1962C49.3064 79.1238 49.5242 79.1962 49.6209 79.5584C49.6935 79.7757 49.7903 80.0171 49.8387 80.2344C50.1048 81.2968 49.8871 81.7073 48.8951 82.1902C47.7822 82.7214 46.6451 83.2526 45.5322 83.7838C44.5645 84.2667 43.5 84.3391 42.4838 84.6772C40.5725 85.3049 38.6854 86.0052 36.7984 86.7054C36.6774 86.7537 36.2419 86.7295 36.508 87.14C36.5806 87.2607 36.3629 87.2366 36.2661 87.2607C35.4435 87.4539 34.6209 87.3573 33.7983 87.3331C32.8306 87.2366 31.9113 87.2366 30.9919 87.2366Z" fill="#FDFDFD"></path>
    <path d="M51.0726 58.5519C50.6129 59.1072 50.0564 59.1797 49.4516 59.1797C47.129 59.2038 44.8306 59.3004 42.508 59.3004C41.9274 59.3004 41.5887 59.0831 41.2258 58.6243C38.3951 55.1233 37.0645 50.9944 36.0968 46.6966C36 46.2378 35.879 45.8032 35.758 45.3686C35.6855 45.1271 35.7339 44.9581 36.0484 45.0305C36.0968 45.0547 36.1693 45.0305 36.2177 45.0547C38.3226 45.7549 40.5 45.2961 42.629 45.272C46.9838 45.2237 51.1693 44.3062 55.258 42.8816C56.3226 42.5194 57.3629 42.0607 58.2338 41.3605C58.3306 41.288 58.4274 41.119 58.5968 41.2156C58.7419 41.3122 58.6451 41.4812 58.6209 41.6019C58.258 44.934 57.4597 48.1453 56.3709 51.3083C55.4274 54.0609 54.1209 56.5961 52.4516 58.9624C52.2097 59.3004 51.9919 59.5177 51.5322 59.3004C51.1451 59.1314 50.879 59.0348 51.0726 58.5519Z" fill="#CDE3ED"></path>
    <path d="M34.2581 35.566C36.871 36.5559 39.5081 36.6525 42.1694 36.725C47.6613 36.8698 53.0565 36.3386 58.3549 34.8416C58.8629 34.6967 58.9597 34.8175 58.9355 35.3004C58.9113 36.3145 58.9113 37.3044 58.9355 38.3185C58.9355 38.6324 58.8145 38.729 58.5484 38.6324C57.4355 38.2461 56.4194 38.5841 55.4274 39.067C52.2581 40.6123 49.0645 42.0611 45.871 43.5822C44.0081 44.4756 42.121 44.9343 40.0645 44.9102C38.7097 44.886 37.379 45.0309 36.0484 44.6929C35.7097 44.5963 35.4678 44.4997 35.3952 44.0651C35.0081 41.3367 34.4274 38.6566 34.2339 35.904C34.2581 35.8074 34.2581 35.735 34.2581 35.566Z" fill="#FDFDFD"></path>
    <path d="M49.6694 87.6712C49.6936 86.8019 49.6936 86.8261 50.4678 86.8985C52.6936 87.1158 54.8952 87.3814 57.0727 87.8885C57.2178 87.9126 57.3872 87.9609 57.5323 88.0333C57.7743 88.1541 58.0646 88.2748 58.0888 88.6128C58.113 88.975 57.7985 89.0716 57.5565 89.1682C55.5727 90.0857 53.4436 90.3513 51.3146 90.6652C48.7985 91.0273 46.2823 90.8583 43.7662 90.7617C42.3146 90.7135 40.8872 90.3754 39.4598 90.134C39.1936 90.0857 38.8791 89.9891 38.8549 89.6269C38.8307 89.2406 39.1211 88.9991 39.4114 88.8301C40.4759 88.2265 41.613 87.7919 42.8227 87.5021C43.3791 87.3814 43.9598 87.2607 44.5404 87.1641C44.8065 87.1158 45.1453 86.9951 45.363 87.1883C45.8469 87.647 45.9678 87.2365 46.113 86.8985C46.3791 86.1983 46.5485 85.4739 46.4517 84.7254C46.4033 84.3391 46.5727 84.0735 46.9356 83.9286C47.3469 83.7355 47.734 83.5423 48.0969 83.3009C48.4598 83.0836 48.6049 83.1318 48.6533 83.5665C48.7743 84.4598 48.7985 85.3774 49.0162 86.2466C49.113 86.7536 49.2582 87.2124 49.6694 87.6712Z" fill="#CDE3ED"></path>
    <path d="M39.7017 33.6099C38.7339 33.9238 37.6694 33.8755 36.8952 34.7448C37.5968 34.8655 38.2017 34.6482 38.8065 34.5033C42.5807 33.6099 46.3791 33.5858 50.2259 33.779C52.1855 33.8755 54.1452 33.9721 56.0807 34.3826C56.2743 34.4309 56.5888 34.5516 56.6613 34.2619C56.7097 33.948 56.4678 33.8031 56.1291 33.7548C53.5404 33.2719 50.9517 33.0063 48.3388 33.0063C47.8307 33.0063 47.2984 33.0063 46.742 33.0063C46.8388 32.7649 46.9597 32.8373 47.0565 32.8373C49.6694 32.8132 52.2823 32.7166 54.8952 32.958C55.863 33.0546 56.8549 33.2236 57.8226 33.3444C57.9194 33.3685 58.0162 33.3926 58.113 33.4168C58.3307 33.4651 58.5001 33.6099 58.5484 33.8031C58.5968 34.0204 58.3549 34.117 58.1855 34.2136C57.1936 34.6723 56.1291 34.8896 55.0646 35.0828C51.4113 35.6864 47.7339 36.1693 44.0323 36.1935C41.1533 36.2176 38.3468 35.7589 35.5404 35.2035C35.2259 35.1311 34.6936 35.0587 34.6936 34.7689C34.6936 34.3826 35.2259 34.4792 35.5162 34.3826C36.6775 33.9963 37.8872 33.8273 39.0968 33.5858C39.242 33.5375 39.4597 33.4892 39.7017 33.6099Z" fill="#FDFDFD"></path>
    <path d="M45.5564 44.3308C47.2016 43.6306 48.8467 42.9063 50.5161 42.206C52.0887 41.53 53.5887 40.7332 55.0887 39.9364C55.8628 39.5018 56.6612 39.1637 57.5322 38.9464C57.8709 38.874 58.1854 38.9223 58.4274 39.1396C58.8145 39.4776 58.7661 39.8881 58.3064 40.2261C56.6612 41.4093 54.8467 42.2302 52.9112 42.7855C50.5887 43.4616 48.1935 43.8721 45.8467 44.4274C45.7499 44.4516 45.6532 44.4274 45.5806 44.4274C45.5806 44.3791 45.5806 44.355 45.5564 44.3308Z" fill="#CDE3ED"></path>
    <path d="M44.1292 33.0069C44.9033 32.9586 45.6775 32.9345 46.4517 32.8379C46.4517 32.8862 46.4517 32.9586 46.4517 33.0069C45.6775 33.0069 44.9033 33.0069 44.1292 33.0069Z" fill="#4184A7"></path>
    <path d="M42.3872 33.1515C42.8469 33.0549 43.1614 33.1032 43.5485 33.1274C43.1856 33.1998 42.8469 33.224 42.3872 33.1515Z" fill="#4184A7"></path>
    <path d="M42.0484 33.2958C42.0242 33.2717 41.9759 33.2717 41.9517 33.2475C42 33.2234 42.0242 33.1992 42.0726 33.1992C42.0968 33.1992 42.121 33.2234 42.1694 33.2475C42.121 33.2717 42.0726 33.2958 42.0484 33.2958Z" fill="#4184A7"></path>
    <path d="M98.976 57.5379C99.5808 57.9725 100.089 58.3347 100.597 58.6968C100.621 58.6727 100.645 58.6727 100.67 58.6486C100.573 58.4795 100.476 58.2864 100.355 58.1174C99.6776 57.1274 99.4356 56.0167 99.4356 54.8578C99.4356 54.1334 99.3389 53.409 99.6292 52.6605C100.186 51.2118 101.323 50.584 102.678 50.2219C103.379 50.0287 104.105 49.9804 104.807 49.8114C105.049 49.7631 105.266 49.8114 105.436 49.8838C108.702 51.0669 112.089 51.6706 115.524 52.1776C116.274 52.2742 117.097 52.2501 117.726 52.8296C117.847 52.9503 117.992 52.902 118.113 52.8054C118.355 52.6122 118.476 52.3708 118.403 52.0569C118.282 51.6223 118.161 51.2118 117.992 50.8013C117.532 49.7631 117 48.8214 115.96 48.1695C114.508 47.2278 112.96 46.3345 111.968 44.9099C111.073 43.6061 109.766 42.7127 108.895 41.433C108.363 40.6603 108.024 39.8635 108.024 38.9219C108.024 38.27 107.976 37.5939 107.928 36.942C107.903 36.6039 108.024 36.4108 108.339 36.29C109.67 35.8313 110.976 35.7347 112.258 36.4108C114.436 37.5215 116.758 38.1975 119.032 39.0909C121.331 39.9843 123.605 40.9018 125.903 41.8193C126.436 42.0366 126.944 42.3505 127.428 42.6644C127.839 42.93 128.153 43.4129 128.758 43.3646C128.879 43.3646 129 43.5578 129.121 43.6785C131.807 46.6242 134.468 49.5699 136.839 52.7813C138.484 55.0026 139.863 57.3689 141.024 59.88C141.145 60.1456 141.29 60.3629 141.605 60.5077C142.04 60.7009 142.21 61.1838 142.549 61.5218C143.202 62.1979 143.855 62.8981 144.484 63.5983C145.04 64.2503 144.968 64.6607 144.266 65.1195C143.661 65.53 143.008 65.9163 142.307 66.1336C142.137 66.1819 141.992 66.2785 141.871 66.4233C140.758 67.8238 140.492 69.369 141.024 71.0592C141.532 72.6287 142.065 74.174 142.573 75.7193C142.911 76.7334 142.79 77.1197 141.895 77.6992C141.024 78.2786 140.129 78.7857 139.258 79.3652C136.621 81.1519 135.895 83.3974 136.936 86.4156C137.202 87.1641 137.492 87.9126 137.71 88.6852C138.097 89.965 137.637 90.5927 136.282 90.6652C135.629 90.7135 135 90.7617 134.371 90.9308C133.694 91.1239 133.089 91.4378 132.847 92.1622C132.774 92.4036 132.653 92.3795 132.46 92.3795C129.629 92.3795 126.799 92.1139 123.968 91.9207C121.911 91.7758 119.879 91.6068 117.847 91.2929C115.476 90.9308 113.105 90.5203 110.734 90.1581C108.508 89.7959 106.331 89.3372 104.226 88.5162C102.678 87.8885 101.081 87.309 99.8711 86.0534C99.605 85.7637 99.1937 85.6188 98.8792 85.3774C97.3792 84.2425 96.6776 82.6972 96.3873 80.8622C96.0969 79.0271 96.0243 77.2404 96.484 75.4295C96.8711 73.9325 96.6292 72.4355 96.1937 70.9868C96.0002 70.3107 95.6373 69.6347 95.5889 68.9827C95.4921 67.7513 95.4195 66.4716 96.0727 65.3126C96.5566 64.4434 97.0405 63.55 97.6211 62.7291C98.4195 61.6184 98.7098 60.3629 98.8066 59.059C98.8792 58.552 98.9276 58.0932 98.976 57.5379ZM110.008 60.0248C109.5 59.8558 108.992 59.6868 108.484 59.5419C107.565 59.2763 106.597 59.4212 105.653 59.3246C104.879 59.2522 104.153 59.0832 103.379 59.0107C103.258 58.9866 103.113 58.9383 103.065 59.1073C102.992 59.2763 103.186 59.2763 103.258 59.3488C103.573 59.5419 103.887 59.7351 104.25 59.7834C106.161 59.9765 108.073 60.0731 110.008 60.0248Z" fill="#FEFEFE"></path>
    <path d="M100.306 50.1009C100.258 49.2075 100.621 48.4107 100.79 47.5415C101.032 46.3342 101.347 45.1511 101.589 43.968C101.661 43.6058 101.806 43.5575 102.145 43.5334C104.202 43.3885 106.185 43.9197 108.194 44.1853C109.766 44.3785 111.097 44.8614 112.016 46.2135C112.161 46.4308 112.355 46.624 112.597 46.7447C114.024 47.5174 114 48.8936 114 50.2458C114 50.6079 113.879 50.7528 113.468 50.6562C112.282 50.4148 111.073 50.1975 109.863 49.956C109.524 49.8836 109.21 49.787 108.919 49.5697C108.314 49.0868 107.564 48.9902 106.814 48.9178C105.193 48.7729 103.573 48.5797 101.927 48.628C101.637 48.628 101.226 48.4832 101.177 48.8936C101.129 49.2558 101.564 49.2075 101.806 49.3041C101.831 49.3282 101.879 49.3524 101.976 49.4007C101.395 49.6663 100.887 50.0043 100.306 50.1009Z" fill="#FDFDFD"></path>
    <path d="M93.2178 78.2785C93.4355 77.4817 93.6775 76.6849 93.8952 75.8881C94.0887 75.2362 94.3065 74.5843 94.4275 73.9082C94.5242 73.377 94.8629 73.4978 95.1775 73.5219C95.5162 73.5702 95.7823 73.7392 95.7097 74.1738C95.5646 74.9948 95.371 75.7916 95.3226 76.6125C95.2742 77.5059 94.9597 78.0129 94.0162 78.0612C93.7984 78.0612 93.5807 78.2061 93.3871 78.3751C93.3146 78.351 93.2662 78.3027 93.2178 78.2785Z" fill="#EBF0F1"></path>
    <path d="M116.976 51.3331C116.298 51.1641 115.669 50.9951 115.016 50.8743C114.75 50.8261 114.653 50.657 114.677 50.4156C114.726 49.8844 114.774 49.3532 114.798 48.7979C116.177 49.2566 116.782 49.9568 116.976 51.3331Z" fill="#FDFDFD"></path>
    <path d="M98.0323 58.9863C98.2742 59.4209 98.1048 59.7348 97.7419 60.097C97.8629 59.6624 97.9597 59.3244 98.0323 58.9863Z" fill="#CDE3ED"></path>
    <path d="M102.629 36.4594C102.557 36.4594 102.508 36.4594 102.436 36.4353C102.484 36.3628 102.484 36.2421 102.605 36.3387C102.629 36.3628 102.653 36.387 102.653 36.4111C102.653 36.4111 102.629 36.4353 102.629 36.4594Z" fill="#EBF0F1"></path>
    <path d="M100.282 50.101C100.258 50.1252 100.234 50.1493 100.21 50.1735C100.21 50.1493 100.186 50.1252 100.21 50.1252C100.234 50.0527 100.282 50.0527 100.282 50.101Z" fill="#FDFDFD"></path>
    <path d="M99.1211 36.3145C95.226 36.3628 91.3792 35.8558 87.5324 35.228C81.8953 34.3105 76.4034 32.7893 70.9356 31.1474C70.4276 31.0026 70.0163 30.7611 69.6776 30.3506C69.363 29.9402 68.976 29.747 68.4679 29.8436C68.0324 29.916 67.6937 29.7953 67.4034 29.4573C67.0889 29.0709 66.6292 28.8295 66.3872 28.3707C66.0969 27.7912 66.2179 27.5256 66.8469 27.4532C69.1453 27.1635 71.4437 26.9462 73.7663 27.091C75.6776 27.2118 77.5889 27.3083 79.476 27.5256C83.5889 27.9844 87.6292 28.7812 91.5969 30.0126C93.6292 30.6645 95.7098 31.2199 97.6453 32.1132C98.8066 32.6444 99.8953 33.2722 100.887 34.0449C101.347 34.407 101.734 34.8417 101.976 35.397C102.242 36.0006 102.097 36.2662 101.468 36.3145C100.694 36.3387 99.9195 36.3145 99.1211 36.3145ZM69.8227 28.9502C70.1614 29.0951 70.5001 29.0951 70.8389 29.0951C74.3227 29.0709 77.8066 29.1192 81.2663 29.5539C86.0808 30.1575 90.7985 31.1716 95.3953 32.7652C97.0163 33.3447 98.6372 33.9724 99.9921 35.0831C100.21 35.2521 100.5 35.6626 100.718 35.4211C101.008 35.1314 100.597 34.8175 100.379 34.6002C99.5808 33.7793 98.5405 33.2964 97.5243 32.8376C92.8308 30.6887 87.8953 29.3607 82.7663 28.7088C78.9679 28.2259 75.1453 28.0568 71.3227 28.25C70.7663 28.2742 70.1856 28.3466 69.8227 28.9502Z" fill="#FDFDFD"></path>
    <path d="M97.0886 55.4862C96.2177 55.8967 95.3709 55.8725 94.5725 55.9932C92.008 56.4278 89.4677 56.0415 86.9757 55.462C85.6693 55.1481 84.2903 54.8343 83.0564 54.3031C81.5564 53.627 80.008 53.0717 78.6048 52.13C77.2016 51.1642 75.7016 50.3432 74.3709 49.2809C71.0564 46.6249 68.3225 43.5584 67.6935 39.1398C67.4757 37.6911 67.6451 36.2424 67.8145 34.8178C67.8628 34.4074 67.9354 34.021 67.9596 33.6347C67.9838 33.345 68.129 32.9828 67.5967 32.9828C67.5725 32.9828 67.5483 32.9345 67.5241 32.9104C67.4516 32.7655 67.8628 31.2685 68.008 31.196C68.0322 31.1719 68.0806 31.1719 68.129 31.1719C68.5161 31.1236 69.7983 31.9687 69.9677 32.3792C71.008 35.1076 72.0241 37.836 73.0887 40.5403C73.887 42.5443 74.6612 44.5725 75.8467 46.4076C76.1854 46.9146 76.6451 47.3251 76.9838 47.808C78.6774 50.295 81.1693 51.5505 83.9516 52.3232C86.7338 53.0958 89.5645 53.7236 92.3951 54.3755C93.8225 54.7135 95.2983 54.8584 96.6774 55.3413C96.7741 55.3413 96.8709 55.3896 97.0886 55.4862Z" fill="#4184A7"></path>
    <path d="M68.9275 22.8175C69.1452 20.9583 69.7743 19.244 70.863 17.7229C70.9114 17.6504 70.9839 17.5538 71.0565 17.5056C71.2259 17.3607 71.371 17.1192 71.613 17.2882C71.8307 17.4331 71.6856 17.6746 71.6372 17.8436C71.0081 19.6303 69.992 21.2481 68.9275 22.8175Z" fill="#EBF0F1"></path>
    <path d="M81.7742 20.3789C81.9193 20.9825 81.7258 21.1998 81.0726 21.1757C80.5161 21.1516 80.2742 21.1033 80.2742 20.4272C80.2984 19.7994 80.4677 19.6304 81.0726 19.6545C81.6532 19.6545 81.9435 19.7511 81.7742 20.3789Z" fill="#FEFEFE"></path>
    <path d="M110.008 60.0255C108.073 60.0738 106.161 59.953 104.25 59.7599C103.887 59.7116 103.573 59.5184 103.258 59.3253C103.161 59.277 102.992 59.277 103.064 59.0838C103.113 58.9389 103.282 58.9872 103.379 58.9872C104.129 59.0838 104.879 59.2287 105.653 59.3011C106.597 59.3977 107.564 59.2528 108.484 59.5184C108.992 59.6874 109.5 59.8806 110.008 60.0255Z" fill="#060606"></path>
    <path d="M69.8228 28.9503C70.1857 28.3708 70.7663 28.2742 71.3469 28.2501C75.1695 28.0569 78.9921 28.2259 82.7905 28.7088C87.9195 29.3366 92.8308 30.6888 97.5486 32.8377C98.5647 33.2964 99.605 33.7793 100.403 34.6003C100.621 34.8417 101.032 35.1315 100.742 35.4212C100.524 35.6627 100.234 35.2522 100.016 35.0832C98.6373 33.9725 97.0405 33.3447 95.4195 32.7652C90.8228 31.1717 86.105 30.1576 81.2905 29.5539C77.8066 29.1193 74.3469 29.0952 70.8631 29.0952C70.5002 29.0952 70.1615 29.0952 69.8228 28.9503Z" fill="#060606"></path>
</svg>