<svg viewBox="0 0 150 113" fill="none" xmlns="http://www.w3.org/2000/svg" class="aspect-[15/11] mb-5 w-[150px]">
    <path d="M90.7257 108.111H16.9354C10.258 108.111 4.83862 102.692 4.83862 96.0141V64.5625C4.83862 48.5222 17.8306 35.5303 33.8709 35.5303H107.661C114.339 35.5303 119.758 40.9496 119.758 47.627V79.0787C119.758 95.119 106.766 108.111 90.7257 108.111Z" fill="#FFD5D4"></path>
    <path d="M118.427 89.1908C116.371 89.2392 114.314 89.2634 112.282 89.336C107.589 89.4811 102.895 89.6747 98.2016 89.8199C92.8548 89.965 87.4838 90.1102 82.1371 90.1828C75.5322 90.2795 68.9274 90.4489 62.3225 90.3521C60.6774 90.3279 59.0806 90.0376 57.6048 89.2392C56.3225 88.5376 55.4758 87.4973 55.0403 86.094C54.4113 84.1102 54.1451 82.0537 53.9758 79.9731C53.5403 74.6021 53.1532 69.207 52.7661 63.836C52.4032 58.8521 52.0403 53.8682 51.7016 48.9086C51.629 47.6989 51.629 46.4892 51.6048 45.2795C51.5806 44.6505 51.4596 44.0457 51.2177 43.465C50.4677 41.7231 49.7903 39.9328 48.9193 38.2392C48.1209 36.715 47.6854 35.0699 47.129 33.4731C46.9838 32.7231 46.6693 32.0215 46.6209 31.2473C46.5 28.8521 47.6613 27.1344 49.4758 25.7795C50.9758 24.6666 52.6935 23.9892 54.3871 23.2392C58.2338 21.5215 62.2983 20.4811 66.2661 19.1505C71.3951 17.4328 76.5725 15.8118 81.75 14.2392C82.3548 14.0457 82.8145 13.707 83.25 13.2715C85.4032 11.1424 87.4838 8.96501 89.879 7.10211C91.6935 5.67469 93.7016 4.73114 96.0725 4.75534C97.1855 4.77953 98.1774 5.23921 99.1693 5.69889C99.8709 6.0134 100.573 6.25534 101.177 6.81179C101.806 7.39243 102.653 7.56179 103.597 7.27147C105.629 6.61824 107.661 5.96502 109.742 5.57792C111.314 5.2876 112.863 5.36018 114.484 5.60211C117.629 6.06179 119.419 8.19082 121.04 10.5618C122.831 13.1505 124.21 16.0053 125.758 18.7634C126.508 20.094 127.306 21.4005 128.081 22.707C128.323 23.1182 128.661 23.4328 129.073 23.6505C130.524 24.4247 131.976 25.1505 133.403 25.9731C135.629 27.2795 137.831 28.6102 139.887 30.1344C141.508 31.344 141.919 33.0618 142.089 34.9489C142.379 38.7231 142.548 42.4973 142.911 46.2715C143.153 48.6424 143.202 51.0134 143.516 53.3602C143.927 56.2876 144.314 59.215 144.653 62.1424C144.992 64.9247 145.306 67.707 145.573 70.4892C145.814 73.1747 145.911 75.8844 145.694 78.5699C145.548 80.3602 145.185 82.1021 144.484 83.7715C143.54 86.094 141.823 87.4247 139.355 87.715C137.226 87.957 135.073 88.1263 132.919 88.3199C130.694 88.5134 128.468 88.6586 126.242 88.8279C123.847 89.0215 121.452 89.1666 119.056 89.1908C118.839 89.1424 118.621 89.1666 118.427 89.1908ZM58.2822 45.4489C59.5403 45.3279 60.7742 45.5699 61.8871 46.0053C63.0725 46.465 64.2338 46.9973 65.3951 47.5295C68.6371 49.0295 71.2983 51.4731 74.5887 52.8763C76.1854 53.5537 77.4919 54.7634 79.0645 55.465C79.4032 55.6102 79.7177 55.707 80.0806 55.5134C83.1532 53.7715 86.25 52.0295 89.3226 50.2876C90.6532 49.5376 91.9596 48.6908 93.3387 48.0134C95.4677 46.9489 97.7903 46.9489 100.113 46.8521C102.387 46.7553 104.419 47.5053 106.355 48.5215C109.403 50.1182 112.331 51.957 115.282 53.7231C115.597 53.9166 115.766 53.8924 116.008 53.6263C116.952 52.6586 117.871 51.6666 118.863 50.7473C122.153 47.7957 125.516 44.9166 128.952 42.1102C129.726 41.4811 130.597 41.0457 131.589 40.8279C133.548 40.3682 135.556 40.2231 137.564 40.2473C138.339 40.2473 138.339 40.2473 138.073 39.4973C137.71 38.4086 137.008 37.5134 136.331 36.6182C134.274 33.8844 132.145 31.1989 130.137 28.4408C126.919 23.9892 124.089 19.2715 121.5 14.4328C120.387 12.3279 119.081 10.344 117.266 8.74727C115.887 7.5376 114.314 6.71502 112.427 6.66663C111.169 6.61824 110.008 7.00534 108.823 7.29566C103.016 8.74727 97.3306 10.6344 91.6209 12.4973C82.0645 15.594 72.4354 18.4973 62.9032 21.7392C58.7661 23.1424 54.629 24.4489 50.879 26.7715C48.5322 28.2231 47.5645 30.3279 48.1935 33.0134C48.2419 33.2795 48.4838 33.6908 48.5564 33.6424C48.9677 33.3037 48.8709 33.7634 48.9435 33.8602C49.2338 34.3924 49.4758 34.9489 49.7419 35.4811C51.2903 38.6021 52.6693 41.8199 54.4354 44.844C54.7258 45.3521 55.0403 45.594 55.6451 45.5699C56.5161 45.5457 57.3871 45.3521 58.2822 45.4489ZM85.0161 88.6344C90.7016 88.465 96.3629 88.2473 102.048 88.0537C107.008 87.8844 111.944 87.715 116.903 87.5457C120.629 87.4247 124.355 87.3763 128.056 87.0618C131.516 86.7715 135 86.5779 138.46 86.215C140.395 86.0215 141.823 85.0779 142.718 83.3602C143.516 81.836 143.879 80.1424 144.073 78.4489C144.314 76.3924 144.073 74.336 144.073 72.2795C144.073 71.5779 143.758 71.0457 143.032 70.8037C141.992 70.465 141.097 69.836 140.153 69.3279C138.653 68.5295 137.129 67.7311 135.75 66.715C135.581 66.594 135.363 66.4489 135.169 66.4005C134.056 66.2311 133.21 65.5295 132.266 64.9731C131.637 64.6102 131.008 64.2715 130.379 63.9086C128.685 62.9166 126.798 62.3844 125.129 61.3682C124.379 60.9086 123.677 60.3521 122.903 59.9408C120.847 58.8037 118.766 57.7392 116.734 56.5537C115.403 55.7795 114.048 55.0537 112.742 54.207C111.75 53.5779 110.71 53.0215 109.718 52.3682C108.992 51.8844 108.339 51.3037 107.444 51.1586C107.347 51.1344 107.226 51.086 107.202 51.0134C106.96 50.4811 106.403 50.4328 105.968 50.215C105.726 50.094 105.46 50.0457 105.266 49.8763C104.177 48.8844 102.798 48.4973 101.419 48.3279C98.6371 47.9892 95.8548 48.1344 93.3871 49.7311C92.758 50.1424 92.0806 50.457 91.4516 50.844C86.1532 53.9166 80.6371 56.6021 75.4838 59.9408C71.4677 62.5295 67.5725 65.2392 64.1854 68.6505C61.0887 71.7715 57.9677 74.8682 55.9596 78.8602C55.6451 79.465 55.4274 80.0457 55.5 80.7473C55.6209 81.8602 55.6693 82.9973 55.7903 84.1102C56.0322 86.5537 57.3871 88.0537 59.7822 88.6102C60.8225 88.8521 61.8871 88.9489 62.9516 88.9489C66.9677 89.0215 70.9596 88.707 74.9758 88.6344C78.3145 88.586 81.6532 88.6344 85.0161 88.6344ZM143.952 71.1182C143.927 70.8279 143.952 70.586 143.903 70.3199C143.685 68.2876 143.444 66.2311 143.202 64.1989C142.839 61.1505 142.476 58.0779 142.089 55.0295C141.629 51.4973 141.387 47.965 141.145 44.4086C141.073 43.5376 141.073 42.6424 141.024 41.7715C141 41.2876 140.855 41.2634 140.516 41.5537C140.274 41.7715 139.984 41.8199 139.669 41.8199C138.532 41.7957 137.419 41.8199 136.282 41.7715C133.331 41.6021 130.742 42.4005 128.492 44.4328C126.024 46.6344 123.581 48.836 121.113 51.0376C119.855 52.1747 118.597 53.3118 117.484 54.5699C117.387 54.6908 117.073 54.8118 117.435 55.0053C118.016 55.3199 118.476 55.8279 119.105 56.0699C121.331 57.0134 123.435 58.1747 125.516 59.3602C127.694 60.6182 130.04 61.6102 132.121 63.0376C133.645 64.0779 135.411 64.7069 136.935 65.7231C137.564 66.1344 138.242 66.5215 138.968 66.7634C140.202 67.1747 141.29 67.8279 142.403 68.5053C143.105 68.9408 143.564 69.5457 143.613 70.4166C143.637 70.6828 143.637 70.9247 143.952 71.1182ZM55.3548 77.5053C55.6209 77.094 55.8145 76.8037 56.008 76.5376C57.8225 73.9489 59.4919 71.215 62.0322 69.207C62.1774 69.086 62.2984 68.9166 62.4435 68.7473C63.9677 66.9811 65.5403 65.2876 67.379 63.8602C70.6693 61.2715 74.1532 58.9973 77.7338 56.844C77.8548 56.7715 78.0967 56.7231 78.0725 56.5537C78.0484 56.336 77.8064 56.3602 77.6613 56.2876C75.3145 55.4408 73.1371 54.1828 71.0564 52.8279C69.4355 51.7634 67.9596 50.457 66.2419 49.5134C64.3064 48.4247 62.3467 47.3844 60.0725 47.215C57.8951 47.0699 55.6935 47.215 53.5161 47.336C53.2016 47.3602 53.2016 47.4811 53.2258 47.7231C53.3225 49.3199 53.4193 50.8924 53.5403 52.4892C53.7096 54.957 53.9274 57.4247 54.0967 59.8924C54.2419 61.8521 54.3629 63.7876 54.4838 65.7473C54.6774 68.2876 54.8467 70.8521 55.0645 73.3924C55.1613 74.7231 55.1371 76.0537 55.3548 77.5053ZM130.548 26.094C130.476 26.457 130.669 26.6505 130.814 26.8682C133.04 29.9408 135.266 33.0134 137.589 36.0376C138.46 37.1747 139.452 38.2392 139.645 39.715C139.718 40.1989 139.935 40.4408 140.371 40.586C140.758 40.7069 140.903 40.8037 140.879 40.2473C140.831 38.7473 140.661 37.2473 140.71 35.7231C140.782 33.9811 140.129 32.457 138.847 31.2715C136.403 29.0457 133.427 27.715 130.548 26.094ZM100.79 8.04566C100.064 7.58598 99.4596 7.19889 98.8306 6.83598C96.4596 5.45695 94.2096 5.52953 91.9355 7.1505C89.9758 8.55373 88.1129 10.0537 86.3951 11.7231C86.0806 12.0376 85.7419 12.3037 85.4032 12.6182C85.3306 12.6908 85.1854 12.7876 85.258 12.9086C85.3548 13.1021 85.4758 13.0053 85.6209 12.957C85.6935 12.9328 85.7661 12.9086 85.8629 12.8844C89.8548 11.6021 93.8467 10.3199 97.8145 9.0376C98.758 8.69889 99.7016 8.38437 100.79 8.04566Z" fill="#040404"></path>
    <path d="M20.5644 89.7232C19.6693 89.7715 18.7015 89.6506 17.7338 89.578C17.4193 89.5538 17.1047 89.4812 16.7902 89.3603C16.4515 89.2393 16.0402 89.1425 16.0886 88.6586C16.137 88.2232 16.5483 88.1022 16.887 88.0296C17.4193 87.9086 17.9757 87.957 18.508 88.0054C21.9435 88.3441 25.2338 87.6667 28.4273 86.457C31.766 85.199 35.0564 83.8199 38.3951 82.5135C40.4999 81.6909 42.6531 81.0377 44.8789 80.6748C45.6048 80.5538 46.3306 80.5054 47.008 80.8441C47.2983 80.9893 47.5402 81.1828 47.516 81.5215C47.4918 81.8603 47.2015 82.0296 46.887 82.078C41.7822 82.9973 37.1612 85.3199 32.3951 87.207C28.6209 88.7554 24.7499 89.7715 20.5644 89.7232Z" fill="#040404"></path>
    <path d="M13.4032 71.5778C13.1129 71.5778 12.8468 71.5778 12.5565 71.4569C12.3387 71.3843 12.121 71.3117 12.0968 71.0456C12.0484 70.7795 12.1936 70.5859 12.3871 70.4166C12.8952 70.0295 13.5 69.9327 14.1048 69.8843C16.9839 69.594 19.621 68.6504 22.1371 67.2956C25.1613 65.6504 27.9436 63.594 30.7984 61.7069C33.2178 60.1101 35.6855 58.5859 38.371 57.4972C39.0968 57.2069 39.8468 56.9649 40.6452 57.0617C40.9839 57.1101 41.3468 57.2069 41.4194 57.6182C41.4919 58.0053 41.2258 58.223 40.9113 58.344C36.9194 59.9166 33.4597 62.4569 29.9274 64.8278C27.121 66.7149 24.3387 68.602 21.1452 69.8117C18.629 70.7795 16.0645 71.3601 13.4032 71.5778Z" fill="#040404"></path>
    <path d="M38.2743 70.7309C38.9275 70.7793 39.5565 70.8035 40.2097 70.8518C40.5243 70.876 40.8388 70.9728 41.1291 71.1422C41.371 71.2631 41.5646 71.4325 41.5162 71.747C41.4678 72.0373 41.2501 72.1341 41.0081 72.2067C40.7178 72.3035 40.4033 72.3277 40.113 72.3035C37.0404 71.9648 34.2823 72.8599 31.6452 74.3599C29.2501 75.7148 26.9759 77.2873 24.4839 78.4244C23.2259 79.0051 21.9194 79.5615 20.492 79.5857C20.0565 79.5857 19.6694 79.4647 19.3549 79.1502C18.992 78.8115 19.0404 78.376 19.5001 78.2551C23.0081 77.3599 25.9114 75.2551 28.9597 73.4406C31.8388 71.747 34.8872 70.7067 38.2743 70.7309Z" fill="#040404"></path>
    <path d="M44.9032 91.1509C45.4113 91.1267 45.9194 91.1267 46.379 91.3686C46.5968 91.4654 46.7661 91.6105 46.7661 91.8525C46.7903 92.1186 46.5968 92.288 46.3549 92.3847C46.0403 92.5299 45.7016 92.5783 45.3629 92.5783C42.0968 92.6025 39.3387 93.9573 36.7742 95.8444C34.6936 97.3928 32.6855 99.038 30.4597 100.369C29.5645 100.901 28.621 101.385 27.629 101.723C26.9516 101.965 26.25 102.062 25.5968 101.675C25.379 101.554 25.2339 101.361 25.2339 101.094C25.2339 100.828 25.4516 100.732 25.6694 100.659C28.4274 99.6186 30.6774 97.8041 32.9758 96.038C35.129 94.3928 37.2581 92.7718 39.8952 91.9734C41.5645 91.4896 43.2097 91.2476 44.9032 91.1509Z" fill="#040404"></path>
    <path d="M58.2823 45.4493C57.4113 45.3525 56.5161 45.546 55.6452 45.5702C55.0161 45.5944 54.7258 45.3525 54.4355 44.8444C52.6694 41.8202 51.2903 38.6025 49.7419 35.4815C49.4758 34.9493 49.2339 34.3928 48.9436 33.8605C48.8952 33.7638 48.9677 33.3041 48.5565 33.6428C48.4839 33.6912 48.2661 33.2799 48.1936 33.0138C47.5645 30.3041 48.5565 28.1993 50.879 26.7718C54.629 24.4493 58.7903 23.1186 62.9032 21.7396C72.4355 18.5218 82.0887 15.5944 91.6452 12.4734C97.3307 10.6105 103.016 8.72345 108.847 7.27183C110.032 6.98151 111.218 6.59441 112.452 6.6428C114.339 6.71538 115.887 7.51377 117.29 8.72345C119.105 10.3202 120.387 12.3041 121.524 14.4089C124.113 19.2718 126.944 23.9654 130.161 28.417C132.169 31.1992 134.298 33.8605 136.355 36.5944C137.032 37.4896 137.734 38.3847 138.097 39.4734C138.363 40.2234 138.363 40.2234 137.589 40.2234C135.581 40.2234 133.573 40.3444 131.613 40.8041C130.645 41.0218 129.75 41.4573 128.976 42.0863C125.54 44.8928 122.202 47.7718 118.887 50.7234C117.871 51.6186 116.952 52.6105 116.032 53.6025C115.79 53.8686 115.621 53.8928 115.306 53.6993C112.355 51.9089 109.427 50.0944 106.379 48.4976C104.444 47.4815 102.411 46.7557 100.137 46.8283C97.8145 46.9251 95.4919 46.9251 93.3629 47.9896C91.9839 48.667 90.6774 49.5138 89.3468 50.2638C86.2742 52.0057 83.1774 53.7476 80.1048 55.4896C79.7419 55.7073 79.4274 55.6105 79.0887 55.4412C77.5161 54.7396 76.2097 53.5299 74.6129 52.8525C71.3226 51.4493 68.6613 49.0057 65.4194 47.5057C64.2581 46.9734 63.0968 46.417 61.9113 45.9815C60.7742 45.5702 59.5403 45.3283 58.2823 45.4493ZM70.5726 30.0863C69.8952 29.5541 69.3871 28.8767 68.9032 28.1992C68.7581 28.0057 68.5887 27.788 68.371 27.9331C68.1532 28.0783 68.2984 28.3444 68.4436 28.5138C69.2419 29.6267 70.2339 30.5702 71.3468 31.3928C71.5161 31.5138 71.7097 31.5863 71.9032 31.417C72.0968 31.2476 72.0726 31.0299 71.9758 30.8605C71.7097 30.3525 71.3952 29.8444 71.129 29.3363C71.0323 29.167 70.8387 28.9976 70.9113 28.7799C71.129 28.7315 71.1774 28.9009 71.25 28.9976C71.6855 29.5541 72.1936 30.038 72.8468 30.3525C73.4274 30.6428 74.0565 30.4734 74.3468 29.9896C74.4677 29.796 74.4919 29.6267 74.2258 29.5783C73.0645 29.4089 72.4839 28.5138 71.8307 27.6912C71.371 27.1105 70.9597 26.4815 70.4032 25.9734C69.871 25.5138 69.6532 25.5863 69.4597 26.288C69.2661 26.9896 69.4355 27.6428 69.7984 28.2476C70.1129 28.7799 70.4274 29.3122 70.7419 29.8686C70.6452 29.9896 70.621 30.038 70.5726 30.0863ZM64.5484 30.2557C64.5968 30.2799 64.621 30.3283 64.6694 30.3525C65.6129 29.6751 65.879 28.5863 66.2661 27.4492C66.3387 27.5944 66.3629 27.6428 66.4113 27.6912C67.6452 29.5299 68.8548 31.3928 70.0887 33.2073C70.5726 33.9331 70.7177 34.6831 70.621 35.5541C70.4274 37.2718 72.0726 39.7154 73.6694 40.1751C74.1774 40.3202 74.4436 40.1025 74.3952 39.5944C74.2742 38.6267 74.0565 37.7073 73.5242 36.8605C73.0403 36.0622 72.6048 35.2154 72.0726 34.417C71.7339 33.9089 71.8065 33.6428 72.3145 33.3283C73.5484 32.5783 74.879 32.167 76.3065 32.046C79.4516 31.7799 82.5968 31.538 85.7661 31.3202C89.6855 31.0299 93.4113 30.0138 96.8952 28.1751C97.9355 27.6186 98.7581 26.8444 99.1452 25.6831C99.2419 25.3928 99.3145 25.1025 99.2178 24.8122C99.1452 24.6186 99.1936 24.3041 98.9032 24.2799C98.5645 24.2315 98.5403 24.5702 98.5161 24.788C98.25 26.2396 97.3065 27.1589 96.0484 27.788C92.4678 29.6267 88.5968 30.4009 84.629 30.8363C81.7742 31.1509 78.9194 31.1751 76.0887 31.5622C74.4678 31.7799 72.8468 32.046 71.5403 33.1589C71.3468 33.3283 71.25 33.2799 71.1048 33.0863C69.3629 30.5944 67.2339 28.417 66 25.5622C65.9274 25.3686 65.8065 25.1751 65.5645 25.2718C65.371 25.3444 65.371 25.5622 65.4194 25.7315C65.4436 25.8525 65.4677 25.9734 65.5161 26.0702C66.0726 27.1831 65.6855 28.1751 65.1774 29.167C65.0081 29.5541 64.7661 29.8928 64.5484 30.2557ZM106.597 16.9734C106.016 16.7799 105.653 16.9251 105.363 17.3605C105.121 17.7234 104.855 18.0863 104.492 18.3525C104.105 18.6428 104.081 18.9089 104.516 19.1509C104.927 19.3686 105.024 19.7557 105.121 20.1428C105.266 20.8202 105.097 21.4493 104.806 22.0783C104.468 22.8041 103.96 23.046 103.185 22.8283C102.532 22.6589 102.145 22.1993 102 21.5944C101.903 21.2557 101.903 20.917 101.879 20.5783C101.831 19.3686 101.855 18.1589 101.782 16.9493C101.71 15.6912 100.331 14.9654 99.3145 15.5944C98.3226 16.2234 97.8387 17.4089 98.0565 18.5702C98.1048 18.7638 98.1049 18.9815 98.1532 19.3202C98.0081 19.1509 97.9355 19.1025 97.9113 19.0299C97.5726 18.4493 97.2339 17.8444 96.8952 17.2638C96.7984 17.0944 96.6532 16.9493 96.4597 17.046C96.2419 17.1428 96.2661 17.3363 96.3145 17.5299C96.4113 17.8444 96.4839 18.1589 96.6774 18.4251C97.0161 18.9089 97.1371 19.4412 97.1371 20.0218C97.1371 20.4089 97.1371 20.796 97.1371 21.1589C97.1371 21.2799 97.1129 21.4734 97.3307 21.4734C97.5242 21.4734 97.5 21.2799 97.5242 21.1589C97.5726 20.6751 97.5968 20.1912 97.6452 19.6105C97.9597 19.9493 98.2742 20.1428 98.5887 20.3122C98.8548 20.4573 99.1452 20.6751 99.4113 20.3847C99.629 20.1428 99.3387 19.9251 99.2178 19.7315C98.6613 18.8122 98.6371 17.4815 99.2178 16.8283C99.4839 16.538 99.8226 16.3202 100.185 16.3686C100.621 16.4412 100.839 16.7799 100.935 17.2154C101.105 18.1831 101.129 19.1751 101.177 20.167C101.226 21.0622 101.226 21.9815 101.782 22.7799C102.629 23.9896 105 24.1347 105.653 22.4412C106.113 21.2799 106.161 20.167 105.581 19.0783C105.387 18.7154 105.435 18.5218 105.677 18.2315C105.968 17.8202 106.258 17.4089 106.597 16.9734ZM60.2177 35.167C60.2177 35.1912 60.2177 35.1912 60.2177 35.2154C60.6532 35.2154 61.1129 35.2154 61.5484 35.2154C63.5323 35.2396 65.1532 34.538 66.3629 32.9412C66.5081 32.7476 66.7984 32.5541 66.6048 32.2638C66.4355 31.9976 66.121 32.1428 65.879 32.1912C65.3226 32.3122 64.7903 32.5057 64.3307 32.796C62.7097 33.8605 60.8226 33.8122 58.9839 34.0541C57.6048 34.2476 56.2258 34.4412 55.2823 35.6509C55.0645 35.917 54.7016 36.2557 54.9919 36.5218C55.2581 36.7638 55.5484 36.3767 55.7419 36.1347C56.4919 35.2396 57.4597 34.9976 58.5484 35.0702C59.1048 35.1186 59.6613 35.1428 60.2177 35.167ZM115.96 13.4654C115.548 13.4896 115.306 13.4896 115.065 13.5138C114 13.6347 113.056 13.9734 112.403 14.9412C111.823 15.8122 111.121 16.5863 110.492 17.4331C110.081 17.9654 109.548 18.3041 108.919 18.4734C108.677 18.5218 108.435 18.546 108.218 18.6186C108.048 18.667 107.831 18.7154 107.831 18.9331C107.831 19.1751 108.048 19.2718 108.266 19.2718C108.556 19.2718 108.823 19.2234 109.089 19.1509C110.734 18.7396 111.847 17.6025 112.815 16.3202C113.637 15.2315 114.677 14.6993 116.032 14.7476C116.371 14.7718 116.685 14.6993 116.976 14.6025C117.508 14.4331 117.532 14.2154 117.145 13.8041C116.782 13.3202 116.298 13.4412 115.96 13.4654ZM75.5323 28.1267C75.4839 28.1509 75.4597 28.1509 75.4113 28.1751C74.6613 27.3283 73.8871 26.4573 73.1129 25.5622C72.9919 25.8767 73.1613 26.0218 73.2581 26.1912C73.9839 27.4976 74.9758 28.5622 76.0645 29.5541C76.3307 29.796 76.6452 29.917 76.8629 29.7476C77.1048 29.5541 77.0081 29.1912 76.8387 28.9251C76.4032 28.2234 76.1129 27.4493 75.8226 26.6751C75.6048 26.1428 75.7258 25.6589 76.1371 25.1751C76.2823 25.5138 76.4274 25.8041 76.5726 26.0702C77.0323 26.9896 77.4194 27.9331 78.3145 28.5622C78.6532 28.7799 79.0161 28.9976 79.2581 28.6831C79.4274 28.4412 79.1129 28.0783 78.8468 27.8605C78.2661 27.4009 77.8307 26.8444 77.5403 26.167C77.3226 25.6831 77.0807 25.2234 76.8387 24.7638C76.5484 24.2315 76.1613 24.1831 75.75 24.667C75.1936 25.296 75 26.0218 75.2419 26.8444C75.3145 27.2799 75.4355 27.6912 75.5323 28.1267ZM81.8952 26.9896C81.0484 26.6025 80.4919 26.0218 80.1048 25.3202C79.5726 24.3525 78.75 23.5783 78.1694 22.6347C78.0484 22.4412 77.879 22.2234 77.6371 22.3444C77.371 22.4896 77.4919 22.7557 77.5403 22.9976C77.5645 23.0944 77.6371 23.167 77.6855 23.2638C78.0242 23.917 78.6048 24.4492 78.5807 25.2718C78.5807 25.3444 78.6774 25.5138 78.7258 25.5138C79.2339 25.5138 79.4032 25.9734 79.6694 26.2396C80.0807 26.6509 80.4677 27.1105 80.9032 27.4976C81.2661 27.8363 81.75 27.9331 82.1855 27.6186C82.5968 27.3283 82.6694 26.917 82.5242 26.4331C82.3307 25.8525 82.1613 25.2718 81.9677 24.7154C81.8226 24.2799 81.7984 23.8444 82.0645 23.4331C82.1613 23.2638 82.3307 23.0218 82.1371 22.9009C81.8952 22.7557 81.7258 23.0218 81.6048 23.2396C81.2661 23.8928 81.2419 24.5702 81.4839 25.2718C81.6774 25.7799 81.871 26.3122 81.8952 26.9896ZM86.8548 20.4573C87.6532 20.3122 88.3307 20.0218 88.8387 19.4654C89.0323 19.2476 89.2742 18.9573 89.0807 18.7638C88.8871 18.5702 88.5968 18.788 88.4032 19.0057C87.9678 19.4654 87.3871 19.6589 86.8065 19.7799C86.4436 19.8767 86.2258 19.8041 86.2742 19.3444C86.2984 19.0541 86.2742 18.7396 86.25 18.4493C86.2258 18.0863 85.9839 17.8686 85.6452 17.8928C85.3065 17.917 85.2339 18.2315 85.2581 18.5218C85.2823 18.6912 85.3065 18.8363 85.3307 19.0057C85.4274 19.538 85.6452 20.046 85.3548 20.6751C85.9113 20.5541 86.129 20.8686 86.371 21.2073C86.9274 22.0783 87.5081 22.9251 88.0645 23.7718C88.2097 23.9896 88.3307 24.2073 88.1855 24.4976C88.0403 24.788 88.1613 24.8847 88.4516 24.9089C88.8629 24.9089 89.0565 24.7396 89.0323 24.3283C89.0081 23.8686 88.8871 23.4089 88.5968 23.0218C88.0403 22.1993 87.4597 21.3525 86.8548 20.4573ZM81.8468 22.5863C82.0887 22.0783 82.3065 21.546 82.5968 21.038C82.8871 20.5299 83.2258 20.5541 83.4436 21.0622C83.7823 21.8122 84.0726 22.5863 84.4113 23.3363C84.5323 23.6025 84.4597 23.796 84.2661 23.9896C83.0807 25.1025 83.6613 26.288 84.7258 26.9412C85.2823 27.2799 85.6936 27.0622 85.7903 26.4089C85.8629 25.9009 85.7419 25.417 85.6694 24.9089C85.4274 23.3605 84.871 21.9331 83.879 20.6751C83.4678 20.1428 83.0565 20.0944 82.621 20.5541C82.0887 21.1347 81.7984 21.788 81.8468 22.5863ZM93.4839 19.9493C93.5081 20.2396 93.5323 20.5057 93.5807 20.796C93.6774 21.3525 94.0645 21.6186 94.5968 21.6186C95.3952 21.5944 96.0242 21.2557 96.4113 20.5057C96.7984 19.7557 96.7016 19.0057 96.2419 18.3283C95.8307 17.7234 95.0807 17.7234 94.5726 18.2557C94.5 18.3283 94.4274 18.4009 94.3307 18.4251C93.629 18.7154 93.4839 19.296 93.4839 19.9493ZM93.3871 23.0702C93.0242 21.3041 92.6613 19.5863 91.5484 18.1347C91.4032 17.9412 91.1855 17.796 91.2339 17.4573C91.2823 17.1912 91.1129 16.9009 90.7984 16.9493C90.4597 16.9976 90.3387 17.288 90.4113 17.5783C90.4839 17.8444 90.629 18.1105 90.7742 18.3283C91.3549 19.2234 91.7903 20.1912 92.0323 21.2315C92.1774 21.8847 92.3468 22.5622 92.6613 23.167C92.7581 23.3605 92.9274 23.5783 93.1452 23.5057C93.3145 23.4815 93.3387 23.2396 93.3871 23.0702ZM76.2823 23.4573C76.3307 23.167 76.2097 22.9976 75.9436 22.9976C75.629 22.9976 75.4839 23.2396 75.4597 23.5299C75.4355 23.8444 75.6774 24.1105 75.9436 24.1105C76.379 24.1105 76.1855 23.6751 76.2823 23.4573Z" fill="#CDE3ED"></path>
    <path d="M85.0162 88.6339C81.6775 88.6339 78.3146 88.5855 74.9759 88.6581C70.9597 88.7307 66.9678 89.0452 62.9517 88.9726C61.8872 88.9484 60.8226 88.8517 59.7823 88.6339C57.3872 88.0775 56.0323 86.5775 55.7904 84.1339C55.6694 83.021 55.621 81.8839 55.5001 80.771C55.4275 80.0694 55.6694 79.4888 55.9597 78.8839C57.9678 74.892 61.0888 71.7952 64.1855 68.6743C67.5726 65.2872 71.4678 62.5775 75.4839 59.9646C80.6372 56.6259 86.1533 53.9404 91.4517 50.8678C92.1049 50.5049 92.7581 50.1662 93.3872 49.7549C95.8791 48.1581 98.6372 48.013 101.419 48.3517C102.798 48.521 104.177 48.9081 105.266 49.9001C105.46 50.0694 105.726 50.1178 105.968 50.2388C106.403 50.4565 106.96 50.5049 107.202 51.0372C107.226 51.1097 107.371 51.1823 107.444 51.1823C108.339 51.3275 108.992 51.9081 109.718 52.392C110.686 53.0452 111.75 53.6017 112.742 54.2307C114.048 55.0775 115.379 55.8033 116.734 56.5775C118.766 57.7388 120.847 58.8275 122.903 59.9646C123.677 60.4001 124.379 60.9323 125.129 61.392C126.798 62.4323 128.71 62.9646 130.379 63.9323C131.008 64.2952 131.637 64.6339 132.266 64.9968C133.186 65.5533 134.032 66.2549 135.169 66.4243C135.363 66.4485 135.581 66.5936 135.75 66.7388C137.129 67.7549 138.653 68.5291 140.153 69.3517C141.097 69.8597 142.016 70.4888 143.032 70.8275C143.758 71.0694 144.073 71.6017 144.073 72.3033C144.073 74.3597 144.315 76.4162 144.073 78.4726C143.879 80.1662 143.516 81.8355 142.718 83.3839C141.823 85.1017 140.395 86.021 138.46 86.2388C135 86.6017 131.516 86.8194 128.057 87.0855C124.331 87.3759 120.605 87.4485 116.903 87.5694C111.944 87.7388 107.008 87.8839 102.048 88.0775C96.363 88.2468 90.7017 88.4888 85.0162 88.6339ZM103.5 52.9485C103.645 52.9485 103.863 53.021 103.936 52.7549C104.008 52.4888 103.815 52.4162 103.597 52.3436C103.089 52.1743 102.436 52.4888 102.218 52.9968C101.976 53.5775 102.145 54.1823 102.702 54.6662C104.177 55.9485 105.847 56.892 107.637 57.6662C110.976 59.0936 114.097 60.8839 117.315 62.5775C120.097 64.0533 122.855 65.5775 125.758 66.8114C127.887 67.7065 129.992 68.6501 132.048 69.6662C133.694 70.4888 134.807 71.8194 135.653 73.4404C135.919 73.9727 135.823 74.3597 135.387 74.6985C135.048 74.9646 134.734 75.2307 134.444 75.5452C134.274 75.7146 134.177 75.9807 134.323 76.1985C134.444 76.4162 134.686 76.4404 134.903 76.4162C136.234 76.3436 137.468 74.9162 137.153 73.6581C136.669 71.7468 135.774 70.1259 133.887 69.1823C131.323 67.8517 128.637 66.7872 126.097 65.4323C123.581 64.1017 120.992 62.9162 118.427 61.6823C115.065 60.0856 111.726 58.513 108.315 57.013C106.452 56.2146 104.758 55.1743 103.113 54.013C102.798 53.7952 102.581 53.5533 102.726 53.1662C102.871 52.7549 103.186 52.8759 103.5 52.9485ZM59.6855 76.5856C59.8065 77.2872 60.0001 78.013 60.3146 78.7146C60.4114 78.9323 60.6291 79.0291 60.871 78.8839C61.1372 78.7388 61.1372 78.5694 61.0162 78.3275C60.9194 78.1581 60.8468 78.013 60.7985 77.8436C60.5807 77.0694 60.1936 76.271 60.6049 75.4485C61.5001 73.7065 62.7097 72.2791 64.5001 71.3597C67.2339 69.9565 70.1372 68.9162 72.9436 67.7065C77.9517 65.5533 82.9839 63.4968 87.5807 60.521C89.7339 59.1178 91.9356 57.763 93.7259 55.8759C94.1614 55.4404 94.5001 54.9323 94.6936 54.3517C95.0565 53.263 94.1856 52.1985 93.121 52.4162C92.8549 52.4646 92.5646 52.5614 92.5646 52.8759C92.5646 53.142 92.7823 53.3356 93.0485 53.4323C93.7501 53.6985 93.7501 53.6743 93.4597 54.3759C93.3388 54.6904 93.121 54.9323 92.9033 55.1501C90.2662 57.9565 87.0001 59.9162 83.6855 61.6823C79.2097 64.0533 74.5646 66.1097 69.8226 67.9485C67.0646 69.013 64.4033 70.2468 62.1775 72.2307C60.9194 73.392 59.8791 74.7227 59.6855 76.5856Z" fill="#FDFDFD"></path>
    <path d="M143.952 71.1183C143.637 70.949 143.637 70.6828 143.613 70.4651C143.564 69.5941 143.105 68.9893 142.403 68.5538C141.314 67.8764 140.202 67.2231 138.968 66.8119C138.242 66.5699 137.564 66.1828 136.935 65.7715C135.411 64.7312 133.645 64.1264 132.121 63.086C130.04 61.6586 127.693 60.6667 125.516 59.4086C123.435 58.199 121.331 57.0377 119.105 56.1183C118.476 55.8522 118.016 55.3683 117.435 55.0538C117.072 54.8602 117.387 54.7151 117.484 54.6183C118.597 53.3602 119.855 52.2231 121.113 51.0861C123.581 48.8844 126.024 46.6828 128.492 44.4812C130.742 42.4731 133.331 41.6748 136.282 41.8199C137.419 41.8683 138.532 41.8441 139.669 41.8683C139.984 41.8683 140.274 41.8199 140.516 41.6022C140.855 41.3119 141 41.3602 141.024 41.8199C141.048 42.6909 141.072 43.5619 141.145 44.457C141.387 48.0135 141.653 51.5457 142.089 55.078C142.476 58.1264 142.839 61.1748 143.202 64.2473C143.443 66.2796 143.661 68.3361 143.903 70.3683C143.952 70.5619 143.952 70.828 143.952 71.1183Z" fill="#FDFDFD"></path>
    <path d="M55.3547 77.5053C55.137 76.0295 55.1612 74.723 55.0402 73.3924C54.8467 70.852 54.6531 68.2875 54.4596 65.7472C54.3144 63.7875 54.1934 61.852 54.0725 59.8924C53.9031 57.4246 53.6854 54.9569 53.516 52.4891C53.3951 50.8924 53.3225 49.3198 53.2015 47.723C53.1773 47.5053 53.1773 47.3601 53.4918 47.3359C55.6692 47.1907 57.8709 47.0456 60.0483 47.2149C62.2983 47.3601 64.2822 48.4004 66.2176 49.5133C67.9112 50.4811 69.387 51.7633 71.0322 52.8278C73.1128 54.1827 75.2902 55.4166 77.637 56.2875C77.8063 56.3359 78.0483 56.3359 78.0483 56.5536C78.0483 56.723 77.8305 56.7472 77.7096 56.844C74.1289 58.9972 70.6451 61.2714 67.3547 63.8601C65.5402 65.3117 63.9434 67.0053 62.4192 68.7472C62.2983 68.8924 62.1773 69.0617 62.008 69.2069C59.4676 71.2149 57.8225 73.9488 55.9838 76.5375C55.8144 76.8036 55.6451 77.094 55.3547 77.5053Z" fill="#FDFDFD"></path>
    <path d="M130.548 26.0938C133.427 27.7147 136.427 29.0454 138.871 31.2712C140.153 32.4567 140.806 33.9567 140.734 35.7228C140.661 37.247 140.855 38.747 140.903 40.247C140.927 40.8034 140.758 40.7308 140.395 40.5857C139.96 40.4405 139.742 40.1986 139.669 39.7147C139.476 38.2147 138.46 37.1502 137.613 36.0373C135.29 33.0131 133.065 29.9405 130.839 26.8679C130.669 26.6502 130.476 26.4567 130.548 26.0938Z" fill="#4083A6"></path>
    <path d="M100.79 8.04533C99.7015 8.40823 98.758 8.72275 97.8144 9.01307C93.8225 10.2953 89.8306 11.5776 85.8628 12.8598C85.7902 12.884 85.6935 12.884 85.6209 12.9324C85.4999 12.9808 85.3548 13.0776 85.258 12.884C85.1854 12.7389 85.3064 12.6663 85.4031 12.5937C85.7177 12.3034 86.0806 12.0131 86.3951 11.6986C88.1128 10.0292 89.9757 8.5292 91.9354 7.12597C94.1854 5.505 96.4596 5.45662 98.8306 6.81146C99.4596 7.19855 100.064 7.58565 100.79 8.04533Z" fill="#4083A6"></path>
    <path d="M64.5483 30.2557C64.7661 29.8928 65.008 29.5541 65.2258 29.1911C65.7338 28.1992 66.1209 27.2073 65.5645 26.0944C65.5161 25.9976 65.4919 25.8766 65.4677 25.7557C65.4193 25.5621 65.4193 25.3686 65.6129 25.296C65.8548 25.1992 65.9758 25.3928 66.0483 25.5863C67.258 28.417 69.4112 30.6186 71.1532 33.1105C71.2742 33.3041 71.3951 33.3524 71.5887 33.1831C72.8951 32.0702 74.4919 31.8041 76.1371 31.5863C78.9677 31.1992 81.8467 31.175 84.6774 30.8605C88.6451 30.425 92.4919 29.6508 96.0967 27.8121C97.3548 27.1589 98.2741 26.2637 98.5645 24.8121C98.6129 24.5944 98.6371 24.2799 98.9516 24.3041C99.2177 24.3282 99.1935 24.6428 99.2661 24.8363C99.3629 25.1508 99.2903 25.4411 99.1935 25.7073C98.8064 26.8686 97.9838 27.6428 96.9435 28.1992C93.4596 30.0379 89.758 31.0541 85.8145 31.3444C82.6693 31.5621 79.5 31.8041 76.3548 32.0702C74.9516 32.1911 73.5967 32.6024 72.3629 33.3524C71.8548 33.667 71.7822 33.9331 72.1209 34.4411C72.629 35.2395 73.0645 36.0863 73.5725 36.8847C74.0806 37.7315 74.3225 38.6508 74.4435 39.6186C74.4919 40.1266 74.2258 40.3444 73.7177 40.1992C72.0967 39.7395 70.4516 37.3202 70.6693 35.5782C70.7661 34.7073 70.6209 33.9573 70.1371 33.2315C68.9032 31.3928 67.6935 29.5541 66.4596 27.7153C66.4354 27.667 66.4112 27.6186 66.3145 27.4734C65.9032 28.6105 65.6371 29.6992 64.7177 30.3766C64.6209 30.3041 64.5725 30.2799 64.5483 30.2557ZM71.1048 34.9734C70.8145 36.667 72.4838 39.425 73.7177 39.4492C72.9435 37.9492 72.1209 36.4734 71.1048 34.9734Z" fill="#040404"></path>
    <path d="M106.597 16.9729C106.258 17.4326 105.968 17.8439 105.653 18.231C105.435 18.4971 105.387 18.7149 105.556 19.0778C106.137 20.1665 106.089 21.2794 105.629 22.4407C104.952 24.1342 102.581 23.989 101.758 22.7794C101.202 21.981 101.177 21.0858 101.153 20.1665C101.105 19.1745 101.105 18.2068 100.911 17.2149C100.839 16.7794 100.597 16.4407 100.161 16.3681C99.7741 16.2955 99.4596 16.5374 99.1935 16.8278C98.6128 17.481 98.637 18.8116 99.1935 19.731C99.3144 19.9245 99.6289 20.1423 99.387 20.3842C99.1451 20.6745 98.8306 20.4568 98.5644 20.3116C98.2499 20.1423 97.9596 19.9487 97.6209 19.61C97.5725 20.1907 97.5483 20.6745 97.4999 21.1584C97.4999 21.2794 97.4999 21.4729 97.3064 21.4729C97.1128 21.4729 97.137 21.2794 97.1128 21.1584C97.0886 20.7713 97.1128 20.3842 97.1128 20.0213C97.1128 19.4407 96.9919 18.9084 96.6531 18.4245C96.4596 18.1584 96.387 17.8439 96.2902 17.5294C96.2419 17.36 96.1935 17.1423 96.4354 17.0455C96.6531 16.9487 96.7741 17.1181 96.8709 17.2632C97.2096 17.8439 97.5483 18.4487 97.887 19.0294C97.9354 19.1019 97.9838 19.1503 98.129 19.3197C98.0806 18.981 98.0564 18.7632 98.0322 18.5697C97.7902 17.4084 98.2741 16.2229 99.2902 15.5939C100.306 14.9648 101.685 15.6907 101.758 16.9487C101.831 18.1584 101.806 19.3681 101.855 20.5778C101.855 20.9165 101.879 21.2794 101.976 21.5939C102.145 22.2229 102.532 22.6584 103.161 22.8278C103.935 23.0455 104.443 22.8036 104.782 22.0778C105.072 21.4729 105.242 20.8197 105.097 20.1423C105.024 19.7552 104.903 19.3681 104.492 19.1503C104.032 18.9084 104.081 18.6423 104.468 18.3519C104.831 18.0858 105.097 17.7229 105.339 17.36C105.653 16.9245 106.016 16.7794 106.597 16.9729Z" fill="#040404"></path>
    <path d="M60.2177 35.1666C59.6612 35.1424 59.0806 35.1182 58.5241 35.094C57.4354 35.0214 56.4435 35.2634 55.7177 36.1585C55.5241 36.3763 55.2338 36.7876 54.9677 36.5456C54.6773 36.2795 55.0402 35.965 55.258 35.6747C56.2015 34.465 57.5806 34.2714 58.9596 34.0779C60.7741 33.8359 62.6612 33.8843 64.3064 32.8198C64.7902 32.5053 65.3225 32.3117 65.8548 32.215C66.0967 32.1666 66.4112 32.0214 66.5806 32.2876C66.7741 32.5537 66.4838 32.7714 66.3386 32.965C65.129 34.5617 63.508 35.2634 61.5241 35.2392C61.0886 35.2392 60.629 35.2392 60.1935 35.2392C60.2177 35.1908 60.2177 35.1666 60.2177 35.1666Z" fill="#040404"></path>
    <path d="M70.6936 29.9166C70.379 29.3843 70.0645 28.852 69.75 28.2956C69.3871 27.6908 69.2177 27.0375 69.4113 26.3359C69.6048 25.6585 69.8226 25.5617 70.3548 26.0214C70.9113 26.5053 71.3226 27.1585 71.7823 27.7391C72.4355 28.5375 72.9919 29.4569 74.1774 29.6262C74.4436 29.6504 74.4194 29.844 74.2984 30.0375C74.0081 30.5214 73.379 30.6908 72.7984 30.4004C72.1694 30.0859 71.6613 29.602 71.2016 29.0456C71.129 28.9488 71.0806 28.7795 70.8629 28.8279C70.7903 29.0698 70.9839 29.2149 71.0806 29.3843C71.371 29.8924 71.6613 30.4004 71.9274 30.9085C72.0242 31.0779 72.0484 31.2956 71.8548 31.4649C71.6613 31.6343 71.4677 31.5617 71.2984 31.4408C70.2097 30.6182 69.2177 29.6746 68.3952 28.5617C68.2742 28.3924 68.129 28.1262 68.3226 27.9811C68.5161 27.8359 68.7097 28.0537 68.8548 28.2472C69.3387 28.9246 69.8468 29.602 70.5242 30.1343C70.5726 30.2069 70.6452 30.3279 70.7419 30.2553C70.8871 30.1101 70.7661 30.0133 70.6936 29.9166ZM69.9677 26.6504C69.8468 27.2311 70.0645 27.6424 70.2823 28.0295C70.3306 28.1262 70.4032 28.2714 70.5484 28.1746C70.6694 28.102 70.5726 28.0053 70.5484 27.9085C70.3548 27.5456 70.1855 27.1343 69.9677 26.6504ZM71.0081 28.8762C70.8871 28.5133 70.8145 28.2956 70.4032 28.102C70.5484 28.4891 70.5968 28.7311 71.0081 28.8762Z" fill="#040404"></path>
    <path d="M115.96 13.4646C116.274 13.4404 116.758 13.3437 117.145 13.7791C117.532 14.2146 117.484 14.4082 116.976 14.5775C116.661 14.6743 116.347 14.7469 116.032 14.7227C114.677 14.6743 113.637 15.2308 112.814 16.2953C111.847 17.5775 110.734 18.7146 109.089 19.1259C108.822 19.1985 108.532 19.2469 108.266 19.2469C108.048 19.2469 107.855 19.1259 107.831 18.9082C107.831 18.6904 108.048 18.642 108.218 18.5937C108.46 18.5453 108.702 18.5211 108.919 18.4485C109.573 18.2791 110.081 17.9404 110.492 17.4082C111.121 16.5614 111.823 15.7872 112.403 14.9162C113.056 13.9485 114 13.6098 115.064 13.4888C115.331 13.4888 115.572 13.4888 115.96 13.4646Z" fill="#040404"></path>
    <path d="M75.5322 28.1265C75.4112 27.7152 75.3144 27.2798 75.1935 26.8685C74.9757 26.0459 75.1451 25.3201 75.7015 24.691C76.1128 24.2072 76.4757 24.2556 76.7902 24.7878C77.0564 25.2475 77.2983 25.7072 77.4918 26.191C77.7822 26.8685 78.2419 27.4249 78.7983 27.8846C79.0886 28.1023 79.3789 28.4652 79.2096 28.7072C78.9918 29.0217 78.6048 28.804 78.266 28.5862C77.3467 27.9814 76.9838 27.0136 76.5241 26.0943C76.3789 25.804 76.258 25.5378 76.0886 25.1991C75.6773 25.683 75.5564 26.1669 75.7741 26.6991C76.0644 27.4733 76.3548 28.2475 76.7902 28.9491C76.9596 29.2152 77.0564 29.6023 76.8144 29.7717C76.5967 29.941 76.258 29.7959 76.016 29.5781C74.9273 28.5862 73.9112 27.5217 73.2096 26.2152C73.1128 26.0459 72.9435 25.9007 73.0644 25.5862C73.8628 26.4814 74.6128 27.3281 75.3628 28.1991C75.4596 28.1507 75.508 28.1265 75.5322 28.1265Z" fill="#040404"></path>
    <path d="M81.8953 26.9893C81.8711 26.3119 81.6775 25.7797 81.484 25.2474C81.242 24.5458 81.242 23.8684 81.6049 23.2152C81.7259 22.9974 81.8953 22.7313 82.1372 22.8764C82.3308 22.9732 82.1614 23.2393 82.0646 23.4087C81.8227 23.82 81.8227 24.2555 81.9678 24.691C82.1614 25.2716 82.3308 25.8281 82.5243 26.4087C82.6937 26.8926 82.5969 27.3039 82.1856 27.5942C81.7501 27.9087 81.2904 27.8119 80.9033 27.4732C80.4678 27.0861 80.1049 26.6264 79.6695 26.2152C79.3791 25.949 79.234 25.4893 78.7259 25.4893C78.6775 25.4893 78.5808 25.3442 78.5808 25.2474C78.6049 24.4248 78.0243 23.8926 77.6856 23.2393C77.6372 23.1426 77.5646 23.07 77.5404 22.9732C77.492 22.7555 77.3711 22.4652 77.6372 22.32C77.8791 22.199 78.0485 22.4168 78.1695 22.6103C78.7259 23.5539 79.5485 24.3281 80.1049 25.2958C80.492 26.0216 81.0485 26.6023 81.8953 26.9893Z" fill="#040404"></path>
    <path d="M86.8548 20.457C87.4596 21.3521 88.0402 22.1747 88.6209 23.0215C88.887 23.4086 89.0322 23.8441 89.0564 24.3279C89.0806 24.7392 88.8628 24.9086 88.4757 24.9086C88.1612 24.9086 88.0403 24.7876 88.2096 24.4973C88.379 24.207 88.2338 23.9892 88.0886 23.7715C87.5322 22.9247 86.9515 22.0537 86.3951 21.207C86.1773 20.8683 85.9354 20.5537 85.379 20.6747C85.6451 20.0457 85.4515 19.5376 85.3548 19.0054C85.3306 18.836 85.3064 18.6908 85.2822 18.5215C85.2338 18.207 85.3064 17.9166 85.6693 17.8925C86.008 17.8683 86.2257 18.086 86.2741 18.4489C86.2983 18.7392 86.3225 19.0537 86.2983 19.3441C86.2499 19.8037 86.4677 19.8521 86.8306 19.7795C87.4354 19.6344 87.9919 19.4408 88.4273 19.0054C88.6209 18.8118 88.9112 18.5699 89.1048 18.7634C89.2983 18.9812 89.0564 19.2715 88.8628 19.465C88.3306 20.0215 87.6532 20.3118 86.8548 20.457Z" fill="#040404"></path>
    <path d="M81.8468 22.5856C81.7984 21.7872 82.0887 21.1098 82.621 20.5775C83.0565 20.1178 83.4677 20.1904 83.879 20.6985C84.8468 21.9566 85.4032 23.384 85.6694 24.9324C85.7419 25.4162 85.8629 25.9243 85.7903 26.4324C85.6936 27.0856 85.2823 27.2791 84.7258 26.9646C83.6613 26.3356 83.1048 25.1501 84.2661 24.013C84.4597 23.8195 84.5323 23.6259 84.4113 23.3598C84.0968 22.6098 83.7823 21.8356 83.4435 21.0856C83.2016 20.5533 82.8871 20.5291 82.5968 21.0614C82.3065 21.5453 82.0887 22.0775 81.8468 22.5856ZM84.7742 24.2549C83.9274 25.2953 84.0726 26.0936 85.0887 26.384C85.0645 26.2146 85.0645 26.0695 85.0403 25.9001C84.9677 25.3678 84.871 24.8356 84.7742 24.2549Z" fill="#040404"></path>
    <path d="M93.4839 19.9493C93.4839 19.2719 93.629 18.7155 94.3307 18.4251C94.4274 18.401 94.5 18.3284 94.5726 18.2558C95.0807 17.7235 95.8549 17.7235 96.2419 18.3284C96.7016 19.0058 96.7984 19.7558 96.4113 20.5058C96.0484 21.2316 95.3952 21.5703 94.5968 21.6187C94.0403 21.6429 93.6774 21.3768 93.5807 20.7961C93.5323 20.53 93.5323 20.2397 93.4839 19.9493ZM95.8307 19.5864C95.8307 19.0542 95.5161 18.6429 95.1049 18.6429C94.4032 18.6429 93.9436 19.0784 93.9678 19.7558C93.9678 20.2155 94.379 20.7719 94.6936 20.7719C95.2258 20.7961 95.8307 20.1429 95.8307 19.5864Z" fill="#040404"></path>
    <path d="M93.3872 23.0701C93.3388 23.2394 93.3146 23.4814 93.1211 23.554C92.8791 23.6265 92.734 23.433 92.6372 23.2153C92.3227 22.6104 92.1775 21.933 92.0082 21.2798C91.7662 20.2394 91.3066 19.2717 90.7501 18.3765C90.6049 18.1346 90.4598 17.8927 90.3872 17.6265C90.3146 17.3362 90.4356 17.0217 90.7743 16.9975C91.0888 16.9491 91.2582 17.2394 91.2098 17.5056C91.1614 17.8443 91.3791 17.9894 91.5243 18.183C92.6614 19.5862 93.0243 21.304 93.3872 23.0701Z" fill="#040404"></path>
    <path d="M76.2823 23.4567C76.1613 23.6745 76.379 24.11 75.9436 24.11C75.6774 24.11 75.4355 23.8438 75.4597 23.5293C75.4839 23.2632 75.629 23.0213 75.9436 22.9971C76.2339 22.9971 76.3306 23.1664 76.2823 23.4567Z" fill="#040404"></path>
    <path d="M103.5 52.949C103.185 52.8764 102.847 52.7796 102.702 53.1667C102.556 53.5538 102.798 53.7958 103.089 54.0135C104.734 55.1748 106.452 56.2151 108.29 57.0135C111.702 58.4893 115.04 60.0861 118.403 61.6829C120.968 62.8925 123.581 64.078 126.073 65.4329C128.613 66.7877 131.298 67.8764 133.863 69.1829C135.726 70.1506 136.645 71.7716 137.129 73.6587C137.444 74.9167 136.21 76.3442 134.879 76.4167C134.637 76.4409 134.419 76.4167 134.298 76.199C134.153 75.9571 134.25 75.7151 134.419 75.5458C134.71 75.2554 135.048 74.9651 135.363 74.699C135.798 74.3361 135.895 73.949 135.629 73.4409C134.782 71.8442 133.669 70.5135 132.024 69.6667C129.968 68.6264 127.863 67.6829 125.734 66.8119C122.831 65.6022 120.073 64.0538 117.29 62.578C114.097 60.8845 110.952 59.0942 107.613 57.6667C105.823 56.9167 104.153 55.949 102.677 54.6667C102.121 54.1829 101.952 53.578 102.194 52.9974C102.411 52.4651 103.065 52.1748 103.573 52.3442C103.766 52.4167 103.96 52.4893 103.911 52.7554C103.863 52.9974 103.669 52.9248 103.5 52.949Z" fill="#040404"></path>
    <path d="M59.6855 76.5858C59.8791 74.7229 60.9194 73.3923 62.2017 72.2552C64.4275 70.2471 67.0888 69.0374 69.8468 67.9729C74.5888 66.1342 79.2339 64.0778 83.7097 61.7068C87.0243 59.9407 90.2904 57.9568 92.9275 55.1745C93.1452 54.9326 93.3388 54.6907 93.4839 54.4003C93.7743 53.7229 93.7743 53.7229 93.0726 53.4568C92.8065 53.36 92.5888 53.1665 92.5888 52.9003C92.5888 52.5858 92.8791 52.4891 93.1452 52.4407C94.1855 52.2229 95.0807 53.2874 94.7178 54.3761C94.5243 54.9568 94.1855 55.4407 93.7501 55.9003C91.9597 57.7874 89.7581 59.1423 87.6049 60.5455C83.0081 63.5213 77.9759 65.602 72.9678 67.731C70.1372 68.9407 67.2581 69.981 64.5243 71.3842C62.7339 72.3036 61.5485 73.731 60.6291 75.4729C60.1936 76.2955 60.5807 77.0697 60.8226 77.8681C60.871 78.0374 60.9678 78.2068 61.0404 78.352C61.1614 78.5939 61.1614 78.7632 60.8952 78.9084C60.6291 79.0536 60.4355 78.9568 60.3388 78.7391C60.0243 78.0132 59.8065 77.2874 59.6855 76.5858Z" fill="#040404"></path>
    <path d="M71.1048 34.9727C72.121 36.4727 72.9436 37.9485 73.7177 39.4485C72.4839 39.4243 70.8145 36.6662 71.1048 34.9727Z" fill="#CDE3ED"></path>
    <path d="M69.9677 26.6504C70.1854 27.1343 70.3548 27.5456 70.5241 27.9326C70.5483 28.0052 70.6451 28.1262 70.5241 28.1988C70.379 28.2714 70.3306 28.1504 70.258 28.0536C70.0645 27.6423 69.8467 27.231 69.9677 26.6504Z" fill="#CDE3ED"></path>
    <path d="M71.0082 28.8767C70.5969 28.7074 70.5485 28.4896 70.4033 28.1025C70.8146 28.2961 70.8872 28.5138 71.0082 28.8767Z" fill="#CDE3ED"></path>
    <path d="M70.6935 29.917C70.7661 29.9896 70.887 30.0863 70.7903 30.1831C70.7177 30.2557 70.6209 30.1589 70.5725 30.0622C70.6209 30.038 70.6451 29.9896 70.6935 29.917Z" fill="#CDE3ED"></path>
    <path d="M84.7743 24.2549C84.8711 24.8597 84.9679 25.392 85.0646 25.9C85.0888 26.0452 85.0888 26.2146 85.113 26.3839C84.0485 26.0936 83.9033 25.271 84.7743 24.2549Z" fill="#CDE3ED"></path>
    <path d="M95.8306 19.5861C95.8306 20.1426 95.2257 20.7958 94.6935 20.7716C94.3548 20.7716 93.9677 20.2152 93.9677 19.7555C93.9435 19.0781 94.4273 18.6426 95.1048 18.6426C95.5161 18.6426 95.8306 19.0539 95.8306 19.5861Z" fill="#CDE3ED"></path>
</svg>