<svg class="mx-auto" width="70" height="70" viewBox="0 0 70 70" fill="none" xmlns="http://www.w3.org/2000/svg">
                        <path d="M69.3849 18.1152V12.1133C69.3712 12.0859 69.3712 12.0586 69.3576 12.0312C69.2892 11.8262 69.2072 11.5801 69.2345 11.293C69.2208 10.7324 69.2345 10.1719 69.2345 9.625C69.2482 8.58594 69.2619 7.50586 69.1251 6.48047C69.0841 6.17969 69.0704 5.87891 69.0431 5.57812C68.9201 3.91016 68.7697 2.87109 67.1427 2.54297L66.5548 2.41992L66.6232 2.03711H63.2052C62.2208 2.03711 61.2501 2.03711 60.2658 2.03711C57.3947 2.03711 54.4142 2.03711 51.5021 2.05078C50.2443 2.06445 49.7521 2.55664 49.7658 3.8418C49.7658 4.19727 50.3537 4.96289 50.7091 5.05859C52.0763 5.45508 53.5665 5.61914 55.0158 5.79688C55.2345 5.82422 55.4533 5.85156 55.672 5.87891C56.1232 5.93359 56.588 5.91992 57.0939 5.90625C57.34 5.89258 57.5997 5.89258 57.8732 5.89258H58.9396L58.4064 6.82227C58.3517 6.9043 58.3244 6.98633 58.297 7.04102C58.2423 7.16406 58.174 7.31445 58.0236 7.4375L56.9298 8.4082C54.8517 10.2539 52.7052 12.168 50.5724 14.0137C49.9845 14.5059 49.1232 14.5195 48.8771 14.5059C48.2072 14.4922 47.5236 14.4512 46.8673 14.4102C45.8419 14.3418 44.8712 14.2871 43.9005 14.3281C41.3712 14.4648 38.7873 14.7383 36.3126 15.0117L35.6154 15.0938C35.4923 15.1074 35.2052 15.3262 35.1369 15.4766L35.1095 15.5449C34.7677 16.2969 34.4122 17.0762 34.3849 17.7734C34.3029 19.4824 34.3165 21.2324 34.3302 22.9277C34.3302 23.5977 34.3439 24.2676 34.3439 24.9238V28.3555L33.7013 28.3281C33.0451 28.3008 32.4162 28.2598 31.8009 28.2324C31.049 28.1914 30.3517 28.1504 29.6408 28.123C28.8478 28.0957 28.0412 28.0547 27.2755 28.0137C25.0607 27.9043 22.7638 27.7813 20.5216 27.8633C18.6896 27.9043 17.3634 28.2324 16.8576 29.6816C16.5705 30.502 16.5294 31.459 16.5021 32.5254C16.4337 35.4102 16.3927 38.582 16.3927 42.2051C16.3927 43.8731 15.299 44.1191 14.3556 44.1465C11.1974 44.2559 8.06655 44.4336 4.33412 44.6797C2.0099 44.8301 0.916155 45.9375 0.779436 48.2617C0.642717 50.6133 0.73842 52.9238 0.847795 55.4805C0.902483 56.4648 0.929827 57.4766 0.95717 58.4609C1.05287 61.4824 1.14858 64.5996 1.77748 67.5664C2.09194 67.5801 2.39272 67.6074 2.67983 67.6211C3.10365 67.6484 3.52748 67.6621 3.93764 67.6895C4.52553 66.8555 4.82631 66.4043 4.9767 65.9531C5.14076 65.4609 5.15444 64.873 5.16811 63.6836C5.18178 62.6445 5.19545 61.6055 5.20912 60.5527C5.26381 57.4629 5.30483 54.2637 5.29115 51.1191C5.29115 49.6152 5.89272 48.9863 7.38295 48.959C8.68178 48.918 10.008 48.8496 11.2931 48.7676C13.2755 48.6582 15.3126 48.5352 17.3361 48.5625C17.3497 48.5625 17.3497 48.5625 17.3634 48.5625C19.797 48.5625 20.549 46.416 20.7677 45.4863C21.1232 43.9004 21.1779 42.1914 21.2189 40.5234C21.2326 40.1816 21.2326 39.8262 21.2462 39.4844C21.3009 37.9395 21.2872 36.4082 21.2872 34.9316C21.2872 34.3574 21.2736 33.7969 21.2736 33.2363V32.6074L21.9025 32.6211C23.4064 32.6484 24.8966 32.6758 26.3732 32.7168C29.6954 32.7852 32.84 32.8535 36.0529 32.8945C36.9415 32.9082 37.7208 32.6074 38.2951 32.0332C38.8556 31.459 39.1837 30.6387 39.1974 29.7227C39.2111 28 39.2111 26.2363 39.1974 24.5273C39.1974 23.6523 39.1974 22.791 39.1974 21.9297C39.1837 21.4648 39.1974 21 39.1974 20.5488C39.1974 20.3301 39.1974 20.0977 39.1974 19.8789V19.3594L39.7169 19.2773C39.8126 19.2637 39.881 19.25 39.922 19.2363C40.0177 19.2227 40.1134 19.1953 40.2228 19.1953C41.1115 19.209 41.9865 19.2363 42.8615 19.25C44.5705 19.291 46.3205 19.332 48.0431 19.3594C48.4943 19.3594 48.9591 19.3457 49.4376 19.3184C50.0529 19.291 50.6955 19.2637 51.3244 19.291C52.3908 19.3457 53.2384 19.0176 54.1818 18.1973C56.1915 16.3789 58.3107 14.6016 60.3478 12.8652C60.84 12.4551 61.3185 12.0449 61.8107 11.6211C62.2619 11.2246 62.7404 10.8828 63.2462 10.5137C63.4787 10.3359 63.7248 10.1582 63.9845 9.9668L64.9142 9.26953L64.9689 10.4316C65.0373 11.8535 65.0919 13.248 65.1603 14.6152C65.2423 16.2695 65.3107 17.8828 65.3791 19.4961C65.6935 19.5098 65.9533 19.5645 66.1857 19.6055C66.3498 19.6328 66.4865 19.6602 66.6232 19.6738C66.8146 19.6738 67.006 19.7012 67.1974 19.7285C67.8263 19.8105 68.0861 19.8242 68.3185 19.5371C68.6193 19.1953 68.8927 18.8262 69.1662 18.457C69.2072 18.3477 69.3029 18.2246 69.3849 18.1152Z" fill="#BF8C15"></path>
                    </svg>