<svg class="mx-auto" width="70" height="70" viewBox="0 0 70 70" fill="none" xmlns="http://www.w3.org/2000/svg">
                        <path d="M68.9746 36.3262C68.8516 36.3945 68.7969 36.5859 68.6875 36.6816C68.3731 36.9277 68.0449 37.3652 67.7031 37.3789C64.9551 37.4746 62.207 37.5156 59.4453 37.543C56.5469 37.5703 53.6621 37.5567 50.8457 37.5567C49.4375 45.3223 45.6367 50.791 37.1055 51.6113C37.2285 54.5781 37.4473 57.4629 37.4609 60.3613C37.4746 62.877 37.3379 65.3789 37.1328 67.8809C37.0781 68.4824 36.4902 69.043 36.1074 69.6035C36.0527 69.6992 35.7656 69.6309 35.5742 69.6309C35.3965 69.6172 35.2051 69.5899 35.0274 69.7129C34.7813 69.5625 34.5488 69.3984 34.3027 69.2344C33.7969 68.9063 33.5098 68.5508 33.4551 67.8399C33.0586 62.5762 33.7969 57.3125 33.4141 52.0625C33.4004 51.9805 33.3867 51.8984 33.3594 51.7481C33.1406 51.707 32.9766 51.6797 32.7988 51.666C30.1055 51.4473 27.5898 50.5996 25.2793 49.3145C24.1172 48.6719 23.2969 47.4688 22.2168 46.6348C19.7832 44.7754 19.1953 42.1094 18.7715 39.3613C18.6211 38.3223 18.5801 37.2559 18.5664 36.1895C18.5527 35.6699 18.375 35.5332 17.8691 35.5059C15.5586 35.3965 13.2344 35.1914 10.9238 35.1231C8.57227 35.0547 6.20703 35.1231 3.85547 35.1231C2.91211 35.1231 1.98242 35.1231 1.02539 35.041C1.2168 34.9863 1.4082 34.9453 1.79102 34.8359C1.39453 34.7266 1.17578 34.6719 0.943359 34.6172C1.01172 34.5762 1.08008 34.5352 1.16211 34.4941C1.05273 34.2754 0.984375 34.002 0.806641 33.8379C0.505859 33.5508 0.464844 33.209 0.724609 32.7305C0.779297 32.6211 0.65625 32.416 0.615234 32.252C0.574219 32.0742 0.546875 31.8828 0.505859 31.6777C1.96875 30.7891 3.60938 31.0352 5.16797 31.0488C7.69727 31.0762 10.2266 31.2266 12.7422 31.377C14.5059 31.4863 16.2832 31.6367 18.0469 31.8145C18.7441 31.8828 19.1133 31.6914 19.1953 30.9805C19.4961 28.6289 20.7266 26.6328 21.793 24.5957C22.4219 23.4063 23.2148 22.2715 24.0898 21.2461C25.2109 19.9336 26.6602 18.9492 28.3008 18.334C29.0664 18.0332 29.9141 17.9512 30.7344 17.7871C31.1992 17.6914 31.377 17.5684 31.4043 16.9805C31.6094 11.9082 31.8281 6.82228 32.7305 1.79103C32.9492 0.574229 33.6875 0.0957134 34.918 0.369151C35.1504 0.423838 35.3828 0.396495 35.7109 0.410166C36.8047 1.81837 36.1074 3.52735 36.0527 5.15431C35.916 8.72267 35.6152 12.291 35.4375 15.8594C35.3555 17.4863 35.4238 17.418 37.0098 17.8965C39.0332 18.5117 41.0156 19.2363 42.4512 20.8633C42.8613 21.3281 43.1621 21.9434 43.3398 22.5449C43.4492 22.8731 43.3262 23.4609 43.0801 23.625C42.8613 23.7754 42.3008 23.5977 41.9863 23.4063C41.043 22.832 40.168 22.1758 39.2383 21.5742C36.4356 19.7832 33.5371 20.0703 30.7207 21.4375C27.3984 23.0371 25.1973 25.7168 24.1309 29.1758C23.4746 31.3223 22.9141 33.5371 22.7227 35.7656C22.4766 38.7598 22.9688 41.7129 25.1289 44.0781C26.7148 45.8281 28.7109 46.8535 31.1719 46.9219C32.3203 46.9492 33.4688 47.1953 34.6172 47.3047C36.6133 47.4961 38.5547 47.0449 40.2773 46.1973C42.2324 45.2402 43.5586 43.5449 44.666 41.6582C46.252 38.9785 46.4844 36.2442 45.7188 33.3047C45.377 32.0332 45.2949 30.707 45.1035 29.5586C45.5 29.2715 45.7598 29.0938 45.8281 29.0391C46.3203 28.9981 46.6484 28.9707 46.9766 28.957C47.209 28.9434 47.4688 28.916 47.6602 29.0117C48.3711 29.3809 49.2871 29.5176 49.5059 30.5156C49.6699 31.2676 49.957 32.0059 50.1348 32.7578C50.2578 33.291 50.4902 33.4688 51.0508 33.4551C56.6836 33.3731 62.3164 33.3184 67.9356 33.2637C68.1953 33.25 68.4688 33.3047 68.7149 33.4414C68.4688 33.4688 68.2227 33.4961 67.9629 33.5234C67.9492 33.5918 67.9492 33.6465 67.9492 33.7012C68.2227 33.7422 68.5098 33.7695 68.8242 33.8106C68.9746 34.1797 69.207 34.5352 69.3027 34.9316C69.4805 35.4375 69.6035 35.9844 68.9746 36.3262Z" fill="#BF8C15"></path>
                        <path d="M58.1465 58.3789C57.7637 58.5293 57.3945 58.6934 57.0254 58.8301C57.1348 58.9395 57.2441 59.0352 57.3398 59.1445C56.8477 59.0899 56.3281 59.0762 55.8633 58.9531C55.5625 58.8848 55.3164 58.6113 55.0156 58.4883C54.8652 58.4199 54.6602 58.4609 54.4687 58.6113C54.4414 58.5977 54.4004 58.584 54.3867 58.5703C53.0332 56.3965 50.668 55.207 49.082 53.293C48.6855 52.8145 47.7969 52.2129 48.5352 51.2832C48.6309 51.1602 48.3027 50.709 48.2207 50.5176C48.6719 50.4356 49.1094 50.3672 49.5195 50.2852C49.2871 50.1211 49.041 49.957 48.8086 49.793C50.4492 49.4102 51.6934 50.2442 52.9785 50.9551C52.6777 50.6953 52.377 50.4219 51.8984 49.9981C52.2402 50.0938 52.3633 50.0938 52.459 50.1621C53.6758 51.0781 54.9062 51.9668 56.082 52.9375C56.4375 53.2246 57.1074 53.4434 56.8203 54.1816C56.7793 54.2774 57.0664 54.5234 57.2441 54.6465C58.1055 55.2617 58.4609 56.1504 58.707 57.1074C58.8574 57.709 58.7344 58.1465 58.1465 58.3789Z" fill="#BF8C15"></path>
                        <path d="M21.3828 55.3438C20.7949 56.2598 20.1387 57.1348 19.5098 58.0371C18.2383 59.8691 16.9668 61.7285 15.6816 63.5606C15.0664 64.4219 14.3828 64.5313 13.3984 64.0664C13.2754 64.0117 13.084 64.0527 12.9336 64.0527C12.7695 63.4375 12.5508 62.9043 12.4824 62.3574C12.3047 60.9356 13.2754 60.0059 14.041 58.9941C14.4922 58.3926 14.8477 57.7363 15.3535 57.1758C16.2695 56.1641 17.0352 54.9883 18.3887 54.4141C18.6484 54.3047 18.8535 54.0176 19.0449 53.7852C19.6602 53.0742 20.4258 52.9512 21.1914 53.4981C21.793 53.9219 21.8887 54.5508 21.3828 55.3438Z" fill="#BF8C15"></path>
                        <path d="M58.7344 16.3106C58.1875 16.9805 57.709 17.7324 57.0254 18.2383C55.877 19.0859 54.5918 19.7559 53.3613 20.5078C51.9941 21.3281 50.6133 22.1074 48.9453 21.2051C48.959 21.1914 49.041 21.0274 49.0273 21.0137C48.4121 20.5352 48.877 19.8242 48.6582 19.3184C48.3574 18.5938 48.7402 18.2109 49.1914 17.9102C50.8867 16.7344 52.582 15.5586 54.3594 14.5332C54.9199 14.2051 55.7539 14.2598 56.4512 14.2734C57.0938 14.2734 57.7363 14.4512 58.4062 14.5469C58.5156 15.0117 58.625 15.4356 58.7207 15.8594C58.748 15.9961 58.8027 16.2285 58.7344 16.3106Z" fill="#BF8C15"></path>
                        <path d="M17.6914 21.2598C17.2539 21.0137 16.748 20.8223 16.4062 20.4805C14.998 19.0723 13.6719 17.5684 12.2363 16.1875C11.416 15.4082 11.7305 14.4922 11.7168 13.6309C11.7031 13.1524 13.1934 12.9336 13.8086 13.1524C15.6133 13.8086 16.1465 15.6953 17.5273 16.7481C18.457 17.459 18.8398 18.457 19.1133 19.5098C19.3457 20.3711 18.7168 21.082 17.6914 21.2598Z" fill="#BF8C15"></path>
                    </svg>