<svg class="mx-auto" width="70" height="70" viewBox="0 0 68 67" fill="none" xmlns="http://www.w3.org/2000/svg">
                        <path d="M57.2426 32.877C60.8247 29.418 64.0923 25.4395 67.2231 20.709C67.688 19.9844 67.5512 19.1094 66.7036 17.6055C66.5532 17.5508 66.1841 17.4824 65.5962 17.4141H65.5688C65.5415 17.4141 65.5005 17.4004 65.4731 17.4004C65.4184 17.4004 65.3774 17.3867 65.3227 17.3867C64.8305 17.3184 64.2837 17.332 63.6958 17.3457H63.6821C63.4087 17.3594 63.1216 17.3594 62.8481 17.3594C61.6313 17.3594 60.3735 17.3594 59.143 17.373C55.9848 17.3867 52.7173 17.4004 49.4634 17.3184C48.3559 17.3047 46.4692 16.8398 45.8266 15.623C43.8989 12 42.0942 8.32227 40.1255 4.23437L39.4145 2.75781C39.2368 2.375 39.1274 2.00586 39.018 1.65039C38.6626 0.501953 38.6352 0.501953 37.9516 0.638672C37.4321 0.748047 37.0493 0.488281 36.8852 0.378906L36.7895 0.310547C35.8872 -0.332031 35.6274 -0.427734 35.1899 -0.236328C34.6294 0.0371093 34.1372 -0.181641 33.8091 -0.400391L33.5356 -0.0722655C33.0434 0.501953 32.5923 1.04883 32.2505 1.62305C30.7739 4.11133 29.2426 6.80469 27.6977 9.63477C26.768 11.3574 25.7837 13.2168 24.9223 15.1855C24.4165 16.3613 23.4594 17.9336 20.9712 17.9336C16.8696 17.9199 12.8501 17.9336 8.93991 18.1797C7.01218 18.3027 5.04343 18.6855 3.14304 19.0684L3.07468 19.082C2.82859 19.123 2.58249 19.1777 2.32273 19.2324C2.00827 19.3008 1.68015 19.3555 1.35202 19.4238C1.29734 19.4648 1.17429 19.5742 1.03757 19.7656C0.244603 20.9141 0.490696 23.7168 1.47507 24.6738C2.58249 25.7539 3.67624 26.8066 4.74265 27.8184L5.33054 28.3789C6.47898 29.4863 7.66843 30.6211 8.81687 31.7695C9.91062 32.8633 10.977 33.9844 12.0024 35.0781L12.4126 35.5156C13.2055 36.3633 14.0532 37.2656 14.9009 38.1406L15.0923 38.332C15.7485 38.9883 16.7192 39.959 16.2544 41.5996C16.1176 42.0644 15.9809 42.5293 15.8442 42.9941L15.6391 43.6914C15.2153 45.168 14.7915 46.6035 14.3813 47.9434C13.4243 51.0742 12.4536 54.3281 11.729 57.5684C11.5512 58.3203 11.3325 59.0723 11.1548 59.7285C10.4848 61.9844 9.85593 64.1309 10.9223 66.1816C10.9907 66.209 11.0727 66.25 11.1411 66.2773C11.3188 66.3594 11.688 66.5234 11.8794 66.5234H12.2212C12.727 66.5234 13.7934 66.5234 14.1216 66.2773C17.5122 63.6387 20.2739 61.3418 22.7895 59.0176C24.8813 57.0625 30.104 52.25 32.77 49.1738C32.8794 49.0234 32.9751 48.1894 32.7973 47.8066C32.6743 47.6699 32.0454 47.3691 31.7719 47.3965C30.7329 47.5332 29.6255 47.9434 28.7368 48.5312C27.7251 49.1875 23.7192 52.5371 22.9262 53.248L22.8169 53.3437C22.5024 53.6172 22.188 53.9043 21.8598 54.1641C21.3813 54.5879 20.8891 55.0117 20.3696 55.4492L19.6176 56.0918L16.5005 58.7852L16.6919 56.0098C16.7055 55.873 16.7055 55.7773 16.7055 55.709V55.5859C16.7192 55.4082 16.7192 55.2441 16.7876 55.0664C17.3891 53.1113 17.9907 51.1016 18.5649 49.1738L18.9751 47.8066C19.3305 46.6035 19.6997 45.4004 20.0551 44.1973C20.4243 42.9805 20.7798 41.7773 21.1489 40.5742C21.3403 39.918 21.2719 38.8926 20.9712 37.8125C20.6567 36.6777 20.2055 35.9805 19.9048 35.7891C19.5766 35.5703 19.2075 35.3652 18.893 35.1875C17.4301 34.3262 15.7759 33.3555 14.7094 31.4688C14.2856 30.7031 13.5747 30.0469 12.9048 29.4043C12.604 29.1172 12.2759 28.8027 11.9614 28.4746C11.8384 28.3789 11.729 28.2832 11.6196 28.2148L11.6059 28.2012C11.4009 28.0645 11.1958 27.9141 11.0044 27.709C10.4438 27.1621 9.8696 26.5742 9.41843 26.1094C9.28171 25.9727 9.14499 25.8359 9.00827 25.6855C8.8032 25.4805 8.59812 25.2617 8.37937 25.0566L7.6821 24.3594L8.26999 23.5391C8.28367 23.5117 8.31101 23.4844 8.32468 23.457L8.33835 23.4434C8.40671 23.3203 8.48874 23.2109 8.57077 23.1016L8.88523 22.7051L9.39109 22.6504C9.51413 22.6367 9.62351 22.623 9.76023 22.6094C10.0473 22.5684 10.3344 22.541 10.6489 22.5273C11.7153 22.5 12.7954 22.459 13.8344 22.418H13.8481C16.8423 22.3086 20.0688 22.2129 23.4594 22.1309C25.2641 22.0898 26.3305 21.543 27.0278 20.3125C28.2856 18.125 29.6528 15.7188 31.2251 12.9434L31.8266 11.9043C32.4966 10.7422 33.1801 9.56641 33.8911 8.33594L36.0239 4.63086L36.8989 6.92773C36.9673 7.10547 37.0219 7.26953 37.0766 7.40625L37.1997 7.73437C37.3091 8.04883 37.4048 8.29492 37.5141 8.54102L37.5415 8.62305C37.5825 8.71875 37.6235 8.82813 37.6645 8.92383C37.7055 9.04688 37.7602 9.15625 37.8012 9.26563L37.938 9.59375C38.1977 10.2227 38.4575 10.8789 38.7583 11.4941C38.9634 11.8906 39.1958 12.3281 39.4829 12.793C39.7153 13.1758 39.9204 13.5312 40.0981 13.8594C40.3716 14.3926 40.604 14.9258 40.8774 15.5684C41.3286 16.6348 41.7524 17.6465 42.395 18.2344C43.4614 19.2188 45.102 20.0254 47.2485 20.627C48.4926 20.9824 49.8325 21.0781 51.2407 21.1875L51.4594 21.2012C52.0473 21.2422 52.6489 21.2832 53.2368 21.3516C54.7817 21.5293 56.3676 21.707 58.4048 21.9258L60.5923 22.1582L59.1567 23.8398C58.7876 24.2773 58.4458 24.6738 58.104 25.084L58.063 25.1387C57.1469 26.2324 56.3813 27.1621 55.5337 28.0645C54.6313 29.0352 53.8247 29.8691 53.0864 30.6211L53.0591 30.6484C51.9243 31.8105 50.7485 33.0137 49.6548 34.2578C48.1645 35.9531 47.6997 37.7988 48.2739 39.7402C48.8481 41.668 49.4907 43.623 50.1196 45.5234L50.27 45.9883C50.3794 46.3164 50.4887 46.6445 50.5844 46.9727C50.6938 47.3008 50.7895 47.6289 50.8989 47.957L51.063 48.5039L52.3208 52.0996L48.8344 49.4609C47.3579 48.3262 45.8676 47.1641 44.4184 46.043C43.8442 45.5918 43.27 45.1543 42.6958 44.7031C41.9165 44.0879 41.1098 43.459 40.2895 42.8301L39.1274 42.625C38.5259 42.5156 37.8969 42.4062 37.268 42.2969C36.5844 42.1738 35.9009 42.0508 35.2173 41.9277L34.9438 42.1738C35.0532 42.3242 35.1626 42.4883 35.2583 42.6523L35.6137 43.1992L35.3266 43.8008C35.1079 44.2383 35.0259 44.5117 34.9985 44.6621C36.2016 46.0703 37.6782 47.8203 39.3325 49.0918C44.3774 53.002 49.518 56.7344 54.4946 60.3574C56.1626 61.5605 57.9399 61.998 59.7719 61.6426C59.8266 61.5879 59.9223 61.4922 60.018 61.3828C60.0454 61.3418 60.0727 61.3144 60.1001 61.2734C60.1137 61.2598 60.1274 61.2461 60.1411 61.2187C60.1548 61.1914 60.1684 61.1504 60.1821 61.1094C60.3188 60.7949 60.5102 60.4121 60.9341 60.1523C61.1391 60.0293 61.2212 59.9883 61.0981 59.6191C60.9341 59.1953 60.7837 58.7441 60.6333 58.3203L60.6059 58.2383C59.813 56.0098 58.9926 53.7129 58.063 51.5254C56.6821 48.3125 55.1509 45.1269 53.5786 41.873C53.2915 41.2715 53.0044 40.6836 52.7309 40.0957C52.1704 38.9199 52.3755 37.7441 53.3188 36.7734C53.5923 36.4863 53.893 36.1719 54.1801 35.8848C55.1509 34.9551 56.1762 33.875 57.2426 32.877Z" fill="#BF8C15"></path>
                    </svg>