<svg class="mx-auto" width="84" height="70" viewBox="0 0 70 58" fill="none" xmlns="http://www.w3.org/2000/svg">
                        <path d="M63.2324 34.0449C59.2812 39.8281 54.4277 44.7363 49.082 49.1934C47.0723 50.8613 45.0898 52.5293 42.9844 54.0605C41.5352 55.1133 39.9629 56.0156 38.3633 56.8223C36.5449 57.7246 34.7539 57.3008 33.1543 56.207C28.6152 53.1445 24.0352 50.1367 19.6191 46.9102C17.7051 45.5156 16.0781 43.6973 14.4785 41.9199C11.5664 38.666 8.6543 35.3984 5.98828 31.9395C2.91211 27.9473 0.833984 23.4766 0.546875 18.3496C0.533203 17.9941 0.410156 17.6387 0.341797 17.2969V15.6016C0.751953 13.9062 1.01172 12.1426 1.61328 10.502C3.5957 4.96484 7.80664 2.16211 13.4668 1.31445C20.877 0.207031 27.084 2.80469 32.7715 7.38477C35.1094 9.27148 37.0098 11.4453 38.8145 13.7559C39.6895 14.877 40.4414 16.1211 41.0566 17.4062C41.2891 17.8848 41.1934 18.8965 40.8379 19.1973C40.5098 19.4844 39.5527 19.334 39.0332 19.0605C36.9824 17.9805 35.4648 16.2715 34.084 14.4531C31.8965 11.6094 29.3398 9.06641 26.1953 7.37109C20.8359 4.48633 15.2715 3.7207 9.78906 7.16602C6.00195 9.55859 5.09961 13.3184 5.08594 17.4746C5.07227 20.0312 5.94727 22.3691 7.05469 24.584C9.03711 28.4941 11.4297 32.1172 14.7383 35.0703C15.4492 35.6992 15.9004 36.5605 16.5293 37.2715C17.541 38.4336 18.293 39.7734 19.8926 40.457C20.959 40.9082 21.7656 42.0293 22.627 42.9043C23.7207 43.9981 24.582 45.3242 26.332 45.4883C26.6738 45.5156 27.0566 45.8574 27.3027 46.1445C29.6543 48.9473 32.7988 50.7109 35.916 52.4609C36.3945 52.7207 37.4473 52.4473 37.9805 52.0508C40.0586 50.5332 42.1504 48.9746 44.0645 47.2246C47.3047 44.2578 50.5176 41.25 53.5527 38.0781C56.6699 34.8105 59.3223 31.2012 61.4824 27.1816C63.3281 23.7637 64.2031 20.127 64.709 16.3945C65.1055 13.5234 64.8457 10.4609 62.8223 8.20508C61.7285 6.98828 59.9102 6.14062 58.2695 5.75781C56.6836 5.38867 54.8379 5.56641 53.2109 5.94922C50.2168 6.66016 48.0703 8.79297 46.0605 11.0078C45.3359 11.8008 44.5703 12.457 43.4629 12.457C42.9844 12.4707 42.5195 12.252 41.8906 12.0879C41.7812 11.377 41.5762 10.502 41.5215 9.62695C41.5078 9.10742 41.5625 8.46484 41.8496 8.08203C44.2832 5.04688 47.1406 2.51758 50.9141 1.23242C51.6113 1 52.3496 0.863281 53.0605 0.671875H58.8438C59.2949 0.78125 59.7461 0.917969 60.1973 1C62.2207 1.38281 63.4375 3.07813 65.1055 4.03516C68.332 5.88086 69.0977 9.06641 69.4531 12.416C70.3555 20.4961 67.6895 27.5234 63.2324 34.0449Z" fill="#BF8C15"></path>
                    </svg>