<svg class="mx-auto" width="38" height="70" viewBox="0 0 38 70" fill="none" xmlns="http://www.w3.org/2000/svg">
                        <path d="M35.9079 35.916C34.2263 37.8027 32.3805 39.5254 30.5485 41.2617C26.5153 45.0762 22.3864 48.8086 18.3805 52.6777C14.9352 56.0137 11.6403 59.5 8.24969 62.8906C7.2243 63.916 6.07586 64.8047 5.07782 65.8437C4.13446 66.8144 3.31414 67.9082 2.42547 68.9336C2.20672 69.1934 1.96063 69.5351 1.67352 69.5898C1.22235 69.6719 0.634456 69.6719 0.278987 69.4394C0.0602372 69.3164 0.00554933 68.5781 0.169612 68.2773C0.702815 67.3203 1.35906 66.4453 1.96063 65.5293C3.20477 63.6699 4.38055 61.7558 5.72039 59.9512C7.47039 57.6133 9.22039 55.248 11.1891 53.0879C15.4274 48.4258 19.8024 43.9004 24.0954 39.3066C25.3669 37.9394 26.5973 36.5449 27.6638 35.3555C25.8044 35.3555 23.5485 35.2871 21.3063 35.3691C16.6579 35.5195 12.0231 35.7793 7.37469 35.9433C6.47235 35.9844 5.57 35.8476 4.65399 35.793C3.68328 35.7383 3.56024 35.7383 3.7243 34.6035C3.77899 34.2344 3.75164 34.0566 3.53289 33.7695C3.16375 33.2773 2.93133 32.6894 3.34149 32.0742C3.3825 32.0058 3.43719 31.8965 3.42352 31.8418C2.80828 30.2695 4.23016 29.5859 4.87274 28.6015C5.58367 27.5215 6.49969 26.5918 7.33367 25.5937C8.55047 24.1308 9.79461 22.6953 10.9841 21.2187C11.8591 20.125 12.6657 18.9765 13.4997 17.8691C14.0876 17.0898 14.6618 16.2969 15.2907 15.5449C16.5759 14.0137 17.9704 12.5781 19.1872 10.9922C20.8141 8.8867 22.2907 6.6992 23.8083 4.53905C24.6149 3.37694 25.3669 2.17381 26.1462 0.98436C26.5427 0.382798 27.7595 0.218735 28.5798 0.656235C29.195 0.970689 29.4821 1.80467 29.0993 2.5703C27.9645 4.82616 26.8845 7.10936 25.5856 9.25584C21.238 16.4199 16.07 23.0098 11.0251 29.6816C10.861 29.9004 10.7243 30.1328 10.4645 30.4883C12.1188 30.4199 13.6364 30.3515 15.1403 30.2695C16.9723 30.1738 18.818 30.0371 20.6501 29.9824C23.3981 29.9004 26.1462 29.791 28.8806 29.832C31.2868 29.8594 33.6794 30.0371 36.072 30.1601C36.277 30.1738 36.4958 30.2969 36.6462 30.4336C36.8923 30.6523 37.07 30.9258 37.2614 31.1445C37.2887 31.6914 37.2477 32.2793 37.3571 32.8398C37.6579 34.248 36.6462 35.0957 35.9079 35.916Z" fill="#BF8C15"></path>
                    </svg>