<svg width="160" height="160" viewBox="0 0 160 160" fill="none" xmlns="http://www.w3.org/2000/svg">
<g clip-path="url(#clip0_4082_64279)">
<path d="M120 8H40C22.32 8 8 22.32 8 40V120C8 134.56 17.76 146.88 31.12 150.72C30.72 149.6 30.4 148.4 30.4 147.2V40C30.4 34.72 34.72 30.4 40 30.4H120C125.28 30.4 129.6 34.72 129.6 40V127.52H136.8C138.56 127.52 140 128.96 140 130.72V140.32C140 142.08 138.56 143.52 136.8 143.52H129.6V147.2C129.6 148.48 129.36 149.6 128.88 150.72C142.24 146.88 152 134.56 152 120V40C152 22.32 137.68 8 120 8Z" fill="#694931"/>
<path d="M83.9996 140.32V130.72C83.9996 128.96 85.4396 127.52 87.1996 127.52H126.4V39.9996C126.4 36.4796 123.52 33.5996 120 33.5996H39.9996C36.4796 33.5996 33.5996 36.4796 33.5996 39.9996V147.2C33.5996 148.96 34.3196 150.48 35.4396 151.68C36.9596 151.92 38.4796 152 39.9996 152H120C121.52 152 123.04 151.92 124.56 151.68C125.68 150.56 126.4 148.96 126.4 147.2V143.52H87.1996C85.4396 143.52 83.9996 142.08 83.9996 140.32ZM118.4 85.1196C118.4 86.8796 116.96 88.3196 115.2 88.3196H87.9996C86.2396 88.3196 84.7996 86.8796 84.7996 85.1196V81.9196C84.7996 80.1596 86.2396 78.7196 87.9996 78.7196H115.2C116.96 78.7196 118.4 80.1596 118.4 81.9196V85.1196ZM91.0396 100.56C91.0396 101.44 90.3196 102.16 89.4396 102.16H43.9996C43.1196 102.16 42.3996 101.44 42.3996 100.56C42.3996 99.6796 43.1196 98.9596 43.9996 98.9596H89.4396C90.3196 98.9596 91.0396 99.6796 91.0396 100.56ZM84.7996 73.3596C84.7996 72.4796 85.5196 71.7596 86.3996 71.7596H106.24C107.12 71.7596 107.84 72.4796 107.84 73.3596C107.84 74.2396 107.12 74.9596 106.24 74.9596H86.3996C85.5196 74.9596 84.7996 74.2396 84.7996 73.3596ZM43.9996 44.5596H89.4396C90.3196 44.5596 91.0396 45.2796 91.0396 46.1596C91.0396 47.0396 90.3196 47.7596 89.4396 47.7596H43.9996C43.1196 47.7596 42.3996 47.0396 42.3996 46.1596C42.3996 45.2796 43.1196 44.5596 43.9996 44.5596ZM41.5996 54.7196C41.5996 52.9596 43.0396 51.5196 44.7996 51.5196H115.2C116.96 51.5196 118.4 52.9596 118.4 54.7196V57.9196C118.4 59.6796 116.96 61.1196 115.2 61.1196H44.7996C43.0396 61.1196 41.5996 59.6796 41.5996 57.9196V54.7196ZM67.0396 73.3596C67.0396 74.2396 66.3196 74.9596 65.4396 74.9596H43.9996C43.1196 74.9596 42.3996 74.2396 42.3996 73.3596C42.3996 72.4796 43.1196 71.7596 43.9996 71.7596H65.4396C66.3196 71.7596 67.0396 72.4796 67.0396 73.3596ZM41.5996 81.9196C41.5996 80.1596 43.0396 78.7196 44.7996 78.7196H71.9996C73.7596 78.7196 75.1996 80.1596 75.1996 81.9196V85.1196C75.1996 86.8796 73.7596 88.3196 71.9996 88.3196H44.7996C43.0396 88.3196 41.5996 86.8796 41.5996 85.1196V81.9196ZM51.1996 112.32C51.1996 114.08 49.7596 115.52 47.9996 115.52H44.7996C43.0396 115.52 41.5996 114.08 41.5996 112.32V109.12C41.5996 107.36 43.0396 105.92 44.7996 105.92H47.9996C49.7596 105.92 51.1996 107.36 51.1996 109.12V112.32ZM55.1996 112.32V109.12C55.1996 107.36 56.6396 105.92 58.3996 105.92H115.2C116.96 105.92 118.4 107.36 118.4 109.12V112.32C118.4 114.08 116.96 115.52 115.2 115.52H58.3996C56.6396 115.52 55.1996 114.08 55.1996 112.32Z" fill="#694931"/>
<path d="M129.6 143.52H126.4V147.2C126.4 148.96 125.68 150.48 124.56 151.68C123.36 152.88 121.76 153.6 120 153.6H40.0004C38.2404 153.6 36.5604 152.88 35.4404 151.68C34.3204 150.56 33.6004 148.96 33.6004 147.2V40.0004C33.6004 36.4804 36.4804 33.6004 40.0004 33.6004H120C123.52 33.6004 126.4 36.4804 126.4 40.0004V127.52H129.6V40.0004C129.6 34.7204 125.28 30.4004 120 30.4004H40.0004C34.7204 30.4004 30.4004 34.7204 30.4004 40.0004V147.2C30.4004 148.48 30.6404 149.6 31.1204 150.72C32.5604 154.24 36.0004 156.8 40.0004 156.8H120C124.08 156.8 127.52 154.32 128.88 150.72C129.28 149.6 129.6 148.4 129.6 147.2V143.52Z" fill="#B58967"/>
<path d="M44.7996 61.1195H115.2C116.96 61.1195 118.4 59.6795 118.4 57.9195V54.7195C118.4 52.9595 116.96 51.5195 115.2 51.5195H44.7996C43.0396 51.5195 41.5996 52.9595 41.5996 54.7195V57.9195C41.5996 59.6795 43.0396 61.1195 44.7996 61.1195Z" fill="#FFF5ED"/>
<path d="M44.0004 47.7605H89.4404C90.3204 47.7605 91.0404 47.0405 91.0404 46.1605C91.0404 45.2805 90.3204 44.5605 89.4404 44.5605H44.0004C43.1204 44.5605 42.4004 45.2805 42.4004 46.1605C42.4004 47.0405 43.1204 47.7605 44.0004 47.7605Z" fill="#E8CAB3"/>
<path d="M118.4 112.32V109.12C118.4 107.36 116.96 105.92 115.2 105.92H58.4002C56.6402 105.92 55.2002 107.36 55.2002 109.12V112.32C55.2002 114.08 56.6402 115.52 58.4002 115.52H115.2C116.96 115.52 118.4 114.08 118.4 112.32Z" fill="#FFF5ED"/>
<path d="M47.9996 105.92H44.7996C43.0396 105.92 41.5996 107.36 41.5996 109.12V112.32C41.5996 114.08 43.0396 115.52 44.7996 115.52H47.9996C49.7596 115.52 51.1996 114.08 51.1996 112.32V109.12C51.1996 107.36 49.7596 105.92 47.9996 105.92Z" fill="#FFF5ED"/>
<path d="M44.0004 98.9609C43.1204 98.9609 42.4004 99.6809 42.4004 100.561C42.4004 101.441 43.1204 102.161 44.0004 102.161H89.4404C90.3204 102.161 91.0404 101.441 91.0404 100.561C91.0404 99.6809 90.3204 98.9609 89.4404 98.9609H44.0004Z" fill="#E8CAB3"/>
<path d="M44.7996 88.3207H71.9996C73.7596 88.3207 75.1996 86.8807 75.1996 85.1207V81.9207C75.1996 80.1607 73.7596 78.7207 71.9996 78.7207H44.7996C43.0396 78.7207 41.5996 80.1607 41.5996 81.9207V85.1207C41.5996 86.8807 43.0396 88.3207 44.7996 88.3207Z" fill="#FFF5ED"/>
<path d="M44.0004 71.7598C43.1204 71.7598 42.4004 72.4798 42.4004 73.3598C42.4004 74.2398 43.1204 74.9598 44.0004 74.9598H65.4404C66.3204 74.9598 67.0404 74.2398 67.0404 73.3598C67.0404 72.4798 66.3204 71.7598 65.4404 71.7598H44.0004Z" fill="#E8CAB3"/>
<path d="M115.2 78.7207H87.9998C86.2398 78.7207 84.7998 80.1607 84.7998 81.9207V85.1207C84.7998 86.8807 86.2398 88.3207 87.9998 88.3207H115.2C116.96 88.3207 118.4 86.8807 118.4 85.1207V81.9207C118.4 80.1607 116.96 78.7207 115.2 78.7207Z" fill="#FFF5ED"/>
<path d="M106.24 74.9598C107.12 74.9598 107.84 74.2398 107.84 73.3598C107.84 72.4798 107.12 71.7598 106.24 71.7598H86.3998C85.5198 71.7598 84.7998 72.4798 84.7998 73.3598C84.7998 74.2398 85.5198 74.9598 86.3998 74.9598H106.24Z" fill="#E8CAB3"/>
<path d="M111.52 134.64C111.52 134.24 111.2 134.08 110.72 134.08H109.52V135.28H110.64C111.2 135.28 111.52 135.12 111.52 134.64Z" fill="#99E6FF"/>
<path d="M110.96 136.32H109.52V137.52H110.96C111.52 137.52 111.84 137.36 111.84 136.88C111.84 136.56 111.6 136.32 110.96 136.32Z" fill="#99E6FF"/>
<path d="M87.2 127.52C85.44 127.52 84 128.96 84 130.72V140.32C84 142.08 85.44 143.52 87.2 143.52H126.4H129.6H136.8C138.56 143.52 140 142.08 140 140.32V130.72C140 128.96 138.56 127.52 136.8 127.52H129.6H126.4H87.2ZM99.44 136.96C99.44 138.08 98.56 138.72 97.36 138.72C96.64 138.72 95.92 138.48 95.28 138.08C95.12 138 95.04 137.84 95.04 137.6C95.04 137.28 95.28 137.04 95.6 137.04C95.76 137.04 95.84 137.12 95.92 137.12C96.32 137.44 96.8 137.6 97.36 137.6C97.84 137.6 98.16 137.44 98.16 137.04C98.16 136.72 98 136.56 97.04 136.32C95.92 136 95.2 135.68 95.2 134.64C95.2 133.6 96 132.96 97.12 132.96C97.76 132.96 98.4 133.12 98.88 133.44C99.04 133.52 99.12 133.68 99.12 133.92C99.12 134.24 98.88 134.48 98.56 134.48C98.48 134.48 98.32 134.48 98.24 134.4C97.84 134.16 97.44 134 97.04 134C96.56 134 96.32 134.24 96.32 134.48C96.32 134.88 96.56 134.96 97.52 135.2C98.8 135.52 99.44 135.92 99.44 136.96ZM106.16 136.16C106.16 137.84 105.2 138.72 103.68 138.72C102.16 138.72 101.28 137.92 101.28 136.24V133.6C101.28 133.28 101.52 132.96 101.92 132.96C102.32 132.96 102.56 133.2 102.56 133.6V136.16C102.56 137.04 103.04 137.52 103.76 137.52C104.48 137.52 104.96 137.04 104.96 136.16V133.6C104.96 133.28 105.2 132.96 105.6 132.96C106 132.96 106.24 133.2 106.24 133.6V136.16H106.16ZM113.04 137.04C113.04 138.08 112.24 138.56 110.96 138.56H108.88C108.56 138.56 108.24 138.32 108.24 137.92V133.6C108.24 133.28 108.48 132.96 108.88 132.96H110.88C111.52 132.96 112 133.12 112.32 133.44C112.56 133.68 112.72 134 112.72 134.4C112.72 135.04 112.4 135.36 112 135.6C112.64 135.92 113.04 136.32 113.04 137.04ZM120.56 138C120.56 138.32 120.32 138.64 119.92 138.64C119.6 138.64 119.28 138.32 119.28 138V135.2L118.24 136.88C118.08 137.04 117.92 137.2 117.76 137.2C117.52 137.2 117.36 137.04 117.28 136.88L116.24 135.28V138.08C116.24 138.4 116 138.72 115.6 138.72C115.28 138.72 114.96 138.48 114.96 138.08V133.6C114.96 133.28 115.2 132.96 115.6 132.96H115.76C116 132.96 116.24 133.12 116.32 133.28L117.84 135.68L119.36 133.28C119.52 133.04 119.68 132.96 119.92 132.96H120.08C120.4 132.96 120.72 133.2 120.72 133.6V138H120.56ZM124.08 138C124.08 138.32 123.84 138.64 123.44 138.64C123.04 138.64 122.8 138.4 122.8 138V133.6C122.8 133.28 123.04 132.96 123.44 132.96C123.84 132.96 124.08 133.2 124.08 133.6V138ZM130.08 133.04C130.4 133.04 130.64 133.28 130.64 133.6C130.64 133.92 130.4 134.16 130.08 134.16H128.88V138.08C128.88 138.4 128.64 138.72 128.24 138.72C127.84 138.72 127.6 138.48 127.6 138.08V134.16H126.4C126.08 134.16 125.84 133.92 125.84 133.6C125.84 133.28 126.08 133.04 126.4 133.04H130.08Z" fill="#99E6FF"/>
<path d="M97.6802 135.279C96.7202 135.039 96.4802 134.879 96.4802 134.559C96.4802 134.319 96.7202 134.079 97.2002 134.079C97.6002 134.079 98.0002 134.239 98.4002 134.479C98.4802 134.559 98.5602 134.559 98.7202 134.559C99.0402 134.559 99.2802 134.319 99.2802 133.999C99.2802 133.759 99.1202 133.599 99.0402 133.519C98.5602 133.199 97.9202 133.039 97.2802 133.039C96.1602 133.039 95.3602 133.679 95.3602 134.719C95.3602 135.839 96.0802 136.159 97.2002 136.399C98.1602 136.639 98.3202 136.799 98.3202 137.119C98.3202 137.439 98.0002 137.679 97.5202 137.679C96.9602 137.679 96.4802 137.519 96.0802 137.199C96.0002 137.119 95.9202 137.119 95.7602 137.119C95.4402 137.119 95.2002 137.359 95.2002 137.679C95.2002 137.839 95.2802 138.079 95.4402 138.159C96.0802 138.639 96.8002 138.799 97.5202 138.799C98.7202 138.799 99.6002 138.159 99.6002 137.039C99.4402 135.919 98.8002 135.519 97.6802 135.279Z" fill="#4F331D"/>
<path d="M105.6 132.961C105.28 132.961 104.96 133.201 104.96 133.601V136.241C104.96 137.121 104.48 137.601 103.76 137.601C103.04 137.601 102.56 137.121 102.56 136.241V133.601C102.56 133.281 102.32 132.961 101.92 132.961C101.52 132.961 101.28 133.201 101.28 133.601V136.241C101.28 137.921 102.16 138.721 103.68 138.721C105.2 138.721 106.16 137.921 106.16 136.161V133.601C106.16 133.201 105.92 132.961 105.6 132.961Z" fill="#4F331D"/>
<path d="M112 135.679C112.4 135.439 112.72 135.119 112.72 134.479C112.72 134.079 112.56 133.759 112.32 133.519C112 133.199 111.52 133.039 110.88 133.039H108.88C108.56 133.039 108.24 133.279 108.24 133.679V138.079C108.24 138.399 108.48 138.719 108.88 138.719H110.96C112.24 138.719 113.04 138.239 113.04 137.199C113.04 136.319 112.64 135.919 112 135.679ZM109.52 134.079H110.72C111.2 134.079 111.52 134.319 111.52 134.639C111.52 135.039 111.2 135.199 110.64 135.199H109.52V134.079ZM111.84 136.879C111.84 137.279 111.52 137.519 110.96 137.519H109.52V136.319H110.96C111.6 136.319 111.84 136.559 111.84 136.879Z" fill="#4F331D"/>
<path d="M119.92 132.961H119.76C119.52 132.961 119.36 133.041 119.2 133.281L117.68 135.681L116.16 133.281C116.08 133.121 115.84 132.961 115.6 132.961H115.44C115.12 132.961 114.8 133.201 114.8 133.601V138.081C114.8 138.401 115.04 138.721 115.44 138.721C115.76 138.721 116.08 138.481 116.08 138.081V135.281L117.12 136.881C117.28 137.041 117.44 137.201 117.6 137.201C117.84 137.201 118 137.041 118.08 136.881L119.12 135.201V138.001C119.12 138.321 119.36 138.641 119.76 138.641C120.08 138.641 120.4 138.401 120.4 138.001V133.601C120.56 133.281 120.32 132.961 119.92 132.961Z" fill="#4F331D"/>
<path d="M123.44 132.961C123.12 132.961 122.8 133.201 122.8 133.601V138.081C122.8 138.401 123.04 138.721 123.44 138.721C123.84 138.721 124.08 138.481 124.08 138.081V133.601C124.08 133.201 123.84 132.961 123.44 132.961Z" fill="#4F331D"/>
<path d="M125.92 133.599C125.92 133.919 126.16 134.159 126.48 134.159H127.68V138.079C127.68 138.399 127.92 138.719 128.32 138.719C128.72 138.719 128.96 138.479 128.96 138.079V134.159H130.16C130.48 134.159 130.72 133.919 130.72 133.599C130.72 133.279 130.48 133.039 130.16 133.039H126.56C126.16 133.039 125.92 133.279 125.92 133.599Z" fill="#4F331D"/>
</g>
<defs>
<clipPath id="clip0_4082_64279">
<rect width="160" height="160" fill="white"/>
</clipPath>
</defs>
</svg>
