<svg width="160" height="160" viewBox="0 0 160 160" fill="none" xmlns="http://www.w3.org/2000/svg">
<g clip-path="url(#clip0_4082_64325)">
<path d="M35.2 28H58.4C73.68 28 86.64 38.32 90.72 52.32C94.16 51.04 97.84 50.4 101.6 50.4H125.6C136.56 50.4 146.24 55.92 152 64.4V40C152 22.32 137.68 8 120 8H40C22.32 8 8 22.32 8 40V41.92C14.08 33.52 24 28 35.2 28Z" fill="#916441"/>
<path d="M69.6 97.9992C63.36 94.3992 59.2 87.6792 59.2 79.9992C59.2 68.6392 68.32 59.4392 79.6 59.1992C82 56.9592 84.72 55.0392 87.68 53.5992C84.16 40.7192 72.4 31.1992 58.4 31.1992H35.2C23.28 31.1992 12.96 38.0792 8 48.0792V91.1992C12.96 101.199 23.28 108.079 35.2 108.079H43.52C43.92 108.079 44.24 108.239 44.48 108.399L60.8 121.439C61.36 121.759 62.08 121.679 62.56 121.279C63.12 120.879 63.28 120.159 63.12 119.519C63.12 119.439 63.04 119.359 63.04 119.279L61.6 109.439C61.44 108.559 62.08 107.759 62.96 107.599C65.52 107.199 68.08 106.479 70.4 105.439C69.84 103.119 69.6 100.799 69.6 98.3192V97.9992ZM26.4 52.3192H63.04C64.4 52.3192 65.44 53.3592 65.44 54.7192C65.44 56.0792 64.4 57.1192 63.04 57.1192H26.4C25.04 57.1192 24 56.0792 24 54.7192C24 53.3592 25.12 52.3192 26.4 52.3192ZM26.4 65.9192H39.04C40.4 65.9192 41.44 66.9592 41.44 68.3192C41.44 69.6792 40.4 70.7192 39.04 70.7192H26.4C25.04 70.7192 24 69.6792 24 68.3192C24 66.9592 25.12 65.9192 26.4 65.9192ZM47.04 84.3192H26.4C25.04 84.3192 24 83.2792 24 81.9192C24 80.5592 25.04 79.5192 26.4 79.5192H47.04C48.4 79.5192 49.44 80.5592 49.44 81.9192C49.44 83.2792 48.4 84.3192 47.04 84.3192Z" fill="#916441"/>
<path d="M125.6 130.399H101.92L88.08 141.919C87.6 142.239 86.96 142.399 86.4 142.399C85.68 142.399 85.04 142.159 84.48 141.759C83.44 140.959 82.96 139.599 83.36 138.319L85.52 126.079C78.88 122.239 73.84 115.999 71.28 108.639C69.28 109.439 67.2 110.159 65.04 110.559L66.24 118.719C66.72 120.559 66.08 122.639 64.56 123.759C63.76 124.399 62.72 124.719 61.6 124.719C60.72 124.719 59.84 124.479 59.04 123.999C58.96 123.999 58.96 123.919 58.88 123.919L42.88 111.119H35.2C24 111.119 14.08 105.599 8 97.1992V119.999C8 137.679 22.32 151.999 40 151.999H120C137.68 151.999 152 137.679 152 119.999V116.399C146.24 124.879 136.56 130.399 125.6 130.399Z" fill="#916441"/>
<path d="M157.599 82.4004C157.599 75.7604 155.519 69.5204 151.999 64.4004C146.239 55.9204 136.559 50.4004 125.599 50.4004H101.599C97.7593 50.4004 94.0793 51.1204 90.7193 52.3204C91.5993 55.2804 91.9993 58.4004 91.9993 61.6004V63.0404C97.2793 66.8004 100.799 73.0404 100.799 80.0004C100.799 90.5604 92.9593 99.2804 82.7993 100.64C79.5993 104 75.6793 106.8 71.2793 108.64C73.7593 116 78.8793 122.16 85.5193 126.08L83.3593 138.32C82.9593 139.6 83.4393 140.96 84.4793 141.76C85.0393 142.24 85.7593 142.4 86.3993 142.4C86.9593 142.4 87.5993 142.24 88.0793 141.92L101.919 130.4H125.599C136.559 130.4 146.239 124.88 151.999 116.4C155.519 111.28 157.599 105.04 157.599 98.4004V82.4004ZM134.239 106.72H117.599C116.239 106.72 115.199 105.68 115.199 104.32C115.199 102.96 116.239 101.92 117.599 101.92H134.239C135.599 101.92 136.639 102.96 136.639 104.32C136.639 105.68 135.599 106.72 134.239 106.72ZM134.239 93.1204H122.399C121.039 93.1204 119.999 92.0804 119.999 90.7204C119.999 89.3604 121.039 88.3204 122.399 88.3204H134.239C135.599 88.3204 136.639 89.3604 136.639 90.7204C136.639 92.0804 135.599 93.1204 134.239 93.1204ZM134.239 79.5204H111.199C109.839 79.5204 108.799 78.4804 108.799 77.1204C108.799 75.7604 109.839 74.7204 111.199 74.7204H134.239C135.599 74.7204 136.639 75.7604 136.639 77.1204C136.639 78.4804 135.599 79.5204 134.239 79.5204Z" fill="#CC9B7A"/>
<path d="M79.9997 59.1995C83.1197 59.1995 86.0797 59.9195 88.7997 61.1195C88.7997 58.4795 88.3997 55.9995 87.7597 53.5195C84.7997 54.9595 82.0797 56.8795 79.6797 59.1195C79.7597 59.1995 79.8397 59.1995 79.9997 59.1995Z" fill="#CC9B7A"/>
<path d="M69.5995 98.4C69.5995 100.8 69.9195 103.2 70.3995 105.52C73.1995 104.32 75.7595 102.64 77.9995 100.72C74.9595 100.4 72.0795 99.52 69.5195 98V98.4H69.5995Z" fill="#CC9B7A"/>
<path d="M26.4 57.1203H63.04C64.4 57.1203 65.44 56.0803 65.44 54.7203C65.44 53.3603 64.4 52.3203 63.04 52.3203H26.4C25.04 52.3203 24 53.3603 24 54.7203C24 56.0803 25.12 57.1203 26.4 57.1203Z" fill="#E8CAB3"/>
<path d="M26.4 70.7199H39.04C40.4 70.7199 41.44 69.6799 41.44 68.3199C41.44 66.9599 40.4 65.9199 39.04 65.9199H26.4C25.04 65.9199 24 66.9599 24 68.3199C24 69.6799 25.12 70.7199 26.4 70.7199Z" fill="#E8CAB3"/>
<path d="M47.04 79.5195H26.4C25.04 79.5195 24 80.5595 24 81.9195C24 83.2795 25.04 84.3195 26.4 84.3195H47.04C48.4 84.3195 49.44 83.2795 49.44 81.9195C49.44 80.6395 48.4 79.5195 47.04 79.5195Z" fill="#E8CAB3"/>
<path d="M134.24 74.7207H111.2C109.84 74.7207 108.8 75.7607 108.8 77.1207C108.8 78.4807 109.84 79.5207 111.2 79.5207H134.24C135.6 79.5207 136.64 78.4807 136.64 77.1207C136.64 75.7607 135.6 74.7207 134.24 74.7207Z" fill="#815330"/>
<path d="M134.24 88.3203H122.4C121.04 88.3203 120 89.3603 120 90.7203C120 92.0803 121.04 93.1203 122.4 93.1203H134.24C135.6 93.1203 136.64 92.0803 136.64 90.7203C136.64 89.3603 135.6 88.3203 134.24 88.3203Z" fill="#815330"/>
<path d="M134.239 101.92H117.599C116.239 101.92 115.199 102.96 115.199 104.32C115.199 105.68 116.239 106.72 117.599 106.72H134.239C135.599 106.72 136.639 105.68 136.639 104.32C136.639 102.96 135.599 101.92 134.239 101.92Z" fill="#815330"/>
<path d="M35.1996 111.2H42.9596L58.9596 124C59.0396 124.08 59.0396 124.08 59.1196 124.08C59.8396 124.56 60.7196 124.8 61.6796 124.8C62.7196 124.8 63.7596 124.48 64.6396 123.84C66.1596 122.64 66.8796 120.64 66.3196 118.8L65.1196 110.64C67.2796 110.24 69.3596 109.52 71.3596 108.72C75.7596 106.88 79.6796 104.16 82.8796 100.72C81.9996 100.88 81.0396 100.88 80.0796 100.88C79.4396 100.88 78.7996 100.88 78.1596 100.8C75.9196 102.72 73.2796 104.4 70.5596 105.6C68.2396 106.64 65.7596 107.36 63.1196 107.76C62.2396 107.92 61.6796 108.72 61.7596 109.6L63.1996 119.44C63.1996 119.52 63.1996 119.6 63.2796 119.68C63.4396 120.32 63.2796 121.04 62.7196 121.44C62.2396 121.84 61.5196 121.84 60.9596 121.6L44.6396 108.56C44.3196 108.32 43.9996 108.24 43.6796 108.24H35.1996C23.2796 108.24 12.9596 101.36 7.99961 91.36C5.91961 87.28 4.79961 82.64 4.79961 77.84V61.6C4.79961 56.72 5.91961 52.16 7.99961 48.08C12.9596 38.08 23.2796 31.2 35.1996 31.2H58.3996C72.3996 31.2 84.1596 40.72 87.7596 53.6C88.3996 56 88.7996 58.56 88.7996 61.2C89.9196 61.76 91.0396 62.32 91.9996 63.04V61.6C91.9996 58.4 91.5196 55.28 90.7196 52.32C86.6396 38.32 73.6796 28 58.3996 28H35.1996C23.9996 28 14.0796 33.52 7.99961 41.92C3.99961 47.44 1.59961 54.24 1.59961 61.6V77.6C1.59961 84.96 3.99961 91.76 7.99961 97.28C14.0796 105.68 23.9996 111.2 35.1996 111.2Z" fill="#EDD1BE"/>
<path d="M97.5994 80.0004C97.5994 70.2404 89.7594 62.4004 79.9994 62.4004C70.2394 62.4004 62.3994 70.2404 62.3994 80.0004C62.3994 89.7604 70.2394 97.6004 79.9994 97.6004C89.7594 97.6004 97.5994 89.7604 97.5994 80.0004ZM79.1194 87.0404C78.7994 87.3604 78.3994 87.5204 77.9994 87.5204H77.9194C77.5194 87.5204 77.0394 87.2804 76.7994 86.9604L71.5994 81.0404C71.0394 80.4004 71.1194 79.3604 71.7594 78.8004C72.3994 78.2404 73.4394 78.3204 73.9994 78.9604L78.0794 83.6004L86.3994 75.4404C87.0394 74.8004 88.0794 74.8004 88.6394 75.4404C89.2794 76.0804 89.2794 77.1204 88.6394 77.6804L79.1194 87.0404Z" fill="#99E6FF"/>
<path d="M79.9992 59.1992C79.8392 59.1992 79.7592 59.1992 79.5992 59.1992C68.3192 59.4392 59.1992 68.6392 59.1992 79.9992C59.1992 87.6792 63.3592 94.3992 69.5992 97.9992C72.1592 99.4392 74.9592 100.399 78.0792 100.719C78.7192 100.799 79.3592 100.799 79.9992 100.799C80.9592 100.799 81.8392 100.719 82.7992 100.639C92.9592 99.2792 100.799 90.5592 100.799 79.9992C100.799 72.9592 97.2792 66.7992 91.9992 63.0392C90.9592 62.3192 89.9192 61.6792 88.7992 61.1992C86.0792 59.9192 83.1192 59.1992 79.9992 59.1992ZM79.9992 97.5992C70.2392 97.5992 62.3992 89.7592 62.3992 79.9992C62.3992 70.2392 70.2392 62.3992 79.9992 62.3992C89.7592 62.3992 97.5992 70.2392 97.5992 79.9992C97.5992 89.7592 89.7592 97.5992 79.9992 97.5992Z" fill="#8E5F3F"/>
<path d="M88.6401 75.5191C88.0001 74.8791 87.0401 74.8791 86.4001 75.5191L78.0801 83.6791L74.0001 79.0391C73.4401 78.3991 72.4001 78.3191 71.7601 78.8791C71.1201 79.4391 71.0401 80.4791 71.6001 81.1191L76.8001 87.0391C77.1201 87.3591 77.5201 87.5991 77.9201 87.5991H78.0001C78.4001 87.5991 78.8001 87.4391 79.1201 87.1191L88.6401 77.8391C89.2801 77.1191 89.2801 76.1591 88.6401 75.5191Z" fill="#593B27"/>
</g>
<defs>
<clipPath id="clip0_4082_64325">
<rect width="160" height="160" fill="white"/>
</clipPath>
</defs>
</svg>
