<svg width="160" height="160" viewBox="0 0 160 160" fill="none" xmlns="http://www.w3.org/2000/svg">
<g clip-path="url(#clip0_4082_64362)">
<path d="M100.081 38C101.281 39.04 101.841 40.56 101.841 42.56C101.841 43.04 101.521 43.36 101.041 43.36C100.561 43.36 100.241 43.04 100.241 42.56C100.241 41.12 99.8407 40 98.9607 39.2C98.0007 38.32 96.5607 38.08 95.6807 38H85.7607C86.8807 39.28 87.6007 41.04 87.6007 43.36V56.4L89.5207 54.48C89.8407 54.16 90.2407 54 90.6407 54C91.0407 54 91.4407 54.16 91.7607 54.48L95.2807 58L98.8007 54.48C99.1207 54.16 99.5207 54 99.9207 54C100.321 54 100.721 54.16 101.041 54.48L104.561 58L108.081 54.48C108.401 54.16 108.801 54 109.201 54C109.601 54 110.001 54.16 110.321 54.48L112.241 56.4V43.36C112.241 39.2 108.241 38.16 107.521 38H100.081Z" fill="#C19672"/>
<path d="M148.56 93.68C147.92 93.68 147.36 93.44 146.88 92.96C145.92 92 145.92 90.48 146.88 89.6L151.28 85.2H136.08V107.6C136.08 121.6 132.48 125.2 118.48 125.2H41.6C27.76 125.2 24 121.76 24 109.2V87.6V84.4H15.2C14.32 84.4 13.6 83.68 13.6 82.8C13.6 81.92 14.32 81.2 15.2 81.2H65.6C66.48 81.2 67.2 81.92 67.2 82.8C67.2 83.68 66.48 84.4 65.6 84.4H59.2V87.6C59.2 88.48 58.48 89.2 57.6 89.2C56.72 89.2 56 88.48 56 87.6V84.4H27.2V87.6V109.2C27.2 119.28 28.96 122 41.6 122H59.92C56.96 119.36 56 114.88 56 107.6V98H38.4C37.52 98 36.8 97.28 36.8 96.4C36.8 95.52 37.52 94.8 38.4 94.8H65.6C66.48 94.8 67.2 95.52 67.2 96.4C67.2 97.28 66.48 98 65.6 98H59.2V107.6C59.2 119.84 61.36 122 73.6 122H118.4C130.64 122 132.8 119.84 132.8 107.6V85.2H102.72C101.36 85.2 100.32 84.16 100.32 82.8C100.32 81.44 101.36 80.4 102.72 80.4H132.8V52.4C132.8 40.16 130.64 38 118.4 38H113.52C114.64 39.28 115.44 41.04 115.44 43.36V60.32C115.44 60.96 115.04 61.52 114.48 61.76C113.92 62 113.2 61.84 112.72 61.44L109.2 57.92L105.68 61.44C105.36 61.76 104.96 61.92 104.56 61.92C104.16 61.92 103.76 61.76 103.44 61.44L99.92 57.92L96.4 61.44C95.76 62.08 94.8 62.08 94.16 61.44L90.64 57.92L87.12 61.44C86.8 61.76 86.4 61.92 86 61.92C85.76 61.92 85.6 61.92 85.36 61.76C84.8 61.52 84.4 60.96 84.4 60.32V43.36C84.4 39.12 80.4 38.16 79.68 38H73.6C61.36 38 59.2 40.16 59.2 52.4V60.4C59.2 61.28 58.48 62 57.6 62C56.72 62 56 61.28 56 60.4V52.4C56 45.12 56.96 40.64 59.92 38H41.6C29.36 38 27.2 40.16 27.2 52.4V61.2C27.2 62.08 26.48 62.8 25.6 62.8C24.72 62.8 24 62.08 24 61.2V52.4C24 38.4 27.6 34.8 41.6 34.8H79.92H107.68H118.4C132.4 34.8 136 38.4 136 52.4V80.4H151.2L146.8 76C145.84 75.04 145.84 73.52 146.8 72.64C147.76 71.68 149.28 71.68 150.16 72.64L152 74.4V40C152 22.32 137.68 8 120 8H40C22.32 8 8 22.32 8 40V67.6H65.6C66.48 67.6 67.2 68.32 67.2 69.2C67.2 70.08 66.48 70.8 65.6 70.8H59.2V74C59.2 74.88 58.48 75.6 57.6 75.6C56.72 75.6 56 74.88 56 74V70.8H27.2V74C27.2 74.88 26.48 75.6 25.6 75.6C24.72 75.6 24 74.88 24 74V70.8H8V120C8 137.68 22.32 152 40 152H120C137.68 152 152 137.68 152 120V91.2L150.24 92.96C149.76 93.44 149.12 93.68 148.56 93.68ZM72 67.6H72.8C73.68 67.6 74.4 68.32 74.4 69.2C74.4 70.08 73.68 70.8 72.8 70.8H72C71.12 70.8 70.4 70.08 70.4 69.2C70.4 68.32 71.12 67.6 72 67.6ZM72 81.2H72.8C73.68 81.2 74.4 81.92 74.4 82.8C74.4 83.68 73.68 84.4 72.8 84.4H72C71.12 84.4 70.4 83.68 70.4 82.8C70.4 81.92 71.12 81.2 72 81.2ZM72 94.8H72.8C73.68 94.8 74.4 95.52 74.4 96.4C74.4 97.28 73.68 98 72.8 98H72C71.12 98 70.4 97.28 70.4 96.4C70.4 95.52 71.12 94.8 72 94.8Z" fill="#C19672"/>
<path d="M118.4 122H73.6C61.36 122 59.2 119.84 59.2 107.6V98.0004H56V107.6C56 114.88 56.96 119.36 59.92 122H41.6C28.96 122 27.2 119.28 27.2 109.2V87.6004V84.4004H24V87.6004V109.2C24 121.76 27.76 125.2 41.6 125.2H118.4C132.4 125.2 136 121.6 136 107.6V85.2004H132.8V107.6C132.8 119.84 130.64 122 118.4 122Z" fill="#593B27"/>
<path d="M118.4 34.8008H107.68H79.92H41.6C27.6 34.8008 24 38.4008 24 52.4008V61.2008C24 62.0808 24.72 62.8008 25.6 62.8008C26.48 62.8008 27.2 62.0808 27.2 61.2008V52.4008C27.2 40.1608 29.36 38.0008 41.6 38.0008H59.92C56.96 40.6408 56 45.1208 56 52.4008V60.4008C56 61.2808 56.72 62.0008 57.6 62.0008C58.48 62.0008 59.2 61.2808 59.2 60.4008V52.4008C59.2 40.1608 61.36 38.0008 73.6 38.0008H79.76C80.48 38.1608 84.48 39.1208 84.48 43.3608V60.3208C84.48 60.9608 84.88 61.5208 85.44 61.7608C85.6 61.8408 85.84 61.9208 86.08 61.9208C86.48 61.9208 86.88 61.7608 87.2 61.4408L90.72 57.9208L94.24 61.4408C94.88 62.0808 95.84 62.0808 96.48 61.4408L100 57.9208L103.52 61.4408C103.84 61.7608 104.24 61.9208 104.64 61.9208C105.04 61.9208 105.44 61.7608 105.76 61.4408L109.28 57.9208L112.8 61.4408C113.28 61.9208 113.92 62.0008 114.56 61.7608C115.12 61.5208 115.52 60.9608 115.52 60.3208V43.3608C115.52 41.0408 114.72 39.3608 113.6 38.0008H118.48C130.72 38.0008 132.88 40.1608 132.88 52.4008V80.4008H136.08V52.4008C136 38.4008 132.4 34.8008 118.4 34.8008ZM112.24 43.3608V56.4008L110.32 54.4808C110 54.1608 109.6 54.0008 109.2 54.0008C108.8 54.0008 108.4 54.1608 108.08 54.4808L104.56 58.0008L101.04 54.4808C100.72 54.1608 100.32 54.0008 99.92 54.0008C99.52 54.0008 99.12 54.1608 98.8 54.4808L95.28 58.0008L91.76 54.4808C91.44 54.1608 91.04 54.0008 90.64 54.0008C90.24 54.0008 89.84 54.1608 89.52 54.4808L87.6 56.4008V43.3608C87.6 41.0408 86.8 39.2808 85.76 38.0008H95.68C96.56 38.0808 97.92 38.3208 98.96 39.2008C99.76 39.9208 100.24 41.1208 100.24 42.5608C100.24 43.0408 100.56 43.3608 101.04 43.3608C101.52 43.3608 101.84 43.0408 101.84 42.5608C101.84 40.6408 101.28 39.1208 100.08 38.0008H107.52C108.24 38.1608 112.24 39.2008 112.24 43.3608Z" fill="#593B27"/>
<path d="M56 87.6004C56 88.4804 56.72 89.2004 57.6 89.2004C58.48 89.2004 59.2 88.4804 59.2 87.6004V84.4004H56V87.6004Z" fill="#593B27"/>
<path d="M56 74.0008C56 74.8808 56.72 75.6008 57.6 75.6008C58.48 75.6008 59.2 74.8808 59.2 74.0008V70.8008H56V74.0008Z" fill="#593B27"/>
<path d="M24 74.0008C24 74.8808 24.72 75.6008 25.6 75.6008C26.48 75.6008 27.2 74.8808 27.2 74.0008V70.8008H24V74.0008Z" fill="#593B27"/>
<path d="M158.56 82.7999C158.56 80.9599 157.2 79.5999 155.92 78.2399L152 74.3999L150.24 72.6399C149.28 71.6799 147.76 71.6799 146.88 72.6399C145.92 73.5999 145.92 75.1199 146.88 75.9999L151.28 80.3999H136.08H132.88H102.8C101.44 80.3999 100.4 81.4399 100.4 82.7999C100.4 84.1599 101.44 85.1999 102.8 85.1999H132.8H136H151.2L146.8 89.5999C145.84 90.5599 145.84 92.0799 146.8 92.9599C147.28 93.4399 147.92 93.6799 148.48 93.6799C149.04 93.6799 149.68 93.4399 150.16 92.9599L151.92 91.1999L155.84 87.2799C157.2 85.9999 158.56 84.6399 158.56 82.7999Z" fill="#99E6FF"/>
<path d="M27.2004 70.7996H56.0004H59.2004H65.6004C66.4804 70.7996 67.2004 70.0796 67.2004 69.1996C67.2004 68.3196 66.4804 67.5996 65.6004 67.5996H8.00039H4.00039C3.12039 67.5996 2.40039 68.3196 2.40039 69.1996C2.40039 70.0796 3.12039 70.7996 4.00039 70.7996H8.00039H24.0004H27.2004Z" fill="#815330"/>
<path d="M56.0006 84.3992H59.2006H65.6006C66.4806 84.3992 67.2006 83.6792 67.2006 82.7992C67.2006 81.9192 66.4806 81.1992 65.6006 81.1992H15.2006C14.3206 81.1992 13.6006 81.9192 13.6006 82.7992C13.6006 83.6792 14.3206 84.3992 15.2006 84.3992H24.0006H27.2006H56.0006Z" fill="#815330"/>
<path d="M65.6008 98.0008C66.4808 98.0008 67.2008 97.2808 67.2008 96.4008C67.2008 95.5208 66.4808 94.8008 65.6008 94.8008H38.4008C37.5208 94.8008 36.8008 95.5208 36.8008 96.4008C36.8008 97.2808 37.5208 98.0008 38.4008 98.0008H56.0008H59.2008H65.6008Z" fill="#815330"/>
<path d="M72.0004 70.7996H72.8004C73.6804 70.7996 74.4004 70.0796 74.4004 69.1996C74.4004 68.3196 73.6804 67.5996 72.8004 67.5996H72.0004C71.1204 67.5996 70.4004 68.3196 70.4004 69.1996C70.4004 70.0796 71.1204 70.7996 72.0004 70.7996Z" fill="#815330"/>
<path d="M72.0004 84.3992H72.8004C73.6804 84.3992 74.4004 83.6792 74.4004 82.7992C74.4004 81.9192 73.6804 81.1992 72.8004 81.1992H72.0004C71.1204 81.1992 70.4004 81.9192 70.4004 82.7992C70.4004 83.6792 71.1204 84.3992 72.0004 84.3992Z" fill="#815330"/>
<path d="M72.0004 98.0008H72.8004C73.6804 98.0008 74.4004 97.2808 74.4004 96.4008C74.4004 95.5208 73.6804 94.8008 72.8004 94.8008H72.0004C71.1204 94.8008 70.4004 95.5208 70.4004 96.4008C70.4004 97.2808 71.1204 98.0008 72.0004 98.0008Z" fill="#815330"/>
</g>
<defs>
<clipPath id="clip0_4082_64362">
<rect width="160" height="160" fill="white"/>
</clipPath>
</defs>
</svg>
