<svg width="50" height="50" viewBox="0 0 50 50" fill="none" xmlns="http://www.w3.org/2000/svg">
<path d="M43.4023 41.8952V43.4021H38.5412C38.5162 43.4995 38.4704 43.5903 38.4068 43.6683C38.3433 43.7462 38.2635 43.8094 38.1732 43.8535C38.0816 43.8952 37.9821 43.9166 37.8815 43.916C37.7487 43.9163 37.6186 43.8786 37.5065 43.8072C37.3945 43.7358 37.3053 43.6338 37.2496 43.5132L37.201 43.4021H14.2843L14.2357 43.5132C14.1799 43.6338 14.0907 43.7358 13.9787 43.8072C13.8667 43.8786 13.7366 43.9163 13.6037 43.916C13.5031 43.9166 13.4036 43.8952 13.3121 43.8535C13.2217 43.8094 13.142 43.7462 13.0784 43.6683C13.0149 43.5903 12.969 43.4995 12.944 43.4021H10.4162C7.24262 43.4021 6.59679 42.7632 6.59679 39.5827V11.298H8.09679V10.6035H5.90234V39.5827C5.90234 43.166 6.8329 44.0966 10.4162 44.0966H44.0968V41.8952H43.4023Z" fill="#63401E"/>
<path d="M15.1455 26.4863C16.2942 27.1174 17.3035 27.9743 18.1126 29.0054C18.9217 30.0365 19.514 31.2205 19.8538 32.4863H31.5344C31.8742 31.2205 32.4665 30.0365 33.2757 29.0054C34.0848 27.9743 35.094 27.1174 36.2427 26.4863V22.2224C36.2427 19.4248 35.1314 16.7417 33.1531 14.7634C31.1749 12.7852 28.4918 11.6738 25.6941 11.6738C22.8965 11.6738 20.2134 12.7852 18.2351 14.7634C16.2569 16.7417 15.1455 19.4248 15.1455 22.2224V26.4863ZM26.2011 19.3405L27.1872 18.3544C27.317 18.2236 27.4935 18.1498 27.6778 18.1491C27.8621 18.1485 28.039 18.2211 28.1698 18.3509C28.3006 18.4808 28.3744 18.6572 28.3751 18.8415C28.3757 19.0258 28.3031 19.2028 28.1733 19.3336L27.1872 20.3197C27.1226 20.3848 27.0458 20.4364 26.9612 20.4717C26.8766 20.5069 26.7858 20.5251 26.6941 20.5251C26.6024 20.5251 26.5117 20.5069 26.4271 20.4717C26.3424 20.4364 26.2656 20.3848 26.2011 20.3197C26.0717 20.1895 25.9991 20.0135 25.9991 19.8301C25.9991 19.6466 26.0717 19.4706 26.2011 19.3405ZM26.2011 21.3405C26.2656 21.2754 26.3424 21.2237 26.4271 21.1885C26.5117 21.1532 26.6024 21.1351 26.6941 21.1351C26.7858 21.1351 26.8766 21.1532 26.9612 21.1885C27.0458 21.2237 27.1226 21.2754 27.1872 21.3405L28.1733 22.3266C28.2712 22.4237 28.338 22.5478 28.3651 22.6831C28.3923 22.8183 28.3785 22.9586 28.3256 23.086C28.2727 23.2134 28.1831 23.3221 28.0682 23.3984C27.9532 23.4746 27.8182 23.5149 27.6802 23.5141C27.5884 23.5137 27.4975 23.4951 27.4128 23.4594C27.3282 23.4236 27.2515 23.3714 27.1872 23.3058L26.2011 22.3197C26.0717 22.1895 25.9991 22.0135 25.9991 21.8301C25.9991 21.6466 26.0717 21.4706 26.2011 21.3405ZM23.215 18.3544C23.2795 18.2893 23.3563 18.2376 23.4409 18.2024C23.5256 18.1671 23.6163 18.149 23.708 18.149C23.7997 18.149 23.8905 18.1671 23.9751 18.2024C24.0597 18.2376 24.1365 18.2893 24.2011 18.3544L25.1872 19.3405C25.3165 19.4706 25.3891 19.6466 25.3891 19.8301C25.3891 20.0135 25.3165 20.1895 25.1872 20.3197C25.1226 20.3848 25.0458 20.4364 24.9612 20.4717C24.8766 20.5069 24.7858 20.5251 24.6941 20.5251C24.6024 20.5251 24.5117 20.5069 24.4271 20.4717C24.3424 20.4364 24.2656 20.3848 24.2011 20.3197L23.215 19.3336C23.0856 19.2034 23.013 19.0274 23.013 18.844C23.013 18.6605 23.0856 18.4845 23.215 18.3544ZM23.215 22.3266L24.2011 21.3405C24.2656 21.2754 24.3424 21.2237 24.4271 21.1885C24.5117 21.1532 24.6024 21.1351 24.6941 21.1351C24.7858 21.1351 24.8766 21.1532 24.9612 21.1885C25.0458 21.2237 25.1226 21.2754 25.1872 21.3405C25.3165 21.4706 25.3891 21.6466 25.3891 21.8301C25.3891 22.0135 25.3165 22.1895 25.1872 22.3197L24.2011 23.3058C24.1367 23.3714 24.0601 23.4236 23.9754 23.4594C23.8908 23.4951 23.7999 23.5137 23.708 23.5141C23.5701 23.5149 23.435 23.4746 23.3201 23.3984C23.2051 23.3221 23.1155 23.2134 23.0626 23.086C23.0097 22.9586 22.996 22.8183 23.0231 22.6831C23.0502 22.5478 23.117 22.4237 23.215 22.3266Z" fill="#F8F3E3"/>
<path d="M39.4997 22.4512V22.7984H42.1038V22.1039H40.1733C40.1569 21.3845 40.0872 20.6673 39.965 19.9581L41.0622 19.7498L40.9302 19.0553L39.833 19.2637C39.6606 18.5238 39.4284 17.7992 39.1386 17.097L40.9719 16.347L40.708 15.7081L38.8886 16.472C38.6083 15.86 38.2858 15.2683 37.9233 14.7012L38.8886 14.0901L38.5136 13.5067L37.5691 14.1248C37.1298 13.5084 36.6421 12.9278 36.1108 12.3887L37.5413 10.9512L37.0552 10.4651L35.6108 11.9026C35.1234 11.4451 34.606 11.0205 34.0622 10.6317L34.7219 9.72201L34.1455 9.33312L33.5136 10.2637C32.9447 9.89996 32.3506 9.57738 31.7358 9.29839L32.5552 7.40951L31.9163 7.13173L31.0691 9.02756C30.4518 8.76702 29.8158 8.55345 29.1663 8.38867L29.4163 7.29839L28.7219 7.14562L28.4719 8.22895C27.6661 8.07261 26.8482 7.98664 26.0275 7.97201V5.88867H25.333V8.63173H25.6941C29.3569 8.63541 32.8683 10.093 35.457 12.6843C38.0456 15.2755 39.4997 18.7884 39.4997 22.4512Z" fill="#63401E"/>
<path d="M13.2499 43.8546C13.3414 43.8963 13.4409 43.9176 13.5415 43.9171C13.6743 43.9174 13.8045 43.8797 13.9165 43.8083C14.0285 43.7369 14.1177 43.6349 14.1735 43.5143L14.2221 43.4032L16.2012 39.1532C19.1011 40.7695 22.3747 41.5957 25.6943 41.549C29.0135 41.5921 32.2862 40.7662 35.1874 39.1532L37.1665 43.4032L37.2151 43.5143C37.2709 43.6349 37.3601 43.7369 37.4721 43.8083C37.5841 43.8797 37.7143 43.9174 37.8471 43.9171C37.9477 43.9176 38.0472 43.8963 38.1387 43.8546C38.2291 43.8105 38.3088 43.7473 38.3724 43.6694C38.4359 43.5914 38.4818 43.5006 38.5068 43.4032C38.562 43.2506 38.562 43.0836 38.5068 42.931L36.4235 38.4102C38.4733 36.9914 40.141 35.0885 41.2785 32.8703C42.4161 30.6521 42.9883 28.1874 42.9443 25.6949C42.9443 25.5107 42.8711 25.3341 42.7409 25.2038C42.6107 25.0736 42.434 25.0004 42.2499 25.0004C40.6721 24.9883 39.1059 25.2709 37.6318 25.8338V22.2227C37.6318 19.0566 36.3741 16.0203 34.1354 13.7816C31.8967 11.5429 28.8603 10.2852 25.6943 10.2852C22.5283 10.2852 19.4919 11.5429 17.2532 13.7816C15.0145 16.0203 13.7568 19.0566 13.7568 22.2227V25.8546C12.2841 25.2847 10.7179 24.995 9.13874 25.0004C8.95457 25.0004 8.77793 25.0736 8.6477 25.2038C8.51746 25.3341 8.4443 25.5107 8.4443 25.6949C8.40455 28.1929 8.98362 30.6619 10.1299 32.8817C11.2762 35.1016 12.954 37.0032 15.0137 38.4171L12.9304 42.9379C12.8753 43.0905 12.8753 43.2576 12.9304 43.4102C12.9508 43.502 12.9896 43.5888 13.0445 43.6652C13.0994 43.7416 13.1693 43.806 13.2499 43.8546ZM25.6943 11.6463C27.0814 11.6481 28.4545 11.9231 29.7353 12.4556C31.0161 12.9881 32.1795 13.7677 33.1591 14.7498C34.1386 15.7319 34.9151 16.8973 35.4442 18.1795C35.9733 19.4617 36.2447 20.8356 36.2429 22.2227V26.5143C35.0942 27.1454 34.085 28.0023 33.2758 29.0334C32.4667 30.0644 31.8744 31.2485 31.5346 32.5143H19.854C19.5142 31.2485 18.9219 30.0644 18.1128 29.0334C17.3036 28.0023 16.2944 27.1454 15.1457 26.5143V22.2227C15.1439 20.8356 15.4153 19.4617 15.9444 18.1795C16.4735 16.8973 17.25 15.7319 18.2296 14.7498C19.2091 13.7677 20.3725 12.9881 21.6533 12.4556C22.9341 11.9231 24.3072 11.6481 25.6943 11.6463ZM18.4096 32.4796H17.1318C16.9476 32.4796 16.771 32.5528 16.6408 32.683C16.5105 32.8132 16.4374 32.9899 16.4374 33.174C16.4374 33.3582 16.5105 33.5349 16.6408 33.6651C16.771 33.7953 16.9476 33.8685 17.1318 33.8685H34.2568C34.441 33.8685 34.6176 33.7953 34.7478 33.6651C34.8781 33.5349 34.9512 33.3582 34.9512 33.174C34.9512 32.9899 34.8781 32.8132 34.7478 32.683C34.6176 32.5528 34.441 32.4796 34.2568 32.4796H32.979C34.1249 28.9379 37.361 26.6254 41.5415 26.3893C41.1735 34.4102 34.5971 40.1532 25.6943 40.1532C16.7915 40.1532 10.2151 34.4171 9.84708 26.3893C14.0276 26.6324 17.2637 28.9449 18.4096 32.4865V32.4796Z" fill="#1D4C64"/>
<path d="M9.84766 26.3887C10.2157 34.4095 16.7921 40.1526 25.6949 40.1526C34.5977 40.1526 41.174 34.4164 41.5421 26.3887C37.3754 26.6248 34.1254 28.9373 32.9796 32.4789H34.2574C34.4416 32.4789 34.6182 32.5521 34.7484 32.6823C34.8787 32.8126 34.9518 32.9892 34.9518 33.1734C34.9518 33.3576 34.8787 33.5342 34.7484 33.6644C34.6182 33.7947 34.4416 33.8678 34.2574 33.8678H17.1324C16.9482 33.8678 16.7716 33.7947 16.6413 33.6644C16.5111 33.5342 16.4379 33.3576 16.4379 33.1734C16.4379 32.9892 16.5111 32.8126 16.6413 32.6823C16.7716 32.5521 16.9482 32.4789 17.1324 32.4789H18.4102C17.2643 28.9442 14.0282 26.6317 9.84766 26.3887Z" fill="#EEE2B9"/>
<path d="M26.694 20.5204C26.7854 20.5209 26.876 20.5034 26.9606 20.4688C27.0452 20.4342 27.1222 20.3833 27.1871 20.319L28.1732 19.3329C28.303 19.2021 28.3756 19.0251 28.375 18.8408C28.3743 18.6565 28.3005 18.4801 28.1697 18.3502C28.0389 18.2204 27.862 18.1478 27.6777 18.1484C27.4934 18.1491 27.3169 18.2229 27.1871 18.3537L26.201 19.3398C26.0716 19.4699 25.999 19.6459 25.999 19.8294C25.999 20.0128 26.0716 20.1889 26.201 20.319C26.2659 20.3833 26.3428 20.4342 26.4274 20.4688C26.512 20.5034 26.6026 20.5209 26.694 20.5204Z" fill="#63401E"/>
<path d="M23.7082 23.5138C23.8001 23.5134 23.891 23.4948 23.9757 23.459C24.0603 23.4233 24.137 23.3711 24.2013 23.3055L25.1874 22.3193C25.3168 22.1892 25.3894 22.0132 25.3894 21.8298C25.3894 21.6463 25.3168 21.4703 25.1874 21.3402C25.1229 21.2751 25.0461 21.2234 24.9614 21.1882C24.8768 21.1529 24.786 21.1348 24.6944 21.1348C24.6027 21.1348 24.5119 21.1529 24.4273 21.1882C24.3427 21.2234 24.2659 21.2751 24.2013 21.3402L23.2152 22.3263C23.1173 22.4234 23.0505 22.5475 23.0233 22.6828C22.9962 22.818 23.01 22.9583 23.0629 23.0857C23.1157 23.213 23.2054 23.3218 23.3203 23.3981C23.4353 23.4743 23.5703 23.5146 23.7082 23.5138Z" fill="#63401E"/>
<path d="M27.1871 23.3055C27.2514 23.3711 27.3281 23.4233 27.4127 23.459C27.4974 23.4948 27.5882 23.5134 27.6801 23.5138C27.8181 23.5146 27.9531 23.4743 28.0681 23.3981C28.183 23.3218 28.2726 23.213 28.3255 23.0857C28.3784 22.9583 28.3922 22.818 28.365 22.6828C28.3379 22.5475 28.2711 22.4234 28.1732 22.3263L27.1871 21.3402C27.1225 21.2751 27.0457 21.2234 26.9611 21.1882C26.8765 21.1529 26.7857 21.1348 26.694 21.1348C26.6023 21.1348 26.5116 21.1529 26.427 21.1882C26.3423 21.2234 26.2655 21.2751 26.201 21.3402C26.0716 21.4703 25.999 21.6463 25.999 21.8298C25.999 22.0132 26.0716 22.1892 26.201 22.3193L27.1871 23.3055Z" fill="#63401E"/>
<path d="M24.2016 20.319C24.2661 20.3841 24.3429 20.4357 24.4276 20.471C24.5122 20.5062 24.6029 20.5244 24.6946 20.5244C24.7863 20.5244 24.8771 20.5062 24.9617 20.471C25.0463 20.4357 25.1231 20.3841 25.1877 20.319C25.317 20.1889 25.3896 20.0128 25.3896 19.8294C25.3896 19.6459 25.317 19.4699 25.1877 19.3398L24.2016 18.3537C24.1373 18.2889 24.0609 18.2375 23.9767 18.2023C23.8925 18.1671 23.8022 18.1488 23.711 18.1484C23.6197 18.1481 23.5293 18.1658 23.4449 18.2004C23.3605 18.235 23.2837 18.2859 23.2189 18.3502C23.1542 18.4145 23.1027 18.4909 23.0675 18.5751C23.0323 18.6593 23.014 18.7496 23.0137 18.8408C23.0134 18.9321 23.031 19.0225 23.0656 19.1069C23.1002 19.1913 23.1512 19.2681 23.2155 19.3329L24.2016 20.319Z" fill="#63401E"/>
</svg>
