<svg width="51" height="50" viewBox="0 0 51 50" fill="none" xmlns="http://www.w3.org/2000/svg">
<path d="M32.8063 43.4023C32.0687 43.6312 31.3009 43.7483 30.5285 43.7496H20.8063C20.034 43.7483 19.2662 43.6312 18.5285 43.4023H7.26465V44.0968H44.0702V43.4023H32.8063Z" fill="#63401E"/>
<path d="M35.5348 20.8325C35.1737 22.7214 33.8473 24.0894 32.4723 24.0894C32.3416 24.0893 32.2112 24.0753 32.0834 24.0477C30.5765 23.7561 29.6807 21.8394 30.0834 19.77C30.3404 18.4436 31.8821 16.2977 32.8612 15.0061L32.4723 15.0547C31.0834 15.5755 29.2223 16.4436 28.3404 17.4852C27.8933 17.9835 27.5653 18.5769 27.3813 19.2205C27.1972 19.8642 27.1618 20.5412 27.2779 21.2005L27.3612 21.5339L26.6668 21.7075L26.5834 21.3741C26.4352 20.6081 26.4666 19.8182 26.675 19.0663C26.8835 18.3145 27.2634 17.6211 27.7848 17.0408C28.5045 16.2832 29.3625 15.6703 30.3126 15.2352C29.0209 15.3116 27.4793 15.3533 25.6251 15.3533C23.2058 15.3727 20.7874 15.2521 18.3821 14.9922L17.4793 14.8672C16.5871 15.428 15.8513 16.2054 15.3401 17.1269C14.829 18.0484 14.5591 19.0842 14.5557 20.138V36.1102C14.5557 37.7678 15.2141 39.3576 16.3862 40.5297C17.5583 41.7018 19.1481 42.3602 20.8057 42.3602H30.5279C32.1855 42.3602 33.7752 41.7018 34.9473 40.5297C36.1194 39.3576 36.7779 37.7678 36.7779 36.1102V20.138C36.7759 19.2849 36.5993 18.4412 36.2589 17.659C35.9185 16.8767 35.4216 16.1724 34.7987 15.5894C35.2362 17.1658 35.7848 19.5339 35.5348 20.8325ZM16.2432 22.8186C16.2432 22.7265 16.2797 22.6382 16.3449 22.5731C16.41 22.5079 16.4983 22.4714 16.5904 22.4714C16.6825 22.4714 16.7708 22.5079 16.8359 22.5731C16.901 22.6382 16.9376 22.7265 16.9376 22.8186V33.5269C16.9376 33.619 16.901 33.7073 16.8359 33.7724C16.7708 33.8375 16.6825 33.8741 16.5904 33.8741C16.4983 33.8741 16.41 33.8375 16.3449 33.7724C16.2797 33.7073 16.2432 33.619 16.2432 33.5269V22.8186ZM20.8057 40.6727C19.5962 40.6709 18.4368 40.1896 17.5815 39.3344C16.7263 38.4792 16.245 37.3197 16.2432 36.1102C16.2432 36.0182 16.2797 35.9298 16.3449 35.8647C16.41 35.7996 16.4983 35.763 16.5904 35.763C16.6825 35.763 16.7708 35.7996 16.8359 35.8647C16.901 35.9298 16.9376 36.0182 16.9376 36.1102C16.9394 37.1356 17.3476 38.1183 18.0726 38.8433C18.7976 39.5683 19.7804 39.9765 20.8057 39.9783C20.8978 39.9783 20.9861 40.0149 21.0512 40.08C21.1163 40.1451 21.1529 40.2334 21.1529 40.3255C21.1529 40.4176 21.1163 40.5059 21.0512 40.571C20.9861 40.6362 20.8978 40.6727 20.8057 40.6727ZM25.5348 36.7005C25.4964 36.77 25.44 36.8278 25.3716 36.8681C25.3033 36.9084 25.2253 36.9297 25.1459 36.9297H24.9029C24.8242 36.9304 24.7467 36.9102 24.6784 36.8711C24.6101 36.8321 24.5533 36.7756 24.514 36.7075L23.3543 34.7214H22.7154V36.4436C22.7154 36.5633 22.6678 36.6781 22.5832 36.7628C22.4985 36.8474 22.3837 36.895 22.264 36.895H22.0626C21.9429 36.895 21.8281 36.8474 21.7434 36.7628C21.6588 36.6781 21.6112 36.5633 21.6112 36.4436V31.5825C21.613 31.464 21.6614 31.3509 21.7459 31.2678C21.8303 31.1846 21.9441 31.138 22.0626 31.138H23.1737C23.7394 31.1005 24.302 31.2467 24.7779 31.5547C24.9768 31.7126 25.1345 31.9164 25.2373 32.1486C25.3401 32.3809 25.385 32.6346 25.3682 32.888C25.3769 33.2757 25.2546 33.6549 25.0209 33.9644C24.8723 34.1522 24.6853 34.3062 24.4723 34.4158L25.5348 36.1936C25.5847 36.2687 25.6113 36.3569 25.6113 36.447C25.6113 36.5372 25.5847 36.6254 25.5348 36.7005ZM29.7015 37.1311C29.5309 37.3417 29.3131 37.5093 29.0659 37.6202C28.8186 37.7312 28.5486 37.7825 28.2779 37.77C27.9787 37.7748 27.6822 37.7131 27.4098 37.5894V38.9227C27.4098 39.0425 27.3623 39.1573 27.2776 39.2419C27.193 39.3266 27.0782 39.3741 26.9584 39.3741H26.7709C26.6512 39.3741 26.5364 39.3266 26.4518 39.2419C26.3671 39.1573 26.3196 39.0425 26.3196 38.9227V33.6936C26.3214 33.5751 26.3697 33.462 26.4542 33.3789C26.5386 33.2957 26.6524 33.2491 26.7709 33.2491H26.9168C26.9861 33.2493 27.0545 33.265 27.117 33.2951C27.1795 33.3251 27.2344 33.3687 27.2779 33.4227C27.5846 33.2494 27.9327 33.163 28.2848 33.1727C28.5571 33.1588 28.8289 33.2087 29.0784 33.3184C29.328 33.4282 29.5485 33.5947 29.7223 33.8047C30.0688 34.2913 30.2379 34.882 30.2015 35.4783C30.2426 36.0675 30.0755 36.6525 29.7293 37.1311H29.7015Z" fill="#FAF6EA"/>
<path d="M28.3129 34.2366C28.1879 34.2191 28.0605 34.23 27.9403 34.2685C27.8201 34.307 27.7101 34.372 27.6184 34.4589C27.4492 34.733 27.3737 35.0547 27.4031 35.3755V35.4866C27.3657 35.8358 27.4385 36.1879 27.6115 36.4936C27.6958 36.5787 27.7984 36.6435 27.9115 36.6832C28.0246 36.7229 28.1452 36.7364 28.2643 36.7227C28.3761 36.728 28.4876 36.7061 28.5892 36.6589C28.6907 36.6118 28.7794 36.5407 28.8476 36.4519C29.0442 36.1716 29.1463 35.8359 29.1393 35.4936C29.1393 34.2366 28.5976 34.2366 28.3129 34.2366Z" fill="#FAF6EA"/>
<path d="M30.7638 19.8681C30.4374 21.5625 31.0902 23.1181 32.2152 23.3403C33.3402 23.5625 34.5277 22.3611 34.8541 20.6736C35.1249 19.2847 34.2638 16.2014 33.868 14.875C32.986 15.9722 31.0346 18.4861 30.7638 19.8681Z" fill="#FAF6EA"/>
<path d="M23.1603 32.2577H22.7158V33.7021H23.2853C23.5478 33.7236 23.8099 33.655 24.0283 33.5077C24.1577 33.3596 24.2291 33.1696 24.2291 32.9729C24.2291 32.7763 24.1577 32.5863 24.0283 32.4382C23.7646 32.2898 23.4613 32.2268 23.1603 32.2577Z" fill="#FAF6EA"/>
<path d="M30.5281 43.7491C31.3004 43.7478 32.0682 43.6308 32.8059 43.4019C34.3599 42.9164 35.7181 41.9472 36.6825 40.6355C37.6469 39.3238 38.1671 37.7383 38.167 36.1102V22.02C37.9889 21.965 37.8149 21.8977 37.6462 21.8186L37.3337 21.6658L37.6323 21.0408L37.9448 21.1936L38.167 21.2839V20.138C38.1635 18.4749 37.6173 16.8583 36.6114 15.5339C35.8128 15.1866 35.0559 14.888 34.5281 14.6936C34.6045 14.9436 34.6948 15.2422 34.785 15.5894C35.4104 16.1712 35.9099 16.8749 36.2527 17.6573C36.5955 18.4396 36.7743 19.2839 36.7781 20.138V36.1102C36.7781 37.7678 36.1196 39.3576 34.9475 40.5297C33.7754 41.7018 32.1857 42.3602 30.5281 42.3602H20.8059C19.1483 42.3602 17.5586 41.7018 16.3865 40.5297C15.2144 39.3576 14.5559 37.7678 14.5559 36.1102V20.138C14.5579 19.0744 14.8313 18.0289 15.3502 17.1005C15.8691 16.1721 16.6163 15.3914 17.5212 14.8325L18.4239 14.9575C20.8293 15.2174 23.2477 15.338 25.667 15.3186C27.5212 15.3186 29.0628 15.2769 30.3545 15.2005C31.4416 14.6599 32.5702 14.207 33.7295 13.8464L33.785 13.6866L33.8892 13.7283L34.1392 13.4366L34.2295 13.7005L34.2781 13.8602C34.5212 13.9505 35.0142 14.1241 35.6184 14.3672C36.7781 13.9227 36.7781 13.4436 36.7781 13.1936V9.72135C36.7781 8.61629 36.3391 7.55648 35.5577 6.77508C34.7763 5.99367 33.7165 5.55469 32.6114 5.55469H18.7225C17.6175 5.55469 16.5577 5.99367 15.7763 6.77508C14.9949 7.55648 14.5559 8.61629 14.5559 9.72135V13.1936C14.5559 13.7283 14.917 14.1172 15.7573 14.4227C14.9455 15.1377 14.2947 16.0169 13.8482 17.0021C13.4017 17.9874 13.1695 19.0563 13.167 20.138V36.1102C13.1669 37.7383 13.687 39.3238 14.6514 40.6355C15.6158 41.9472 16.9741 42.9164 18.5281 43.4019C19.2657 43.6308 20.0335 43.7478 20.8059 43.7491H30.5281ZM15.9448 13.0061V9.72135C15.9448 8.98464 16.2374 8.2781 16.7584 7.75717C17.2793 7.23623 17.9858 6.94358 18.7225 6.94358H32.6114C33.3481 6.94358 34.0547 7.23623 34.5756 7.75717C35.0966 8.2781 35.3892 8.98464 35.3892 9.72135V10.2283C34.0003 11.1102 23.7087 11.5616 18.0281 10.7214C17.8439 10.6946 17.6567 10.7422 17.5076 10.8535C17.3584 10.9649 17.2597 11.1309 17.233 11.3151C17.2063 11.4993 17.2538 11.6865 17.3652 11.8356C17.4765 11.9848 17.6425 12.0835 17.8267 12.1102C20.5134 12.433 23.2181 12.5814 25.9239 12.5547C29.6878 12.5547 33.5212 12.3116 35.4239 11.7075V13.02C33.4795 14.263 17.8545 14.263 15.9448 13.0061Z" fill="#1D4C64"/>
<path d="M20.8057 39.9789C19.7804 39.9771 18.7976 39.569 18.0726 38.844C17.3476 38.119 16.9394 37.1362 16.9376 36.1109C16.9376 36.0188 16.901 35.9305 16.8359 35.8654C16.7708 35.8003 16.6825 35.7637 16.5904 35.7637C16.4983 35.7637 16.41 35.8003 16.3449 35.8654C16.2797 35.9305 16.2432 36.0188 16.2432 36.1109C16.245 37.3204 16.7263 38.4798 17.5815 39.335C18.4368 40.1903 19.5962 40.6716 20.8057 40.6734C20.8978 40.6734 20.9861 40.6368 21.0512 40.5717C21.1163 40.5066 21.1529 40.4183 21.1529 40.3262C21.1529 40.2341 21.1163 40.1458 21.0512 40.0806C20.9861 40.0155 20.8978 39.9789 20.8057 39.9789Z" fill="#1D4C64"/>
<path d="M35.3888 13.0078V11.6953C33.486 12.2995 29.6527 12.5425 25.8888 12.5425C23.1829 12.5693 20.4782 12.4208 17.7916 12.0981C17.7004 12.0849 17.6127 12.0538 17.5335 12.0067C17.4543 11.9596 17.3851 11.8973 17.33 11.8235C17.2749 11.7497 17.2348 11.6657 17.2121 11.5764C17.1895 11.4871 17.1846 11.3941 17.1978 11.303C17.211 11.2118 17.2421 11.1241 17.2892 11.0449C17.3363 10.9657 17.3986 10.8965 17.4724 10.8414C17.5462 10.7863 17.6302 10.7462 17.7195 10.7235C17.8088 10.7008 17.9018 10.696 17.9929 10.7092C23.7082 11.5634 33.9999 11.112 35.3888 10.23V9.72309C35.3888 8.98638 35.0961 8.27984 34.5752 7.7589C34.0543 7.23797 33.3477 6.94531 32.611 6.94531H18.7221C17.9854 6.94531 17.2789 7.23797 16.7579 7.7589C16.237 8.27984 15.9443 8.98638 15.9443 9.72309V13.0078C17.8541 14.2648 33.4791 14.2648 35.3888 13.0078Z" fill="#EEE2B9"/>
<path d="M32.9862 14.834L32.4932 15.0215L32.8821 14.9729L32.9862 14.834Z" fill="#1D4C64"/>
<path d="M34.2847 13.8885L34.2361 13.7287L34.1458 13.4648L33.8958 13.7565L33.7917 13.7148L33.7361 13.8746C32.5768 14.2352 31.4482 14.6881 30.3611 15.2287C29.411 15.6638 28.553 16.2766 27.8333 17.0343C27.3119 17.6146 26.932 18.308 26.7236 19.0598C26.5151 19.8117 26.4838 20.6016 26.632 21.3676L26.7153 21.701L27.4097 21.5273L27.3264 21.194C27.2104 20.5347 27.2457 19.8576 27.4298 19.214C27.6138 18.5704 27.9418 17.977 28.3889 17.4787C29.2708 16.4301 31.1667 15.569 32.5208 15.0482L33.0139 14.8607L32.9097 14.9996C31.9097 16.2843 30.3681 18.4718 30.132 19.7635C29.7292 21.8468 30.625 23.7496 32.132 24.0412C32.2598 24.0688 32.3901 24.0828 32.5208 24.0829C33.9097 24.0829 35.2222 22.694 35.5833 20.826C35.8333 19.5621 35.2847 17.194 34.8472 15.6176C34.757 15.2704 34.6667 14.9718 34.5903 14.7218C35.1042 14.9162 35.8611 15.2148 36.6736 15.5621C37.8096 16.0029 38.8618 16.6346 39.7847 17.4301C40.3234 18.0085 40.6786 18.7334 40.8056 19.5135C40.8516 19.8059 40.825 20.1052 40.7281 20.3849C40.6312 20.6646 40.467 20.9163 40.25 21.1176C39.9512 21.3334 39.599 21.463 39.2317 21.4924C38.8643 21.5218 38.4959 21.4498 38.1667 21.2843L37.9445 21.194L37.632 21.0412L37.3333 21.6662L37.6458 21.819C37.8146 21.8982 37.9886 21.9654 38.1667 22.0204C38.4901 22.1246 38.827 22.1807 39.1667 22.1871C39.7327 22.2006 40.284 22.0053 40.7153 21.6385C41.0025 21.355 41.2159 21.0055 41.337 20.6206C41.458 20.2357 41.483 19.8269 41.4097 19.4301C41.2827 18.5014 40.8786 17.6325 40.25 16.9371C39.3958 15.9787 37.1597 14.9718 35.6389 14.3676C35.0208 14.1246 34.5278 13.951 34.2847 13.8885ZM34.8542 20.694C34.5278 22.3815 33.3403 23.5829 32.2153 23.3607C31.0903 23.1385 30.4375 21.5898 30.7639 19.8885C31.0347 18.4996 32.9861 15.9579 33.8542 14.8815C34.2639 16.194 35.125 19.2843 34.8542 20.6662V20.694Z" fill="#63401E"/>
<path d="M24.4724 34.473C24.6854 34.3633 24.8724 34.2094 25.0211 34.0216C25.2547 33.7121 25.377 33.3329 25.3683 32.9452C25.3851 32.6918 25.3402 32.4381 25.2374 32.2058C25.1346 31.9736 24.9769 31.7698 24.778 31.6119C24.3021 31.3039 23.7395 31.1577 23.1738 31.1952H22.0627C21.9442 31.1952 21.8304 31.2418 21.746 31.325C21.6615 31.4081 21.6132 31.5212 21.6113 31.6397V36.5008C21.6113 36.6205 21.6589 36.7353 21.7435 36.82C21.8282 36.9046 21.943 36.9522 22.0627 36.9522H22.2641C22.3838 36.9522 22.4986 36.9046 22.5833 36.82C22.6679 36.7353 22.7155 36.6205 22.7155 36.5008V34.7577H23.3544L24.5141 36.7161C24.5535 36.7842 24.6102 36.8407 24.6785 36.8797C24.7468 36.9188 24.8243 36.939 24.903 36.9383H25.1461C25.2254 36.9383 25.3034 36.917 25.3718 36.8767C25.4401 36.8364 25.4965 36.7786 25.5349 36.7091C25.5739 36.6403 25.5944 36.5625 25.5944 36.4834C25.5944 36.4043 25.5739 36.3266 25.5349 36.2577L24.4724 34.473ZM24.2363 32.973C24.2468 33.0723 24.2334 33.1726 24.1972 33.2657C24.1609 33.3587 24.1029 33.4417 24.028 33.5077C23.8096 33.6551 23.5475 33.7236 23.2849 33.7022H22.7155V32.2577H23.1599C23.4656 32.2239 23.7741 32.287 24.0419 32.4383C24.1143 32.5057 24.1697 32.5893 24.2035 32.6822C24.2373 32.7752 24.2485 32.8748 24.2363 32.973Z" fill="#63401E"/>
<path d="M28.3129 33.1739C27.9608 33.1641 27.6127 33.2506 27.306 33.4239C27.2625 33.3699 27.2076 33.3263 27.1451 33.2962C27.0826 33.2662 27.0142 33.2505 26.9449 33.2503H26.799C26.6805 33.2503 26.5668 33.2969 26.4823 33.38C26.3978 33.4632 26.3495 33.5762 26.3477 33.6947V38.9308C26.3477 39.0505 26.3952 39.1654 26.4799 39.25C26.5645 39.3347 26.6793 39.3822 26.799 39.3822H26.9865C27.1063 39.3822 27.2211 39.3347 27.3057 39.25C27.3904 39.1654 27.4379 39.0505 27.4379 38.9308V37.5975C27.7104 37.7212 28.0068 37.7829 28.306 37.7781C28.5768 37.7906 28.8467 37.7393 29.094 37.6283C29.3413 37.5173 29.559 37.3498 29.7296 37.1392C30.0856 36.6643 30.2627 36.079 30.2296 35.4864C30.266 34.8901 30.0969 34.2994 29.7504 33.8128C29.5773 33.6015 29.3571 33.4336 29.1075 33.3227C28.8579 33.2118 28.5858 33.1608 28.3129 33.1739ZM29.1393 35.4933C29.1628 35.8296 29.0802 36.1648 28.9032 36.4517C28.835 36.5405 28.7464 36.6115 28.6448 36.6587C28.5432 36.7058 28.4317 36.7277 28.3199 36.7225C28.2008 36.7362 28.0802 36.7227 27.9671 36.683C27.8541 36.6433 27.7515 36.5784 27.6671 36.4933C27.4942 36.1877 27.4213 35.8356 27.4588 35.4864V35.3753C27.4293 35.0545 27.5048 34.7327 27.674 34.4586C27.7657 34.3718 27.8757 34.3067 27.9959 34.2682C28.1161 34.2298 28.2435 34.2189 28.3685 34.2364C28.5977 34.2364 29.1393 34.2364 29.1393 35.4933Z" fill="#63401E"/>
<path d="M16.5904 33.8754C16.6825 33.8754 16.7708 33.8389 16.8359 33.7737C16.901 33.7086 16.9376 33.6203 16.9376 33.5282V22.8199C16.9376 22.7278 16.901 22.6395 16.8359 22.5744C16.7708 22.5092 16.6825 22.4727 16.5904 22.4727C16.4983 22.4727 16.41 22.5092 16.3449 22.5744C16.2797 22.6395 16.2432 22.7278 16.2432 22.8199V33.5282C16.2432 33.6203 16.2797 33.7086 16.3449 33.7737C16.41 33.8389 16.4983 33.8754 16.5904 33.8754Z" fill="#1D4C64"/>
</svg>
