<svg width="51" height="50" viewBox="0 0 51 50" fill="none" xmlns="http://www.w3.org/2000/svg">
<path d="M33.6668 43.4023C32.7577 43.6269 31.8254 43.7434 30.889 43.7496H19.7779C18.8415 43.7434 17.9092 43.6269 17.0001 43.4023H6.93066V44.0968H43.7362V43.4023H33.6668Z" fill="#63401E"/>
<path d="M19.777 42.3602H30.8881C33.6508 42.3602 36.3003 41.2628 38.2538 39.3093C40.2073 37.3558 41.3048 34.7062 41.3048 31.9436V22.2214C41.3048 19.4587 40.2073 16.8092 38.2538 14.8557C36.3003 12.9022 33.6508 11.8047 30.8881 11.8047H19.777C17.0143 11.8047 14.3648 12.9022 12.4113 14.8557C10.4578 16.8092 9.36035 19.4587 9.36035 22.2214V31.9436C9.36035 34.7062 10.4578 37.3558 12.4113 39.3093C14.3648 41.2628 17.0143 42.3602 19.777 42.3602ZM10.8812 22.0061C10.8849 19.705 11.8006 17.4992 13.4277 15.8721C15.0548 14.2449 17.2606 13.3292 19.5617 13.3255H31.1034C33.4045 13.3292 35.6103 14.2449 37.2374 15.8721C38.8646 17.4992 39.7803 19.705 39.784 22.0061V32.1589C39.7803 34.46 38.8646 36.6658 37.2374 38.2929C35.6103 39.92 33.4045 40.8357 31.1034 40.8394H19.5617C17.2606 40.8357 15.0548 39.92 13.4277 38.2929C11.8006 36.6658 10.8849 34.46 10.8812 32.1589V22.0061Z" fill="#EEE2B9"/>
<path d="M30.8883 43.7493C34.0149 43.7347 37.0092 42.4863 39.22 40.2754C41.4308 38.0646 42.6793 35.0703 42.6939 31.9438V22.2216C42.6939 19.0905 41.4501 16.0878 39.2361 13.8738C37.0222 11.6598 34.0194 10.416 30.8883 10.416H19.7772C16.6462 10.416 13.6434 11.6598 11.4294 13.8738C9.21548 16.0878 7.97168 19.0905 7.97168 22.2216V31.9438C7.98629 35.0703 9.23478 38.0646 11.4456 40.2754C13.6564 42.4863 16.6507 43.7347 19.7772 43.7493H30.8883ZM9.36057 22.2216C9.36057 19.4589 10.458 16.8094 12.4115 14.8559C14.365 12.9024 17.0146 11.8049 19.7772 11.8049H30.8883C33.651 11.8049 36.3005 12.9024 38.254 14.8559C40.2075 16.8094 41.305 19.4589 41.305 22.2216V31.9438C41.305 34.7065 40.2075 37.356 38.254 39.3095C36.3005 41.263 33.651 42.3605 30.8883 42.3605H19.7772C17.0146 42.3605 14.365 41.263 12.4115 39.3095C10.458 37.356 9.36057 34.7065 9.36057 31.9438V22.2216Z" fill="#1D4C64"/>
<path d="M19.5623 40.1465H31.104C33.2214 40.1446 35.2517 39.3027 36.749 37.8054C38.2462 36.3081 39.0882 34.2779 39.0901 32.1604V22.0076C39.0882 19.8901 38.2462 17.8599 36.749 16.3626C35.2517 14.8653 33.2214 14.0233 31.104 14.0215H19.5623C17.4448 14.0233 15.4146 14.8653 13.9173 16.3626C12.42 17.8599 11.578 19.8901 11.5762 22.0076V32.1604C11.578 34.2779 12.42 36.3081 13.9173 37.8054C15.4146 39.3027 17.4448 40.1446 19.5623 40.1465ZM14.847 33.834L14.4998 33.2298L15.4581 32.6743L15.8053 33.2784L14.847 33.834ZM19.1873 37.9173L18.5831 37.5701L19.1387 36.6118L19.7428 36.959L19.1873 37.9173ZM26.0276 38.4659C26.0276 38.6501 25.9544 38.8267 25.8242 38.957C25.6939 39.0872 25.5173 39.1604 25.3331 39.1604C25.1489 39.1604 24.9723 39.0872 24.8421 38.957C24.7118 38.8267 24.6387 38.6501 24.6387 38.4659V37.077C24.6387 36.8929 24.7118 36.7162 24.8421 36.586C24.9723 36.4558 25.1489 36.3826 25.3331 36.3826C25.5173 36.3826 25.6939 36.4558 25.8242 36.586C25.9544 36.7162 26.0276 36.8929 26.0276 37.077V38.4659ZM31.4789 37.9173L30.9234 36.959L31.5276 36.6118L32.0831 37.5701L31.4789 37.9173ZM35.8192 33.834L34.8609 33.2784L35.2081 32.6743L36.1664 33.2298L35.8192 33.834ZM35.8192 20.334L36.1664 20.9381L35.2081 21.4937L34.8609 20.8895L35.8192 20.334ZM35.3401 26.3895H36.729C36.9131 26.3895 37.0898 26.4627 37.22 26.5929C37.3502 26.7232 37.4234 26.8998 37.4234 27.084C37.4234 27.2682 37.3502 27.4448 37.22 27.575C37.0898 27.7053 36.9131 27.7784 36.729 27.7784H35.3401C35.1559 27.7784 34.9792 27.7053 34.849 27.575C34.7188 27.4448 34.6456 27.2682 34.6456 27.084C34.6456 26.8998 34.7188 26.7232 34.849 26.5929C34.9792 26.4627 35.1559 26.3895 35.3401 26.3895ZM31.4789 16.2507L32.0831 16.5979L31.5276 17.5562L30.9234 17.209L31.4789 16.2507ZM30.6942 19.9451L31.8123 20.7715L28.8053 24.7993L27.6942 23.9659L30.6942 19.9451ZM24.6387 15.702C24.6387 15.5179 24.7118 15.3412 24.8421 15.211C24.9723 15.0808 25.1489 15.0076 25.3331 15.0076C25.5173 15.0076 25.6939 15.0808 25.8242 15.211C25.9544 15.3412 26.0276 15.5179 26.0276 15.702V17.0909C26.0276 17.2751 25.9544 17.4517 25.8242 17.582C25.6939 17.7122 25.5173 17.7854 25.3331 17.7854C25.1489 17.7854 24.9723 17.7122 24.8421 17.582C24.7118 17.4517 24.6387 17.2751 24.6387 17.0909V15.702ZM23.4928 24.8201C23.4928 24.5999 23.553 24.3839 23.6668 24.1954C23.7806 24.0069 23.9438 23.8532 24.1387 23.7507C24.3364 23.6525 24.557 23.6097 24.7771 23.6268C24.9972 23.6439 25.2085 23.7203 25.3887 23.8479L28.5484 26.1118C28.7032 26.2223 28.8294 26.3681 28.9165 26.5372C29.0035 26.7063 29.049 26.8938 29.049 27.084C29.049 27.2742 29.0035 27.4616 28.9165 27.6307C28.8294 27.7998 28.7032 27.9457 28.5484 28.0562L25.3887 30.327C25.1854 30.4704 24.943 30.548 24.6942 30.5493C24.5038 30.5467 24.3164 30.5016 24.1456 30.4173C23.9507 30.3148 23.7876 30.161 23.6738 29.9725C23.5599 29.7841 23.4998 29.5681 23.4998 29.3479L23.4928 24.8201ZM19.1873 16.2507L19.7428 17.209L19.1387 17.5562L18.5831 16.5979L19.1873 16.2507ZM17.2498 26.7368H22.4164V27.4312H17.2498V26.7368ZM14.847 20.334L15.8053 20.8895L15.4581 21.4937L14.4998 20.9381L14.847 20.334ZM13.2567 27.084C13.2567 26.8998 13.3299 26.7232 13.4601 26.5929C13.5904 26.4627 13.767 26.3895 13.9512 26.3895H15.3401C15.5242 26.3895 15.7009 26.4627 15.8311 26.5929C15.9613 26.7232 16.0345 26.8998 16.0345 27.084C16.0345 27.2682 15.9613 27.4448 15.8311 27.575C15.7009 27.7053 15.5242 27.7784 15.3401 27.7784H13.9512C13.767 27.7784 13.5904 27.7053 13.4601 27.575C13.3299 27.4448 13.2567 27.2682 13.2567 27.084Z" fill="#F8F3E3"/>
<path d="M19.5624 40.8401H31.1041C33.4052 40.8364 35.611 39.9207 37.2381 38.2935C38.8652 36.6664 39.7809 34.4606 39.7846 32.1595V22.0067C39.7809 19.7056 38.8652 17.4998 37.2381 15.8727C35.611 14.2456 33.4052 13.3298 31.1041 13.3262H19.5624C17.2613 13.3298 15.0555 14.2456 13.4284 15.8727C11.8012 17.4998 10.8855 19.7056 10.8818 22.0067V32.1595C10.8855 34.4606 11.8012 36.6664 13.4284 38.2935C15.0555 39.9207 17.2613 40.8364 19.5624 40.8401ZM11.5763 22.0067C11.5781 19.8892 12.4201 17.859 13.9174 16.3617C15.4147 14.8644 17.4449 14.0225 19.5624 14.0206H31.1041C33.2215 14.0225 35.2518 14.8644 36.7491 16.3617C38.2464 17.859 39.0883 19.8892 39.0902 22.0067V32.1595C39.0883 34.277 38.2464 36.3072 36.7491 37.8045C35.2518 39.3018 33.2215 40.1438 31.1041 40.1456H19.5624C17.4449 40.1438 15.4147 39.3018 13.9174 37.8045C12.4201 36.3072 11.5781 34.277 11.5763 32.1595V22.0067Z" fill="#1D4C64"/>
<path d="M24.8818 25.1875V28.9792L27.5207 27.0833L24.8818 25.1875Z" fill="#EEE2B9"/>
<path d="M24.1381 30.4173C24.3089 30.5016 24.4963 30.5467 24.6867 30.5492C24.9355 30.548 25.1779 30.4704 25.3812 30.327L28.5409 28.0562C28.6957 27.9457 28.8219 27.7998 28.909 27.6307C28.996 27.4616 29.0415 27.2741 29.0415 27.0839C29.0415 26.8937 28.996 26.7063 28.909 26.5372C28.8219 26.3681 28.6957 26.2222 28.5409 26.1117L25.3812 23.8478C25.201 23.7203 24.9897 23.6438 24.7696 23.6267C24.5495 23.6096 24.3289 23.6524 24.1312 23.7506C23.9363 23.8531 23.7732 24.0069 23.6593 24.1954C23.5455 24.3839 23.4853 24.5999 23.4854 24.8201V29.3478C23.486 29.5687 23.5472 29.7852 23.6623 29.9738C23.7774 30.1623 23.942 30.3157 24.1381 30.4173ZM24.8812 25.1881L27.5201 27.0839L24.8812 28.9798V25.1881Z" fill="#1D4C64"/>
<path d="M25.3331 17.77C25.5173 17.77 25.6939 17.6968 25.8242 17.5666C25.9544 17.4363 26.0276 17.2597 26.0276 17.0755V15.6866C26.0276 15.5025 25.9544 15.3258 25.8242 15.1956C25.6939 15.0654 25.5173 14.9922 25.3331 14.9922C25.1489 14.9922 24.9723 15.0654 24.8421 15.1956C24.7118 15.3258 24.6387 15.5025 24.6387 15.6866V17.0755C24.6387 17.2597 24.7118 17.4363 24.8421 17.5666C24.9723 17.6968 25.1489 17.77 25.3331 17.77Z" fill="#63401E"/>
<path d="M25.3331 36.3965C25.1489 36.3965 24.9723 36.4696 24.8421 36.5999C24.7118 36.7301 24.6387 36.9068 24.6387 37.0909V38.4798C24.6387 38.664 24.7118 38.8406 24.8421 38.9709C24.9723 39.1011 25.1489 39.1743 25.3331 39.1743C25.5173 39.1743 25.6939 39.1011 25.8242 38.9709C25.9544 38.8406 26.0276 38.664 26.0276 38.4798V37.0909C26.0276 36.9068 25.9544 36.7301 25.8242 36.5999C25.6939 36.4696 25.5173 36.3965 25.3331 36.3965Z" fill="#63401E"/>
<path d="M35.34 27.7776H36.7288C36.913 27.7776 37.0897 27.7044 37.2199 27.5742C37.3501 27.4439 37.4233 27.2673 37.4233 27.0831C37.4233 26.8989 37.3501 26.7223 37.2199 26.5921C37.0897 26.4618 36.913 26.3887 36.7288 26.3887H35.34C35.1558 26.3887 34.9791 26.4618 34.8489 26.5921C34.7187 26.7223 34.6455 26.8989 34.6455 27.0831C34.6455 27.2673 34.7187 27.4439 34.8489 27.5742C34.9791 27.7044 35.1558 27.7776 35.34 27.7776Z" fill="#63401E"/>
<path d="M15.3265 27.7776C15.5107 27.7776 15.6873 27.7044 15.8175 27.5742C15.9478 27.4439 16.0209 27.2673 16.0209 27.0831C16.0209 26.8989 15.9478 26.7223 15.8175 26.5921C15.6873 26.4618 15.5107 26.3887 15.3265 26.3887H13.9376C13.7534 26.3887 13.5768 26.4618 13.4466 26.5921C13.3163 26.7223 13.2432 26.8989 13.2432 27.0831C13.2432 27.2673 13.3163 27.4439 13.4466 27.5742C13.5768 27.7044 13.7534 27.7776 13.9376 27.7776H15.3265Z" fill="#63401E"/>
<path d="M15.457 32.6781L14.501 33.2305L14.8484 33.8318L15.8045 33.2793L15.457 32.6781Z" fill="#1D4C64"/>
<path d="M35.8167 20.3446L34.8604 20.8965L35.2075 21.498L36.1638 20.946L35.8167 20.3446Z" fill="#1D4C64"/>
<path d="M19.1903 16.2543L18.5889 16.6016L19.141 17.5578L19.7424 17.2106L19.1903 16.2543Z" fill="#1D4C64"/>
<path d="M31.5312 36.608L30.9297 36.9551L31.4816 37.9114L32.0831 37.5643L31.5312 36.608Z" fill="#1D4C64"/>
<path d="M19.1403 36.6104L18.5879 37.5664L19.1892 37.9138L19.7416 36.9578L19.1403 36.6104Z" fill="#1D4C64"/>
<path d="M31.4762 16.2529L30.9238 17.209L31.5251 17.5564L32.0775 16.6004L31.4762 16.2529Z" fill="#1D4C64"/>
<path d="M14.8481 20.3399L14.501 20.9414L15.4573 21.4933L15.8044 20.8919L14.8481 20.3399Z" fill="#1D4C64"/>
<path d="M35.2065 32.6798L34.8594 33.2812L35.8157 33.8332L36.1628 33.2317L35.2065 32.6798Z" fill="#1D4C64"/>
<path d="M22.4236 26.7363H17.25V27.4308H22.4236V26.7363Z" fill="#63401E"/>
<path d="M30.6973 19.937L27.6855 23.9629L28.7977 24.7949L31.8094 20.769L30.6973 19.937Z" fill="#63401E"/>
<path d="M22.5138 6.94358H24.986V5.90191H25.6804V6.94358H28.1527C28.3368 6.94358 28.5135 6.87041 28.6437 6.74018C28.7739 6.60994 28.8471 6.43331 28.8471 6.24913C28.8471 6.06495 28.7739 5.88832 28.6437 5.75809C28.5135 5.62785 28.3368 5.55469 28.1527 5.55469H22.5138C22.3296 5.55469 22.153 5.62785 22.0227 5.75809C21.8925 5.88832 21.8193 6.06495 21.8193 6.24913C21.8193 6.43331 21.8925 6.60994 22.0227 6.74018C22.153 6.87041 22.3296 6.94358 22.5138 6.94358Z" fill="#63401E"/>
<path d="M24.9854 5.90234V6.94401V8.91623H25.6798V6.94401V5.90234H24.9854Z" fill="#63401E"/>
</svg>
