<svg viewBox="0 0 150 113" fill="none" xmlns="http://www.w3.org/2000/svg" class="aspect-[15/11] mb-5 w-[150px]">
    <path d="M90.7257 107.386H16.9354C10.258 107.386 4.83862 101.967 4.83862 95.2895V63.8379C4.83862 47.7976 17.8306 34.8057 33.8709 34.8057H107.661C114.339 34.8057 119.758 40.225 119.758 46.9024V78.354C119.758 94.3944 106.766 107.386 90.7257 107.386Z" fill="#F5E8DC"></path>
    <path d="M115.186 95.7002C111.048 92.9664 106.984 90.1115 102.919 87.2325C98.5646 84.1357 94.2098 81.0389 89.8307 77.9422C89.8065 77.918 89.7582 77.8938 89.734 77.8696C88.7662 77.1922 88.5001 77.0228 87.5565 78.3051C87.3872 78.547 87.1694 78.7647 86.9517 78.9583C82.7904 82.3696 78.4114 85.4906 73.7178 88.0793C71.7824 89.1438 69.7501 89.9664 67.5969 90.5228C65.7582 91.0067 63.5082 90.1115 62.7824 88.0309C62.1533 86.2647 62.1049 84.4986 62.2259 82.6841C62.5162 78.0389 63.9195 73.6599 65.4195 69.3051C66.1695 67.1518 66.9678 64.9986 67.7904 62.8696C67.9356 62.5067 67.7904 62.3857 67.5485 62.1922C63.6291 59.2647 59.7098 56.3373 55.7904 53.4341C53.2743 51.547 50.8307 49.5631 48.6775 47.2647C47.4436 45.9583 46.5727 44.4825 47.0566 42.547C47.2985 41.5793 47.8307 40.8293 48.5807 40.2244C50.0566 39.0147 51.8227 38.5551 53.613 38.1438C56.1049 37.5873 58.6453 37.4664 61.1614 37.297C63.363 37.1518 65.5646 36.9341 67.7904 36.7647C70.8872 36.547 73.984 36.3777 77.0807 36.2083C77.8307 36.1599 78.5565 36.1115 79.3065 36.0873C79.6694 36.0631 79.863 35.8454 79.984 35.5793C80.4195 34.6841 80.8065 33.7647 81.2178 32.8454C82.3307 30.4744 83.4436 28.0793 84.5807 25.7325C86.8791 20.9664 89.1533 16.176 91.3549 11.3615C91.8872 10.2002 92.4678 9.03894 93.1211 7.95023C94.1372 6.28087 95.3227 5.797 97.1614 6.45023C99.0243 7.10345 100.452 8.36152 101.637 9.90991C102.484 10.9986 103.258 12.1841 103.911 13.3938C104.71 14.8696 105.557 16.3212 106.234 17.8696C106.742 19.0309 107.516 20.047 107.952 21.2567C108.436 22.5631 108.919 23.8454 109.379 25.1518C109.597 25.8051 109.984 26.3615 110.226 27.0147C110.516 27.8373 110.661 28.6841 110.976 29.5067C111.339 30.4986 111.823 31.4422 111.944 32.5067C111.992 32.8696 112.282 32.7002 112.452 32.676C114.702 32.3373 116.952 31.9986 119.178 31.6115C122.855 30.9825 126.532 30.2809 130.21 29.676C131.637 29.4341 133.089 29.5309 134.468 29.8938C135.653 30.1841 136.5 30.9825 136.79 32.3131C137.25 34.2728 136.476 35.7728 135.121 37.0551C133.113 38.9422 130.984 40.7325 129.073 42.6922C126.581 45.2567 123.895 47.6518 121.331 50.1438C120.702 50.7728 120.024 51.3535 119.371 51.9341C118.984 52.2728 118.621 52.6599 118.21 52.9744C117.919 53.1922 117.847 53.4583 117.944 53.7728C118.452 55.1276 118.621 56.6035 119.25 57.9341C119.202 58.4906 119.419 58.9986 119.54 59.5309C119.782 60.547 120.024 61.5631 120.387 62.5309C120.75 63.547 120.871 64.6357 121.186 65.676C121.911 68.1196 122.395 70.6115 122.903 73.1035C123.436 75.7889 123.895 78.4744 124.113 81.2083C124.307 83.5551 124.597 85.8777 125.032 88.2002C125.129 88.6599 125.008 89.2648 125.178 89.6518C125.589 90.6922 125.081 91.7567 125.516 92.8212C125.807 93.547 125.661 94.418 125.565 95.2406C125.492 95.8696 125.565 96.4986 125.371 97.1518C124.839 98.8212 123.653 99.547 121.936 99.1357C120.048 98.7002 118.428 97.6841 116.782 96.7164C116.274 96.3293 115.718 96.0148 115.186 95.7002ZM111.46 33.426C111.411 33.3535 111.363 33.2809 111.315 33.1841C111.266 33.0631 111.218 32.918 111.145 32.797C110.637 32.0712 110.468 31.176 109.839 30.5228C109.5 30.1599 109.669 29.6276 109.524 29.168C109.21 28.1518 108.702 27.2325 108.29 26.2647C108.121 25.9018 108.315 25.4422 108.073 25.176C107.54 24.547 107.516 23.7486 107.105 23.047C106.573 22.176 106.331 21.1357 105.823 20.2164C104.686 18.0631 103.79 15.7889 102.411 13.7567C101.71 12.7164 101.105 11.6276 100.403 10.6115C99.484 9.25668 98.3227 8.16797 96.6533 7.78087C95.4678 7.51474 95.1049 7.61152 94.4275 8.62765C93.6775 9.76474 93.0727 10.9502 92.5162 12.1841C90.5082 16.6357 88.4759 21.0631 86.2985 25.418C84.9436 28.1518 83.9033 31.0309 82.234 33.6196C81.8469 34.2002 81.5082 34.7809 81.1695 35.3857C80.7824 36.0389 80.8549 36.3051 81.484 36.7406C81.7743 36.9341 82.0646 37.176 82.3549 37.3938C82.6936 37.6599 82.8388 38.168 83.4194 38.0712C84.3388 38.8938 84.8711 40.0551 85.8146 40.8535C85.9598 40.9986 86.0565 41.2164 86.1291 41.4341C86.3711 42.1357 86.1291 42.547 85.4033 42.6922C84.6533 42.8615 84.0243 43.2002 83.5162 43.7809C83.1775 44.1438 83.0807 44.5551 83.3227 44.9906C84.0001 46.2728 84.9436 47.2164 86.4678 47.3857C87.6049 47.5067 88.2582 46.926 88.3065 45.7889C88.3065 45.4986 88.3307 45.1841 88.3791 44.8938C88.5243 43.9502 88.9598 43.6599 89.8791 43.9018C90.1211 43.9744 90.363 44.0712 90.5807 44.2164C91.8388 45.0147 93.0969 45.8373 94.3791 46.6599C94.7178 46.8776 95.0324 47.0712 95.4194 47.1922C97.0888 47.7244 98.7824 48.1115 100.548 48.1357C101.032 48.1357 101.274 48.0873 101.105 47.5067C100.79 46.4422 101.153 45.547 101.879 44.8212C103.403 43.2728 105.194 42.8131 107.298 43.4906C109.113 44.0712 109.911 45.547 109.331 47.3615C109.113 48.0873 108.678 48.6922 108.218 49.297C107.952 49.6599 107.952 49.8776 108.46 50.0228C111.194 50.7728 113.903 51.5228 116.637 52.297C117 52.3938 117.218 52.3212 117.508 52.0793C118.936 50.797 120.218 49.3938 121.573 48.0147C124.089 45.426 126.678 42.9099 129.242 40.3938C130.428 39.2325 131.71 38.1438 132.919 37.0309C134.153 35.8938 135.629 34.8293 135.532 32.7728C135.508 32.2406 135.339 31.926 134.976 31.6841C134.202 31.2002 133.307 30.9341 132.411 31.0067C130.984 31.1035 129.557 31.2728 128.129 31.5631C125.516 32.0954 122.855 32.4099 120.242 32.9664C118.258 33.4018 116.25 33.5712 114.266 33.9099C113.589 34.0309 112.863 33.9099 112.258 34.3938C112.186 34.4422 111.823 34.5631 111.653 34.5147C111.363 34.4664 110.855 33.2567 110.903 32.8696C111.024 33.0389 111.121 33.1841 111.218 33.3293C111.266 33.4018 111.29 33.4744 111.339 33.547C111.387 33.6438 111.436 33.7406 111.532 33.9825C111.532 33.668 111.581 33.547 111.46 33.426ZM84.4356 41.8212C84.3872 41.6035 84.1936 41.5067 84.0485 41.3857C82.8872 40.2002 81.6291 39.1357 80.5646 37.8535C80.4195 37.6841 80.2501 37.6841 80.0324 37.6841C77.9033 37.8535 75.7501 38.0712 73.6211 38.168C71.2017 38.2889 68.7582 38.3857 66.3388 38.5309C63.6533 38.676 60.9678 38.8454 58.2582 39.0147C56.5888 39.1357 54.9436 39.3293 53.3469 39.7647C51.7985 40.176 50.3227 40.7083 49.1614 41.8696C48.3872 42.6438 48.1453 44.2406 48.7501 45.1115C49.5727 46.2728 50.3711 47.5067 51.484 48.4018C53.9033 50.3857 56.3227 52.3454 58.8146 54.2325C61.6453 56.3857 64.5243 58.4422 67.3791 60.547C67.8388 60.8857 68.2501 61.2244 68.8307 61.3938C69.5565 61.6115 69.7501 62.1438 69.4356 62.8454C69.363 63.0147 69.242 63.1599 69.1936 63.3293C67.5001 68.3857 65.3953 73.2728 64.3549 78.547C63.8469 81.0873 63.1936 83.5793 63.5807 86.1922C63.7259 87.1599 63.9678 88.1035 64.5969 88.8535C65.0082 89.3373 65.5162 89.676 66.2178 89.6518C67.4275 89.5793 68.613 89.3373 69.7259 88.8535C72.7985 87.547 75.6291 85.7809 78.4114 83.9906C81.484 82.0067 84.2662 79.6599 87.1694 77.4341C87.8469 76.926 88.3307 76.418 88.4759 75.4502C89.0082 71.797 89.7098 68.168 90.3388 64.5147C90.5807 63.1357 91.6694 62.7486 92.7824 63.6438C93.5565 64.2728 94.3065 64.8776 95.1049 65.4825C95.5162 65.797 95.9759 66.0147 96.5082 65.918C97.7904 65.7002 99.2662 63.547 98.9759 62.2406C98.6614 60.8615 97.7178 60.0873 96.3872 59.7486C95.4194 59.5067 94.4759 59.797 93.5082 59.8696C92.2259 59.9664 91.6211 59.3131 91.8872 58.0309C92.2985 56.0712 92.8549 54.1357 93.4114 52.2002C93.6775 51.2567 93.8953 50.2889 94.2824 49.3938C94.6453 48.547 94.6936 48.4744 93.8953 47.9906C93.1453 47.5309 92.3469 47.1196 91.742 46.5147C91.1614 45.8857 90.4114 45.6922 89.6856 45.2083C89.6856 45.4744 89.7098 45.6196 89.7098 45.7889C89.7582 47.3857 89.0324 48.3535 87.5565 48.7164C87.0243 48.8373 86.5162 48.7164 86.0082 48.6438C84.7985 48.4744 83.6856 48.0873 82.8146 47.1196C81.1694 45.2809 81.7743 42.8857 84.0727 42.0873C84.1453 41.9664 84.3146 41.9906 84.4356 41.8212ZM116.734 53.8454C116.637 53.4099 116.274 53.3615 115.984 53.3131C113.129 52.7567 110.395 51.7889 107.661 50.8938C106.694 50.5793 106.476 49.8051 107.057 48.9583C107.347 48.5228 107.637 48.0873 107.903 47.6518C108.508 46.6357 108.387 45.8857 107.516 45.0873C106.597 44.2406 105.605 44.3373 104.54 44.7244C103.113 45.2567 102.169 46.418 102.194 47.7002C102.218 48.8857 101.903 49.2486 100.718 49.3454C99.1936 49.4906 97.7178 49.2244 96.242 48.8615C95.734 48.7406 95.4678 48.7889 95.3227 49.3938C94.6211 52.2002 93.8953 54.9825 93.0727 57.7647C92.7824 58.7325 92.8307 58.8051 93.8711 58.5873C95.0807 58.3212 96.2904 58.3454 97.4517 58.6841C98.3469 58.9502 99.2178 59.3857 99.7259 60.3051C100.21 61.1518 100.234 62.0228 100.186 62.9422C100.089 64.7809 98.5162 66.8131 96.8953 67.0309C95.4436 67.2244 94.0888 66.9341 93.0001 65.8454C92.5404 65.3857 92.0324 64.926 91.8146 64.2486C91.5727 64.418 91.5243 64.6115 91.4759 64.8535C91.2582 66.0147 91.0162 67.176 90.7985 68.3373C90.3146 70.8051 89.8065 73.2486 89.3227 75.7164C89.2501 76.1035 89.3227 76.3454 89.6856 76.5631C90.2904 76.926 90.8711 77.3131 91.4517 77.7002C96.0727 80.9664 100.669 84.2325 105.266 87.4986C109.428 90.4502 113.589 93.426 117.944 96.1115C119.178 96.8857 120.484 97.5148 121.887 97.8777C123.387 98.2648 124.161 97.6841 124.258 96.1357C124.355 94.6599 124.234 93.1841 124.04 91.6841C123.653 88.6115 123.484 85.4906 123 82.418C122.831 81.2809 122.71 80.1438 122.492 79.0067C121.428 73.5148 120.387 68.0228 118.96 62.6035C118.645 61.4422 118.307 60.2809 118.04 59.0954C117.798 57.9583 117.194 56.8454 117.484 55.6357C117.048 55.0309 117.169 54.2809 116.952 53.6276C116.928 53.5551 116.879 53.5067 116.807 53.3857C116.758 53.5793 116.734 53.7244 116.734 53.8454Z" fill="#040404"></path>
    <path d="M50.1775 15.5232C50.1775 15.2571 50.2501 15.0152 50.4678 14.8942C50.6372 14.7732 50.8549 14.8458 51.0243 14.9668C53.492 16.9265 56.4194 17.9426 59.2985 19.0797C61.5243 19.9507 63.7259 20.8942 65.5888 22.4426C67.113 23.7007 68.3227 25.2248 69.4114 26.87C69.6049 27.1845 69.7259 27.5232 69.7743 27.8861C69.8227 28.1281 69.7743 28.3458 69.5807 28.491C69.363 28.6361 69.121 28.5877 68.9033 28.4426C68.6372 28.2732 68.4436 28.0555 68.2985 27.7894C66.6291 25.0555 64.1372 23.3619 61.2581 22.1523C58.7662 21.1119 56.2259 20.241 53.8549 19.0071C52.9356 18.5232 52.0888 17.991 51.2662 17.3377C50.6856 16.8539 50.2017 16.3216 50.1775 15.5232Z" fill="#040404"></path>
    <path d="M129.194 12.5225C129.557 12.5467 129.944 12.5225 130.04 12.9096C130.161 13.345 129.798 13.5144 129.46 13.6354C128.153 14.095 126.871 14.6031 125.758 15.4741C124.621 16.3692 123.726 17.4821 122.903 18.6434C121.694 20.337 120.605 22.1031 119.226 23.6515C118.621 24.3047 117.992 24.9338 117.266 25.4176C116.734 25.7805 116.153 25.9983 115.5 25.7079C115.089 25.5144 115.016 25.1999 115.379 24.9338C117.29 23.4821 118.573 21.4983 119.903 19.5628C121.065 17.845 122.226 16.1273 123.944 14.8692C125.395 13.8047 127.04 13.0789 128.758 12.5708C128.928 12.5467 129.073 12.5467 129.194 12.5225Z" fill="#040404"></path>
    <path d="M139.693 64.7088C139.669 64.9265 139.645 65.1926 139.427 65.3378C139.234 65.4588 139.089 65.3378 138.943 65.2168C137.226 63.6442 135.097 62.7733 133.016 61.8297C132.145 61.4184 131.274 61.0313 130.427 60.5475C128.25 59.3136 126.75 57.4507 125.613 55.2733C125.468 55.0071 125.419 54.6926 125.371 54.4023C125.347 54.2088 125.395 53.991 125.613 53.8942C125.831 53.7733 126 53.8942 126.145 54.0394C126.29 54.2088 126.435 54.3781 126.532 54.5717C127.621 56.7249 129.387 58.1765 131.516 59.1926C133.355 60.0878 135.266 60.8378 137.032 61.9023C137.758 62.3378 138.435 62.8459 139.04 63.4265C139.403 63.7652 139.645 64.2007 139.693 64.7088Z" fill="#040404"></path>
    <path d="M51.0484 66.5228C52.2097 66.5954 53.2016 66.6679 54.1936 66.8615C54.5323 66.9341 54.8468 67.055 55.1371 67.2244C55.4274 67.3937 55.6452 67.5631 55.5726 67.926C55.4758 68.2889 55.1613 68.3373 54.8468 68.3373C54.3871 68.3615 53.9274 68.2647 53.4677 68.1921C50.5161 67.7566 47.8065 68.5066 45.1694 69.7163C42.8952 70.7566 40.6694 71.9663 38.3226 72.8373C37.0887 73.297 35.8548 73.6841 34.5242 73.7808C33.8952 73.8292 33.2661 73.7324 32.8065 73.2244C32.4677 72.8373 32.5887 72.4018 33.0968 72.3292C35.879 71.8937 38.371 70.6357 40.8629 69.426C42.7258 68.5308 44.5645 67.5873 46.5726 67.055C48.0968 66.6679 49.6452 66.4986 51.0484 66.5228Z" fill="#040404"></path>
    <path d="M88.2098 102.063C88.4517 99.7887 87.9679 97.6355 87.5082 95.4581C86.855 92.2161 86.8308 89.071 88.3308 86.0226C88.4759 85.7081 88.6453 85.4177 88.8872 85.1758C89.0566 85.0065 89.2743 84.9339 89.492 85.0306C89.7098 85.1274 89.6372 85.3452 89.6614 85.5145C89.6856 85.8048 89.5404 86.071 89.4195 86.3129C88.3791 88.4661 88.3549 90.7403 88.742 93.0387C89.1049 95.1919 89.6372 97.2968 89.6856 99.4742C89.7098 100.224 89.7098 100.974 89.5404 101.7C89.492 101.942 89.3953 102.16 89.2501 102.353C89.0566 102.619 88.7904 102.861 88.4517 102.74C88.0646 102.644 88.2098 102.305 88.2098 102.063Z" fill="#040404"></path>
    <path d="M84.4355 41.8212C84.3387 41.9906 84.1451 41.9664 84 42.0148C81.7016 42.8374 81.1209 45.2083 82.7419 47.0471C83.5887 48.0148 84.7016 48.4019 85.9355 48.5712C86.4435 48.6438 86.9516 48.789 87.4839 48.6438C88.9597 48.2809 89.6855 47.3132 89.6371 45.7164C89.6371 45.5471 89.6129 45.4019 89.6129 45.1358C90.3387 45.5954 91.0887 45.8132 91.6693 46.4422C92.25 47.0471 93.0726 47.4583 93.8226 47.918C94.6209 48.4019 94.5968 48.4745 94.2097 49.3212C93.8226 50.2164 93.6048 51.1842 93.3387 52.1277C92.7822 54.0632 92.2258 55.9987 91.8145 57.9583C91.5484 59.2406 92.1532 59.8938 93.4355 59.7971C94.4032 59.7245 95.3468 59.4342 96.3145 59.6761C97.6451 60.0148 98.5887 60.789 98.9032 62.168C99.1935 63.4503 97.7177 65.6277 96.4355 65.8454C95.9032 65.9422 95.4435 65.7003 95.0322 65.41C94.258 64.8051 93.4839 64.2003 92.7097 63.5712C91.5968 62.6761 90.508 63.0632 90.2661 64.4422C89.6129 68.0954 88.9355 71.7245 88.4032 75.3777C88.258 76.3696 87.75 76.8535 87.0968 77.3616C84.1935 79.5632 81.4113 81.9342 78.3387 83.918C75.5564 85.7325 72.7258 87.4987 69.6532 88.7809C68.5161 89.2648 67.3548 89.5067 66.1451 89.5793C65.4435 89.6277 64.9355 89.2648 64.5242 88.7809C63.8951 88.0309 63.6532 87.1116 63.508 86.1196C63.1209 83.5067 63.7984 80.9906 64.2822 78.4745C65.3226 73.2245 67.4516 68.3132 69.121 63.2567C69.1693 63.0874 69.2903 62.9422 69.3629 62.7729C69.6774 62.0713 69.4597 61.539 68.758 61.3213C68.2016 61.1519 67.7661 60.8132 67.3064 60.4745C64.4516 58.3696 61.5726 56.3132 58.7419 54.16C56.25 52.2729 53.8306 50.3132 51.4113 48.3293C50.2984 47.41 49.5 46.2003 48.6774 45.039C48.0726 44.168 48.3145 42.5712 49.0887 41.7971C50.25 40.6358 51.75 40.1035 53.2742 39.6922C54.8951 39.2567 56.5403 39.0632 58.1855 38.9422C60.8709 38.7487 63.5564 38.6035 66.2661 38.4583C68.6855 38.3132 71.129 38.2164 73.5484 38.0954C75.7016 37.9987 77.8306 37.7809 79.9597 37.6116C80.1774 37.5874 80.3468 37.5874 80.4919 37.7809C81.5322 39.0632 82.8145 40.1277 83.9758 41.3132C84.1693 41.5067 84.3629 41.6035 84.4355 41.8212ZM79.4516 45.5229C79.379 45.5471 79.3548 45.5713 79.3306 45.5954C79.2822 45.668 79.258 45.7406 79.2339 45.8132C78.7742 47.5067 78.9193 49.1519 80.008 50.5551C81.8226 52.9019 84.3145 53.3858 87.0968 52.9745C87.7016 52.8777 88.258 52.66 88.6935 52.2003C88.8387 52.0551 89.0322 51.8616 88.9113 51.6922C88.7661 51.4745 88.5 51.4019 88.2339 51.4019C88.1129 51.4019 88.0161 51.4987 87.8951 51.5229C86.4919 52.0551 85.0645 52.2003 83.5645 51.8374C81.4838 51.3535 79.9113 49.6842 79.5484 47.5793C79.4274 46.9261 79.5484 46.2245 79.4516 45.5229Z" fill="#4184A7"></path>
    <path d="M82.4032 37.3692C82.1128 37.1515 81.8467 36.9095 81.5322 36.716C80.9032 36.3047 80.8306 36.0386 81.2177 35.3612C81.5564 34.7805 81.8951 34.1757 82.2822 33.595C83.9757 31.0305 84.9919 28.1273 86.3467 25.3934C88.5241 21.0386 90.5564 16.6112 92.5645 12.1595C93.1209 10.9257 93.7499 9.74019 94.4757 8.60309C95.129 7.58696 95.5161 7.466 96.7016 7.75632C98.3709 8.14341 99.5322 9.23212 100.452 10.587C101.153 11.6031 101.758 12.6918 102.46 13.7321C103.839 15.7644 104.734 18.0628 105.871 20.1918C106.355 21.1112 106.621 22.1515 107.153 23.0224C107.564 23.6999 107.589 24.5224 108.121 25.1515C108.363 25.4418 108.169 25.8773 108.339 26.2402C108.75 27.2079 109.282 28.1273 109.573 29.1434C109.718 29.5789 109.548 30.1353 109.887 30.4983C110.516 31.1515 110.685 32.0466 111.193 32.7724C111.266 32.8934 111.314 33.0386 111.363 33.1595C111.314 33.2079 111.29 33.2321 111.242 33.2805C111.145 33.1353 111.048 32.9902 110.927 32.8208C110.855 33.2079 111.387 34.4176 111.677 34.466C111.847 34.4902 112.21 34.3934 112.282 34.345C112.887 33.8612 113.637 33.9821 114.29 33.8612C116.274 33.5224 118.282 33.3289 120.266 32.9176C122.879 32.3612 125.54 32.0466 128.153 31.5144C129.581 31.2241 131.008 31.0789 132.435 30.9579C133.355 30.8854 134.226 31.1515 135 31.6353C135.363 31.8773 135.532 32.1918 135.556 32.7241C135.653 34.7805 134.177 35.8208 132.943 36.9821C131.71 38.1192 130.452 39.1837 129.266 40.345C126.677 42.8612 124.113 45.3773 121.597 47.966C120.266 49.345 118.96 50.7483 117.532 52.0305C117.266 52.2724 117.024 52.345 116.661 52.2483C113.952 51.4741 111.218 50.7241 108.484 49.9741C108 49.8289 107.976 49.6112 108.242 49.2483C108.677 48.6434 109.113 48.0386 109.355 47.3128C109.935 45.4983 109.113 44.0224 107.323 43.4418C105.218 42.7644 103.427 43.2483 101.903 44.7724C101.153 45.5224 100.79 46.4176 101.129 47.4579C101.298 48.0386 101.056 48.087 100.573 48.087C98.8064 48.0386 97.1128 47.6757 95.4435 47.1434C95.0564 47.0224 94.7177 46.8289 94.4032 46.6112C93.1451 45.7886 91.887 44.966 90.6048 44.1676C90.387 44.0224 90.1451 43.9257 89.9032 43.8531C88.9838 43.587 88.5483 43.9015 88.4032 44.845C88.3548 45.1353 88.3306 45.4499 88.3306 45.7402C88.2822 46.8773 87.629 47.4579 86.4919 47.337C84.9677 47.1676 84.0241 46.2241 83.3467 44.9418C83.1048 44.4821 83.2257 44.095 83.5403 43.7321C84.0483 43.1515 84.7016 42.8128 85.4274 42.6434C86.1532 42.4741 86.3951 42.087 86.1532 41.3853C86.0806 41.1918 85.9838 40.9499 85.8386 40.8047C84.8951 39.9821 84.3628 38.845 83.4435 38.0224C83.2741 37.8289 83.0806 37.6595 82.9112 37.466C82.7903 37.2966 82.6209 37.1515 82.4032 37.3692ZM101.516 41.7241C102.314 41.1918 103.161 40.7079 104.081 40.4418C104.564 40.2966 105.073 40.1999 105.556 40.466C105.823 40.6112 106.089 40.6354 106.355 40.6354C109.306 40.7563 110.734 41.845 111.653 44.6515C111.702 44.7724 111.702 44.9902 111.847 44.9902C112.016 44.9902 112.113 44.7966 112.113 44.6515C112.113 44.4579 112.137 44.2402 112.064 44.0466C111.484 42.1353 110.443 40.6112 108.484 39.837C107.661 39.5224 106.814 39.4499 105.943 39.4741C104.129 39.5224 102.532 40.1273 101.371 41.6273C101.323 41.6757 101.274 41.7483 101.25 41.7966C101.395 41.845 101.468 41.8208 101.516 41.7241Z" fill="#CDE3ED"></path>
    <path d="M116.734 53.8451C116.758 53.7242 116.758 53.579 116.782 53.3854C116.855 53.5064 116.903 53.5548 116.928 53.6274C117.145 54.2806 117.024 55.0306 117.46 55.6354C117.169 56.8693 117.774 57.958 118.016 59.0951C118.258 60.2806 118.621 61.4177 118.936 62.6032C120.363 68.0225 121.428 73.5145 122.468 79.0064C122.686 80.1435 122.807 81.2806 122.976 82.4177C123.46 85.4903 123.629 88.5871 124.016 91.6838C124.21 93.1596 124.331 94.6354 124.234 96.1354C124.137 97.6838 123.339 98.2403 121.863 97.8774C120.436 97.5145 119.153 96.8612 117.919 96.1112C113.565 93.4258 109.428 90.45 105.242 87.4983C100.621 84.2322 96.0243 80.9661 91.4275 77.7C90.8469 77.2887 90.2662 76.9016 89.6614 76.5629C89.2985 76.3451 89.2259 76.079 89.2985 75.7161C89.8065 73.2483 90.2904 70.8048 90.7743 68.3371C91.0162 67.1758 91.234 66.0145 91.4517 64.8532C91.5001 64.6354 91.5485 64.4177 91.7904 64.2484C91.984 64.9258 92.492 65.3854 92.9759 65.8451C94.0646 66.9338 95.4436 67.2242 96.8711 67.0306C98.492 66.8129 100.065 64.7806 100.161 62.9419C100.21 62.0467 100.186 61.1758 99.7017 60.3048C99.1695 59.3854 98.3227 58.95 97.4275 58.6838C96.2662 58.3209 95.0565 58.3209 93.8469 58.5871C92.8307 58.8048 92.7582 58.7564 93.0485 57.7645C93.8953 55.0064 94.6211 52.2 95.2985 49.3935C95.4436 48.7887 95.7098 48.7403 96.2178 48.8613C97.6936 49.2242 99.1695 49.4903 100.694 49.3451C101.879 49.2242 102.194 48.8613 102.169 47.7C102.145 46.4177 103.065 45.2564 104.516 44.7242C105.581 44.3371 106.597 44.2645 107.492 45.0871C108.363 45.8854 108.508 46.6354 107.879 47.6516C107.613 48.0871 107.323 48.5225 107.032 48.958C106.452 49.8048 106.669 50.579 107.637 50.8935C110.395 51.7887 113.105 52.7564 115.96 53.3129C116.274 53.3854 116.613 53.4338 116.734 53.8451ZM98.2017 69.1354C98.734 69.2806 99.1211 68.9903 99.5082 68.8451C100.428 68.5306 101.081 67.6354 102.169 67.7322C102.218 67.7322 102.29 67.6354 102.339 67.5871C103.331 66.4742 104.129 65.2645 104.105 63.6919C104.081 61.95 103.694 60.3774 102.315 59.1919C101.782 58.7322 101.589 58.829 101.492 59.5064C101.444 59.7483 101.637 59.9177 101.734 60.0871C102.532 61.4177 102.702 62.8935 102.484 64.3935C102.145 66.8854 100.355 68.1193 98.2017 69.1354Z" fill="#FDFDFD"></path>
    <path d="M82.4033 37.3696C82.6211 37.1519 82.7904 37.2971 82.9356 37.4664C83.1049 37.66 83.2743 37.8535 83.4678 38.0229C82.8872 38.1438 82.7178 37.6358 82.4033 37.3696Z" fill="#4184A7"></path>
    <path d="M111.46 33.4258C111.581 33.5467 111.508 33.6677 111.532 33.958C111.411 33.7161 111.363 33.6193 111.339 33.5226C111.387 33.4984 111.435 33.45 111.46 33.4258Z" fill="#CDE3ED"></path>
    <path d="M111.339 33.1846C111.387 33.2572 111.435 33.3297 111.484 33.4265C111.435 33.4507 111.411 33.4991 111.363 33.5233C111.315 33.4507 111.29 33.3781 111.242 33.3055C111.266 33.2813 111.29 33.233 111.339 33.1846Z" fill="#CDE3ED"></path>
    <path d="M79.4517 45.5225C79.5484 46.2241 79.4275 46.9257 79.5484 47.6031C79.9113 49.7079 81.4839 51.3773 83.5646 51.8612C85.0404 52.1999 86.4678 52.0547 87.8952 51.5467C88.0162 51.4983 88.113 51.4257 88.2339 51.4257C88.5001 51.4015 88.7662 51.4983 88.9113 51.716C89.0323 51.9096 88.8388 52.0789 88.6936 52.2241C88.2581 52.6838 87.7017 52.9015 87.0968 52.9983C84.3146 53.4096 81.8226 52.9257 80.0081 50.5789C78.9194 49.1515 78.7742 47.5305 79.2339 45.837C79.2581 45.7644 79.2823 45.6918 79.3307 45.6192C79.3549 45.5708 79.4033 45.5467 79.4517 45.5225Z" fill="#040404"></path>
    <path d="M101.419 41.6272C102.581 40.1272 104.153 39.5224 105.992 39.474C106.839 39.4498 107.71 39.5224 108.532 39.8369C110.468 40.5869 111.508 42.1353 112.113 44.0466C112.161 44.2401 112.161 44.4337 112.161 44.6514C112.161 44.8208 112.065 45.0143 111.895 44.9901C111.75 44.9901 111.726 44.7966 111.702 44.6514C110.807 41.845 109.355 40.7563 106.403 40.6353C106.113 40.6353 105.847 40.6111 105.605 40.4659C105.121 40.224 104.637 40.3208 104.129 40.4418C103.186 40.7079 102.363 41.1676 101.565 41.724C101.492 41.6756 101.444 41.6514 101.419 41.6272Z" fill="#040404"></path>
    <path d="M101.516 41.7247C101.468 41.8457 101.395 41.8457 101.298 41.7973C101.347 41.7489 101.395 41.6763 101.419 41.6279C101.444 41.6521 101.492 41.6763 101.516 41.7247Z" fill="#040404"></path>
    <path d="M98.2017 69.1356C100.355 68.1195 102.145 66.8856 102.508 64.3695C102.726 62.8695 102.557 61.3937 101.758 60.063C101.661 59.8937 101.468 59.7485 101.516 59.4824C101.613 58.805 101.807 58.7082 102.339 59.1679C103.718 60.3534 104.105 61.9259 104.129 63.6679C104.129 65.2647 103.355 66.4501 102.363 67.563C102.315 67.6114 102.242 67.7324 102.194 67.7082C101.105 67.6114 100.427 68.5066 99.5323 68.8211C99.121 68.9663 98.7581 69.2808 98.2017 69.1356Z" fill="#040404"></path>
</svg>