<svg viewBox="0 0 50 50" fill="none" xmlns="http://www.w3.org/2000/svg" class="size-[50px] shrink-0 text-black-L1">
    <path fill-rule="evenodd" clip-rule="evenodd" d="M42.7499 4.10039C40.6993 4.10039 39.0999 5.65637 39.0999 7.50039C39.0999 9.34441 40.6993 10.9004 42.7499 10.9004C44.8005 10.9004 46.3999 9.34441 46.3999 7.50039C46.3999 5.65637 44.8005 4.10039 42.7499 4.10039ZM37.8999 7.50039C37.8999 4.92613 40.1061 2.90039 42.7499 2.90039C45.3937 2.90039 47.5999 4.92613 47.5999 7.50039C47.5999 10.0746 45.3937 12.1004 42.7499 12.1004C41.6861 12.1004 40.6931 11.7724 39.8862 11.2126L30.2911 20.8077C31.2636 21.9447 31.8499 23.4027 31.8499 25.0004C31.8499 26.5959 31.2652 28.0522 30.295 29.1885L40.7008 39.3578C41.1468 39.0684 41.6787 38.9004 42.2499 38.9004C43.8239 38.9004 45.0999 40.1764 45.0999 41.7504C45.0999 43.3244 43.8239 44.6004 42.2499 44.6004C40.6759 44.6004 39.3999 43.3244 39.3999 41.7504C39.3999 41.1818 39.5664 40.6521 39.8533 40.2074L29.4374 30.0282C28.3823 30.8926 27.0535 31.4534 25.5999 31.5753L25.5999 35.4469C27.4412 35.735 28.8499 37.3282 28.8499 39.2504C28.8499 41.3767 27.1262 43.1004 24.9999 43.1004C22.8736 43.1004 21.1499 41.3767 21.1499 39.2504C21.1499 37.3282 22.5586 35.735 24.3999 35.4469L24.3999 31.5753C22.9484 31.4536 21.6213 30.8942 20.5669 30.0319L10.0423 40.5565C10.5497 41.239 10.8499 42.0846 10.8499 43.0004C10.8499 45.2648 9.01427 47.1004 6.7499 47.1004C4.48554 47.1004 2.6499 45.2648 2.6499 43.0004C2.6499 40.736 4.48554 38.9004 6.7499 38.9004C7.66566 38.9004 8.51129 39.2006 9.19375 39.708L19.7087 29.193C18.7362 28.0561 18.1499 26.598 18.1499 25.0004C18.1499 23.4027 18.7362 21.9447 19.7087 20.8077L13.1159 14.215C12.6315 14.4618 12.0782 14.6004 11.4999 14.6004C9.70484 14.6004 8.1499 13.265 8.1499 11.5004C8.1499 9.73577 9.70484 8.40039 11.4999 8.40039C13.295 8.40039 14.8499 9.73577 14.8499 11.5004C14.8499 12.2661 14.5571 12.951 14.079 13.481L20.5669 19.9689C21.765 18.9891 23.3152 18.4004 24.9999 18.4004C26.6846 18.4004 28.2349 18.9891 29.4329 19.9689L38.992 10.4098C38.3114 9.62164 37.8999 8.61217 37.8999 7.50039ZM11.4999 9.60039C10.2574 9.60039 9.3499 10.5036 9.3499 11.5004C9.3499 12.4972 10.2574 13.4004 11.4999 13.4004C12.7424 13.4004 13.6499 12.4972 13.6499 11.5004C13.6499 10.5036 12.7424 9.60039 11.4999 9.60039ZM24.9999 19.6004C21.8562 19.6004 19.3499 22.0409 19.3499 25.0004C19.3499 27.9599 21.8562 30.4004 24.9999 30.4004C28.1436 30.4004 30.6499 27.9599 30.6499 25.0004C30.6499 22.0409 28.1436 19.6004 24.9999 19.6004ZM24.9999 36.6004C23.5363 36.6004 22.3499 37.7868 22.3499 39.2504C22.3499 40.7139 23.5363 41.9004 24.9999 41.9004C26.4635 41.9004 27.6499 40.7139 27.6499 39.2504C27.6499 37.7868 26.4635 36.6004 24.9999 36.6004ZM6.7499 40.1004C5.14828 40.1004 3.8499 41.3988 3.8499 43.0004C3.8499 44.602 5.14828 45.9004 6.7499 45.9004C8.35153 45.9004 9.6499 44.602 9.6499 43.0004C9.6499 41.3988 8.35153 40.1004 6.7499 40.1004ZM42.2499 40.1004C41.3386 40.1004 40.5999 40.8391 40.5999 41.7504C40.5999 42.6617 41.3386 43.4004 42.2499 43.4004C43.1612 43.4004 43.8999 42.6617 43.8999 41.7504C43.8999 40.8391 43.1612 40.1004 42.2499 40.1004Z" fill="currentColor"></path>
</svg>