<svg viewBox="0 0 50 50" fill="none" xmlns="http://www.w3.org/2000/svg" class="size-[50px] shrink-0 text-black-L1">
    <path fill-rule="evenodd" clip-rule="evenodd" d="M24.9999 38.3504C24.2267 38.3504 23.5999 38.9772 23.5999 39.7504C23.5999 40.5236 24.2267 41.1504 24.9999 41.1504C25.7731 41.1504 26.3999 40.5236 26.3999 39.7504C26.3999 38.9772 25.7731 38.3504 24.9999 38.3504ZM22.3999 39.7504C22.3999 38.3144 23.564 37.1504 24.9999 37.1504C26.4358 37.1504 27.5999 38.3144 27.5999 39.7504C27.5999 41.1863 26.4358 42.3504 24.9999 42.3504C23.564 42.3504 22.3999 41.1863 22.3999 39.7504Z" fill="currentColor"></path>
    <path fill-rule="evenodd" clip-rule="evenodd" d="M24.9999 32.8504C22.1652 32.8504 19.6758 34.2696 18.7982 36.2441C18.6636 36.5469 18.309 36.6833 18.0062 36.5487C17.7034 36.4141 17.567 36.0595 17.7016 35.7567C18.8241 33.2312 21.8346 31.6504 24.9999 31.6504C28.1652 31.6504 31.1758 33.2312 32.2982 35.7567C32.4328 36.0595 32.2964 36.4141 31.9936 36.5487C31.6908 36.6833 31.3362 36.5469 31.2016 36.2441C30.3241 34.2696 27.8346 32.8504 24.9999 32.8504Z" fill="currentColor"></path>
    <path fill-rule="evenodd" clip-rule="evenodd" d="M24.9999 26.6004C20.6729 26.6004 16.8682 28.5225 14.7432 31.5919C14.5546 31.8644 14.1808 31.9323 13.9084 31.7437C13.6359 31.5551 13.568 31.1813 13.7566 30.9089C16.1316 27.4783 20.3269 25.4004 24.9999 25.4004C29.6916 25.4004 33.6152 27.4913 36.2255 30.8846C36.4275 31.1472 36.3784 31.5239 36.1157 31.726C35.8531 31.928 35.4764 31.8789 35.2743 31.6162C32.8846 28.5095 29.3082 26.6004 24.9999 26.6004Z" fill="currentColor"></path>
    <path fill-rule="evenodd" clip-rule="evenodd" d="M24.9999 18.6004C18.9256 18.6004 13.3453 21.2731 9.71084 25.6345C9.4987 25.8891 9.12036 25.9235 8.8658 25.7113C8.61123 25.4992 8.57683 25.1208 8.78897 24.8663C12.6545 20.2277 18.5742 17.4004 24.9999 17.4004C31.4256 17.4004 37.3453 20.2277 41.2108 24.8663C41.423 25.1208 41.3886 25.4992 41.134 25.7113C40.8794 25.9235 40.5011 25.8891 40.289 25.6345C36.6545 21.2731 31.0742 18.6004 24.9999 18.6004Z" fill="currentColor"></path>
    <path fill-rule="evenodd" clip-rule="evenodd" d="M24.9999 9.10039C16.4159 9.10039 8.82711 12.5314 3.4422 18.4058C3.21828 18.6501 2.83874 18.6666 2.59447 18.4427C2.3502 18.2188 2.3337 17.8392 2.55761 17.595C8.17271 11.4694 16.0839 7.90039 24.9999 7.90039C33.9266 7.90039 41.8296 11.727 47.4335 17.5857C47.6625 17.8251 47.6541 18.2049 47.4146 18.434C47.1752 18.663 46.7954 18.6546 46.5663 18.4151C41.1702 12.7737 33.5732 9.10039 24.9999 9.10039Z" fill="currentColor"></path>
</svg>