<svg viewBox="0 0 24 24" fill="none" xmlns="http://www.w3.org/2000/svg" class="size-6">
    <path d="M21.5216 17.0853H20.5876V9.72967C20.5876 7.62805 19.7703 5.75994 18.4859 4.35886L18.8362 4.00859L19.0697 4.2421C19.1865 4.35886 19.42 4.47562 19.6535 4.47562C19.887 4.47562 20.1205 4.35886 20.2373 4.2421L20.4708 4.00859C20.8211 3.65832 20.8211 3.07454 20.4708 2.72427L19.6535 1.90697C19.3032 1.5567 18.7195 1.5567 18.3692 1.90697L18.2524 2.02373C17.9022 2.374 17.9022 2.95778 18.2524 3.30805L18.3692 3.42481L18.1357 3.89183C16.6178 2.374 14.633 1.43994 12.2978 1.43994C7.74432 1.43994 4.0081 5.17616 4.0081 9.72967V17.0853H3.07405C2.13999 17.0853 1.43945 17.7859 1.43945 18.7199V22.1059C1.55621 22.2226 1.67297 22.3394 1.78972 22.3394H22.8059C22.9227 22.3394 23.0395 22.2226 23.0395 22.1059V18.7199C23.0395 17.7859 22.3389 17.0853 21.5216 17.0853ZM18.7195 2.49075L18.8362 2.374C18.953 2.25724 19.1865 2.25724 19.3032 2.374L20.1205 3.19129C20.2373 3.30805 20.2373 3.54156 20.1205 3.65832L20.0038 3.77508C19.887 3.89183 19.6535 3.89183 19.5368 3.77508L18.7195 2.95778C18.6027 2.84102 18.6027 2.60751 18.7195 2.49075ZM4.59189 9.72967C4.59189 5.52643 8.09459 2.02373 12.2978 2.02373C16.5011 2.02373 20.0038 5.40967 20.0038 9.72967V17.0853H4.59189V9.72967ZM2.02324 21.7556V18.7199C2.02324 18.1362 2.49026 17.6691 3.07405 17.6691H21.5216C22.1054 17.6691 22.5724 18.1362 22.5724 18.7199V20.4713H11.3638C11.247 20.4713 11.1303 20.588 11.1303 20.7048C11.1303 20.8216 11.247 20.9383 11.3638 20.9383H22.5724V21.7556H2.02324Z" fill="currentColor"></path>
    <path d="M13.6989 6.46048L12.1811 9.49616C12.0643 9.61291 12.1811 9.84643 12.2978 9.84643H12.4146C12.5313 9.84643 12.6481 9.72967 12.6481 9.72967L14.1659 6.69399C14.2827 6.57724 14.1659 6.34373 14.0492 6.34373C13.9324 6.34373 13.8157 6.34373 13.6989 6.46048Z" fill="currentColor"></path>
    <path d="M8.21135 9.26264H7.16053C6.92702 9.26264 6.81026 9.3794 6.81026 9.49616C6.81026 9.61291 6.92702 9.72967 7.04378 9.72967H8.09459C8.21135 9.72967 8.3281 9.61291 8.3281 9.49616C8.3281 9.3794 8.3281 9.26264 8.21135 9.26264Z" fill="currentColor"></path>
    <path d="M17.4351 9.26264H16.3843C16.2676 9.26264 16.1508 9.3794 16.1508 9.49616C16.1508 9.61291 16.2676 9.72967 16.3843 9.72967H17.4351C17.5519 9.72967 17.6686 9.61291 17.6686 9.49616C17.6686 9.3794 17.6686 9.26264 17.4351 9.26264Z" fill="currentColor"></path>
    <path d="M9.37891 6.22697C9.26216 6.11021 9.02864 6.11021 8.91189 6.22697C8.79513 6.34372 8.79513 6.46048 8.91189 6.57724L9.1454 6.81075C9.1454 6.81075 9.26216 6.92751 9.37891 6.92751C9.49567 6.92751 9.49567 6.92751 9.61243 6.81075C9.72918 6.69399 9.72918 6.46048 9.61243 6.34373L9.37891 6.22697Z" fill="currentColor"></path>
    <path d="M15.4503 12.2983C15.3335 12.1816 15.1 12.1816 14.9832 12.2983C14.8665 12.4151 14.8665 12.6486 14.9832 12.7653L15.2168 12.9989C15.2168 12.9989 15.3335 13.1156 15.4503 13.1156C15.567 13.1156 15.567 13.1156 15.6838 12.9989C15.8005 12.8821 15.8005 12.6486 15.6838 12.5318L15.4503 12.2983Z" fill="currentColor"></path>
    <path d="M9.1454 12.2983L8.91189 12.5318C8.79513 12.6486 8.79513 12.8821 8.91189 12.9989C8.91189 12.9989 9.02864 13.1156 9.1454 13.1156C9.26216 13.1156 9.26216 13.1156 9.37891 12.9989L9.61243 12.7653C9.72918 12.6486 9.72918 12.4151 9.61243 12.2983C9.49567 12.1816 9.26216 12.1816 9.1454 12.2983Z" fill="currentColor"></path>
    <path d="M15.2168 6.22697L14.9832 6.46048C14.8665 6.57724 14.8665 6.81075 14.9832 6.92751C14.9832 6.92751 15.1 7.04427 15.2168 7.04427C15.3335 7.04427 15.3335 7.04427 15.4503 6.92751L15.6838 6.69399C15.8005 6.57724 15.8005 6.34372 15.6838 6.22697C15.567 6.11021 15.3335 6.11021 15.2168 6.22697Z" fill="currentColor"></path>
    <path d="M12.2978 5.75994C12.4146 5.75994 12.5313 5.64318 12.5313 5.52643V4.35886C12.5313 4.2421 12.4146 4.12535 12.2978 4.12535C12.1811 4.12535 12.0643 4.2421 12.0643 4.35886V5.40967C12.0643 5.64318 12.1811 5.75994 12.2978 5.75994Z" fill="currentColor"></path>
    <path d="M12.2978 13.3491C12.1811 13.3491 12.0643 13.4659 12.0643 13.5826V14.6335C12.0643 14.7502 12.1811 14.867 12.2978 14.867C12.4146 14.867 12.5313 14.7502 12.5313 14.6335V13.5826C12.5313 13.4659 12.4146 13.3491 12.2978 13.3491Z" fill="currentColor"></path>
    <path d="M12.2978 2.84102C8.67837 2.84102 5.6427 5.8767 5.6427 9.49616C5.6427 13.1156 8.67837 16.1513 12.2978 16.1513C15.9173 16.1513 18.953 13.1156 18.953 9.49616C18.953 5.8767 15.9173 2.84102 12.2978 2.84102ZM12.2978 15.5675C8.91189 15.5675 6.22648 12.8821 6.22648 9.49616C6.22648 6.11021 8.91189 3.42481 12.2978 3.42481C15.6838 3.42481 18.3692 6.11021 18.3692 9.49616C18.3692 12.8821 15.6838 15.5675 12.2978 15.5675Z" fill="currentColor"></path>
    <path d="M3.1908 19.654C3.07405 19.654 2.95729 19.7708 2.95729 19.8875V20.588C2.95729 20.7048 3.07405 20.8216 3.1908 20.8216C3.30756 20.8216 3.42432 20.7048 3.42432 20.588V20.0043C3.42432 19.8875 3.30756 19.654 3.1908 19.654Z" fill="currentColor"></path>
    <path d="M4.35837 18.9535C4.24162 18.9535 4.12486 19.0702 4.12486 19.187V20.588C4.12486 20.7048 4.24162 20.8216 4.35837 20.8216C4.47513 20.8216 4.59189 20.7048 4.59189 20.588V19.187C4.59189 19.0702 4.47513 18.9535 4.35837 18.9535Z" fill="currentColor"></path>
    <path d="M5.52594 19.7708C5.40918 19.7708 5.29243 19.8875 5.29243 20.0043V20.588C5.29243 20.7048 5.40918 20.8216 5.52594 20.8216C5.6427 20.8216 5.75945 20.7048 5.75945 20.588V20.0043C5.75945 19.8875 5.6427 19.7708 5.52594 19.7708Z" fill="currentColor"></path>
    <path d="M6.69351 19.4205C6.57675 19.4205 6.45999 19.5372 6.45999 19.654V20.588C6.45999 20.7048 6.57675 20.8216 6.69351 20.8216C6.81026 20.8216 6.92702 20.7048 6.92702 20.588V19.654C6.92702 19.5372 6.81026 19.4205 6.69351 19.4205Z" fill="currentColor"></path>
    <path d="M7.86107 18.7199C7.74432 18.7199 7.62756 18.8367 7.62756 18.9535V20.7048C7.62756 20.8216 7.74432 20.9383 7.86107 20.9383C7.97783 20.9383 8.09459 20.8216 8.09459 20.7048V18.9535C8.09459 18.8367 7.97783 18.7199 7.86107 18.7199Z" fill="currentColor"></path>
    <path d="M9.02864 19.3037C8.91189 19.3037 8.79513 19.4205 8.79513 19.5372V20.588C8.79513 20.7048 8.91189 20.8216 9.02864 20.8216C9.1454 20.8216 9.26216 20.7048 9.26216 20.588V19.5372C9.26216 19.4205 9.1454 19.3037 9.02864 19.3037Z" fill="currentColor"></path>
    <path d="M10.1962 19.654C10.0795 19.654 9.9627 19.7708 9.9627 19.8875V20.588C9.9627 20.7048 10.0795 20.8216 10.1962 20.8216C10.313 20.8216 10.4297 20.7048 10.4297 20.588V20.0043C10.4297 19.8875 10.313 19.654 10.1962 19.654Z" fill="currentColor"></path>
</svg>