<svg viewBox="0 0 24 24" fill="none" xmlns="http://www.w3.org/2000/svg" class="size-6">
    <path d="M21.5185 4.92066H16.6045L16.4875 4.10167C16.3705 3.39967 15.6685 2.81468 14.8495 2.93168L12.1585 3.39967L11.6906 2.22968C11.5736 1.87869 11.3396 1.64469 11.1056 1.52769C10.7546 1.41069 10.4036 1.41069 10.1696 1.52769L2.33064 4.33567C1.62865 4.56966 1.27765 5.27166 1.51165 5.85665L5.60661 17.2055C5.72361 17.6735 6.1916 18.0245 6.6596 18.0245L6.8936 19.5455C7.0106 20.2475 7.59559 20.7155 8.29758 20.7155V21.3005C8.41458 22.2365 9.11658 22.8215 9.93557 22.8215H21.5185C22.3375 22.8215 23.0395 22.1195 23.0395 21.3005V6.44165C23.0395 5.62265 22.3375 4.92066 21.5185 4.92066ZM6.1916 17.0885L2.09664 5.73965C1.97964 5.62265 2.09664 5.38866 2.09664 5.27166C2.21364 5.15466 2.33064 5.03766 2.44764 4.92066L10.2866 2.11269C10.4036 1.99569 10.6376 2.11269 10.7546 2.11269C10.9886 2.11269 11.1056 2.22968 11.2226 2.34668L11.6906 3.51667L5.84061 4.56966C5.37261 4.68666 5.02161 4.80366 4.78762 5.15466C4.55362 5.50565 4.55362 5.85665 4.67062 6.20765L6.6596 17.5565C6.4256 17.4395 6.3086 17.3225 6.1916 17.0885ZM8.41458 6.44165V20.1305C8.06359 20.1305 7.59559 19.8965 7.59559 19.4285L5.25561 5.97365C5.25561 5.73965 5.25561 5.50565 5.37261 5.38866C5.48961 5.27166 5.72361 5.15466 5.84061 5.03766L14.9665 3.39967C15.2005 3.39967 15.4345 3.39967 15.5515 3.51667C15.6685 3.63367 15.7855 3.86767 15.9025 3.98467L16.0195 4.80366H9.93557C9.11658 4.92066 8.41458 5.62265 8.41458 6.44165ZM22.4545 21.4175C22.4545 21.8855 21.9865 22.3535 21.5185 22.3535H9.93557C9.46757 22.3535 8.99958 21.8855 8.99958 21.4175V6.44165C8.99958 5.97365 9.46757 5.50565 9.93557 5.50565H21.5185C21.9865 5.50565 22.4545 5.97365 22.4545 6.44165V21.4175Z" fill="currentColor"></path>
    <path d="M17.6575 19.8965H10.8716C10.7546 19.8965 10.6376 20.0135 10.6376 20.1305C10.6376 20.2475 10.7546 20.4815 10.8716 20.4815H17.6575C17.7745 20.4815 17.8915 20.3645 17.8915 20.2475C17.8915 20.1305 17.7745 19.8965 17.6575 19.8965Z" fill="currentColor"></path>
    <path d="M20.4655 18.1415H10.8716C10.7546 18.1415 10.6376 18.2585 10.6376 18.3755C10.6376 18.4925 10.7546 18.6095 10.8716 18.6095H20.4655C20.5825 18.6095 20.6995 18.4925 20.6995 18.3755C20.6995 18.2585 20.5825 18.1415 20.4655 18.1415Z" fill="currentColor"></path>
    <path d="M13.7965 10.8876H15.4345C16.2535 10.8876 16.3705 10.3026 16.3705 10.1856L16.1365 8.19663C16.1365 8.19663 16.1365 7.26064 14.7325 7.26064C13.3285 7.26064 13.3285 8.07963 13.3285 8.07963L13.0945 10.1856C12.8605 10.3026 12.9775 10.8876 13.7965 10.8876ZM13.7965 8.19663C13.7965 8.07963 14.0305 7.84563 14.6155 7.84563C15.3175 7.84563 15.4345 8.07963 15.4345 8.19663L15.7855 10.1856C15.7855 10.1856 15.6685 10.3026 15.4345 10.3026H13.7965C13.6795 10.3026 13.5625 10.3026 13.5625 10.3026L13.7965 8.19663Z" fill="currentColor"></path>
    <path d="M17.7745 10.8876H19.0615C19.1785 10.8876 19.2955 10.7706 19.2955 10.6536C19.2955 10.5366 19.1785 10.4196 19.0615 10.4196H17.7745C17.6575 10.4196 17.5405 10.5366 17.5405 10.6536C17.5405 10.7706 17.6575 10.8876 17.7745 10.8876Z" fill="currentColor"></path>
    <path d="M10.8716 16.3866C10.8716 16.5036 10.9886 16.6206 11.1056 16.6206C11.2226 16.6206 11.3396 16.5036 11.3396 16.3866V11.8236H18.8275V16.3866C18.8275 16.5036 18.9445 16.6206 19.0615 16.6206C19.1785 16.6206 19.2955 16.5036 19.2955 16.3866V11.9406C19.7635 11.8236 19.9975 11.7066 19.9975 11.4726C19.9975 11.3556 19.8805 11.2386 19.6465 11.2386H10.5206C10.1696 11.2386 10.1696 11.4726 10.1696 11.4726C10.1696 11.7066 10.4036 11.8236 10.8716 11.9406V16.3866Z" fill="currentColor"></path>
    <path d="M16.8385 13.2276C16.8385 12.7596 16.2535 12.1746 15.9025 12.1746H13.3285C12.8605 12.1746 12.3925 12.7596 12.3925 13.2276C12.3925 13.3446 12.5095 13.4616 12.6265 13.4616H12.7435L12.6265 16.2696C12.6265 16.3866 12.7435 16.6206 12.8605 16.6206C12.9775 16.6206 13.0945 16.5036 13.0945 16.3866L13.2115 13.5786H15.6685L15.7855 16.3866C15.7855 16.5036 15.9025 16.6206 16.0195 16.6206C16.1365 16.6206 16.2535 16.5036 16.2535 16.2696L16.1365 13.4616H16.2535C16.7215 13.5786 16.8385 13.4616 16.8385 13.2276ZM13.3285 12.7596H15.9025C15.9025 12.7596 16.0195 12.8766 16.1365 12.8766H13.2115C13.2115 12.8766 13.3285 12.8766 13.3285 12.7596Z" fill="currentColor"></path>
</svg>