<svg viewBox="0 0 18 18" fill="none" xmlns="http://www.w3.org/2000/svg" class="size-[18px]">
    <path d="M9.5 11.3996C9.3 11.5996 9.3 11.9996 9.5 12.1996C9.6 12.2996 9.8 12.3996 9.9 12.3996C10.1 12.3996 10.2 12.2996 10.3 12.1996L12.4 10.0996C13 9.49961 13 8.49961 12.4 7.79961L10.3 5.69961C10.1 5.49961 9.7 5.49961 9.5 5.69961C9.3 5.99961 9.3 6.39961 9.5 6.59961L11.3 8.39961H4C3.7 8.39961 3.4 8.69961 3.4 8.99961C3.4 9.29961 3.7 9.59961 4 9.59961H11.3L9.5 11.3996Z" fill="currentColor"></path>
    <path d="M14.2 1.09961H7.8C6.4 1.09961 5.2 2.29961 5.2 3.69961V4.99961C5.2 5.29961 5.5 5.59961 5.8 5.59961C6.1 5.59961 6.4 5.29961 6.4 4.99961V3.79961C6.4 2.99961 7 2.39961 7.8 2.39961H14.3C15.1 2.39961 15.7 2.99961 15.7 3.79961V14.2996C15.7 15.0996 15.1 15.6996 14.3 15.6996H7.8C7 15.6996 6.4 15.0996 6.4 14.2996V12.9996C6.4 12.6996 6.1 12.3996 5.8 12.3996C5.5 12.3996 5.1 12.6996 5.1 12.9996V14.1996C5.1 15.5996 6.3 16.7996 7.7 16.7996H14.2C15.6 16.7996 16.8 15.5996 16.8 14.1996V3.79961C16.9 2.29961 15.7 1.09961 14.2 1.09961Z" fill="currentColor"></path>
    <path d="M1.6 8.39961C1.3 8.39961 1 8.69961 1 8.99961C1 9.29961 1.3 9.59961 1.6 9.59961C1.9 9.59961 2.2 9.29961 2.2 8.99961C2.2 8.69961 1.9 8.39961 1.6 8.39961Z" fill="currentColor"></path>
</svg>