<svg viewBox="0 0 24 24" fill="none" xmlns="http://www.w3.org/2000/svg" class="size-6">
    <path d="M20.3698 1.43994H4.10912C2.65294 1.43994 1.43945 2.65342 1.43945 4.1096V17.4579C1.43945 18.9141 2.65294 20.1276 4.10912 20.1276H20.3698C21.826 20.1276 23.0395 18.9141 23.0395 17.4579V4.1096C23.0395 2.65342 21.826 1.43994 20.3698 1.43994ZM22.4327 17.5793C22.4327 18.7928 21.4619 19.7635 20.2484 19.7635H4.10912C2.89563 19.7635 1.92485 18.7928 1.92485 17.5793V4.23095C1.92485 3.01747 2.89563 2.04668 4.10912 2.04668H20.3698C21.5833 2.04668 22.5541 3.01747 22.5541 4.23095V17.5793H22.4327Z" fill="currentColor"></path>
    <path d="M22.7968 22.0692H1.68215C1.5608 22.0692 1.43945 22.1905 1.43945 22.3119C1.43945 22.4332 1.5608 22.5545 1.68215 22.5545H22.7968C22.9181 22.5545 23.0395 22.4332 23.0395 22.3119C23.0395 22.1905 22.9181 22.0692 22.7968 22.0692Z" fill="currentColor"></path>
    <path d="M8.599 5.68713C5.5653 5.68713 3.01698 8.23545 3.01698 11.2692C3.01698 14.3029 5.5653 16.8512 8.599 16.8512C11.6327 16.8512 14.181 14.3029 14.181 11.2692C14.181 8.23545 11.6327 5.68713 8.599 5.68713ZM8.599 16.2444C5.80799 16.2444 3.62372 14.0602 3.62372 11.2692C3.62372 8.47814 5.92934 6.29387 8.599 6.29387C11.2687 6.29387 13.5743 8.47814 13.5743 11.2692C13.5743 14.0602 11.39 16.2444 8.599 16.2444Z" fill="currentColor"></path>
    <path d="M17.0934 6.90062C16.608 6.90062 16.1226 7.38601 16.1226 7.8714C16.1226 8.3568 16.608 8.84219 17.0934 8.84219C17.5788 8.84219 18.0642 8.3568 18.0642 7.8714C18.0642 7.38601 17.5788 6.90062 17.0934 6.90062ZM17.0934 8.23545C16.8507 8.23545 16.7293 8.1141 16.7293 7.8714C16.7293 7.62871 16.8507 7.50736 17.0934 7.50736C17.3361 7.50736 17.4574 7.62871 17.4574 7.8714C17.4574 8.1141 17.2147 8.23545 17.0934 8.23545Z" fill="currentColor"></path>
    <path d="M20.0057 6.90062C19.5204 6.90062 19.035 7.38601 19.035 7.8714C19.035 8.3568 19.5204 8.84219 20.0057 8.84219C20.4911 8.84219 20.9765 8.3568 20.9765 7.8714C20.9765 7.38601 20.6125 6.90062 20.0057 6.90062ZM20.0057 8.23545C19.763 8.23545 19.6417 8.1141 19.6417 7.8714C19.6417 7.62871 19.763 7.50736 20.0057 7.50736C20.2484 7.50736 20.3698 7.62871 20.3698 7.8714C20.3698 8.1141 20.2484 8.23545 20.0057 8.23545Z" fill="currentColor"></path>
    <path d="M17.0934 3.86691C16.608 3.86691 16.1226 4.3523 16.1226 4.83769C16.1226 5.32309 16.608 5.80848 17.0934 5.80848C17.5788 5.80848 18.0642 5.32309 18.0642 4.83769C18.0642 4.3523 17.5788 3.86691 17.0934 3.86691ZM17.0934 5.20174C16.8507 5.20174 16.7293 5.08039 16.7293 4.83769C16.7293 4.595 16.8507 4.47365 17.0934 4.47365C17.3361 4.47365 17.4574 4.595 17.4574 4.83769C17.4574 5.08039 17.2147 5.20174 17.0934 5.20174Z" fill="currentColor"></path>
    <path d="M20.0057 3.86691C19.5204 3.86691 19.035 4.3523 19.035 4.83769C19.035 5.32309 19.5204 5.80848 20.0057 5.80848C20.4911 5.80848 20.9765 5.32309 20.9765 4.83769C20.9765 4.3523 20.6125 3.86691 20.0057 3.86691ZM20.0057 5.20174C19.763 5.20174 19.6417 5.08039 19.6417 4.83769C19.6417 4.595 19.763 4.47365 20.0057 4.47365C20.2484 4.47365 20.3698 4.595 20.3698 4.83769C20.3698 5.08039 20.2484 5.20174 20.0057 5.20174Z" fill="currentColor"></path>
    <path d="M17.0934 9.81298C16.608 9.81298 16.1226 10.2984 16.1226 10.7838C16.1226 11.2692 16.608 11.7545 17.0934 11.7545C17.5788 11.7545 18.0642 11.2692 18.0642 10.7838C18.0642 10.2984 17.5788 9.81298 17.0934 9.81298ZM17.0934 11.1478C16.8507 11.1478 16.7293 11.0265 16.7293 10.7838C16.7293 10.5411 16.8507 10.4197 17.0934 10.4197C17.3361 10.4197 17.4574 10.5411 17.4574 10.7838C17.4574 11.0265 17.2147 11.1478 17.0934 11.1478Z" fill="currentColor"></path>
    <path d="M20.0057 9.81298C19.5204 9.81298 19.035 10.2984 19.035 10.7838C19.035 11.2692 19.5204 11.7545 20.0057 11.7545C20.4911 11.7545 20.9765 11.2692 20.9765 10.7838C20.9765 10.2984 20.6125 9.81298 20.0057 9.81298ZM20.0057 11.1478C19.763 11.1478 19.6417 11.0265 19.6417 10.7838C19.6417 10.5411 19.763 10.4197 20.0057 10.4197C20.2484 10.4197 20.3698 10.5411 20.3698 10.7838C20.3698 11.0265 20.2484 11.1478 20.0057 11.1478Z" fill="currentColor"></path>
    <path d="M17.0934 12.8467C16.608 12.8467 16.1226 13.3321 16.1226 13.8175C16.1226 14.3029 16.608 14.7883 17.0934 14.7883C17.5788 14.7883 18.0642 14.3029 18.0642 13.8175C18.0642 13.2107 17.5788 12.8467 17.0934 12.8467ZM17.0934 14.1815C16.8507 14.1815 16.7293 14.0602 16.7293 13.8175C16.7293 13.5748 16.8507 13.4534 17.0934 13.4534C17.3361 13.4534 17.4574 13.5748 17.4574 13.8175C17.4574 13.9388 17.2147 14.1815 17.0934 14.1815Z" fill="currentColor"></path>
    <path d="M20.0057 12.8467C19.5204 12.8467 19.035 13.3321 19.035 13.8175C19.035 14.3029 19.5204 14.7883 20.0057 14.7883C20.4911 14.7883 20.9765 14.3029 20.9765 13.8175C20.9765 13.2107 20.6125 12.8467 20.0057 12.8467ZM20.0057 14.1815C19.763 14.1815 19.6417 14.0602 19.6417 13.8175C19.6417 13.5748 19.763 13.4534 20.0057 13.4534C20.2484 13.4534 20.3698 13.5748 20.3698 13.8175C20.3698 13.9388 20.2484 14.1815 20.0057 14.1815Z" fill="currentColor"></path>
    <path d="M17.0934 15.759C16.608 15.759 16.1226 16.2444 16.1226 16.7298C16.1226 17.2152 16.608 17.7006 17.0934 17.7006C17.5788 17.7006 18.0642 17.2152 18.0642 16.7298C18.0642 16.2444 17.5788 15.759 17.0934 15.759ZM17.0934 17.0939C16.8507 17.0939 16.7293 16.9725 16.7293 16.7298C16.7293 16.4871 16.8507 16.3658 17.0934 16.3658C17.3361 16.3658 17.4574 16.4871 17.4574 16.7298C17.4574 16.9725 17.2147 17.0939 17.0934 17.0939Z" fill="currentColor"></path>
    <path d="M20.0057 15.759C19.5204 15.759 19.035 16.2444 19.035 16.7298C19.035 17.2152 19.5204 17.7006 20.0057 17.7006C20.4911 17.7006 20.9765 17.2152 20.9765 16.7298C20.9765 16.2444 20.6125 15.759 20.0057 15.759ZM20.0057 17.0939C19.763 17.0939 19.6417 16.9725 19.6417 16.7298C19.6417 16.4871 19.763 16.3658 20.0057 16.3658C20.2484 16.3658 20.3698 16.4871 20.3698 16.7298C20.3698 16.9725 20.2484 17.0939 20.0057 17.0939Z" fill="currentColor"></path>
    <path d="M5.92934 9.93432H5.20125C5.0799 9.93432 4.95855 10.0557 4.95855 10.177V11.9972C4.95855 12.1186 5.0799 12.2399 5.20125 12.2399C5.3226 12.2399 5.44395 12.2399 5.44395 12.1186V11.5119H5.80799L6.29339 12.2399C6.29339 12.3613 6.41473 12.3613 6.53608 12.3613C6.65743 12.3613 6.77878 12.2399 6.77878 12.1186C6.77878 11.9972 6.77878 11.9972 6.65743 11.8759L6.41473 11.5119C6.65743 11.3905 6.90013 11.1478 6.90013 10.7838C6.90013 10.5411 6.77878 10.4197 6.65743 10.2984C6.53608 10.0557 6.29339 9.93432 5.92934 9.93432ZM6.29339 10.7838C6.29339 11.0265 6.17204 11.1478 5.92934 11.1478H5.44395V10.4197H5.92934C6.17204 10.4197 6.29339 10.5411 6.29339 10.7838Z" fill="currentColor"></path>
    <path d="M8.96305 11.8759H7.87091V11.3905H8.72035C8.8417 11.3905 8.96305 11.2692 8.96305 11.1478C8.96305 11.0265 8.8417 10.9051 8.72035 10.9051H7.87091V10.4197H8.96305C9.0844 10.4197 9.20575 10.2984 9.20575 10.177C9.20575 10.0557 9.0844 9.93432 8.96305 9.93432H7.62822C7.50687 9.93432 7.38552 10.0557 7.38552 10.177V11.9972C7.38552 12.1186 7.50687 12.2399 7.62822 12.2399H8.96305C9.0844 12.2399 9.20575 12.1186 9.20575 11.9972C9.20575 11.8759 9.0844 11.8759 8.96305 11.8759Z" fill="currentColor"></path>
    <path d="M11.39 11.6332H11.2687C11.1473 11.7545 10.9046 11.8759 10.7833 11.8759C10.4192 11.8759 10.0552 11.5119 10.0552 11.1478C10.0552 10.7838 10.2979 10.4197 10.7833 10.4197C11.026 10.4197 11.1473 10.4197 11.2687 10.5411H11.39C11.5114 10.5411 11.6327 10.4197 11.6327 10.2984C11.6327 10.177 11.6327 10.177 11.5114 10.0557C11.2687 10.0557 11.026 9.93432 10.7833 9.93432C10.0552 9.93432 9.56979 10.5411 9.56979 11.1478C9.56979 11.8759 10.0552 12.3613 10.7833 12.3613C11.1473 12.3613 11.39 12.2399 11.6327 12.1186C11.6327 12.1186 11.7541 11.9972 11.7541 11.8759C11.6327 11.7545 11.5114 11.6332 11.39 11.6332Z" fill="currentColor"></path>
    <path d="M11.9968 11.9972C11.9968 12.1186 12.1181 12.2399 12.2395 12.2399C12.3608 12.2399 12.4822 12.1186 12.4822 11.9972C12.4822 11.8759 12.3608 11.7545 12.2395 11.7545C12.1181 11.7545 11.9968 11.8759 11.9968 11.9972Z" fill="currentColor"></path>
</svg>