<svg viewBox="0 0 50 50" fill="none" xmlns="http://www.w3.org/2000/svg" class="size-[50px] shrink-0 text-black-L1">
    <path fill-rule="evenodd" clip-rule="evenodd" d="M25.7499 2.90039C26.0813 2.90039 26.3499 3.16902 26.3499 3.50039C26.3499 4.58625 25.7951 5.17759 25.3708 5.62988C25.3514 5.65054 25.3323 5.67092 25.3135 5.69103C25.0948 5.92538 24.9263 6.11684 24.8031 6.34845C24.6865 6.56781 24.5999 6.84572 24.5999 7.25039C24.5999 7.85778 24.8621 8.13863 25.2981 8.60568L25.3135 8.62225C25.5323 8.85665 25.8013 9.14957 26.0062 9.53514C26.2178 9.93297 26.3499 10.4051 26.3499 11.0004C26.3499 11.5804 26.24 12.0324 26.0536 12.4103C25.8714 12.7798 25.6307 13.0454 25.4408 13.2511L25.4195 13.2742C25.2298 13.4795 25.1042 13.6156 25.0092 13.7872C24.9212 13.946 24.8499 14.1574 24.8499 14.5004C24.8499 14.8318 24.5813 15.1004 24.2499 15.1004C23.9185 15.1004 23.6499 14.8318 23.6499 14.5004C23.6499 13.9684 23.7661 13.5548 23.9594 13.2058C24.1275 12.9022 24.3472 12.6655 24.5163 12.4833C24.5309 12.4675 24.5452 12.4522 24.559 12.4372C24.7441 12.2367 24.8784 12.0804 24.9774 11.8795C25.0723 11.6871 25.1499 11.4204 25.1499 11.0004C25.1499 10.5957 25.0633 10.3178 24.9467 10.0985C24.8235 9.86684 24.655 9.67538 24.4363 9.44103C24.4175 9.42092 24.3984 9.40054 24.379 9.37988C23.9547 8.92759 23.3999 8.33625 23.3999 7.25039C23.3999 6.65506 23.5321 6.18297 23.7436 5.78514C23.9485 5.39957 24.2175 5.10665 24.4363 4.87225L24.4517 4.85568C24.8877 4.38863 25.1499 4.10778 25.1499 3.50039C25.1499 3.16902 25.4185 2.90039 25.7499 2.90039ZM17.4999 3.65039C17.8313 3.65039 18.0999 3.91902 18.0999 4.25039C18.0999 5.43816 17.5682 6.08177 17.1354 6.60576C17.1194 6.62502 17.1037 6.64411 17.0881 6.66306C16.8697 6.92816 16.695 7.15104 16.566 7.42443C16.4449 7.68101 16.3547 8.00432 16.3501 8.46297C16.45 9.19945 16.7413 9.57759 17.109 10.0549C17.1373 10.0917 17.1661 10.129 17.1953 10.1672C17.4051 10.4416 17.64 10.7656 17.8157 11.188C17.9936 11.616 18.0999 12.1171 18.0999 12.7504C18.0999 13.3833 17.9936 13.8725 17.816 14.2821C17.6409 14.6857 17.4084 14.9815 17.2184 15.219L17.1987 15.2436C17.0111 15.478 16.877 15.6455 16.7752 15.8577C16.6769 16.0624 16.5999 16.3319 16.5999 16.7504C16.5999 17.0818 16.3313 17.3504 15.9999 17.3504C15.6685 17.3504 15.3999 17.0818 15.3999 16.7504C15.3999 16.1689 15.5104 15.7197 15.6934 15.3384C15.8567 14.9982 16.071 14.7313 16.2426 14.5177C16.2558 14.5012 16.2687 14.4851 16.2814 14.4693C16.4664 14.2381 16.6089 14.0494 16.7151 13.8046C16.8187 13.5658 16.8999 13.2425 16.8999 12.7504C16.8999 12.2587 16.8188 11.9161 16.7076 11.6487C16.5941 11.3758 16.4384 11.1529 16.242 10.8961C16.2122 10.8571 16.1815 10.8175 16.1503 10.7772C15.7648 10.2793 15.2911 9.66767 15.1545 8.57481C15.1515 8.55013 15.1499 8.52527 15.1499 8.50039C15.1499 7.85397 15.277 7.3441 15.4807 6.91229C15.6798 6.49037 15.9426 6.16637 16.1617 5.90022C16.17 5.89019 16.1782 5.88022 16.1864 5.87031C16.6078 5.35886 16.8999 5.00437 16.8999 4.25039C16.8999 3.91902 17.1685 3.65039 17.4999 3.65039ZM33.9999 3.65039C34.3313 3.65039 34.5999 3.91902 34.5999 4.25039C34.5999 5.43816 34.0682 6.08177 33.6354 6.60576C33.6194 6.62502 33.6037 6.64411 33.5881 6.66307C33.3697 6.92816 33.195 7.15104 33.066 7.42443C32.9416 7.68793 32.8499 8.02181 32.8499 8.50039C32.8499 9.25437 33.142 9.60886 33.5634 10.1203L33.5881 10.1502C33.8072 10.4164 34.07 10.7404 34.2691 11.1623C34.4729 11.5941 34.5999 12.104 34.5999 12.7504C34.5999 13.3833 34.4936 13.8725 34.316 14.2821C34.1409 14.6857 33.9084 14.9815 33.7184 15.219L33.6987 15.2436C33.5111 15.478 33.377 15.6455 33.2752 15.8577C33.1769 16.0624 33.0999 16.3319 33.0999 16.7504C33.0999 17.0818 32.8313 17.3504 32.4999 17.3504C32.1685 17.3504 31.8999 17.0818 31.8999 16.7504C31.8999 16.1689 32.0104 15.7197 32.1934 15.3384C32.3567 14.9982 32.5711 14.7313 32.7426 14.5177C32.7558 14.5012 32.7687 14.4851 32.7814 14.4693C32.9664 14.2381 33.1089 14.0494 33.2151 13.8046C33.3187 13.5658 33.3999 13.2425 33.3999 12.7504C33.3999 12.2718 33.3082 11.9379 33.1839 11.6744C33.0548 11.401 32.8801 11.1782 32.6617 10.9131C32.6461 10.8941 32.6304 10.875 32.6145 10.8558C32.1816 10.3318 31.6499 9.68816 31.6499 8.50039C31.6499 7.85397 31.7769 7.3441 31.9807 6.91229C32.1798 6.49037 32.4426 6.16637 32.6617 5.90022L32.6864 5.87032C33.1078 5.35886 33.3999 5.00437 33.3999 4.25039C33.3999 3.91902 33.6685 3.65039 33.9999 3.65039ZM12.4617 20.0964C15.4341 19.5905 19.7179 19.1504 24.9999 19.1504C30.2764 19.1504 34.5584 19.5271 37.5319 20.0016C39.0159 20.2384 40.189 20.5019 41.0021 20.7607C41.4048 20.8888 41.7454 21.0238 41.9968 21.1669C42.121 21.2375 42.2507 21.3253 42.3569 21.4357C42.4567 21.5396 42.5999 21.7314 42.5999 22.0004C42.5999 23.4192 42.5092 24.7762 42.3351 26.0685C43.27 26.033 44.0808 26.1777 44.7676 26.478C45.6767 26.8754 46.3292 27.5287 46.7477 28.3112C47.5716 29.8515 47.4791 31.8572 46.8054 33.4771C45.9794 35.5383 44.2052 36.9586 42.3521 37.5988C40.7304 38.159 38.9236 38.1571 37.595 37.3196C37.5365 37.3879 37.4776 37.4556 37.4182 37.5228C36.9679 38.0321 36.494 38.5084 35.9986 38.9507C38.2507 39.0609 40.6111 39.3495 42.5691 39.79C43.8395 40.0759 44.9755 40.4333 45.8081 40.8666C46.2239 41.0829 46.5944 41.3336 46.8678 41.6288C47.1449 41.9279 47.3499 42.305 47.3499 42.7504C47.3499 43.2615 47.0385 43.6606 46.6885 43.9489C46.3303 44.2439 45.8378 44.5036 45.2592 44.7366C44.0964 45.2051 42.447 45.62 40.4461 45.9666C36.4348 46.6615 30.8991 47.1004 24.7499 47.1004C18.6007 47.1004 13.065 46.6615 9.05374 45.9666C7.05281 45.62 5.40343 45.2051 4.24056 44.7366C3.66204 44.5036 3.16954 44.2439 2.81135 43.9489C2.46132 43.6606 2.1499 43.2615 2.1499 42.7504C2.1499 42.305 2.3549 41.9279 2.63202 41.6288C2.90544 41.3336 3.27594 41.0829 3.69167 40.8666C4.52431 40.4333 5.66033 40.0759 6.9307 39.79C8.99812 39.3249 11.5142 39.0292 13.8777 38.9339C13.3913 38.4957 12.9267 38.0243 12.4859 37.5205C9.30893 33.8897 7.3999 28.6145 7.3999 22.0004C7.3999 21.8201 7.4724 21.6841 7.5278 21.6052C7.58413 21.525 7.64904 21.4656 7.69981 21.4249C7.80124 21.3434 7.92248 21.276 8.03886 21.2198C8.27766 21.1045 8.60631 20.9847 9.00559 20.8637C9.81049 20.6198 10.9772 20.3491 12.4617 20.0964ZM15.3329 40.1008C12.6585 40.1131 9.59409 40.4208 7.19411 40.9608C5.96448 41.2374 4.94424 41.5675 4.24564 41.9311C3.89574 42.1132 3.65686 42.2883 3.51232 42.4443C3.37146 42.5963 3.3499 42.6958 3.3499 42.7504C3.3499 42.751 3.34987 42.7546 3.35235 42.7627C3.35498 42.7714 3.36115 42.7874 3.37542 42.811C3.40524 42.8601 3.46457 42.9323 3.5742 43.0226C3.79706 43.2061 4.16198 43.4113 4.68894 43.6235C5.737 44.0457 7.29075 44.4433 9.25856 44.7842C13.1848 45.4643 18.6491 45.9004 24.7499 45.9004C30.8507 45.9004 36.315 45.4643 40.2412 44.7842C42.2091 44.4433 43.7628 44.0457 44.8109 43.6235C45.3378 43.4113 45.7027 43.2061 45.9256 43.0226C46.0352 42.9323 46.0946 42.8601 46.1244 42.811C46.1387 42.7874 46.1448 42.7714 46.1475 42.7627C46.1499 42.7546 46.1499 42.751 46.1499 42.7504C46.1499 42.6958 46.1283 42.5963 45.9875 42.4443C45.8429 42.2883 45.6041 42.1132 45.2542 41.9311C44.5556 41.5675 43.5353 41.2374 42.3057 40.9608C40.0199 40.4464 37.1314 40.1429 34.5512 40.1045C31.7813 42.068 28.4913 43.1004 24.9999 43.1004C21.4175 43.1004 18.1001 42.0678 15.3329 40.1008ZM34.1659 38.9008C34.1104 38.9005 34.0551 38.9004 33.9999 38.9004C33.6907 38.9004 33.4361 39.1343 33.4034 39.4349C30.9345 41.0531 28.0542 41.9004 24.9999 41.9004C20.416 41.9004 16.3331 40.095 13.3889 36.7303C10.4843 33.4106 8.65434 28.5324 8.6011 22.2815C8.76148 22.2082 9.00987 22.1163 9.35359 22.0121C10.0956 21.7873 11.2101 21.5267 12.6631 21.2794C15.5657 20.7853 19.7819 20.3504 24.9999 20.3504C30.2234 20.3504 34.4414 20.7236 37.3429 21.1866C38.7964 21.4186 39.9046 21.6707 40.6383 21.9042C41.0056 22.021 41.2536 22.1254 41.3992 22.2075C41.3899 23.6497 41.283 25.0193 41.0881 26.3139C40.9503 26.4442 40.8763 26.6376 40.9065 26.8394C40.9169 26.9086 40.9387 26.9732 40.9698 27.0317C40.2493 31.045 38.6637 34.3018 36.5191 36.728C35.7964 37.5456 35.0085 38.271 34.1659 38.9008ZM42.144 27.2809C41.4929 30.8784 40.1709 33.9325 38.352 36.3726C39.2735 36.8872 40.5992 36.9347 41.9602 36.4645C43.5435 35.9176 45.0181 34.7142 45.6928 33.0276L45.696 33.0196C46.2708 31.6402 46.3025 30.023 45.6896 28.8771C45.3893 28.3158 44.9325 27.8597 44.2869 27.5775C43.7437 27.34 43.04 27.2143 42.144 27.2809ZM11.9999 24.1504C12.3313 24.1504 12.5999 24.419 12.5999 24.7504V25.2504C12.5999 25.5818 12.3313 25.8504 11.9999 25.8504C11.6685 25.8504 11.3999 25.5818 11.3999 25.2504V24.7504C11.3999 24.419 11.6685 24.1504 11.9999 24.1504ZM12.3235 27.4269C12.6402 27.3295 12.9759 27.5072 13.0734 27.8239C14.0431 30.9754 15.7314 33.6172 18.1247 35.5319C18.3835 35.7389 18.4254 36.1164 18.2184 36.3752C18.0114 36.634 17.6338 36.6759 17.3751 36.4689C14.7684 34.3835 12.9567 31.5253 11.9264 28.1768C11.829 27.8601 12.0067 27.5244 12.3235 27.4269Z" fill="currentColor"></path>
</svg>