<svg width="17" height="17" viewBox="0 0 17 17" fill="none" xmlns="http://www.w3.org/2000/svg">
    <path id="svg-signup-1" d="M9.1344 5.50488C8.98932 5.50488 8.8435 5.56042 8.73261 5.67124C8.51071 5.89314 8.51066 6.25304 8.73256 6.47494L10.1708 7.9132H3.42568C3.11185 7.9132 2.85742 8.16763 2.85742 8.48145C2.85742 8.79527 3.11185 9.04971 3.42568 9.04971L10.2082 9.04971L8.73257 10.5254C8.51072 10.7474 8.51068 11.1071 8.7326 11.329C8.9546 11.5511 9.31438 11.5508 9.53624 11.329L11.6106 9.25463C11.8118 9.0535 11.9231 8.78473 11.9231 8.50017C11.9231 8.21563 11.8117 7.94683 11.6106 7.74564L9.53618 5.67124C9.42529 5.56042 9.27947 5.50488 9.1344 5.50488Z" fill="black"></path>
    <path id="svg-signup-2" d="M0.916353 8.07966C1.02233 7.97369 1.16792 7.91321 1.31819 7.91321C1.46844 7.91321 1.61403 7.9737 1.72 8.07966C1.82594 8.18561 1.88645 8.33116 1.88645 8.48147C1.88645 8.6317 1.826 8.77731 1.72 8.88327C1.61404 8.9892 1.46842 9.04973 1.31819 9.04973C1.16792 9.04973 1.02232 8.98924 0.916353 8.88327C0.810403 8.77732 0.749939 8.63172 0.749939 8.48147C0.749939 8.33117 0.810489 8.1856 0.916353 8.07966Z" fill="black"></path>
    <path id="svg-signup-3" fill-rule="evenodd" clip-rule="evenodd" d="M8.50002 2.54995C6.3808 2.54995 4.51986 3.65748 3.46507 5.32792C3.30289 5.58476 2.96321 5.66149 2.70637 5.49931C2.44953 5.33713 2.3728 4.99745 2.53498 4.74061C3.78281 2.76447 5.98771 1.44995 8.50002 1.44995C12.3936 1.44995 15.55 4.60634 15.55 8.49995C15.55 12.3936 12.3936 15.55 8.50002 15.55C5.98771 15.55 3.78281 14.2354 2.53498 12.2593C2.3728 12.0025 2.44953 11.6628 2.70637 11.5006C2.96321 11.3384 3.30289 11.4151 3.46507 11.672C4.51986 13.3424 6.3808 14.45 8.50002 14.45C11.7861 14.45 14.45 11.786 14.45 8.49995C14.45 5.21386 11.7861 2.54995 8.50002 2.54995Z" fill="black"></path>
    </svg>