<svg width="36" height="36" fill="none" xmlns="http://www.w3.org/2000/svg"><g clip-path="url(#clip0_10309_80105)"><path d="M35.5 27.21a8.289 8.289 0 0 1-8.29 8.29H8.79A8.29 8.29 0 0 1 .5 27.21V8.79A8.29 8.29 0 0 1 8.79.5h18.42a8.29 8.29 0 0 1 8.29 8.29v18.42z" stroke="#6C7C80"/><path d="M13.855 20.107c-.789 1.155-1.652 1.647-2.847 1.613a3.676 3.676 0 0 1-2.578-1.18 3.642 3.642 0 0 1-.989-2.646 3.7 3.7 0 0 1 1.246-2.638 3.724 3.724 0 0 1 2.585-.922c.83.03 1.632.346 2.264.887l.088.08.076.07h2.77a5.835 5.835 0 0 0-.543-.88 5.922 5.922 0 0 0-4.574-2.422c-.065-.002-.135-.002-.2-.002h-.006a5.979 5.979 0 0 0-4.071 1.602 5.919 5.919 0 0 0-1.9 4.145 5.916 5.916 0 0 0 1.599 4.278 5.928 5.928 0 0 0 4.149 1.898h.218c1.904 0 3.474-1.31 4.242-2.091l.238-.242v2.333h2.018v-6.167h-5.858v2.068h2.22l-.147.216zm10.958-8.097c-2.382 0-4.454 1.282-5.455 3.36H21.9a3.656 3.656 0 0 1 2.877-1.362c2.124 0 3.786 1.753 3.786 3.992 0 2.291-1.614 3.995-3.755 3.995-2.123 0-3.787-1.754-3.787-3.993v-.036a4.6 4.6 0 0 1 .004-.169H18.77a3.398 3.398 0 0 0-.007.203c0 3.43 2.587 5.99 6.018 5.99 3.39 0 6.046-2.631 6.046-5.99 0-3.43-2.586-5.99-6.015-5.99z" fill="#6C7C80"/></g><defs><clipPath id="clip0_10309_80105"><path fill="#fff" d="M0 0h36v36H0z"/></clipPath></defs></svg>