<svg width="21" height="20" viewBox="0 0 21 20" fill="none" xmlns="http://www.w3.org/2000/svg">
<path d="M3.9453 7.35226C3.33554 7.35226 2.84546 7.82933 2.84546 8.43549V12.9424C2.84546 13.5429 3.32985 14.0256 3.9453 14.0256C4.55506 14.0256 5.04514 13.5485 5.04514 12.9424V8.43549C5.04514 7.82933 4.55506 7.35226 3.9453 7.35226ZM16.7616 7.35226C16.1518 7.35226 15.6617 7.82933 15.6617 8.43549V12.9424C15.6617 13.5429 16.1461 14.0256 16.7616 14.0256C17.377 14.0256 17.8614 13.5485 17.8614 12.9424V8.43549C17.8614 7.82933 17.377 7.35226 16.7616 7.35226Z" fill="black"/>
<path d="M8.52146 12.4933C7.9117 12.4933 7.42161 12.9704 7.42161 13.5766V18.0835C7.42161 18.684 7.906 19.1667 8.52146 19.1667C9.13691 19.1667 9.6213 18.6896 9.6213 18.0835V13.5766C9.6213 12.976 9.13121 12.4933 8.52146 12.4933ZM12.1857 12.4933C11.5759 12.4933 11.0859 12.9704 11.0859 13.5766V18.0835C11.0859 18.684 11.5702 19.1667 12.1857 19.1667C12.7954 19.1667 13.2855 18.6896 13.2855 18.0835V13.5766C13.2855 12.976 12.7954 12.4933 12.1857 12.4933Z" fill="black"/>
<path d="M7.30721 1.66675C7.27872 1.66675 7.25593 1.67236 7.23313 1.6892C7.15335 1.7341 7.13056 1.81829 7.17045 1.89686L7.94546 3.27194C6.45812 4.04087 5.45515 5.48891 5.44945 7.15584H15.2511C15.2511 5.48891 14.2425 4.04087 12.7551 3.27756L13.5301 1.90248C13.5757 1.8239 13.5472 1.7341 13.4675 1.69481C13.4447 1.68359 13.4219 1.67797 13.3934 1.67236C13.3364 1.67236 13.2851 1.70042 13.2566 1.75094L12.4702 3.14285C11.8263 2.86223 11.1082 2.70507 10.3503 2.70507C9.59238 2.70507 8.86865 2.86223 8.2304 3.14285L7.44968 1.75094C7.41549 1.69481 7.3642 1.66675 7.30721 1.66675ZM5.44945 7.5375V14.5308C5.44945 15.1762 5.97943 15.6982 6.63477 15.6982H14.0658C14.7212 15.6982 15.2511 15.1762 15.2511 14.5308V7.5375H5.44945Z" fill="black"/>
<path d="M8.08816 4.57959C7.86591 4.57959 7.67786 4.75919 7.67786 4.98369C7.67786 5.20258 7.86591 5.3878 8.08816 5.3878C8.31041 5.3878 8.49846 5.20258 8.49846 4.98369C8.49846 4.7648 8.31611 4.57959 8.08816 4.57959ZM12.6129 4.57959C12.3906 4.57959 12.2026 4.75919 12.2026 4.98369C12.2026 5.20258 12.3849 5.3878 12.6129 5.3878C12.8351 5.3878 13.0232 5.20258 13.0232 4.98369C13.0232 4.7648 12.8408 4.57959 12.6129 4.57959Z" fill="white"/>
</svg>
