<svg width="21" height="20" viewBox="0 0 21 20" fill="none" xmlns="http://www.w3.org/2000/svg">
<path d="M14.8896 10.5233C14.9113 13.0461 17.1363 13.8853 17.1634 13.896C17.1472 13.9547 16.8107 15.0932 15.9912 16.2638C15.2857 17.2793 14.5531 18.2895 13.4026 18.3109C12.2683 18.3322 11.9047 17.6481 10.6077 17.6481C9.31065 17.6481 8.90906 18.2895 7.83452 18.3322C6.72199 18.375 5.87539 17.2365 5.16446 16.221C3.71004 14.1525 2.60294 10.3736 4.08992 7.82411C4.82799 6.55736 6.15216 5.75562 7.59031 5.73424C8.68112 5.71286 9.71767 6.45581 10.3852 6.45581C11.0527 6.45581 12.3063 5.55786 13.6251 5.69148C14.1786 5.71286 15.7253 5.91062 16.7184 7.34307C16.637 7.39652 14.8678 8.41205 14.8896 10.5233ZM12.7568 4.32852C13.3483 3.62299 13.7445 2.64487 13.6359 1.66675C12.7839 1.69882 11.7528 2.22797 11.145 2.92815C10.5968 3.55351 10.1193 4.54767 10.2495 5.50441C11.1992 5.57924 12.1652 5.03406 12.7568 4.32852Z" fill="black"/>
</svg>
