<svg width="108" height="16" viewBox="0 0 108 16" fill="none" xmlns="http://www.w3.org/2000/svg">
<path d="M47.7779 0.223295H45.0435L41.5171 11.1402L38.2586 0.268164H34.8701L40.0429 15.8431H42.8228L46.3674 5.35582L49.9113 15.8431H52.6919L57.8647 0.268164H54.5636L51.3058 11.1402L47.7779 0.223295Z" fill="#1D1D1B"/>
<path d="M66.137 0C61.61 0 58.065 3.51374 58.065 7.9993V8.04452C58.065 12.5798 61.5161 16 66.093 16C70.6193 16 74.1643 12.4856 74.1643 7.9993V7.95443C74.1643 3.41948 70.714 0 66.137 0ZM70.8516 8.04452C70.8516 10.8859 68.8244 13.0285 66.137 13.0285C63.4689 13.0285 61.3785 10.8191 61.3785 7.9993V7.95443C61.3785 5.1127 63.4056 2.97009 66.093 2.97009C68.7611 2.97009 70.8516 5.17948 70.8516 7.9993V8.04452Z" fill="#1D1D1B"/>
<path d="M85.7563 10.1412C87.8336 9.35548 88.9784 7.6647 88.9784 5.38018V5.33566C88.9784 3.89774 88.5332 2.68418 87.692 1.82505C86.6932 0.806266 85.1742 0.268179 83.2974 0.268179H76.3876V15.7311H79.5482V10.7162H82.3707L85.6609 15.7311H89.3489L85.6339 10.1878L85.7563 10.1412ZM83.0772 7.88001H79.5475V3.17218H83.0106C84.7676 3.17218 85.7741 4.02609 85.7741 5.51444V5.55966C85.7741 6.99061 84.7407 7.88001 83.0772 7.88001Z" fill="#1D1D1B"/>
<path d="M101.147 6.87095L106.554 0.374604L102.422 0.37043L95.1937 9.064L95.202 0.36243L92.3832 0.3593L92.3676 15.7158L95.1864 15.7183L95.1886 13.992L99.0968 9.312L99.1787 9.43547L103.367 15.7273L107.077 15.7311L101.147 6.87095Z" fill="#1D1D1B"/>
<path d="M26.2031 0C22.8521 0 20.0428 1.928 18.8077 4.74817H22.4932C23.3439 3.6487 24.647 2.97009 26.1594 2.97009C28.8272 2.97009 30.9173 5.17948 30.9173 7.9993V8.04452C30.9173 10.8859 28.8905 13.0285 26.2031 13.0285C23.5346 13.0285 21.4442 10.8191 21.4442 7.9993V7.95478C21.4442 7.81913 21.4529 7.6873 21.462 7.55583H18.1525C18.1445 7.7033 18.1307 7.84904 18.1307 7.9993V8.04452C18.1307 12.5798 21.5822 15.9997 26.1591 15.9997C30.6851 15.9997 34.2308 12.4856 34.2308 7.9993V7.95478C34.2311 3.41983 30.7797 0 26.2031 0Z" fill="#BE8C15"/>
<path d="M8.61683 7.58781V10.6504H11.3537C10.4572 11.9589 9.39833 12.7245 7.79309 12.6741C6.55258 12.6299 5.40344 12.1043 4.55786 11.1962C3.71229 10.288 3.27222 9.10607 3.31699 7.86955C3.36249 6.6052 3.93397 5.39755 4.88546 4.55546C5.78382 3.76103 6.94097 3.35303 8.1287 3.3979C9.16282 3.43511 10.1715 3.82955 10.9694 4.5085C11.0574 4.58364 11.1437 4.6619 11.2267 4.74329C11.2285 4.74503 11.2318 4.74851 11.2318 4.74851H15.203C15.1968 4.73703 15.1914 4.7259 15.1859 4.71372L15.1437 4.62642C14.9191 4.1579 14.6516 3.71964 14.3509 3.31164C12.9218 1.37285 10.6949 0.165548 8.24627 0.0772005C8.15527 0.0740701 8.06391 0.0726788 7.97291 0.0726788C5.95053 0.0726788 4.03043 0.827461 2.54022 2.21529C0.981933 3.66537 0.0817613 5.63164 0.00532134 7.75024C-0.0714826 9.87546 0.685273 11.9054 2.13508 13.4643C3.5838 15.0209 5.55158 15.9196 7.67661 15.9958C7.77307 15.9986 7.86881 15.9996 7.96527 15.9996C10.1238 15.9996 12.1374 14.7301 13.6262 13.2125V15.9996H16.6212V7.58781H8.61683Z" fill="#BE8C15"/>
</svg>
