<svg width="90" height="90" fill="none" xmlns="http://www.w3.org/2000/svg"><path d="M40.33 47.429l9.638-9.422a19.235 19.235 0 0 0-3.69 2.16l-3.986 3.988a19.323 19.323 0 0 0-1.962 3.274z" fill="url(#paint0_linear_9138_62389)"/><path d="M54.163 36.696L38.925 51.591a19.091 19.091 0 0 0-.297 1.82l16.62-16.246c-.328-.152-.65-.316-.968-.489-.04.008-.08.013-.118.02z" fill="url(#paint1_linear_9138_62389)"/><path d="M58.898 36.386l-.671.657c.424.114.848.21 1.272.286l.823-.805c-.47-.062-.945-.11-1.424-.138z" fill="url(#paint2_linear_9138_62389)"/><path d="M38.514 56.313c.017.48.049.959.1 1.43L58.52 38.285c-.41-.094-.82-.206-1.224-.332l-18.78 18.36z" fill="url(#paint3_linear_9138_62389)"/><path d="M60.996 38.656L39.03 60.13c.098.408.204.812.326 1.209l23.172-22.65c-.146.004-.291.009-.438.009-.364 0-.729-.017-1.093-.043z" fill="url(#paint4_linear_9138_62389)"/><path d="M62.703 36.987l-.59.577c.569 0 1.129-.037 1.674-.107l.112-.109a19.481 19.481 0 0 0-1.196-.36z" fill="url(#paint5_linear_9138_62389)"/><path d="M47.987 57.222l18.975-18.549a19.22 19.22 0 0 0-1.026-.512.344.344 0 0 1-.022.006L40.121 63.383c.155.353.322.7.497 1.042l4.838-4.73a10.923 10.923 0 0 1 2.53-2.473z" fill="url(#paint6_linear_9138_62389)"/><path d="M54.405 55.267l15.201-14.86a19.173 19.173 0 0 0-.892-.656l-15.967 15.61c.473-.064.954-.1 1.444-.1.072 0 .143.005.214.006z" fill="url(#paint7_linear_9138_62389)"/><path d="M51.204 56.869l-6.17 6.032a9.593 9.593 0 0 0-.465 1.982l8.63-8.436a9.638 9.638 0 0 0-1.995.422z" fill="url(#paint8_linear_9138_62389)"/><path d="M41.653 66.205c.204.31.413.613.632.91l1.071-1.047c.002-.563.047-1.115.13-1.655l-1.833 1.792z" fill="url(#paint9_linear_9138_62389)"/><path d="M43.56 68.66c.065.07.135.136.2.205-.03-.106-.055-.214-.082-.32l-.118.115z" fill="url(#paint10_linear_9138_62389)"/><path d="M53.986 59.996l3.198-3.125a9.612 9.612 0 0 0-1.243-.314L44.635 67.608c.074.411.176.823.303 1.234l5.628-5.503a3.64 3.64 0 0 1 3.42-3.343z" fill="url(#paint11_linear_9138_62389)"/><path d="M71.89 42.494a19.422 19.422 0 0 0-.768-.777l-14.21 13.89c.401.105.792.234 1.175.382L71.89 42.494z" fill="url(#paint12_linear_9138_62389)"/><path d="M57.024 61.345l3.035-2.967a9.546 9.546 0 0 0-.925-.624l-2.915 2.85c.304.206.575.456.805.741z" fill="url(#paint13_linear_9138_62389)"/><path d="M51.127 65.582l-5.3 5.181c.288.229.584.45.887.662l5.133-5.02a3.665 3.665 0 0 1-.72-.823z" fill="url(#paint14_linear_9138_62389)"/><path d="M73.82 44.926a19.306 19.306 0 0 0-.641-.9L59.97 56.936c.313.199.616.413.907.642L73.82 44.926z" fill="url(#paint16_linear_9138_62389)"/><path d="M53.841 67.248l-5.389 5.268c.336.186.676.363 1.023.53l6.278-6.138a3.615 3.615 0 0 1-1.912.34z" fill="url(#paint17_linear_9138_62389)"/><path d="M57.831 63.626a3.61 3.61 0 0 1-.392 1.634l4.751-4.645a9.747 9.747 0 0 0-.674-.869l-3.698 3.614c.006.089.013.177.013.266z" fill="url(#paint18_linear_9138_62389)"/><path d="M75.37 47.73a19.406 19.406 0 0 0-.502-1.036l-12.54 12.258c.241.275.47.562.683.861L75.37 47.73z" fill="url(#paint19_linear_9138_62389)"/><path d="M76.492 50.954c-.1-.404-.214-.803-.34-1.196L64.044 61.594c.164.358.31.727.435 1.104l12.013-11.744z" fill="url(#paint20_linear_9138_62389)"/><path d="M52.678 74.234l10.886-10.642a9.65 9.65 0 0 0-.388-1.15L51.49 73.867c.39.135.786.258 1.188.367z" fill="url(#paint21_linear_9138_62389)"/><path d="M65.015 66.495l12.03-11.76a19.31 19.31 0 0 0-.12-1.413L64.972 65.005c.036.36.055.724.055 1.092 0 .132-.008.265-.013.398z" fill="url(#paint22_linear_9138_62389)"/><path d="M56.447 74.872l7.303-7.14c.09-.54.144-1.086.144-1.634l-.001-.037-8.862 8.663c.467.067.938.115 1.416.148z" fill="url(#paint23_linear_9138_62389)"/><path d="M63.157 72.628L76.7 59.39a19.51 19.51 0 0 0 .27-1.791L64.353 69.93c-.3.888-.7 1.79-1.197 2.698z" fill="url(#paint24_linear_9138_62389)"/><path d="M60.439 74.731c.635-.841 1.23-1.74 1.745-2.68l-2.87 2.806c.379-.03.752-.074 1.125-.126z" fill="url(#paint25_linear_9138_62389)"/><path d="M68.692 71.54l4.732-4.626a19.272 19.272 0 0 0 2-3.485L65.168 73.455a19.246 19.246 0 0 0 3.524-1.915z" fill="url(#paint26_linear_9138_62389)"/><path d="M52.102 29.249c-4.144-4.208-5.985-11.17-2.84-14.314.135-.136.275-.262.417-.384-.753-1.179-1.541-2.126-2.617-2.95-.142.127-.282.259-.42.396-3.86 3.858-3.782 12.284 1.553 17.988l-.342.342c1.659-.1 3.385-.088 4.25-1.078z" fill="#248FB2"/><path d="M42.839 20.369c-.229-3.696.865-7.04 3.001-9.174.085-.085.173-.166.26-.248a8.593 8.593 0 0 0-.235-.142c-2.002-1.159-3.753-2.477-6.233-2.477-2.48 0-5.825-1.436-7.827-.277-2.066 1.195-2.163 5.03-3.359 7.097-1.158 2.003-2.454 3.977-2.454 6.457s3.243 3.327 4.402 5.33c1.196 2.065.359 5.277 2.424 6.472 2.003 1.159 4.334-1.776 6.813-1.776 2.48 0 3.382.464 5.385-.694a3.74 3.74 0 0 1 1.004-.38l.622-.623c-2.248-2.735-3.59-6.092-3.803-9.565zm7.441-4.829c-.072.066-.147.128-.217.198-1.187 1.187-1.55 3.286-.997 5.758.534 2.387 1.882 4.875 3.633 6.737.936-1.934 1.494-4.426 1.494-6.628 0-2.455-2.734-4.09-3.913-6.065z" fill="#57B9D9"/><path d="M70.315 35.67c2.819-2.82 3.796-6.587 2.823-10.892-.81-3.582-3.004-7.367-6.023-10.386-3.997-3.996-9.04-6.38-13.492-6.38-2.885 0-5.477 1.015-7.522 2.935-.088.082-.175.163-.26.248-2.136 2.134-3.23 5.478-3.002 9.174.214 3.473 1.555 6.83 3.803 9.565l-.622.622-32.567 32.568c-.228.228-.5.638-.498 1.294.003 1.108.872 2.565 1.226 2.917.292.291 1.731 1.219 2.918 1.219.651 0 1.059-.27 1.286-.497l2.53-2.515a.36.36 0 0 1 .515-.004.364.364 0 0 1 0 .514l-1.39 1.39a1.134 1.134 0 0 0 .001 1.604l5.427 5.426c.495.496 1.155.77 1.858.77a2.62 2.62 0 0 0 1.863-.77l.993-.995a1.134 1.134 0 0 0 0-1.604l-3.638-3.64a.356.356 0 0 1 0-.513.353.353 0 0 1 .256-.107c.068 0 .167.018.255.106l1.06 1.06a1.132 1.132 0 0 0 1.604 0l2.118-2.118a1.132 1.132 0 0 0 0-1.604l-1.059-1.06a.359.359 0 0 1 0-.513.362.362 0 0 1 .515 0l3.638 3.64a1.133 1.133 0 0 0 1.603 0L37.658 66c.496-.497.77-1.157.77-1.859 0-.704-.273-1.365-.77-1.863l-5.426-5.426a1.131 1.131 0 0 0-1.604 0L28.99 58.49a.357.357 0 0 1-.257.107.352.352 0 0 1-.256-.106.354.354 0 0 1-.107-.257c0-.069.018-.168.106-.256l13.816-13.824 3.986-3.988 5.297-5.3a17.058 17.058 0 0 0 2.706 1.81c.318.172.64.336.968.488a17.098 17.098 0 0 0 3.27 1.12c.817.19 1.646.312 2.477.371.364.026.728.043 1.093.043.147 0 .292-.005.437-.009a13.593 13.593 0 0 0 3.388-.523l.022-.006c1.728-.507 3.241-1.354 4.379-2.492zm-8.202 1.894h-.024a14.66 14.66 0 0 1-2.59-.236 15.835 15.835 0 0 1-7.975-4.014l-23.85 23.863a1.494 1.494 0 0 0 0 2.116 1.493 1.493 0 0 0 2.118 0l1.637-1.638 5.426 5.426a1.498 1.498 0 0 1 0 2.117l-1.123 1.124-3.638-3.64a1.495 1.495 0 0 0-2.118 0 1.492 1.492 0 0 0 0 2.117l1.059 1.06-2.118 2.117-1.06-1.058a1.49 1.49 0 0 0-2.115 0 1.492 1.492 0 0 0 0 2.117l3.638 3.64-.993.993a1.498 1.498 0 0 1-2.118.001l-5.426-5.426c.507-.509 1.389-1.39 1.389-1.39a1.496 1.496 0 1 0-2.116-2.117l-2.532 2.518c-.118.117-.288.165-.485.165-.766 0-1.947-.719-2.119-.89-.217-.216-1.298-2.03-.724-2.603l33.598-33.6.341-.341c-5.334-5.704-5.412-14.13-1.553-17.988.138-.138.278-.269.42-.396 1.92-1.72 4.191-2.456 6.561-2.456 4.429 0 9.205 2.564 12.69 6.05 5.488 5.487 8.695 14.177 3.2 19.673-1.415 1.413-3.443 2.298-5.725 2.589-.546.07-1.106.106-1.675.107z" fill="#004D66"/><path d="M52.102 29.249l.077.08c2.748 2.747 6.708 4.504 10.005 4.504 1.74 0 3.297-.49 4.39-1.584 2.781-2.783 2.704-7.057-.19-10.398-1.36-1.562-3.324-2.027-4.51-2.215-.19-1.188-.648-3.154-2.215-4.507-1.71-1.484-3.666-2.228-5.541-2.228-1.608 0-3.156.55-4.44 1.65a7.386 7.386 0 0 0-.417.384c-3.144 3.143-1.303 10.106 2.841 14.314zm6.814-13.264c.959.83 1.56 2.08 1.836 3.829.077.485.458.866.943.943 1.742.275 2.996.877 3.833 1.839 2.484 2.867 2.585 6.508.244 8.851-1.034 1.034-2.522 1.252-3.589 1.252-3.008 0-6.707-1.677-9.202-4.172-.096-.096-.19-.195-.282-.294-1.751-1.861-3.099-4.35-3.633-6.737-.554-2.472-.19-4.57.997-5.758.07-.07.144-.131.216-.197 1.077-.982 2.395-1.505 3.839-1.505 1.643-.001 3.348.692 4.798 1.95z" fill="#004D66"/><path d="M26.397 40.937a3.215 3.215 0 0 0 3.216-3.214 3.213 3.213 0 1 0-3.215 3.214z" fill="#E8C25A"/><path d="M65.015 66.495c.005-.133.013-.266.013-.398a10.741 10.741 0 0 0-.984-4.503 10.838 10.838 0 0 0-1.716-2.642 10.921 10.921 0 0 0-4.241-2.964 10.676 10.676 0 0 0-1.175-.38 10.787 10.787 0 0 0-2.507-.341c-.071-.002-.142-.006-.214-.006a10.873 10.873 0 0 0-6.204 1.96 10.921 10.921 0 0 0-2.531 2.474 10.787 10.787 0 0 0-2.1 6.372v.03c0 .815.118 1.633.322 2.447.027.107.052.214.083.32 1.877 6.72 9.701 12.974 10.078 13.272l.336.265.347-.249c.107-.076 2.647-1.907 5.227-4.788 1.416-1.582 2.554-3.17 3.409-4.736.496-.91.896-1.81 1.196-2.698.396-1.172.618-2.322.66-3.435zM54.206 80.97c-1.499-1.257-7.57-6.609-9.269-12.128a10.617 10.617 0 0 1-.302-1.233 8.481 8.481 0 0 1-.067-2.726 9.596 9.596 0 0 1 .465-1.981 9.745 9.745 0 0 1 6.17-6.033 9.643 9.643 0 0 1 5.98.002 9.637 9.637 0 0 1 2.875 1.508 9.802 9.802 0 0 1 3.118 4.064 9.677 9.677 0 0 1 .717 3.619v.036c0 .549-.053 1.094-.143 1.634-.25 1.497-.82 2.952-1.567 4.32-.514.94-1.11 1.838-1.745 2.68-2.367 3.137-5.25 5.481-6.232 6.238z" fill="#248FB2"/><path d="M57.818 63.36a3.622 3.622 0 0 0-.794-2.015 3.618 3.618 0 0 0-2.833-1.36c-.069 0-.137.007-.204.011a3.64 3.64 0 0 0-3.42 3.344 3.38 3.38 0 0 0-.015.286 3.656 3.656 0 0 0 1.296 2.78 3.623 3.623 0 0 0 3.905.502 3.657 3.657 0 0 0 2.078-3.282c0-.09-.007-.177-.013-.265zm-6.132.266a2.508 2.508 0 0 1 3.696-2.204 2.523 2.523 0 0 1 1.315 2.204 2.508 2.508 0 0 1-2.506 2.505 2.508 2.508 0 0 1-2.505-2.505z" fill="#248FB2"/><defs><linearGradient id="paint0_linear_9138_62389" x1="40.33" y1="42.718" x2="49.969" y2="42.718" gradientUnits="userSpaceOnUse"><stop stop-color="#BF8C15"/><stop offset="1" stop-color="#8C6301"/></linearGradient><linearGradient id="paint1_linear_9138_62389" x1="38.629" y1="45.044" x2="55.249" y2="45.044" gradientUnits="userSpaceOnUse"><stop stop-color="#BF8C15"/><stop offset="1" stop-color="#8C6301"/></linearGradient><linearGradient id="paint2_linear_9138_62389" x1="58.227" y1="36.858" x2="60.322" y2="36.858" gradientUnits="userSpaceOnUse"><stop stop-color="#BF8C15"/><stop offset="1" stop-color="#8C6301"/></linearGradient><linearGradient id="paint3_linear_9138_62389" x1="38.514" y1="47.848" x2="58.519" y2="47.848" gradientUnits="userSpaceOnUse"><stop stop-color="#BF8C15"/><stop offset="1" stop-color="#8C6301"/></linearGradient><linearGradient id="paint4_linear_9138_62389" x1="39.029" y1="49.998" x2="62.526" y2="49.998" gradientUnits="userSpaceOnUse"><stop stop-color="#BF8C15"/><stop offset="1" stop-color="#8C6301"/></linearGradient><linearGradient id="paint5_linear_9138_62389" x1="62.113" y1="37.276" x2="63.899" y2="37.276" gradientUnits="userSpaceOnUse"><stop stop-color="#BF8C15"/><stop offset="1" stop-color="#8C6301"/></linearGradient><linearGradient id="paint6_linear_9138_62389" x1="40.121" y1="51.293" x2="66.962" y2="51.293" gradientUnits="userSpaceOnUse"><stop stop-color="#BF8C15"/><stop offset="1" stop-color="#8C6301"/></linearGradient><linearGradient id="paint7_linear_9138_62389" x1="52.747" y1="47.556" x2="69.606" y2="47.556" gradientUnits="userSpaceOnUse"><stop stop-color="#BF8C15"/><stop offset="1" stop-color="#8C6301"/></linearGradient><linearGradient id="paint8_linear_9138_62389" x1="44.569" y1="60.665" x2="53.199" y2="60.665" gradientUnits="userSpaceOnUse"><stop stop-color="#BF8C15"/><stop offset="1" stop-color="#8C6301"/></linearGradient><linearGradient id="paint9_linear_9138_62389" x1="41.654" y1="65.764" x2="43.487" y2="65.764" gradientUnits="userSpaceOnUse"><stop stop-color="#BF8C15"/><stop offset="1" stop-color="#8C6301"/></linearGradient><linearGradient id="paint10_linear_9138_62389" x1="43.56" y1="68.705" x2="43.76" y2="68.705" gradientUnits="userSpaceOnUse"><stop stop-color="#BF8C15"/><stop offset="1" stop-color="#8C6301"/></linearGradient><linearGradient id="paint11_linear_9138_62389" x1="44.635" y1="62.7" x2="57.184" y2="62.7" gradientUnits="userSpaceOnUse"><stop stop-color="#BF8C15"/><stop offset="1" stop-color="#8C6301"/></linearGradient><linearGradient id="paint12_linear_9138_62389" x1="56.912" y1="48.853" x2="71.891" y2="48.853" gradientUnits="userSpaceOnUse"><stop stop-color="#BF8C15"/><stop offset="1" stop-color="#8C6301"/></linearGradient><linearGradient id="paint13_linear_9138_62389" x1="56.219" y1="59.55" x2="60.059" y2="59.55" gradientUnits="userSpaceOnUse"><stop stop-color="#BF8C15"/><stop offset="1" stop-color="#8C6301"/></linearGradient><linearGradient id="paint14_linear_9138_62389" x1="45.826" y1="68.503" x2="51.847" y2="68.503" gradientUnits="userSpaceOnUse"><stop stop-color="#BF8C15"/><stop offset="1" stop-color="#8C6301"/></linearGradient><linearGradient id="paint15_linear_9138_62389" x1="55.382" y1="61.783" x2="56.207" y2="61.783" gradientUnits="userSpaceOnUse"><stop stop-color="#BF8C15"/><stop offset="1" stop-color="#8C6301"/></linearGradient><linearGradient id="paint16_linear_9138_62389" x1="59.97" y1="50.802" x2="73.82" y2="50.802" gradientUnits="userSpaceOnUse"><stop stop-color="#BF8C15"/><stop offset="1" stop-color="#8C6301"/></linearGradient><linearGradient id="paint17_linear_9138_62389" x1="48.452" y1="69.977" x2="55.753" y2="69.977" gradientUnits="userSpaceOnUse"><stop stop-color="#BF8C15"/><stop offset="1" stop-color="#8C6301"/></linearGradient><linearGradient id="paint18_linear_9138_62389" x1="57.439" y1="62.503" x2="62.19" y2="62.503" gradientUnits="userSpaceOnUse"><stop stop-color="#BF8C15"/><stop offset="1" stop-color="#8C6301"/></linearGradient><linearGradient id="paint19_linear_9138_62389" x1="62.328" y1="53.253" x2="75.371" y2="53.253" gradientUnits="userSpaceOnUse"><stop stop-color="#BF8C15"/><stop offset="1" stop-color="#8C6301"/></linearGradient><linearGradient id="paint20_linear_9138_62389" x1="64.044" y1="56.228" x2="76.492" y2="56.228" gradientUnits="userSpaceOnUse"><stop stop-color="#BF8C15"/><stop offset="1" stop-color="#8C6301"/></linearGradient><linearGradient id="paint21_linear_9138_62389" x1="51.489" y1="68.338" x2="63.564" y2="68.338" gradientUnits="userSpaceOnUse"><stop stop-color="#BF8C15"/><stop offset="1" stop-color="#8C6301"/></linearGradient><linearGradient id="paint22_linear_9138_62389" x1="64.973" y1="59.908" x2="77.045" y2="59.908" gradientUnits="userSpaceOnUse"><stop stop-color="#BF8C15"/><stop offset="1" stop-color="#8C6301"/></linearGradient><linearGradient id="paint23_linear_9138_62389" x1="55.031" y1="70.466" x2="63.894" y2="70.466" gradientUnits="userSpaceOnUse"><stop stop-color="#BF8C15"/><stop offset="1" stop-color="#8C6301"/></linearGradient><linearGradient id="paint24_linear_9138_62389" x1="63.157" y1="65.114" x2="76.969" y2="65.114" gradientUnits="userSpaceOnUse"><stop stop-color="#BF8C15"/><stop offset="1" stop-color="#8C6301"/></linearGradient><linearGradient id="paint25_linear_9138_62389" x1="59.314" y1="73.454" x2="62.184" y2="73.454" gradientUnits="userSpaceOnUse"><stop stop-color="#BF8C15"/><stop offset="1" stop-color="#8C6301"/></linearGradient><linearGradient id="paint26_linear_9138_62389" x1="65.168" y1="68.442" x2="75.424" y2="68.442" gradientUnits="userSpaceOnUse"><stop stop-color="#BF8C15"/><stop offset="1" stop-color="#8C6301"/></linearGradient></defs></svg>