<svg width="90" height="90" fill="none" xmlns="http://www.w3.org/2000/svg"><path d="M21.369 15.934L15.87 21.31a19.259 19.259 0 0 0-1.79 3.28l10.613-10.374a19.206 19.206 0 0 0-3.325 1.72z" fill="url(#paint0_linear_9138_62196)"/><path d="M28.684 13.103l-15.795 15.44a19.46 19.46 0 0 0-.25 1.776L30.46 12.897c-.6.042-1.194.11-1.777.206z" fill="url(#paint1_linear_9138_62196)"/><path d="M25.579 21.986l9.135-8.929c-.464-.07-.934-.118-1.408-.153L12.58 33.165c.025.472.071.938.13 1.4l9.137-8.93a4.164 4.164 0 0 1 3.732-3.649z" fill="url(#paint2_linear_9138_62196)"/><path d="M26.624 23.757l-3.031 2.964c.095.38.278.725.528 1.012l3.503-3.425a2.45 2.45 0 0 0-1-.55z" fill="url(#paint3_linear_9138_62196)"/><path d="M38.237 13.934c-.39-.137-.784-.26-1.185-.372l-9.105 8.902c.327.177.627.4.895.655l9.395-9.184z" fill="url(#paint4_linear_9138_62196)"/><path d="M13.154 36.926c.103.401.222.795.349 1.186l9.402-9.19a4.167 4.167 0 0 1-.633-.91l-9.118 8.914z" fill="url(#paint5_linear_9138_62196)"/><path d="M27.654 27.804a.56.56 0 0 1 .234-.138c.303-.375.498-.842.537-1.35l-2.313 2.261a2.445 2.445 0 0 0 1.403-.539.556.556 0 0 1 .139-.234z" fill="url(#paint6_linear_9138_62196)"/><path d="M15.016 40.952l10.915-10.67a4.134 4.134 0 0 1-1.325-.233L14.292 40.132c.032.07.066.138.099.208a4.962 4.962 0 0 1 .625.612z" fill="url(#paint7_linear_9138_62196)"/><path d="M30.133 26.175l11.124-10.874a18.905 18.905 0 0 0-1.018-.536L29.93 24.843c.131.404.205.835.205 1.282l-.002.05z" fill="url(#paint8_linear_9138_62196)"/><path d="M43.873 17.064c-.288-.23-.582-.452-.884-.665L29.873 29.22l.772.772 13.228-12.93z" fill="url(#paint9_linear_9138_62196)"/><path d="M16.14 43.31c.093.13.188.366.284.366h.186l13.224-12.908-.773-.763-13.053 12.756c.054.183.1.363.131.55z" fill="url(#paint10_linear_9138_62196)"/><path d="M17.798 45.287c.25.265.508.495.772.746l1.299-1.298h-1.564l-.507.552z" fill="url(#paint11_linear_9138_62196)"/><path d="M21.03 43.676l10.989-10.724-.773-.782-11.78 11.506h1.563z" fill="url(#paint12_linear_9138_62196)"/><path d="M45.53 19.815v-1.312c0-.037-.097-.075-.134-.111L32.07 31.404l.793.773 12.666-12.363z" fill="url(#paint13_linear_9138_62196)"/><path d="M45.53 22.606L34.266 33.589l.786.773L45.53 24.134v-1.528z" fill="url(#paint14_linear_9138_62196)"/><path d="M25.448 43.676l8.755-8.54-.773-.782-9.546 9.322h1.564z" fill="url(#paint15_linear_9138_62196)"/><path d="M48.01 21.646a19.56 19.56 0 0 0-.634-.913l-.788.764v1.528l1.422-1.379z" fill="url(#paint16_linear_9138_62196)"/><path d="M20.092 47.364c.293.225.59.416.897.624l3.298-3.253h-1.563l-2.632 2.629z" fill="url(#paint17_linear_9138_62196)"/><path d="M28.303 43.676h.417c.313 0 .567.272.568.585l2.907-2.833a13.63 13.63 0 0 1 .612-2.142l-4.504 4.39z" fill="url(#paint18_linear_9138_62196)"/><path d="M49.53 24.48a19.283 19.283 0 0 0-.498-1.047l-2.444 2.384v1.528l2.943-2.866z" fill="url(#paint19_linear_9138_62196)"/><path d="M45.53 27.514v-.589l-4.543 4.415a13.22 13.22 0 0 1 2.127-.563l2.803-2.721a.548.548 0 0 1-.388-.542z" fill="url(#paint20_linear_9138_62196)"/><path d="M22.75 49.084c.34.182.689.323 1.04.485l4.916-4.834h-1.564l-4.391 4.349z" fill="url(#paint21_linear_9138_62196)"/><path d="M25.827 50.453c.396.13.795.25 1.201.355l5.026-4.913a13.51 13.51 0 0 1-.114-1.418l-6.113 5.976z" fill="url(#paint23_linear_9138_62196)"/><path d="M50.617 27.75c-.095-.41-.2-.816-.321-1.215l-4.146 4.053c.478.024.947.075 1.411.148l3.056-2.987z" fill="url(#paint24_linear_9138_62196)"/><path d="M51.109 31.59c-.014-.486-.039-.97-.088-1.446L49.838 31.3c.38.131.751.28 1.115.442l.156-.152z" fill="url(#paint26_linear_9138_62196)"/><path d="M29.423 51.257c.473.06.949.107 1.432.131l2.13-2.081a13.34 13.34 0 0 1-.416-1.125l-3.146 3.075z" fill="url(#paint27_linear_9138_62196)"/><path d="M33.782 51.315c.078-.007.154-.02.232-.028-.026-.041-.05-.083-.075-.124l-.157.152z" fill="url(#paint28_linear_9138_62196)"/><path d="M56.953 46.78c-1.222 5.222-5.914 9.124-11.503 9.124 5.59 0 10.281-3.902 11.503-9.125z" fill="#2484A7"/><path d="M45 57.591a13.41 13.41 0 0 1-5.08-1.2c-1.193 1.968-4.008 3.927-4.008 6.367 0 2.48 4.727 3.386 5.885 5.389.654 1.129.418 3.21.361 5.062A6.415 6.415 0 0 1 45 72.285V57.59z" fill="#99E6FF"/><path d="M42.213 75.253c.135.628.397 1.13.88 1.409 1.754 1.016 4.698 1.601 7.068 1.73a4.728 4.728 0 0 0-4.71-4.432 4.704 4.704 0 0 0-3.238 1.293z" fill="#248FB2"/><path d="M46.059 57.591v14.694c3.176.277 5.632 2.834 5.826 6.006 2.053-.703 3.43-4.141 5.224-5.18 2.066-1.195 5.888-.743 7.084-2.809.652-1.126.938-2.587 1.067-4.092L53.796 54.727a13.406 13.406 0 0 1-7.737 2.864z" fill="#57B9D9"/><path d="M54.64 53.989l10.7 10.7c.018-.663.02-1.315.02-1.931 0-2.48-.075-5.507-1.234-7.51-1.195-2.066-2.383-6.106-4.45-7.302a11.4 11.4 0 0 0-1.121-.555 13.537 13.537 0 0 1-3.914 6.598z" fill="#248FB2"/><path d="M78.536 74.528c-.942 0-1.81.319-2.508.849L65.34 64.687l-10.7-10.698a13.536 13.536 0 0 0 4.328-9.9c0-3.525-1.356-6.736-3.573-9.145l11.732-11.73a6.4 6.4 0 0 0 4.225 1.59 6.436 6.436 0 0 0 6.43-6.43 6.436 6.436 0 0 0-6.43-6.428 6.436 6.436 0 0 0-6.428 6.428c0 1.52.531 2.918 1.417 4.02L54.593 34.142a13.577 13.577 0 0 0-4.755-2.84 13.42 13.42 0 0 0-2.277-.565 13.437 13.437 0 0 0-6.6.604 13.556 13.556 0 0 0-5.413 3.557l-.534-.535-.773-.773-1.411-1.411-.773-.773-1.412-1.411-.772-.773-.588-.587a4.135 4.135 0 0 0 .848-2.459l.002-.05a4.145 4.145 0 0 0-1.294-3.007 4.134 4.134 0 0 0-3.263-1.133 4.164 4.164 0 0 0-3.763 4.14 4.154 4.154 0 0 0 1.09 2.796 4.165 4.165 0 0 0 3.026 1.36c.015 0 .03.003.044.003.943 0 1.81-.319 2.508-.849l.579.579.773.772 1.411 1.412.773.773 1.411 1.41.773.774.607.607a13.552 13.552 0 0 0-2.002 3.547 13.488 13.488 0 0 0-.876 4.777c0 .131.006.26.01.391a13.381 13.381 0 0 0 1.044 4.83c.27.645.59 1.265.953 1.855.026.041.05.083.075.124a13.61 13.61 0 0 0 1.49 1.944l-15.36 15.361a4.327 4.327 0 0 0-2.752-.984 4.354 4.354 0 0 0-4.35 4.348 4.354 4.354 0 0 0 4.35 4.35 4.354 4.354 0 0 0 4.349-4.35c0-.946-.308-1.82-.823-2.534l15.388-15.388c1.047.963 2.306 1.76 3.615 2.357a13.408 13.408 0 0 0 5.08 1.2v14.694a6.445 6.445 0 0 0-2.85.924c-1.84 1.132-3.1 3.164-3.1 5.479 0 3.544 2.87 6.428 6.414 6.428 3.544 0 6.42-2.884 6.42-6.428 0-.134.012-.265.004-.396a6.398 6.398 0 0 0-5.83-6.006V57.59a13.403 13.403 0 0 0 7.736-2.864L65.268 66.21l9.963 9.97a4.137 4.137 0 0 0-.85 2.507 4.162 4.162 0 0 0 4.157 4.16 4.164 4.164 0 0 0 4.159-4.16 4.165 4.165 0 0 0-4.16-4.16zm-7.183-60.882a4.732 4.732 0 0 1 4.727 4.727 4.733 4.733 0 0 1-4.727 4.727 4.733 4.733 0 0 1-4.728-4.727 4.732 4.732 0 0 1 4.728-4.727zM25.975 28.584a2.45 2.45 0 0 1-1.854-.85 2.447 2.447 0 0 1-.528-1.012 2.452 2.452 0 0 1-.076-.596 2.46 2.46 0 0 1 2.458-2.457 2.453 2.453 0 0 1 1.65.64 2.448 2.448 0 0 1 .263 3.358.568.568 0 0 0-.235.138.558.558 0 0 0-.138.234 2.44 2.44 0 0 1-1.403.539c-.046.002-.09.006-.137.006zm-8.583 46.02a2.65 2.65 0 0 1-2.648-2.647 2.65 2.65 0 0 1 2.648-2.647 2.65 2.65 0 0 1 2.646 2.647 2.65 2.65 0 0 1-2.646 2.647zm32.77 3.79c.005.097.014.195.014.295a4.732 4.732 0 0 1-4.726 4.726 4.732 4.732 0 0 1-4.727-4.726 4.71 4.71 0 0 1 1.49-3.436 4.704 4.704 0 0 1 3.237-1.292 4.729 4.729 0 0 1 4.711 4.432zM45.45 55.903c-6.516 0-11.818-5.3-11.818-11.817 0-6.516 5.302-11.817 11.818-11.817.177 0 .353.006.528.014a11.708 11.708 0 0 1 3.652.753c4.458 1.691 7.637 6.005 7.637 11.05 0 .927-.11 1.827-.314 2.693-1.222 5.222-5.914 9.124-11.503 9.124zm33.086 25.241a2.46 2.46 0 0 1-2.457-2.457 2.46 2.46 0 0 1 2.457-2.459 2.462 2.462 0 0 1 2.46 2.459 2.461 2.461 0 0 1-2.46 2.457z" fill="#004D66"/><path d="M74.196 44.47H62.173c-.314 0-.568.217-.568.53 0 .313.254.53.568.53h11.995c.104 1.058.561 2.14 1.372 2.951a4.76 4.76 0 0 0 3.375 1.422 4.736 4.736 0 0 0 3.377-1.386 4.774 4.774 0 0 0 0-6.744 4.743 4.743 0 0 0-3.377-1.395 4.728 4.728 0 0 0-3.375 1.389c-.762.761-1.207 1.645-1.344 2.704zm2.547-1.488c.58-.58 1.352-.9 2.172-.9.821 0 1.593.32 2.173.9a3.077 3.077 0 0 1 0 4.343c-.58.581-1.353.9-2.173.9a3.05 3.05 0 0 1-2.172-.899 3.075 3.075 0 0 1 0-4.344zM45.53 22.606v4.909c0 .257.146.472.38.541.051.015.08.026.135.026.314 0 .543-.254.543-.568V12.565c.794-.107 1.634-.483 2.245-1.095a3.863 3.863 0 0 0 .005-5.456 3.826 3.826 0 0 0-2.725-1.13c-1.03 0-1.998.401-2.726 1.13a3.832 3.832 0 0 0-1.13 2.729c0 1.03.428 2 1.157 2.727a3.878 3.878 0 0 0 2.115 1.074v10.061zm-.938-12.339a2.142 2.142 0 0 1-.632-1.525c0-.576.224-1.117.632-1.524a2.142 2.142 0 0 1 1.524-.632 2.16 2.16 0 0 1 1.526 3.681c-.408.407-.95.632-1.526.632a2.143 2.143 0 0 1-1.524-.632zM28.72 43.676H16.193c-.012 0-.03-.238-.053-.365a4.74 4.74 0 0 0-.131-.545 4.899 4.899 0 0 0-1.617-2.427 4.912 4.912 0 0 0-3.127-1.11 4.928 4.928 0 0 0-3.504 1.45 4.963 4.963 0 0 0 0 7.006 4.928 4.928 0 0 0 3.504 1.45c1.323 0 2.567-.572 3.503-1.507.795-.796 1.257-1.834 1.396-2.892H28.72c.314 0 .662-.142.662-.455 0-.314-.349-.605-.662-.605zm-15.157 2.805a3.23 3.23 0 0 1-2.3.952 3.235 3.235 0 0 1-2.3-.952 3.26 3.26 0 0 1 0-4.598 3.235 3.235 0 0 1 2.3-.953c.87 0 1.685.338 2.3.952a3.257 3.257 0 0 1 0 4.599z" fill="#248FB2"/><path d="M30.135 73.11a3.214 3.214 0 1 0 0-6.428 3.214 3.214 0 0 0 0 6.427z" fill="#E8C25A"/><defs><linearGradient id="paint0_linear_9138_62196" x1="14.082" y1="19.401" x2="24.694" y2="19.401" gradientUnits="userSpaceOnUse"><stop stop-color="#BF8C15"/><stop offset="1" stop-color="#8C6301"/></linearGradient><linearGradient id="paint1_linear_9138_62196" x1="12.639" y1="21.608" x2="30.461" y2="21.608" gradientUnits="userSpaceOnUse"><stop stop-color="#BF8C15"/><stop offset="1" stop-color="#8C6301"/></linearGradient><linearGradient id="paint2_linear_9138_62196" x1="12.58" y1="23.735" x2="34.714" y2="23.735" gradientUnits="userSpaceOnUse"><stop stop-color="#BF8C15"/><stop offset="1" stop-color="#8C6301"/></linearGradient><linearGradient id="paint3_linear_9138_62196" x1="23.593" y1="25.745" x2="27.625" y2="25.745" gradientUnits="userSpaceOnUse"><stop stop-color="#BF8C15"/><stop offset="1" stop-color="#8C6301"/></linearGradient><linearGradient id="paint4_linear_9138_62196" x1="27.947" y1="18.34" x2="38.237" y2="18.34" gradientUnits="userSpaceOnUse"><stop stop-color="#BF8C15"/><stop offset="1" stop-color="#8C6301"/></linearGradient><linearGradient id="paint5_linear_9138_62196" x1="13.154" y1="33.062" x2="22.905" y2="33.062" gradientUnits="userSpaceOnUse"><stop stop-color="#BF8C15"/><stop offset="1" stop-color="#8C6301"/></linearGradient><linearGradient id="paint6_linear_9138_62196" x1="26.112" y1="27.446" x2="28.425" y2="27.446" gradientUnits="userSpaceOnUse"><stop stop-color="#BF8C15"/><stop offset="1" stop-color="#8C6301"/></linearGradient><linearGradient id="paint7_linear_9138_62196" x1="14.292" y1="35.5" x2="25.931" y2="35.5" gradientUnits="userSpaceOnUse"><stop stop-color="#BF8C15"/><stop offset="1" stop-color="#8C6301"/></linearGradient><linearGradient id="paint8_linear_9138_62196" x1="29.93" y1="20.47" x2="41.257" y2="20.47" gradientUnits="userSpaceOnUse"><stop stop-color="#BF8C15"/><stop offset="1" stop-color="#8C6301"/></linearGradient><linearGradient id="paint9_linear_9138_62196" x1="29.873" y1="23.196" x2="43.873" y2="23.196" gradientUnits="userSpaceOnUse"><stop stop-color="#BF8C15"/><stop offset="1" stop-color="#8C6301"/></linearGradient><linearGradient id="paint10_linear_9138_62196" x1="16.008" y1="36.841" x2="29.834" y2="36.841" gradientUnits="userSpaceOnUse"><stop stop-color="#BF8C15"/><stop offset="1" stop-color="#8C6301"/></linearGradient><linearGradient id="paint11_linear_9138_62196" x1="17.798" y1="45.384" x2="19.869" y2="45.384" gradientUnits="userSpaceOnUse"><stop stop-color="#BF8C15"/><stop offset="1" stop-color="#8C6301"/></linearGradient><linearGradient id="paint12_linear_9138_62196" x1="19.466" y1="37.923" x2="32.019" y2="37.923" gradientUnits="userSpaceOnUse"><stop stop-color="#BF8C15"/><stop offset="1" stop-color="#8C6301"/></linearGradient><linearGradient id="paint13_linear_9138_62196" x1="32.07" y1="25.285" x2="45.529" y2="25.285" gradientUnits="userSpaceOnUse"><stop stop-color="#BF8C15"/><stop offset="1" stop-color="#8C6301"/></linearGradient><linearGradient id="paint14_linear_9138_62196" x1="34.267" y1="28.484" x2="45.529" y2="28.484" gradientUnits="userSpaceOnUse"><stop stop-color="#BF8C15"/><stop offset="1" stop-color="#8C6301"/></linearGradient><linearGradient id="paint15_linear_9138_62196" x1="23.884" y1="39.016" x2="34.203" y2="39.016" gradientUnits="userSpaceOnUse"><stop stop-color="#BF8C15"/><stop offset="1" stop-color="#8C6301"/></linearGradient><linearGradient id="paint16_linear_9138_62196" x1="46.588" y1="21.879" x2="48.01" y2="21.879" gradientUnits="userSpaceOnUse"><stop stop-color="#BF8C15"/><stop offset="1" stop-color="#8C6301"/></linearGradient><linearGradient id="paint17_linear_9138_62196" x1="20.092" y1="46.362" x2="24.287" y2="46.362" gradientUnits="userSpaceOnUse"><stop stop-color="#BF8C15"/><stop offset="1" stop-color="#8C6301"/></linearGradient><linearGradient id="paint18_linear_9138_62196" x1="28.303" y1="41.774" x2="32.807" y2="41.774" gradientUnits="userSpaceOnUse"><stop stop-color="#BF8C15"/><stop offset="1" stop-color="#8C6301"/></linearGradient><linearGradient id="paint19_linear_9138_62196" x1="46.588" y1="25.389" x2="49.531" y2="25.389" gradientUnits="userSpaceOnUse"><stop stop-color="#BF8C15"/><stop offset="1" stop-color="#8C6301"/></linearGradient><linearGradient id="paint20_linear_9138_62196" x1="40.987" y1="29.133" x2="45.917" y2="29.133" gradientUnits="userSpaceOnUse"><stop stop-color="#BF8C15"/><stop offset="1" stop-color="#8C6301"/></linearGradient><linearGradient id="paint21_linear_9138_62196" x1="22.751" y1="47.152" x2="28.707" y2="47.152" gradientUnits="userSpaceOnUse"><stop stop-color="#BF8C15"/><stop offset="1" stop-color="#8C6301"/></linearGradient><linearGradient id="paint22_linear_9138_62196" x1="45.45" y1="32.277" x2="45.978" y2="32.277" gradientUnits="userSpaceOnUse"><stop stop-color="#BF8C15"/><stop offset="1" stop-color="#8C6301"/></linearGradient><linearGradient id="paint23_linear_9138_62196" x1="25.827" y1="47.643" x2="32.054" y2="47.643" gradientUnits="userSpaceOnUse"><stop stop-color="#BF8C15"/><stop offset="1" stop-color="#8C6301"/></linearGradient><linearGradient id="paint24_linear_9138_62196" x1="46.15" y1="28.636" x2="50.617" y2="28.636" gradientUnits="userSpaceOnUse"><stop stop-color="#BF8C15"/><stop offset="1" stop-color="#8C6301"/></linearGradient><linearGradient id="paint25_linear_9138_62196" x1="48.45" y1="32.847" x2="49.629" y2="32.847" gradientUnits="userSpaceOnUse"><stop stop-color="#BF8C15"/><stop offset="1" stop-color="#8C6301"/></linearGradient><linearGradient id="paint26_linear_9138_62196" x1="49.838" y1="30.943" x2="51.109" y2="30.943" gradientUnits="userSpaceOnUse"><stop stop-color="#BF8C15"/><stop offset="1" stop-color="#8C6301"/></linearGradient><linearGradient id="paint27_linear_9138_62196" x1="29.423" y1="49.785" x2="32.984" y2="49.785" gradientUnits="userSpaceOnUse"><stop stop-color="#BF8C15"/><stop offset="1" stop-color="#8C6301"/></linearGradient><linearGradient id="paint28_linear_9138_62196" x1="33.782" y1="51.239" x2="34.014" y2="51.239" gradientUnits="userSpaceOnUse"><stop stop-color="#BF8C15"/><stop offset="1" stop-color="#8C6301"/></linearGradient></defs></svg>