<svg width="90" height="90" fill="none" xmlns="http://www.w3.org/2000/svg"><path d="M58.443 18.325a19.274 19.274 0 0 0-3.676 2.064l-4.276 4.18a19.167 19.167 0 0 0-1.897 3.146l.12.12 9.73-9.51z" fill="url(#paint0_linear_9138_62118)"/><path d="M64.342 16.878a19.2 19.2 0 0 0-1.806.237l-1.852 1.81c.158.34.346.668.56.982l3.098-3.029z" fill="url(#paint1_linear_9138_62118)"/><path d="M46.78 34.046l13.232-12.935a8.506 8.506 0 0 1-.602-.94L47.055 32.248c-.12.59-.21 1.19-.275 1.798z" fill="url(#paint2_linear_9138_62118)"/><path d="M46.806 38.34l5.064-4.95a.848.848 0 0 1 1.21-1.183l9.177-8.971a8.766 8.766 0 0 1-.884-.665L46.692 36.92c.02.479.06.951.114 1.42z" fill="url(#paint3_linear_9138_62118)"/><path d="M68.64 16.996c-.467-.065-.94-.113-1.417-.144l-4.629 4.525c.29.237.597.447.917.633l5.13-5.014z" fill="url(#paint4_linear_9138_62118)"/><path d="M47.232 40.713c.1.406.211.807.337 1.203l6.482-6.337-.774-.774-6.045 5.908z" fill="url(#paint5_linear_9138_62118)"/><path d="M55.268 34.39l10.12-9.895a8.632 8.632 0 0 1-1.232-.326l-9.663 9.446.775.774z" fill="url(#paint6_linear_9138_62118)"/><path d="M72.193 17.843a18.717 18.717 0 0 0-1.192-.366l-5.44 5.318c.46.096.933.148 1.413.15l5.22-5.102z" fill="url(#paint7_linear_9138_62118)"/><path d="M48.845 44.984l21.476-20.993a8.643 8.643 0 0 1-2.155.577L48.344 43.946c.157.352.324.698.501 1.038z" fill="url(#paint8_linear_9138_62118)"/><path d="M72.478 20.388l.756.756 2.004-1.96a19.26 19.26 0 0 0-1.027-.524l-2.703 2.64c.126-.106.25-.215.369-.33l.601-.583z" fill="url(#paint9_linear_9138_62118)"/><path d="M52.19 46.036l6.229-6.089-.095-.095a.851.851 0 0 1 1.204-1.203l.108.108L74.2 24.522c-.08-.083-.159-.165-.247-.253l-.524-.524L50.86 45.809c.453.07.896.147 1.33.227z" fill="url(#paint10_linear_9138_62118)"/><path d="M75.417 23.332l2.454-2.4c-.29-.228-.587-.448-.89-.66l-2.336 2.284.51.51c.09.089.177.178.262.266z" fill="url(#paint11_linear_9138_62118)"/><path d="M50.696 47.497l-.321-.052.32.052z" fill="url(#paint12_linear_9138_62118)"/><path d="M61.722 40.844l12.23-12.23c1.034-1.034 1.475-1.683 1.474-2.173 0-.087-.02-.183-.049-.282l-14.33 14.01.675.675z" fill="url(#paint13_linear_9138_62118)"/><path d="M55.248 46.717c.161.043.313.088.469.132l4.802-4.802-.689-.69-5.296 5.177c.242.06.481.12.714.183z" fill="url(#paint14_linear_9138_62118)"/><path d="M80.143 23.03a19.397 19.397 0 0 0-.766-.782l-2.71 2.65c.214.367.362.735.425 1.114l3.05-2.982z" fill="url(#paint15_linear_9138_62118)"/><path d="M82.057 25.478a19.312 19.312 0 0 0-.634-.908L57.888 47.577c.385.152.745.31 1.079.472l23.09-22.57z" fill="url(#paint17_linear_9138_62118)"/><path d="M61.48 49.913l22.116-21.618c-.157-.353-.323-.7-.5-1.042l-22.38 21.879c.307.252.56.513.764.781z" fill="url(#paint19_linear_9138_62118)"/><path d="M60.258 51.108c-.134-.261-.384-.53-.744-.801.36.27.61.54.744.8z" fill="url(#paint20_linear_9138_62118)"/><path d="M62.142 53.586l22.554-22.049c-.099-.407-.206-.81-.33-1.206L62.094 52.103l.01.31c.013.334.026.73.038 1.173z" fill="url(#paint22_linear_9138_62118)"/><path d="M85.117 33.917l-21.768 21.28c.468.063.942.11 1.42.14l20.454-19.995a19.71 19.71 0 0 0-.106-1.425z" fill="url(#paint23_linear_9138_62118)"/><path d="M69.482 55.05l15.353-15.01c.124-.592.218-1.196.285-1.807L67.665 55.298c.614-.055 1.22-.138 1.817-.249z" fill="url(#paint24_linear_9138_62118)"/><path d="M77.463 51.568l3.678-3.595a19.279 19.279 0 0 0 2.329-3.807l-9.842 9.62a19.271 19.271 0 0 0 3.835-2.218z" fill="url(#paint25_linear_9138_62118)"/><path d="M17.95 56.466c-.028-1.704.02-3.108.054-4.053.013-.379.023-.671.023-.863 0-1.965 2.363-3.636 6.833-4.833 3.061-.82 6.873-1.363 11.012-1.581a4.718 4.718 0 0 1-.215-.675c-.236-1.02-.205-2.314-.257-3.594a6.947 6.947 0 0 0-5.238 2.042c-.028.033-.052.06-.077.084l-.6.615-2.694-2.694c-2.618-2.618-2.618-4.132 0-6.751l1.081-1.082c-.203-.07-.404-.136-.596-.194-2.284-.693-5.718-1.575-8.043-1.037-2.255.52-3.459 4.385-5.27 6.078-1.813 1.694-1.72 3.858-2.392 6.072-.693 2.284-5.049 4.772-4.512 7.098.436 1.886 3.522 2.85 5.509 4.177.285-.024.57-.041.853-.041 1.69 0 3.31.458 4.529 1.232z" fill="#57B9D9"/><path d="M29.599 33.76l-1.605 1.605c-2.025 2.026-1.872 2.474 0 4.346l1.5 1.5a8.632 8.632 0 0 1 5.615-2.054c.044 0 .089.003.134.004-.15-.912-.437-1.742-1.016-2.362-1.149-1.228-2.918-2.28-4.628-3.04z" fill="#99E6FF"/><path d="M15.104 57.121c.252.095.51.167.774.222a6.801 6.801 0 0 0-.774-.222z" fill="#2484A7"/><path d="M75.155 23.065l-2.677-2.677-.601.583a6.962 6.962 0 0 1-4.872 1.974 6.943 6.943 0 0 1-4.94-2.046c-2.684-2.684-2.717-7.086-.072-9.813l.583-.601L59.9 7.809c-1.185-1.184-2.212-1.973-3.376-1.973-1.165 0-2.191.788-3.376 1.973L26.791 34.164c-2.618 2.619-2.618 4.133 0 6.751l2.694 2.694.6-.615c.025-.025.049-.051.077-.084a6.948 6.948 0 0 1 4.947-2.05 6.95 6.95 0 0 1 4.947 2.05 6.951 6.951 0 0 1 1.68 2.71c.59.012 1.182.005 1.774-.001a8.641 8.641 0 0 0-2.25-3.914 8.641 8.641 0 0 0-6.15-2.547 8.63 8.63 0 0 0-5.615 2.054l-1.5-1.5c-1.872-1.872-2.025-2.32-.001-4.346l12.923-12.922.563.563a.847.847 0 0 0 1.202 0 .85.85 0 0 0 0-1.203l-.562-.563 12.23-12.23c1.033-1.033 1.683-1.474 2.172-1.474.49 0 1.14.441 2.173 1.475l1.52 1.52c-2.715 3.408-2.492 8.433.646 11.57a8.632 8.632 0 0 0 6.144 2.545 8.65 8.65 0 0 0 5.426-1.899l1.52 1.521c1.034 1.034 1.475 1.684 1.475 2.173 0 .49-.44 1.139-1.474 2.172l-12.23 12.23-2.194-2.195a.85.85 0 1 0-1.204 1.204l2.195 2.194-5.319 5.32c.439.18.852.407 1.282.611.117.055.235.109.352.162l18.322-18.321c1.184-1.184 1.973-2.211 1.973-3.376 0-1.166-.79-2.193-1.974-3.378z" fill="#248FB2"/><path d="M53.11 32.232c-.01-.01-.02-.016-.03-.025a.848.848 0 0 0-1.21 1.183c.013.015.023.031.037.045l1.37 1.37.774.774.262.263a.848.848 0 0 0 1.203 0 .851.851 0 0 0 0-1.204l-.248-.248-.775-.775-1.383-1.383zm-4.612-2.559a.85.85 0 0 0 .601-1.453l-.385-.384-.12-.12-1.901-1.902a.85.85 0 1 0-1.203 1.203l2.406 2.407a.85.85 0 0 0 .602.25z" fill="#076B8C"/><path d="M62.105 52.413l-.01-.31c-.008-.23-.014-.418-.014-.553 0-.572-.206-1.119-.601-1.636a4.671 4.671 0 0 0-.765-.782c-.466-.381-1.052-.742-1.748-1.083-.334-.162-.694-.32-1.079-.472-.117-.046-.23-.094-.353-.14l-1.818-.588c-.156-.044-.308-.09-.469-.132a41.862 41.862 0 0 0-3.058-.68 47.059 47.059 0 0 0-1.33-.228c-2.31-.362-4.847-.604-7.506-.714-.422-.012-1.431-.062-1.843-.053a79.797 79.797 0 0 0-5.64.094c-4.138.218-7.95.761-11.01 1.58-4.471 1.198-6.834 2.87-6.834 4.834 0 .192-.01.485-.023.863-.033.945-.082 2.35-.054 4.053-1.22-.774-2.84-1.232-4.53-1.232-.282 0-.568.017-.852.042a10.41 10.41 0 0 0-1.659.276c-3.822.962-7.116 4.735-5.861 10.996 1.268 6.34 6.624 9.752 10.824 10.748a12.81 12.81 0 0 0 2.945.36c1.975 0 3.447-.42 4.54-1.302a19.397 19.397 0 0 0 1.73 2.064c3.681 3.813 8.717 5.747 14.967 5.747s11.287-1.934 14.968-5.747c3.299-3.416 5.486-8.303 6.502-14.526.682-4.174.68-7.951.617-10.306a129.15 129.15 0 0 0-.036-1.173zm-22.051-5.685a81.733 81.733 0 0 1 3.684.085c2.452.113 4.674.335 6.636.632l.321.052a43.467 43.467 0 0 1 3.643.731c.677.17 1.302.349 1.872.535l.345.117c.405.14.781.282 1.125.427.773.327 1.387.664 1.833 1 .36.27.61.54.745.8.078.15.121.299.121.442 0 1.469-4.117 3.359-11.23 4.275a64.28 64.28 0 0 1-2.894.302 75.133 75.133 0 0 1-4.036.215c-.705.019-1.426.03-2.166.03-12.592 0-20.325-2.809-20.325-4.822s7.733-4.82 20.326-4.82zM18.23 62.953a.848.848 0 0 0 .258.312c.031.208.062.416.096.627.508 3.11 1.309 5.887 2.394 8.313-.415.248-1.35.59-2.586.59-.485 0-.96-.055-1.414-.161-2.819-.668-6.403-2.91-7.229-7.026-.854-4.26 1.57-5.218 2.332-5.41.28-.07.652-.109 1.045-.109 1.808 0 4.098.752 5.104 2.864zm.587 13a11.09 11.09 0 0 1-2.553-.314c-3.71-.879-8.438-3.875-9.548-9.426-.746-3.72.39-7.95 4.609-9.01a8.571 8.571 0 0 1 2.094-.267c.606 0 1.17.069 1.685.185.272.062.53.136.774.222.882.314 1.564.772 1.981 1.244l.099 1.38c-1.45-1.133-3.283-1.58-4.832-1.58-.537 0-1.042.056-1.46.16a4.818 4.818 0 0 0-3.041 2.3c-.769 1.347-.953 3.061-.545 5.095.983 4.907 5.196 7.563 8.505 8.348a7.85 7.85 0 0 0 1.806.207c1.215 0 2.42-.281 3.261-.724l.55.811c.068.116.136.23.206.344-.797.705-1.935 1.026-3.591 1.026zm34.981 1.283l-.067.065c-3.343 3.424-7.944 5.162-13.677 5.162a26.03 26.03 0 0 1-2.057-.08c-.017-.001-.036-.001-.053-.003-.213-.016-.422-.041-.631-.064-.127-.013-.258-.023-.383-.038-.96-.119-1.88-.295-2.763-.527-.038-.01-.077-.017-.115-.027-.22-.06-.434-.126-.65-.192-.083-.026-.17-.048-.253-.075-.182-.059-.36-.125-.539-.189-.111-.04-.226-.076-.336-.118-.164-.062-.323-.132-.484-.199-.12-.05-.244-.096-.363-.148a16.098 16.098 0 0 1-5.117-3.567 18.049 18.049 0 0 1-1.977-2.456.842.842 0 0 0-.118-.264l-.592-.87c-2.302-3.965-3.602-9.22-3.896-15.702a65.097 65.097 0 0 1-.062-3.768c1.15.844 2.89 1.589 5.195 2.207 4.07 1.09 9.466 1.69 15.194 1.69a79.14 79.14 0 0 0 4.377-.12 72.004 72.004 0 0 0 2.362-.17c3.147-.28 6.036-.753 8.455-1.4 2.056-.551 3.659-1.204 4.798-1.937.138-.089.273-.179.397-.27.132 10.598-2.1 18.352-6.645 23.06z" fill="#004D66"/><path d="M70.522 63.731l-.623-3.053c.573-.027 1.153.1 1.777.385a.425.425 0 0 0 .29.03c.26-.052.432-.28.38-.54-.039-.186-.175-.286-.331-.358-.719-.304-1.417-.445-2.25-.365l-.083-.407a.416.416 0 0 0-.477-.315.415.415 0 0 0-.314.476l.078.383c-1.505.384-2.389 1.542-2.13 2.816.265 1.297 1.207 1.813 3.125 1.873l.633 3.102c-.873.075-1.626-.144-2.394-.567a.463.463 0 0 0-.305-.04.462.462 0 0 0-.366.537.47.47 0 0 0 .29.353c.932.466 1.876.673 2.907.553l.184.902c.043.21.266.358.476.315a.415.415 0 0 0 .315-.477l-.18-.877c1.525-.414 2.427-1.55 2.157-2.873-.255-1.248-1.195-1.816-3.16-1.853zm-2.743-1.204c-.154-.754.355-1.476 1.396-1.74l.595 2.918c-1.42-.084-1.845-.461-1.991-1.178zm3.542 5.122l-.608-2.978c1.418.07 1.88.44 2.029 1.169.166.816-.37 1.53-1.421 1.809z" fill="#076B8C"/><path d="M24.93 27.16a3.214 3.214 0 1 0 0-6.43 3.214 3.214 0 0 0 0 6.43z" fill="#E8C25A"/><defs><linearGradient id="paint0_linear_9138_62118" x1="48.594" y1="23.08" x2="58.444" y2="23.08" gradientUnits="userSpaceOnUse"><stop stop-color="#BF8C15"/><stop offset="1" stop-color="#8C6301"/></linearGradient><linearGradient id="paint1_linear_9138_62118" x1="60.684" y1="18.392" x2="64.342" y2="18.392" gradientUnits="userSpaceOnUse"><stop stop-color="#BF8C15"/><stop offset="1" stop-color="#8C6301"/></linearGradient><linearGradient id="paint2_linear_9138_62118" x1="46.78" y1="27.108" x2="60.012" y2="27.108" gradientUnits="userSpaceOnUse"><stop stop-color="#BF8C15"/><stop offset="1" stop-color="#8C6301"/></linearGradient><linearGradient id="paint3_linear_9138_62118" x1="46.692" y1="30.456" x2="62.257" y2="30.456" gradientUnits="userSpaceOnUse"><stop stop-color="#BF8C15"/><stop offset="1" stop-color="#8C6301"/></linearGradient><linearGradient id="paint4_linear_9138_62118" x1="62.594" y1="19.431" x2="68.64" y2="19.431" gradientUnits="userSpaceOnUse"><stop stop-color="#BF8C15"/><stop offset="1" stop-color="#8C6301"/></linearGradient><linearGradient id="paint5_linear_9138_62118" x1="47.232" y1="38.36" x2="54.051" y2="38.36" gradientUnits="userSpaceOnUse"><stop stop-color="#BF8C15"/><stop offset="1" stop-color="#8C6301"/></linearGradient><linearGradient id="paint6_linear_9138_62118" x1="54.493" y1="29.279" x2="65.388" y2="29.279" gradientUnits="userSpaceOnUse"><stop stop-color="#BF8C15"/><stop offset="1" stop-color="#8C6301"/></linearGradient><linearGradient id="paint7_linear_9138_62118" x1="65.561" y1="20.211" x2="72.193" y2="20.211" gradientUnits="userSpaceOnUse"><stop stop-color="#BF8C15"/><stop offset="1" stop-color="#8C6301"/></linearGradient><linearGradient id="paint8_linear_9138_62118" x1="48.344" y1="34.488" x2="70.321" y2="34.488" gradientUnits="userSpaceOnUse"><stop stop-color="#BF8C15"/><stop offset="1" stop-color="#8C6301"/></linearGradient><linearGradient id="paint9_linear_9138_62118" x1="71.508" y1="19.98" x2="75.238" y2="19.98" gradientUnits="userSpaceOnUse"><stop stop-color="#BF8C15"/><stop offset="1" stop-color="#8C6301"/></linearGradient><linearGradient id="paint10_linear_9138_62118" x1="50.859" y1="34.89" x2="74.199" y2="34.89" gradientUnits="userSpaceOnUse"><stop stop-color="#BF8C15"/><stop offset="1" stop-color="#8C6301"/></linearGradient><linearGradient id="paint11_linear_9138_62118" x1="74.645" y1="21.802" x2="77.871" y2="21.802" gradientUnits="userSpaceOnUse"><stop stop-color="#BF8C15"/><stop offset="1" stop-color="#8C6301"/></linearGradient><linearGradient id="paint12_linear_9138_62118" x1="50.375" y1="47.471" x2="50.696" y2="47.471" gradientUnits="userSpaceOnUse"><stop stop-color="#BF8C15"/><stop offset="1" stop-color="#8C6301"/></linearGradient><linearGradient id="paint13_linear_9138_62118" x1="61.046" y1="33.501" x2="75.426" y2="33.501" gradientUnits="userSpaceOnUse"><stop stop-color="#BF8C15"/><stop offset="1" stop-color="#8C6301"/></linearGradient><linearGradient id="paint14_linear_9138_62118" x1="54.534" y1="44.103" x2="60.519" y2="44.103" gradientUnits="userSpaceOnUse"><stop stop-color="#BF8C15"/><stop offset="1" stop-color="#8C6301"/></linearGradient><linearGradient id="paint15_linear_9138_62118" x1="76.667" y1="24.13" x2="80.142" y2="24.13" gradientUnits="userSpaceOnUse"><stop stop-color="#BF8C15"/><stop offset="1" stop-color="#8C6301"/></linearGradient><linearGradient id="paint16_linear_9138_62118" x1="53.096" y1="48.084" x2="54.338" y2="48.084" gradientUnits="userSpaceOnUse"><stop stop-color="#BF8C15"/><stop offset="1" stop-color="#8C6301"/></linearGradient><linearGradient id="paint17_linear_9138_62118" x1="57.888" y1="36.31" x2="82.057" y2="36.31" gradientUnits="userSpaceOnUse"><stop stop-color="#BF8C15"/><stop offset="1" stop-color="#8C6301"/></linearGradient><linearGradient id="paint18_linear_9138_62118" x1="56.555" y1="49.094" x2="57.68" y2="49.094" gradientUnits="userSpaceOnUse"><stop stop-color="#BF8C15"/><stop offset="1" stop-color="#8C6301"/></linearGradient><linearGradient id="paint19_linear_9138_62118" x1="60.715" y1="38.584" x2="83.596" y2="38.584" gradientUnits="userSpaceOnUse"><stop stop-color="#BF8C15"/><stop offset="1" stop-color="#8C6301"/></linearGradient><linearGradient id="paint20_linear_9138_62118" x1="59.514" y1="50.707" x2="60.258" y2="50.707" gradientUnits="userSpaceOnUse"><stop stop-color="#BF8C15"/><stop offset="1" stop-color="#8C6301"/></linearGradient><linearGradient id="paint21_linear_9138_62118" x1="60.046" y1="54.31" x2="60.443" y2="54.31" gradientUnits="userSpaceOnUse"><stop stop-color="#BF8C15"/><stop offset="1" stop-color="#8C6301"/></linearGradient><linearGradient id="paint22_linear_9138_62118" x1="62.094" y1="41.958" x2="84.696" y2="41.958" gradientUnits="userSpaceOnUse"><stop stop-color="#BF8C15"/><stop offset="1" stop-color="#8C6301"/></linearGradient><linearGradient id="paint23_linear_9138_62118" x1="63.349" y1="44.627" x2="85.223" y2="44.627" gradientUnits="userSpaceOnUse"><stop stop-color="#BF8C15"/><stop offset="1" stop-color="#8C6301"/></linearGradient><linearGradient id="paint24_linear_9138_62118" x1="67.665" y1="46.765" x2="85.12" y2="46.765" gradientUnits="userSpaceOnUse"><stop stop-color="#BF8C15"/><stop offset="1" stop-color="#8C6301"/></linearGradient><linearGradient id="paint25_linear_9138_62118" x1="73.628" y1="48.977" x2="83.469" y2="48.977" gradientUnits="userSpaceOnUse"><stop stop-color="#BF8C15"/><stop offset="1" stop-color="#8C6301"/></linearGradient></defs></svg>