<svg width="90" height="90" fill="none" xmlns="http://www.w3.org/2000/svg"><path d="M49.262 13.765h-1.143a20.443 20.443 0 0 0-1.351 2.438l2.494-2.438z" fill="url(#paint0_linear_9138_62276)"/><path d="M52.806 10.226l3.85-3.764a19.237 19.237 0 0 0-3.794 2.18l-.954.933c.332.17.634.392.898.65z" fill="url(#paint1_linear_9138_62276)"/><path d="M48.911 12.441h1.51l1.46-1.368a2.321 2.321 0 0 0-.983-.539l-1.855 1.77c-.045.059-.087.137-.132.137z" fill="url(#paint2_linear_9138_62276)"/><path d="M52.465 13.765h-.348l-1.545 1.51a2.389 2.389 0 0 0 1.893-1.51z" fill="url(#paint3_linear_9138_62276)"/><path d="M45.128 22.052l5.707-5.58a3.68 3.68 0 0 1-.591.05.646.646 0 0 1-.601-.413l-4.232 4.137a19.194 19.194 0 0 0-.283 1.806z" fill="url(#paint4_linear_9138_62276)"/><path d="M54.84 12.441l1.566-1.472a3.617 3.617 0 0 1 1.437-1.376l4.764-4.643c-.614.054-1.218.143-1.815.253l-6.975 6.764c.04.172.071.474.085.474h.939z" fill="url(#paint5_linear_9138_62276)"/><path d="M66.92 5.07a19.383 19.383 0 0 0-1.42-.142L60.903 9.42c.359.138.689.331.983.568l5.033-4.92z" fill="url(#paint6_linear_9138_62276)"/><path d="M59.26 12.441l1.69-1.595c-.327-.23-.713-.41-1.133-.45l-2.121 2.045h1.564z" fill="url(#paint7_linear_9138_62276)"/><path d="M45.137 26.4L58.1 13.765h-1.564l-11.508 11.23c.02.48.055.935.109 1.405z" fill="url(#paint8_linear_9138_62276)"/><path d="M63.68 12.441l6.802-6.592c-.393-.133-.79-.227-1.194-.334l-6.237 6.054c.102.29.171.607.196.872h.432z" fill="url(#paint9_linear_9138_62276)"/><path d="M45.89 29.947L59.625 16.52l-.037.002a.648.648 0 0 1-.577-.932L45.56 28.74c.098.407.207.81.33 1.207z" fill="url(#paint10_linear_9138_62276)"/><path d="M59.588 15.264c1.015 0 1.881-.705 2.222-1.5h-.855l-1.633 1.578a.653.653 0 0 1 .266-.078z" fill="url(#paint11_linear_9138_62276)"/><path d="M47.162 33.023l19.674-19.195c-.229-.064-.465-.063-.703-.063h-.76l-18.71 18.254c.157.353.324.663.5 1.004z" fill="url(#paint12_linear_9138_62276)"/><path d="M73.535 7.242a18.957 18.957 0 0 0-1.031-.523l-5.993 5.858c.419.045.827.167 1.213.345l5.811-5.68z" fill="url(#paint13_linear_9138_62276)"/><path d="M50.74 33.843L69.034 15.96a3.304 3.304 0 0 0-.53-1.012l-18.873 18.45c.39.09.765.237 1.109.445z" fill="url(#paint14_linear_9138_62276)"/><path d="M76.171 8.983c-.29-.227-.587-.448-.89-.659l-5.967 5.833c.237.288.44.606.599.944l6.258-6.118z" fill="url(#paint15_linear_9138_62276)"/><path d="M48.83 35.052c.223 0 .424-.11.632.154h-.009c-.207-.265-.395-.155-.618-.155-.144 0-.394-.033-.394-.004 0-.028.246.005.39.005z" fill="url(#paint16_linear_9138_62276)"/><path d="M53.087 35.87l16.6-16.226-.221-1.314-17.191 16.806.812.734z" fill="url(#paint17_linear_9138_62276)"/><path d="M51.462 36.147v1.095-1.095z" fill="url(#paint18_linear_9138_62276)"/><path d="M78.45 11.078a19.415 19.415 0 0 0-.768-.78l-7.228 7.065.22 1.315 7.775-7.6z" fill="url(#paint19_linear_9138_62276)"/><path d="M80.37 13.519a19.317 19.317 0 0 0-.638-.907l-8.655 8.461.22 1.315 9.073-8.87z" fill="url(#paint20_linear_9138_62276)"/><path d="M55.383 37.944l14.925-14.59-.22-1.314L54.57 37.21l.813.734z" fill="url(#paint21_linear_9138_62276)"/><path d="M53.367 38.395h-.001v.042-.042z" fill="url(#paint22_linear_9138_62276)"/><path d="M70.941 26.654l-5.285 5.606.029-.008 5.256-5.598z" fill="url(#paint23_linear_9138_62276)"/><path d="M71.91 26.048l.078-.017-.078.016z" fill="url(#paint24_linear_9138_62276)"/><path d="M73.565 24.49l8.348-8.16a19.15 19.15 0 0 0-.5-1.039l-9.219 9.011c.06-.003.12-.009.18-.009.41 0 .811.07 1.191.197z" fill="url(#paint25_linear_9138_62276)"/><path d="M56.054 40.297v1.095-1.095z" fill="url(#paint26_linear_9138_62276)"/><path d="M83.022 19.565c-.099-.405-.21-.807-.334-1.201l-7.437 7.27c.245.289.442.61.588.953l7.183-7.022z" fill="url(#paint28_linear_9138_62276)"/><path d="M73.05 32.846l.114.675L83.56 23.358c-.02-.477-.059-.95-.113-1.418l-7.515 7.347c-.17.493-.44.95-.808 1.343l-2.073 2.216z" fill="url(#paint29_linear_9138_62276)"/><path d="M64.458 41.908l2.524-2.467h-.216l-2.308 2.467z" fill="url(#paint30_linear_9138_62276)"/><path d="M72.075 33.866l-4.247 4.516h.315l4.032-3.93-.1-.586z" fill="url(#paint31_linear_9138_62276)"/><path d="M73.786 37.232l9.406-9.194c.12-.59.211-1.19.276-1.799l-9.902 9.68.22 1.313z" fill="url(#paint32_linear_9138_62276)"/><path d="M69.06 40.323l.224 1.31 3.514-3.434-.22-1.314-3.517 3.438z" fill="url(#paint33_linear_9138_62276)"/><path d="M67.738 43.145l.559-.547-.223-1.31-2.145 2.096a19.302 19.302 0 0 0 1.81-.24z" fill="url(#paint34_linear_9138_62276)"/><path d="M73.304 41.217l-.104-.62-1.356 1.326c.5-.213.984-.453 1.46-.706z" fill="url(#paint35_linear_9138_62276)"/><path d="M75.552 39.827l4.154-4.062a19.286 19.286 0 0 0 2.154-3.634l-7.671 7.5.165.986c.408-.251.81-.511 1.198-.79z" fill="url(#paint36_linear_9138_62276)"/><path d="M40.496 71.626c.003-.058.003-.155.005-.155h-2.834c-.283 0-.523-.273-.562-.553l-1.844-13.135a4.54 4.54 0 0 0-.69-.586c-1.109-.726-2.73.266-4.352 1.335l2.049 14.972c.21 1.482 1.587 2.731 3.068 2.731h1.215c1.563-1.588 3.84-2.712 3.945-4.61z" fill="#248FB2"/><path d="M16.6 77.294c.373 1.588.494 3.24 2.023 4.242 2.074 1.359 4.112 1.07 6.422 1.197 2.383.132 5.688 3.186 7.82 2.113 2.038-1.027 1.454-5.434 2.743-7.552H16.599zm-3.24-14.71c-1.36 2.074-5.068 4.803-5.196 7.113-.07 1.267 1.853 2.247 3.83 3.207l1.822-10.863c-.167.164-.324.34-.457.543z" fill="#99E6FF"/><path d="M37.329 64.323l.831 5.824h2.313c-.165-1.853-.89-4.235-1.74-5.824h-1.404z" fill="#57B9D9"/><path d="M38.206 63.265c-.452-1.06-.925-2.268-1.512-3.373l.475 3.373h1.038z" fill="#99E6FF"/><path d="M31.144 73.656l-1.976-14.42c-1.049.67-2.05 1.206-2.86 1.161-2.383-.132-4.044-1.863-6.176-.79-1.422.717-3.452.874-5.022 1.581l-2.052 12.236c1.356.675 2.568 1.409 2.968 2.203.093.184.173.344.244.608h16.256c-.726-.794-1.243-1.596-1.382-2.579z" fill="#57B9D9"/><path d="M73.164 33.52l-.113-.674 2.073-2.216c.367-.392.637-.85.808-1.343a3.758 3.758 0 0 0-.094-2.7 3.725 3.725 0 0 0-.587-.953 3.768 3.768 0 0 0-.305-.325c-.4-.375-.872-.65-1.38-.82a3.766 3.766 0 0 0-1.192-.196c-.06 0-.12.006-.18.01-.19.009-.38.028-.565.066l-.333-1.981-.22-1.314-.402-2.396-.22-1.315-.193-1.152a4.16 4.16 0 0 0-.349-1.11 4.544 4.544 0 0 0-2.189-2.179c-.385-.178-.793-.357-1.212-.402-.125-.013-.25-.079-.377-.079h-2.886a3.764 3.764 0 0 0-.197-.858 3.592 3.592 0 0 0-1.165-1.622 3.622 3.622 0 0 0-.983-.554 3.644 3.644 0 0 0-1.314-.238c-.632 0-1.226.167-1.746.45-.6.325-1.098.757-1.437 1.348a3.51 3.51 0 0 0-.476 1.474h-2.028c-.014 0-.045-.298-.085-.47a3.58 3.58 0 0 0-1.01-1.774 3.617 3.617 0 0 0-.9-.636c-.499-.255-1.064-.45-1.662-.45-1.927 0-3.512 1.477-3.66 3.33h-2.028c-.15-1.853-1.732-3.38-3.658-3.38-1.927 0-3.512 1.527-3.66 3.38H35.21c-.15-1.853-1.731-3.38-3.657-3.38s-3.512 1.527-3.66 3.38H25.63c-1.947 0-3.799 1.697-4.127 3.71l-7.687 45.861-1.821 10.878-.09.537c-.176 1.026.066 2.007.683 2.74.607.72 1.497 1.127 2.507 1.127h61.573c1.01 0 1.9-.404 2.507-1.124.617-.732.86-1.705.683-2.729L74.354 40.62l-.165-.987-.403-2.4-.22-1.313-.402-2.398zm-5.382 5.921l.292 1.784.223 1.335.275 1.646h-5.955l-.032-.18 1.873-2.06 2.308-2.525h1.014zm-1.948 23.824l-.924-5.56h5.955l.924 5.56h-5.955zm6.148 1.058l1.003 5.824H67.03l-1.003-5.824h5.955zm-31.509 5.824H38.16l-.831-5.824h5.921l.807 5.824h-3.584zm.187-24.882l.673 5.029h-5.98l-.692-5.03h6zm-6.159-1.06l-.655-4.764h6.023l.636 4.765h-6.004zm27.158 1.06l.836 5.029h-5.956l-.36-2.13c.27.061.547.09.828.09 1.039 0 2.041-.482 2.75-1.24l1.593-1.75h.31zm1.028 6.088l.88 5.294H57.61l-.88-5.294h5.956zm-20.881-6.088h5.96l.672 5.029h-5.96l-.672-5.03zm.39 11.382h-5.953l-.73-5.294h5.975l.708 5.294zm6.23-14.854l2.671 2.413h-2.341l-.33-2.413zm.167 9.56l.708 5.294h-5.96l-.709-5.294h5.961zm.318-6.088h3.442l2.13 1.968c.144.13.297.277.456.381l.45 2.68h-5.806l-.672-5.03zm6.67 6.088l.88 5.294h-6.015l-.708-5.294h5.843zm-9.31-11.555l.85.791.49 3.617h-5.96l-.637-4.765h4.965c.092.265.188.264.292.357zm-9.868 17.908h5.949l.744 5.559H37.17l-.475-3.43-.292-2.13zm7.093 0h5.96l.744 5.559h-5.96l-.744-5.56zm6.859 6.617l.807 5.824h-5.96l-.807-5.824h5.96zm.246-6.617h6.052l.925 5.559h-6.233l-.744-5.56zm7.17 6.617l1.002 5.824h-6.466l-.807-5.824h6.27zm.957-1.058l-.924-5.56h5.955l.924 5.56h-5.955zm6.148 1.058l1.003 5.824h-5.955l-1.003-5.824h5.955zm-.16-7.676l-.878-5.294h5.955l.88 5.294h-5.956zm-1.07-6.353l-.836-5.03h5.955l.835 5.03h-5.955zm8.728-24.3a2.056 2.056 0 0 1 1.789 1.033c.167.29.262.618.273.962a2.054 2.054 0 0 1-.555 1.479L58.514 45.894a2.062 2.062 0 0 1-2.89.122l-8.214-7.419a2.047 2.047 0 0 1-.677-1.425 2.05 2.05 0 0 1 .53-1.488 2.068 2.068 0 0 1 2.914-.15l.878.794.813.734 1.483 1.317.03.004 1.413 1.271.883.824.797.733.417.322 1.892-2.092h.001l1.062-1.059h-.001l5.811-6.145 5.285-5.584.011-.005c.286-.306.519-.51 1.048-.6v-.001c0-.006.007-.011.034-.016.125-.023.209-.037.34-.037zm-12.785-15.58c.077 0 .153.033.228.04.42.04.806.148 1.133.378.537.377.912 1.08.997 1.61H57.23c.144-1.06 1.148-2.029 2.359-2.029zm-9.345 0c.227 0 .446.06.654.12.374.107.709.263.983.524.387.37.652.854.721 1.383h-4.716c.142-1.059 1.145-2.028 2.358-2.028zm-9.346-.058c1.212 0 2.213 1.026 2.358 2.085H38.54c.144-1.059 1.147-2.085 2.36-2.085zm-9.345 0c1.211 0 2.212 1.026 2.357 2.085h-4.717c.144-1.059 1.148-2.085 2.36-2.085zM16.27 76.236h-1.182v-.093c-.794 0-1.248-.253-1.635-.712-.398-.472-.55-1.113-.43-1.806l.034-.202 2.053-12.238 7.512-44.792c.102-.63.404-1.21.825-1.67a3.665 3.665 0 0 0-.157 1.656l5.878 42.834 1.976 14.443c.139.983.656 1.785 1.382 2.58H16.27zm56.93-35.64l.104.621 5.435 32.41c.12.69-.034 1.378-.432 1.85-.387.46-.969.758-1.638.758H35.336c-1.482 0-2.858-1.253-3.069-2.735L30.22 58.548l-5.805-42.309c-.094-.714.085-1.343.507-1.824.386-.44.94-.65 1.56-.65h7.292c-.34.794-1.207 1.5-2.22 1.5a.632.632 0 0 0-.647.628c0 .358.29.675.647.675a3.686 3.686 0 0 0 3.57-2.803h7.996c-.341.794-1.207 1.5-2.221 1.5a.632.632 0 0 0-.647.628c0 .358.29.676.647.676a3.686 3.686 0 0 0 3.571-2.804h7.995c-.303.794-1.023 1.352-1.893 1.473-.107.015-.216.008-.328.008a.64.64 0 0 0-.646.637.644.644 0 0 0 .647.64c.201 0 .398.019.59-.012 1.468-.24 2.644-1.423 2.981-2.746h7.994c-.34.794-1.207 1.499-2.222 1.499a.63.63 0 0 0-.266.04.628.628 0 0 0-.38.574c0 .358.29.646.646.646.012 0 .024.035.036.035a3.667 3.667 0 0 0 3.536-2.794h2.973c.238 0 .474 0 .703.063a3.206 3.206 0 0 1 1.668 1.139 3.262 3.262 0 0 1 .637 1.432l.324 1.933.22 1.313.403 2.395.22 1.314.237 1.414c-.34.189-.652.405-.92.693l-12.11 12.921H55.92l-.537-.462-.813-.722-1.483-1.334-.812-.731-.957-.864a3.758 3.758 0 0 0-1.687-.871 3.756 3.756 0 0 0-.835-.098 3.774 3.774 0 0 0-2.795 1.242 3.682 3.682 0 0 0-.967 2.691c.02.409.109.884.252 1.149H33.194a.592.592 0 0 0-.428.219.595.595 0 0 0-.134.463l2.63 18.68 1.844 13.17c.04.28.279.556.561.556h35.989c.167 0 .326-.138.434-.266a.64.64 0 0 0 .126-.493L69.284 41.65l-.222-1.32-.241-1.448c-.047-.273-.283-.5-.56-.5h-.432l4.247-4.517.1.61.403 2.404.22 1.316.4 2.402z" fill="#004D66"/><path d="M9.654 59.67a3.214 3.214 0 1 0 0-6.428 3.214 3.214 0 0 0 0 6.428z" fill="#E8C25A"/><path d="M74.947 25.309a3.752 3.752 0 0 0-2.573-1.016c-1.04 0-2.041.434-2.75 1.192l-12.84 13.726-5.466-4.94a3.76 3.76 0 0 0-2.522-.97 3.773 3.773 0 0 0-2.795 1.241 3.737 3.737 0 0 0-.967 2.716 3.734 3.734 0 0 0 1.237 2.602l8.213 7.418a3.76 3.76 0 0 0 2.523.971 3.78 3.78 0 0 0 2.75-1.193L75.126 30.63a3.741 3.741 0 0 0 1.013-2.697 3.746 3.746 0 0 0-1.191-2.624zm-1.066 4.159L58.513 45.894a2.062 2.062 0 0 1-2.89.122l-8.213-7.419a2.048 2.048 0 0 1-.678-1.426 2.05 2.05 0 0 1 .53-1.488 2.069 2.069 0 0 1 2.915-.15l6.707 6.062 13.983-14.948a2.041 2.041 0 0 1 1.506-.653c.526 0 1.027.198 1.41.557.403.377.634.887.653 1.438a2.052 2.052 0 0 1-.555 1.479z" fill="#248FB2"/><defs><linearGradient id="paint0_linear_9138_62276" x1="46.768" y1="14.984" x2="49.262" y2="14.984" gradientUnits="userSpaceOnUse"><stop stop-color="#BF8C15"/><stop offset="1" stop-color="#8C6301"/></linearGradient><linearGradient id="paint1_linear_9138_62276" x1="51.908" y1="8.344" x2="56.657" y2="8.344" gradientUnits="userSpaceOnUse"><stop stop-color="#BF8C15"/><stop offset="1" stop-color="#8C6301"/></linearGradient><linearGradient id="paint2_linear_9138_62276" x1="48.911" y1="11.488" x2="51.881" y2="11.488" gradientUnits="userSpaceOnUse"><stop stop-color="#BF8C15"/><stop offset="1" stop-color="#8C6301"/></linearGradient><linearGradient id="paint3_linear_9138_62276" x1="50.571" y1="14.52" x2="52.465" y2="14.52" gradientUnits="userSpaceOnUse"><stop stop-color="#BF8C15"/><stop offset="1" stop-color="#8C6301"/></linearGradient><linearGradient id="paint4_linear_9138_62276" x1="45.128" y1="19.08" x2="50.835" y2="19.08" gradientUnits="userSpaceOnUse"><stop stop-color="#BF8C15"/><stop offset="1" stop-color="#8C6301"/></linearGradient><linearGradient id="paint5_linear_9138_62276" x1="53.817" y1="8.696" x2="62.607" y2="8.696" gradientUnits="userSpaceOnUse"><stop stop-color="#BF8C15"/><stop offset="1" stop-color="#8C6301"/></linearGradient><linearGradient id="paint6_linear_9138_62276" x1="60.903" y1="7.459" x2="66.919" y2="7.459" gradientUnits="userSpaceOnUse"><stop stop-color="#BF8C15"/><stop offset="1" stop-color="#8C6301"/></linearGradient><linearGradient id="paint7_linear_9138_62276" x1="57.696" y1="11.418" x2="60.95" y2="11.418" gradientUnits="userSpaceOnUse"><stop stop-color="#BF8C15"/><stop offset="1" stop-color="#8C6301"/></linearGradient><linearGradient id="paint8_linear_9138_62276" x1="45.029" y1="20.082" x2="58.1" y2="20.082" gradientUnits="userSpaceOnUse"><stop stop-color="#BF8C15"/><stop offset="1" stop-color="#8C6301"/></linearGradient><linearGradient id="paint9_linear_9138_62276" x1="63.051" y1="8.978" x2="70.482" y2="8.978" gradientUnits="userSpaceOnUse"><stop stop-color="#BF8C15"/><stop offset="1" stop-color="#8C6301"/></linearGradient><linearGradient id="paint10_linear_9138_62276" x1="45.559" y1="22.768" x2="59.625" y2="22.768" gradientUnits="userSpaceOnUse"><stop stop-color="#BF8C15"/><stop offset="1" stop-color="#8C6301"/></linearGradient><linearGradient id="paint11_linear_9138_62276" x1="59.322" y1="14.553" x2="61.81" y2="14.553" gradientUnits="userSpaceOnUse"><stop stop-color="#BF8C15"/><stop offset="1" stop-color="#8C6301"/></linearGradient><linearGradient id="paint12_linear_9138_62276" x1="46.662" y1="23.394" x2="66.836" y2="23.394" gradientUnits="userSpaceOnUse"><stop stop-color="#BF8C15"/><stop offset="1" stop-color="#8C6301"/></linearGradient><linearGradient id="paint13_linear_9138_62276" x1="66.511" y1="9.821" x2="73.535" y2="9.821" gradientUnits="userSpaceOnUse"><stop stop-color="#BF8C15"/><stop offset="1" stop-color="#8C6301"/></linearGradient><linearGradient id="paint14_linear_9138_62276" x1="49.631" y1="24.396" x2="69.034" y2="24.396" gradientUnits="userSpaceOnUse"><stop stop-color="#BF8C15"/><stop offset="1" stop-color="#8C6301"/></linearGradient><linearGradient id="paint15_linear_9138_62276" x1="69.314" y1="11.713" x2="76.171" y2="11.713" gradientUnits="userSpaceOnUse"><stop stop-color="#BF8C15"/><stop offset="1" stop-color="#8C6301"/></linearGradient><linearGradient id="paint16_linear_9138_62276" x1="48.441" y1="35.117" x2="49.461" y2="35.117" gradientUnits="userSpaceOnUse"><stop stop-color="#BF8C15"/><stop offset="1" stop-color="#8C6301"/></linearGradient><linearGradient id="paint17_linear_9138_62276" x1="52.275" y1="27.1" x2="69.686" y2="27.1" gradientUnits="userSpaceOnUse"><stop stop-color="#BF8C15"/><stop offset="1" stop-color="#8C6301"/></linearGradient><linearGradient id="paint18_linear_9138_62276" x1="51.04" y1="36.694" x2="51.883" y2="36.694" gradientUnits="userSpaceOnUse"><stop stop-color="#BF8C15"/><stop offset="1" stop-color="#8C6301"/></linearGradient><linearGradient id="paint19_linear_9138_62276" x1="70.454" y1="14.487" x2="78.449" y2="14.487" gradientUnits="userSpaceOnUse"><stop stop-color="#BF8C15"/><stop offset="1" stop-color="#8C6301"/></linearGradient><linearGradient id="paint20_linear_9138_62276" x1="71.077" y1="17.5" x2="80.37" y2="17.5" gradientUnits="userSpaceOnUse"><stop stop-color="#BF8C15"/><stop offset="1" stop-color="#8C6301"/></linearGradient><linearGradient id="paint21_linear_9138_62276" x1="54.57" y1="29.992" x2="70.308" y2="29.992" gradientUnits="userSpaceOnUse"><stop stop-color="#BF8C15"/><stop offset="1" stop-color="#8C6301"/></linearGradient><linearGradient id="paint22_linear_9138_62276" x1="53.351" y1="38.416" x2="53.382" y2="38.416" gradientUnits="userSpaceOnUse"><stop stop-color="#BF8C15"/><stop offset="1" stop-color="#8C6301"/></linearGradient><linearGradient id="paint23_linear_9138_62276" x1="65.656" y1="29.457" x2="70.941" y2="29.457" gradientUnits="userSpaceOnUse"><stop stop-color="#BF8C15"/><stop offset="1" stop-color="#8C6301"/></linearGradient><linearGradient id="paint24_linear_9138_62276" x1="71.91" y1="26.039" x2="71.989" y2="26.039" gradientUnits="userSpaceOnUse"><stop stop-color="#BF8C15"/><stop offset="1" stop-color="#8C6301"/></linearGradient><linearGradient id="paint25_linear_9138_62276" x1="72.194" y1="19.89" x2="81.913" y2="19.89" gradientUnits="userSpaceOnUse"><stop stop-color="#BF8C15"/><stop offset="1" stop-color="#8C6301"/></linearGradient><linearGradient id="paint26_linear_9138_62276" x1="55.656" y1="40.844" x2="56.452" y2="40.844" gradientUnits="userSpaceOnUse"><stop stop-color="#BF8C15"/><stop offset="1" stop-color="#8C6301"/></linearGradient><linearGradient id="paint27_linear_9138_62276" x1="74.029" y1="26.927" x2="74.163" y2="26.927" gradientUnits="userSpaceOnUse"><stop stop-color="#BF8C15"/><stop offset="1" stop-color="#8C6301"/></linearGradient><linearGradient id="paint28_linear_9138_62276" x1="75.251" y1="22.476" x2="83.022" y2="22.476" gradientUnits="userSpaceOnUse"><stop stop-color="#BF8C15"/><stop offset="1" stop-color="#8C6301"/></linearGradient><linearGradient id="paint29_linear_9138_62276" x1="73.051" y1="27.73" x2="83.56" y2="27.73" gradientUnits="userSpaceOnUse"><stop stop-color="#BF8C15"/><stop offset="1" stop-color="#8C6301"/></linearGradient><linearGradient id="paint30_linear_9138_62276" x1="64.458" y1="40.675" x2="66.982" y2="40.675" gradientUnits="userSpaceOnUse"><stop stop-color="#BF8C15"/><stop offset="1" stop-color="#8C6301"/></linearGradient><linearGradient id="paint31_linear_9138_62276" x1="67.828" y1="36.124" x2="72.175" y2="36.124" gradientUnits="userSpaceOnUse"><stop stop-color="#BF8C15"/><stop offset="1" stop-color="#8C6301"/></linearGradient><linearGradient id="paint32_linear_9138_62276" x1="73.566" y1="31.736" x2="83.468" y2="31.736" gradientUnits="userSpaceOnUse"><stop stop-color="#BF8C15"/><stop offset="1" stop-color="#8C6301"/></linearGradient><linearGradient id="paint33_linear_9138_62276" x1="69.061" y1="39.26" x2="72.798" y2="39.26" gradientUnits="userSpaceOnUse"><stop stop-color="#BF8C15"/><stop offset="1" stop-color="#8C6301"/></linearGradient><linearGradient id="paint34_linear_9138_62276" x1="65.93" y1="42.335" x2="68.297" y2="42.335" gradientUnits="userSpaceOnUse"><stop stop-color="#BF8C15"/><stop offset="1" stop-color="#8C6301"/></linearGradient><linearGradient id="paint35_linear_9138_62276" x1="71.844" y1="41.26" x2="73.304" y2="41.26" gradientUnits="userSpaceOnUse"><stop stop-color="#BF8C15"/><stop offset="1" stop-color="#8C6301"/></linearGradient><linearGradient id="paint36_linear_9138_62276" x1="74.188" y1="36.374" x2="81.861" y2="36.374" gradientUnits="userSpaceOnUse"><stop stop-color="#BF8C15"/><stop offset="1" stop-color="#8C6301"/></linearGradient></defs></svg>